<?xml version="1.0" encoding="UTF-8" standalone="no"?>
<!-- Created with Inkscape (http://www.inkscape.org/) -->

<svg
   xmlns:dc="http://purl.org/dc/elements/1.1/"
   xmlns:cc="http://creativecommons.org/ns#"
   xmlns:rdf="http://www.w3.org/1999/02/22-rdf-syntax-ns#"
   xmlns:svg="http://www.w3.org/2000/svg"
   xmlns="http://www.w3.org/2000/svg"
   xmlns:xlink="http://www.w3.org/1999/xlink"
   xmlns:sodipodi="http://sodipodi.sourceforge.net/DTD/sodipodi-0.dtd"
   xmlns:inkscape="http://www.inkscape.org/namespaces/inkscape"
   width="22"
   height="22"
   id="svg2"
   sodipodi:version="0.32"
   inkscape:version="0.48.1 r9760"
   version="1.0"
   sodipodi:docname="audacious-panel.svg"
   inkscape:output_extension="org.inkscape.output.svg.inkscape"
   inkscape:export-filename="/home/matt/.icons/Sirocco/scalable/mimetypes/text-plain.png"
   inkscape:export-xdpi="90"
   inkscape:export-ydpi="90"
   sodipodi:modified="true"
   style="display:inline">
  <sodipodi:namedview
     id="base"
     pagecolor="#838383"
     bordercolor="#cc0000"
     borderopacity="1"
     inkscape:pageopacity="1"
     inkscape:pageshadow="2"
     inkscape:zoom="22.027846"
     inkscape:cx="5.0473506"
     inkscape:cy="6.6795598"
     inkscape:document-units="px"
     inkscape:current-layer="layer1"
     width="128px"
     height="128px"
     inkscape:showpageshadow="false"
     inkscape:window-width="1920"
     inkscape:window-height="1030"
     inkscape:window-x="0"
     inkscape:window-y="25"
     showguides="true"
     inkscape:guide-bbox="true"
     showgrid="true"
     inkscape:window-maximized="1"
     borderlayer="true"
     inkscape:snap-global="true">
    <inkscape:grid
       enabled="true"
       visible="true"
       id="grid3231"
       type="xygrid"
       empspacing="8"
       snapvisiblegridlinesonly="true" />
    <sodipodi:guide
       orientation="1,0"
       position="12,17"
       id="guide3791" />
    <sodipodi:guide
       orientation="0,1"
       position="14,9"
       id="guide3793" />
  </sodipodi:namedview>
  <defs
     id="defs4">
    <linearGradient
       id="StandardGradient"
       gradientTransform="scale(0.9219544,1.0846523)"
       x1="11.998966"
       y1="0.92195445"
       x2="11.998966"
       y2="19.387045"
       gradientUnits="userSpaceOnUse">
      <stop
         style="stop-color:#000000;stop-opacity:0.23529412;"
         offset="0"
         id="stop3283" />
      <stop
         id="stop3850"
         offset="0.69999999"
         style="stop-color:#000000;stop-opacity:0.39215686;" />
      <stop
         style="stop-color:#000000;stop-opacity:0.55;"
         offset="1"
         id="stop2651" />
    </linearGradient>
    <radialGradient
       inkscape:collect="always"
       xlink:href="#StandardGradient"
       id="radialGradient3820"
       cx="12.532976"
       cy="12.602648"
       fx="12.532976"
       fy="12.602648"
       r="8.9818287"
       gradientTransform="matrix(1.7813745,-4.0455866e-8,2.7813408e-8,1.224695,-10.325925,-2.4343984)"
       gradientUnits="userSpaceOnUse" />
    <radialGradient
       inkscape:collect="always"
       xlink:href="#SpecificGradient"
       id="radialGradient3855"
       gradientUnits="userSpaceOnUse"
       cx="36"
       cy="2"
       fx="36"
       fy="2"
       r="4"
       gradientTransform="translate(0,10)" />
    <linearGradient
       id="SpecificGradient"
       x1="10.406627"
       y1="2"
       x2="10.406627"
       y2="18.000771"
       gradientUnits="userSpaceOnUse">
      <stop
         style="stop-color:#e64b36;stop-opacity:1;"
         offset="0"
         id="stop3292" />
      <stop
         style="stop-color:#a31414;stop-opacity:1;"
         offset="1"
         id="stop3294" />
    </linearGradient>
    <radialGradient
       r="4"
       fy="2"
       fx="36"
       cy="2"
       cx="36"
       gradientUnits="userSpaceOnUse"
       id="radialGradient3038"
       xlink:href="#StandardGradient"
       inkscape:collect="always" />
    <radialGradient
       inkscape:collect="always"
       xlink:href="#StandardGradient"
       id="radialGradient3842"
       cx="12"
       cy="13"
       fx="12"
       fy="13"
       r="8"
       gradientUnits="userSpaceOnUse"
       gradientTransform="matrix(2,0,0,1.25,-12,26.75)" />
    <radialGradient
       inkscape:collect="always"
       xlink:href="#StandardGradient"
       id="radialGradient3852"
       gradientUnits="userSpaceOnUse"
       gradientTransform="matrix(2,0,0,1.25,-42,-3.25)"
       cx="12"
       cy="13"
       fx="12"
       fy="13"
       r="8" />
    <radialGradient
       inkscape:collect="always"
       xlink:href="#StandardGradient"
       id="radialGradient3854"
       gradientUnits="userSpaceOnUse"
       gradientTransform="matrix(2,0,0,1.25,-42,-3.25)"
       cx="12"
       cy="13"
       fx="12"
       fy="13"
       r="8" />
    <clipPath
       clipPathUnits="userSpaceOnUse"
       id="clipPath3862">
      <path
         id="path3864"
         d="m 11,3 c -4.418278,0 -8,3.581722 -8,8 0,4.418278 3.581722,8 8,8 4.418278,0 8,-3.581722 8,-8 0,-4.418278 -3.581722,-8 -8,-8 z m 0,3.28125 c 1.249125,-0.054213 2.178014,0.2831767 2.84375,0.875 0.665736,0.5918233 1.079773,1.4473539 1.15625,2.53125 0.08379,1.187522 -0.0602,1.894358 -0.1875,2.40625 -0.06365,0.255946 -0.125748,0.472248 -0.15625,0.6875 -0.0305,0.215252 -0.01731,0.474866 0.125,0.6875 0.145592,0.217538 0.157952,0.365029 0.15625,0.4375 -0.0017,0.07247 0.01528,0.134542 -0.0625,0.21875 -0.155559,0.168416 -0.565402,0.367285 -0.9375,0.65625 -0.08682,0.06743 -0.286282,0.100608 -0.5,0.0625 -0.213718,-0.03811 -0.407133,-0.169244 -0.53125,-0.3125 a 0.38043645,0.38043645 0 0 0 -0.125,-0.0625 c -0.329726,-0.178803 -0.602951,-0.26141 -0.875,-0.21875 -0.272049,0.04266 -0.461398,0.171285 -0.625,0.28125 C 10.956826,14.74931 10.595186,14.993338 9.46875,15 9.46175,14.999731 9.44449,15.000327 9.4375,15 8.3458902,14.948934 7.3362622,14.183208 7.0625,13.21875 6.8320871,12.407011 6.9032945,11.769662 7.21875,11.25 7.5342055,10.730338 8.1292453,10.289793 9.09375,10 9.3027147,9.9372147 9.7415271,9.9155 10.1875,9.875 10.633473,9.8345 11.084411,9.826023 11.46875,9.5625 11.802819,9.3334451 11.99888,8.9177809 11.875,8.5625 11.75112,8.2072191 11.429063,8.0103714 11.03125,7.96875 10.528301,7.916131 9.948053,7.97017 9.40625,8.03125 8.864447,8.092332 8.3339094,8.1500628 8.03125,8.09375 7.9201118,8.0730717 7.8037245,7.9199664 7.75,7.65625 7.6962755,7.3925336 7.7779816,7.1145038 7.875,7 8.1100535,6.7225827 8.6134631,6.500967 9.21875,6.40625 9.8240369,6.311533 10.495499,6.3031468 11,6.28125 z m 0.15625,4.5 c -0.728125,0 -1.375,0.535291 -1.375,1.25 0,0.714709 0.646875,1.25 1.375,1.25 0.728126,0 1.34375,-0.546558 1.34375,-1.25 0,-0.703442 -0.615624,-1.25 -1.34375,-1.25 z"
         style="color:#000000;fill:#ff00ff;fill-opacity:1;fill-rule:nonzero;stroke:none;stroke-width:8;marker:none;visibility:visible;display:inline;overflow:visible;enable-background:accumulate"
         inkscape:connector-curvature="0" />
    </clipPath>
    <filter
       inkscape:collect="always"
       id="filter3866">
      <feGaussianBlur
         inkscape:collect="always"
         stdDeviation="0.4"
         id="feGaussianBlur3868" />
    </filter>
    <clipPath
       clipPathUnits="userSpaceOnUse"
       id="clipPath3874">
      <path
         style="opacity:0.5;color:#000000;fill:#ff00ff;fill-opacity:1;fill-rule:nonzero;stroke:none;stroke-width:2;marker:none;visibility:visible;display:inline;overflow:visible;enable-background:accumulate"
         d="m -30,-30 0,22 22,0 0,-22 -22,0 z m 11,3 c 4.418278,0 8,3.581722 8,8 0,4.418278 -3.581722,8 -8,8 -4.418278,0 -8,-3.581722 -8,-8 0,-4.418278 3.581722,-8 8,-8 z m 0,3.28125 c -0.504501,0.0219 -1.175963,0.03028 -1.78125,0.125 -0.605287,0.09472 -1.108697,0.316333 -1.34375,0.59375 -0.09702,0.114504 -0.17873,0.392534 -0.125,0.65625 0.05372,0.263716 0.170112,0.416822 0.28125,0.4375 0.302659,0.05631 0.833197,-0.0014 1.375,-0.0625 0.541803,-0.06108 1.122051,-0.115119 1.625,-0.0625 0.397813,0.04162 0.71987,0.238469 0.84375,0.59375 0.12388,0.355281 -0.07218,0.770945 -0.40625,1 -0.384339,0.263523 -0.835277,0.272 -1.28125,0.3125 -0.445973,0.0405 -0.884785,0.06222 -1.09375,0.125 -0.964505,0.289793 -1.559544,0.730338 -1.875,1.25 -0.315456,0.519662 -0.386663,1.157011 -0.15625,1.96875 0.273762,0.964458 1.28339,1.73018 2.375,1.78125 0.007,3.27e-4 0.02425,-2.69e-4 0.03125,0 1.126436,-0.0067 1.488076,-0.25069 1.8125,-0.46875 0.163602,-0.109965 0.352951,-0.23859 0.625,-0.28125 0.272049,-0.04266 0.545274,0.03995 0.875,0.21875 a 0.38043645,0.38043645 0 0 1 0.125,0.0625 c 0.124117,0.143256 0.317532,0.27439 0.53125,0.3125 0.213718,0.03811 0.41318,0.0049 0.5,-0.0625 0.372098,-0.288965 0.781941,-0.487834 0.9375,-0.65625 0.07778,-0.08421 0.0608,-0.14628 0.0625,-0.21875 0.0017,-0.07247 -0.01066,-0.219962 -0.15625,-0.4375 -0.14231,-0.212634 -0.1555,-0.472248 -0.125,-0.6875 0.0305,-0.215252 0.0926,-0.431554 0.15625,-0.6875 0.1273,-0.511892 0.27129,-1.218728 0.1875,-2.40625 -0.07648,-1.083896 -0.490514,-1.939427 -1.15625,-2.53125 -0.665736,-0.591823 -1.594625,-0.929213 -2.84375,-0.875 z m 0.15625,4.5 c 0.728126,0 1.34375,0.546558 1.34375,1.25 0,0.703442 -0.615624,1.25 -1.34375,1.25 -0.728125,0 -1.375,-0.535291 -1.375,-1.25 0,-0.714709 0.646875,-1.25 1.375,-1.25 z"
         id="path3876"
         inkscape:connector-curvature="0" />
    </clipPath>
    <filter
       inkscape:collect="always"
       id="filter3878">
      <feGaussianBlur
         inkscape:collect="always"
         stdDeviation="0.56"
         id="feGaussianBlur3880" />
    </filter>
    <clipPath
       clipPathUnits="userSpaceOnUse"
       id="clipPath3886">
      <path
         style="opacity:0.5;color:#000000;fill:#ff00ff;fill-opacity:1;fill-rule:nonzero;stroke:none;stroke-width:2;marker:none;visibility:visible;display:inline;overflow:visible;enable-background:accumulate"
         d="m -30,30 0,22 22,0 0,-22 -22,0 z m 11,3 c 4.418278,0 8,3.581722 8,8 0,4.418278 -3.581722,8 -8,8 -4.418278,0 -8,-3.581722 -8,-8 0,-4.418278 3.581722,-8 8,-8 z m 0,3.28125 c -0.504501,0.0219 -1.175963,0.03028 -1.78125,0.125 -0.605287,0.09472 -1.108697,0.316333 -1.34375,0.59375 -0.09702,0.114504 -0.17873,0.392534 -0.125,0.65625 0.05372,0.263716 0.170112,0.416822 0.28125,0.4375 0.302659,0.05631 0.833197,-0.0014 1.375,-0.0625 0.541803,-0.06108 1.122051,-0.115119 1.625,-0.0625 0.397813,0.04162 0.71987,0.238469 0.84375,0.59375 0.12388,0.355281 -0.07218,0.770945 -0.40625,1 -0.384339,0.263523 -0.835277,0.272 -1.28125,0.3125 -0.445973,0.0405 -0.884785,0.06221 -1.09375,0.125 -0.964505,0.289793 -1.559544,0.730338 -1.875,1.25 -0.315456,0.519662 -0.386663,1.157011 -0.15625,1.96875 0.273762,0.964458 1.28339,1.73018 2.375,1.78125 0.007,3.27e-4 0.02425,-2.69e-4 0.03125,0 1.126436,-0.0067 1.488076,-0.25069 1.8125,-0.46875 0.163602,-0.109965 0.352951,-0.23859 0.625,-0.28125 0.272049,-0.04266 0.545274,0.03995 0.875,0.21875 a 0.38043645,0.38043645 0 0 1 0.125,0.0625 c 0.124117,0.143256 0.317532,0.27439 0.53125,0.3125 0.213718,0.03811 0.41318,0.0049 0.5,-0.0625 0.372098,-0.288965 0.781941,-0.487834 0.9375,-0.65625 0.07778,-0.08421 0.0608,-0.14628 0.0625,-0.21875 0.0017,-0.07247 -0.01066,-0.219962 -0.15625,-0.4375 -0.14231,-0.212634 -0.1555,-0.472248 -0.125,-0.6875 0.0305,-0.215252 0.0926,-0.431554 0.15625,-0.6875 0.1273,-0.511892 0.27129,-1.218728 0.1875,-2.40625 -0.07648,-1.083896 -0.490514,-1.939427 -1.15625,-2.53125 -0.665736,-0.591823 -1.594625,-0.929213 -2.84375,-0.875 z m 0.15625,4.5 c 0.728126,0 1.34375,0.546558 1.34375,1.25 0,0.703442 -0.615624,1.25 -1.34375,1.25 -0.728125,0 -1.375,-0.535291 -1.375,-1.25 0,-0.714709 0.646875,-1.25 1.375,-1.25 z"
         id="path3888"
         inkscape:connector-curvature="0" />
    </clipPath>
    <filter
       inkscape:collect="always"
       id="filter5498">
      <feGaussianBlur
         inkscape:collect="always"
         stdDeviation="0.4"
         id="feGaussianBlur5500" />
    </filter>
    <radialGradient
       inkscape:collect="always"
       xlink:href="#StandardGradient"
       id="radialGradient3028"
       gradientUnits="userSpaceOnUse"
       gradientTransform="matrix(2,0,0,1.25,-12,-3.25)"
       cx="12"
       cy="13"
       fx="12"
       fy="13"
       r="8" />
    <radialGradient
       inkscape:collect="always"
       xlink:href="#StandardGradient"
       id="radialGradient3800"
       gradientUnits="userSpaceOnUse"
       gradientTransform="matrix(2,0,0,1.25,-12,-2.25)"
       cx="12"
       cy="13"
       fx="12"
       fy="13"
       r="8" />
    <radialGradient
       inkscape:collect="always"
       xlink:href="#StandardGradient"
       id="radialGradient3804"
       gradientUnits="userSpaceOnUse"
       gradientTransform="matrix(2,0,0,1.25,-12,-3.25)"
       cx="12"
       cy="13"
       fx="12"
       fy="13"
       r="8" />
    <radialGradient
       inkscape:collect="always"
       xlink:href="#StandardGradient"
       id="radialGradient3811"
       gradientUnits="userSpaceOnUse"
       gradientTransform="matrix(2,0,0,1.25,-12,-3.25)"
       cx="12"
       cy="13"
       fx="12"
       fy="13"
       r="8" />
    <radialGradient
       inkscape:collect="always"
       xlink:href="#StandardGradient"
       id="radialGradient3815"
       gradientUnits="userSpaceOnUse"
       gradientTransform="matrix(2,0,0,1.25,-12,-3.25)"
       cx="12"
       cy="13"
       fx="12"
       fy="13"
       r="8" />
    <radialGradient
       inkscape:collect="always"
       xlink:href="#StandardGradient"
       id="radialGradient3822"
       gradientUnits="userSpaceOnUse"
       gradientTransform="matrix(2,0,0,1.25,-12,-3.25)"
       cx="12"
       cy="13"
       fx="12"
       fy="13"
       r="8" />
    <radialGradient
       inkscape:collect="always"
       xlink:href="#StandardGradient"
       id="radialGradient3826"
       gradientUnits="userSpaceOnUse"
       gradientTransform="matrix(2,0,0,1.25,-12,-3.25)"
       cx="12"
       cy="13"
       fx="12"
       fy="13"
       r="8" />
    <radialGradient
       inkscape:collect="always"
       xlink:href="#StandardGradient"
       id="radialGradient3828"
       gradientUnits="userSpaceOnUse"
       gradientTransform="matrix(2,0,0,1.25,-12,-3.25)"
       cx="12"
       cy="13"
       fx="12"
       fy="13"
       r="8" />
    <radialGradient
       inkscape:collect="always"
       xlink:href="#StandardGradient"
       id="radialGradient3835"
       gradientUnits="userSpaceOnUse"
       gradientTransform="matrix(2,0,0,1.25,-12,-2.25)"
       cx="12"
       cy="13"
       fx="12"
       fy="13"
       r="8" />
    <radialGradient
       inkscape:collect="always"
       xlink:href="#StandardGradient"
       id="radialGradient3837"
       gradientUnits="userSpaceOnUse"
       gradientTransform="matrix(2,0,0,1.25,-12,-3.25)"
       cx="12"
       cy="13"
       fx="12"
       fy="13"
       r="8" />
  </defs>
  <metadata
     id="metadata7">
    <rdf:RDF>
      <cc:Work
         rdf:about="">
        <dc:format>image/svg+xml</dc:format>
        <dc:type
           rdf:resource="http://purl.org/dc/dcmitype/StillImage" />
        <dc:title />
      </cc:Work>
    </rdf:RDF>
  </metadata>
  <g
     style="display:inline"
     inkscape:label="Calque 1"
     id="layer1"
     inkscape:groupmode="layer">
    <path
       style="color:#000000;fill:#ffffff;fill-opacity:1;fill-rule:nonzero;stroke:none;stroke-width:8;marker:none;visibility:visible;display:inline;overflow:visible;enable-background:accumulate;opacity:0.05"
       d="M 11 1.96875 C 6.0187656 1.96875 1.96875 6.0187656 1.96875 11 C 1.96875 15.981234 6.0187656 20.03125 11 20.03125 C 15.981234 20.03125 20.03125 15.981234 20.03125 11 C 20.03125 6.0187656 15.981234 1.96875 11 1.96875 z M 11 3 C 15.418278 3 19 6.581722 19 11 C 19 15.418278 15.418278 19 11 19 C 6.581722 19 3 15.418278 3 11 C 3 6.581722 6.581722 3 11 3 z M 11 6.28125 C 10.495499 6.303147 9.8240369 6.311533 9.21875 6.40625 C 8.6134631 6.500967 8.1100535 6.722583 7.875 7 C 7.7779816 7.114504 7.6962755 7.392534 7.75 7.65625 C 7.8037245 7.919966 7.9201118 8.073072 8.03125 8.09375 C 8.3339094 8.150063 8.864447 8.09233 9.40625 8.03125 C 9.948053 7.97015 10.528301 7.91613 11.03125 7.96875 C 11.429063 8.010371 11.75112 8.207219 11.875 8.5625 C 11.99888 8.917781 11.802819 9.333445 11.46875 9.5625 C 11.084411 9.82602 10.633473 9.8345 10.1875 9.875 C 9.7415271 9.9155 9.3027147 9.93721 9.09375 10 C 8.1292453 10.289793 7.5342055 10.730338 7.21875 11.25 C 6.9032945 11.769662 6.8320871 12.407011 7.0625 13.21875 C 7.3362622 14.183208 8.3458902 14.948934 9.4375 15 C 9.44449 15.000327 9.46175 14.999731 9.46875 15 C 10.595186 14.993338 10.956826 14.74931 11.28125 14.53125 C 11.444852 14.421285 11.634201 14.29266 11.90625 14.25 C 12.178299 14.20734 12.451524 14.289947 12.78125 14.46875 A 0.38043645 0.38043645 0 0 1 12.90625 14.53125 C 13.030367 14.674506 13.223782 14.80564 13.4375 14.84375 C 13.651218 14.881858 13.85068 14.84868 13.9375 14.78125 C 14.309598 14.492285 14.719441 14.293416 14.875 14.125 C 14.95278 14.040792 14.9358 13.97872 14.9375 13.90625 C 14.939202 13.833779 14.926842 13.686288 14.78125 13.46875 C 14.63894 13.256116 14.62575 12.996502 14.65625 12.78125 C 14.686752 12.565998 14.74885 12.349696 14.8125 12.09375 C 14.9398 11.581858 15.08379 10.875022 15 9.6875 C 14.923523 8.603604 14.509486 7.748073 13.84375 7.15625 C 13.178014 6.564427 12.249125 6.22704 11 6.28125 z M 12.28125 7.46875 C 12.633077 7.5770933 12.924272 7.7312776 13.15625 7.9375 C 13.609713 8.3406177 13.908142 8.8910172 13.96875 9.75 C 14.0446 10.824995 13.929998 11.371272 13.8125 11.84375 C 13.753973 12.079098 13.669456 12.311274 13.625 12.625 C 13.588413 12.883209 13.700837 13.273308 13.8125 13.625 C 13.746586 13.666838 13.670767 13.72939 13.59375 13.78125 A 1.041767 1.041767 0 0 0 13.53125 13.6875 C 13.547476 13.699794 13.420209 13.614255 13.4375 13.625 C 13.454791 13.635745 13.294292 13.553396 13.3125 13.5625 C 13.316142 13.564321 13.288829 13.565738 13.28125 13.5625 C 13.250935 13.549548 13.172324 13.494091 13.1875 13.5 C 13.20647 13.507386 13.042929 13.463145 13.0625 13.46875 L 13.0625 13.5 C 13.016535 13.478277 12.954167 13.488728 12.90625 13.46875 C 13.260517 13.074852 13.53125 12.609585 13.53125 12.03125 C 13.53125 11.15356 12.961318 10.573933 12.25 10.1875 C 12.77964 9.7118174 13.124163 9.0229588 12.84375 8.21875 C 12.732783 7.9005027 12.521121 7.6722815 12.28125 7.46875 z M 11.15625 10.78125 C 11.884376 10.78125 12.5 11.327808 12.5 12.03125 C 12.5 12.734692 11.884376 13.28125 11.15625 13.28125 C 10.428125 13.28125 9.78125 12.745959 9.78125 12.03125 C 9.78125 11.316541 10.428125 10.78125 11.15625 10.78125 z M 9.125 11.15625 C 8.9817269 11.445345 8.75 11.67713 8.75 12.03125 C 8.75 12.876244 9.2520613 13.449055 9.90625 13.84375 C 9.767621 13.864634 9.8131429 13.965788 9.5 13.96875 C 9.4906372 13.968312 9.4781197 13.969407 9.46875 13.96875 C 8.8416249 13.924794 8.1901962 13.387371 8.0625 12.9375 C 7.8865921 12.317781 7.9382596 12.037395 8.09375 11.78125 C 8.2117327 11.586893 8.6385213 11.363461 9.125 11.15625 z "
       id="path3813" />
    <path
       id="path3870"
       d="m -19,-27 c -4.418278,0 -8,3.581722 -8,8 0,4.418278 3.581722,8 8,8 4.418278,0 8,-3.581722 8,-8 0,-4.418278 -3.581722,-8 -8,-8 z m 0,3.28125 c 1.249125,-0.05421 2.178014,0.283177 2.84375,0.875 0.665736,0.591823 1.079773,1.447354 1.15625,2.53125 0.08379,1.187522 -0.0602,1.894358 -0.1875,2.40625 -0.06365,0.255946 -0.125748,0.472248 -0.15625,0.6875 -0.0305,0.215252 -0.01731,0.474866 0.125,0.6875 0.145592,0.217538 0.157952,0.365029 0.15625,0.4375 -0.0017,0.07247 0.01528,0.134542 -0.0625,0.21875 -0.155559,0.168416 -0.565402,0.367285 -0.9375,0.65625 -0.08682,0.06743 -0.286282,0.100608 -0.5,0.0625 -0.213718,-0.03811 -0.407133,-0.169244 -0.53125,-0.3125 a 0.38043645,0.38043645 0 0 0 -0.125,-0.0625 c -0.329726,-0.178803 -0.602951,-0.26141 -0.875,-0.21875 -0.272049,0.04266 -0.461398,0.171285 -0.625,0.28125 -0.324424,0.21806 -0.686064,0.462088 -1.8125,0.46875 -0.007,-2.69e-4 -0.02426,3.27e-4 -0.03125,0 -1.09161,-0.05107 -2.101238,-0.816792 -2.375,-1.78125 -0.230413,-0.811739 -0.159206,-1.449088 0.15625,-1.96875 0.315456,-0.519662 0.910495,-0.960207 1.875,-1.25 0.208965,-0.06278 0.647777,-0.0845 1.09375,-0.125 0.445973,-0.0405 0.896911,-0.04898 1.28125,-0.3125 0.334069,-0.229055 0.53013,-0.644719 0.40625,-1 -0.12388,-0.355281 -0.445937,-0.552129 -0.84375,-0.59375 -0.502949,-0.05262 -1.083197,0.0014 -1.625,0.0625 -0.541803,0.06108 -1.072341,0.118813 -1.375,0.0625 -0.111138,-0.02068 -0.227526,-0.173784 -0.28125,-0.4375 -0.05373,-0.263716 0.02798,-0.541746 0.125,-0.65625 0.235053,-0.277417 0.738463,-0.499033 1.34375,-0.59375 0.605287,-0.09472 1.276749,-0.103103 1.78125,-0.125 z m 0.15625,4.5 c -0.728125,0 -1.375,0.535291 -1.375,1.25 0,0.714709 0.646875,1.25 1.375,1.25 0.728126,0 1.34375,-0.546558 1.34375,-1.25 0,-0.703442 -0.615624,-1.25 -1.34375,-1.25 z"
       style="opacity:0.2;color:#000000;fill:none;stroke:#ffffff;stroke-width:1;stroke-miterlimit:4;stroke-dasharray:none;marker:none;visibility:visible;display:inline;overflow:visible;filter:url(#filter3878);enable-background:accumulate"
       inkscape:connector-curvature="0"
       clip-path="url(#clipPath3874)"
       transform="translate(30,60)" />
    <path
       id="path3882"
       d="m -19,33.5 c -4.418278,0 -8,3.581722 -8,8 0,4.418278 3.581722,8 8,8 4.418278,0 8,-3.581722 8,-8 0,-4.418278 -3.581722,-8 -8,-8 z m 0,3.28125 c 1.249125,-0.05421 2.178014,0.283177 2.84375,0.875 0.665736,0.591823 1.079773,1.447354 1.15625,2.53125 0.08379,1.187522 -0.0602,1.894358 -0.1875,2.40625 -0.06365,0.255946 -0.125748,0.472248 -0.15625,0.6875 -0.0305,0.215252 -0.01731,0.474866 0.125,0.6875 0.145592,0.217538 0.157952,0.365029 0.15625,0.4375 -0.0017,0.07247 0.01528,0.134542 -0.0625,0.21875 -0.155559,0.168416 -0.565402,0.367285 -0.9375,0.65625 -0.08682,0.06743 -0.286282,0.100608 -0.5,0.0625 -0.213718,-0.03811 -0.407133,-0.169244 -0.53125,-0.3125 a 0.38043645,0.38043645 0 0 0 -0.125,-0.0625 c -0.329726,-0.178803 -0.602951,-0.26141 -0.875,-0.21875 -0.272049,0.04266 -0.461398,0.171285 -0.625,0.28125 -0.324424,0.21806 -0.686064,0.462088 -1.8125,0.46875 -0.007,-2.69e-4 -0.02426,3.27e-4 -0.03125,0 -1.09161,-0.05107 -2.101238,-0.816792 -2.375,-1.78125 -0.230413,-0.811739 -0.159206,-1.449088 0.15625,-1.96875 0.315456,-0.519662 0.910495,-0.960207 1.875,-1.25 0.208965,-0.06279 0.647777,-0.0845 1.09375,-0.125 0.445973,-0.0405 0.896911,-0.04898 1.28125,-0.3125 0.334069,-0.229055 0.53013,-0.644719 0.40625,-1 -0.12388,-0.355281 -0.445937,-0.552129 -0.84375,-0.59375 -0.502949,-0.05262 -1.083197,0.0014 -1.625,0.0625 -0.541803,0.06108 -1.072341,0.118813 -1.375,0.0625 -0.111138,-0.02068 -0.227526,-0.173784 -0.28125,-0.4375 -0.05373,-0.263716 0.02798,-0.541746 0.125,-0.65625 0.235053,-0.277417 0.738463,-0.499033 1.34375,-0.59375 0.605287,-0.09472 1.276749,-0.103103 1.78125,-0.125 z m 0.15625,4.5 c -0.728125,0 -1.375,0.535291 -1.375,1.25 0,0.714709 0.646875,1.25 1.375,1.25 0.728126,0 1.34375,-0.546558 1.34375,-1.25 0,-0.703442 -0.615624,-1.25 -1.34375,-1.25 z"
       style="opacity:0.4;color:#000000;fill:#ffffff;fill-opacity:1;fill-rule:nonzero;stroke:none;stroke-width:8;marker:none;visibility:visible;display:inline;overflow:visible;filter:url(#filter5498);enable-background:accumulate"
       inkscape:connector-curvature="0"
       clip-path="url(#clipPath3886)"
       transform="translate(30,0)" />
    <rect
       style="opacity:0.5;color:#000000;fill:#ff00ff;fill-opacity:1;fill-rule:nonzero;stroke:none;stroke-width:2;marker:none;visibility:visible;display:inline;overflow:visible;enable-background:accumulate"
       id="rect3047"
       width="22"
       height="22"
       x="-30"
       y="0" />
    <rect
       style="color:#000000;fill:url(#radialGradient3038);fill-opacity:1;fill-rule:nonzero;stroke:none;stroke-width:2;marker:none;visibility:visible;display:inline;overflow:visible;enable-background:accumulate"
       id="rect3841"
       width="8"
       height="8"
       x="32"
       y="-2" />
    <rect
       y="8"
       x="32"
       height="8"
       width="8"
       id="rect3853"
       style="color:#000000;fill:url(#radialGradient3855);fill-opacity:1;fill-rule:nonzero;stroke:none;stroke-width:2;marker:none;visibility:visible;display:inline;overflow:visible;enable-background:accumulate" />
    <text
       xml:space="preserve"
       style="font-size:1px;font-style:normal;font-variant:normal;font-weight:normal;font-stretch:normal;text-align:start;line-height:125%;letter-spacing:0px;word-spacing:0px;writing-mode:lr-tb;text-anchor:start;fill:#000000;fill-opacity:1;stroke:none;font-family:Trebuchet MS;-inkscape-font-specification:Trebuchet MS"
       x="34"
       y="19"
       id="text3977"
       sodipodi:linespacing="125%"><tspan
         sodipodi:role="line"
         x="34"
         y="19"
         id="tspan3805">-0.875px /blur 5 / opacity 40</tspan></text>
    <rect
       style="color:#000000;fill:#000000;fill-opacity:1;fill-rule:nonzero;stroke:none;stroke-width:2;marker:none;visibility:visible;display:inline;overflow:visible;enable-background:accumulate"
       id="rect3981"
       width="1"
       height="1"
       x="32"
       y="18" />
    <text
       sodipodi:linespacing="125%"
       id="text3983"
       y="21"
       x="34"
       style="font-size:1px;font-style:normal;font-variant:normal;font-weight:normal;font-stretch:normal;text-align:start;line-height:125%;letter-spacing:0px;word-spacing:0px;writing-mode:lr-tb;text-anchor:start;fill:#000000;fill-opacity:1;stroke:none;font-family:Trebuchet MS;-inkscape-font-specification:Trebuchet MS"
       xml:space="preserve"><tspan
         y="21"
         x="34"
         id="tspan3985"
         sodipodi:role="line">0px /blur 7 / opacity 15</tspan></text>
    <rect
       y="20"
       x="32"
       height="1"
       width="1"
       id="rect3987"
       style="color:#000000;fill:#ffffff;fill-opacity:1;fill-rule:nonzero;stroke:none;stroke-width:2;marker:none;visibility:visible;display:inline;overflow:visible;enable-background:accumulate" />
    <text
       xml:space="preserve"
       style="font-size:1px;font-style:normal;font-variant:normal;font-weight:normal;font-stretch:normal;text-align:start;line-height:125%;letter-spacing:0px;word-spacing:0px;writing-mode:lr-tb;text-anchor:start;fill:#000000;fill-opacity:1;stroke:none;font-family:Trebuchet MS;-inkscape-font-specification:Trebuchet MS"
       x="34"
       y="23"
       id="text3989"
       sodipodi:linespacing="125%"><tspan
         sodipodi:role="line"
         x="34"
         y="23"
         id="tspan3995">-0.5px /blur 3 / opacity 30</tspan></text>
    <rect
       style="color:#000000;fill:#ffffff;fill-opacity:1;fill-rule:nonzero;stroke:none;stroke-width:2;marker:none;visibility:visible;display:inline;overflow:visible;enable-background:accumulate"
       id="rect3993"
       width="1"
       height="1"
       x="32"
       y="22" />
    <path
       inkscape:connector-curvature="0"
       style="color:#000000;fill:url(#radialGradient3842);fill-opacity:1;fill-rule:nonzero;stroke:none;stroke-width:8;marker:none;visibility:visible;display:inline;overflow:visible;enable-background:accumulate"
       d="m 11,33 c -4.418278,0 -8,3.581722 -8,8 0,4.418278 3.581722,8 8,8 4.418278,0 8,-3.581722 8,-8 0,-4.418278 -3.581722,-8 -8,-8 z m 0,3.28125 c 1.249125,-0.05421 2.178014,0.283177 2.84375,0.875 0.665736,0.591823 1.079773,1.447354 1.15625,2.53125 0.08379,1.187522 -0.0602,1.894358 -0.1875,2.40625 -0.06365,0.255946 -0.125748,0.472248 -0.15625,0.6875 -0.0305,0.215252 -0.01731,0.474866 0.125,0.6875 0.145592,0.217538 0.157952,0.365029 0.15625,0.4375 -0.0017,0.07247 0.01528,0.134542 -0.0625,0.21875 -0.155559,0.168416 -0.565402,0.367285 -0.9375,0.65625 -0.08682,0.06743 -0.286282,0.100608 -0.5,0.0625 -0.213718,-0.03811 -0.407133,-0.169244 -0.53125,-0.3125 a 0.38043645,0.38043645 0 0 0 -0.125,-0.0625 c -0.329726,-0.178803 -0.602951,-0.26141 -0.875,-0.21875 -0.272049,0.04266 -0.461398,0.171285 -0.625,0.28125 C 10.956826,44.74931 10.595186,44.993338 9.46875,45 9.46175,44.999731 9.44449,45.000327 9.4375,45 8.3458902,44.948934 7.3362622,44.183208 7.0625,43.21875 6.8320871,42.407011 6.9032945,41.769662 7.21875,41.25 7.5342055,40.730338 8.1292453,40.289793 9.09375,40 c 0.2089647,-0.06279 0.6477771,-0.0845 1.09375,-0.125 0.445973,-0.0405 0.896911,-0.04898 1.28125,-0.3125 0.334069,-0.229055 0.53013,-0.644719 0.40625,-1 -0.12388,-0.355281 -0.445937,-0.552129 -0.84375,-0.59375 -0.502949,-0.05262 -1.083197,0.0014 -1.625,0.0625 -0.541803,0.06108 -1.0723406,0.118813 -1.375,0.0625 C 7.9201118,38.073072 7.8037245,37.919966 7.75,37.65625 7.6962755,37.392534 7.7779816,37.114504 7.875,37 8.1100535,36.722583 8.6134631,36.500967 9.21875,36.40625 9.8240369,36.311533 10.495499,36.303147 11,36.28125 z m 0.15625,4.5 c -0.728125,0 -1.375,0.535291 -1.375,1.25 0,0.714709 0.646875,1.25 1.375,1.25 0.728126,0 1.34375,-0.546558 1.34375,-1.25 0,-0.703442 -0.615624,-1.25 -1.34375,-1.25 z"
       id="path3001" />
    <path
       id="path3858"
       d="m 11,3.375 c -4.418278,0 -8,3.581722 -8,8 0,4.418278 3.581722,8 8,8 4.418278,0 8,-3.581722 8,-8 0,-4.418278 -3.581722,-8 -8,-8 z m 0,3.28125 c 1.249125,-0.05421 2.178014,0.283177 2.84375,0.875 0.665736,0.591823 1.079773,1.447354 1.15625,2.53125 0.08379,1.187522 -0.0602,1.894358 -0.1875,2.40625 -0.06365,0.255946 -0.125748,0.472248 -0.15625,0.6875 -0.0305,0.215252 -0.01731,0.474866 0.125,0.6875 0.145592,0.217538 0.157952,0.365029 0.15625,0.4375 -0.0017,0.07247 0.01528,0.134542 -0.0625,0.21875 -0.155559,0.168416 -0.565402,0.367285 -0.9375,0.65625 -0.08682,0.06743 -0.286282,0.100608 -0.5,0.0625 -0.213718,-0.03811 -0.407133,-0.169244 -0.53125,-0.3125 a 0.38043645,0.38043645 0 0 0 -0.125,-0.0625 c -0.329726,-0.178803 -0.602951,-0.26141 -0.875,-0.21875 -0.272049,0.04266 -0.461398,0.171285 -0.625,0.28125 -0.324424,0.21806 -0.686064,0.462088 -1.8125,0.46875 -0.007,-2.69e-4 -0.02426,3.27e-4 -0.03125,0 C 8.3458902,15.323934 7.3362622,14.558208 7.0625,13.59375 6.8320871,12.782011 6.9032945,12.144662 7.21875,11.625 c 0.3154555,-0.519662 0.9104953,-0.960207 1.875,-1.25 0.2089647,-0.06279 0.6477771,-0.0845 1.09375,-0.125 0.445973,-0.0405 0.896911,-0.04898 1.28125,-0.3125 0.334069,-0.229055 0.53013,-0.644719 0.40625,-1 C 11.75112,8.582219 11.429063,8.385371 11.03125,8.34375 10.528301,8.29113 9.948053,8.34515 9.40625,8.40625 8.864447,8.46733 8.3339094,8.525063 8.03125,8.46875 7.9201118,8.448072 7.8037245,8.294966 7.75,8.03125 7.6962755,7.767534 7.7779816,7.489504 7.875,7.375 8.1100535,7.097583 8.6134631,6.875967 9.21875,6.78125 9.8240369,6.686533 10.495499,6.678147 11,6.65625 z m 0.15625,4.5 c -0.728125,0 -1.375,0.535291 -1.375,1.25 0,0.714709 0.646875,1.25 1.375,1.25 0.728126,0 1.34375,-0.546558 1.34375,-1.25 0,-0.703442 -0.615624,-1.25 -1.34375,-1.25 z"
       style="opacity:0.4;color:#000000;fill:none;stroke:#000000;stroke-width:1;stroke-miterlimit:4;stroke-dasharray:none;marker:none;visibility:visible;display:inline;overflow:visible;filter:url(#filter3866);enable-background:accumulate"
       inkscape:connector-curvature="0"
       clip-path="url(#clipPath3862)"
       transform="translate(0,30)" />
    <path
       id="path3026"
       d="m 11,3 c -4.418278,0 -8,3.581722 -8,8 0,4.418278 3.581722,8 8,8 4.418278,0 8,-3.581722 8,-8 0,-4.418278 -3.581722,-8 -8,-8 z m 0,3.28125 c 1.249125,-0.05421 2.178014,0.283177 2.84375,0.875 0.665736,0.591823 1.079773,1.447354 1.15625,2.53125 0.08379,1.187522 -0.0602,1.894358 -0.1875,2.40625 -0.06365,0.255946 -0.125748,0.472248 -0.15625,0.6875 -0.0305,0.215252 -0.01731,0.474866 0.125,0.6875 0.145592,0.217538 0.157952,0.365029 0.15625,0.4375 -0.0017,0.07247 0.01528,0.134542 -0.0625,0.21875 -0.155559,0.168416 -0.565402,0.367285 -0.9375,0.65625 -0.08682,0.06743 -0.286282,0.100608 -0.5,0.0625 -0.213718,-0.03811 -0.407133,-0.169244 -0.53125,-0.3125 a 0.38043645,0.38043645 0 0 0 -0.125,-0.0625 c -0.329726,-0.178803 -0.602951,-0.26141 -0.875,-0.21875 -0.272049,0.04266 -0.461398,0.171285 -0.625,0.28125 C 10.956826,14.74931 10.595186,14.993338 9.46875,15 9.46175,14.999731 9.44449,15.000327 9.4375,15 8.3458902,14.948934 7.3362622,14.183208 7.0625,13.21875 6.8320871,12.407011 6.9032945,11.769662 7.21875,11.25 7.5342055,10.730338 8.1292453,10.289793 9.09375,10 9.3027147,9.93721 9.7415271,9.9155 10.1875,9.875 10.633473,9.8345 11.084411,9.82602 11.46875,9.5625 11.802819,9.333445 11.99888,8.917781 11.875,8.5625 11.75112,8.207219 11.429063,8.010371 11.03125,7.96875 10.528301,7.91613 9.948053,7.97015 9.40625,8.03125 8.864447,8.09233 8.3339094,8.150063 8.03125,8.09375 7.9201118,8.073072 7.8037245,7.919966 7.75,7.65625 7.6962755,7.392534 7.7779816,7.114504 7.875,7 8.1100535,6.722583 8.6134631,6.500967 9.21875,6.40625 9.8240369,6.311533 10.495499,6.303147 11,6.28125 z m 0.15625,4.5 c -0.728125,0 -1.375,0.535291 -1.375,1.25 0,0.714709 0.646875,1.25 1.375,1.25 0.728126,0 1.34375,-0.546558 1.34375,-1.25 0,-0.703442 -0.615624,-1.25 -1.34375,-1.25 z"
       style="color:#000000;fill:url(#radialGradient3028);fill-opacity:1;fill-rule:nonzero;stroke:none;stroke-width:8;marker:none;visibility:visible;display:inline;overflow:visible;enable-background:accumulate"
       inkscape:connector-curvature="0" />
    <path
       style="color:#000000;fill:#ffffff;fill-opacity:1;fill-rule:nonzero;stroke:none;stroke-width:8;marker:none;visibility:visible;display:inline;overflow:visible;enable-background:accumulate;opacity:0.2"
       d="M 11 6.28125 C 10.495499 6.303147 9.8240369 6.311533 9.21875 6.40625 C 8.6134631 6.500967 8.1100535 6.722583 7.875 7 C 7.7779816 7.114504 7.6962755 7.392534 7.75 7.65625 C 7.7801381 7.8041882 7.8486616 7.8942799 7.90625 7.96875 C 8.1518188 7.7061441 8.6366064 7.4973455 9.21875 7.40625 C 9.8240369 7.311533 10.495499 7.303147 11 7.28125 C 12.249125 7.22704 13.178014 7.564427 13.84375 8.15625 C 14.509486 8.748073 14.923523 9.603604 15 10.6875 C 15.006436 10.778713 14.996141 10.851829 15 10.9375 C 15.026525 10.588833 15.034928 10.182525 15 9.6875 C 14.923523 8.603604 14.509486 7.748073 13.84375 7.15625 C 13.178014 6.564427 12.249125 6.22704 11 6.28125 z M 11.75 9.3125 C 11.67702 9.4171123 11.576666 9.4885075 11.46875 9.5625 C 11.084411 9.82602 10.633473 9.8345 10.1875 9.875 C 9.7415271 9.9155 9.3027147 9.93721 9.09375 10 C 8.1292453 10.289793 7.5342055 10.730338 7.21875 11.25 C 6.9510767 11.690948 6.8809038 12.229939 7 12.875 C 7.0472468 12.650934 7.1034874 12.439877 7.21875 12.25 C 7.5342055 11.730338 8.1292453 11.289793 9.09375 11 C 9.3027147 10.93721 9.7415271 10.9155 10.1875 10.875 C 10.633473 10.8345 11.084411 10.82602 11.46875 10.5625 C 11.802819 10.333445 11.99888 9.917781 11.875 9.5625 C 11.84403 9.4736798 11.803829 9.3815662 11.75 9.3125 z M 3.03125 11.5 C 3.0207902 11.667454 3 11.829909 3 12 C 3 16.418278 6.581722 20 11 20 C 15.418278 20 19 16.418278 19 12 C 19 11.829909 18.97921 11.667454 18.96875 11.5 C 18.707507 15.682345 15.248187 19 11 19 C 6.7518127 19 3.2924933 15.682345 3.03125 11.5 z M 9.90625 12.53125 C 9.8342285 12.681939 9.78125 12.852573 9.78125 13.03125 C 9.78125 13.745959 10.428125 14.28125 11.15625 14.28125 C 11.884376 14.28125 12.5 13.734692 12.5 13.03125 C 12.5 12.855389 12.475342 12.681411 12.40625 12.53125 C 12.198975 12.981734 11.702344 13.28125 11.15625 13.28125 C 10.610156 13.28125 10.122314 12.983318 9.90625 12.53125 z M 14.75 13.375 C 14.716077 13.511006 14.674288 13.65396 14.65625 13.78125 C 14.635657 13.926584 14.641964 14.092334 14.6875 14.25 C 14.750091 14.205247 14.837666 14.16542 14.875 14.125 C 14.95278 14.040792 14.9358 13.97872 14.9375 13.90625 C 14.939202 13.833779 14.926842 13.686288 14.78125 13.46875 C 14.762033 13.440037 14.764718 13.405202 14.75 13.375 z "
       id="path3798" />
    <path
       style="color:#000000;fill:#000000;fill-opacity:1;fill-rule:nonzero;stroke:none;stroke-width:8;marker:none;visibility:visible;display:inline;overflow:visible;enable-background:accumulate;opacity:0.3"
       d="M 11 3 C 6.581722 3 3 6.581722 3 11 C 3 15.418278 6.581722 19 11 19 C 15.418278 19 19 15.418278 19 11 C 19 6.581722 15.418278 3 11 3 z M 11 3.5625 C 15.110336 3.5625 18.4375 6.8896639 18.4375 11 C 18.4375 15.110336 15.110336 18.4375 11 18.4375 C 6.8896639 18.4375 3.5625 15.110336 3.5625 11 C 3.5625 6.8896639 6.8896639 3.5625 11 3.5625 z M 10.96875 5.71875 C 10.479834 5.7399705 9.7888028 5.7398763 9.125 5.84375 C 8.4332637 5.9519949 7.83519 6.1556346 7.4375 6.625 C 7.2929493 6.795603 7.2287247 6.9699208 7.1875 7.15625 C 7.1462753 7.3425792 7.1415402 7.5556483 7.1875 7.78125 C 7.2261229 7.970837 7.3019104 8.1262756 7.40625 8.28125 C 7.5105896 8.4362244 7.6684631 8.6061939 7.9375 8.65625 C 8.4267405 8.7472784 8.9255181 8.6549911 9.46875 8.59375 C 10.0027 8.5335356 10.551048 8.4875488 10.96875 8.53125 C 11.213294 8.5568353 11.299409 8.6228339 11.34375 8.75 C 11.360604 8.7983351 11.310914 8.9877042 11.15625 9.09375 C 10.938647 9.2429483 10.598292 9.2695191 10.125 9.3125 C 9.6942888 9.351614 9.3223418 9.3531122 8.9375 9.46875 C 7.8824375 9.7857518 7.1250125 10.299498 6.71875 10.96875 C 6.3157922 11.632558 6.2397724 12.458225 6.5 13.375 C 6.8526179 14.617265 8.065432 15.499776 9.40625 15.5625 C 9.4892592 15.566383 9.4986855 15.564851 9.4375 15.5625 A 0.56985545 0.56985545 0 0 0 9.46875 15.5625 C 10.676753 15.555356 11.269964 15.217631 11.59375 15 C 11.759149 14.888827 11.86115 14.834273 12 14.8125 C 12.103147 14.796325 12.221579 14.817769 12.5 14.96875 A 0.56985545 0.56985545 0 0 0 12.59375 15 A 0.56985545 0.56985545 0 0 0 12.625 15 C 12.815047 15.178933 13.034395 15.351086 13.34375 15.40625 C 13.674051 15.465146 13.932039 15.489969 14.28125 15.21875 C 14.43727 15.097588 14.609967 14.983708 14.78125 14.875 C 14.952533 14.766292 15.110087 14.68531 15.28125 14.5 C 15.381511 14.391453 15.478666 14.225363 15.5 14.09375 C 15.521334 13.962137 15.500283 13.894207 15.5 13.90625 C 15.503648 13.750905 15.453515 13.460334 15.25 13.15625 C 15.217876 13.108251 15.20038 13.004648 15.21875 12.875 C 15.241619 12.713614 15.308548 12.485964 15.375 12.21875 C 15.507662 11.685298 15.650633 10.905325 15.5625 9.65625 C 15.477342 8.4493246 15.000601 7.4137964 14.21875 6.71875 C 13.436682 6.0235108 12.332412 5.6595693 10.96875 5.71875 z M 11 6.28125 C 12.249125 6.22704 13.178014 6.564427 13.84375 7.15625 C 14.509486 7.748073 14.923523 8.603604 15 9.6875 C 15.08379 10.875022 14.9398 11.581858 14.8125 12.09375 C 14.74885 12.349696 14.686752 12.565998 14.65625 12.78125 C 14.62575 12.996502 14.63894 13.256116 14.78125 13.46875 C 14.926842 13.686288 14.939202 13.833779 14.9375 13.90625 C 14.9358 13.97872 14.95278 14.040792 14.875 14.125 C 14.719441 14.293416 14.309598 14.492285 13.9375 14.78125 C 13.85068 14.84868 13.651218 14.881858 13.4375 14.84375 C 13.223782 14.80564 13.030367 14.674506 12.90625 14.53125 A 0.38043645 0.38043645 0 0 0 12.78125 14.46875 C 12.451524 14.289947 12.178299 14.20734 11.90625 14.25 C 11.634201 14.29266 11.444852 14.421285 11.28125 14.53125 C 10.956826 14.74931 10.595186 14.993338 9.46875 15 C 9.46175 14.999731 9.44449 15.000327 9.4375 15 C 8.3458902 14.948934 7.3362622 14.183208 7.0625 13.21875 C 6.8320871 12.407011 6.9032945 11.769662 7.21875 11.25 C 7.5342055 10.730338 8.1292453 10.289793 9.09375 10 C 9.3027147 9.93721 9.7415271 9.9155 10.1875 9.875 C 10.633473 9.8345 11.084411 9.82602 11.46875 9.5625 C 11.802819 9.333445 11.99888 8.917781 11.875 8.5625 C 11.75112 8.207219 11.429063 8.010371 11.03125 7.96875 C 10.528301 7.91613 9.948053 7.97015 9.40625 8.03125 C 8.864447 8.09233 8.3339094 8.150063 8.03125 8.09375 C 7.9201118 8.073072 7.8037245 7.919966 7.75 7.65625 C 7.6962755 7.392534 7.7779816 7.114504 7.875 7 C 8.1100535 6.722583 8.6134631 6.500967 9.21875 6.40625 C 9.8240369 6.311533 10.495499 6.303147 11 6.28125 z M 11.15625 10.78125 C 10.428125 10.78125 9.78125 11.316541 9.78125 12.03125 C 9.78125 12.745959 10.428125 13.28125 11.15625 13.28125 C 11.884376 13.28125 12.5 12.734692 12.5 12.03125 C 12.5 11.327808 11.884376 10.78125 11.15625 10.78125 z M 11.15625 11.34375 C 11.599235 11.34375 11.9375 11.660251 11.9375 12.03125 C 11.9375 12.402249 11.599235 12.71875 11.15625 12.71875 C 10.707388 12.71875 10.34375 12.402147 10.34375 12.03125 C 10.34375 11.660353 10.707388 11.34375 11.15625 11.34375 z "
       id="path3818" />
    <path
       style="color:#000000;fill:#000000;fill-opacity:1;fill-rule:nonzero;stroke:none;stroke-width:8;marker:none;visibility:visible;display:inline;overflow:visible;enable-background:accumulate;opacity:0.3"
       d="M 11 3 C 6.581722 3 3 6.581722 3 11 C 3 11.170091 3.0207902 11.332546 3.03125 11.5 C 3.2924933 7.3176547 6.7518127 4 11 4 C 15.248187 4 18.707507 7.3176547 18.96875 11.5 C 18.97921 11.332546 19 11.170091 19 11 C 19 6.581722 15.418278 3 11 3 z M 7.90625 7.96875 C 7.8964873 7.97919 7.8839873 7.9893929 7.875 8 C 7.7779816 8.114504 7.6962755 8.392534 7.75 8.65625 C 7.8037245 8.919966 7.9201118 9.073072 8.03125 9.09375 C 8.3339094 9.150063 8.864447 9.09233 9.40625 9.03125 C 9.948053 8.97015 10.528301 8.91613 11.03125 8.96875 C 11.32961 8.9999657 11.588512 9.1053013 11.75 9.3125 C 11.902941 9.0932691 11.958863 8.8030133 11.875 8.5625 C 11.75112 8.207219 11.429063 8.010371 11.03125 7.96875 C 10.528301 7.91613 9.948053 7.97015 9.40625 8.03125 C 8.864447 8.09233 8.3339094 8.150063 8.03125 8.09375 C 7.9824576 8.0846719 7.9513192 8.0270309 7.90625 7.96875 z M 11.15625 10.78125 C 10.428125 10.78125 9.78125 11.316541 9.78125 12.03125 C 9.78125 12.209927 9.8342285 12.380561 9.90625 12.53125 C 10.122314 12.079182 10.610156 11.78125 11.15625 11.78125 C 11.702344 11.78125 12.198975 12.080766 12.40625 12.53125 C 12.475342 12.381089 12.5 12.207111 12.5 12.03125 C 12.5 11.327808 11.884376 10.78125 11.15625 10.78125 z M 15 10.9375 C 14.962894 11.425255 14.886734 11.795243 14.8125 12.09375 C 14.74885 12.349696 14.686752 12.565998 14.65625 12.78125 C 14.629869 12.967435 14.655722 13.181545 14.75 13.375 C 14.773442 13.281016 14.78649 13.198341 14.8125 13.09375 C 14.930022 12.621176 15.046382 11.967195 15 10.9375 z M 7 12.875 C 6.9179398 13.264168 6.9162764 13.703608 7.0625 14.21875 C 7.3362622 15.183208 8.3458902 15.948934 9.4375 16 C 9.44449 16.000327 9.46175 15.999731 9.46875 16 C 10.595186 15.993338 10.956826 15.74931 11.28125 15.53125 C 11.444852 15.421285 11.634201 15.29266 11.90625 15.25 C 12.178299 15.20734 12.451524 15.289947 12.78125 15.46875 A 0.38043645 0.38043645 0 0 1 12.90625 15.53125 C 13.030367 15.674506 13.223782 15.80564 13.4375 15.84375 C 13.651218 15.881858 13.85068 15.84868 13.9375 15.78125 C 14.309598 15.492285 14.719441 15.293416 14.875 15.125 C 14.95278 15.040792 14.9358 14.97872 14.9375 14.90625 C 14.939202 14.833779 14.926842 14.686288 14.78125 14.46875 C 14.735025 14.399683 14.709407 14.32585 14.6875 14.25 C 14.489296 14.391716 14.220294 14.561637 13.9375 14.78125 C 13.85068 14.84868 13.651218 14.881858 13.4375 14.84375 C 13.223782 14.80564 13.030367 14.674506 12.90625 14.53125 A 0.38043645 0.38043645 0 0 0 12.78125 14.46875 C 12.451524 14.289947 12.178299 14.20734 11.90625 14.25 C 11.634201 14.29266 11.444852 14.421285 11.28125 14.53125 C 10.956826 14.74931 10.595186 14.993338 9.46875 15 C 9.46175 14.999731 9.44449 15.000327 9.4375 15 C 8.3458902 14.948934 7.3362622 14.183208 7.0625 13.21875 C 7.0275992 13.095795 7.0212598 12.990149 7 12.875 z "
       id="path3831" />
  </g>
</svg>
