<?xml version="1.0" encoding="UTF-8" standalone="no"?>
<!-- Created with Inkscape (http://www.inkscape.org/) -->

<svg
   xmlns:dc="http://purl.org/dc/elements/1.1/"
   xmlns:cc="http://creativecommons.org/ns#"
   xmlns:rdf="http://www.w3.org/1999/02/22-rdf-syntax-ns#"
   xmlns:svg="http://www.w3.org/2000/svg"
   xmlns="http://www.w3.org/2000/svg"
   xmlns:xlink="http://www.w3.org/1999/xlink"
   xmlns:sodipodi="http://sodipodi.sourceforge.net/DTD/sodipodi-0.dtd"
   xmlns:inkscape="http://www.inkscape.org/namespaces/inkscape"
   width="22"
   height="22"
   id="svg2"
   sodipodi:version="0.32"
   inkscape:version="0.48.1 r9760"
   version="1.0"
   sodipodi:docname="caffeine-cup-empty.svg"
   inkscape:output_extension="org.inkscape.output.svg.inkscape"
   inkscape:export-filename="/home/matt/.icons/Sirocco/scalable/mimetypes/text-plain.png"
   inkscape:export-xdpi="90"
   inkscape:export-ydpi="90"
   sodipodi:modified="true"
   style="display:inline">
  <sodipodi:namedview
     id="base"
     pagecolor="#838383"
     bordercolor="#cc0000"
     borderopacity="1"
     inkscape:pageopacity="1"
     inkscape:pageshadow="2"
     inkscape:zoom="31.059263"
     inkscape:cx="4.8260695"
     inkscape:cy="4.1038842"
     inkscape:document-units="px"
     inkscape:current-layer="layer1"
     width="128px"
     height="128px"
     inkscape:showpageshadow="false"
     inkscape:window-width="1920"
     inkscape:window-height="1030"
     inkscape:window-x="0"
     inkscape:window-y="25"
     showguides="true"
     inkscape:guide-bbox="true"
     showgrid="true"
     inkscape:window-maximized="1"
     borderlayer="true"
     inkscape:snap-global="true">
    <inkscape:grid
       enabled="true"
       visible="true"
       id="grid3231"
       type="xygrid"
       empspacing="8"
       snapvisiblegridlinesonly="true" />
    <sodipodi:guide
       orientation="1,0"
       position="12,17"
       id="guide3791" />
    <sodipodi:guide
       orientation="0,1"
       position="14,9"
       id="guide3793" />
  </sodipodi:namedview>
  <defs
     id="defs4">
    <linearGradient
       id="StandardGradient"
       gradientTransform="scale(0.9219544,1.0846523)"
       x1="11.998966"
       y1="0.92195445"
       x2="11.998966"
       y2="19.387045"
       gradientUnits="userSpaceOnUse">
      <stop
         style="stop-color:#000000;stop-opacity:0.23529412;"
         offset="0"
         id="stop3283" />
      <stop
         id="stop3850"
         offset="0.69999999"
         style="stop-color:#000000;stop-opacity:0.39215686;" />
      <stop
         style="stop-color:#000000;stop-opacity:0.55;"
         offset="1"
         id="stop2651" />
    </linearGradient>
    <radialGradient
       inkscape:collect="always"
       xlink:href="#SpecificGradient"
       id="radialGradient3855"
       gradientUnits="userSpaceOnUse"
       cx="36"
       cy="2"
       fx="36"
       fy="2"
       r="4"
       gradientTransform="translate(0,10)" />
    <linearGradient
       id="SpecificGradient"
       x1="10.406627"
       y1="2"
       x2="10.406627"
       y2="18.000771"
       gradientUnits="userSpaceOnUse">
      <stop
         style="stop-color:#e64b36;stop-opacity:1;"
         offset="0"
         id="stop3292" />
      <stop
         style="stop-color:#a31414;stop-opacity:1;"
         offset="1"
         id="stop3294" />
    </linearGradient>
    <radialGradient
       r="4"
       fy="2"
       fx="36"
       cy="2"
       cx="36"
       gradientUnits="userSpaceOnUse"
       id="radialGradient3038"
       xlink:href="#StandardGradient"
       inkscape:collect="always" />
    <radialGradient
       inkscape:collect="always"
       xlink:href="#StandardGradient"
       id="radialGradient3842"
       cx="12"
       cy="13"
       fx="12"
       fy="13"
       r="8"
       gradientUnits="userSpaceOnUse"
       gradientTransform="matrix(2,0,0,1.25,-12,-3.25)" />
    <radialGradient
       inkscape:collect="always"
       xlink:href="#StandardGradient"
       id="radialGradient3932"
       cx="12"
       cy="10.729534"
       fx="12"
       fy="10.729534"
       r="7.015625"
       gradientTransform="matrix(2.2806236,2.4618775e-8,-1.6925407e-8,1.5679287,-15.367483,26.176855)"
       gradientUnits="userSpaceOnUse" />
    <radialGradient
       inkscape:collect="always"
       xlink:href="#StandardGradient"
       id="radialGradient3942"
       gradientUnits="userSpaceOnUse"
       gradientTransform="matrix(2.2806236,2.4618775e-8,-1.6925407e-8,1.5679287,-45.367483,-3.8231451)"
       cx="12"
       cy="10.729534"
       fx="12"
       fy="10.729534"
       r="7.015625" />
    <radialGradient
       inkscape:collect="always"
       xlink:href="#StandardGradient"
       id="radialGradient3944"
       gradientUnits="userSpaceOnUse"
       gradientTransform="matrix(2.2806236,2.4618775e-8,-1.6925407e-8,1.5679287,-45.367483,-3.8231451)"
       cx="12"
       cy="10.729534"
       fx="12"
       fy="10.729534"
       r="7.015625" />
    <clipPath
       clipPathUnits="userSpaceOnUse"
       id="clipPath3952">
      <path
         sodipodi:nodetypes="cccccccccccccccccccc"
         id="path3954"
         d="m 4.96875,12 0,2.90625 c 0,2.789104 1.1054483,5.0625 2.5,5.0625 l 7.03125,0 c 1.208815,0 2.194807,-1.697223 2.4375,-3.96875 L 18.5,16 c 0.277,0 0.5,-0.223 0.5,-0.5 l 0,-3 C 19,12.223 18.777,12 18.5,12 L 17,12 15.5,12 4.96875,12 z M 17,13 l 0.5,0 c 0.277,0 0.5,0.223 0.5,0.5 l 0,1 C 18,14.777 17.777,15 17.5,15 L 17,15 c 2.82e-4,-0.03144 0,-0.06217 0,-0.09375 L 17,13 z"
         style="color:#000000;fill:#ff00ff;fill-opacity:1;fill-rule:nonzero;stroke:none;stroke-width:1;marker:none;visibility:visible;display:inline;overflow:visible;enable-background:accumulate"
         inkscape:connector-curvature="0" />
    </clipPath>
    <filter
       inkscape:collect="always"
       id="filter3956">
      <feGaussianBlur
         inkscape:collect="always"
         stdDeviation="0.275"
         id="feGaussianBlur3958" />
    </filter>
    <clipPath
       clipPathUnits="userSpaceOnUse"
       id="clipPath3964">
      <path
         style="opacity:0.5;color:#000000;fill:#ff00ff;fill-opacity:1;fill-rule:nonzero;stroke:none;stroke-width:2;marker:none;visibility:visible;display:inline;overflow:visible;enable-background:accumulate"
         d="m -30,-30 0,22 22,0 0,-22 -22,0 z m 4.96875,12 10.53125,0 1.5,0 1.5,0 c 0.277,0 0.5,0.223 0.5,0.5 l 0,3 c 0,0.277 -0.223,0.5 -0.5,0.5 l -1.5625,0 c -0.242693,2.271527 -1.228685,3.96875 -2.4375,3.96875 l -7.03125,0 c -1.394552,0 -2.5,-2.273396 -2.5,-5.0625 l 0,-2.90625 z M -13,-17 l 0,1.90625 c 0,0.03158 2.82e-4,0.06231 0,0.09375 l 0.5,0 c 0.277,0 0.5,-0.223 0.5,-0.5 l 0,-1 c 0,-0.277 -0.223,-0.5 -0.5,-0.5 l -0.5,0 z"
         id="path3966"
         inkscape:connector-curvature="0" />
    </clipPath>
    <filter
       inkscape:collect="always"
       id="filter3968"
       x="-0.065853007"
       width="1.131706"
       y="-0.11595294"
       height="1.2319059">
      <feGaussianBlur
         inkscape:collect="always"
         stdDeviation="0.385"
         id="feGaussianBlur3970" />
    </filter>
    <clipPath
       clipPathUnits="userSpaceOnUse"
       id="clipPath3976">
      <path
         style="opacity:0.5;color:#000000;fill:#ff00ff;fill-opacity:1;fill-rule:nonzero;stroke:none;stroke-width:2;marker:none;visibility:visible;display:inline;overflow:visible;enable-background:accumulate"
         d="m -30,30 0,22 22,0 0,-22 -22,0 z m 4.96875,12 10.53125,0 1.5,0 1.5,0 c 0.277,0 0.5,0.223 0.5,0.5 l 0,3 c 0,0.277 -0.223,0.5 -0.5,0.5 l -1.5625,0 c -0.242693,2.271527 -1.228685,3.96875 -2.4375,3.96875 l -7.03125,0 c -1.394552,0 -2.5,-2.273396 -2.5,-5.0625 l 0,-2.90625 z M -13,43 l 0,1.90625 c 0,0.03158 2.82e-4,0.06231 0,0.09375 l 0.5,0 c 0.277,0 0.5,-0.223 0.5,-0.5 l 0,-1 c 0,-0.277 -0.223,-0.5 -0.5,-0.5 l -0.5,0 z"
         id="path3978"
         inkscape:connector-curvature="0" />
    </clipPath>
    <filter
       inkscape:collect="always"
       id="filter3984">
      <feGaussianBlur
         inkscape:collect="always"
         stdDeviation="0.275"
         id="feGaussianBlur3986" />
    </filter>
    <radialGradient
       inkscape:collect="always"
       xlink:href="#StandardGradient"
       id="radialGradient3037"
       gradientUnits="userSpaceOnUse"
       gradientTransform="matrix(2.2806236,2.4618775e-8,-1.6925407e-8,1.5679287,-15.367483,-3.823145)"
       cx="12"
       cy="10.729534"
       fx="12"
       fy="10.729534"
       r="7.015625" />
    <radialGradient
       inkscape:collect="always"
       xlink:href="#StandardGradient"
       id="radialGradient3820"
       gradientUnits="userSpaceOnUse"
       gradientTransform="matrix(2.2806236,2.4618775e-8,-1.6925407e-8,1.5679287,-15.367483,-3.823145)"
       cx="12"
       cy="10.729534"
       fx="12"
       fy="10.729534"
       r="7.015625" />
    <radialGradient
       inkscape:collect="always"
       xlink:href="#StandardGradient"
       id="radialGradient3824"
       gradientUnits="userSpaceOnUse"
       gradientTransform="matrix(2.2806236,2.4618775e-8,-1.6925407e-8,1.5679287,-15.367483,-3.823145)"
       cx="12"
       cy="10.729534"
       fx="12"
       fy="10.729534"
       r="7.015625" />
    <radialGradient
       inkscape:collect="always"
       xlink:href="#StandardGradient"
       id="radialGradient3831"
       gradientUnits="userSpaceOnUse"
       gradientTransform="matrix(2.2806236,2.4618775e-8,-1.6925407e-8,1.5679287,-15.367483,-3.823145)"
       cx="12"
       cy="10.729534"
       fx="12"
       fy="10.729534"
       r="7.015625" />
    <radialGradient
       inkscape:collect="always"
       xlink:href="#StandardGradient"
       id="radialGradient3835"
       gradientUnits="userSpaceOnUse"
       gradientTransform="matrix(2.2806236,2.4618775e-8,-1.6925407e-8,1.5679287,-15.367483,-3.823145)"
       cx="12"
       cy="10.729534"
       fx="12"
       fy="10.729534"
       r="7.015625" />
    <radialGradient
       inkscape:collect="always"
       xlink:href="#StandardGradient"
       id="radialGradient3843"
       gradientUnits="userSpaceOnUse"
       gradientTransform="matrix(2.2806236,2.4618775e-8,-1.6925407e-8,1.5679287,-15.367483,-3.823145)"
       cx="12"
       cy="10.729534"
       fx="12"
       fy="10.729534"
       r="7.015625" />
    <radialGradient
       inkscape:collect="always"
       xlink:href="#StandardGradient"
       id="radialGradient3850"
       gradientUnits="userSpaceOnUse"
       gradientTransform="matrix(2.2806236,2.4618775e-8,-1.6925407e-8,1.5679287,-15.367483,-2.823145)"
       cx="12"
       cy="10.729534"
       fx="12"
       fy="10.729534"
       r="7.015625" />
    <radialGradient
       inkscape:collect="always"
       xlink:href="#StandardGradient"
       id="radialGradient3852"
       gradientUnits="userSpaceOnUse"
       gradientTransform="matrix(2.2806236,2.4618775e-8,-1.6925407e-8,1.5679287,-15.367483,-3.823145)"
       cx="12"
       cy="10.729534"
       fx="12"
       fy="10.729534"
       r="7.015625" />
  </defs>
  <metadata
     id="metadata7">
    <rdf:RDF>
      <cc:Work
         rdf:about="">
        <dc:format>image/svg+xml</dc:format>
        <dc:type
           rdf:resource="http://purl.org/dc/dcmitype/StillImage" />
        <dc:title />
      </cc:Work>
    </rdf:RDF>
  </metadata>
  <g
     style="display:inline"
     inkscape:label="Calque 1"
     id="layer1"
     inkscape:groupmode="layer">
    <path
       style="color:#000000;fill:#ffffff;fill-opacity:1;fill-rule:nonzero;stroke:none;stroke-width:1;marker:none;visibility:visible;display:inline;overflow:visible;enable-background:accumulate;opacity:0.05"
       d="M 4.78125 11 A 1.0121864 1.0121864 0 0 0 3.96875 12 L 3.96875 14.90625 C 3.96875 16.434514 4.2402082 17.836659 4.78125 18.9375 C 5.3222918 20.038341 6.2215076 20.96875 7.46875 20.96875 L 14.5 20.96875 C 15.578076 20.96875 16.40406 20.257858 16.9375 19.375 C 17.32338 18.736358 17.480726 17.84633 17.65625 17 L 18.5 17 C 19.320189 17 20 16.320189 20 15.5 L 20 12.5 C 20 11.679811 19.320189 11 18.5 11 L 17 11 L 15.5 11 L 4.96875 11 A 1.0121864 1.0121864 0 0 0 4.78125 11 z M 4.96875 12 L 15.5 12 L 17 12 L 18.5 12 C 18.777 12 19 12.223 19 12.5 L 19 15.5 C 19 15.777 18.777 16 18.5 16 L 16.9375 16 C 16.694807 18.271527 15.708815 19.96875 14.5 19.96875 L 7.46875 19.96875 C 6.0741983 19.96875 4.96875 17.695354 4.96875 14.90625 L 4.96875 12 z M 17 13 L 17 14.90625 C 17 14.93783 17.000282 14.96856 17 15 L 17.5 15 C 17.777 15 18 14.777 18 14.5 L 18 13.5 C 18 13.223 17.777 13 17.5 13 L 17 13 z "
       id="path3822" />
    <path
       sodipodi:nodetypes="cccccccccccccccccccc"
       id="path3960"
       d="m -25.03125,-18 0,2.90625 c 0,2.789104 1.105448,5.0625 2.5,5.0625 l 7.03125,0 c 1.208815,0 2.194807,-1.697223 2.4375,-3.96875 l 1.5625,0 c 0.277,0 0.5,-0.223 0.5,-0.5 l 0,-3 c 0,-0.277 -0.223,-0.5 -0.5,-0.5 l -1.5,0 -1.5,0 -10.53125,0 z M -13,-17 l 0.5,0 c 0.277,0 0.5,0.223 0.5,0.5 l 0,1 c 0,0.277 -0.223,0.5 -0.5,0.5 l -0.5,0 c 2.82e-4,-0.03144 0,-0.06217 0,-0.09375 L -13,-17 z"
       style="opacity:0.2;color:#000000;fill:none;stroke:#ffffff;stroke-width:1;marker:none;visibility:visible;display:inline;overflow:visible;filter:url(#filter3968);enable-background:accumulate"
       inkscape:connector-curvature="0"
       clip-path="url(#clipPath3964)"
       transform="translate(30,60)" />
    <path
       sodipodi:nodetypes="cccccccccccccccccccc"
       id="path3972"
       d="m -25.03125,42.53125 0,2.90625 c 0,2.789104 1.105448,5.0625 2.5,5.0625 l 7.03125,0 c 1.208815,0 2.194807,-1.697223 2.4375,-3.96875 l 1.5625,0 c 0.277,0 0.5,-0.223 0.5,-0.5 l 0,-3 c 0,-0.277 -0.223,-0.5 -0.5,-0.5 l -1.5,0 -1.5,0 -10.53125,0 z m 12.03125,1 0.5,0 c 0.277,0 0.5,0.223 0.5,0.5 l 0,1 c 0,0.277 -0.223,0.5 -0.5,0.5 l -0.5,0 c 2.82e-4,-0.03144 0,-0.06217 0,-0.09375 l 0,-1.90625 z"
       style="opacity:0.4;color:#000000;fill:#ffffff;fill-opacity:1;fill-rule:nonzero;stroke:none;stroke-width:1;marker:none;visibility:visible;display:inline;overflow:visible;filter:url(#filter3984);enable-background:accumulate"
       inkscape:connector-curvature="0"
       clip-path="url(#clipPath3976)"
       transform="translate(30,0)" />
    <rect
       style="opacity:0.5;color:#000000;fill:#ff00ff;fill-opacity:1;fill-rule:nonzero;stroke:none;stroke-width:2;marker:none;visibility:visible;display:inline;overflow:visible;enable-background:accumulate"
       id="rect3047"
       width="22"
       height="22"
       x="-30"
       y="0" />
    <rect
       style="color:#000000;fill:url(#radialGradient3038);fill-opacity:1;fill-rule:nonzero;stroke:none;stroke-width:2;marker:none;visibility:visible;display:inline;overflow:visible;enable-background:accumulate"
       id="rect3841"
       width="8"
       height="8"
       x="32"
       y="-2" />
    <rect
       y="8"
       x="32"
       height="8"
       width="8"
       id="rect3853"
       style="color:#000000;fill:url(#radialGradient3855);fill-opacity:1;fill-rule:nonzero;stroke:none;stroke-width:2;marker:none;visibility:visible;display:inline;overflow:visible;enable-background:accumulate" />
    <text
       xml:space="preserve"
       style="font-size:1px;font-style:normal;font-variant:normal;font-weight:normal;font-stretch:normal;text-align:start;line-height:125%;letter-spacing:0px;word-spacing:0px;writing-mode:lr-tb;text-anchor:start;fill:#000000;fill-opacity:1;stroke:none;font-family:Trebuchet MS;-inkscape-font-specification:Trebuchet MS"
       x="34"
       y="19"
       id="text3977"
       sodipodi:linespacing="125%"><tspan
         sodipodi:role="line"
         x="34"
         y="19"
         id="tspan3805">-0.875px /blur 5 / opacity 40</tspan></text>
    <rect
       style="color:#000000;fill:#000000;fill-opacity:1;fill-rule:nonzero;stroke:none;stroke-width:2;marker:none;visibility:visible;display:inline;overflow:visible;enable-background:accumulate"
       id="rect3981"
       width="1"
       height="1"
       x="32"
       y="18" />
    <text
       sodipodi:linespacing="125%"
       id="text3983"
       y="21"
       x="34"
       style="font-size:1px;font-style:normal;font-variant:normal;font-weight:normal;font-stretch:normal;text-align:start;line-height:125%;letter-spacing:0px;word-spacing:0px;writing-mode:lr-tb;text-anchor:start;fill:#000000;fill-opacity:1;stroke:none;font-family:Trebuchet MS;-inkscape-font-specification:Trebuchet MS"
       xml:space="preserve"><tspan
         y="21"
         x="34"
         id="tspan3985"
         sodipodi:role="line">0px /blur 7 / opacity 20</tspan></text>
    <rect
       y="20"
       x="32"
       height="1"
       width="1"
       id="rect3987"
       style="color:#000000;fill:#ffffff;fill-opacity:1;fill-rule:nonzero;stroke:none;stroke-width:2;marker:none;visibility:visible;display:inline;overflow:visible;enable-background:accumulate" />
    <text
       xml:space="preserve"
       style="font-size:1px;font-style:normal;font-variant:normal;font-weight:normal;font-stretch:normal;text-align:start;line-height:125%;letter-spacing:0px;word-spacing:0px;writing-mode:lr-tb;text-anchor:start;fill:#000000;fill-opacity:1;stroke:none;font-family:Trebuchet MS;-inkscape-font-specification:Trebuchet MS"
       x="34"
       y="23"
       id="text3989"
       sodipodi:linespacing="125%"><tspan
         sodipodi:role="line"
         x="34"
         y="23"
         id="tspan3995">-0.5px /blur 5 / opacity 40</tspan></text>
    <rect
       style="color:#000000;fill:#ffffff;fill-opacity:1;fill-rule:nonzero;stroke:none;stroke-width:2;marker:none;visibility:visible;display:inline;overflow:visible;enable-background:accumulate"
       id="rect3993"
       width="1"
       height="1"
       x="32"
       y="22" />
    <path
       inkscape:connector-curvature="0"
       style="color:#000000;fill:url(#radialGradient3932);fill-opacity:1;fill-rule:nonzero;stroke:none;stroke-width:1;marker:none;visibility:visible;display:inline;overflow:visible;enable-background:accumulate"
       d="m 4.96875,42 0,2.90625 c 0,2.789104 1.1054483,5.0625 2.5,5.0625 l 7.03125,0 c 1.208815,0 2.194807,-1.697223 2.4375,-3.96875 L 18.5,46 c 0.277,0 0.5,-0.223 0.5,-0.5 l 0,-3 C 19,42.223 18.777,42 18.5,42 L 17,42 15.5,42 4.96875,42 z M 17,43 l 0.5,0 c 0.277,0 0.5,0.223 0.5,0.5 l 0,1 C 18,44.777 17.777,45 17.5,45 L 17,45 c 2.82e-4,-0.03144 0,-0.06217 0,-0.09375 L 17,43 z"
       id="path3776"
       sodipodi:nodetypes="cccccccccccccccccccc" />
    <path
       inkscape:connector-curvature="0"
       style="opacity:0.2;color:#000000;fill:#000000;fill-opacity:1;fill-rule:nonzero;stroke:none;stroke-width:1;marker:none;visibility:visible;display:inline;overflow:visible;enable-background:accumulate"
       d="m 10.6875,30.90625 c -1.4631011,2.451225 -1.9028063,3.658526 -1.375,5.21875 0.4784462,1.414316 1.715529,2.135479 1.09375,5.40625 1.021121,-1.593608 1.83313,-3.617372 1.03125,-5.25 -0.815573,-1.660505 -1.262845,-2.669155 -0.75,-5.375 z m 3.65625,3.25 c -1.179244,1.744159 -1.463902,2.747772 -0.9375,3.96875 0.535999,1.243243 1.110363,1.407346 0.40625,3.21875 1.299109,-1.465022 1.378898,-2.4582 0.84375,-3.59375 -0.545923,-1.158407 -1.090471,-1.547178 -0.3125,-3.59375 z m -7.28125,0.3125 c -0.9642206,1.655903 -1.2718555,2.45661 -0.90625,3.5 0.3314147,0.945816 1.1748132,1.45638 0.78125,3.65625 1.2078592,-1.523825 1.1598081,-2.629411 0.625,-3.59375 -0.5213961,-0.940152 -0.8245544,-1.742602 -0.5,-3.5625 z"
       id="path3776-5"
       sodipodi:nodetypes="cscsccscsccscsc" />
    <path
       sodipodi:nodetypes="cccccccccccccccccccc"
       id="path3948"
       d="m 4.96875,12.40625 0,2.90625 c 0,2.789104 1.1054483,5.0625 2.5,5.0625 l 7.03125,0 c 1.208815,0 2.194807,-1.697223 2.4375,-3.96875 l 1.5625,0 c 0.277,0 0.5,-0.223 0.5,-0.5 l 0,-3 c 0,-0.277 -0.223,-0.5 -0.5,-0.5 l -1.5,0 -1.5,0 -10.53125,0 z m 12.03125,1 0.5,0 c 0.277,0 0.5,0.223 0.5,0.5 l 0,1 c 0,0.277 -0.223,0.5 -0.5,0.5 l -0.5,0 c 2.82e-4,-0.03144 0,-0.06217 0,-0.09375 l 0,-1.90625 z"
       style="opacity:0.4;color:#000000;fill:none;stroke:#000000;stroke-width:1;marker:none;visibility:visible;display:inline;overflow:visible;filter:url(#filter3956);enable-background:accumulate"
       inkscape:connector-curvature="0"
       clip-path="url(#clipPath3952)"
       transform="translate(0,30)" />
    <path
       sodipodi:nodetypes="cccccccccccccccccccc"
       id="path3033"
       d="m 4.96875,12 0,2.90625 c 0,2.789104 1.1054483,5.0625 2.5,5.0625 l 7.03125,0 c 1.208815,0 2.194807,-1.697223 2.4375,-3.96875 L 18.5,16 c 0.277,0 0.5,-0.223 0.5,-0.5 l 0,-3 C 19,12.223 18.777,12 18.5,12 L 17,12 15.5,12 4.96875,12 z M 17,13 l 0.5,0 c 0.277,0 0.5,0.223 0.5,0.5 l 0,1 C 18,14.777 17.777,15 17.5,15 L 17,15 c 2.82e-4,-0.03144 0,-0.06217 0,-0.09375 L 17,13 z"
       style="color:#000000;fill:url(#radialGradient3037);fill-opacity:1;fill-rule:nonzero;stroke:none;stroke-width:1;marker:none;visibility:visible;display:inline;overflow:visible;enable-background:accumulate"
       inkscape:connector-curvature="0" />
    <path
       sodipodi:nodetypes="cscsccscsccscsc"
       id="path3035"
       d="M 10.6875,0.90625 C 9.2243989,3.357475 8.7846937,4.564776 9.3125,6.125 c 0.4784462,1.414316 1.715529,2.135479 1.09375,5.40625 1.021121,-1.593608 1.83313,-3.617372 1.03125,-5.25 -0.815573,-1.660505 -1.262845,-2.669155 -0.75,-5.375 z m 3.65625,3.25 C 13.164506,5.900409 12.879848,6.904022 13.40625,8.125 13.942249,9.368243 14.516613,9.532346 13.8125,11.34375 15.111609,9.878728 15.191398,8.88555 14.65625,7.75 14.110327,6.591593 13.565779,6.202822 14.34375,4.15625 z M 7.0625,4.46875 C 6.0982794,6.124653 5.7906445,6.92536 6.15625,7.96875 6.4876647,8.914566 7.3310632,9.42513 6.9375,11.625 8.1453592,10.101175 8.0973081,8.995589 7.5625,8.03125 7.0411039,7.091098 6.7379456,6.288648 7.0625,4.46875 z"
       style="opacity:0.2;color:#000000;fill:#000000;fill-opacity:1;fill-rule:nonzero;stroke:none;stroke-width:1;marker:none;visibility:visible;display:inline;overflow:visible;enable-background:accumulate"
       inkscape:connector-curvature="0" />
    <path
       style="color:#000000;fill:#ffffff;fill-opacity:1;fill-rule:nonzero;stroke:none;stroke-width:1;marker:none;visibility:visible;display:inline;overflow:visible;enable-background:accumulate;opacity:0.2"
       d="M 17 13 L 17 14 L 17.5 14 C 17.777 14 18 14.223 18 14.5 L 18 13.5 C 18 13.223 17.777 13 17.5 13 L 17 13 z M 4.96875 14.90625 L 4.96875 15.90625 C 4.96875 18.695354 6.0741983 20.96875 7.46875 20.96875 L 14.5 20.96875 C 15.708815 20.96875 16.694807 19.271527 16.9375 17 L 18.5 17 C 18.777 17 19 16.777 19 16.5 L 19 15.5 C 19 15.777 18.777 16 18.5 16 L 17.5 16 L 17 16 L 16.9375 16 C 16.694807 18.271527 15.708815 19.96875 14.5 19.96875 L 7.46875 19.96875 C 6.0741983 19.96875 4.96875 17.695354 4.96875 14.90625 z "
       id="path3039" />
    <path
       style="color:#000000;fill:#000000;fill-opacity:1;fill-rule:nonzero;stroke:none;stroke-width:1;marker:none;visibility:visible;display:inline;overflow:visible;enable-background:accumulate;opacity:0.3"
       d="M 4.96875 12 L 4.96875 14.90625 C 4.96875 17.695354 6.0741983 19.96875 7.46875 19.96875 L 14.5 19.96875 C 15.708815 19.96875 16.694807 18.271527 16.9375 16 L 18.5 16 C 18.777 16 19 15.777 19 15.5 L 19 12.5 C 19 12.223 18.777 12 18.5 12 L 17 12 L 15.5 12 L 4.96875 12 z M 5.5 12.53125 L 15.5 12.53125 L 16.75 12.53125 A 0.53319636 0.53319636 0 0 0 16.46875 13 L 16.46875 14.90625 C 16.46875 14.941004 16.468975 14.974863 16.46875 15 A 0.53319636 0.53319636 0 0 0 16.75 15.5 A 0.53319636 0.53319636 0 0 0 16.40625 15.9375 C 16.291516 17.011373 15.997359 17.946235 15.625 18.5625 C 15.252641 19.178765 14.85489 19.4375 14.5 19.4375 L 7.46875 19.4375 C 7.0611838 19.4375 6.5905811 19.070137 6.1875 18.25 C 5.7844189 17.429863 5.5 16.230366 5.5 14.90625 L 5.5 12.53125 z M 17.65625 12.53125 L 18.46875 12.53125 L 18.46875 13.34375 C 18.392934 12.920583 18.079417 12.607066 17.65625 12.53125 z M 17 13 L 17.5 13 C 17.777 13 18 13.223 18 13.5 L 18 14.5 C 18 14.777 17.777 15 17.5 15 L 17 15 C 17.000282 14.96856 17 14.93783 17 14.90625 L 17 13 z M 18.46875 14.65625 L 18.46875 15.46875 L 17.65625 15.46875 C 18.079417 15.392934 18.392934 15.079417 18.46875 14.65625 z "
       id="path3827" />
    <path
       style="color:#000000;fill:#000000;fill-opacity:1;fill-rule:nonzero;stroke:none;stroke-width:1;marker:none;visibility:visible;display:inline;overflow:visible;enable-background:accumulate;opacity:0.3"
       d="M 4.96875 12 L 4.96875 13 L 15.5 13 L 17 13 L 17.5 13 L 18.5 13 C 18.777 13 19 13.223 19 13.5 L 19 12.5 C 19 12.223 18.777 12 18.5 12 L 17 12 L 15.5 12 L 4.96875 12 z M 18 14.5 C 18 14.777 17.777 15 17.5 15 L 17 15 L 17 15.90625 C 17 15.93783 17.000282 15.96856 17 16 L 17.5 16 C 17.777 16 18 15.777 18 15.5 L 18 14.5 z "
       id="path3846" />
  </g>
</svg>
