<?xml version="1.0" encoding="UTF-8" standalone="no"?>
<!-- Created with Inkscape (http://www.inkscape.org/) -->

<svg
   xmlns:dc="http://purl.org/dc/elements/1.1/"
   xmlns:cc="http://creativecommons.org/ns#"
   xmlns:rdf="http://www.w3.org/1999/02/22-rdf-syntax-ns#"
   xmlns:svg="http://www.w3.org/2000/svg"
   xmlns="http://www.w3.org/2000/svg"
   xmlns:xlink="http://www.w3.org/1999/xlink"
   xmlns:sodipodi="http://sodipodi.sourceforge.net/DTD/sodipodi-0.dtd"
   xmlns:inkscape="http://www.inkscape.org/namespaces/inkscape"
   width="22"
   height="22"
   id="svg2"
   sodipodi:version="0.32"
   inkscape:version="0.48.1 r9760"
   version="1.0"
   sodipodi:docname="glippy-panel.svg"
   inkscape:output_extension="org.inkscape.output.svg.inkscape"
   inkscape:export-filename="/home/matt/.icons/Sirocco/scalable/mimetypes/text-plain.png"
   inkscape:export-xdpi="90"
   inkscape:export-ydpi="90"
   sodipodi:modified="true"
   style="display:inline">
  <sodipodi:namedview
     id="base"
     pagecolor="#838383"
     bordercolor="#cc0000"
     borderopacity="1"
     inkscape:pageopacity="1"
     inkscape:pageshadow="2"
     inkscape:zoom="22.027846"
     inkscape:cx="-3.3803446"
     inkscape:cy="6.1235775"
     inkscape:document-units="px"
     inkscape:current-layer="layer1"
     width="128px"
     height="128px"
     inkscape:showpageshadow="false"
     inkscape:window-width="1920"
     inkscape:window-height="1030"
     inkscape:window-x="0"
     inkscape:window-y="25"
     showguides="true"
     inkscape:guide-bbox="true"
     showgrid="true"
     inkscape:window-maximized="1"
     borderlayer="true"
     inkscape:snap-global="true">
    <inkscape:grid
       enabled="true"
       visible="true"
       id="grid3231"
       type="xygrid"
       empspacing="8"
       snapvisiblegridlinesonly="true" />
    <sodipodi:guide
       orientation="1,0"
       position="12,17"
       id="guide3791" />
    <sodipodi:guide
       orientation="0,1"
       position="14,9"
       id="guide3793" />
  </sodipodi:namedview>
  <defs
     id="defs4">
    <linearGradient
       id="StandardGradient"
       gradientTransform="scale(0.9219544,1.0846523)"
       x1="11.998966"
       y1="0.92195445"
       x2="11.998966"
       y2="19.387045"
       gradientUnits="userSpaceOnUse">
      <stop
         style="stop-color:#000000;stop-opacity:0.23529412;"
         offset="0"
         id="stop3283" />
      <stop
         id="stop3850"
         offset="0.69999999"
         style="stop-color:#000000;stop-opacity:0.39215686;" />
      <stop
         style="stop-color:#000000;stop-opacity:0.55;"
         offset="1"
         id="stop2651" />
    </linearGradient>
    <radialGradient
       inkscape:collect="always"
       xlink:href="#StandardGradient"
       id="radialGradient3820"
       cx="12.532976"
       cy="12.602648"
       fx="12.532976"
       fy="12.602648"
       r="8.9818287"
       gradientTransform="matrix(1.7813745,-4.0455866e-8,2.7813408e-8,1.224695,-10.325925,-2.4343984)"
       gradientUnits="userSpaceOnUse" />
    <radialGradient
       inkscape:collect="always"
       xlink:href="#SpecificGradient"
       id="radialGradient3855"
       gradientUnits="userSpaceOnUse"
       cx="36"
       cy="2"
       fx="36"
       fy="2"
       r="4"
       gradientTransform="translate(0,10)" />
    <linearGradient
       id="SpecificGradient"
       x1="10.406627"
       y1="2"
       x2="10.406627"
       y2="18.000771"
       gradientUnits="userSpaceOnUse">
      <stop
         style="stop-color:#e64b36;stop-opacity:1;"
         offset="0"
         id="stop3292" />
      <stop
         style="stop-color:#a31414;stop-opacity:1;"
         offset="1"
         id="stop3294" />
    </linearGradient>
    <radialGradient
       r="4"
       fy="2"
       fx="36"
       cy="2"
       cx="36"
       gradientUnits="userSpaceOnUse"
       id="radialGradient3038"
       xlink:href="#StandardGradient"
       inkscape:collect="always" />
    <radialGradient
       inkscape:collect="always"
       xlink:href="#StandardGradient"
       id="radialGradient3842"
       cx="12"
       cy="13"
       fx="12"
       fy="13"
       r="8"
       gradientUnits="userSpaceOnUse"
       gradientTransform="matrix(2,0,0,1.25,-12,26.75)" />
    <radialGradient
       inkscape:collect="always"
       xlink:href="#StandardGradient"
       id="radialGradient3852"
       gradientUnits="userSpaceOnUse"
       gradientTransform="matrix(2,0,0,1.25,-42,-3.25)"
       cx="12"
       cy="13"
       fx="12"
       fy="13"
       r="8" />
    <radialGradient
       inkscape:collect="always"
       xlink:href="#StandardGradient"
       id="radialGradient3854"
       gradientUnits="userSpaceOnUse"
       gradientTransform="matrix(2,0,0,1.25,-42,-3.25)"
       cx="12"
       cy="13"
       fx="12"
       fy="13"
       r="8" />
    <clipPath
       clipPathUnits="userSpaceOnUse"
       id="clipPath3862">
      <path
         id="path3864"
         d="m 11,3 c -4.418278,0 -8,3.581722 -8,8 0,4.418278 3.581722,8 8,8 4.418278,0 8,-3.581722 8,-8 0,-4.418278 -3.581722,-8 -8,-8 z m 0,3.28125 c 1.249125,-0.054213 2.178014,0.2831767 2.84375,0.875 0.665736,0.5918233 1.079773,1.4473539 1.15625,2.53125 0.08379,1.187522 -0.0602,1.894358 -0.1875,2.40625 -0.06365,0.255946 -0.125748,0.472248 -0.15625,0.6875 -0.0305,0.215252 -0.01731,0.474866 0.125,0.6875 0.145592,0.217538 0.157952,0.365029 0.15625,0.4375 -0.0017,0.07247 0.01528,0.134542 -0.0625,0.21875 -0.155559,0.168416 -0.565402,0.367285 -0.9375,0.65625 -0.08682,0.06743 -0.286282,0.100608 -0.5,0.0625 -0.213718,-0.03811 -0.407133,-0.169244 -0.53125,-0.3125 a 0.38043645,0.38043645 0 0 0 -0.125,-0.0625 c -0.329726,-0.178803 -0.602951,-0.26141 -0.875,-0.21875 -0.272049,0.04266 -0.461398,0.171285 -0.625,0.28125 C 10.956826,14.74931 10.595186,14.993338 9.46875,15 9.46175,14.999731 9.44449,15.000327 9.4375,15 8.3458902,14.948934 7.3362622,14.183208 7.0625,13.21875 6.8320871,12.407011 6.9032945,11.769662 7.21875,11.25 7.5342055,10.730338 8.1292453,10.289793 9.09375,10 9.3027147,9.9372147 9.7415271,9.9155 10.1875,9.875 10.633473,9.8345 11.084411,9.826023 11.46875,9.5625 11.802819,9.3334451 11.99888,8.9177809 11.875,8.5625 11.75112,8.2072191 11.429063,8.0103714 11.03125,7.96875 10.528301,7.916131 9.948053,7.97017 9.40625,8.03125 8.864447,8.092332 8.3339094,8.1500628 8.03125,8.09375 7.9201118,8.0730717 7.8037245,7.9199664 7.75,7.65625 7.6962755,7.3925336 7.7779816,7.1145038 7.875,7 8.1100535,6.7225827 8.6134631,6.500967 9.21875,6.40625 9.8240369,6.311533 10.495499,6.3031468 11,6.28125 z m 0.15625,4.5 c -0.728125,0 -1.375,0.535291 -1.375,1.25 0,0.714709 0.646875,1.25 1.375,1.25 0.728126,0 1.34375,-0.546558 1.34375,-1.25 0,-0.703442 -0.615624,-1.25 -1.34375,-1.25 z"
         style="color:#000000;fill:#ff00ff;fill-opacity:1;fill-rule:nonzero;stroke:none;stroke-width:8;marker:none;visibility:visible;display:inline;overflow:visible;enable-background:accumulate"
         inkscape:connector-curvature="0" />
    </clipPath>
    <filter
       inkscape:collect="always"
       id="filter3866">
      <feGaussianBlur
         inkscape:collect="always"
         stdDeviation="0.4"
         id="feGaussianBlur3868" />
    </filter>
    <clipPath
       clipPathUnits="userSpaceOnUse"
       id="clipPath3874">
      <path
         style="opacity:0.5;color:#000000;fill:#ff00ff;fill-opacity:1;fill-rule:nonzero;stroke:none;stroke-width:2;marker:none;visibility:visible;display:inline;overflow:visible;enable-background:accumulate"
         d="m -30,-30 0,22 22,0 0,-22 -22,0 z m 11,3 c 4.418278,0 8,3.581722 8,8 0,4.418278 -3.581722,8 -8,8 -4.418278,0 -8,-3.581722 -8,-8 0,-4.418278 3.581722,-8 8,-8 z m 0,3.28125 c -0.504501,0.0219 -1.175963,0.03028 -1.78125,0.125 -0.605287,0.09472 -1.108697,0.316333 -1.34375,0.59375 -0.09702,0.114504 -0.17873,0.392534 -0.125,0.65625 0.05372,0.263716 0.170112,0.416822 0.28125,0.4375 0.302659,0.05631 0.833197,-0.0014 1.375,-0.0625 0.541803,-0.06108 1.122051,-0.115119 1.625,-0.0625 0.397813,0.04162 0.71987,0.238469 0.84375,0.59375 0.12388,0.355281 -0.07218,0.770945 -0.40625,1 -0.384339,0.263523 -0.835277,0.272 -1.28125,0.3125 -0.445973,0.0405 -0.884785,0.06222 -1.09375,0.125 -0.964505,0.289793 -1.559544,0.730338 -1.875,1.25 -0.315456,0.519662 -0.386663,1.157011 -0.15625,1.96875 0.273762,0.964458 1.28339,1.73018 2.375,1.78125 0.007,3.27e-4 0.02425,-2.69e-4 0.03125,0 1.126436,-0.0067 1.488076,-0.25069 1.8125,-0.46875 0.163602,-0.109965 0.352951,-0.23859 0.625,-0.28125 0.272049,-0.04266 0.545274,0.03995 0.875,0.21875 a 0.38043645,0.38043645 0 0 1 0.125,0.0625 c 0.124117,0.143256 0.317532,0.27439 0.53125,0.3125 0.213718,0.03811 0.41318,0.0049 0.5,-0.0625 0.372098,-0.288965 0.781941,-0.487834 0.9375,-0.65625 0.07778,-0.08421 0.0608,-0.14628 0.0625,-0.21875 0.0017,-0.07247 -0.01066,-0.219962 -0.15625,-0.4375 -0.14231,-0.212634 -0.1555,-0.472248 -0.125,-0.6875 0.0305,-0.215252 0.0926,-0.431554 0.15625,-0.6875 0.1273,-0.511892 0.27129,-1.218728 0.1875,-2.40625 -0.07648,-1.083896 -0.490514,-1.939427 -1.15625,-2.53125 -0.665736,-0.591823 -1.594625,-0.929213 -2.84375,-0.875 z m 0.15625,4.5 c 0.728126,0 1.34375,0.546558 1.34375,1.25 0,0.703442 -0.615624,1.25 -1.34375,1.25 -0.728125,0 -1.375,-0.535291 -1.375,-1.25 0,-0.714709 0.646875,-1.25 1.375,-1.25 z"
         id="path3876"
         inkscape:connector-curvature="0" />
    </clipPath>
    <filter
       inkscape:collect="always"
       id="filter3878">
      <feGaussianBlur
         inkscape:collect="always"
         stdDeviation="0.56"
         id="feGaussianBlur3880" />
    </filter>
    <clipPath
       clipPathUnits="userSpaceOnUse"
       id="clipPath3886">
      <path
         style="opacity:0.5;color:#000000;fill:#ff00ff;fill-opacity:1;fill-rule:nonzero;stroke:none;stroke-width:2;marker:none;visibility:visible;display:inline;overflow:visible;enable-background:accumulate"
         d="m -30,30 0,22 22,0 0,-22 -22,0 z m 11,3 c 4.418278,0 8,3.581722 8,8 0,4.418278 -3.581722,8 -8,8 -4.418278,0 -8,-3.581722 -8,-8 0,-4.418278 3.581722,-8 8,-8 z m 0,3.28125 c -0.504501,0.0219 -1.175963,0.03028 -1.78125,0.125 -0.605287,0.09472 -1.108697,0.316333 -1.34375,0.59375 -0.09702,0.114504 -0.17873,0.392534 -0.125,0.65625 0.05372,0.263716 0.170112,0.416822 0.28125,0.4375 0.302659,0.05631 0.833197,-0.0014 1.375,-0.0625 0.541803,-0.06108 1.122051,-0.115119 1.625,-0.0625 0.397813,0.04162 0.71987,0.238469 0.84375,0.59375 0.12388,0.355281 -0.07218,0.770945 -0.40625,1 -0.384339,0.263523 -0.835277,0.272 -1.28125,0.3125 -0.445973,0.0405 -0.884785,0.06221 -1.09375,0.125 -0.964505,0.289793 -1.559544,0.730338 -1.875,1.25 -0.315456,0.519662 -0.386663,1.157011 -0.15625,1.96875 0.273762,0.964458 1.28339,1.73018 2.375,1.78125 0.007,3.27e-4 0.02425,-2.69e-4 0.03125,0 1.126436,-0.0067 1.488076,-0.25069 1.8125,-0.46875 0.163602,-0.109965 0.352951,-0.23859 0.625,-0.28125 0.272049,-0.04266 0.545274,0.03995 0.875,0.21875 a 0.38043645,0.38043645 0 0 1 0.125,0.0625 c 0.124117,0.143256 0.317532,0.27439 0.53125,0.3125 0.213718,0.03811 0.41318,0.0049 0.5,-0.0625 0.372098,-0.288965 0.781941,-0.487834 0.9375,-0.65625 0.07778,-0.08421 0.0608,-0.14628 0.0625,-0.21875 0.0017,-0.07247 -0.01066,-0.219962 -0.15625,-0.4375 -0.14231,-0.212634 -0.1555,-0.472248 -0.125,-0.6875 0.0305,-0.215252 0.0926,-0.431554 0.15625,-0.6875 0.1273,-0.511892 0.27129,-1.218728 0.1875,-2.40625 -0.07648,-1.083896 -0.490514,-1.939427 -1.15625,-2.53125 -0.665736,-0.591823 -1.594625,-0.929213 -2.84375,-0.875 z m 0.15625,4.5 c 0.728126,0 1.34375,0.546558 1.34375,1.25 0,0.703442 -0.615624,1.25 -1.34375,1.25 -0.728125,0 -1.375,-0.535291 -1.375,-1.25 0,-0.714709 0.646875,-1.25 1.375,-1.25 z"
         id="path3888"
         inkscape:connector-curvature="0" />
    </clipPath>
    <filter
       inkscape:collect="always"
       id="filter5498">
      <feGaussianBlur
         inkscape:collect="always"
         stdDeviation="0.4"
         id="feGaussianBlur5500" />
    </filter>
    <radialGradient
       inkscape:collect="always"
       xlink:href="#StandardGradient"
       id="radialGradient3028"
       gradientUnits="userSpaceOnUse"
       gradientTransform="matrix(2,0,0,1.25,-12,-3.25)"
       cx="12"
       cy="13"
       fx="12"
       fy="13"
       r="8" />
    <radialGradient
       inkscape:collect="always"
       xlink:href="#StandardGradient"
       id="radialGradient3800"
       gradientUnits="userSpaceOnUse"
       gradientTransform="matrix(2,0,0,1.25,-12,-2.25)"
       cx="12"
       cy="13"
       fx="12"
       fy="13"
       r="8" />
    <radialGradient
       inkscape:collect="always"
       xlink:href="#StandardGradient"
       id="radialGradient3804"
       gradientUnits="userSpaceOnUse"
       gradientTransform="matrix(2,0,0,1.25,-12,-3.25)"
       cx="12"
       cy="13"
       fx="12"
       fy="13"
       r="8" />
    <radialGradient
       inkscape:collect="always"
       xlink:href="#StandardGradient"
       id="radialGradient3811"
       gradientUnits="userSpaceOnUse"
       gradientTransform="matrix(2,0,0,1.25,-12,-3.25)"
       cx="12"
       cy="13"
       fx="12"
       fy="13"
       r="8" />
    <radialGradient
       inkscape:collect="always"
       xlink:href="#StandardGradient"
       id="radialGradient3815"
       gradientUnits="userSpaceOnUse"
       gradientTransform="matrix(2,0,0,1.25,-12,-3.25)"
       cx="12"
       cy="13"
       fx="12"
       fy="13"
       r="8" />
    <radialGradient
       inkscape:collect="always"
       xlink:href="#StandardGradient"
       id="radialGradient3822"
       gradientUnits="userSpaceOnUse"
       gradientTransform="matrix(2,0,0,1.25,-12,-3.25)"
       cx="12"
       cy="13"
       fx="12"
       fy="13"
       r="8" />
    <radialGradient
       inkscape:collect="always"
       xlink:href="#StandardGradient"
       id="radialGradient3826"
       gradientUnits="userSpaceOnUse"
       gradientTransform="matrix(2,0,0,1.25,-12,-3.25)"
       cx="12"
       cy="13"
       fx="12"
       fy="13"
       r="8" />
    <radialGradient
       inkscape:collect="always"
       xlink:href="#StandardGradient"
       id="radialGradient3828"
       gradientUnits="userSpaceOnUse"
       gradientTransform="matrix(2,0,0,1.25,-12,-3.25)"
       cx="12"
       cy="13"
       fx="12"
       fy="13"
       r="8" />
    <radialGradient
       inkscape:collect="always"
       xlink:href="#StandardGradient"
       id="radialGradient3835"
       gradientUnits="userSpaceOnUse"
       gradientTransform="matrix(2,0,0,1.25,-12,-2.25)"
       cx="12"
       cy="13"
       fx="12"
       fy="13"
       r="8" />
    <radialGradient
       inkscape:collect="always"
       xlink:href="#StandardGradient"
       id="radialGradient3837"
       gradientUnits="userSpaceOnUse"
       gradientTransform="matrix(2,0,0,1.25,-12,-3.25)"
       cx="12"
       cy="13"
       fx="12"
       fy="13"
       r="8" />
    <linearGradient
       id="StandardGradient-5"
       gradientTransform="matrix(0.9984539,0,0,0.9984539,-0.0459776,0.05767558)"
       x1="10.710332"
       y1="1.9963325"
       x2="10.710332"
       y2="18.974037"
       gradientUnits="userSpaceOnUse">
      <stop
         style="stop-color:#000000;stop-opacity:0.86274511;"
         offset="0"
         id="stop3277" />
      <stop
         style="stop-color:#000000;stop-opacity:0.47058824;"
         offset="1"
         id="stop3279" />
    </linearGradient>
    <radialGradient
       inkscape:collect="always"
       xlink:href="#StandardGradient"
       id="radialGradient3849"
       cx="12"
       cy="12.750001"
       fx="12"
       fy="12.750001"
       r="7"
       gradientTransform="matrix(2.2857143,0,0,1.4285715,-15.428571,-5.2142875)"
       gradientUnits="userSpaceOnUse" />
    <radialGradient
       inkscape:collect="always"
       xlink:href="#StandardGradient"
       id="radialGradient3856"
       gradientUnits="userSpaceOnUse"
       gradientTransform="matrix(2.2857143,0,0,1.4285715,-15.428571,-5.2142875)"
       cx="12"
       cy="12.750001"
       fx="12"
       fy="12.750001"
       r="7" />
    <radialGradient
       inkscape:collect="always"
       xlink:href="#StandardGradient"
       id="radialGradient3860"
       gradientUnits="userSpaceOnUse"
       gradientTransform="matrix(2.2857143,0,0,1.4285715,-15.428571,-5.2142875)"
       cx="12"
       cy="12.750001"
       fx="12"
       fy="12.750001"
       r="7" />
    <radialGradient
       inkscape:collect="always"
       xlink:href="#StandardGradient"
       id="radialGradient3862"
       gradientUnits="userSpaceOnUse"
       gradientTransform="matrix(2.2857143,0,0,1.4285715,-15.428571,-5.2142875)"
       cx="12"
       cy="12.750001"
       fx="12"
       fy="12.750001"
       r="7" />
  </defs>
  <metadata
     id="metadata7">
    <rdf:RDF>
      <cc:Work
         rdf:about="">
        <dc:format>image/svg+xml</dc:format>
        <dc:type
           rdf:resource="http://purl.org/dc/dcmitype/StillImage" />
        <dc:title></dc:title>
      </cc:Work>
    </rdf:RDF>
  </metadata>
  <g
     style="display:inline"
     inkscape:label="Calque 1"
     id="layer1"
     inkscape:groupmode="layer">
    <rect
       style="opacity:0.5;color:#000000;fill:#ff00ff;fill-opacity:1;fill-rule:nonzero;stroke:none;stroke-width:2;marker:none;visibility:visible;display:inline;overflow:visible;enable-background:accumulate"
       id="rect3047"
       width="22"
       height="22"
       x="-30"
       y="0" />
    <rect
       style="color:#000000;fill:url(#radialGradient3038);fill-opacity:1;fill-rule:nonzero;stroke:none;stroke-width:2;marker:none;visibility:visible;display:inline;overflow:visible;enable-background:accumulate"
       id="rect3841"
       width="8"
       height="8"
       x="32"
       y="-2" />
    <rect
       y="8"
       x="32"
       height="8"
       width="8"
       id="rect3853"
       style="color:#000000;fill:url(#radialGradient3855);fill-opacity:1;fill-rule:nonzero;stroke:none;stroke-width:2;marker:none;visibility:visible;display:inline;overflow:visible;enable-background:accumulate" />
    <text
       xml:space="preserve"
       style="font-size:1px;font-style:normal;font-variant:normal;font-weight:normal;font-stretch:normal;text-align:start;line-height:125%;letter-spacing:0px;word-spacing:0px;writing-mode:lr-tb;text-anchor:start;fill:#000000;fill-opacity:1;stroke:none;font-family:Trebuchet MS;-inkscape-font-specification:Trebuchet MS"
       x="34"
       y="19"
       id="text3977"
       sodipodi:linespacing="125%"><tspan
         sodipodi:role="line"
         x="34"
         y="19"
         id="tspan3805">-0.875px /blur 5 / opacity 40</tspan></text>
    <rect
       style="color:#000000;fill:#000000;fill-opacity:1;fill-rule:nonzero;stroke:none;stroke-width:2;marker:none;visibility:visible;display:inline;overflow:visible;enable-background:accumulate"
       id="rect3981"
       width="1"
       height="1"
       x="32"
       y="18" />
    <text
       sodipodi:linespacing="125%"
       id="text3983"
       y="21"
       x="34"
       style="font-size:1px;font-style:normal;font-variant:normal;font-weight:normal;font-stretch:normal;text-align:start;line-height:125%;letter-spacing:0px;word-spacing:0px;writing-mode:lr-tb;text-anchor:start;fill:#000000;fill-opacity:1;stroke:none;font-family:Trebuchet MS;-inkscape-font-specification:Trebuchet MS"
       xml:space="preserve"><tspan
         y="21"
         x="34"
         id="tspan3985"
         sodipodi:role="line">0px /blur 7 / opacity 15</tspan></text>
    <rect
       y="20"
       x="32"
       height="1"
       width="1"
       id="rect3987"
       style="color:#000000;fill:#ffffff;fill-opacity:1;fill-rule:nonzero;stroke:none;stroke-width:2;marker:none;visibility:visible;display:inline;overflow:visible;enable-background:accumulate" />
    <text
       xml:space="preserve"
       style="font-size:1px;font-style:normal;font-variant:normal;font-weight:normal;font-stretch:normal;text-align:start;line-height:125%;letter-spacing:0px;word-spacing:0px;writing-mode:lr-tb;text-anchor:start;fill:#000000;fill-opacity:1;stroke:none;font-family:Trebuchet MS;-inkscape-font-specification:Trebuchet MS"
       x="34"
       y="23"
       id="text3989"
       sodipodi:linespacing="125%"><tspan
         sodipodi:role="line"
         x="34"
         y="23"
         id="tspan3995">-0.5px /blur 3 / opacity 30</tspan></text>
    <rect
       style="color:#000000;fill:#ffffff;fill-opacity:1;fill-rule:nonzero;stroke:none;stroke-width:2;marker:none;visibility:visible;display:inline;overflow:visible;enable-background:accumulate"
       id="rect3993"
       width="1"
       height="1"
       x="32"
       y="22" />
    <path
       inkscape:connector-curvature="0"
       style="opacity:0.05;color:#000000;fill:#ffffff;fill-opacity:1;fill-rule:nonzero;stroke:none;stroke-width:1;marker:none;visibility:visible;display:inline;overflow:visible;enable-background:accumulate"
       d="M 6,2.0625 C 4.3906031,2.0625 3.0625,3.3906031 3.0625,5 l 0,12 c 0,1.609397 1.3281031,2.9375 2.9375,2.9375 l 10,0 c 1.609397,0 2.9375,-1.328103 2.9375,-2.9375 l 0,-12 C 18.9375,3.3906031 17.609397,2.0625 16,2.0625 l -10,0 z M 6,3 16,3 c 1.108,0 2,0.892 2,2 l 0,12 c 0,1.108 -0.892,2 -2,2 L 6,19 C 4.892,19 4,18.108 4,17 L 4,5 C 4,3.892 4.892,3 6,3 z m 5.21875,3.03125 c -0.775392,9.9e-6 -1.4955738,0.1000315 -2.125,0.3125 C 8.468877,6.5514085 7.9424237,6.8875525 7.5,7.3125 7.0621334,7.7326354 6.7059256,8.237573 6.46875,8.875 6.2315722,9.5076119 6.1249993,10.275093 6.125,11.125 c -7e-7,0.796797 0.1332611,1.485293 0.375,2.09375 0.2462977,0.608462 0.5666944,1.115953 1,1.53125 0.4378626,0.41047 0.9558714,0.725017 1.5625,0.9375 0.6066213,0.207649 1.274781,0.3125 2,0.3125 0.328392,0 0.675478,-0.0287 1.03125,-0.0625 0.355758,-0.0338 0.711288,-0.06705 1.0625,-0.125 0.351196,-0.05795 0.707404,-0.14149 1.03125,-0.21875 0.328391,-0.08209 0.610447,-0.15825 0.875,-0.25 l 0,-3.15625 0.90625,-0.1875 0,-1 L 12,11 l 0,1 1.09375,0.1875 0,2.8125 c -0.218939,0.07727 -0.641714,0.13921 -0.90625,0.1875 -0.26455,0.04346 -0.521274,0.0625 -0.78125,0.0625 -0.237183,0 -0.477018,-0.01421 -0.71875,-0.0625 C 10.445756,15.134382 10.192239,15.026977 9.96875,14.90625 9.7498133,14.785525 9.539873,14.640322 9.34375,14.4375 9.1521803,14.229853 8.9851404,13.965311 8.84375,13.65625 8.7023529,13.347193 8.613347,12.98263 8.53125,12.5625 8.4491474,12.142377 8.4062471,11.653924 8.40625,11.09375 8.4062471,10.267988 8.483603,9.5817681 8.625,9.03125 8.7709517,8.4759166 8.954203,8.0471333 9.21875,7.71875 9.4878505,7.385554 9.8134863,7.1352222 10.1875,7 c 0.374004,-0.1400327 0.784761,-0.2187409 1.25,-0.21875 0.241731,9.3e-6 0.486128,0.019047 0.71875,0.0625 0.23717,0.038641 0.473122,0.110244 0.6875,0.1875 0.218925,0.072444 0.433426,0.1485987 0.625,0.25 0.191557,0.1014186 0.340352,0.2278611 0.5,0.34375 l 0.1875,1.25 L 15,8.875 15,6.75 C 14.74457,6.6727445 14.250851,6.509946 14,6.4375 13.749131,6.3602448 13.47028,6.276708 13.1875,6.21875 12.904705,6.1608111 12.609642,6.127563 12.28125,6.09375 11.957406,6.059957 11.61556,6.0312599 11.21875,6.03125 z M 7.9375,8.3125 C 7.8793538,8.4785326 7.7652915,8.6041636 7.71875,8.78125 a 0.93431046,0.93431046 0 0 0 0,0.03125 c -0.1675073,0.6521766 -0.2500031,1.397142 -0.25,2.28125 -3.1e-6,0.607874 0.059753,1.162474 0.15625,1.65625 0.061803,0.316275 0.1774534,0.600485 0.28125,0.90625 C 7.7220641,13.413421 7.5134692,13.217079 7.375,12.875 7.1790491,12.381791 7.0624994,11.817633 7.0625,11.125 7.0624994,10.35319 7.1614709,9.6736834 7.34375,9.1875 7.4810273,8.8185572 7.71278,8.5795554 7.9375,8.3125 z m 6.0625,3.625 0.15625,0 a 0.93431046,0.93431046 0 0 0 -0.03125,0.25 l 0,2.46875 c -0.03282,0.0085 -0.05946,-0.0087 -0.09375,0 l 0,-2.46875 A 0.93431046,0.93431046 0 0 0 14,11.9375 z"
       id="path5479" />
    <path
       inkscape:connector-curvature="0"
       style="color:#000000;fill:url(#radialGradient3849);fill-opacity:1;fill-rule:nonzero;stroke:none;stroke-width:1;marker:none;visibility:visible;display:inline;overflow:visible;enable-background:accumulate"
       d="M 6,3 C 4.892,3 4,3.892 4,5 l 0,12 c 0,1.108 0.892,2 2,2 l 10,0 c 1.108,0 2,-0.892 2,-2 L 18,5 C 18,3.892 17.108,3 16,3 L 6,3 z m 5.21875,3.03125 c 0.39681,9.9e-6 0.738656,0.028707 1.0625,0.0625 0.328392,0.033813 0.623455,0.067061 0.90625,0.125 0.28278,0.057958 0.561631,0.1414948 0.8125,0.21875 0.250851,0.072446 0.74457,0.2352445 1,0.3125 l 0,2.125 -0.84375,0 -0.1875,-1.25 c -0.159648,-0.1158889 -0.308443,-0.2423314 -0.5,-0.34375 -0.191574,-0.1014013 -0.406075,-0.1775555 -0.625,-0.25 C 12.629372,6.953994 12.39342,6.8823914 12.15625,6.84375 11.923628,6.8002973 11.679231,6.7812593 11.4375,6.78125 10.972261,6.7812591 10.561504,6.8599673 10.1875,7 9.8134863,7.1352222 9.4878505,7.385554 9.21875,7.71875 8.954203,8.0471333 8.7709517,8.4759166 8.625,9.03125 c -0.141397,0.5505181 -0.2187529,1.236738 -0.21875,2.0625 -2.9e-6,0.560174 0.042897,1.048627 0.125,1.46875 0.082097,0.42013 0.1711029,0.784693 0.3125,1.09375 0.1413904,0.309061 0.3084303,0.573603 0.5,0.78125 0.196123,0.202822 0.4060633,0.348025 0.625,0.46875 0.223489,0.120727 0.477006,0.228132 0.71875,0.28125 0.241732,0.04829 0.481567,0.0625 0.71875,0.0625 0.259976,0 0.5167,-0.01904 0.78125,-0.0625 0.264536,-0.04829 0.687311,-0.110234 0.90625,-0.1875 l 0,-2.8125 L 12,12 l 0,-1 3.96875,0 0,1 -0.90625,0.1875 0,3.15625 c -0.264553,0.09175 -0.546609,0.167906 -0.875,0.25 -0.323846,0.07726 -0.680054,0.160801 -1.03125,0.21875 -0.351212,0.05795 -0.706742,0.0912 -1.0625,0.125 C 11.737978,15.9713 11.390892,16 11.0625,16 10.337281,16 9.6691213,15.895149 9.0625,15.6875 8.4558714,15.475017 7.9378626,15.16047 7.5,14.75 7.0666944,14.334703 6.7462977,13.827212 6.5,13.21875 6.2582611,12.610293 6.1249993,11.921797 6.125,11.125 6.1249993,10.275093 6.2315722,9.5076119 6.46875,8.875 6.7059256,8.237573 7.0621334,7.7326354 7.5,7.3125 7.9424237,6.8875525 8.468877,6.5514085 9.09375,6.34375 c 0.6294262,-0.2124685 1.349608,-0.3124901 2.125,-0.3125 z"
       id="rect2969" />
    <path
       inkscape:connector-curvature="0"
       style="opacity:0.3;color:#000000;fill:#000000;fill-opacity:1;fill-rule:nonzero;stroke:none;stroke-width:1;marker:none;visibility:visible;display:inline;overflow:visible;enable-background:accumulate"
       d="M 6,3 C 4.892,3 4,3.892 4,5 L 4,6 C 4,4.892 4.892,4 6,4 l 10,0 c 1.108,0 2,0.892 2,2 L 18,5 C 18,3.892 17.108,3 16,3 L 6,3 z m 5.21875,4.03125 C 10.771189,7.0312557 10.341437,7.0559618 9.9375,7.125 9.6680195,7.2685279 9.4253028,7.4629996 9.21875,7.71875 8.954203,8.0471333 8.7709517,8.4759166 8.625,9.03125 8.483603,9.5817681 8.4062471,10.267988 8.40625,11.09375 8.4062489,11.306724 8.425301,11.495074 8.4375,11.6875 8.460054,11.052238 8.509163,10.482251 8.625,10.03125 8.7709517,9.4759166 8.954203,9.0471333 9.21875,8.71875 9.4878505,8.385554 9.8134863,8.1352222 10.1875,8 c 0.374004,-0.1400327 0.784761,-0.2187409 1.25,-0.21875 0.241731,9.3e-6 0.486128,0.019047 0.71875,0.0625 0.23717,0.038641 0.473122,0.110244 0.6875,0.1875 0.218925,0.072444 0.433426,0.1485987 0.625,0.25 0.191557,0.1014186 0.340352,0.2278611 0.5,0.34375 l 0.1875,1.25 0.84375,0 0,-1 -0.84375,0 -0.1875,-1.25 C 13.820536,7.5174108 13.672407,7.4098134 13.5,7.3125 13.48743,7.30918 13.48137,7.284515 13.46875,7.28125 13.3739,7.256714 13.28423,7.238576 13.1875,7.21875 12.904705,7.160811 12.609642,7.127563 12.28125,7.09375 11.957406,7.059957 11.61556,7.03126 11.21875,7.03125 z M 6.15625,11.6875 C 6.14925,11.834374 6.125,11.972517 6.125,12.125 c -7e-7,0.796797 0.1332611,1.485293 0.375,2.09375 0.2462977,0.608462 0.5666944,1.115953 1,1.53125 0.4378626,0.41047 0.9558714,0.725017 1.5625,0.9375 0.6066213,0.207649 1.274781,0.3125 2,0.3125 0.328392,0 0.675478,-0.0287 1.03125,-0.0625 0.355758,-0.0338 0.711288,-0.06705 1.0625,-0.125 0.351196,-0.05795 0.707404,-0.14149 1.03125,-0.21875 0.328391,-0.08209 0.610447,-0.15825 0.875,-0.25 l 0,-1 c -0.264553,0.09175 -0.546609,0.167906 -0.875,0.25 -0.323846,0.07726 -0.680054,0.160801 -1.03125,0.21875 -0.02038,0.0034 -0.04209,-0.0032 -0.0625,0 l 0,0.1875 c -0.218939,0.07727 -0.641714,0.13921 -0.90625,0.1875 -0.26455,0.04346 -0.521274,0.0625 -0.78125,0.0625 -0.237183,0 -0.477018,-0.01421 -0.71875,-0.0625 C 10.445756,16.13438 10.192239,16.026977 9.96875,15.90625 9.95626,15.89935 9.94993,15.88205 9.9375,15.875 9.6396517,15.823368 9.3357799,15.781045 9.0625,15.6875 8.4558714,15.475017 7.9378626,15.16047 7.5,14.75 7.0666944,14.334703 6.7462977,13.827212 6.5,13.21875 6.3186958,12.762407 6.2050611,12.24581 6.15625,11.6875 z M 12,12 l 0,1 1.09375,0.1875 0,-1 L 12,12 z m 3.96875,0 -0.90625,0.1875 0,1 0.90625,-0.1875 0,-1 z"
       id="path3762" />
    <path
       inkscape:connector-curvature="0"
       style="opacity:0.2;color:#000000;fill:#ffffff;fill-opacity:1;fill-rule:nonzero;stroke:none;stroke-width:1;marker:none;visibility:visible;display:inline;overflow:visible;enable-background:accumulate"
       d="m 11.21875,6.03125 c -0.775392,9.9e-6 -1.4955738,0.1000315 -2.125,0.3125 C 8.468877,6.5514085 7.9424237,6.8875525 7.5,7.3125 7.0621334,7.7326354 6.7059256,8.237573 6.46875,8.875 6.2315722,9.507612 6.1249993,10.275093 6.125,11.125 c -2e-7,0.199199 0.01498,0.376397 0.03125,0.5625 C 6.1882644,11.015732 6.2741247,10.394114 6.46875,9.875 6.7059256,9.237573 7.0621334,8.7326354 7.5,8.3125 7.9424237,7.8875525 8.468877,7.5514085 9.09375,7.34375 9.3598677,7.2539196 9.6416227,7.1755694 9.9375,7.125 10.019103,7.0815373 10.100567,7.03143 10.1875,7 c 0.374004,-0.1400327 0.784761,-0.2187409 1.25,-0.21875 0.241731,9.3e-6 0.486128,0.019047 0.71875,0.0625 0.23717,0.038641 0.473122,0.110244 0.6875,0.1875 0.218925,0.072444 0.433426,0.1485987 0.625,0.25 0.01262,0.00326 0.01868,0.027927 0.03125,0.03125 0.1691,0.044706 0.346364,0.077688 0.5,0.125 0.250851,0.072446 0.74457,0.2352445 1,0.3125 l 0,-1 C 14.74457,6.6727445 14.250851,6.509946 14,6.4375 13.749131,6.3602448 13.47028,6.276708 13.1875,6.21875 12.904705,6.160811 12.609642,6.127563 12.28125,6.09375 11.957406,6.059957 11.61556,6.0312599 11.21875,6.03125 z M 12,11 l 0,1 3.96875,0 0,-1 L 12,11 z m -3.5625,0.6875 c -0.00498,0.140175 -0.031251,0.256978 -0.03125,0.40625 -2.9e-6,0.560174 0.042897,1.048627 0.125,1.46875 0.082097,0.42013 0.1711029,0.784693 0.3125,1.09375 0.1413904,0.309061 0.3084303,0.573603 0.5,0.78125 0.1849348,0.191252 0.3882857,0.320927 0.59375,0.4375 0.01243,0.0071 0.01876,0.02436 0.03125,0.03125 C 10.320809,15.965 10.677631,16 11.0625,16 c 0.328392,0 0.675478,-0.0287 1.03125,-0.0625 0.335117,-0.03184 0.668706,-0.07303 1,-0.125 l 0,-0.8125 c -0.218939,0.07727 -0.641714,0.13921 -0.90625,0.1875 -0.26455,0.04346 -0.521274,0.0625 -0.78125,0.0625 -0.237183,0 -0.477018,-0.01421 -0.71875,-0.0625 C 10.445756,15.134382 10.192239,15.026977 9.96875,14.90625 9.7498133,14.785525 9.539873,14.640322 9.34375,14.4375 9.1521803,14.229853 8.9851404,13.965311 8.84375,13.65625 8.7023529,13.347193 8.613347,12.98263 8.53125,12.5625 8.4803619,12.302104 8.4573865,12.001203 8.4375,11.6875 z M 4,17 4,18 c 0,1.108 0.892,2 2,2 l 10,0 c 1.108,0 2,-0.892 2,-2 l 0,-1 c 0,1.108 -0.892,2 -2,2 L 6,19 C 4.892,19 4,18.108 4,17 z"
       id="path3771" />
    <path
       style="color:#000000;fill:#000000;fill-opacity:1;fill-rule:nonzero;stroke:none;stroke-width:1;marker:none;visibility:visible;display:inline;overflow:visible;enable-background:accumulate;opacity:0.3"
       d="M 6 3 C 4.892 3 4 3.892 4 5 L 4 17 C 4 18.108 4.892 19 6 19 L 16 19 C 17.108 19 18 18.108 18 17 L 18 5 C 18 3.892 17.108 3 16 3 L 6 3 z M 6 3.46875 L 16 3.46875 C 16.864353 3.46875 17.53125 4.1356474 17.53125 5 L 17.53125 17 C 17.53125 17.864353 16.864353 18.53125 16 18.53125 L 6 18.53125 C 5.1356474 18.53125 4.46875 17.864353 4.46875 17 L 4.46875 5 C 4.46875 4.1356474 5.1356474 3.46875 6 3.46875 z M 11.21875 5.5625 C 10.404322 5.5625104 9.6254431 5.6740286 8.9375 5.90625 C 8.2459082 6.1360806 7.6734232 6.5332713 7.1875 7 C 6.7072671 7.4607861 6.292907 8.0155273 6.03125 8.71875 C 5.7673949 9.422517 5.6562493 10.237143 5.65625 11.125 C 5.6562493 11.972414 5.798511 12.710539 6.0625 13.375 A 0.45401625 0.45401625 0 0 0 6.09375 13.375 C 6.3584839 14.029007 6.7015219 14.59672 7.1875 15.0625 A 0.45401625 0.45401625 0 0 0 7.1875 15.09375 C 7.6712736 15.547259 8.2437977 15.892964 8.90625 16.125 C 9.5652048 16.350563 10.293525 16.46875 11.0625 16.46875 C 11.417342 16.46875 11.76564 16.409141 12.125 16.375 C 12.480315 16.341242 12.846504 16.311421 13.21875 16.25 C 13.590445 16.188669 13.956166 16.108805 14.28125 16.03125 A 0.45401625 0.45401625 0 0 0 14.3125 16.03125 C 14.645641 15.947968 14.933295 15.880249 15.21875 15.78125 A 0.45401625 0.45401625 0 0 0 15.53125 15.34375 L 15.53125 12.5625 L 16.0625 12.4375 A 0.45401625 0.45401625 0 0 0 16.4375 12 L 16.4375 11 A 0.45401625 0.45401625 0 0 0 15.96875 10.53125 L 12 10.53125 A 0.45401625 0.45401625 0 0 0 11.53125 11 L 11.53125 12 A 0.45401625 0.45401625 0 0 0 11.9375 12.4375 L 12.625 12.5625 L 12.625 14.625 C 12.452773 14.660154 12.298811 14.718411 12.125 14.75 C 12.114623 14.751705 12.104097 14.748378 12.09375 14.75 C 11.865675 14.785754 11.633741 14.78125 11.40625 14.78125 C 11.187199 14.78125 10.983194 14.790342 10.78125 14.75 C 10.599811 14.710133 10.383741 14.606008 10.1875 14.5 C 10.003413 14.398492 9.8407815 14.279302 9.6875 14.125 C 9.5370504 13.961924 9.3758886 13.743926 9.25 13.46875 C 9.1348083 13.216971 9.0484827 12.876781 8.96875 12.46875 C 8.8936415 12.084418 8.8749972 11.630745 8.875 11.09375 C 8.8749972 10.29634 8.933791 9.6573685 9.0625 9.15625 C 9.1993089 8.6357043 9.3548173 8.2577973 9.5625 8 C 9.788957 7.7196045 10.058977 7.5404577 10.34375 7.4375 C 10.667848 7.3161528 11.023457 7.2500081 11.4375 7.25 C 11.655407 7.2500084 11.862767 7.2439409 12.0625 7.28125 A 0.45401625 0.45401625 0 0 0 12.09375 7.28125 C 12.290236 7.3132629 12.488906 7.3971823 12.6875 7.46875 C 12.900305 7.5391694 13.099199 7.6076799 13.25 7.6875 C 13.349023 7.7399268 13.453084 7.8244351 13.5625 7.90625 L 13.71875 8.9375 A 0.45401625 0.45401625 0 0 0 14.15625 9.34375 L 15 9.34375 A 0.45401625 0.45401625 0 0 0 15.46875 8.875 L 15.46875 6.75 A 0.45401625 0.45401625 0 0 0 15.125 6.3125 C 14.883568 6.2394783 14.397475 6.0786911 14.125 6 C 13.871672 5.9219874 13.590577 5.8446491 13.28125 5.78125 C 12.980924 5.7197192 12.662954 5.6892866 12.34375 5.65625 C 12.33329 5.6551674 12.323002 5.6573314 12.3125 5.65625 C 11.989702 5.6229718 11.625891 5.5625102 11.21875 5.5625 z M 11.21875 6.03125 C 11.61556 6.0312599 11.957406 6.059957 12.28125 6.09375 C 12.609642 6.127563 12.904705 6.160811 13.1875 6.21875 C 13.47028 6.276708 13.749131 6.3602448 14 6.4375 C 14.250851 6.509946 14.74457 6.6727445 15 6.75 L 15 8.875 L 14.15625 8.875 L 13.96875 7.625 C 13.809102 7.5091111 13.660307 7.3826686 13.46875 7.28125 C 13.277176 7.1798487 13.062675 7.1036945 12.84375 7.03125 C 12.629372 6.953994 12.39342 6.8823914 12.15625 6.84375 C 11.923628 6.8002973 11.679231 6.7812593 11.4375 6.78125 C 10.972261 6.7812591 10.561504 6.8599673 10.1875 7 C 9.8134863 7.1352222 9.4878505 7.385554 9.21875 7.71875 C 8.954203 8.0471333 8.7709517 8.4759166 8.625 9.03125 C 8.483603 9.5817681 8.4062471 10.267988 8.40625 11.09375 C 8.4062471 11.653924 8.449147 12.142377 8.53125 12.5625 C 8.613347 12.98263 8.7023529 13.347193 8.84375 13.65625 C 8.9851404 13.965311 9.1521803 14.229853 9.34375 14.4375 C 9.539873 14.640322 9.7498133 14.785525 9.96875 14.90625 C 10.192239 15.026977 10.445756 15.134382 10.6875 15.1875 C 10.929232 15.23579 11.169067 15.25 11.40625 15.25 C 11.666226 15.25 11.92295 15.23096 12.1875 15.1875 C 12.452036 15.13921 12.874811 15.077266 13.09375 15 L 13.09375 12.1875 L 12 12 L 12 11 L 15.96875 11 L 15.96875 12 L 15.0625 12.1875 L 15.0625 15.34375 C 14.797947 15.4355 14.515891 15.511656 14.1875 15.59375 C 13.863654 15.67101 13.507446 15.754551 13.15625 15.8125 C 12.805038 15.87045 12.449508 15.9037 12.09375 15.9375 C 11.737978 15.9713 11.390892 16 11.0625 16 C 10.337281 16 9.6691213 15.895149 9.0625 15.6875 C 8.4558714 15.475017 7.9378626 15.16047 7.5 14.75 C 7.0666944 14.334703 6.7462977 13.827212 6.5 13.21875 C 6.2582611 12.610293 6.1249993 11.921797 6.125 11.125 C 6.1249993 10.275093 6.2315722 9.5076119 6.46875 8.875 C 6.7059256 8.237573 7.0621334 7.7326354 7.5 7.3125 C 7.9424237 6.8875525 8.468877 6.5514085 9.09375 6.34375 C 9.7231762 6.1312815 10.443358 6.0312599 11.21875 6.03125 z "
       id="path3851" />
  </g>
</svg>
