<?xml version="1.0" encoding="UTF-8" standalone="no"?>
<!-- Created with Inkscape (http://www.inkscape.org/) -->

<svg
   xmlns:dc="http://purl.org/dc/elements/1.1/"
   xmlns:cc="http://creativecommons.org/ns#"
   xmlns:rdf="http://www.w3.org/1999/02/22-rdf-syntax-ns#"
   xmlns:svg="http://www.w3.org/2000/svg"
   xmlns="http://www.w3.org/2000/svg"
   xmlns:xlink="http://www.w3.org/1999/xlink"
   xmlns:sodipodi="http://sodipodi.sourceforge.net/DTD/sodipodi-0.dtd"
   xmlns:inkscape="http://www.inkscape.org/namespaces/inkscape"
   width="22"
   height="22"
   id="svg2"
   sodipodi:version="0.32"
   inkscape:version="0.48.1 r9760"
   version="1.0"
   sodipodi:docname="gtg-panel.svg"
   inkscape:output_extension="org.inkscape.output.svg.inkscape"
   inkscape:export-filename="/home/matt/.icons/Sirocco/scalable/mimetypes/text-plain.png"
   inkscape:export-xdpi="90"
   inkscape:export-ydpi="90"
   sodipodi:modified="true"
   style="display:inline">
  <sodipodi:namedview
     id="base"
     pagecolor="#838383"
     bordercolor="#cc0000"
     borderopacity="1"
     inkscape:pageopacity="1"
     inkscape:pageshadow="2"
     inkscape:zoom="22.027846"
     inkscape:cx="7.6144185"
     inkscape:cy="6.1235775"
     inkscape:document-units="px"
     inkscape:current-layer="layer1"
     width="128px"
     height="128px"
     inkscape:showpageshadow="false"
     inkscape:window-width="1920"
     inkscape:window-height="1030"
     inkscape:window-x="0"
     inkscape:window-y="25"
     showguides="true"
     inkscape:guide-bbox="true"
     showgrid="true"
     inkscape:window-maximized="1"
     borderlayer="true"
     inkscape:snap-global="true">
    <inkscape:grid
       enabled="true"
       visible="true"
       id="grid3231"
       type="xygrid"
       empspacing="8"
       snapvisiblegridlinesonly="true" />
    <sodipodi:guide
       orientation="1,0"
       position="12,17"
       id="guide3791" />
    <sodipodi:guide
       orientation="0,1"
       position="14,9"
       id="guide3793" />
  </sodipodi:namedview>
  <defs
     id="defs4">
    <linearGradient
       id="StandardGradient"
       gradientTransform="scale(0.9219544,1.0846523)"
       x1="11.998966"
       y1="0.92195445"
       x2="11.998966"
       y2="19.387045"
       gradientUnits="userSpaceOnUse">
      <stop
         style="stop-color:#000000;stop-opacity:0.23529412;"
         offset="0"
         id="stop3283" />
      <stop
         id="stop3850"
         offset="0.69999999"
         style="stop-color:#000000;stop-opacity:0.39215686;" />
      <stop
         style="stop-color:#000000;stop-opacity:0.55;"
         offset="1"
         id="stop2651" />
    </linearGradient>
    <radialGradient
       inkscape:collect="always"
       xlink:href="#SpecificGradient"
       id="radialGradient3855"
       gradientUnits="userSpaceOnUse"
       cx="36"
       cy="2"
       fx="36"
       fy="2"
       r="4"
       gradientTransform="translate(0,10)" />
    <linearGradient
       id="SpecificGradient"
       x1="10.406627"
       y1="2"
       x2="10.406627"
       y2="18.000771"
       gradientUnits="userSpaceOnUse">
      <stop
         style="stop-color:#e64b36;stop-opacity:1;"
         offset="0"
         id="stop3292" />
      <stop
         style="stop-color:#a31414;stop-opacity:1;"
         offset="1"
         id="stop3294" />
    </linearGradient>
    <radialGradient
       r="4"
       fy="2"
       fx="36"
       cy="2"
       cx="36"
       gradientUnits="userSpaceOnUse"
       id="radialGradient3038"
       xlink:href="#StandardGradient"
       inkscape:collect="always" />
    <filter
       inkscape:collect="always"
       id="filter3866">
      <feGaussianBlur
         inkscape:collect="always"
         stdDeviation="0.4"
         id="feGaussianBlur3868" />
    </filter>
    <filter
       inkscape:collect="always"
       id="filter3878">
      <feGaussianBlur
         inkscape:collect="always"
         stdDeviation="0.56"
         id="feGaussianBlur3880" />
    </filter>
    <filter
       inkscape:collect="always"
       id="filter5498">
      <feGaussianBlur
         inkscape:collect="always"
         stdDeviation="0.4"
         id="feGaussianBlur5500" />
    </filter>
    <radialGradient
       inkscape:collect="always"
       xlink:href="#StandardGradient"
       id="radialGradient3849"
       cx="12"
       cy="12.750001"
       fx="12"
       fy="12.750001"
       r="7"
       gradientTransform="matrix(2.2857143,0,0,1.4285715,-15.428571,-5.2142875)"
       gradientUnits="userSpaceOnUse" />
    <radialGradient
       inkscape:collect="always"
       xlink:href="#StandardGradient"
       id="radialGradient3905"
       cx="12"
       cy="12.555555"
       fx="12"
       fy="12.555555"
       r="7"
       gradientTransform="matrix(2.2857143,0,0,1.5714286,-15.428571,-6.7301585)"
       gradientUnits="userSpaceOnUse" />
    <radialGradient
       inkscape:collect="always"
       xlink:href="#StandardGradient"
       id="radialGradient3919"
       gradientUnits="userSpaceOnUse"
       gradientTransform="matrix(2.2857143,0,0,1.5714286,-15.428571,-6.7301585)"
       cx="12"
       cy="12.555555"
       fx="12"
       fy="12.555555"
       r="7" />
    <radialGradient
       inkscape:collect="always"
       xlink:href="#StandardGradient"
       id="radialGradient3923"
       gradientUnits="userSpaceOnUse"
       gradientTransform="matrix(2.2857143,0,0,1.5714286,-15.428571,-6.7301585)"
       cx="12"
       cy="12.555555"
       fx="12"
       fy="12.555555"
       r="7" />
    <radialGradient
       inkscape:collect="always"
       xlink:href="#StandardGradient"
       id="radialGradient3925"
       gradientUnits="userSpaceOnUse"
       gradientTransform="matrix(2.2857143,0,0,1.5714286,-15.428571,-6.7301585)"
       cx="12"
       cy="12.555555"
       fx="12"
       fy="12.555555"
       r="7" />
  </defs>
  <metadata
     id="metadata7">
    <rdf:RDF>
      <cc:Work
         rdf:about="">
        <dc:format>image/svg+xml</dc:format>
        <dc:type
           rdf:resource="http://purl.org/dc/dcmitype/StillImage" />
        <dc:title></dc:title>
      </cc:Work>
    </rdf:RDF>
  </metadata>
  <g
     style="display:inline"
     inkscape:label="Calque 1"
     id="layer1"
     inkscape:groupmode="layer">
    <rect
       style="opacity:0.5;color:#000000;fill:#ff00ff;fill-opacity:1;fill-rule:nonzero;stroke:none;stroke-width:2;marker:none;visibility:visible;display:inline;overflow:visible;enable-background:accumulate"
       id="rect3047"
       width="22"
       height="22"
       x="-30"
       y="0" />
    <rect
       style="color:#000000;fill:url(#radialGradient3038);fill-opacity:1;fill-rule:nonzero;stroke:none;stroke-width:2;marker:none;visibility:visible;display:inline;overflow:visible;enable-background:accumulate"
       id="rect3841"
       width="8"
       height="8"
       x="32"
       y="-2" />
    <rect
       y="8"
       x="32"
       height="8"
       width="8"
       id="rect3853"
       style="color:#000000;fill:url(#radialGradient3855);fill-opacity:1;fill-rule:nonzero;stroke:none;stroke-width:2;marker:none;visibility:visible;display:inline;overflow:visible;enable-background:accumulate" />
    <text
       xml:space="preserve"
       style="font-size:1px;font-style:normal;font-variant:normal;font-weight:normal;font-stretch:normal;text-align:start;line-height:125%;letter-spacing:0px;word-spacing:0px;writing-mode:lr-tb;text-anchor:start;fill:#000000;fill-opacity:1;stroke:none;font-family:Trebuchet MS;-inkscape-font-specification:Trebuchet MS"
       x="34"
       y="19"
       id="text3977"
       sodipodi:linespacing="125%"><tspan
         sodipodi:role="line"
         x="34"
         y="19"
         id="tspan3805">-0.875px /blur 5 / opacity 40</tspan></text>
    <rect
       style="color:#000000;fill:#000000;fill-opacity:1;fill-rule:nonzero;stroke:none;stroke-width:2;marker:none;visibility:visible;display:inline;overflow:visible;enable-background:accumulate"
       id="rect3981"
       width="1"
       height="1"
       x="32"
       y="18" />
    <text
       sodipodi:linespacing="125%"
       id="text3983"
       y="21"
       x="34"
       style="font-size:1px;font-style:normal;font-variant:normal;font-weight:normal;font-stretch:normal;text-align:start;line-height:125%;letter-spacing:0px;word-spacing:0px;writing-mode:lr-tb;text-anchor:start;fill:#000000;fill-opacity:1;stroke:none;font-family:Trebuchet MS;-inkscape-font-specification:Trebuchet MS"
       xml:space="preserve"><tspan
         y="21"
         x="34"
         id="tspan3985"
         sodipodi:role="line">0px /blur 7 / opacity 15</tspan></text>
    <rect
       y="20"
       x="32"
       height="1"
       width="1"
       id="rect3987"
       style="color:#000000;fill:#ffffff;fill-opacity:1;fill-rule:nonzero;stroke:none;stroke-width:2;marker:none;visibility:visible;display:inline;overflow:visible;enable-background:accumulate" />
    <text
       xml:space="preserve"
       style="font-size:1px;font-style:normal;font-variant:normal;font-weight:normal;font-stretch:normal;text-align:start;line-height:125%;letter-spacing:0px;word-spacing:0px;writing-mode:lr-tb;text-anchor:start;fill:#000000;fill-opacity:1;stroke:none;font-family:Trebuchet MS;-inkscape-font-specification:Trebuchet MS"
       x="34"
       y="23"
       id="text3989"
       sodipodi:linespacing="125%"><tspan
         sodipodi:role="line"
         x="34"
         y="23"
         id="tspan3995">-0.5px /blur 3 / opacity 30</tspan></text>
    <rect
       style="color:#000000;fill:#ffffff;fill-opacity:1;fill-rule:nonzero;stroke:none;stroke-width:2;marker:none;visibility:visible;display:inline;overflow:visible;enable-background:accumulate"
       id="rect3993"
       width="1"
       height="1"
       x="32"
       y="22" />
    <path
       inkscape:connector-curvature="0"
       style="opacity:0.05;fill:#ffffff;fill-opacity:1;stroke:none;display:inline"
       d="m 7.8125,1.0312503 a 0.98398201,0.98398201 0 0 0 -0.78125,0.96875 l 0,0.03125 -0.03125,0 a 0.98398201,0.98398201 0 0 0 -0.96875,0.96875 l 0,0.03125 -0.53125,0 c -1.3590531,0 -2.46875,1.1096969 -2.46875,2.46875 l 0,12.9999996 c 0,1.359053 1.1096969,2.46875 2.46875,2.46875 l 11,0 c 1.359053,0 2.46875,-1.109697 2.46875,-2.46875 l 0,-0.5 0,-12.4999996 c 0,-1.3590531 -1.109697,-2.46875 -2.46875,-2.46875 l -0.53125,0 0,-0.03125 A 0.98398201,0.98398201 0 0 0 15,2.0312504 l -0.03125,0 0,-0.03125 A 0.98398201,0.98398201 0 0 0 14,1.0312503 l -6,0 a 0.98398201,0.98398201 0 0 0 -0.1875,0 z M 8,2.0000003 l 6,0 0,1.0000001 1,0 0,1 1.5,0 c 0.831,0 1.5,0.669 1.5,1.5 L 18,18 l 0,0.5 c 0,0.831 -0.669,1.5 -1.5,1.5 l -11,0 C 4.669,20 4,19.331 4,18.5 L 4,5.5000004 c 0,-0.831 0.669,-1.5 1.5,-1.5 l 1.5,0 0,-1 1,0 0,-1.0000001 z m 1,2.0312501 0,2 4.03125,0 -0.03125,-2 -4,0 z m 0.96875,0.96875 2.0625,0 0.03125,0.0625 -2.09375,0 0,-0.0625 z m -2.96875,2 c -0.554,0 -1,0.446 -1,1 L 6,17 c 0,0.554 0.446,1 1,1 l 8,0 c 0.554,0 1,-0.446 1,-1 l 0,-8.9999996 c 0,-0.554 -0.446,-1 -1,-1 l -8,0 z m 0,0.96875 8,0 c 0.02595,0 0.03125,0.0053 0.03125,0.03125 l 0,8.9999996 c 0,0.02595 -0.0053,0.03125 -0.03125,0.03125 l -8,0 C 6.974053,17.03125 6.96875,17.02595 6.96875,17 l 0,-8.9999996 c 0,-0.025947 0.0053,-0.03125 0.03125,-0.03125 z m 6.96875,1.03125 a 0.98398201,0.98398201 0 0 0 -0.1875,0.03125 0.98398201,0.98398201 0 0 0 -0.46875,0.28125 L 10,12.625 8.6875,11.3125 A 0.98398201,0.98398201 0 0 0 7.03125,12 l 0,2 a 0.98398201,0.98398201 0 0 0 0.28125,0.6875 l 2,2 a 0.98398201,0.98398201 0 0 0 1.375,0 l 4,-4 A 0.98398201,0.98398201 0 0 0 14.96875,12 l 0,-2 a 0.98398201,0.98398201 0 0 0 -1,-0.9999996 z M 14,10 l 0,2 -4,4 -2,-2 0,-2 2,2 4,-4 z"
       id="path5322" />
    <path
       inkscape:connector-curvature="0"
       style="fill:url(#radialGradient3905);fill-opacity:1;stroke:none;display:inline"
       d="m 8,2.0000003 0,1.0000001 -1,0 0,1 -1.5,0 c -0.831,0 -1.5,0.669 -1.5,1.5 L 4,18.5 C 4,19.331 4.669,20 5.5,20 l 11,0 C 17.331,20 18,19.331 18,18.5 L 18,18 18,5.5000004 c 0,-0.831 -0.669,-1.5 -1.5,-1.5 l -1.5,0 0,-1 -1,0 0,-1.0000001 -6,0 z m 1,2.0312501 4,0 0.03125,2 -4.03125,0 0,-2 z m -2,2.96875 8,0 c 0.554,0 1,0.446 1,1 L 16,17 c 0,0.554 -0.446,1 -1,1 L 7,18 C 6.446,18 6,17.554 6,17 L 6,8.0000004 c 0,-0.554 0.446,-1 1,-1 z M 14,10 l -4,4 -2,-2 0,2 2,2 4,-4 0,-2 z"
       id="Symbol" />
    <path
       inkscape:connector-curvature="0"
       style="opacity:0.3;fill:#000000;fill-opacity:1;stroke:none;display:inline"
       d="m 8,2.0000003 0,1.0000001 6,0 0,-1.0000001 -6,0 z m 6,1.0000001 0,1 1,0 0,-1 -1,0 z m 1,1 0,1 1.5,0 c 0.831,0 1.5,0.669 1.5,1.5 l 0,-1 c 0,-0.831 -0.669,-1.5 -1.5,-1.5 l -1.5,0 z m -7,-1 -1,0 0,1 1,0 0,-1 z m -1,1 -1.5,0 c -0.831,0 -1.5,0.669 -1.5,1.5 l 0,1 c 0,-0.831 0.669,-1.5 1.5,-1.5 l 1.5,0 0,-1 z m 2,2.03125 0,0.96875 4.03125,0 0,-0.96875 -0.03125,0 -4,0 z M 14,10 l -4,4 -2,-2 0,1 2,2 4,-4 0,-1 z m -8,7 0,1 c 0,0.554 0.446,1 1,1 l 8,0 c 0.554,0 1,-0.446 1,-1 l 0,-1 c 0,0.554 -0.446,1 -1,1 L 7,18 C 6.446,18 6,17.554 6,17 z"
       id="path2897" />
    <path
       inkscape:connector-curvature="0"
       style="opacity:0.2;fill:#ffffff;fill-opacity:1;stroke:none;display:inline"
       d="m 9,4.0312504 0,1 4,0 0,-1 -4,0 z m 4,1 0,1 0.03125,0 -0.03125,-1 z m -6,1.96875 c -0.554,0 -1,0.446 -1,1 l 0,1 c 0,-0.554 0.446,-1 1,-1 l 8,0 c 0.554,0 1,0.446 1,1 l 0,-1 c 0,-0.554 -0.446,-1 -1,-1 l -1.96875,0 0,0.03125 -4.03125,0 0,-0.03125 -2,0 z M 14,12 l -4,4 -2,-2 0,1 2,2 4,-4 0,-1 z m -10,6.5 0,1 C 4,20.331 4.669,21 5.5,21 l 11,0 c 0.831,0 1.5,-0.669 1.5,-1.5 l 0,-0.5 0,-0.5 c 0,0.831 -0.669,1.5 -1.5,1.5 l -11,0 C 4.669,20 4,19.331 4,18.5 z"
       id="path3678" />
    <path
       style="fill:#000000;fill-opacity:1;stroke:none;display:inline;opacity:0.3"
       d="M 8 2 L 8 3 L 7 3 L 7 4 L 5.5 4 C 4.669 4 4 4.669 4 5.5 L 4 18.5 C 4 19.331 4.669 20 5.5 20 L 16.5 20 C 17.331 20 18 19.331 18 18.5 L 18 18 L 18 5.5 C 18 4.669 17.331 4 16.5 4 L 15 4 L 15 3 L 14 3 L 14 2 L 8 2 z M 8.46875 2.46875 L 13.53125 2.46875 L 13.53125 3 A 0.45401625 0.45401625 0 0 0 14 3.46875 L 14.53125 3.46875 L 14.53125 4 A 0.45401625 0.45401625 0 0 0 15 4.46875 L 16.5 4.46875 C 17.087353 4.46875 17.53125 4.9126474 17.53125 5.5 L 17.53125 18 L 17.53125 18.5 C 17.53125 19.087353 17.087353 19.53125 16.5 19.53125 L 5.5 19.53125 C 4.9126474 19.53125 4.46875 19.087353 4.46875 18.5 L 4.46875 5.5 C 4.46875 4.9126474 4.9126474 4.46875 5.5 4.46875 L 7 4.46875 A 0.45401625 0.45401625 0 0 0 7.46875 4 L 7.46875 3.46875 L 8 3.46875 A 0.45401625 0.45401625 0 0 0 8.46875 3 L 8.46875 2.46875 z M 8.90625 3.5625 A 0.45401625 0.45401625 0 0 0 8.53125 4.03125 L 8.53125 6.03125 A 0.45401625 0.45401625 0 0 0 9 6.5 L 13.03125 6.5 A 0.45401625 0.45401625 0 0 0 13.5 6.03125 L 13.46875 4.03125 A 0.45401625 0.45401625 0 0 0 13 3.5625 L 9 3.5625 A 0.45401625 0.45401625 0 0 0 8.90625 3.5625 z M 9 4.03125 L 13 4.03125 L 13.03125 6.03125 L 9 6.03125 L 9 4.03125 z M 7 6.53125 C 6.2023526 6.53125 5.53125 7.2023526 5.53125 8 L 5.53125 17 C 5.53125 17.797647 6.2023526 18.46875 7 18.46875 L 15 18.46875 C 15.797647 18.46875 16.46875 17.797647 16.46875 17 L 16.46875 8 C 16.46875 7.2023526 15.797647 6.53125 15 6.53125 L 7 6.53125 z M 7 7 L 15 7 C 15.554 7 16 7.446 16 8 L 16 17 C 16 17.554 15.554 18 15 18 L 7 18 C 6.446 18 6 17.554 6 17 L 6 8 C 6 7.446 6.446 7 7 7 z M 14 10 L 10 14 L 8 12 L 8 14 L 10 16 L 14 12 L 14 10 z M 13.53125 11.09375 L 13.53125 11.84375 L 10 15.375 L 8.46875 13.84375 L 8.46875 13.09375 L 9.6875 14.3125 A 0.45401625 0.45401625 0 0 0 10.3125 14.3125 L 13.53125 11.09375 z "
       id="path3915" />
  </g>
</svg>
