<?xml version="1.0" encoding="UTF-8" standalone="no"?>
<!-- Created with Inkscape (http://www.inkscape.org/) -->

<svg
   xmlns:dc="http://purl.org/dc/elements/1.1/"
   xmlns:cc="http://creativecommons.org/ns#"
   xmlns:rdf="http://www.w3.org/1999/02/22-rdf-syntax-ns#"
   xmlns:svg="http://www.w3.org/2000/svg"
   xmlns="http://www.w3.org/2000/svg"
   xmlns:xlink="http://www.w3.org/1999/xlink"
   xmlns:sodipodi="http://sodipodi.sourceforge.net/DTD/sodipodi-0.dtd"
   xmlns:inkscape="http://www.inkscape.org/namespaces/inkscape"
   width="22"
   height="22"
   id="svg2"
   sodipodi:version="0.32"
   inkscape:version="0.48.1 r9760"
   version="1.0"
   sodipodi:docname="media-playback-pause.svg"
   inkscape:output_extension="org.inkscape.output.svg.inkscape"
   inkscape:export-filename="/home/matt/.icons/Sirocco/scalable/mimetypes/text-plain.png"
   inkscape:export-xdpi="90"
   inkscape:export-ydpi="90"
   sodipodi:modified="true"
   style="display:inline">
  <sodipodi:namedview
     id="base"
     pagecolor="#838383"
     bordercolor="#cc0000"
     borderopacity="1"
     inkscape:pageopacity="1"
     inkscape:pageshadow="2"
     inkscape:zoom="22.027846"
     inkscape:cx="-10.408407"
     inkscape:cy="5.9802479"
     inkscape:document-units="px"
     inkscape:current-layer="layer1"
     width="128px"
     height="128px"
     inkscape:showpageshadow="false"
     inkscape:window-width="1920"
     inkscape:window-height="1030"
     inkscape:window-x="0"
     inkscape:window-y="25"
     showguides="true"
     inkscape:guide-bbox="true"
     showgrid="true"
     inkscape:window-maximized="1"
     borderlayer="true"
     inkscape:snap-global="true">
    <inkscape:grid
       enabled="true"
       visible="true"
       id="grid3231"
       type="xygrid"
       empspacing="8"
       snapvisiblegridlinesonly="true" />
    <sodipodi:guide
       orientation="1,0"
       position="12,6"
       id="guide3791" />
    <sodipodi:guide
       orientation="0,1"
       position="14,9"
       id="guide3793" />
  </sodipodi:namedview>
  <defs
     id="defs4">
    <linearGradient
       id="StandardGradient"
       gradientTransform="scale(0.9219544,1.0846523)"
       x1="11.998966"
       y1="0.92195445"
       x2="11.998966"
       y2="19.387045"
       gradientUnits="userSpaceOnUse">
      <stop
         style="stop-color:#000000;stop-opacity:0.23529412;"
         offset="0"
         id="stop3283" />
      <stop
         id="stop3850"
         offset="0.69999999"
         style="stop-color:#000000;stop-opacity:0.39215686;" />
      <stop
         style="stop-color:#000000;stop-opacity:0.55;"
         offset="1"
         id="stop2651" />
    </linearGradient>
    <radialGradient
       inkscape:collect="always"
       xlink:href="#StandardGradient"
       id="radialGradient3857"
       cx="12"
       cy="12.447369"
       fx="12"
       fy="12.447369"
       r="6"
       gradientTransform="matrix(2.6666667,-9.1385016e-8,5.7115635e-8,1.6666667,-50.000001,-7.7456132)"
       gradientUnits="userSpaceOnUse" />
    <radialGradient
       inkscape:collect="always"
       xlink:href="#StandardGradient"
       id="radialGradient3866"
       cx="9.3760338"
       cy="11.6875"
       fx="9.3760338"
       fy="11.6875"
       r="3.1906006"
       gradientTransform="matrix(1,0,0,1.1547005,0,-1.8080625)"
       gradientUnits="userSpaceOnUse" />
    <radialGradient
       inkscape:collect="always"
       xlink:href="#StandardGradient"
       id="radialGradient3876"
       cx="11"
       cy="11"
       fx="11"
       fy="11"
       r="8"
       gradientUnits="userSpaceOnUse"
       gradientTransform="matrix(1.125,0,0,1.125,-1.375,-1.375)" />
    <radialGradient
       inkscape:collect="always"
       xlink:href="#StandardGradient"
       id="radialGradient3882"
       gradientUnits="userSpaceOnUse"
       cx="11"
       cy="11"
       fx="11"
       fy="11"
       r="8" />
    <radialGradient
       inkscape:collect="always"
       xlink:href="#StandardGradient"
       id="radialGradient3884"
       gradientUnits="userSpaceOnUse"
       gradientTransform="matrix(1,0,0,1.1547005,0,-1.8080625)"
       cx="9.3760338"
       cy="11.6875"
       fx="9.3760338"
       fy="11.6875"
       r="3.1906006" />
    <radialGradient
       inkscape:collect="always"
       xlink:href="#StandardGradient"
       id="radialGradient3887"
       gradientUnits="userSpaceOnUse"
       gradientTransform="matrix(1.9999999,-2.6122094e-8,1.632631e-8,1.25,-11.777777,-2.9722217)"
       cx="11.888889"
       cy="12.777778"
       fx="11.888889"
       fy="12.777778"
       r="8" />
    <radialGradient
       inkscape:collect="always"
       xlink:href="#StandardGradient"
       id="radialGradient3893"
       gradientUnits="userSpaceOnUse"
       gradientTransform="matrix(1.9999999,-2.6122094e-8,1.632631e-8,1.25,-11.777777,-1.9722217)"
       cx="11.888889"
       cy="12.777778"
       fx="11.888889"
       fy="12.777778"
       r="8" />
    <radialGradient
       inkscape:collect="always"
       xlink:href="#StandardGradient"
       id="radialGradient3895"
       gradientUnits="userSpaceOnUse"
       gradientTransform="matrix(1.9999999,-2.6122094e-8,1.632631e-8,1.25,-11.777777,-2.9722217)"
       cx="11.888889"
       cy="12.777778"
       fx="11.888889"
       fy="12.777778"
       r="8" />
    <radialGradient
       inkscape:collect="always"
       xlink:href="#StandardGradient"
       id="radialGradient3902"
       gradientUnits="userSpaceOnUse"
       gradientTransform="matrix(1.9999999,-2.6122094e-8,1.632631e-8,1.25,-11.777777,-2.9722217)"
       cx="11.888889"
       cy="12.777778"
       fx="11.888889"
       fy="12.777778"
       r="8" />
    <radialGradient
       inkscape:collect="always"
       xlink:href="#StandardGradient"
       id="radialGradient3906"
       gradientUnits="userSpaceOnUse"
       gradientTransform="matrix(1.9999999,-2.6122094e-8,1.632631e-8,1.25,-11.777777,-2.9722217)"
       cx="11.888889"
       cy="12.777778"
       fx="11.888889"
       fy="12.777778"
       r="8" />
    <radialGradient
       inkscape:collect="always"
       xlink:href="#StandardGradient"
       id="radialGradient3908"
       gradientUnits="userSpaceOnUse"
       gradientTransform="matrix(1.9999999,-2.6122094e-8,1.632631e-8,1.25,-11.777777,-2.9722217)"
       cx="11.888889"
       cy="12.777778"
       fx="11.888889"
       fy="12.777778"
       r="8" />
    <radialGradient
       inkscape:collect="always"
       xlink:href="#StandardGradient"
       id="radialGradient3913"
       gradientUnits="userSpaceOnUse"
       gradientTransform="matrix(1.9999999,-2.6122094e-8,1.632631e-8,1.25,-11.777777,-1.9722217)"
       cx="11.888889"
       cy="12.777778"
       fx="11.888889"
       fy="12.777778"
       r="8" />
    <radialGradient
       inkscape:collect="always"
       xlink:href="#StandardGradient"
       id="radialGradient3917"
       gradientUnits="userSpaceOnUse"
       gradientTransform="matrix(1.9999999,-2.6122094e-8,1.632631e-8,1.25,-11.777777,-2.9722217)"
       cx="11.888889"
       cy="12.777778"
       fx="11.888889"
       fy="12.777778"
       r="8" />
    <radialGradient
       inkscape:collect="always"
       xlink:href="#StandardGradient"
       id="radialGradient3924"
       gradientUnits="userSpaceOnUse"
       gradientTransform="matrix(1.9999999,-2.6122094e-8,1.632631e-8,1.25,-11.777777,-2.9722217)"
       cx="11.888889"
       cy="12.777778"
       fx="11.888889"
       fy="12.777778"
       r="8" />
    <radialGradient
       inkscape:collect="always"
       xlink:href="#StandardGradient"
       id="radialGradient3928"
       gradientUnits="userSpaceOnUse"
       gradientTransform="matrix(1.9999999,-2.6122094e-8,1.632631e-8,1.25,-11.777777,-2.9722217)"
       cx="11.888889"
       cy="12.777778"
       fx="11.888889"
       fy="12.777778"
       r="8" />
    <radialGradient
       inkscape:collect="always"
       xlink:href="#StandardGradient"
       id="radialGradient3871"
       gradientUnits="userSpaceOnUse"
       gradientTransform="matrix(1.9999999,-2.6122094e-8,1.632631e-8,1.25,-11.777777,-1.9722217)"
       cx="11.888889"
       cy="12.777778"
       fx="11.888889"
       fy="12.777778"
       r="8" />
    <radialGradient
       inkscape:collect="always"
       xlink:href="#StandardGradient"
       id="radialGradient3873"
       gradientUnits="userSpaceOnUse"
       gradientTransform="matrix(1.9999999,-2.6122094e-8,1.632631e-8,1.25,-11.777777,-2.9722217)"
       cx="11.888889"
       cy="12.777778"
       fx="11.888889"
       fy="12.777778"
       r="8" />
    <radialGradient
       inkscape:collect="always"
       xlink:href="#StandardGradient"
       id="radialGradient3881"
       gradientUnits="userSpaceOnUse"
       gradientTransform="matrix(1.9999999,-2.6122094e-8,1.632631e-8,1.25,-11.777777,-2.9722217)"
       cx="11.888889"
       cy="12.777778"
       fx="11.888889"
       fy="12.777778"
       r="8" />
    <radialGradient
       inkscape:collect="always"
       xlink:href="#StandardGradient"
       id="radialGradient3885"
       gradientUnits="userSpaceOnUse"
       gradientTransform="matrix(1.9999999,-2.6122094e-8,1.632631e-8,1.25,-11.777777,-2.9722217)"
       cx="11.888889"
       cy="12.777778"
       fx="11.888889"
       fy="12.777778"
       r="8" />
    <radialGradient
       inkscape:collect="always"
       xlink:href="#StandardGradient"
       id="radialGradient3888"
       gradientUnits="userSpaceOnUse"
       gradientTransform="matrix(1.9999999,-2.6122094e-8,1.632631e-8,1.25,-11.777777,-2.9722217)"
       cx="11.888889"
       cy="12.777778"
       fx="11.888889"
       fy="12.777778"
       r="8" />
    <radialGradient
       inkscape:collect="always"
       xlink:href="#StandardGradient"
       id="radialGradient3894"
       gradientUnits="userSpaceOnUse"
       gradientTransform="matrix(1.9999999,-2.6122094e-8,1.632631e-8,1.25,-11.777777,-1.9722217)"
       cx="11.888889"
       cy="12.777778"
       fx="11.888889"
       fy="12.777778"
       r="8" />
    <radialGradient
       inkscape:collect="always"
       xlink:href="#StandardGradient"
       id="radialGradient3898"
       gradientUnits="userSpaceOnUse"
       gradientTransform="matrix(1.9999999,-2.6122094e-8,1.632631e-8,1.25,-11.777777,-2.9722217)"
       cx="11.888889"
       cy="12.777778"
       fx="11.888889"
       fy="12.777778"
       r="8" />
    <radialGradient
       inkscape:collect="always"
       xlink:href="#StandardGradient"
       id="radialGradient3905"
       gradientUnits="userSpaceOnUse"
       gradientTransform="matrix(1.9999999,-2.6122094e-8,1.632631e-8,1.25,-11.777777,-2.9722217)"
       cx="11.888889"
       cy="12.777778"
       fx="11.888889"
       fy="12.777778"
       r="8" />
    <radialGradient
       inkscape:collect="always"
       xlink:href="#StandardGradient"
       id="radialGradient3909"
       gradientUnits="userSpaceOnUse"
       gradientTransform="matrix(1.9999999,-2.6122094e-8,1.632631e-8,1.25,-11.777777,-2.9722217)"
       cx="11.888889"
       cy="12.777778"
       fx="11.888889"
       fy="12.777778"
       r="8" />
  </defs>
  <metadata
     id="metadata7">
    <rdf:RDF>
      <cc:Work
         rdf:about="">
        <dc:format>image/svg+xml</dc:format>
        <dc:type
           rdf:resource="http://purl.org/dc/dcmitype/StillImage" />
        <dc:title></dc:title>
      </cc:Work>
    </rdf:RDF>
  </metadata>
  <g
     style="display:inline"
     inkscape:label="Calque 1"
     id="layer1"
     inkscape:groupmode="layer">
    <path
       style="color:#000000;fill:#ffffff;fill-opacity:1;fill-rule:nonzero;stroke:none;stroke-width:1;marker:none;visibility:visible;display:inline;overflow:visible;enable-background:accumulate;opacity:0.05"
       d="M 11 0.96875 C 5.4661665 0.96875 0.96875 5.4661665 0.96875 11 C 0.96875 16.533834 5.4661666 21.03125 11 21.03125 C 16.533834 21.03125 21.03125 16.533834 21.03125 11 C 21.03125 5.4661666 16.533834 0.96875 11 0.96875 z M 11 2 C 15.970563 2 20 6.0294373 20 11 C 20 15.970563 15.970563 20 11 20 C 6.0294373 20 2 15.970563 2 11 C 2 6.0294373 6.0294373 2 11 2 z M 7 7 L 7 15 L 10 15 L 10 7 L 7 7 z M 12 7 L 12 15 L 15 15 L 15 7 L 12 7 z M 8.03125 8.03125 L 8.96875 8.03125 L 8.96875 13.96875 L 8.03125 13.96875 L 8.03125 8.03125 z M 13.03125 8.03125 L 13.96875 8.03125 L 13.96875 13.96875 L 13.03125 13.96875 L 13.03125 8.03125 z "
       id="path3907" />
    <path
       style="color:#000000;fill:url(#radialGradient3887);fill-opacity:1;fill-rule:nonzero;stroke:none;stroke-width:1;marker:none;visibility:visible;display:inline;overflow:visible;enable-background:accumulate"
       d="M 11 2 C 6.0294373 2 2 6.0294373 2 11 C 2 15.970563 6.0294373 20 11 20 C 15.970563 20 20 15.970563 20 11 C 20 6.0294373 15.970563 2 11 2 z M 7 7 L 10 7 L 10 15 L 7 15 L 7 7 z M 12 7 L 15 7 L 15 15 L 12 15 L 12 7 z "
       id="path3868" />
    <path
       sodipodi:nodetypes="sscccsss"
       inkscape:connector-curvature="0"
       id="path3845"
       d="m -23.5,-28 c -0.831,0 -1.5,0.669 -1.5,1.5 l 0,17.5 6,-6 6,6 0,-17.5 c 0,-0.831 -0.669,-1.5 -1.5,-1.5 z"
       style="color:#000000;fill:#000000;fill-opacity:1;fill-rule:nonzero;stroke:none;stroke-width:0.80000001;marker:none;visibility:visible;display:inline;overflow:visible;enable-background:accumulate" />
    <path
       inkscape:transform-center-y="0.33889105"
       transform="matrix(1.2786771,-0.13717173,0.13717173,1.2786771,-34.159744,-29.941791)"
       d="M 12.802775,11.122499 10.811559,9.7928998 8.5874152,10.679447 9.2366193,8.3748181 7.7061651,6.53349 l 2.3924469,-0.094739 1.278271,-2.0245501 0.829409,2.2460762 2.320469,0.5900873 -1.879844,1.482891 z"
       inkscape:randomized="0"
       inkscape:rounded="0"
       inkscape:flatsided="false"
       sodipodi:arg2="1.6755161"
       sodipodi:arg1="1.0471976"
       sodipodi:r2="1.8027756"
       sodipodi:r1="3.6055512"
       sodipodi:cy="8"
       sodipodi:cx="11"
       sodipodi:sides="5"
       id="path3847"
       style="color:#000000;fill:#ff00ff;fill-opacity:1;fill-rule:nonzero;stroke:none;stroke-width:0.80000001;marker:none;visibility:visible;display:inline;overflow:visible;enable-background:accumulate"
       sodipodi:type="star" />
    <path
       transform="matrix(1.125,0,0,1.125,-1.375,28.625)"
       d="M 19,11 A 8,8 0 1 1 3,11 8,8 0 1 1 19,11 z"
       sodipodi:ry="8"
       sodipodi:rx="8"
       sodipodi:cy="11"
       sodipodi:cx="11"
       id="path3878"
       style="color:#000000;fill:url(#radialGradient3882);fill-opacity:1;fill-rule:nonzero;stroke:none;stroke-width:1;marker:none;visibility:visible;display:inline;overflow:visible;enable-background:accumulate"
       sodipodi:type="arc" />
    <path
       inkscape:label="#path3175"
       transform="matrix(1.567103,0,0,1.6285813,-2.6932107,21.965956)"
       d="m 12.566634,11.6875 -6.3812011,3.684188 0,-7.3683763 z"
       inkscape:randomized="0"
       inkscape:rounded="0"
       inkscape:flatsided="true"
       sodipodi:arg2="1.0471976"
       sodipodi:arg1="0"
       sodipodi:r2="2.1270671"
       sodipodi:r1="4.2541342"
       sodipodi:cy="11.6875"
       sodipodi:cx="8.3125"
       sodipodi:sides="3"
       id="path3880"
       style="fill:url(#radialGradient3884);fill-opacity:1;fill-rule:nonzero;stroke:none"
       sodipodi:type="star" />
    <path
       style="color:#000000;fill:#000000;fill-opacity:1;fill-rule:nonzero;stroke:none;stroke-width:1;marker:none;visibility:visible;display:inline;overflow:visible;enable-background:accumulate;opacity:0.3"
       d="M 11 2 C 6.0294373 2 2 6.0294373 2 11 C 2 15.970563 6.0294373 20 11 20 C 15.970563 20 20 15.970563 20 11 C 20 6.0294373 15.970563 2 11 2 z M 11 2.53125 C 15.687104 2.53125 19.46875 6.3128966 19.46875 11 C 19.46875 15.687104 15.687104 19.46875 11 19.46875 C 6.3128966 19.46875 2.53125 15.687104 2.53125 11 C 2.53125 6.3128966 6.3128966 2.53125 11 2.53125 z M 6.875 6.46875 A 0.5245496 0.5245496 0 0 0 6.46875 7 L 6.46875 15 A 0.5245496 0.5245496 0 0 0 7 15.53125 L 10 15.53125 A 0.5245496 0.5245496 0 0 0 10.53125 15 L 10.53125 7 A 0.5245496 0.5245496 0 0 0 10 6.46875 L 7 6.46875 A 0.5245496 0.5245496 0 0 0 6.90625 6.46875 A 0.5245496 0.5245496 0 0 0 6.875 6.46875 z M 11.875 6.46875 A 0.5245496 0.5245496 0 0 0 11.46875 7 L 11.46875 15 A 0.5245496 0.5245496 0 0 0 12 15.53125 L 15 15.53125 A 0.5245496 0.5245496 0 0 0 15.53125 15 L 15.53125 7 A 0.5245496 0.5245496 0 0 0 15 6.46875 L 12 6.46875 A 0.5245496 0.5245496 0 0 0 11.90625 6.46875 A 0.5245496 0.5245496 0 0 0 11.875 6.46875 z M 7 7 L 10 7 L 10 15 L 7 15 L 7 7 z M 12 7 L 15 7 L 15 15 L 12 15 L 12 7 z "
       id="path3876" />
    <path
       style="color:#000000;fill:#000000;fill-opacity:1;fill-rule:nonzero;stroke:none;stroke-width:1;marker:none;visibility:visible;display:inline;overflow:visible;enable-background:accumulate;opacity:0.3"
       d="M 11 2 C 6.0294373 2 2 6.0294373 2 11 C 2 11.171564 2.021776 11.330805 2.03125 11.5 C 2.2962571 6.7672791 6.2010014 3 11 3 C 15.798999 3 19.703743 6.7672791 19.96875 11.5 C 19.978224 11.330805 20 11.171564 20 11 C 20 6.0294373 15.970563 2 11 2 z M 7 15 L 7 16 L 10 16 L 10 15 L 7 15 z M 12 15 L 12 16 L 15 16 L 15 15 L 12 15 z "
       id="path3867" />
    <path
       style="color:#000000;fill:#ffffff;fill-opacity:1;fill-rule:nonzero;stroke:none;stroke-width:1;marker:none;visibility:visible;display:inline;overflow:visible;enable-background:accumulate;opacity:0.2"
       d="M 7 7 L 7 8 L 10 8 L 10 7 L 7 7 z M 12 7 L 12 8 L 15 8 L 15 7 L 12 7 z M 2.03125 11.5 C 2.021776 11.669195 2 11.828436 2 12 C 2 16.970563 6.0294373 21 11 21 C 15.970563 21 20 16.970563 20 12 C 20 11.828436 19.978224 11.669195 19.96875 11.5 C 19.703743 16.232721 15.798999 20 11 20 C 6.2010014 20 2.2962571 16.232721 2.03125 11.5 z "
       id="path3891" />
  </g>
</svg>
