<?xml version="1.0" encoding="UTF-8" standalone="no"?>
<!-- Created with Inkscape (http://www.inkscape.org/) -->

<svg
   xmlns:dc="http://purl.org/dc/elements/1.1/"
   xmlns:cc="http://creativecommons.org/ns#"
   xmlns:rdf="http://www.w3.org/1999/02/22-rdf-syntax-ns#"
   xmlns:svg="http://www.w3.org/2000/svg"
   xmlns="http://www.w3.org/2000/svg"
   xmlns:xlink="http://www.w3.org/1999/xlink"
   xmlns:sodipodi="http://sodipodi.sourceforge.net/DTD/sodipodi-0.dtd"
   xmlns:inkscape="http://www.inkscape.org/namespaces/inkscape"
   width="24"
   height="24"
   id="svg2"
   sodipodi:version="0.32"
   inkscape:version="0.48.1 r9760"
   version="1.0"
   sodipodi:docname="folder-saved-search.svg"
   inkscape:output_extension="org.inkscape.output.svg.inkscape"
   style="display:inline">
  <defs
     id="defs4">
    <linearGradient
       gradientUnits="userSpaceOnUse"
       y2="20.137329"
       x2="11.794092"
       y1="3.2126782"
       x1="11.794092"
       gradientTransform="scale(1.0598527,0.9435274)"
       id="linearGradient3317">
      <stop
         id="stop3319"
         offset="0"
         style="stop-color:#c6953a;stop-opacity:1" />
      <stop
         id="stop3321"
         offset="1"
         style="stop-color:#ab7a1f;stop-opacity:1" />
    </linearGradient>
    <linearGradient
       inkscape:collect="always"
       xlink:href="#linearGradient3317"
       id="linearGradient3361"
       x1="48.035713"
       y1="25.910715"
       x2="48.035713"
       y2="85.821426"
       gradientUnits="userSpaceOnUse"
       gradientTransform="matrix(0.2195263,0,0,0.2195263,1.3370719,0.1776143)" />
    <linearGradient
       id="linearGradient3348">
      <stop
         style="stop-color:#ddbf8b;stop-opacity:1;"
         offset="0"
         id="stop3350" />
      <stop
         id="stop3356"
         offset="0.71691591"
         style="stop-color:#c29856;stop-opacity:1;" />
      <stop
         style="stop-color:#a2773a;stop-opacity:1;"
         offset="1"
         id="stop3352" />
    </linearGradient>
    <linearGradient
       id="linearGradient3187">
      <stop
         style="stop-color:#c29656;stop-opacity:1;"
         offset="0"
         id="stop3189" />
      <stop
         style="stop-color:#ddbf8b;stop-opacity:1;"
         offset="1"
         id="stop3191" />
    </linearGradient>
    <linearGradient
       inkscape:collect="always"
       xlink:href="#linearGradient3348"
       id="linearGradient3640"
       x1="6.9332814"
       y1="3"
       x2="6.9349904"
       y2="6.4254756"
       gradientUnits="userSpaceOnUse"
       gradientTransform="translate(31,-3)" />
    <linearGradient
       inkscape:collect="always"
       xlink:href="#linearGradient3187"
       id="linearGradient3668"
       x1="10.871767"
       y1="24.123091"
       x2="10.871767"
       y2="6.1230297"
       gradientUnits="userSpaceOnUse"
       gradientTransform="translate(-0.7400389,-4.1230297)" />
    <linearGradient
       inkscape:collect="always"
       xlink:href="#linearGradient3831"
       id="linearGradient3845"
       x1="11"
       y1="19.5"
       x2="21"
       y2="19.5"
       gradientUnits="userSpaceOnUse"
       spreadMethod="reflect"
       gradientTransform="translate(1,-1)" />
    <linearGradient
       id="linearGradient3831">
      <stop
         style="stop-color:#ffffff;stop-opacity:1;"
         offset="0"
         id="stop3833" />
      <stop
         id="stop3821"
         offset="0.75"
         style="stop-color:#ffffff;stop-opacity:0.49803922;" />
      <stop
         style="stop-color:#ffffff;stop-opacity:0;"
         offset="1"
         id="stop3835" />
    </linearGradient>
    <linearGradient
       id="linearGradient3823">
      <stop
         id="stop3825"
         offset="0"
         style="stop-color:#ffffff;stop-opacity:1;" />
      <stop
         id="stop3829"
         offset="1"
         style="stop-color:#ffffff;stop-opacity:0;" />
    </linearGradient>
    <linearGradient
       y2="16"
       x2="10"
       y1="5"
       x1="10"
       gradientUnits="userSpaceOnUse"
       id="linearGradient3078"
       xlink:href="#linearGradient3823"
       inkscape:collect="always"
       gradientTransform="translate(1,-1)" />
    <linearGradient
       inkscape:collect="always"
       xlink:href="#linearGradient3348"
       id="linearGradient3822"
       x1="8"
       y1="2"
       x2="8"
       y2="4"
       gradientUnits="userSpaceOnUse" />
    <linearGradient
       inkscape:collect="always"
       xlink:href="#linearGradient3831-1"
       id="linearGradient3845-9"
       x1="11"
       y1="19.5"
       x2="21"
       y2="19.5"
       gradientUnits="userSpaceOnUse"
       spreadMethod="reflect"
       gradientTransform="translate(1,-1)" />
    <linearGradient
       id="linearGradient3831-1">
      <stop
         style="stop-color:#ffffff;stop-opacity:1;"
         offset="0"
         id="stop3833-2" />
      <stop
         id="stop3821-4"
         offset="0.75"
         style="stop-color:#ffffff;stop-opacity:0.49803922;" />
      <stop
         style="stop-color:#ffffff;stop-opacity:0;"
         offset="1"
         id="stop3835-9" />
    </linearGradient>
    <linearGradient
       y2="16"
       x2="10"
       y1="5"
       x1="10"
       gradientUnits="userSpaceOnUse"
       id="linearGradient3078-0"
       xlink:href="#linearGradient3823-1"
       inkscape:collect="always"
       gradientTransform="translate(1,-1)" />
    <linearGradient
       id="linearGradient3823-1">
      <stop
         id="stop3825-4"
         offset="0"
         style="stop-color:#ffffff;stop-opacity:1;" />
      <stop
         id="stop3829-4"
         offset="1"
         style="stop-color:#ffffff;stop-opacity:0;" />
    </linearGradient>
    <linearGradient
       inkscape:collect="always"
       xlink:href="#linearGradient3885"
       id="linearGradient3668-3"
       x1="10.871767"
       y1="24.123091"
       x2="10.871767"
       y2="6.1230297"
       gradientUnits="userSpaceOnUse"
       gradientTransform="translate(-0.7400389,-4.1230297)" />
    <linearGradient
       id="linearGradient3187-2">
      <stop
         style="stop-color:#c29656;stop-opacity:1;"
         offset="0"
         id="stop3189-5" />
      <stop
         style="stop-color:#ddbf8b;stop-opacity:1;"
         offset="1"
         id="stop3191-1" />
    </linearGradient>
    <linearGradient
       id="linearGradient3348-2">
      <stop
         style="stop-color:#ddbf8b;stop-opacity:1;"
         offset="0"
         id="stop3350-6" />
      <stop
         id="stop3356-0"
         offset="0.71691591"
         style="stop-color:#c29856;stop-opacity:1;" />
      <stop
         style="stop-color:#a2773a;stop-opacity:1;"
         offset="1"
         id="stop3352-6" />
    </linearGradient>
    <linearGradient
       gradientUnits="userSpaceOnUse"
       y2="20.137329"
       x2="11.794092"
       y1="3.2126782"
       x1="11.794092"
       gradientTransform="scale(1.0598527,0.9435274)"
       id="linearGradient3317-6">
      <stop
         id="stop3319-8"
         offset="0"
         style="stop-color:#c6953a;stop-opacity:1" />
      <stop
         id="stop3321-0"
         offset="1"
         style="stop-color:#ab7a1f;stop-opacity:1" />
    </linearGradient>
    <linearGradient
       y2="85.821426"
       x2="48.035713"
       y1="25.910715"
       x1="48.035713"
       gradientTransform="matrix(0.2195263,0,0,0.2195263,1.3370719,0.1776143)"
       gradientUnits="userSpaceOnUse"
       id="linearGradient3861"
       xlink:href="#linearGradient3317-6"
       inkscape:collect="always" />
    <linearGradient
       inkscape:collect="always"
       id="linearGradient3327">
      <stop
         style="stop-color:#000000;stop-opacity:1;"
         offset="0"
         id="stop3330" />
      <stop
         style="stop-color:#000000;stop-opacity:0;"
         offset="1"
         id="stop3333" />
    </linearGradient>
    <linearGradient
       y2="-11"
       x2="11.375"
       y1="20"
       x1="11.375"
       gradientTransform="translate(1,3)"
       gradientUnits="userSpaceOnUse"
       id="linearGradient3842"
       xlink:href="#linearGradient3327"
       inkscape:collect="always" />
    <linearGradient
       inkscape:collect="always"
       xlink:href="#linearGradient3348-2"
       id="linearGradient3943"
       gradientUnits="userSpaceOnUse"
       gradientTransform="translate(0,-2)"
       x1="8"
       y1="2"
       x2="8"
       y2="4" />
    <linearGradient
       inkscape:collect="always"
       xlink:href="#linearGradient3348-2"
       id="linearGradient3947"
       gradientUnits="userSpaceOnUse"
       gradientTransform="translate(0,-2)"
       x1="8"
       y1="2"
       x2="8"
       y2="4" />
    <linearGradient
       id="linearGradient3885">
      <stop
         style="stop-color:#eb7731;stop-opacity:1;"
         offset="0"
         id="stop3887" />
      <stop
         id="stop3889"
         offset="0.5"
         style="stop-color:#e59343;stop-opacity:1;" />
      <stop
         style="stop-color:#e5b66b;stop-opacity:1;"
         offset="1"
         id="stop3891" />
    </linearGradient>
    <linearGradient
       inkscape:collect="always"
       xlink:href="#linearGradient3908"
       id="linearGradient3105"
       gradientUnits="userSpaceOnUse"
       gradientTransform="matrix(0.72,0,0,0.72,1.92,-5.52)"
       x1="37.611111"
       y1="27.111111"
       x2="37.611111"
       y2="16" />
    <linearGradient
       id="linearGradient3908">
      <stop
         style="stop-color:#b95734;stop-opacity:1;"
         offset="0"
         id="stop3910" />
      <stop
         id="stop3912"
         offset="0.37499997"
         style="stop-color:#db8a47;stop-opacity:1;" />
      <stop
         style="stop-color:#efb06c;stop-opacity:1;"
         offset="1"
         id="stop3914" />
    </linearGradient>
  </defs>
  <sodipodi:namedview
     id="base"
     pagecolor="#7e7e7e"
     bordercolor="#dc0000"
     borderopacity="1"
     inkscape:pageopacity="1"
     inkscape:pageshadow="2"
     inkscape:zoom="18.602289"
     inkscape:cx="-1.4614409"
     inkscape:cy="14.795977"
     inkscape:document-units="px"
     inkscape:current-layer="layer4"
     showgrid="true"
     inkscape:showpageshadow="false"
     showguides="true"
     inkscape:guide-bbox="true"
     inkscape:window-width="1920"
     inkscape:window-height="1030"
     inkscape:window-x="0"
     inkscape:window-y="25"
     inkscape:window-maximized="1"
     borderlayer="true">
    <sodipodi:guide
       orientation="1,0"
       position="0,112"
       id="guide2383" />
    <sodipodi:guide
       orientation="0,1"
       position="26.278146,128"
       id="guide2385" />
    <sodipodi:guide
       orientation="1,0"
       position="128,54.082119"
       id="guide2387" />
    <sodipodi:guide
       orientation="0,1"
       position="78.156291,0"
       id="guide2389" />
    <inkscape:grid
       type="xygrid"
       id="grid3672"
       visible="true"
       enabled="true"
       empspacing="8"
       snapvisiblegridlinesonly="true" />
  </sodipodi:namedview>
  <metadata
     id="metadata7">
    <rdf:RDF>
      <cc:Work
         rdf:about="">
        <dc:format>image/svg+xml</dc:format>
        <dc:type
           rdf:resource="http://purl.org/dc/dcmitype/StillImage" />
        <dc:title></dc:title>
      </cc:Work>
    </rdf:RDF>
  </metadata>
  <g
     inkscape:groupmode="layer"
     id="layer2"
     inkscape:label="Button"
     transform="translate(0,2)"
     sodipodi:insensitive="true">
    <path
       style="opacity:0.3;fill:url(#linearGradient3842);fill-opacity:1;stroke:none;display:inline"
       d="m 4.5,1.5 c -1.0969971,0 -2,0.9030029 -2,2 l 0,0.5 c -0.6114808,0.4549066 -1,1.175925 -1,2 l 0,14.5 C 1.5,21.885 2.615,23 4,23 l 16,0 c 1.385,0 2.5,-1.115 2.5,-2.5 L 22.5,6 C 22.5,5.134375 22.071045,4.3858887 21.40625,3.9375 21.160346,3.1111944 20.401594,2.5 19.5,2.5 l -7.375,0 C 11.775318,1.9321758 11.212848,1.5 10.5,1.5 l -6,0 z"
       transform="translate(0,-2)"
       id="rect3371"
       inkscape:connector-curvature="0" />
    <rect
       ry="2"
       rx="2"
       y="5"
       x="2"
       height="16"
       width="20"
       id="rect5478"
       style="opacity:0.4;fill:#000000;fill-opacity:1;fill-rule:nonzero;stroke:none" />
    <rect
       style="fill:url(#linearGradient3861);fill-opacity:1;fill-rule:nonzero;stroke:none;display:inline"
       id="rect3352"
       width="16.464474"
       height="13.759596"
       x="3.6499383"
       y="5.2580805"
       rx="1.3171579"
       ry="1.3171579" />
    <path
       inkscape:connector-curvature="0"
       style="color:#000000;fill:#ec7d3a;fill-opacity:1;fill-rule:nonzero;stroke:none;stroke-width:2;marker:none;visibility:visible;display:inline;overflow:visible;enable-background:accumulate"
       d="M 4.5,0 C 3.669,0 3,0.669 3,1.5 l 0,1 0,1 0,2 C 3,6.331 3.669,7 4.5,7 l 15,0 C 20.331,7 21,6.331 21,5.5 l 0,-3 C 21,1.669 20.331,1 19.5,1 L 11.90625,1 C 11.702994,0.4129833 11.157875,0 10.5,0 l -6,0 z"
       id="rect3043" />
    <path
       style="opacity:0.1;color:#000000;fill:#000000;fill-opacity:1;fill-rule:nonzero;stroke:none;stroke-width:2;marker:none;visibility:visible;display:inline;overflow:visible;enable-background:accumulate"
       d="M 4,1 C 3.648898,1 3.317465,1.0923738 3.03125,1.25 3.018314,1.3295389 3,1.4166943 3,1.5 l 0,1 0,1 0,2 C 3,6.331 3.669,7 4.5,7 l 15,0 C 20.331,7 21,6.331 21,5.5 l 0,-3 C 21,1.669 20.331,1 19.5,1 L 11.90625,1 4,1 z"
       id="path3050"
       inkscape:connector-curvature="0" />
    <rect
       style="fill:url(#linearGradient3668-3);fill-opacity:1;fill-rule:nonzero;stroke:none;display:inline"
       id="rect3660"
       width="20"
       height="17.999996"
       x="2"
       y="2"
       rx="2"
       ry="2" />
    <path
       style="opacity:0.2;fill:url(#linearGradient3078-0);fill-opacity:1;fill-rule:evenodd;stroke:none;display:inline"
       d="M 4,2 C 2.892,2 2,2.892 2,4 l 0,14 c 0,1.108 0.892,2 2,2 l 16,0 c 1.108,0 2,-0.892 2,-2 L 22,4 C 22,2.892 21.108,2 20,2 z m 0,1.03125 16,0 c 0.5497,0 0.96875,0.4190495 0.96875,0.96875 l 0,14 c 0,0.5497 -0.41905,0.96875 -0.96875,0.96875 l -16,0 C 3.4502995,18.96875 3.03125,18.5497 3.03125,18 l 0,-14 C 3.03125,3.4502995 3.4502995,3.03125 4,3.03125 z"
       id="rect3050"
       inkscape:connector-curvature="0"
       sodipodi:nodetypes="ssssssssssssssssss" />
    <path
       id="path3235"
       d="M 4,20 C 2.892,20 2,19.108 2,18 l 0,-1 c 0,1.108 0.892,2 2,2 l 16,0 c 1.108,0 2,-0.892 2,-2 l 0,1 c 0,1.108 -0.892,2 -2,2 z"
       style="opacity:0.2;fill:url(#linearGradient3845-9);fill-opacity:1;fill-rule:evenodd;stroke:none;display:inline"
       inkscape:connector-curvature="0"
       sodipodi:nodetypes="sscsscsss" />
    <rect
       style="color:#000000;fill:#cc7030;fill-opacity:1;fill-rule:nonzero;stroke:none;stroke-width:2;marker:none;visibility:visible;display:inline;overflow:visible;enable-background:accumulate"
       id="rect3884"
       width="8"
       height="8"
       x="32"
       y="-2" />
    <rect
       y="8"
       x="32"
       height="8"
       width="8"
       id="rect3887"
       style="color:#000000;fill:#d37e43;fill-opacity:1;fill-rule:nonzero;stroke:none;stroke-width:2;marker:none;visibility:visible;display:inline;overflow:visible;enable-background:accumulate" />
  </g>
  <g
     inkscape:groupmode="layer"
     id="layer4"
     inkscape:label="Symbol"
     transform="translate(0,2)">
    <path
       sodipodi:type="inkscape:offset"
       inkscape:radius="0.9183408"
       inkscape:original="M 9.53125 8 C 8.6275567 8 7.7202537 8.3447709 7.03125 9.03125 C 5.6532426 10.404209 5.6532427 12.627043 7.03125 14 C 8.2325645 15.196914 10.100064 15.358718 11.46875 14.46875 C 11.701395 14.48038 12.054189 14.505574 12.1875 14.65625 C 12.369016 14.861415 12.120627 15.343561 12.46875 15.65625 L 14.625 17.84375 C 14.625 17.84375 15.030713 18.279496 15.65625 17.65625 C 16.281787 17.033005 15.84375 16.625 15.84375 16.625 L 13.6875 14.4375 C 13.373661 14.09066 12.893419 14.368352 12.6875 14.1875 C 12.536265 14.054678 12.511671 13.669295 12.5 13.4375 C 13.393241 12.07383 13.232565 10.228163 12.03125 9.03125 C 11.342246 8.3447708 10.434943 8 9.53125 8 z M 9.53125 9.1875 C 10.830447 9.1875 11.90625 10.236813 11.90625 11.53125 C 11.90625 12.825688 10.830448 13.875 9.53125 13.875 C 8.2320528 13.875001 7.1875 12.825688 7.1875 11.53125 C 7.1875001 10.884031 7.4489948 10.268194 7.875 9.84375 C 8.3010053 9.4193058 8.881651 9.1875001 9.53125 9.1875 z "
       style="opacity:0.15;fill:#ffffff;fill-opacity:1;stroke:none;display:inline"
       id="path3713"
       d="m 9.53125,7.09375 c -1.137266,0 -2.2905994,0.4187712 -3.15625,1.28125 -1.7290903,1.722756 -1.7290909,4.558496 0,6.28125 1.3716288,1.366604 3.42929,1.614815 5.09375,0.8125 0.045,0.268413 0.06185,0.569666 0.34375,0.84375 0.01262,0.01227 0.01796,0.01931 0.03125,0.03125 l 2.09375,2.125 c 0,0 0.02991,0.02987 0.03125,0.03125 0.02777,0.02844 0.325546,0.296274 0.78125,0.375 0.477755,0.08254 1.103603,-0.105283 1.5625,-0.5625 0.459674,-0.45799 0.64579,-1.084027 0.5625,-1.5625 -0.07945,-0.45639 -0.346583,-0.753576 -0.375,-0.78125 L 16.46875,15.9375 14.375,13.8125 c -0.01191,-0.01316 -0.019,-0.01877 -0.03125,-0.03125 -0.282741,-0.288144 -0.597948,-0.275551 -0.875,-0.3125 C 14.296181,11.805367 14.067275,9.7497188 12.6875,8.375 11.821849,7.5125212 10.668516,7.09375 9.53125,7.09375 z m 0,3 c 0.804724,0 1.46875,0.651883 1.46875,1.4375 0,0.785619 -0.664024,1.4375 -1.46875,1.4375 -0.8047238,10e-7 -1.4375,-0.637102 -1.4375,-1.4375 10e-8,-0.399862 0.1930196,-0.787666 0.4375,-1.03125 0.2488684,-0.247956 0.5688707,-0.40625 1,-0.40625 z"
       transform="translate(1,-2)" />
    <path
       style="fill:#d37e43;fill-opacity:1;stroke:none;display:inline"
       d="m 8.0335055,7.0297182 c -1.3780071,1.3729588 -1.378007,3.6015288 0,4.9744858 1.2013145,1.196914 3.0520055,1.356327 4.4206915,0.466359 0.232645,0.01163 0.607804,0.04364 0.741115,0.194316 0.181516,0.205165 -0.07508,0.684799 0.273043,0.997488 l 2.165029,2.193738 c 0,0 0.401624,0.428929 1.027161,-0.194317 0.625537,-0.623245 0.19503,-1.023396 0.19503,-1.023396 l -2.16503,-2.193738 c -0.313839,-0.34684 -0.795237,-0.09119 -1.001156,-0.272042 -0.151235,-0.132822 -0.18336,-0.506606 -0.195031,-0.738401 0.893241,-1.36367 0.733243,-3.20758 -0.468072,-4.4044928 -1.378007,-1.3729583 -3.6147731,-1.3729582 -4.9927805,0 z m 0.845132,0.8161266 C 9.3046428,7.4214006 9.8932987,7.1722165 10.542898,7.1722164 c 1.299197,0 2.353367,1.0503076 2.353367,2.3447446 0,1.294438 -1.054169,2.344745 -2.353367,2.344745 -1.2991975,10e-7 -2.3533682,-1.050307 -2.3533682,-2.344745 10e-8,-0.647219 0.2631025,-1.246672 0.6891077,-1.6711162 z"
       id="Symbol"
       sodipodi:nodetypes="cscsccsccscsccssssc"
       inkscape:label="#path3766"
       inkscape:connector-curvature="0" />
    <path
       style="opacity:0.1;fill:#000000;fill-opacity:1;stroke:none;display:inline"
       d="m 10.53125,6 c -0.903693,0 -1.810996,0.3447709 -2.5,1.03125 -1.378007,1.372959 -1.378007,3.595793 0,4.96875 1.201315,1.196914 3.068814,1.358718 4.4375,0.46875 0.232645,0.01163 0.585439,0.03682 0.71875,0.1875 0.181516,0.205165 -0.06687,0.687311 0.28125,1 l 2.15625,2.1875 c 0,0 0.405713,0.435746 1.03125,-0.1875 0.625537,-0.623245 0.1875,-1.03125 0.1875,-1.03125 L 14.6875,12.4375 c -0.313839,-0.34684 -0.794081,-0.06915 -1,-0.25 C 13.536265,12.054678 13.511671,11.669295 13.5,11.4375 14.393241,10.07383 14.232565,8.228163 13.03125,7.03125 12.342246,6.3447708 11.434943,6 10.53125,6 z m 0,0.5625 c 0.76084,0 1.512783,0.2961618 2.09375,0.875 0.407251,0.4057583 0.636291,0.893252 0.75,1.40625 C 13.059229,7.5696534 11.896959,6.625 10.53125,6.625 c -0.572726,1e-7 -1.129338,0.1488182 -1.59375,0.4375 0.485076,-0.3257006 1.029428,-0.5 1.59375,-0.5 z m 0,0.625 c 1.299197,0 2.375,1.049313 2.375,2.34375 0,1.294438 -1.075802,2.34375 -2.375,2.34375 C 9.232053,11.875001 8.1875,10.825688 8.1875,9.53125 8.1875,8.884031 8.448995,8.268194 8.875,7.84375 9.301005,7.4193058 9.881651,7.1875001 10.53125,7.1875 z m -2.09375,0.25 c 0.0064,-0.0064 0.02478,0.00633 0.03125,0 C 7.931725,7.9725574 7.625,8.732748 7.625,9.53125 c 0,0.798296 0.3176,1.535722 0.84375,2.0625 0.263075,0.263389 0.590042,0.477352 0.9375,0.625 -0.344978,-0.141915 -0.656271,-0.349698 -0.9375,-0.625 -0.0063,-0.0062 -0.02498,0.0063 -0.03125,0 -1.163285,-1.159022 -1.163286,-2.997226 0,-4.15625 z m 4.78125,3.21875 c -0.06676,0.156272 -0.09239,0.323544 -0.1875,0.46875 a 0.56171187,0.56171187 0 0 0 -0.09375,0.34375 c 0.006,0.120073 0.02674,0.277317 0.0625,0.46875 0.0033,0.0177 0.02792,0.04415 0.03125,0.0625 -0.01941,-0.004 -0.04387,-0.02755 -0.0625,-0.03125 C 12.782454,11.93177 12.622382,11.91237 12.5,11.90625 A 0.56171187,0.56171187 0 0 0 12.15625,12 c -0.157551,0.102445 -0.328856,0.149437 -0.5,0.21875 0.700774,-0.293884 1.26213,-0.867209 1.5625,-1.5625 z m 0.59375,2.15625 c 0.0076,5.89e-4 0.02407,-4.38e-4 0.03125,0 0.137238,0.0084 0.241223,0.0013 0.3125,0 0.142554,-0.0027 0.113746,-0.01244 0.125,0 a 0.56171187,0.56171187 0 0 0 0,0.03125 l 2.15625,2.1875 c 0.0054,0.004 0.01759,0.01441 -0.1875,0.21875 -0.205525,0.204772 -0.214474,0.192752 -0.21875,0.1875 L 13.875,13.25 a 0.56171187,0.56171187 0 0 0 -0.03125,0 c -0.01789,-0.01607 -0.02806,-0.01244 -0.03125,-0.15625 -0.0016,-0.0719 0.01306,-0.146953 0,-0.28125 z"
       id="path3691"
       inkscape:connector-curvature="0" />
    <path
       style="opacity:0.2;fill:#000000;fill-opacity:1;stroke:none;display:inline"
       d="m 10.53125,6 c -0.903693,0 -1.810996,0.3447709 -2.5,1.03125 -0.819837,0.8168334 -1.155677,1.937824 -1,3 0.102292,-0.731336 0.435949,-1.438015 1,-2 1.378007,-1.372958 3.621993,-1.3729581 5,0 C 13.606204,8.604097 13.903404,9.316828 14,10.0625 14.168609,8.989199 13.861618,7.8585755 13.03125,7.03125 12.342246,6.3447708 11.434943,6 10.53125,6 z M 8.25,10.03125 c -0.03132,0.153846 -0.0625,0.338195 -0.0625,0.5 0,1.294438 1.044553,2.343751 2.34375,2.34375 1.299198,0 2.375,-1.049312 2.375,-2.34375 0,-0.161805 -0.03114,-0.347399 -0.0625,-0.5 -0.231055,1.053147 -1.186426,1.84375 -2.3125,1.84375 -1.126073,10e-7 -2.050194,-0.790603 -2.28125,-1.84375 z m 5.40625,2.09375 c -0.05377,0.103686 -0.09137,0.21345 -0.15625,0.3125 0.01167,0.231795 0.03627,0.617178 0.1875,0.75 0.205919,0.180852 0.686161,-0.09684 1,0.25 L 16.75,15.53125 C 17.206352,14.979063 16.84375,14.625 16.84375,14.625 L 14.6875,12.4375 c -0.313839,-0.34684 -0.794081,-0.06915 -1,-0.25 -0.01446,-0.0127 -0.01888,-0.04574 -0.03125,-0.0625 z"
       id="path3702"
       inkscape:connector-curvature="0" />
    <path
       inkscape:connector-curvature="0"
       style="opacity:0.15;fill:#ffffff;fill-opacity:1;stroke:none;display:inline"
       d="M 10.53125,7.1875 C 9.8816507,7.1875001 9.3010053,7.4193058 8.875,7.84375 8.4489948,8.268194 8.1875001,8.884031 8.1875,9.53125 8.1875,9.693055 8.218637,9.847399 8.25,10 8.347644,9.550575 8.5625292,9.155076 8.875,8.84375 9.3010053,8.419306 9.8816507,8.1875 10.53125,8.1875 c 1.126073,0 2.081444,0.759353 2.3125,1.8125 0.03136,-0.152601 0.0625,-0.306945 0.0625,-0.46875 0,-1.294437 -1.075803,-2.34375 -2.375,-2.34375 z M 7.0312501,10.03125 C 6.8836372,11.086608 7.217294,12.189027 8.03125,13 c 1.2013145,1.196914 3.068814,1.358718 4.4375,0.46875 0.232645,0.01163 0.585439,0.03682 0.71875,0.1875 0.181516,0.205165 -0.06687,0.687311 0.28125,1 l 2.15625,2.1875 c 0,0 0.405713,0.435746 1.03125,-0.1875 0.625537,-0.623245 0.1875,-1.03125 0.1875,-1.03125 L 16.75,15.53125 c -0.03311,0.04006 -0.05143,0.08284 -0.09375,0.125 -0.625537,0.623246 -1.03125,0.1875 -1.03125,0.1875 l -2.15625,-2.1875 c -0.348123,-0.312689 -0.09973,-0.794835 -0.28125,-1 -0.133311,-0.150676 -0.486105,-0.17587 -0.71875,-0.1875 C 11.100064,13.358718 9.2325645,13.196914 8.03125,12 7.4730797,11.443875 7.1372397,10.754412 7.0312501,10.03125 z M 14,10.0625 c -0.07532,0.479471 -0.224182,0.953921 -0.5,1.375 0.01056,0.209638 0.03925,0.528876 0.15625,0.6875 C 13.988468,11.484399 14.090573,10.761678 14,10.0625 z"
       id="path4248" />
  </g>
</svg>
