<?xml version="1.0" encoding="UTF-8" standalone="no"?>
<!-- Created with Inkscape (http://www.inkscape.org/) -->

<svg
   xmlns:dc="http://purl.org/dc/elements/1.1/"
   xmlns:cc="http://creativecommons.org/ns#"
   xmlns:rdf="http://www.w3.org/1999/02/22-rdf-syntax-ns#"
   xmlns:svg="http://www.w3.org/2000/svg"
   xmlns="http://www.w3.org/2000/svg"
   xmlns:xlink="http://www.w3.org/1999/xlink"
   xmlns:sodipodi="http://sodipodi.sourceforge.net/DTD/sodipodi-0.dtd"
   xmlns:inkscape="http://www.inkscape.org/namespaces/inkscape"
   width="16"
   height="16"
   id="svg2"
   sodipodi:version="0.32"
   inkscape:version="0.48.0 r9654"
   version="1.0"
   sodipodi:docname="system-lock-screen.svg"
   inkscape:output_extension="org.inkscape.output.svg.inkscape"
   style="display:inline">
  <defs
     id="defs4">
    <inkscape:perspective
       sodipodi:type="inkscape:persp3d"
       inkscape:vp_x="0 : 11 : 1"
       inkscape:vp_y="0 : 1000 : 0"
       inkscape:vp_z="22 : 11 : 1"
       inkscape:persp3d-origin="11 : 7.3333333 : 1"
       id="perspective29" />
    <linearGradient
       id="linearGradient4081">
      <stop
         style="stop-color:#aaaaaa;stop-opacity:1;"
         offset="0"
         id="stop4083" />
      <stop
         style="stop-color:#f0f0f0;stop-opacity:1;"
         offset="1"
         id="stop4085" />
    </linearGradient>
    <linearGradient
       inkscape:collect="always"
       xlink:href="#linearGradient4081"
       id="linearGradient3527"
       gradientUnits="userSpaceOnUse"
       gradientTransform="translate(-39,0)"
       x1="6.8391123"
       y1="16.300354"
       x2="6.8391123"
       y2="6.0528178" />
    <linearGradient
       inkscape:collect="always"
       xlink:href="#linearGradient4081"
       id="linearGradient3538"
       gradientUnits="userSpaceOnUse"
       gradientTransform="translate(-39,0)"
       x1="16.5"
       y1="19.542921"
       x2="16.5"
       y2="2.5" />
    <linearGradient
       inkscape:collect="always"
       xlink:href="#linearGradient4081"
       id="linearGradient3540"
       gradientUnits="userSpaceOnUse"
       gradientTransform="translate(-39,0)"
       x1="14.524625"
       y1="17.41902"
       x2="14.524625"
       y2="4.625" />
    <linearGradient
       inkscape:collect="always"
       xlink:href="#linearGradient4081"
       id="linearGradient3542"
       gradientUnits="userSpaceOnUse"
       gradientTransform="translate(-39,0)"
       x1="10.50519"
       y1="15.28125"
       x2="10.50519"
       y2="6.7458849" />
    <linearGradient
       inkscape:collect="always"
       xlink:href="#linearGradient4081"
       id="linearGradient3266"
       x1="9"
       y1="4.5"
       x2="14"
       y2="4.5"
       gradientUnits="userSpaceOnUse"
       gradientTransform="matrix(0,-1,1,0,6,16)" />
    <linearGradient
       inkscape:collect="always"
       xlink:href="#linearGradient4081"
       id="linearGradient3274"
       x1="11.984375"
       y1="20"
       x2="11.984375"
       y2="7.96875"
       gradientUnits="userSpaceOnUse" />
    <linearGradient
       inkscape:collect="always"
       xlink:href="#linearGradient4081"
       id="linearGradient3280"
       gradientUnits="userSpaceOnUse"
       gradientTransform="matrix(0,-1,1,0,7,16)"
       x1="9"
       y1="4.5"
       x2="14"
       y2="4.5" />
    <linearGradient
       inkscape:collect="always"
       xlink:href="#linearGradient4081"
       id="linearGradient3287"
       gradientUnits="userSpaceOnUse"
       gradientTransform="matrix(0,-1,1,0,7,16)"
       x1="9"
       y1="4.5"
       x2="14"
       y2="4.5" />
    <linearGradient
       inkscape:collect="always"
       xlink:href="#linearGradient4081"
       id="linearGradient3293"
       gradientUnits="userSpaceOnUse"
       x1="11.984375"
       y1="20"
       x2="11.984375"
       y2="7.96875"
       gradientTransform="translate(-1,0)" />
    <linearGradient
       inkscape:collect="always"
       xlink:href="#linearGradient4081"
       id="linearGradient3180"
       x1="-13"
       y1="17.008953"
       x2="-13"
       y2="-0.70032859"
       gradientUnits="userSpaceOnUse" />
    <linearGradient
       inkscape:collect="always"
       xlink:href="#linearGradient4081"
       id="linearGradient3611"
       gradientUnits="userSpaceOnUse"
       gradientTransform="matrix(0,1,-1,0,19.861161,-1.0000002)"
       x1="14"
       y1="7.0000005"
       x2="1.9584055"
       y2="7.0000005" />
    <linearGradient
       inkscape:collect="always"
       xlink:href="#linearGradient4081"
       id="linearGradient3613"
       gradientUnits="userSpaceOnUse"
       gradientTransform="matrix(0,1,-1,0,19,2.9999999)"
       x1="14"
       y1="7.0000005"
       x2="1.9584055"
       y2="7.0000005" />
    <inkscape:perspective
       id="perspective4374"
       inkscape:persp3d-origin="0.5 : 0.33333333 : 1"
       inkscape:vp_z="1 : 0.5 : 1"
       inkscape:vp_y="0 : 1000 : 0"
       inkscape:vp_x="0 : 0.5 : 1"
       sodipodi:type="inkscape:persp3d" />
    <linearGradient
       inkscape:collect="always"
       xlink:href="#StandardGradient-1"
       id="linearGradient3833-8"
       x1="54"
       y1="3.5"
       x2="59"
       y2="3.5"
       gradientUnits="userSpaceOnUse"
       gradientTransform="translate(-58,53.861161)" />
    <linearGradient
       id="StandardGradient-1"
       gradientTransform="matrix(0.9984539,0,0,0.9984539,-0.0459776,0.05767558)"
       x1="10.710332"
       y1="1.9963325"
       x2="10.710332"
       y2="18.974037"
       gradientUnits="userSpaceOnUse">
      <stop
         style="stop-color:#000000;stop-opacity:0.86274511;"
         offset="0"
         id="stop3277-4" />
      <stop
         style="stop-color:#000000;stop-opacity:0.47058824;"
         offset="1"
         id="stop3279-3" />
    </linearGradient>
    <linearGradient
       y2="3.5"
       x2="59"
       y1="3.5"
       x1="54"
       gradientTransform="translate(-50,53.861161)"
       gradientUnits="userSpaceOnUse"
       id="linearGradient3829-0"
       xlink:href="#SpecificGradient-5"
       inkscape:collect="always" />
    <linearGradient
       id="SpecificGradient-5"
       x1="10.761708"
       y1="3.9999998"
       x2="10.761708"
       y2="18.011395"
       gradientUnits="userSpaceOnUse">
      <stop
         style="stop-color:#a50000;stop-opacity:1;"
         offset="0"
         id="stop3292-8" />
      <stop
         style="stop-color:#e73800;stop-opacity:1;"
         offset="1"
         id="stop3294-0" />
    </linearGradient>
    <linearGradient
       inkscape:collect="always"
       xlink:href="#StandardGradient-1"
       id="linearGradient3662"
       gradientUnits="userSpaceOnUse"
       gradientTransform="matrix(0,-1,-1,0,19,20)"
       x1="14"
       y1="7.0000005"
       x2="1.9584055"
       y2="7.0000005" />
    <linearGradient
       inkscape:collect="always"
       xlink:href="#StandardGradient-1"
       id="linearGradient3666"
       gradientUnits="userSpaceOnUse"
       gradientTransform="matrix(0,-1,-1,0,19.861161,14)"
       x1="14"
       y1="7.0000005"
       x2="1.9584055"
       y2="7.0000005" />
    <linearGradient
       inkscape:collect="always"
       xlink:href="#StandardGradient-1"
       id="linearGradient3671"
       gradientUnits="userSpaceOnUse"
       gradientTransform="matrix(0,-1,-1,0,-10.138839,14)"
       x1="14"
       y1="7.0000005"
       x2="1.9584055"
       y2="7.0000005" />
    <clipPath
       clipPathUnits="userSpaceOnUse"
       id="clipPath3676">
      <path
         style="fill:#ff00ff;fill-opacity:1;stroke:none;display:inline"
         d="m -29.138839,-5.0000001 0,22.0000001 21.9999997,0 0,-22.0000001 -21.9999997,0 z m 11,5 c 2.61165,0 4.832611,1.6692211 5.65625,4 l -2.21875,0 c -0.692339,-1.193787 -1.959054,-2 -3.4375,-2 -2.208,0 -4,1.792 -4,4 0,2.208 1.792,4 4,4 1.478446,0 2.745161,-0.806213 3.4375,-2 l 2.21875,0 C -13.306228,10.330778 -15.527189,12 -18.138839,12 c -3.312,0 -6,-2.6880001 -6,-6.0000001 0,-3.312 2.688,-6 6,-6 z m 1.5,5 5,0 c 0.277,0 0.5,0.223 0.5,0.5 l 0,1 c 0,0.277 -0.223,0.5 -0.5,0.5 l -5,0 c -0.277,0 -0.5,-0.223 -0.5,-0.5 l 0,-1 c 0,-0.277 0.223,-0.5 0.5,-0.5 z"
         id="path3678"
         inkscape:connector-curvature="0" />
    </clipPath>
    <linearGradient
       inkscape:collect="always"
       xlink:href="#StandardGradient-1"
       id="linearGradient4388"
       gradientUnits="userSpaceOnUse"
       gradientTransform="matrix(-1,0,0,1,19.861161,18)"
       x1="14"
       y1="7.0000005"
       x2="1.9584055"
       y2="7.0000005" />
    <linearGradient
       inkscape:collect="always"
       xlink:href="#StandardGradient-1"
       id="linearGradient4391"
       gradientUnits="userSpaceOnUse"
       gradientTransform="matrix(0,-1,-1,0,16.861161,14)"
       x1="14"
       y1="7.0000005"
       x2="1.9584055"
       y2="7.0000005" />
    <linearGradient
       inkscape:collect="always"
       xlink:href="#StandardGradient-1"
       id="linearGradient4413"
       x1="7.5513167"
       y1="13.75"
       x2="16.948683"
       y2="13.75"
       gradientUnits="userSpaceOnUse" />
    <linearGradient
       inkscape:collect="always"
       xlink:href="#StandardGradient-1"
       id="linearGradient4415"
       x1="7.5513167"
       y1="13.75"
       x2="16.948683"
       y2="13.75"
       gradientUnits="userSpaceOnUse" />
    <linearGradient
       inkscape:collect="always"
       xlink:href="#StandardGradient-1"
       id="linearGradient4427"
       gradientUnits="userSpaceOnUse"
       x1="7.5513167"
       y1="13.75"
       x2="16.948683"
       y2="13.75"
       gradientTransform="matrix(0.5,0.8660254,0.96225044,-0.55555555,-4.7047195,2.8626093)" />
    <linearGradient
       inkscape:collect="always"
       xlink:href="#StandardGradient-1"
       id="linearGradient4433"
       gradientUnits="userSpaceOnUse"
       x1="7.5513167"
       y1="13.75"
       x2="16.948683"
       y2="13.75"
       gradientTransform="matrix(-0.5,0.8660254,-0.96225044,-0.55555555,28.427041,2.8626093)" />
    <linearGradient
       inkscape:collect="always"
       xlink:href="#StandardGradient-1"
       id="linearGradient4435"
       gradientUnits="userSpaceOnUse"
       gradientTransform="matrix(0,-1,-1,0,13.861161,17)"
       x1="14"
       y1="7.0000005"
       x2="1.9584055"
       y2="7.0000005" />
    <linearGradient
       inkscape:collect="always"
       xlink:href="#StandardGradient-1"
       id="linearGradient4442"
       gradientUnits="userSpaceOnUse"
       gradientTransform="matrix(0,-1,-1,0,16.861161,15)"
       x1="14"
       y1="7.0000005"
       x2="1.9584055"
       y2="7.0000005" />
    <linearGradient
       inkscape:collect="always"
       xlink:href="#StandardGradient-1"
       id="linearGradient4444"
       gradientUnits="userSpaceOnUse"
       gradientTransform="matrix(0,-1,-1,0,16,19)"
       x1="14"
       y1="7.0000005"
       x2="1.9584055"
       y2="7.0000005" />
    <linearGradient
       inkscape:collect="always"
       xlink:href="#StandardGradient-1"
       id="linearGradient4449"
       gradientUnits="userSpaceOnUse"
       gradientTransform="matrix(0,-1,-1,0,16,20)"
       x1="14"
       y1="7.0000005"
       x2="1.9584055"
       y2="7.0000005" />
    <linearGradient
       inkscape:collect="always"
       xlink:href="#StandardGradient-1"
       id="linearGradient4453"
       gradientUnits="userSpaceOnUse"
       gradientTransform="matrix(0,-1,-1,0,16.861161,14)"
       x1="14"
       y1="7.0000005"
       x2="1.9584055"
       y2="7.0000005" />
    <linearGradient
       inkscape:collect="always"
       xlink:href="#StandardGradient-1"
       id="linearGradient4458"
       gradientUnits="userSpaceOnUse"
       gradientTransform="matrix(0,-1,-1,0,16,19)"
       x1="14"
       y1="7.0000005"
       x2="1.9584055"
       y2="7.0000005" />
    <linearGradient
       inkscape:collect="always"
       xlink:href="#StandardGradient-1"
       id="linearGradient4462"
       gradientUnits="userSpaceOnUse"
       gradientTransform="matrix(0,-1,-1,0,16,19)"
       x1="14"
       y1="7.0000005"
       x2="1.9584055"
       y2="7.0000005" />
    <linearGradient
       inkscape:collect="always"
       xlink:href="#StandardGradient-1"
       id="linearGradient4465"
       gradientUnits="userSpaceOnUse"
       gradientTransform="matrix(0,-1,-1,0,16,19)"
       x1="14"
       y1="7.0000005"
       x2="1.9584055"
       y2="7.0000005" />
    <linearGradient
       inkscape:collect="always"
       xlink:href="#StandardGradient-1"
       id="linearGradient4468"
       gradientUnits="userSpaceOnUse"
       gradientTransform="matrix(0,-1,-1,0,16,19)"
       x1="14"
       y1="7.0000005"
       x2="1.9584055"
       y2="7.0000005" />
  </defs>
  <sodipodi:namedview
     id="base"
     pagecolor="#ffffff"
     bordercolor="#e7e7e7"
     borderopacity="1"
     inkscape:pageopacity="0.0"
     inkscape:pageshadow="2"
     inkscape:zoom="18.303965"
     inkscape:cx="17.554351"
     inkscape:cy="4.8462014"
     inkscape:document-units="px"
     inkscape:current-layer="layer1"
     showgrid="true"
     inkscape:showpageshadow="false"
     showguides="false"
     inkscape:guide-bbox="true"
     inkscape:window-width="1920"
     inkscape:window-height="1029"
     inkscape:window-x="0"
     inkscape:window-y="25"
     inkscape:window-maximized="1">
    <sodipodi:guide
       orientation="1,0"
       position="0,112"
       id="guide2383" />
    <sodipodi:guide
       orientation="0,1"
       position="26.278146,128"
       id="guide2385" />
    <sodipodi:guide
       orientation="1,0"
       position="128,54.082119"
       id="guide2387" />
    <sodipodi:guide
       orientation="0,1"
       position="78.156291,0"
       id="guide2389" />
    <sodipodi:guide
       orientation="0,1"
       position="60.863576,64.084768"
       id="guide2391" />
    <inkscape:grid
       type="xygrid"
       id="grid3672"
       visible="true"
       enabled="true"
       empspacing="8"
       snapvisiblegridlinesonly="true" />
  </sodipodi:namedview>
  <metadata
     id="metadata7">
    <rdf:RDF>
      <cc:Work
         rdf:about="">
        <dc:format>image/svg+xml</dc:format>
        <dc:type
           rdf:resource="http://purl.org/dc/dcmitype/StillImage" />
        <dc:title />
      </cc:Work>
    </rdf:RDF>
  </metadata>
  <g
     inkscape:label="Icon"
     inkscape:groupmode="layer"
     id="layer1"
     style="display:inline"
     transform="translate(-0.8611607,-0.9999999)">
    <path
       style="opacity:0.15;fill:#ffffff;fill-opacity:1;fill-rule:nonzero;stroke:none"
       d="m 11.267411,2.5937499 c -0.699706,0.1007517 -1.381423,0.5087566 -1.65625,1.1875 -0.294569,0.5802986 -0.273139,1.3450092 0.0625,1.90625 0.288585,0.62383 0.997462,0.8523943 1.375,1.40625 0.524071,0.6002592 -0.483203,-0.3034881 -0.875,-0.09375 -0.979306,0.00502 -1.958577,-0.01777 -2.9375003,0 -0.396857,0.00614 -1.0697693,0.6527126 -0.53125,0.03125 C 7.1610886,6.3739528 8.086594,6.2309536 8.454911,5.4999999 8.722095,4.9467357 8.75193,4.3094771 8.486161,3.7499999 8.074834,3.00307 7.184005,2.5102292 6.3299107,2.6874999 c -0.5601644,0.039131 -1.2464009,0.2570741 -1.71875,0.6875 -2.0623249,1.5305269 -3.1496044,4.2596517 -2.65625,6.7812501 0.3548346,2.021378 1.6512607,3.861165 3.4375,4.875 0.5352348,0.256559 1.1764599,0.304932 1.75,0.125 0.562599,-0.253389 1.0574393,-0.674923 1.2187503,-1.28125 0.180601,-0.637332 -0.0218,-1.35582 -0.5000003,-1.8125 -0.389939,-0.351834 -0.922417,-0.596475 -1.125,-1.125 -0.4066217,-0.533828 0.504605,0.255897 0.875,0.0625 0.9478133,-0.0046 1.8963143,0.01635 2.8437503,0 0.357834,-0.02435 0.886333,-0.543046 0.46875,0.03125 -0.25933,0.638711 -1.014001,0.774302 -1.28125,1.40625 -0.428904,0.769028 -0.377008,1.860553 0.34375,2.4375 0.602398,0.593597 1.636314,0.671604 2.3125,0.15625 1.520867,-0.891642 2.740286,-2.352335 3.25,-4.0625 0.794659,-2.4708582 0.07681,-5.4165587 -1.90625,-7.1250002 -0.485506,-0.3888222 -0.961034,-0.7809711 -1.5,-1.0625 -0.24845,-0.1656278 -0.584522,-0.1740389 -0.875,-0.1875 z m 0.03125,1 a 0.95043164,1.0560352 0 0 1 0.03125,0 0.95043164,1.0560352 0 0 1 0.28125,0.03125 c 0.03196,0.00799 0.06269,0.019728 0.09375,0.03125 a 0.95043164,1.0560352 0 0 1 0.15625,0.09375 c 0.03284,0.020662 0.06344,0.037466 0.09375,0.0625 0.899682,0.5194309 1.611243,1.2663957 2.125,2.15625 1.61143,2.791079 0.689631,6.4903021 -2.25,8.1875001 a 0.94877819,1.054198 0 0 1 -0.0625,0.0625 c -0.09567,0.06672 -0.20204,0.103099 -0.3125,0.125 a 0.94877819,1.054198 0 0 1 -0.78125,-0.1875 0.94877819,1.054198 0 0 1 -0.03125,-0.03125 c -0.01221,-0.01008 -0.01952,-0.02054 -0.03125,-0.03125 a 0.94877819,1.054198 0 0 1 -0.09375,-0.125 c -0.0086,-0.01129 -0.02316,-0.0195 -0.03125,-0.03125 a 0.94877819,1.054198 0 0 1 -0.09375,-0.15625 0.94877819,1.054198 0 0 1 -0.03125,-0.21875 0.94877819,1.054198 0 0 1 0,-0.1875 0.94877819,1.054198 0 0 1 0.125,-0.40625 0.94877819,1.054198 0 0 1 0.15625,-0.21875 0.94877819,1.054198 0 0 1 0.09375,-0.09375 0.94877819,1.054198 0 0 1 0.15625,-0.125 c 0.921646,-0.532113 1.5476,-1.413259 1.8125,-2.40625 0.06622,-0.2482481 0.106976,-0.4908361 0.125,-0.7500001 0.03605,-0.518328 -0.01357,-1.074689 -0.1875,-1.59375 -0.08696,-0.2595307 -0.200001,-0.501019 -0.34375,-0.75 -0.363926,-0.6303374 -0.91074,-1.1729981 -1.53125,-1.53125 -0.02207,-0.019176 -0.04294,-0.041263 -0.0625,-0.0625 a 0.95043164,1.0560352 0 0 1 -0.03125,-0.0625 c -0.0088,-0.011341 -0.02303,-0.019473 -0.03125,-0.03125 a 0.95043164,1.0560352 0 0 1 -0.0625,-0.0625 0.95043164,1.0560352 0 0 1 0.34375,-1.5625 0.95043164,1.0560352 0 0 1 0.28125,-0.09375 0.95043164,1.0560352 0 0 1 0.09375,-0.03125 z m -4.9062503,0.0625 a 1.0575707,0.95181355 0 0 1 0.0625,0 1.0575707,0.95181355 0 0 1 0.09375,0 1.0575707,0.95181355 0 0 1 0.125,0 1.0575707,0.95181355 0 0 1 0.625,1.65625 1.0575707,0.95181355 0 0 1 -0.25,0.15625 c -0.030353,0.013943 -0.061596,0.020331 -0.09375,0.03125 -0.6205109,0.3582519 -1.1673245,0.9009126 -1.53125,1.53125 -0.8624955,1.493886 -0.6742508,3.2390581 0.25,4.4687501 0.1540418,0.204949 0.3375924,0.389934 0.53125,0.5625 0.1936576,0.172566 0.3945883,0.335722 0.625,0.46875 a 1.054198,0.94877819 0 0 1 0.25,0.15625 c 0.021937,0.01939 0.042518,0.04141 0.0625,0.0625 a 1.054198,0.94877819 0 0 1 0.1875,0.25 c 0.00979,0.02032 0.022912,0.04166 0.03125,0.0625 a 1.054198,0.94877819 0 0 1 0.03125,0.125 1.054198,0.94877819 0 0 1 0.03125,0.1875 c 10e-4,0.01969 3.344e-4,0.04282 0,0.0625 a 1.054198,0.94877819 0 0 1 0,0.03125 1.054198,0.94877819 0 0 1 -0.09375,0.3125 A 1.054198,0.94877819 0 0 1 7.1424107,14 c -0.027565,0.02359 -0.063406,0.04175 -0.09375,0.0625 a 1.054198,0.94877819 0 0 1 -1.09375,0.125 1.054198,0.94877819 0 0 1 -0.0625,-0.03125 c -2.9396318,-1.697197 -3.86143,-5.3964211 -2.25,-8.1875001 0.5137576,-0.8898543 1.2253178,-1.6368191 2.125,-2.15625 0.02987,-0.012942 0.062649,-0.020916 0.09375,-0.03125 a 1.0560352,0.95043164 0 0 1 0.3125,-0.0625 1.0560352,0.95043164 0 0 1 0.03125,0 1.0575707,0.95181355 0 0 1 0.09375,-0.03125 1.0575707,0.95181355 0 0 1 0.09375,-0.03125 z m -0.03125,4.34375 1,0 3.0000003,0 1,0 c 0.277,0 0.5,0.223 0.5,0.5 l 0,1 c 0,0.277 -0.223,0.5 -0.5,0.5 l -1,0 -3.0000003,0 -1,0 c -0.277,0 -0.5,-0.223 -0.5,-0.5 l 0,-1 c 0,-0.277 0.223,-0.5 0.5,-0.5 z"
       id="path4460"
       inkscape:connector-curvature="0" />
    <path
       style="fill:url(#linearGradient4435);fill-opacity:1;fill-rule:nonzero;stroke:none"
       d="m 11.204911,3.6249999 c -0.725025,0.1316264 -1.014792,1.3734852 -0.4375,1.875 0.62051,0.3582519 1.167324,0.9009126 1.53125,1.53125 1.149994,1.991848 0.437043,4.4357741 -1.40625,5.5000001 -0.401975,0.215903 -0.625753,0.775346 -0.5,1.25 0.242454,0.565588 0.990861,0.760824 1.4375,0.375 2.939631,-1.697198 3.86143,-5.3964211 2.25,-8.1875001 -0.513757,-0.8898543 -1.225318,-1.6368191 -2.125,-2.15625 -0.211517,-0.1746828 -0.490797,-0.2445029 -0.75,-0.1875 z m -5.0000003,0.09375 c -0.1511004,0.00258 -0.301428,0.034792 -0.4375,0.09375 -0.8996822,0.5194309 -1.6112424,1.2663957 -2.125,2.15625 -1.61143,2.791079 -0.6896318,6.4903031 2.25,8.1875001 0.4855475,0.242954 1.1728064,0.06367 1.4375,-0.375 0.2266428,-0.445335 -0.00959,-1.035914 -0.5,-1.25 C 4.9866171,11.467024 4.2736667,9.0230979 5.4236607,7.0312499 5.7875862,6.4009125 6.3343998,5.8582518 6.9549107,5.4999999 7.4726683,5.3241815 7.7651041,4.7399167 7.5687545,4.2735866 7.372405,3.8072564 6.7226683,3.5429315 6.2049107,3.7187499 z m 0.15625,4.28125 c -0.277,0 -0.5,0.223 -0.5,0.5 l 0,1 c 0,0.277 0.223,0.5 0.5,0.5 l 5.0000003,0 c 0.277,0 0.5,-0.223 0.5,-0.5 l 0,-1 c 0,-0.277 -0.223,-0.5 -0.5,-0.5 z"
       id="path4379"
       inkscape:connector-curvature="0"
       sodipodi:nodetypes="ccscccsccccscccscscsssssssss" />
    <path
       style="opacity:0.5;fill:#000000;fill-opacity:1;fill-rule:nonzero;stroke:none"
       d="m 11.329911,3.5937499 c -0.04224,0.00728 -0.08403,0.017726 -0.125,0.03125 -0.590446,0.1083253 -0.964754,0.9420107 -0.6875,1.53125 0.140347,-0.2807789 0.401758,-0.4827783 0.6875,-0.53125 0.258811,-0.056809 0.538042,0.012999 0.75,0.1875 0.899682,0.5194309 1.611243,1.2663957 2.125,2.15625 0.45337,0.7852593 0.717441,1.635781 0.78125,2.5 0.108889,-1.18846 -0.154856,-2.4150531 -0.78125,-3.5 -0.513757,-0.8898543 -1.225318,-1.6368191 -2.125,-2.15625 -0.176557,-0.151353 -0.402239,-0.2303415 -0.625,-0.21875 z m -4.8750003,0.0625 c -0.08576,0.011505 -0.1699344,0.032548 -0.25,0.0625 -0.1510399,0.0026 -0.3013635,0.034818 -0.4375,0.09375 -0.8996822,0.5194309 -1.6112424,1.2663957 -2.125,2.15625 -0.6263943,1.0849469 -0.8901392,2.31154 -0.78125,3.5 0.063809,-0.864219 0.3278804,-1.7147407 0.78125,-2.5 0.5137576,-0.8898543 1.2253178,-1.6368191 2.125,-2.15625 0.1361365,-0.058932 0.2864601,-0.091145 0.4375,-0.09375 0.4604112,-0.1553502 1.0306887,0.02547 1.28125,0.40625 0.448469,-0.607761 -0.2288184,-1.5723826 -1.03125,-1.46875 z m -0.09375,4.34375 c -0.277,0 -0.5,0.223 -0.5,0.5 l 0,1 c 0,-0.277 0.223,-0.5 0.5,-0.5 l 5.0000003,0 c 0.277,0 0.5,0.223 0.5,0.5 l 0,-1 c 0,-0.277 -0.223,-0.5 -0.5,-0.5 z m -1.4375,1.5 c -0.2401407,1.6083981 0.4965964,3.2173861 1.90625,4.0312501 0.1775547,0.07497 0.3309986,0.195531 0.4375,0.34375 0.022812,-0.03013 0.043691,-0.06145 0.0625,-0.09375 0.2272262,-0.445894 -0.00912,-1.036754 -0.5,-1.25 -1.1131376,-0.64267 -1.7788691,-1.785689 -1.90625,-3.0312501 z m 7.8750003,0 c -0.127381,1.2455611 -0.793113,2.3885801 -1.90625,3.0312501 -0.402742,0.214317 -0.626717,0.774254 -0.5,1.25 0.02541,0.06582 0.05688,0.128756 0.09375,0.1875 0.09152,-0.186899 0.235264,-0.341698 0.40625,-0.4375 1.409653,-0.813864 2.146391,-2.422852 1.90625,-4.0312501 z"
       id="path4438"
       inkscape:connector-curvature="0"
       sodipodi:nodetypes="cccccscscccccscsccccsscsscssscccccccccccc" />
    <path
       style="opacity:0.3;fill:#ffffff;fill-opacity:1;fill-rule:nonzero;stroke:none"
       d="m 7.4861607,5.1249999 c -0.1256824,0.1723518 -0.3153157,0.3062106 -0.53125,0.375 -0.6205109,0.3582519 -1.1673245,0.9009126 -1.53125,1.53125 -0.4555297,0.7890006 -0.5835548,1.651732 -0.5,2.46875 0.073873,-0.494778 0.2294607,-1.000162 0.5,-1.46875 0.3639255,-0.6303374 0.9107391,-1.1729981 1.53125,-1.53125 0.5732851,-0.1974484 0.8447297,-0.900011 0.53125,-1.375 z m 3.0312503,0.03125 c -0.216126,0.4361366 -0.104037,1.0386133 0.25,1.34375 0.62051,0.3582519 1.167324,0.9009126 1.53125,1.53125 0.270539,0.468588 0.426128,0.973972 0.5,1.46875 0.08356,-0.817018 -0.04447,-1.6797494 -0.5,-2.46875 -0.363926,-0.6303374 -0.91074,-1.1729981 -1.53125,-1.53125 -0.103837,-0.093359 -0.189647,-0.2113475 -0.25,-0.34375 z m -7.6562503,4.3125 c -0.1629895,2.2075101 0.9186723,4.4678031 3.03125,5.6875001 0.4849026,0.242499 1.1718757,0.06329 1.4375,-0.375 0.148397,-0.285939 0.1240472,-0.639011 -0.0625,-0.90625 -0.2969278,0.378538 -0.9254287,0.507095 -1.375,0.28125 -1.7969396,-1.037463 -2.8600164,-2.818589 -3.03125,-4.6875001 z m 12.0000003,0 c -0.171234,1.8689111 -1.234311,3.6500361 -3.03125,4.6875001 -0.394106,0.346808 -1.039106,0.256808 -1.34375,-0.1875 -0.126834,0.242457 -0.161436,0.542348 -0.09375,0.8125 0.24452,0.564741 0.992282,0.759809 1.4375,0.375 2.112577,-1.219698 3.194239,-3.479991 3.03125,-5.6875001 z m -9.0000003,0.03125 0,1.0000001 c 0,0.277 0.223,0.5 0.5,0.5 l 5.0000003,0 c 0.277,0 0.5,-0.223 0.5,-0.5 l 0,-1.0000001 c 0,0.277 -0.223,0.5 -0.5,0.5 l -5.0000003,0 c -0.277,0 -0.5,-0.223 -0.5,-0.5 z"
       id="path4447"
       inkscape:connector-curvature="0"
       sodipodi:nodetypes="ccscsccccscscccccccccccccccsssscssc" />
  </g>
</svg>
