<?xml version="1.0" encoding="UTF-8" standalone="no"?>
<!-- Created with Inkscape (http://www.inkscape.org/) -->

<svg
   xmlns:dc="http://purl.org/dc/elements/1.1/"
   xmlns:cc="http://creativecommons.org/ns#"
   xmlns:rdf="http://www.w3.org/1999/02/22-rdf-syntax-ns#"
   xmlns:svg="http://www.w3.org/2000/svg"
   xmlns="http://www.w3.org/2000/svg"
   xmlns:xlink="http://www.w3.org/1999/xlink"
   xmlns:sodipodi="http://sodipodi.sourceforge.net/DTD/sodipodi-0.dtd"
   xmlns:inkscape="http://www.inkscape.org/namespaces/inkscape"
   width="22"
   height="22"
   id="svg2"
   sodipodi:version="0.32"
   inkscape:version="0.48.1 r9760"
   version="1.0"
   sodipodi:docname="audio-volume-high3.svg"
   inkscape:output_extension="org.inkscape.output.svg.inkscape"
   style="display:inline"
   inkscape:export-filename="/home/matthieu/Eye-Candy/Faience/0.1/sources/status/small/audio-volume-high.png"
   inkscape:export-xdpi="90"
   inkscape:export-ydpi="90">
  <defs
     id="defs4">
    <linearGradient
       id="linearGradient3279">
      <stop
         style="stop-color:#f08e00;stop-opacity:1;"
         offset="0"
         id="stop3281" />
      <stop
         style="stop-color:#ffd200;stop-opacity:1;"
         offset="1"
         id="stop3283" />
    </linearGradient>
    <linearGradient
       inkscape:collect="always"
       xlink:href="#StandardGradient"
       id="linearGradient2934"
       gradientUnits="userSpaceOnUse"
       gradientTransform="matrix(1,0,0,-1,1,22.03125)"
       x1="7"
       y1="6"
       x2="7"
       y2="16" />
    <linearGradient
       inkscape:collect="always"
       xlink:href="#StandardGradient"
       id="linearGradient2936"
       gradientUnits="userSpaceOnUse"
       gradientTransform="matrix(1,0,0,-1,1,22.03125)"
       x1="10"
       y1="7"
       x2="10"
       y2="15" />
    <linearGradient
       inkscape:collect="always"
       xlink:href="#StandardGradient"
       id="linearGradient2938"
       gradientUnits="userSpaceOnUse"
       gradientTransform="matrix(1,0,0,-1,1,22.03125)"
       x1="13"
       y1="5"
       x2="13"
       y2="17" />
    <linearGradient
       inkscape:collect="always"
       xlink:href="#StandardGradient"
       id="linearGradient2940"
       gradientUnits="userSpaceOnUse"
       gradientTransform="matrix(1,0,0,-1,1,22.03125)"
       x1="16"
       y1="3"
       x2="16"
       y2="19" />
    <radialGradient
       inkscape:collect="always"
       xlink:href="#StandardGradient"
       id="radialGradient3857"
       cx="12"
       cy="12.447369"
       fx="12"
       fy="12.447369"
       r="6"
       gradientTransform="matrix(2.6666667,-9.1385016e-8,5.7115635e-8,1.6666667,-20.000001,-7.7456132)"
       gradientUnits="userSpaceOnUse" />
    <linearGradient
       id="StandardGradient"
       gradientTransform="scale(0.9219544,1.0846523)"
       x1="11.998966"
       y1="0.92195445"
       x2="11.998966"
       y2="19.387045"
       gradientUnits="userSpaceOnUse">
      <stop
         style="stop-color:#000000;stop-opacity:0.23529412;"
         offset="0"
         id="stop3283-1" />
      <stop
         id="stop3850"
         offset="0.69999999"
         style="stop-color:#000000;stop-opacity:0.39215686;" />
      <stop
         style="stop-color:#000000;stop-opacity:0.55;"
         offset="1"
         id="stop2651" />
    </linearGradient>
    <radialGradient
       r="6"
       fy="12.447369"
       fx="12"
       cy="12.447369"
       cx="12"
       gradientTransform="matrix(2.6666667,-9.1385016e-8,5.7115635e-8,1.6666667,-81.000001,-7.7456132)"
       gradientUnits="userSpaceOnUse"
       id="radialGradient3094"
       xlink:href="#StandardGradient"
       inkscape:collect="always" />
    <linearGradient
       inkscape:collect="always"
       xlink:href="#StandardGradient"
       id="linearGradient5517"
       gradientUnits="userSpaceOnUse"
       gradientTransform="matrix(1,0,0,-1,1,22.03125)"
       x1="16"
       y1="3"
       x2="16"
       y2="19" />
    <linearGradient
       inkscape:collect="always"
       xlink:href="#StandardGradient"
       id="linearGradient5522"
       gradientUnits="userSpaceOnUse"
       gradientTransform="matrix(1,0,0,-1,1,22.03125)"
       x1="16"
       y1="3"
       x2="16"
       y2="19" />
    <linearGradient
       inkscape:collect="always"
       xlink:href="#StandardGradient"
       id="linearGradient5526"
       gradientUnits="userSpaceOnUse"
       gradientTransform="matrix(1,0,0,-1,1,22.03125)"
       x1="16"
       y1="3"
       x2="16"
       y2="19" />
    <linearGradient
       inkscape:collect="always"
       xlink:href="#StandardGradient"
       id="linearGradient5528"
       gradientUnits="userSpaceOnUse"
       gradientTransform="matrix(1,0,0,-1,1,22.03125)"
       x1="16"
       y1="3"
       x2="16"
       y2="19" />
    <radialGradient
       inkscape:collect="always"
       xlink:href="#StandardGradient"
       id="radialGradient3786"
       cx="13"
       cy="12.055992"
       fx="13"
       fy="12.055992"
       r="9"
       gradientTransform="matrix(1.6666667,-9.5238096e-8,4.4444445e-8,0.7777778,-8.6666672,2.6231184)"
       gradientUnits="userSpaceOnUse" />
    <radialGradient
       inkscape:collect="always"
       xlink:href="#StandardGradient"
       id="radialGradient3040"
       gradientUnits="userSpaceOnUse"
       gradientTransform="matrix(1.7185356,-9.8202033e-8,4.5827616e-8,0.80198329,-10.446484,2.0969147)"
       cx="13"
       cy="12.055992"
       fx="13"
       fy="12.055992"
       r="9" />
    <radialGradient
       inkscape:collect="always"
       xlink:href="#StandardGradient"
       id="radialGradient3042"
       gradientUnits="userSpaceOnUse"
       gradientTransform="matrix(1.7185356,-9.8202033e-8,4.5827616e-8,0.80198329,-8.384241,2.0969147)"
       cx="13"
       cy="12.055992"
       fx="13"
       fy="12.055992"
       r="9" />
    <radialGradient
       inkscape:collect="always"
       xlink:href="#StandardGradient"
       id="radialGradient3046"
       gradientUnits="userSpaceOnUse"
       gradientTransform="matrix(1.7185356,-9.8202033e-8,4.5827616e-8,0.80198329,-9.4153623,2.0969147)"
       cx="13"
       cy="12.055992"
       fx="13"
       fy="12.055992"
       r="9" />
    <radialGradient
       inkscape:collect="always"
       xlink:href="#StandardGradient"
       id="radialGradient3832"
       gradientUnits="userSpaceOnUse"
       gradientTransform="matrix(1.6666667,-9.5238096e-8,4.4444445e-8,0.7777778,-8.6666672,22.623118)"
       cx="13"
       cy="12.055992"
       fx="13"
       fy="12.055992"
       r="9" />
    <radialGradient
       inkscape:collect="always"
       xlink:href="#StandardGradient"
       id="radialGradient3843"
       cx="13"
       cy="12.239852"
       fx="13"
       fy="12.239852"
       r="10.09375"
       gradientTransform="matrix(1.4860681,1.5854118e-8,0,0.89164084,-6.3188853,1.0864476)"
       gradientUnits="userSpaceOnUse" />
    <radialGradient
       inkscape:collect="always"
       xlink:href="#StandardGradient"
       id="radialGradient3861"
       gradientUnits="userSpaceOnUse"
       gradientTransform="matrix(1.4860681,1.5854118e-8,0,0.89164084,-6.3188853,1.0864476)"
       cx="13"
       cy="12.239852"
       fx="13"
       fy="12.239852"
       r="10.09375" />
    <radialGradient
       inkscape:collect="always"
       xlink:href="#StandardGradient"
       id="radialGradient3865"
       gradientUnits="userSpaceOnUse"
       gradientTransform="matrix(1.4860681,1.5854118e-8,0,0.89164084,-6.3188853,2.0864476)"
       cx="13"
       cy="12.239852"
       fx="13"
       fy="12.239852"
       r="10.09375" />
    <radialGradient
       inkscape:collect="always"
       xlink:href="#StandardGradient"
       id="radialGradient3872"
       gradientUnits="userSpaceOnUse"
       gradientTransform="matrix(1.4860681,1.5854118e-8,0,0.89164084,-6.3188853,1.0864476)"
       cx="13"
       cy="12.239852"
       fx="13"
       fy="12.239852"
       r="10.09375" />
    <radialGradient
       inkscape:collect="always"
       xlink:href="#StandardGradient"
       id="radialGradient3876"
       gradientUnits="userSpaceOnUse"
       gradientTransform="matrix(1.4860681,1.5854118e-8,0,0.89164084,-6.3188853,1.0864476)"
       cx="13"
       cy="12.239852"
       fx="13"
       fy="12.239852"
       r="10.09375" />
    <radialGradient
       inkscape:collect="always"
       xlink:href="#StandardGradient"
       id="radialGradient3878"
       gradientUnits="userSpaceOnUse"
       gradientTransform="matrix(1.4860681,1.5854118e-8,0,0.89164084,-6.3188853,1.0864476)"
       cx="13"
       cy="12.239852"
       fx="13"
       fy="12.239852"
       r="10.09375" />
    <radialGradient
       inkscape:collect="always"
       xlink:href="#StandardGradient"
       id="radialGradient3883"
       gradientUnits="userSpaceOnUse"
       gradientTransform="matrix(1.4860681,1.5854118e-8,0,0.89164084,-6.3188853,2.0864476)"
       cx="13"
       cy="12.239852"
       fx="13"
       fy="12.239852"
       r="10.09375" />
    <radialGradient
       inkscape:collect="always"
       xlink:href="#StandardGradient"
       id="radialGradient3887"
       gradientUnits="userSpaceOnUse"
       gradientTransform="matrix(1.4860681,1.5854118e-8,0,0.89164084,-6.3188853,1.0864476)"
       cx="13"
       cy="12.239852"
       fx="13"
       fy="12.239852"
       r="10.09375" />
    <radialGradient
       inkscape:collect="always"
       xlink:href="#StandardGradient"
       id="radialGradient3894"
       gradientUnits="userSpaceOnUse"
       gradientTransform="matrix(1.4860681,1.5854118e-8,0,0.89164084,-6.3188853,1.0864476)"
       cx="13"
       cy="12.239852"
       fx="13"
       fy="12.239852"
       r="10.09375" />
    <radialGradient
       inkscape:collect="always"
       xlink:href="#StandardGradient"
       id="radialGradient3898"
       gradientUnits="userSpaceOnUse"
       gradientTransform="matrix(1.4860681,1.5854118e-8,0,0.89164084,-6.3188853,1.0864476)"
       cx="13"
       cy="12.239852"
       fx="13"
       fy="12.239852"
       r="10.09375" />
  </defs>
  <sodipodi:namedview
     id="base"
     pagecolor="#818181"
     bordercolor="#ffcfcf"
     borderopacity="1"
     inkscape:pageopacity="1"
     inkscape:pageshadow="2"
     inkscape:zoom="22.640002"
     inkscape:cx="8.4802785"
     inkscape:cy="5.0223569"
     inkscape:document-units="px"
     inkscape:current-layer="layer1"
     showgrid="true"
     inkscape:showpageshadow="false"
     showguides="true"
     inkscape:guide-bbox="true"
     inkscape:window-width="1920"
     inkscape:window-height="1030"
     inkscape:window-x="0"
     inkscape:window-y="25"
     inkscape:window-maximized="1"
     borderlayer="true"
     inkscape:snap-global="true">
    <sodipodi:guide
       orientation="0,1"
       position="26.278146,128"
       id="guide2385" />
    <sodipodi:guide
       orientation="1,0"
       position="128,54.082119"
       id="guide2387" />
    <sodipodi:guide
       orientation="0,1"
       position="60.863576,64.084768"
       id="guide2391" />
    <inkscape:grid
       type="xygrid"
       id="grid3672"
       visible="true"
       enabled="true"
       empspacing="8"
       snapvisiblegridlinesonly="true" />
    <sodipodi:guide
       orientation="1,0"
       position="13,6"
       id="guide3013" />
    <sodipodi:guide
       orientation="0,1"
       position="18,10"
       id="guide3015" />
  </sodipodi:namedview>
  <metadata
     id="metadata7">
    <rdf:RDF>
      <cc:Work
         rdf:about="">
        <dc:format>image/svg+xml</dc:format>
        <dc:type
           rdf:resource="http://purl.org/dc/dcmitype/StillImage" />
        <dc:title></dc:title>
      </cc:Work>
    </rdf:RDF>
  </metadata>
  <g
     inkscape:label="Icon"
     inkscape:groupmode="layer"
     id="layer1"
     style="display:inline">
    <path
       style="color:#000000;fill:#ffffff;fill-opacity:1;fill-rule:nonzero;stroke:none;stroke-width:1;marker:none;visibility:visible;display:inline;overflow:visible;enable-background:accumulate;opacity:0.05"
       d="M 17.65625 1.46875 A 0.80002559 0.80002559 0 0 0 17.3125 1.625 L 15.625 2.78125 A 0.80002559 0.80002559 0 0 0 15.5 4 C 17.228832 5.7134362 18.28125 8.1415456 18.28125 10.78125 C 18.28125 13.404921 17.245239 15.786011 15.53125 17.5 A 0.80002559 0.80002559 0 0 0 15.65625 18.71875 L 17.34375 19.875 A 0.80002559 0.80002559 0 0 0 18.375 19.78125 C 20.589459 17.43227 22 14.276157 22 10.78125 C 22.000001 7.2694948 20.579463 4.0737532 18.34375 1.71875 A 0.80002559 0.80002559 0 0 0 17.75 1.46875 A 0.80002559 0.80002559 0 0 0 17.65625 1.46875 z M 17.75 2.28125 C 19.854814 4.4983702 21.187501 7.4851167 21.1875 10.78125 C 21.1875 14.06171 19.868377 17.004837 17.78125 19.21875 L 16.09375 18.0625 C 17.954035 16.202215 19.09375 13.6191 19.09375 10.78125 C 19.09375 7.9264391 17.942256 5.300516 16.0625 3.4375 L 17.75 2.28125 z M 7.875 3.1875 A 0.80002559 0.80002559 0 0 0 7.4375 3.4375 L 3.6875 7.1875 L 1.5 7.1875 C 0.79366699 7.1875 0.1875 7.793667 0.1875 8.5 L 0.1875 13.5 C 0.1875 14.206333 0.79366699 14.8125 1.5 14.8125 L 3.6875 14.8125 L 7.4375 18.5625 A 0.80002559 0.80002559 0 0 0 8.8125 18 L 8.8125 8 A 0.80002559 0.80002559 0 0 0 9.0625 8.4375 C 9.6787665 9.0524963 10.0625 9.8773584 10.0625 10.78125 C 10.0625 11.671101 9.7026269 12.441357 9.09375 13.0625 A 0.80002559 0.80002559 0 0 0 9.1875 14.28125 L 10.9375 15.5 A 0.80002559 0.80002559 0 0 0 12 15.375 C 13.069034 14.148953 13.75 12.537684 13.75 10.78125 C 13.75 9.0067435 13.060476 7.3603979 11.96875 6.125 A 0.80002559 0.80002559 0 0 0 10.90625 6 L 9.15625 7.21875 A 0.80002559 0.80002559 0 0 0 8.8125 7.75 L 8.8125 4 A 0.80002559 0.80002559 0 0 0 7.96875 3.1875 A 0.80002559 0.80002559 0 0 0 7.875 3.1875 z M 14.40625 3.65625 A 0.80002559 0.80002559 0 0 0 14.125 3.8125 L 12.4375 4.96875 A 0.80002559 0.80002559 0 0 0 12.3125 5.0625 L 12.28125 5.09375 A 0.80002559 0.80002559 0 0 0 12.28125 6.21875 C 13.463244 7.3863128 14.1875 8.9938177 14.1875 10.78125 C 14.1875 12.554243 13.482491 14.111259 12.3125 15.28125 A 0.80002559 0.80002559 0 0 0 12.3125 16.40625 L 12.34375 16.4375 A 0.80002559 0.80002559 0 0 0 12.46875 16.53125 L 14.1875 17.6875 A 0.80002559 0.80002559 0 0 0 15.21875 17.5625 C 16.851015 15.772335 17.875 13.396698 17.875 10.78125 C 17.875 8.1366076 16.81905 5.7317927 15.15625 3.9375 A 0.80002559 0.80002559 0 0 0 14.5 3.65625 A 0.80002559 0.80002559 0 0 0 14.40625 3.65625 z M 8 4 L 8 18 L 4 14 L 1.5 14 C 1.223 14 1 13.777 1 13.5 L 1 8.5 C 1 8.223 1.223 8 1.5 8 L 4 8 L 8 4 z M 14.5625 4.46875 C 16.096232 6.1237684 17.0625 8.3484219 17.0625 10.78125 C 17.0625 13.190458 16.130795 15.379789 14.625 17.03125 L 12.90625 15.875 L 12.875 15.84375 C 14.181431 14.537319 15 12.773376 15 10.78125 C 15 8.7730748 14.168774 6.9650966 12.84375 5.65625 L 12.875 5.625 L 14.5625 4.46875 z M 11.375 6.65625 C 12.34092 7.7492854 12.9375 9.2091143 12.9375 10.78125 C 12.9375 12.3385 12.355874 13.754652 11.40625 14.84375 L 9.65625 13.625 C 10.38507 12.881498 10.875 11.903846 10.875 10.78125 C 10.875 9.6422021 10.372739 8.6211979 9.625 7.875 L 11.375 6.65625 z "
       id="path3896" />
    <path
       style="opacity:1;color:#000000;fill:url(#radialGradient3843);fill-opacity:1;fill-rule:nonzero;stroke:none;stroke-width:1;marker:none;visibility:visible;display:inline;overflow:visible;enable-background:accumulate"
       d="M 17.75 2.28125 L 16.0625 3.4375 C 17.942256 5.300516 19.09375 7.9264391 19.09375 10.78125 C 19.09375 13.6191 17.954035 16.202215 16.09375 18.0625 L 17.78125 19.21875 C 19.868377 17.004837 21.1875 14.06171 21.1875 10.78125 C 21.187501 7.4851167 19.854814 4.4983702 17.75 2.28125 z M 8 4 L 4 8 L 1.5 8 C 1.223 8 1 8.223 1 8.5 L 1 13.5 C 1 13.777 1.223 14 1.5 14 L 4 14 L 8 18 L 8 4 z M 14.5625 4.46875 L 12.875 5.625 L 12.84375 5.65625 C 14.168774 6.9650966 15 8.7730748 15 10.78125 C 15 12.773376 14.181431 14.537319 12.875 15.84375 L 12.90625 15.875 L 14.625 17.03125 C 16.130795 15.379789 17.0625 13.190458 17.0625 10.78125 C 17.0625 8.3484219 16.096232 6.1237684 14.5625 4.46875 z M 11.375 6.65625 L 9.625 7.875 C 10.372739 8.6211979 10.875 9.6422021 10.875 10.78125 C 10.875 11.903846 10.38507 12.881498 9.65625 13.625 L 11.40625 14.84375 C 12.355874 13.754652 12.9375 12.3385 12.9375 10.78125 C 12.9375 9.2091143 12.34092 7.7492854 11.375 6.65625 z "
       id="rect3050" />
    <path
       style="fill:url(#radialGradient3832);fill-opacity:1;fill-rule:nonzero;stroke:none"
       d="m 7.25,26.03125 c -0.1236886,-8.6e-5 -0.2318178,0.05771 -0.34375,0.15625 l -1.9375,1.6875 -2,0 C 2.4260626,27.875 2,28.337311 2,28.90625 l 0,4.25 c 0,0.568939 0.4260625,1 0.96875,1 l 1.96875,0 1.96875,1.71875 C 6.968141,35.93321 7.054464,35.97232 7.125,36 c 0.054047,0.01898 0.070595,0.03126 0.125,0.03125 0.1632157,-2.5e-5 0.3391835,-0.09186 0.46875,-0.25 C 7.8915051,35.57039 8.00323,35.242111 8,34.90625 l 0,-1.75 0,-4.25 0,-1.75 C 8.0014529,26.76429 7.849127,26.38389 7.625,26.1875 7.5129367,26.089306 7.3736886,26.031336 7.25,26.03125 z"
       id="path3034"
       inkscape:connector-curvature="0" />
    <path
       style="opacity:0.3;color:#000000;fill:#000000;fill-opacity:1;fill-rule:nonzero;stroke:none;stroke-width:1;marker:none;visibility:visible;display:inline;overflow:visible;enable-background:accumulate"
       d="M 17.75 2.28125 L 16.0625 3.4375 C 17.942256 5.300516 19.09375 7.9264391 19.09375 10.78125 C 19.09375 13.6191 17.954035 16.202215 16.09375 18.0625 L 17.78125 19.21875 C 19.868377 17.004837 21.1875 14.06171 21.1875 10.78125 C 21.187501 7.4851167 19.854814 4.4983702 17.75 2.28125 z M 17.65625 2.96875 C 19.504116 5.0592269 20.687501 7.7814416 20.6875 10.78125 C 20.6875 13.763742 19.517455 16.44697 17.6875 18.53125 L 16.84375 17.96875 C 18.554609 16.055627 19.59375 13.543213 19.59375 10.78125 C 19.59375 8.0029898 18.542601 5.4534957 16.8125 3.53125 L 17.65625 2.96875 z M 8 4 L 4 8 L 1.5 8 C 1.223 8 1 8.223 1 8.5 L 1 13.5 C 1 13.777 1.223 14 1.5 14 L 4 14 L 8 18 L 8 4 z M 14.5625 4.46875 L 12.875 5.625 L 12.84375 5.65625 C 14.168774 6.9650966 15 8.7730748 15 10.78125 C 15 12.773376 14.181431 14.537319 12.875 15.84375 L 12.90625 15.875 L 14.625 17.03125 C 16.130795 15.379789 17.0625 13.190458 17.0625 10.78125 C 17.0625 8.3484219 16.096232 6.1237684 14.5625 4.46875 z M 14.46875 5.15625 C 15.748254 6.6807978 16.5625 8.6434341 16.5625 10.78125 C 16.5625 12.897889 15.782892 14.827016 14.53125 16.34375 L 13.625 15.75 C 14.78239 14.407215 15.5 12.699409 15.5 10.78125 C 15.5 8.8477279 14.76948 7.1038293 13.59375 5.75 L 14.46875 5.15625 z M 7.5 5.25 L 7.5 16.75 L 4.375 13.625 A 0.51511598 0.51511598 0 0 0 4 13.5 L 1.5 13.5 L 1.5 8.5 L 4 8.5 A 0.51511598 0.51511598 0 0 0 4.375 8.375 L 7.5 5.25 z M 11.375 6.65625 L 9.625 7.875 C 10.372739 8.6211979 10.875 9.6422021 10.875 10.78125 C 10.875 11.903846 10.38507 12.881498 9.65625 13.625 L 11.40625 14.84375 C 12.355874 13.754652 12.9375 12.3385 12.9375 10.78125 C 12.9375 9.2091143 12.34092 7.7492854 11.375 6.65625 z M 11.21875 7.375 C 11.940648 8.3309804 12.4375 9.4955501 12.4375 10.78125 C 12.4375 12.047548 11.983606 13.180704 11.28125 14.125 L 10.375 13.5 C 10.960989 12.741809 11.375 11.831014 11.375 10.78125 C 11.375 9.711123 10.952009 8.7748759 10.34375 8 L 11.21875 7.375 z "
       id="path3868" />
    <path
       style="color:#000000;fill:#000000;fill-opacity:1;fill-rule:nonzero;stroke:none;stroke-width:1;marker:none;visibility:visible;display:inline;overflow:visible;enable-background:accumulate;opacity:0.3"
       d="M 17.75 2.28125 L 16.0625 3.4375 C 16.265494 3.6386865 16.439524 3.8441923 16.625 4.0625 L 17.75 3.28125 C 19.746813 5.3846065 21.027904 8.1855168 21.15625 11.28125 C 21.163122 11.114754 21.1875 10.949575 21.1875 10.78125 C 21.187501 7.4851167 19.854814 4.4983702 17.75 2.28125 z M 8 4 L 4 8 L 1.5 8 C 1.223 8 1 8.223 1 8.5 L 1 9.5 C 1 9.223 1.223 9 1.5 9 L 4 9 L 8 5 L 8 4 z M 14.5625 4.46875 L 12.875 5.625 L 12.84375 5.65625 C 13.045689 5.8557233 13.228445 6.0596483 13.40625 6.28125 L 14.5625 5.46875 C 15.990355 7.0095191 16.908822 9.044726 17.03125 11.28125 C 17.040012 11.117138 17.0625 10.947563 17.0625 10.78125 C 17.0625 8.3484219 16.096232 6.1237684 14.5625 4.46875 z M 11.375 6.65625 L 9.625 7.875 C 9.8215761 8.0711709 9.9982711 8.2686918 10.15625 8.5 L 11.375 7.65625 C 12.22018 8.612656 12.778855 9.8399275 12.90625 11.1875 C 12.915595 11.049191 12.9375 10.922001 12.9375 10.78125 C 12.9375 9.2091143 12.34092 7.7492854 11.375 6.65625 z M 10.8125 11.28125 C 10.689868 12.191389 10.272821 12.996008 9.65625 13.625 L 10.1875 14 C 10.618681 13.36611 10.875 12.608003 10.875 11.78125 C 10.875 11.612245 10.833776 11.444546 10.8125 11.28125 z M 14.96875 11.28125 C 14.845701 13.070871 14.072467 14.646283 12.875 15.84375 L 12.90625 15.875 L 13.4375 16.21875 C 14.410748 14.998276 15 13.468294 15 11.78125 C 15 11.613757 14.980119 11.445784 14.96875 11.28125 z M 19.0625 11.28125 C 18.937643 13.922395 17.844583 16.311667 16.09375 18.0625 L 16.65625 18.4375 C 18.172461 16.643719 19.09375 14.312641 19.09375 11.78125 C 19.09375 11.613284 19.070386 11.447523 19.0625 11.28125 z "
       id="path3845" />
    <path
       style="color:#000000;fill:#ffffff;fill-opacity:1;fill-rule:nonzero;stroke:none;stroke-width:1;marker:none;visibility:visible;display:inline;overflow:visible;enable-background:accumulate;opacity:0.2"
       d="M 16.625 4.0625 L 16.0625 4.4375 C 17.831658 6.1909032 18.936352 8.6214943 19.0625 11.28125 C 19.070305 11.116141 19.09375 10.948218 19.09375 10.78125 C 19.09375 8.2347292 18.157055 5.8657529 16.625 4.0625 z M 13.40625 6.28125 L 12.875 6.625 L 12.84375 6.65625 C 14.05826 7.8559315 14.843809 9.4730836 14.96875 11.28125 C 14.979947 11.118403 15 10.947404 15 10.78125 C 15 9.0791284 14.395118 7.5136908 13.40625 6.28125 z M 10.15625 8.5 L 9.625 8.875 C 10.261794 9.5104815 10.690384 10.343978 10.8125 11.28125 C 10.834826 11.115556 10.875 10.954146 10.875 10.78125 C 10.875 9.9416509 10.599194 9.1485452 10.15625 8.5 z M 17.03125 11.28125 C 16.913081 13.494473 16.026847 15.493793 14.625 17.03125 L 13.4375 16.21875 C 13.261499 16.439459 13.075072 16.643678 12.875 16.84375 L 12.90625 16.875 L 14.625 18.03125 C 16.130795 16.379789 17.0625 14.190458 17.0625 11.78125 C 17.0625 11.613307 17.040328 11.44709 17.03125 11.28125 z M 21.15625 11.28125 C 21.0292 14.359564 19.761283 17.118436 17.78125 19.21875 L 16.65625 18.4375 C 16.472692 18.654661 16.294642 18.861608 16.09375 19.0625 L 17.78125 20.21875 C 19.868377 18.004837 21.1875 15.06171 21.1875 11.78125 C 21.1875 11.612121 21.163192 11.448688 21.15625 11.28125 z M 12.90625 11.34375 C 12.78194 12.672936 12.237171 13.890789 11.40625 14.84375 L 10.1875 14 C 10.033207 14.22683 9.8483196 14.429061 9.65625 14.625 L 11.40625 15.84375 C 12.355874 14.754652 12.9375 13.3385 12.9375 11.78125 C 12.9375 11.636305 12.916214 11.486586 12.90625 11.34375 z M 1 13.5 L 1 14.5 C 1 14.777 1.223 15 1.5 15 L 4 15 L 8 19 L 8 18 L 4 14 L 1.5 14 C 1.223 14 1 13.777 1 13.5 z "
       id="path3881" />
  </g>
</svg>
