<?xml version="1.0" encoding="UTF-8" standalone="no"?>
<!-- Created with Inkscape (http://www.inkscape.org/) -->

<svg
   xmlns:dc="http://purl.org/dc/elements/1.1/"
   xmlns:cc="http://creativecommons.org/ns#"
   xmlns:rdf="http://www.w3.org/1999/02/22-rdf-syntax-ns#"
   xmlns:svg="http://www.w3.org/2000/svg"
   xmlns="http://www.w3.org/2000/svg"
   xmlns:xlink="http://www.w3.org/1999/xlink"
   xmlns:sodipodi="http://sodipodi.sourceforge.net/DTD/sodipodi-0.dtd"
   xmlns:inkscape="http://www.inkscape.org/namespaces/inkscape"
   width="22"
   height="22"
   id="svg2"
   sodipodi:version="0.32"
   inkscape:version="0.48.1 r9760"
   version="1.0"
   sodipodi:docname="avatar-default.svg"
   inkscape:output_extension="org.inkscape.output.svg.inkscape"
   inkscape:export-filename="/home/matt/.icons/Sirocco/scalable/mimetypes/text-plain.png"
   inkscape:export-xdpi="90"
   inkscape:export-ydpi="90"
   sodipodi:modified="true"
   style="display:inline">
  <sodipodi:namedview
     id="base"
     pagecolor="#838383"
     bordercolor="#cc0000"
     borderopacity="1"
     inkscape:pageopacity="1"
     inkscape:pageshadow="2"
     inkscape:zoom="15.622586"
     inkscape:cx="5.2284628"
     inkscape:cy="6.1180966"
     inkscape:document-units="px"
     inkscape:current-layer="layer1"
     width="128px"
     height="128px"
     inkscape:showpageshadow="false"
     inkscape:window-width="1920"
     inkscape:window-height="1030"
     inkscape:window-x="0"
     inkscape:window-y="25"
     showguides="true"
     inkscape:guide-bbox="true"
     showgrid="true"
     inkscape:window-maximized="1"
     borderlayer="true"
     inkscape:snap-global="true">
    <inkscape:grid
       enabled="true"
       visible="true"
       id="grid3231"
       type="xygrid"
       empspacing="8"
       snapvisiblegridlinesonly="true" />
    <sodipodi:guide
       orientation="1,0"
       position="12,17"
       id="guide3791" />
    <sodipodi:guide
       orientation="0,1"
       position="14,9"
       id="guide3793" />
  </sodipodi:namedview>
  <defs
     id="defs4">
    <linearGradient
       id="StandardGradient"
       gradientTransform="scale(0.9219544,1.0846523)"
       x1="11.998966"
       y1="0.92195445"
       x2="11.998966"
       y2="19.387045"
       gradientUnits="userSpaceOnUse">
      <stop
         style="stop-color:#000000;stop-opacity:0.23529412;"
         offset="0"
         id="stop3283" />
      <stop
         id="stop3850"
         offset="0.69999999"
         style="stop-color:#000000;stop-opacity:0.39215686;" />
      <stop
         style="stop-color:#000000;stop-opacity:0.55;"
         offset="1"
         id="stop2651" />
    </linearGradient>
    <linearGradient
       id="StandardGradient-8"
       gradientTransform="scale(0.9219544,1.0846523)"
       x1="11.998966"
       y1="0.92195445"
       x2="11.998966"
       y2="19.387045"
       gradientUnits="userSpaceOnUse">
      <stop
         style="stop-color:#000000;stop-opacity:0.23529412;"
         offset="0"
         id="stop3283-8" />
      <stop
         id="stop3850-2"
         offset="0.69999999"
         style="stop-color:#000000;stop-opacity:0.39215686;" />
      <stop
         style="stop-color:#000000;stop-opacity:0.55;"
         offset="1"
         id="stop2651-8" />
    </linearGradient>
    <radialGradient
       inkscape:collect="always"
       xlink:href="#StandardGradient-8"
       id="radialGradient4511"
       gradientUnits="userSpaceOnUse"
       gradientTransform="matrix(0.66666667,0,0,0.37499999,2,6.4154414)"
       cx="15"
       cy="17.558823"
       fx="15"
       fy="17.558823"
       r="24" />
    <linearGradient
       id="StandardGradient-3"
       gradientTransform="scale(0.9219544,1.0846523)"
       x1="11.998966"
       y1="0.92195445"
       x2="11.998966"
       y2="19.387045"
       gradientUnits="userSpaceOnUse">
      <stop
         style="stop-color:#000000;stop-opacity:0.86274511;"
         offset="0"
         id="stop3283-5" />
      <stop
         style="stop-color:#000000;stop-opacity:0.47058824;"
         offset="1"
         id="stop2651-2" />
    </linearGradient>
    <linearGradient
       y2="80"
       x2="56"
       y1="16"
       x1="56"
       gradientTransform="matrix(0.29995182,0,0,0.28966015,-3.3976881,-3.6643405)"
       gradientUnits="userSpaceOnUse"
       id="linearGradient3063"
       xlink:href="#StandardGradient-3"
       inkscape:collect="always" />
    <linearGradient
       id="StandardGradient-31"
       gradientTransform="scale(0.9219544,1.0846523)"
       x1="11.998966"
       y1="0.92195445"
       x2="11.998966"
       y2="19.387045"
       gradientUnits="userSpaceOnUse">
      <stop
         style="stop-color:#000000;stop-opacity:0.23529412;"
         offset="0"
         id="stop3283-3" />
      <stop
         style="stop-color:#000000;stop-opacity:0.55;"
         offset="1"
         id="stop2651-0" />
    </linearGradient>
    <radialGradient
       r="7"
       fy="13.255554"
       fx="13.000001"
       cy="13.255554"
       cx="13.000001"
       gradientTransform="matrix(2.1428571,0,0,1.1428571,-34.857143,-2.1492053)"
       gradientUnits="userSpaceOnUse"
       id="radialGradient3061"
       xlink:href="#StandardGradient-31"
       inkscape:collect="always" />
    <radialGradient
       inkscape:collect="always"
       xlink:href="#StandardGradient-31"
       id="radialGradient4614"
       gradientUnits="userSpaceOnUse"
       gradientTransform="matrix(2.1428571,0,0,1.1428571,-15.857143,3.8507947)"
       cx="13.000001"
       cy="13.255554"
       fx="13.000001"
       fy="13.255554"
       r="7" />
    <radialGradient
       inkscape:collect="always"
       xlink:href="#StandardGradient-31"
       id="radialGradient4618"
       gradientUnits="userSpaceOnUse"
       gradientTransform="matrix(2.1428571,0,0,1.1428571,-15.857143,2.8507947)"
       cx="13.000001"
       cy="13.255554"
       fx="13.000001"
       fy="13.255554"
       r="7" />
    <linearGradient
       inkscape:collect="always"
       xlink:href="#StandardGradient-3"
       id="linearGradient4621"
       gradientUnits="userSpaceOnUse"
       gradientTransform="matrix(0.29995182,0,0,0.28966015,-3.3976881,-3.6643405)"
       x1="56"
       y1="16"
       x2="56"
       y2="80" />
    <radialGradient
       inkscape:collect="always"
       xlink:href="#StandardGradient"
       id="radialGradient4626"
       cx="12"
       cy="12.5"
       fx="12"
       fy="12.5"
       r="7.5"
       gradientTransform="matrix(2.1333333,0,0,1.4666666,-13.6,-5.3333331)"
       gradientUnits="userSpaceOnUse" />
    <radialGradient
       inkscape:collect="always"
       xlink:href="#StandardGradient"
       id="radialGradient4632"
       gradientUnits="userSpaceOnUse"
       gradientTransform="matrix(2.1333333,0,0,1.4666666,-13.6,-4.3333331)"
       cx="12"
       cy="12.5"
       fx="12"
       fy="12.5"
       r="7.5" />
    <radialGradient
       inkscape:collect="always"
       xlink:href="#StandardGradient"
       id="radialGradient4634"
       gradientUnits="userSpaceOnUse"
       gradientTransform="matrix(2.1333333,0,0,1.4666666,-13.6,-5.3333331)"
       cx="12"
       cy="12.5"
       fx="12"
       fy="12.5"
       r="7.5" />
    <radialGradient
       inkscape:collect="always"
       xlink:href="#StandardGradient"
       id="radialGradient4641"
       gradientUnits="userSpaceOnUse"
       gradientTransform="matrix(2.1333333,0,0,1.4666666,-13.6,-5.3333331)"
       cx="12"
       cy="12.5"
       fx="12"
       fy="12.5"
       r="7.5" />
    <radialGradient
       inkscape:collect="always"
       xlink:href="#StandardGradient"
       id="radialGradient4645"
       gradientUnits="userSpaceOnUse"
       gradientTransform="matrix(2.1333333,0,0,1.4666666,-13.6,-5.3333331)"
       cx="12"
       cy="12.5"
       fx="12"
       fy="12.5"
       r="7.5" />
    <radialGradient
       inkscape:collect="always"
       xlink:href="#StandardGradient"
       id="radialGradient4647"
       gradientUnits="userSpaceOnUse"
       gradientTransform="matrix(2.1333333,0,0,1.4666666,-13.6,-5.3333331)"
       cx="12"
       cy="12.5"
       fx="12"
       fy="12.5"
       r="7.5" />
    <radialGradient
       inkscape:collect="always"
       xlink:href="#StandardGradient"
       id="radialGradient4652"
       gradientUnits="userSpaceOnUse"
       gradientTransform="matrix(2.1333333,0,0,1.4666666,-13.6,-4.3333331)"
       cx="12"
       cy="12.5"
       fx="12"
       fy="12.5"
       r="7.5" />
    <radialGradient
       inkscape:collect="always"
       xlink:href="#StandardGradient"
       id="radialGradient4656"
       gradientUnits="userSpaceOnUse"
       gradientTransform="matrix(2.1333333,0,0,1.4666666,-13.6,-5.3333331)"
       cx="12"
       cy="12.5"
       fx="12"
       fy="12.5"
       r="7.5" />
    <radialGradient
       inkscape:collect="always"
       xlink:href="#StandardGradient"
       id="radialGradient4663"
       gradientUnits="userSpaceOnUse"
       gradientTransform="matrix(2.1333333,0,0,1.4666666,-13.6,-5.3333331)"
       cx="12"
       cy="12.5"
       fx="12"
       fy="12.5"
       r="7.5" />
    <radialGradient
       inkscape:collect="always"
       xlink:href="#StandardGradient"
       id="radialGradient4667"
       gradientUnits="userSpaceOnUse"
       gradientTransform="matrix(2.1333333,0,0,1.4666666,-13.6,-5.3333331)"
       cx="12"
       cy="12.5"
       fx="12"
       fy="12.5"
       r="7.5" />
    <radialGradient
       inkscape:collect="always"
       xlink:href="#StandardGradient"
       id="radialGradient3820"
       cx="12"
       cy="13.130136"
       fx="12"
       fy="13.130136"
       r="8.9818287"
       gradientTransform="matrix(1.7813744,2.7895834e-8,-1.9178386e-8,1.2246949,-10.376493,-3.0804106)"
       gradientUnits="userSpaceOnUse" />
    <radialGradient
       inkscape:collect="always"
       xlink:href="#StandardGradient"
       id="radialGradient3826"
       gradientUnits="userSpaceOnUse"
       gradientTransform="matrix(1.7813744,2.7895834e-8,-1.9178386e-8,1.2246949,-9.3764929,-2.0804106)"
       cx="12"
       cy="13.130136"
       fx="12"
       fy="13.130136"
       r="8.9818287" />
    <radialGradient
       inkscape:collect="always"
       xlink:href="#StandardGradient"
       id="radialGradient3828"
       gradientUnits="userSpaceOnUse"
       gradientTransform="matrix(1.7813744,2.7895834e-8,-1.9178386e-8,1.2246949,-9.3764929,-3.0804106)"
       cx="12"
       cy="13.130136"
       fx="12"
       fy="13.130136"
       r="8.9818287" />
    <radialGradient
       inkscape:collect="always"
       xlink:href="#StandardGradient"
       id="radialGradient3835"
       gradientUnits="userSpaceOnUse"
       gradientTransform="matrix(1.7813744,2.7895834e-8,-1.9178386e-8,1.2246949,-9.3764929,-3.0804106)"
       cx="12"
       cy="13.130136"
       fx="12"
       fy="13.130136"
       r="8.9818287" />
    <radialGradient
       inkscape:collect="always"
       xlink:href="#StandardGradient"
       id="radialGradient3839"
       gradientUnits="userSpaceOnUse"
       gradientTransform="matrix(1.7725338,0.17725344,-0.11133594,1.113359,-7.8085496,-3.7455961)"
       cx="12"
       cy="13.130136"
       fx="12"
       fy="13.130136"
       r="8.9818287" />
    <radialGradient
       inkscape:collect="always"
       xlink:href="#StandardGradient"
       id="radialGradient3841"
       gradientUnits="userSpaceOnUse"
       gradientTransform="matrix(1.7813744,2.7895834e-8,-1.9178386e-8,1.2246949,-9.3764929,-3.0804106)"
       cx="12"
       cy="13.130136"
       fx="12"
       fy="13.130136"
       r="8.9818287" />
    <radialGradient
       inkscape:collect="always"
       xlink:href="#StandardGradient"
       id="radialGradient3846"
       gradientUnits="userSpaceOnUse"
       gradientTransform="matrix(1.7813744,2.7895834e-8,-1.9178386e-8,1.2246949,-9.3764929,-2.0804106)"
       cx="12"
       cy="13.130136"
       fx="12"
       fy="13.130136"
       r="8.9818287" />
    <radialGradient
       inkscape:collect="always"
       xlink:href="#StandardGradient"
       id="radialGradient3850"
       gradientUnits="userSpaceOnUse"
       gradientTransform="matrix(1.7813744,2.7895834e-8,-1.9178386e-8,1.2246949,-9.3764929,-3.0804106)"
       cx="12"
       cy="13.130136"
       fx="12"
       fy="13.130136"
       r="8.9818287" />
  </defs>
  <metadata
     id="metadata7">
    <rdf:RDF>
      <cc:Work
         rdf:about="">
        <dc:format>image/svg+xml</dc:format>
        <dc:type
           rdf:resource="http://purl.org/dc/dcmitype/StillImage" />
        <dc:title />
      </cc:Work>
    </rdf:RDF>
  </metadata>
  <g
     style="display:inline"
     inkscape:label="Calque 1"
     id="layer1"
     inkscape:groupmode="layer">
    <path
       style="opacity:0.05;fill:#ffffff;fill-opacity:1;stroke:none"
       d="m 11,0.84375 c -3.0650882,0 -5.625,2.3761836 -5.625,5.34375 a 1.0542254,1.0542254 0 0 0 0,0.03125 c 0.004,0.1760263 0.017104,0.3519953 0.03125,0.53125 -0.1978489,0.3164056 -0.2914915,0.6542503 -0.3125,0.96875 -0.037356,0.5592182 0.071871,1.1205382 0.3125,1.6875 0.1372676,0.3234232 0.3198533,0.5473265 0.5,0.78125 0.026622,0.147896 0.041814,0.262283 0.09375,0.5 a 1.0542254,1.0542254 0 0 0 0.03125,0.125 c 0.257035,0.771103 0.819919,1.503988 1.375,2.25 0.034508,0.37878 0.04862,0.721 0.03125,1.0625 C 6.7361614,14.589831 5.5168982,15.101112 4.25,15.59375 3.5483996,15.86657 2.8642694,16.152074 2.28125,16.53125 1.739221,16.883767 1.2020158,17.445307 1.125,18.25 l -0.03125,0 -0.03125,0.125 c -1.429e-4,0.01106 -4.98e-5,0.0201 0,0.03125 L 1,18.84375 a 1.0542254,1.0542254 0 0 0 1.03125,1.21875 l 17.9375,0 A 1.0542254,1.0542254 0 0 0 21,18.84375 l -0.0625,-0.4375 0,-0.03125 -0.03125,-0.125 -0.03125,0 c -0.04949,-0.390912 -0.200313,-0.761508 -0.40625,-1 -0.238044,-0.275675 -0.49664,-0.48106 -0.78125,-0.65625 -0.569221,-0.35038 -1.242397,-0.625435 -1.9375,-0.90625 -1.256104,-0.507454 -2.48756,-1.039964 -3.1875,-1.53125 -0.02069,-0.29474 -0.04154,-0.592387 -0.03125,-0.875 0.232911,-0.358497 0.48818,-0.715364 0.71875,-1.09375 0.294743,-0.4837 0.55856,-0.894429 0.71875,-1.375 A 1.0542254,1.0542254 0 0 0 16,10.71875 c 0.06396,-0.270404 0.08711,-0.46809 0.125,-0.65625 0.142739,-0.2065205 0.294592,-0.3931668 0.40625,-0.65625 0.226898,-0.5346076 0.332386,-1.0659592 0.3125,-1.59375 -0.01153,-0.3060754 -0.08317,-0.6275616 -0.25,-0.9375 0.01625,-0.2199379 0.02384,-0.4383887 0.03125,-0.65625 a 1.0542254,1.0542254 0 0 0 0,-0.03125 C 16.625,3.2199343 14.06509,0.84375 11,0.84375 z m 0,1.0625 c 2.533398,0 4.5625,1.9167476 4.5625,4.28125 C 15.55276,6.473972 15.52213,6.8246008 15.5,7.15625 15.87532,7.392265 15.911851,8.176872 15.5625,9 15.43823,9.292799 15.293696,9.514408 15.125,9.71875 c -0.053,0.247226 -0.08833,0.462878 -0.15625,0.75 -0.188999,0.566998 -0.937026,1.693716 -1.5,2.5625 -0.03616,0.576505 -0.0086,1.164683 0.0625,1.75 1.758395,1.52904 6.33645,2.316347 6.34375,3.625 L 19.96875,19 2.03125,19 2.125,18.40625 c -0.00682,-1.529039 4.5635251,-2.148024 6.34375,-3.625 0.1234284,-0.719634 0.060583,-1.36743 0,-2 C 7.8509242,11.957576 7.2009365,10.977808 7.03125,10.46875 6.970442,10.190423 6.955452,10.056007 6.90625,9.8125 6.7037527,9.594554 6.5208268,9.34359 6.375,9 6.0072625,8.133549 6.0667751,7.277618 6.5,7.09375 6.475975,6.7870264 6.44322,6.4392887 6.4375,6.1875 6.4375,3.8229976 8.4666045,1.90625 11,1.90625 z"
       id="path3857"
       inkscape:connector-curvature="0" />
    <path
       style="fill:url(#radialGradient3820);fill-opacity:1;stroke:none"
       d="m 11,1.9102507 c -2.5333955,0 -4.5637401,1.9079346 -4.5637401,4.272437 0.00572,0.2517887 0.024526,0.6157347 0.048551,0.9224583 -0.4332249,0.183868 -0.4648385,1.027017 -0.097101,1.893468 0.1458268,0.34359 0.3315574,0.607411 0.5340547,0.825357 0.049202,0.243507 0.036292,0.352828 0.0971,0.631155 0.1696865,0.509058 0.8386868,1.506746 1.4565126,2.33042 0.060583,0.63257 0.1234284,1.270934 0,1.990568 -1.7802249,1.476976 -6.3669288,2.112243 -6.3601053,3.641282 l -0.097101,0.582605 17.9636581,0 -0.09711,-0.582605 c -0.0073,-1.308653 -4.601708,-2.112242 -6.360103,-3.641282 -0.07115,-0.585317 -0.08471,-1.171311 -0.04855,-1.747816 0.562974,-0.868784 1.316063,-2.006174 1.505062,-2.573172 0.06792,-0.287122 0.09265,-0.481031 0.145651,-0.728257 0.168696,-0.204342 0.312684,-0.435456 0.436954,-0.728255 0.349351,-0.823128 0.32677,-1.608903 -0.04855,-1.844918 0.02213,-0.3316492 0.03881,-0.6845363 0.04855,-0.9710083 0,-2.3645024 -2.030342,-4.272437 -4.56374,-4.272437 z"
       id="path3159"
       inkscape:connector-curvature="0"
       inkscape:transform-center-y="-8.5448752" />
    <path
       style="opacity:0.3;fill:#000000;fill-opacity:1;stroke:none"
       d="M 11,1.90625 C 8.4666045,1.90625 6.4375,3.8229976 6.4375,6.1875 6.44322,6.4392887 6.475975,6.7870264 6.5,7.09375 6.0667751,7.277618 6.0072625,8.133549 6.375,9 c 0.1458268,0.34359 0.3287527,0.594554 0.53125,0.8125 0.049202,0.243507 0.064192,0.377923 0.125,0.65625 0.1696865,0.509058 0.8196742,1.488826 1.4375,2.3125 0.060583,0.63257 0.1234284,1.280366 0,2 -1.7802249,1.476976 -6.3505735,2.095961 -6.34375,3.625 L 2.03125,19 19.96875,19 19.875,18.40625 c -0.0073,-1.308653 -4.585355,-2.09596 -6.34375,-3.625 -0.07115,-0.585317 -0.09866,-1.173495 -0.0625,-1.75 0.562974,-0.868784 1.311001,-1.995502 1.5,-2.5625 0.06792,-0.287122 0.103249,-0.502774 0.15625,-0.75 C 15.293696,9.514408 15.43823,9.292799 15.5625,9 15.911851,8.176872 15.87532,7.392265 15.5,7.15625 15.52213,6.8246008 15.55276,6.473972 15.5625,6.1875 15.5625,3.8229976 13.533398,1.90625 11,1.90625 z m 0,0.625 c 2.21063,0 3.919218,1.6277232 3.9375,3.625 9.8e-5,0.010726 0,0.020503 0,0.03125 -0.0098,0.2567623 -0.04051,0.6078879 -0.0625,0.9375 a 0.61643512,0.61643512 0 0 0 0.28125,0.5625 c 0.0072,0.025501 0.02726,0.08148 0.03125,0.1875 0.008,0.2120398 -0.04336,0.5353831 -0.1875,0.875 -0.100817,0.2375412 -0.204302,0.3935867 -0.34375,0.5625 a 0.61643512,0.61643512 0 0 0 -0.125,0.28125 c -0.05428,0.2531996 -0.09808,0.436685 -0.15625,0.6875 -0.0025,0.01086 0.0026,0.02019 0,0.03125 -0.06245,0.176154 -0.264817,0.56276 -0.53125,1 -0.27297,0.447968 -0.623141,0.938105 -0.90625,1.375 A 0.61643512,0.61643512 0 0 0 12.84375,13 c -0.03902,0.622139 -0.01232,1.228224 0.0625,1.84375 A 0.61643512,0.61643512 0 0 0 13.125,15.25 c 1.03954,0.903948 2.649381,1.454362 4,2 0.67531,0.272819 1.295019,0.539661 1.6875,0.78125 0.196241,0.120795 0.340513,0.236372 0.40625,0.3125 0.03944,0.04568 0.02868,0.02474 0.03125,0.03125 l -16.46875,0 c 0.010242,-0.08078 0.050854,-0.237613 0.40625,-0.46875 0.3806611,-0.247569 0.9855031,-0.489178 1.65625,-0.75 C 6.1852439,16.634605 7.8179672,16.126975 8.875,15.25 a 0.61643512,0.61643512 0 0 0 0.1875,-0.375 c 0.13974,-0.814735 0.091784,-1.524195 0.03125,-2.15625 a 0.61643512,0.61643512 0 0 0 -0.125,-0.3125 C 8.3671926,11.604265 7.7203905,10.567421 7.625,10.28125 7.5802616,10.066625 7.5482287,9.92619 7.5,9.6875 A 0.61643512,0.61643512 0 0 0 7.34375,9.40625 C 7.1758619,9.2255536 7.0530736,9.0223089 6.9375,8.75 6.7868205,8.3949739 6.7352926,8.0639226 6.75,7.84375 6.7573537,7.7336637 6.7717541,7.6804139 6.78125,7.65625 A 0.61643512,0.61643512 0 0 0 7.125,7.03125 C 7.1004013,6.7172022 7.0672992,6.3987566 7.0625,6.1875 7.0625,4.175626 8.7775001,2.53125 11,2.53125 z"
       id="path3831"
       inkscape:connector-curvature="0" />
    <path
       style="opacity:0.3;fill:#000000;fill-opacity:1;stroke:none"
       d="m 11,1.90625 c -2.5333955,0 -4.5625,1.9167476 -4.5625,4.28125 0.00374,0.1647801 0.018503,0.3803737 0.03125,0.59375 0.2165055,-2.173371 2.1444113,-3.875 4.53125,-3.875 2.398023,0 4.329985,1.7182079 4.53125,3.90625 0.01165,-0.2163612 0.02497,-0.4403517 0.03125,-0.625 C 15.5625,3.8229976 13.533398,1.90625 11,1.90625 z M 6.4375,7.125 C 6.1402216,7.3030856 6.0710693,7.8518027 6.21875,8.46875 6.2751451,8.2951026 6.3610411,8.1527265 6.5,8.09375 6.475975,7.7870264 6.44322,7.4392887 6.4375,7.1875 c 0,-0.020872 -3.154e-4,-0.0417 0,-0.0625 z m 9.125,0.09375 c -0.0099,0.2813117 -0.04108,0.6165048 -0.0625,0.9375 0.100683,0.063313 0.169206,0.1799545 0.21875,0.3125 0.132274,-0.5587214 0.08059,-1.0334827 -0.15625,-1.25 z m -2.09375,6.8125 c -0.03616,0.576505 -0.0086,1.164683 0.0625,1.75 1.564527,1.360459 5.361325,2.140162 6.1875,3.21875 l 0.25,0 -0.09375,-0.59375 c -0.0073,-1.308653 -4.585355,-2.09596 -6.34375,-3.625 -0.03052,-0.251062 -0.05255,-0.499491 -0.0625,-0.75 z M 8.5,14.4375 c -0.011007,0.11214 -0.011346,0.2277 -0.03125,0.34375 -1.7802249,1.476976 -6.3505735,2.095961 -6.34375,3.625 L 2.03125,19 2.25,19 C 2.9910841,17.763456 6.8627688,17.113663 8.46875,15.78125 8.5504174,15.305098 8.5268178,14.864356 8.5,14.4375 z"
       id="path3822"
       inkscape:connector-curvature="0" />
    <path
       style="opacity:0.2;fill:#ffffff;fill-opacity:1;stroke:none"
       d="M 6.46875,6.78125 C 6.4574846,6.8943366 6.4392514,7.0094864 6.4375,7.125 6.4545281,7.1147992 6.4815087,7.101598 6.5,7.09375 6.4916979,6.9877579 6.4754811,6.8939189 6.46875,6.78125 z m 9.0625,0.03125 c -0.0064,0.1193117 -0.02338,0.2258685 -0.03125,0.34375 0.01759,0.011063 0.04646,0.017824 0.0625,0.03125 0,-0.1263503 -0.01989,-0.2514786 -0.03125,-0.375 z M 6.21875,8.46875 C 6.0993251,8.8364738 6.125216,9.4114672 6.375,10 c 0.1458268,0.34359 0.3287527,0.594554 0.53125,0.8125 0.049202,0.243507 0.064192,0.377923 0.125,0.65625 0.1696865,0.509058 0.8196742,1.488826 1.4375,2.3125 0.020498,0.214025 0.017537,0.437975 0.03125,0.65625 0.057247,-0.583245 0.019563,-1.12569 -0.03125,-1.65625 C 7.8509242,11.957576 7.2009365,10.977808 7.03125,10.46875 6.970442,10.190423 6.955452,10.056007 6.90625,9.8125 6.7037527,9.594554 6.5208268,9.34359 6.375,9 6.2969823,8.8161773 6.2607964,8.644402 6.21875,8.46875 z m 9.5,0 C 15.677638,8.642405 15.640158,8.8170251 15.5625,9 15.43823,9.292799 15.293696,9.514408 15.125,9.71875 c -0.053,0.247226 -0.08833,0.462878 -0.15625,0.75 -0.188999,0.566998 -0.937026,1.693716 -1.5,2.5625 -0.02065,0.329222 -0.01324,0.666482 0,1 0.562974,-0.868784 1.311001,-1.995502 1.5,-2.5625 0.06792,-0.287122 0.103249,-0.502774 0.15625,-0.75 C 15.293696,10.514408 15.43823,10.292799 15.5625,10 15.818135,9.397683 15.853894,8.8303009 15.71875,8.46875 z M 2.25,19 c -0.080405,0.134161 -0.1256679,0.256592 -0.125,0.40625 L 2.03125,20 19.96875,20 19.875,19.40625 C 19.874195,19.261967 19.821125,19.133653 19.71875,19 L 2.25,19 z"
       id="path3844"
       inkscape:connector-curvature="0" />
  </g>
</svg>
