<?xml version="1.0" encoding="UTF-8" standalone="no"?>
<!-- Created with Inkscape (http://www.inkscape.org/) -->

<svg
   xmlns:dc="http://purl.org/dc/elements/1.1/"
   xmlns:cc="http://creativecommons.org/ns#"
   xmlns:rdf="http://www.w3.org/1999/02/22-rdf-syntax-ns#"
   xmlns:svg="http://www.w3.org/2000/svg"
   xmlns="http://www.w3.org/2000/svg"
   xmlns:xlink="http://www.w3.org/1999/xlink"
   xmlns:sodipodi="http://sodipodi.sourceforge.net/DTD/sodipodi-0.dtd"
   xmlns:inkscape="http://www.inkscape.org/namespaces/inkscape"
   width="22"
   height="22"
   id="svg2"
   sodipodi:version="0.32"
   inkscape:version="0.48.1 r9760"
   version="1.0"
   sodipodi:docname="bluetooth-active.svg"
   inkscape:output_extension="org.inkscape.output.svg.inkscape"
   style="display:inline"
   inkscape:export-filename="/home/matthieu/Eye-Candy/Faience/0.1/sources/status/small/audio-volume-high.png"
   inkscape:export-xdpi="90"
   inkscape:export-ydpi="90">
  <defs
     id="defs4">
    <linearGradient
       id="StandardGradient"
       gradientTransform="scale(0.9219544,1.0846523)"
       x1="11.998966"
       y1="0.92195445"
       x2="11.998966"
       y2="19.387045"
       gradientUnits="userSpaceOnUse">
      <stop
         style="stop-color:#000000;stop-opacity:0.23529412;"
         offset="0"
         id="stop3283-1" />
      <stop
         id="stop3850"
         offset="0.69999999"
         style="stop-color:#000000;stop-opacity:0.39215686;" />
      <stop
         style="stop-color:#000000;stop-opacity:0.55;"
         offset="1"
         id="stop2651" />
    </linearGradient>
    <linearGradient
       id="SpecificGradient"
       x1="10.406627"
       y1="2"
       x2="10.406627"
       y2="18.000771"
       gradientUnits="userSpaceOnUse">
      <stop
         style="stop-color:#e64b36;stop-opacity:1;"
         offset="0"
         id="stop3292" />
      <stop
         style="stop-color:#a31414;stop-opacity:1;"
         offset="1"
         id="stop3294" />
    </linearGradient>
    <radialGradient
       inkscape:collect="always"
       xlink:href="#StandardGradient"
       id="radialGradient3851"
       cx="36"
       cy="2"
       fx="36"
       fy="2"
       r="4"
       gradientUnits="userSpaceOnUse" />
    <radialGradient
       inkscape:collect="always"
       xlink:href="#SpecificGradient"
       id="radialGradient3855"
       gradientUnits="userSpaceOnUse"
       cx="36"
       cy="2"
       fx="36"
       fy="2"
       r="4"
       gradientTransform="translate(0,10)" />
    <radialGradient
       inkscape:collect="always"
       xlink:href="#StandardGradient"
       id="radialGradient3817"
       cx="13"
       cy="11.735294"
       fx="13"
       fy="11.735294"
       r="4"
       gradientTransform="matrix(3.75,0,0,2.2500001,-35.75,-14.404413)"
       gradientUnits="userSpaceOnUse" />
    <radialGradient
       inkscape:collect="always"
       xlink:href="#StandardGradient"
       id="radialGradient3818"
       cx="13"
       cy="11.531093"
       fx="13"
       fy="11.531093"
       r="4.2487397"
       gradientTransform="matrix(3.5304587,0,0,1.8829114,-32.895963,-9.7120251)"
       gradientUnits="userSpaceOnUse" />
    <radialGradient
       inkscape:collect="always"
       xlink:href="#StandardGradient"
       id="radialGradient3824"
       gradientUnits="userSpaceOnUse"
       gradientTransform="matrix(3.5304587,0,0,1.8829114,-32.895963,-9.7120251)"
       cx="13"
       cy="11.531093"
       fx="13"
       fy="11.531093"
       r="4.2487397" />
    <radialGradient
       inkscape:collect="always"
       xlink:href="#StandardGradient"
       id="radialGradient3828"
       gradientUnits="userSpaceOnUse"
       gradientTransform="matrix(3.5304587,0,0,1.8829114,-32.895963,-9.7120251)"
       cx="13"
       cy="11.531093"
       fx="13"
       fy="11.531093"
       r="4.2487397" />
    <radialGradient
       inkscape:collect="always"
       xlink:href="#StandardGradient"
       id="radialGradient3830"
       gradientUnits="userSpaceOnUse"
       gradientTransform="matrix(3.5304587,0,0,1.8829114,-32.895963,-9.7120251)"
       cx="13"
       cy="11.531093"
       fx="13"
       fy="11.531093"
       r="4.2487397" />
  </defs>
  <sodipodi:namedview
     id="base"
     pagecolor="#818181"
     bordercolor="#ffcfcf"
     borderopacity="1"
     inkscape:pageopacity="1"
     inkscape:pageshadow="2"
     inkscape:zoom="31.922403"
     inkscape:cx="15.018832"
     inkscape:cy="14.540621"
     inkscape:document-units="px"
     inkscape:current-layer="layer1"
     showgrid="true"
     inkscape:showpageshadow="false"
     showguides="true"
     inkscape:guide-bbox="true"
     inkscape:window-width="1920"
     inkscape:window-height="1030"
     inkscape:window-x="0"
     inkscape:window-y="25"
     inkscape:window-maximized="1"
     borderlayer="true"
     inkscape:snap-global="true">
    <sodipodi:guide
       orientation="0,1"
       position="26.278146,128"
       id="guide2385" />
    <sodipodi:guide
       orientation="1,0"
       position="128,54.082119"
       id="guide2387" />
    <sodipodi:guide
       orientation="0,1"
       position="60.863576,64.084768"
       id="guide2391" />
    <inkscape:grid
       type="xygrid"
       id="grid3672"
       visible="true"
       enabled="true"
       empspacing="8"
       snapvisiblegridlinesonly="true" />
    <sodipodi:guide
       orientation="1,0"
       position="13,6"
       id="guide3013" />
    <sodipodi:guide
       orientation="0,1"
       position="18,10"
       id="guide3015" />
  </sodipodi:namedview>
  <metadata
     id="metadata7">
    <rdf:RDF>
      <cc:Work
         rdf:about="">
        <dc:format>image/svg+xml</dc:format>
        <dc:type
           rdf:resource="http://purl.org/dc/dcmitype/StillImage" />
        <dc:title></dc:title>
      </cc:Work>
    </rdf:RDF>
  </metadata>
  <g
     inkscape:label="Icon"
     inkscape:groupmode="layer"
     id="layer1"
     style="display:inline">
    <rect
       style="opacity:1;color:#000000;fill:url(#radialGradient3851);fill-opacity:1;fill-rule:nonzero;stroke:none;stroke-width:2;stroke-linecap:round;stroke-linejoin:round;stroke-miterlimit:4;stroke-opacity:1;stroke-dasharray:none;stroke-dashoffset:8.59999999999999787;marker:none;visibility:visible;display:inline;overflow:visible;enable-background:accumulate"
       id="rect3841"
       width="8"
       height="8"
       x="32"
       y="-2" />
    <rect
       y="8"
       x="32"
       height="8"
       width="8"
       id="rect3853"
       style="opacity:1;color:#000000;fill:url(#radialGradient3855);fill-opacity:1;fill-rule:nonzero;stroke:none;stroke-width:2;marker:none;visibility:visible;display:inline;overflow:visible;enable-background:accumulate" />
    <path
       inkscape:connector-curvature="0"
       style="opacity:0.05;fill:#ffffff;fill-opacity:1;fill-rule:evenodd;display:inline;overflow:visible"
       d="m 9.84375,2.0000002 a 1.0043215,1.0043215 0 0 0 -0.875,1 l 0,3.9375 L 8,5.9687502 a 1.0043215,1.0043215 0 0 0 -1.4375,0.03125 l -0.96875,1 a 1.0043215,1.0043215 0 0 0 0,1.40625 L 8.15625,11 5.5625,13.59375 a 1.0043215,1.0043215 0 0 0 0,1.4375 L 6.53125,16 a 1.0043215,1.0043215 0 0 0 1.4375,0 l 1,-1 0,4 a 1.0043215,1.0043215 0 0 0 1.71875,0.71875 l 4.812501,-4.8125 a 1.0043215,1.0043215 0 0 0 0,-1.4375 L 12.96875,10.9375 15.468751,8.4375002 a 1.0043215,1.0043215 0 0 0 0,-1.4375 L 10.6875,2.2812502 a 1.0043215,1.0043215 0 0 0 -0.84375,-0.28125 z m 0.125,1 4.78125,4.71875 -3.21875,3.2187498 3.25,3.25 -4.8125,4.8125 0,-6.4375 L 7.25,15.28125 6.28125,14.3125 9.59375,11 6.3125,7.6875002 l 0.96875,-1 2.6875,2.71875 0,-6.40625 z m 1.25,3.0625 0,3.34375 1.65625,-1.65625 -1.65625,-1.6875 z m 0,6.3749998 0,3.375 1.65625,-1.65625 -1.65625,-1.71875 z"
       id="path7335" />
    <path
       inkscape:connector-curvature="0"
       style="fill:url(#radialGradient3818);fill-opacity:1;fill-rule:evenodd;display:inline;overflow:visible"
       d="m 9.970426,3.0000002 0,6.4000001 -2.702521,-2.7025212 -0.968067,0.9815129 3.307564,3.307562 -3.334454,3.334454 0.981512,0.968069 2.715967,-2.715967 0,6.42689 4.8,-4.8 -3.253782,-3.253782 3.240336,-3.22689 -4.786555,-4.7193278 z m 1.250422,3.0655464 1.65378,1.6806721 -1.65378,1.6537816 0,-3.3344537 z m 0,6.3865554 1.65378,1.694116 -1.65378,1.653782 0,-3.347898 z"
       id="path3740" />
    <path
       inkscape:connector-curvature="0"
       style="opacity:0.3;fill:#000000;fill-opacity:1;fill-rule:evenodd;display:inline;overflow:visible"
       d="m 9.96875,3.0000002 0,1 4.28125,4.21875 0.5,-0.5 -4.78125,-4.71875 z m -2.6875,3.6875 -0.96875,1 0.5,0.5 0.46875,-0.5 2.6875,2.7187498 0,-0.9999998 -2.6875,-2.71875 z m 5.09375,1.5625 -1.15625,1.15625 0,0.9999998 1.65625,-1.6562498 -0.5,-0.5 z m -0.34375,3.1874998 -0.5,0.5 2.75,2.75 0.5,-0.5 -2.75,-2.75 z m -2.9375,0.0625 -2.8125,2.8125 0.5,0.5 2.8125,-2.8125 -0.5,-0.5 z m 3.28125,3.15625 -1.15625,1.15625 0,1 1.65625,-1.65625 -0.5,-0.5 z"
       id="path3692" />
    <path
       inkscape:connector-curvature="0"
       style="opacity:0.2;fill:#ffffff;fill-opacity:1;fill-rule:evenodd;display:inline;overflow:visible"
       d="m 11.21875,6.0625002 0,1 1.15625,1.1875 0.5,-0.5 -1.65625,-1.6875 z m -4.40625,2.125 -0.5,0.5 L 9.09375,11.5 9.59375,11 6.8125,8.1875002 z m 7.4375,0.03125 -2.71875,2.7187498 0.5,0.5 2.71875,-2.7187498 -0.5,-0.5 z m -3.03125,4.2187498 0,1 1.15625,1.21875 0.5,-0.5 -1.65625,-1.71875 z m -1.25,0.125 L 7.25,15.28125 6.78125,14.8125 l -0.5,0.5 0.96875,0.96875 2.71875,-2.71875 0,-1 z m 4.3125,2.125 -4.3125,4.3125 0,1 4.8125,-4.8125 -0.5,-0.5 z"
       id="path3724" />
    <path
       style="fill:#000000;fill-opacity:1;fill-rule:evenodd;display:inline;overflow:visible;opacity:0.3"
       d="M 9.96875 3 L 9.96875 9.40625 L 7.28125 6.6875 L 6.3125 7.6875 L 9.59375 11 L 6.28125 14.3125 L 7.25 15.28125 L 9.96875 12.5625 L 9.96875 19 L 14.78125 14.1875 L 11.53125 10.9375 L 14.75 7.71875 L 9.96875 3 z M 10.375 3.96875 L 14.1875 7.71875 L 11.25 10.65625 A 0.40727822 0.40727822 0 0 0 11.25 11.21875 L 14.21875 14.1875 L 10.375 18.03125 L 10.375 12.5625 A 0.40727822 0.40727822 0 0 0 9.6875 12.28125 L 7.25 14.71875 L 6.84375 14.3125 L 9.875 11.28125 A 0.40727822 0.40727822 0 0 0 9.875 10.71875 L 6.875 7.6875 L 7.28125 7.25 L 9.6875 9.6875 A 0.40727822 0.40727822 0 0 0 10.375 9.40625 L 10.375 3.96875 z M 11.09375 5.65625 A 0.40727822 0.40727822 0 0 0 10.8125 6.0625 L 10.8125 9.40625 A 0.40727822 0.40727822 0 0 0 11.5 9.6875 L 13.15625 8.03125 A 0.40727822 0.40727822 0 0 0 13.15625 7.46875 L 11.5 5.78125 A 0.40727822 0.40727822 0 0 0 11.125 5.65625 A 0.40727822 0.40727822 0 0 0 11.09375 5.65625 z M 11.21875 6.0625 L 12.875 7.75 L 11.21875 9.40625 L 11.21875 6.0625 z M 11.09375 12.03125 A 0.40727822 0.40727822 0 0 0 10.8125 12.4375 L 10.8125 15.8125 A 0.40727822 0.40727822 0 0 0 11.5 16.09375 L 13.15625 14.4375 A 0.40727822 0.40727822 0 0 0 13.15625 13.875 L 11.5 12.15625 A 0.40727822 0.40727822 0 0 0 11.125 12.03125 A 0.40727822 0.40727822 0 0 0 11.09375 12.03125 z M 11.21875 12.4375 L 12.875 14.15625 L 11.21875 15.8125 L 11.21875 12.4375 z "
       id="path3820" />
    <path
       inkscape:connector-curvature="0"
       style="opacity:0.4;color:#000000;fill:#000000;fill-opacity:1;stroke:none;stroke-width:1;marker:none;visibility:visible;display:inline;overflow:visible;enable-background:accumulate"
       d="M 17.5,14 C 17.223,14 17,14.223 17,14.5 l 0,2.5 -0.5,0 C 16.223,17 16,17.223 16,17.5 l 0,4 c 0,0.277 0.223,0.5 0.5,0.5 l 5,0 c 0.277,0 0.5,-0.223 0.5,-0.5 l 0,-4 C 22,17.223 21.777,17 21.5,17 L 21,17 21,14.5 C 21,14.223 20.777,14 20.5,14 l -3,0 z m 0.5,1 2,0 0,2 -2,0 0,-2 z"
       id="rect2954" />
  </g>
</svg>
