<?xml version="1.0" encoding="UTF-8" standalone="no"?>
<!-- Created with Inkscape (http://www.inkscape.org/) -->

<svg
   xmlns:dc="http://purl.org/dc/elements/1.1/"
   xmlns:cc="http://creativecommons.org/ns#"
   xmlns:rdf="http://www.w3.org/1999/02/22-rdf-syntax-ns#"
   xmlns:svg="http://www.w3.org/2000/svg"
   xmlns="http://www.w3.org/2000/svg"
   xmlns:xlink="http://www.w3.org/1999/xlink"
   xmlns:sodipodi="http://sodipodi.sourceforge.net/DTD/sodipodi-0.dtd"
   xmlns:inkscape="http://www.inkscape.org/namespaces/inkscape"
   width="24"
   height="24"
   id="svg2"
   sodipodi:version="0.32"
   inkscape:version="0.48.1 r9760"
   version="1.0"
   sodipodi:docname="exaile-pause.svg"
   inkscape:output_extension="org.inkscape.output.svg.inkscape"
   style="display:inline">
  <defs
     id="defs4">
    <linearGradient
       inkscape:collect="always"
       id="linearGradient3327">
      <stop
         style="stop-color:#000000;stop-opacity:1;"
         offset="0"
         id="stop3330" />
      <stop
         style="stop-color:#000000;stop-opacity:0;"
         offset="1"
         id="stop3333" />
    </linearGradient>
    <linearGradient
       inkscape:collect="always"
       xlink:href="#linearGradient3327"
       id="linearGradient3335"
       x1="11.375"
       y1="22"
       x2="11.375"
       y2="-9.817296"
       gradientUnits="userSpaceOnUse" />
    <linearGradient
       inkscape:collect="always"
       xlink:href="#linearGradient4980"
       id="linearGradient3181"
       x1="-3.0607977"
       y1="27.258198"
       x2="-3.0607977"
       y2="7.2536583"
       gradientUnits="userSpaceOnUse"
       gradientTransform="translate(12.119372,-7.2581977)" />
    <inkscape:perspective
       sodipodi:type="inkscape:persp3d"
       inkscape:vp_x="0 : 11 : 1"
       inkscape:vp_y="0 : 1000 : 0"
       inkscape:vp_z="22 : 11 : 1"
       inkscape:persp3d-origin="11 : 7.3333333 : 1"
       id="perspective2531" />
    <linearGradient
       id="ButtonShadow"
       gradientTransform="scale(0.9883037,1.0118347)"
       x1="9.3550024"
       y1="21.742682"
       x2="9.3550024"
       y2="0.49362123"
       gradientUnits="userSpaceOnUse">
      <stop
         id="stop3277"
         offset="0"
         style="stop-color:#000000;stop-opacity:0.70588237;" />
      <stop
         id="stop3279"
         offset="1"
         style="stop-color:#000000;stop-opacity:0.15686275;" />
    </linearGradient>
    <linearGradient
       inkscape:collect="always"
       id="linearGradient3232">
      <stop
         style="stop-color:#000000;stop-opacity:1;"
         offset="0"
         id="stop3234" />
      <stop
         style="stop-color:#000000;stop-opacity:0;"
         offset="1"
         id="stop3236" />
    </linearGradient>
    <linearGradient
       gradientUnits="userSpaceOnUse"
       y2="-6.0004225"
       x2="11"
       y1="14.805666"
       x1="11"
       id="linearGradient3221"
       xlink:href="#linearGradient3232"
       inkscape:collect="always" />
    <linearGradient
       id="ButtonColor"
       x1="10.31979"
       y1="21"
       x2="10.31979"
       y2="0.99929649"
       gradientUnits="userSpaceOnUse">
      <stop
         style="stop-color:#29669f;stop-opacity:1;"
         offset="0"
         id="stop3189" />
      <stop
         style="stop-color:#88b6e0;stop-opacity:1;"
         offset="1"
         id="stop3191" />
    </linearGradient>
    <linearGradient
       inkscape:collect="always"
       xlink:href="#ButtonShadow"
       id="linearGradient38042"
       gradientUnits="userSpaceOnUse"
       gradientTransform="scale(0.9883037,1.0118347)"
       x1="9.3550024"
       y1="21.742682"
       x2="9.3550024"
       y2="0.49362123" />
    <clipPath
       clipPathUnits="userSpaceOnUse"
       id="clipPath2849">
      <rect
         ry="2"
         rx="2"
         y="1"
         x="1"
         height="20"
         width="20"
         id="rect2851"
         style="fill:#ffffff;fill-opacity:1;fill-rule:evenodd;stroke:none;display:inline" />
    </clipPath>
    <inkscape:perspective
       id="perspective4071"
       inkscape:persp3d-origin="0.5 : 0.33333333 : 1"
       inkscape:vp_z="1 : 0.5 : 1"
       inkscape:vp_y="0 : 1000 : 0"
       inkscape:vp_x="0 : 0.5 : 1"
       sodipodi:type="inkscape:persp3d" />
    <radialGradient
       inkscape:collect="always"
       xlink:href="#linearGradient3737"
       id="radialGradient3619"
       cx="48"
       cy="90.171875"
       fx="48"
       fy="90.171875"
       r="42"
       gradientTransform="matrix(1.1573129,0,0,0.99590774,-109.95089,-30.567669)"
       gradientUnits="userSpaceOnUse" />
    <linearGradient
       inkscape:collect="always"
       id="linearGradient3737">
      <stop
         style="stop-color:#ffffff;stop-opacity:1;"
         offset="0"
         id="stop3739" />
      <stop
         style="stop-color:#ffffff;stop-opacity:0;"
         offset="1"
         id="stop3741" />
    </linearGradient>
    <linearGradient
       inkscape:collect="always"
       xlink:href="#linearGradient4787"
       id="linearGradient4006"
       gradientUnits="userSpaceOnUse"
       gradientTransform="matrix(0.10470796,0,0,0.10471121,-16.074652,-7.619)"
       x1="373.12482"
       y1="91.875"
       x2="363.62491"
       y2="258.54688" />
    <linearGradient
       inkscape:collect="always"
       id="linearGradient4787">
      <stop
         style="stop-color: white; stop-opacity: 1;"
         offset="0"
         id="stop4789" />
      <stop
         style="stop-color: white; stop-opacity: 0;"
         offset="1"
         id="stop4791" />
    </linearGradient>
    <linearGradient
       inkscape:collect="always"
       xlink:href="#linearGradient4787"
       id="linearGradient3986"
       gradientUnits="userSpaceOnUse"
       x1="376.3555"
       y1="120.19418"
       x2="376.3555"
       y2="323.39832"
       gradientTransform="matrix(0.11656353,0,0,0.11656727,-60.58548,-9.79387)" />
    <linearGradient
       inkscape:collect="always"
       xlink:href="#linearGradient4041"
       id="linearGradient3994"
       gradientUnits="userSpaceOnUse"
       x1="378.33893"
       y1="144.82513"
       x2="378.33893"
       y2="179.10709"
       gradientTransform="matrix(0.11656353,0,0,-0.11656727,-61.60052,31.788475)" />
    <linearGradient
       id="linearGradient4041"
       inkscape:collect="always">
      <stop
         id="stop4043"
         offset="0"
         style="stop-color: white; stop-opacity: 1;" />
      <stop
         id="stop4045"
         offset="1"
         style="stop-color:#e7efc8;stop-opacity:1" />
    </linearGradient>
    <radialGradient
       inkscape:collect="always"
       xlink:href="#linearGradient4873"
       id="radialGradient4035"
       gradientUnits="userSpaceOnUse"
       gradientTransform="matrix(0.13484393,-3.0260696e-7,2.3599285e-7,0.10471108,-37.959507,-4.794002)"
       cx="370.5"
       cy="205.86218"
       fx="370.49969"
       fy="276.16208"
       r="95.5" />
    <linearGradient
       id="linearGradient4873">
      <stop
         id="stop4875"
         offset="0"
         style="stop-color: rgb(255, 233, 87); stop-opacity: 1;" />
      <stop
         id="stop4877"
         offset="1"
         style="stop-color: rgb(249, 255, 129); stop-opacity: 0;" />
    </linearGradient>
    <radialGradient
       inkscape:collect="always"
       xlink:href="#linearGradient4803"
       id="radialGradient4033"
       gradientUnits="userSpaceOnUse"
       gradientTransform="matrix(0.13484503,-3.0260943e-7,2.3599477e-7,0.10471194,-37.240659,-7.620304)"
       cx="370.5"
       cy="205.86218"
       fx="370.49969"
       fy="276.16208"
       r="95.5" />
    <linearGradient
       id="linearGradient4803">
      <stop
         style="stop-color: rgb(201, 223, 24); stop-opacity: 1;"
         offset="0"
         id="stop4805" />
      <stop
         style="stop-color: rgb(232, 133, 36); stop-opacity: 0;"
         offset="1"
         id="stop4807" />
    </linearGradient>
    <linearGradient
       gradientTransform="translate(-102.39987,-30.764801)"
       inkscape:collect="always"
       xlink:href="#linearGradient3737"
       id="linearGradient3188"
       gradientUnits="userSpaceOnUse"
       x1="36.357143"
       y1="6"
       x2="36.357143"
       y2="63.893143" />
    <radialGradient
       inkscape:collect="always"
       xlink:href="#linearGradient4980"
       id="radialGradient4008"
       cx="6"
       cy="6"
       fx="6"
       fy="6"
       r="42"
       gradientUnits="userSpaceOnUse" />
    <linearGradient
       id="linearGradient4980">
      <stop
         style="stop-color: rgb(116, 195, 50); stop-opacity: 1;"
         offset="0"
         id="stop4982" />
      <stop
         style="stop-color: rgb(158, 205, 94); stop-opacity: 1;"
         offset="1"
         id="stop4984" />
    </linearGradient>
    <radialGradient
       gradientTransform="translate(-102.39987,-30.764801)"
       r="42"
       fy="6"
       fx="6"
       cy="6"
       cx="6"
       gradientUnits="userSpaceOnUse"
       id="radialGradient4125"
       xlink:href="#linearGradient4980"
       inkscape:collect="always" />
    <linearGradient
       inkscape:collect="always"
       xlink:href="#linearGradient4980"
       id="linearGradient3726"
       gradientUnits="userSpaceOnUse"
       gradientTransform="translate(22.119372,-7.2581977)"
       x1="-3.0607977"
       y1="27.258198"
       x2="-3.0607977"
       y2="7.2536583" />
    <linearGradient
       inkscape:collect="always"
       xlink:href="#linearGradient4787"
       id="linearGradient3729"
       gradientUnits="userSpaceOnUse"
       gradientTransform="matrix(0.10470796,0,0,0.10471121,-26.074652,-9.619)"
       x1="373.12482"
       y1="91.875"
       x2="363.62491"
       y2="258.54688" />
    <linearGradient
       y2="16"
       x2="10"
       y1="1"
       x1="10"
       gradientUnits="userSpaceOnUse"
       id="linearGradient3078"
       xlink:href="#linearGradient3823"
       inkscape:collect="always"
       gradientTransform="translate(1,-1)" />
    <linearGradient
       id="linearGradient3823">
      <stop
         id="stop3825"
         offset="0"
         style="stop-color:#ffffff;stop-opacity:1;" />
      <stop
         id="stop3829"
         offset="1"
         style="stop-color:#ffffff;stop-opacity:0;" />
    </linearGradient>
    <linearGradient
       inkscape:collect="always"
       xlink:href="#linearGradient3831"
       id="linearGradient3845"
       x1="11"
       y1="19.5"
       x2="21"
       y2="19.5"
       gradientUnits="userSpaceOnUse"
       spreadMethod="reflect"
       gradientTransform="translate(1,-1)" />
    <linearGradient
       id="linearGradient3831">
      <stop
         style="stop-color:#ffffff;stop-opacity:1;"
         offset="0"
         id="stop3833" />
      <stop
         id="stop3821"
         offset="0.75"
         style="stop-color:#ffffff;stop-opacity:0.49803922;" />
      <stop
         style="stop-color:#ffffff;stop-opacity:0;"
         offset="1"
         id="stop3835" />
    </linearGradient>
    <linearGradient
       y2="16"
       x2="10"
       y1="1"
       x1="10"
       gradientTransform="translate(1,-1)"
       gradientUnits="userSpaceOnUse"
       id="linearGradient3915"
       xlink:href="#linearGradient3823"
       inkscape:collect="always" />
    <linearGradient
       inkscape:collect="always"
       xlink:href="#linearGradient4787-2"
       id="linearGradient3729-6"
       gradientUnits="userSpaceOnUse"
       gradientTransform="matrix(0.10470796,0,0,0.10471121,-26.074652,-9.619)"
       x1="373.12482"
       y1="91.875"
       x2="363.62491"
       y2="258.54688" />
    <linearGradient
       inkscape:collect="always"
       id="linearGradient4787-2">
      <stop
         style="stop-color: white; stop-opacity: 1;"
         offset="0"
         id="stop4789-1" />
      <stop
         style="stop-color: white; stop-opacity: 0;"
         offset="1"
         id="stop4791-9" />
    </linearGradient>
    <linearGradient
       y2="258.54688"
       x2="363.62491"
       y1="91.875"
       x1="373.12482"
       gradientTransform="matrix(0.10470796,0,0,0.10471121,-26.074652,-7.619)"
       gradientUnits="userSpaceOnUse"
       id="linearGradient3875"
       xlink:href="#linearGradient4787-2"
       inkscape:collect="always" />
  </defs>
  <sodipodi:namedview
     id="base"
     pagecolor="#ffffff"
     bordercolor="#e7e7e7"
     borderopacity="1"
     inkscape:pageopacity="0.0"
     inkscape:pageshadow="2"
     inkscape:zoom="24.339058"
     inkscape:cx="2.7484535"
     inkscape:cy="5.5839943"
     inkscape:document-units="px"
     inkscape:current-layer="layer3"
     showgrid="true"
     inkscape:showpageshadow="false"
     showguides="false"
     inkscape:guide-bbox="true"
     inkscape:window-width="1920"
     inkscape:window-height="1030"
     inkscape:window-x="0"
     inkscape:window-y="25"
     inkscape:window-maximized="1">
    <sodipodi:guide
       orientation="1,0"
       position="0,112"
       id="guide2383" />
    <sodipodi:guide
       orientation="0,1"
       position="26.278146,128"
       id="guide2385" />
    <sodipodi:guide
       orientation="1,0"
       position="128,54.082119"
       id="guide2387" />
    <sodipodi:guide
       orientation="0,1"
       position="78.156291,0"
       id="guide2389" />
    <sodipodi:guide
       orientation="0,1"
       position="60.863576,64.084768"
       id="guide2391" />
    <inkscape:grid
       type="xygrid"
       id="grid3672"
       visible="true"
       enabled="true"
       empspacing="8"
       snapvisiblegridlinesonly="true" />
  </sodipodi:namedview>
  <metadata
     id="metadata7">
    <rdf:RDF>
      <cc:Work
         rdf:about="">
        <dc:format>image/svg+xml</dc:format>
        <dc:type
           rdf:resource="http://purl.org/dc/dcmitype/StillImage" />
        <dc:title></dc:title>
      </cc:Work>
    </rdf:RDF>
  </metadata>
  <g
     inkscape:label="Button"
     inkscape:groupmode="layer"
     id="layer1"
     transform="translate(0,2)"
     sodipodi:insensitive="true">
    <g
       style="display:inline"
       id="g3337"
       transform="translate(1,-1)">
      <rect
         ry="2.5"
         rx="2.5"
         y="0.5"
         x="0.5"
         height="21.5"
         width="21"
         id="rect3371"
         style="opacity:0.3;fill:url(#linearGradient3335);fill-opacity:1;stroke:none;display:inline" />
      <rect
         style="opacity:0.5;fill:#000000;fill-opacity:1;stroke:none;display:inline"
         id="rect2553"
         width="20"
         height="20"
         x="1"
         y="2"
         rx="2.3809524"
         ry="2.3255813" />
    </g>
    <rect
       style="fill:url(#linearGradient3181);fill-opacity:1;fill-rule:evenodd;stroke:none;display:inline"
       id="rect3173"
       width="20"
       height="20"
       x="2"
       y="0"
       rx="2"
       ry="2" />
    <path
       style="opacity:0.4;fill:url(#radialGradient4033);fill-opacity:1;fill-rule:evenodd;stroke:none"
       d="M 8.46875,11.25 C 5.965165,11.2414 3.822265,11.536519 2,12.03125 2.000476,12.165872 1.99422,12.304176 2,12.4375 L 2,20 c 0,1.108 0.892,2 2,2 l 8,0 8,0 c 1.108,0 2,-0.892 2,-2 l 0,-6.21875 -0.15625,0 c 0.0067,-0.03753 -0.0063,-0.08732 0,-0.125 C 21.237398,13.509855 20.637678,13.349492 20,13.15625 15.505756,11.794316 11.687645,11.261094 8.46875,11.25 z m 13.5,1.6875 c -0.0043,-9.29e-4 -0.03915,0.225836 -0.09375,0.6875 0.07163,-0.457952 0.09801,-0.686572 0.09375,-0.6875 z"
       transform="translate(0,-2)"
       id="path3124"
       inkscape:connector-curvature="0" />
    <path
       style="opacity:0.3;fill:url(#radialGradient4035);fill-opacity:1;fill-rule:evenodd;stroke:none"
       d="m 12,6.75 c -5.5226307,0 -10,4.477198 -10,10 0,0.02499 -1.83e-4,0.06881 0,0.09375 L 2,20 c 0,1.108 0.892,2 2,2 l 16,0 c 1.108,0 2,-0.892 2,-2 l 0,-3.15625 c 1.84e-4,-0.02495 0,-0.06876 0,-0.09375 0,-5.522802 -4.477369,-10 -10,-10 z"
       transform="translate(0,-2)"
       id="path3126"
       inkscape:connector-curvature="0" />
    <path
       style="opacity:0.3;fill:url(#linearGradient3729);fill-opacity:1;fill-rule:evenodd;stroke:none"
       d="M 4,0 C 2.892,0 2,0.892 2,2 L 2,9.90625 C 1.999643,9.94114 2,9.965034 2,10 c 0,0.01216 -4.3e-5,0.0191 0,0.03125 4.165144,-1.130808 10.010297,-1.296198 18,1.125 0.637674,0.19324 1.237403,0.353605 1.84375,0.5 0.02508,-0.149871 0.07543,-0.285649 0.09375,-0.4375 L 22,11.25 22,10 22,2 C 22,0.892 21.108,0 20,0 L 12,0 4,0 z"
       id="path3132"
       inkscape:connector-curvature="0" />
  </g>
  <g
     inkscape:groupmode="layer"
     id="layer2"
     inkscape:label="Highlight"
     transform="translate(0,2)"
     style="display:inline"
     sodipodi:insensitive="true" />
  <g
     inkscape:groupmode="layer"
     id="layer3"
     inkscape:label="Symbol"
     transform="translate(0,2)"
     style="display:inline">
    <path
       sodipodi:type="inkscape:offset"
       inkscape:radius="0.52741188"
       inkscape:original="M 8 5 C 7.184403 5 6.5 5.684403 6.5 6.5 L 6.5 14.5 C 6.5 15.315597 7.184403 16 8 16 L 10 16 C 10.815597 16 11.5 15.315597 11.5 14.5 L 11.5 6.5 C 11.5 5.684403 10.815597 5 10 5 L 8 5 z M 14 5 C 13.184403 5 12.5 5.684403 12.5 6.5 L 12.5 14.5 C 12.5 15.315597 13.184403 16 14 16 L 16 16 C 16.815597 16 17.5 15.315597 17.5 14.5 L 17.5 6.5 C 17.5 5.684403 16.815597 5 16 5 L 14 5 z "
       style="opacity:0.1;fill:#2d5016;fill-opacity:1;fill-rule:evenodd;stroke:none;display:inline"
       id="path3908"
       d="M 8,4.46875 C 6.8893535,4.46875 5.96875,5.3893535 5.96875,6.5 l 0,8 c 0,1.110647 0.9206035,2.03125 2.03125,2.03125 l 2,0 c 1.055114,0 1.914624,-0.840021 2,-1.875 0.08538,1.034979 0.944886,1.875 2,1.875 l 2,0 c 1.110647,0 2.03125,-0.920603 2.03125,-2.03125 l 0,-8 C 18.03125,5.3893535 17.110647,4.46875 16,4.46875 l -2,0 c -1.055114,0 -1.914624,0.8400214 -2,1.875 -0.08538,-1.0349786 -0.944886,-1.875 -2,-1.875 l -2,0 z" />
    <path
       sodipodi:type="inkscape:offset"
       inkscape:radius="0.48741505"
       inkscape:original="M 8 5.5 C 7.446 5.5 7 5.946 7 6.5 L 7 14.5 C 7 15.054 7.446 15.5 8 15.5 L 10 15.5 C 10.554 15.5 11 15.054 11 14.5 L 11 6.5 C 11 5.946 10.554 5.5 10 5.5 L 8 5.5 z M 14 5.5 C 13.446 5.5 13 5.946 13 6.5 L 13 14.5 C 13 15.054 13.446 15.5 14 15.5 L 16 15.5 C 16.554 15.5 17 15.054 17 14.5 L 17 6.5 C 17 5.946 16.554 5.5 16 5.5 L 14 5.5 z "
       style="opacity:0.15;fill:#2d5016;fill-opacity:1;fill-rule:evenodd;stroke:none;display:inline"
       id="path3904"
       d="M 8,5 C 7.184403,5 6.5,5.684403 6.5,6.5 l 0,8 C 6.5,15.315597 7.184403,16 8,16 l 2,0 c 0.815597,0 1.5,-0.684403 1.5,-1.5 l 0,-8 C 11.5,5.684403 10.815597,5 10,5 L 8,5 z m 6,0 c -0.815597,0 -1.5,0.684403 -1.5,1.5 l 0,8 c 0,0.815597 0.684403,1.5 1.5,1.5 l 2,0 c 0.815597,0 1.5,-0.684403 1.5,-1.5 l 0,-8 C 17.5,5.684403 16.815597,5 16,5 l -2,0 z" />
    <path
       sodipodi:nodetypes="ssssssssssssssssss"
       inkscape:connector-curvature="0"
       id="path3898"
       d="m 8,5.5 c -0.554,0 -1,0.446 -1,1 l 0,8 c 0,0.554 0.446,1 1,1 l 2,0 c 0.554,0 1,-0.446 1,-1 l 0,-8 c 0,-0.554 -0.446,-1 -1,-1 z m 6,0 c -0.554,0 -1,0.446 -1,1 l 0,8 c 0,0.554 0.446,1 1,1 l 2,0 c 0.554,0 1,-0.446 1,-1 l 0,-8 c 0,-0.554 -0.446,-1 -1,-1 z"
       style="fill:#2d5016;fill-opacity:1;fill-rule:evenodd;stroke:none;display:inline;opacity:0.3" />
    <path
       style="fill:url(#linearGradient3994);fill-opacity:1;fill-rule:evenodd;stroke:none;display:inline"
       d="M 8,7 C 7.446,7 7,7.446 7,8 l 0,8 c 0,0.554 0.446,1 1,1 l 2,0 c 0.554,0 1,-0.446 1,-1 L 11,8 C 11,7.446 10.554,7 10,7 z m 6,0 c -0.554,0 -1,0.446 -1,1 l 0,8 c 0,0.554 0.446,1 1,1 l 2,0 c 0.554,0 1,-0.446 1,-1 L 17,8 C 17,7.446 16.554,7 16,7 z"
       transform="translate(0,-2)"
       id="path3128"
       inkscape:connector-curvature="0"
       sodipodi:nodetypes="ssssssssssssssssss" />
    <path
       style="fill:url(#linearGradient3986);fill-opacity:1;fill-rule:evenodd;stroke:none;display:inline"
       d="M 8,7 C 7.446,7 7,7.446 7,8 l 0,3.28125 c 1.227507,-0.05891 2.5762874,-0.025 4,0.09375 L 11,8 C 11,7.446 10.554,7 10,7 z m 6,0 c -0.554,0 -1,0.446 -1,1 l 0,3.59375 c 1.272027,0.177588 2.57928,0.410462 4,0.75 L 17,8 C 17,7.446 16.554,7 16,7 z"
       transform="translate(0,-2)"
       id="path3130"
       inkscape:connector-curvature="0"
       sodipodi:nodetypes="ssccsssssccsss" />
    <path
       style="opacity:0.4;fill:url(#linearGradient3915);fill-opacity:1;fill-rule:evenodd;stroke:none;display:inline"
       d="M 4,0 C 2.892,0 2,0.892 2,2 l 0,16 c 0,1.108 0.892,2 2,2 l 16,0 c 1.108,0 2,-0.892 2,-2 L 22,2 C 22,0.892 21.108,0 20,0 L 4,0 z m 0,1.03125 16,0 c 0.5497,0 0.96875,0.4190495 0.96875,0.96875 l 0,16 c 0,0.5497 -0.41905,0.96875 -0.96875,0.96875 l -16,0 C 3.4502995,18.96875 3.03125,18.5497 3.03125,18 l 0,-16 C 3.03125,1.4502995 3.4502995,1.03125 4,1.03125 z"
       id="rect3050"
       inkscape:connector-curvature="0" />
    <path
       id="path3235"
       d="M 4,20 C 2.892,20 2,19.108 2,18 l 0,-1 c 0,1.108 0.892,2 2,2 l 16,0 c 1.108,0 2,-0.892 2,-2 l 0,1 c 0,1.108 -0.892,2 -2,2 L 4,20 z"
       style="opacity:0.3;fill:url(#linearGradient3845);fill-opacity:1;fill-rule:evenodd;stroke:none;display:inline"
       inkscape:connector-curvature="0" />
  </g>
</svg>
