<?xml version="1.0" encoding="UTF-8" standalone="no"?>
<!-- Created with Inkscape (http://www.inkscape.org/) -->

<svg
   xmlns:dc="http://purl.org/dc/elements/1.1/"
   xmlns:cc="http://creativecommons.org/ns#"
   xmlns:rdf="http://www.w3.org/1999/02/22-rdf-syntax-ns#"
   xmlns:svg="http://www.w3.org/2000/svg"
   xmlns="http://www.w3.org/2000/svg"
   xmlns:xlink="http://www.w3.org/1999/xlink"
   xmlns:sodipodi="http://sodipodi.sourceforge.net/DTD/sodipodi-0.dtd"
   xmlns:inkscape="http://www.inkscape.org/namespaces/inkscape"
   width="22"
   height="22"
   id="svg2"
   sodipodi:version="0.32"
   inkscape:version="0.48.1 r9760"
   version="1.0"
   sodipodi:docname="ibus-keyboard.svg"
   inkscape:output_extension="org.inkscape.output.svg.inkscape"
   style="display:inline"
   inkscape:export-filename="/home/matthieu/Eye-Candy/Faience/0.1/sources/status/small/audio-volume-high.png"
   inkscape:export-xdpi="90"
   inkscape:export-ydpi="90">
  <defs
     id="defs4">
    <linearGradient
       id="StandardGradient"
       gradientTransform="scale(0.9219544,1.0846523)"
       x1="11.998966"
       y1="0.92195445"
       x2="11.998966"
       y2="19.387045"
       gradientUnits="userSpaceOnUse">
      <stop
         style="stop-color:#000000;stop-opacity:0.23529412;"
         offset="0"
         id="stop3283-1" />
      <stop
         id="stop3850"
         offset="0.69999999"
         style="stop-color:#000000;stop-opacity:0.39215686;" />
      <stop
         style="stop-color:#000000;stop-opacity:0.55;"
         offset="1"
         id="stop2651" />
    </linearGradient>
    <linearGradient
       id="SpecificGradient"
       x1="10.406627"
       y1="2"
       x2="10.406627"
       y2="18.000771"
       gradientUnits="userSpaceOnUse">
      <stop
         style="stop-color:#e64b36;stop-opacity:1;"
         offset="0"
         id="stop3292" />
      <stop
         style="stop-color:#a31414;stop-opacity:1;"
         offset="1"
         id="stop3294" />
    </linearGradient>
    <radialGradient
       inkscape:collect="always"
       xlink:href="#StandardGradient"
       id="radialGradient3826"
       cx="13"
       cy="11.997729"
       fx="13"
       fy="11.997729"
       r="9.9846087"
       gradientTransform="matrix(1.5023123,0,0,1.0022927,-6.5300594,-0.0252368)"
       gradientUnits="userSpaceOnUse" />
    <radialGradient
       inkscape:collect="always"
       xlink:href="#StandardGradient"
       id="radialGradient3851"
       cx="36"
       cy="2"
       fx="36"
       fy="2"
       r="4"
       gradientUnits="userSpaceOnUse" />
    <radialGradient
       inkscape:collect="always"
       xlink:href="#SpecificGradient"
       id="radialGradient3855"
       gradientUnits="userSpaceOnUse"
       cx="36"
       cy="2"
       fx="36"
       fy="2"
       r="4"
       gradientTransform="translate(0,10)" />
    <radialGradient
       inkscape:collect="always"
       xlink:href="#StandardGradient"
       id="radialGradient3827"
       cx="13"
       cy="12.499498"
       fx="13"
       fy="12.499498"
       r="9.0085821"
       gradientTransform="matrix(1.6650789,0,0,0.77703685,-8.6460257,2.2874294)"
       gradientUnits="userSpaceOnUse" />
    <radialGradient
       inkscape:collect="always"
       xlink:href="#StandardGradient"
       id="radialGradient3833"
       gradientUnits="userSpaceOnUse"
       gradientTransform="matrix(1.6650789,0,0,0.77703685,-8.6460257,2.2874294)"
       cx="13"
       cy="12.499498"
       fx="13"
       fy="12.499498"
       r="9.0085821" />
    <radialGradient
       inkscape:collect="always"
       xlink:href="#StandardGradient"
       id="radialGradient3837"
       gradientUnits="userSpaceOnUse"
       gradientTransform="matrix(1.6650789,0,0,0.77703685,-8.6460257,2.2874294)"
       cx="13"
       cy="12.499498"
       fx="13"
       fy="12.499498"
       r="9.0085821" />
    <radialGradient
       inkscape:collect="always"
       xlink:href="#StandardGradient"
       id="radialGradient3839"
       gradientUnits="userSpaceOnUse"
       gradientTransform="matrix(1.6650789,0,0,0.77703685,-8.6460257,2.2874294)"
       cx="13"
       cy="12.499498"
       fx="13"
       fy="12.499498"
       r="9.0085821" />
  </defs>
  <sodipodi:namedview
     id="base"
     pagecolor="#818181"
     bordercolor="#ffcfcf"
     borderopacity="1"
     inkscape:pageopacity="1"
     inkscape:pageshadow="2"
     inkscape:zoom="31.922403"
     inkscape:cx="0.5941761"
     inkscape:cy="10.346583"
     inkscape:document-units="px"
     inkscape:current-layer="layer1"
     showgrid="true"
     inkscape:showpageshadow="false"
     showguides="true"
     inkscape:guide-bbox="true"
     inkscape:window-width="1920"
     inkscape:window-height="1030"
     inkscape:window-x="0"
     inkscape:window-y="25"
     inkscape:window-maximized="1"
     borderlayer="true"
     inkscape:snap-global="true">
    <sodipodi:guide
       orientation="0,1"
       position="26.278146,128"
       id="guide2385" />
    <sodipodi:guide
       orientation="1,0"
       position="128,54.082119"
       id="guide2387" />
    <sodipodi:guide
       orientation="0,1"
       position="60.863576,64.084768"
       id="guide2391" />
    <inkscape:grid
       type="xygrid"
       id="grid3672"
       visible="true"
       enabled="true"
       empspacing="8"
       snapvisiblegridlinesonly="true" />
    <sodipodi:guide
       orientation="1,0"
       position="13,6"
       id="guide3013" />
    <sodipodi:guide
       orientation="0,1"
       position="18,10"
       id="guide3015" />
  </sodipodi:namedview>
  <metadata
     id="metadata7">
    <rdf:RDF>
      <cc:Work
         rdf:about="">
        <dc:format>image/svg+xml</dc:format>
        <dc:type
           rdf:resource="http://purl.org/dc/dcmitype/StillImage" />
        <dc:title></dc:title>
      </cc:Work>
    </rdf:RDF>
  </metadata>
  <g
     inkscape:label="Icon"
     inkscape:groupmode="layer"
     id="layer1"
     style="display:inline">
    <rect
       style="opacity:0.80000000000000004;color:#000000;fill:url(#radialGradient3851);fill-opacity:1;fill-rule:nonzero;stroke:none;stroke-width:2;stroke-linecap:round;stroke-linejoin:round;stroke-miterlimit:4;stroke-opacity:1;stroke-dasharray:none;stroke-dashoffset:8.59999999999999787;marker:none;visibility:visible;display:inline;overflow:visible;enable-background:accumulate"
       id="rect3841"
       width="8"
       height="8"
       x="32"
       y="-2" />
    <rect
       y="8"
       x="32"
       height="8"
       width="8"
       id="rect3853"
       style="opacity:0.80000000000000004;color:#000000;fill:url(#radialGradient3855);fill-opacity:1.0;fill-rule:nonzero;stroke:none;stroke-width:2;marker:none;visibility:visible;display:inline;overflow:visible;enable-background:accumulate" />
    <path
       inkscape:connector-curvature="0"
       style="opacity:0.05;fill:#ffffff;fill-opacity:1;stroke:none;display:inline"
       d="M 3.5,4.0312497 C 2.0515823,3.992714 0.99706368,5.233107 1.0625,6.6249997 l -0.03125,0 c 3.87e-5,0.031194 -3.43e-5,0.062555 0,0.09375 0.00325,2.9531768 -0.012852,5.9113963 0,8.8750003 -1.654e-4,0.01042 -1.654e-4,0.02083 0,0.03125 0.063837,1.425876 1.3204744,2.370859 2.65625,2.3125 l 0,0.03125 c 0.03126,-3.4e-5 0.062491,3.1e-5 0.09375,0 4.9597641,-0.005 9.90588,0.01895 14.875,0 0.02083,6.62e-4 0.04167,6.62e-4 0.0625,0 1.439938,-0.0743 2.31464,-1.366489 2.21875,-2.6875 l 0.03125,0 c -3.9e-5,-0.04157 3.3e-5,-0.08342 0,-0.125 -0.0023,-2.920702 0.0095,-5.852954 0,-8.7812503 1.65e-4,-0.010416 1.65e-4,-0.020834 0,-0.03125 -0.05189,-1.4418103 -1.334719,-2.3525106 -2.65625,-2.28125 l 0,-0.03125 -0.09375,0 -14.6875,0 -0.03125,0 z m 0,0.96875 14.8125,0 c 0.81858,-0.07739 1.656874,0.5240894 1.6875,1.375 C 20.0096,9.340105 19.9972,12.316018 20,15.28125 20.102579,16.095772 19.509754,16.95596 18.65625,17 13.661517,17.01905 8.6825816,16.9946 3.6875,17 2.8637194,17.06925 2.037895,16.440174 2,15.59375 1.98704,12.605348 2.00371,9.6136693 2,6.6249997 1.9237404,5.777194 2.6317594,4.9657601 3.5,4.9999997 z m 0.5,2 0,2 2,0 0,-2 -2,0 z m 3,0 0,2 2,0 0,-2 -2,0 z m 3,0 0,2 2,0 0,-2 -2,0 z m 3,0 0,2 2,0 0,-2 -2,0 z m 3,0 0,2 2,0 0,-2 -2,0 z m -12,3 L 4,12 l 2,0 0,-2.0000003 -2,0 z m 3,0 L 7,12 l 2,0 0,-2.0000003 -2,0 z m 3,0 L 10,12 l 2,0 0,-2.0000003 -2,0 z m 3,0 L 13,12 l 2,0 0,-2.0000003 -2,0 z m 3,0 L 16,12 l 2,0 0,-2.0000003 -2,0 z M 4,13 l 0,2 2,0 0,-2 -2,0 z m 3,0 0,2 8,0 0,-2 -8,0 z m 9,0 0,2 2,0 0,-2 -2,0 z"
       id="path3978" />
    <path
       inkscape:connector-curvature="0"
       style="fill:url(#radialGradient3827);fill-opacity:1;stroke:none;display:inline"
       d="M 3.5,4.9999997 C 2.6317594,4.9657601 1.9237404,5.777194 2,6.6249997 2.00371,9.6136693 1.98704,12.605348 2,15.59375 2.037895,16.440174 2.8637194,17.069252 3.6875,17 8.6825816,16.9946 13.661517,17.01905 18.65625,17 19.509754,16.95596 20.102579,16.095772 20,15.28125 19.9972,12.316018 20.0096,9.340105 20,6.3749997 19.96937,5.5240891 19.13108,4.9226095 18.3125,4.9999997 l -14.8125,0 z m 0.5,2 2,0 0,2 -2,0 0,-2 z m 3,0 2,0 0,2 -2,0 0,-2 z m 3,0 2,0 0,2 -2,0 0,-2 z m 3,0 2,0 0,2 -2,0 0,-2 z m 3,0 2,0 0,2 -2,0 0,-2 z m -12,3 2,0 L 6,12 4,12 4,9.9999997 z m 3,0 2,0 L 9,12 7,12 7,9.9999997 z m 3,0 2,0 L 12,12 10,12 10,9.9999997 z m 3,0 2,0 L 15,12 13,12 13,9.9999997 z m 3,0 2,0 L 18,12 16,12 16,9.9999997 z M 4,13 l 2,0 0,2 -2,0 0,-2 z m 3,0 8,0 0,2 -8,0 0,-2 z m 9,0 2,0 0,2 -2,0 0,-2 z"
       id="rect2932" />
    <path
       style="fill:#000000;fill-opacity:1;stroke:none;display:inline;opacity:0.29999999999999999"
       d="M 3.5 5 C 2.6317594 4.9657604 1.9237404 5.7771943 2 6.625 C 2.00371 9.6136696 1.98704 12.605348 2 15.59375 C 2.037895 16.440174 2.8637194 17.069252 3.6875 17 C 8.6825816 16.9946 13.661517 17.01905 18.65625 17 C 19.509754 16.95596 20.102579 16.095772 20 15.28125 C 19.9972 12.316018 20.0096 9.3401053 20 6.375 C 19.96937 5.5240894 19.13108 4.9226098 18.3125 5 L 3.5 5 z M 3.46875 5.5 A 0.50126552 0.50126552 0 0 0 3.5 5.5 L 18.3125 5.5 A 0.50126552 0.50126552 0 0 0 18.375 5.5 C 18.909854 5.4494338 19.462238 5.8575552 19.5 6.375 C 19.500034 6.3853952 19.499967 6.3958545 19.5 6.40625 C 19.509405 9.358567 19.497208 12.324714 19.5 15.28125 A 0.50126552 0.50126552 0 0 0 19.5 15.34375 C 19.565994 15.867768 19.172387 16.453343 18.65625 16.5 C 18.646817 16.500853 18.634513 16.499509 18.625 16.5 C 13.64365 16.518818 8.6741449 16.494609 3.6875 16.5 A 0.50126552 0.50126552 0 0 0 3.65625 16.5 C 3.1223387 16.544884 2.5423016 16.113679 2.5 15.59375 C 2.4999549 15.583349 2.5000444 15.572901 2.5 15.5625 C 2.4873045 12.587771 2.5036999 9.6055271 2.5 6.625 A 0.50126552 0.50126552 0 0 0 2.5 6.59375 C 2.4510956 6.0500623 2.9227843 5.4784695 3.46875 5.5 z M 3.875 6.5 A 0.50126552 0.50126552 0 0 0 3.5 7 L 3.5 9 A 0.50126552 0.50126552 0 0 0 3.84375 9.5 A 0.50126552 0.50126552 0 0 0 3.5 10 L 3.5 12 A 0.50126552 0.50126552 0 0 0 3.84375 12.5 A 0.50126552 0.50126552 0 0 0 3.5 13 L 3.5 15 A 0.50126552 0.50126552 0 0 0 4 15.5 L 6 15.5 A 0.50126552 0.50126552 0 0 0 6.5 15.15625 A 0.50126552 0.50126552 0 0 0 7 15.5 L 15 15.5 A 0.50126552 0.50126552 0 0 0 15.5 15.15625 A 0.50126552 0.50126552 0 0 0 16 15.5 L 18 15.5 A 0.50126552 0.50126552 0 0 0 18.5 15 L 18.5 13 A 0.50126552 0.50126552 0 0 0 18.15625 12.5 A 0.50126552 0.50126552 0 0 0 18.5 12 L 18.5 10 A 0.50126552 0.50126552 0 0 0 18.15625 9.5 A 0.50126552 0.50126552 0 0 0 18.5 9 L 18.5 7 A 0.50126552 0.50126552 0 0 0 18 6.5 L 16 6.5 A 0.50126552 0.50126552 0 0 0 15.5 6.84375 A 0.50126552 0.50126552 0 0 0 15 6.5 L 13 6.5 A 0.50126552 0.50126552 0 0 0 12.5 6.84375 A 0.50126552 0.50126552 0 0 0 12 6.5 L 10 6.5 A 0.50126552 0.50126552 0 0 0 9.5 6.84375 A 0.50126552 0.50126552 0 0 0 9 6.5 L 7 6.5 A 0.50126552 0.50126552 0 0 0 6.5 6.84375 A 0.50126552 0.50126552 0 0 0 6 6.5 L 4 6.5 A 0.50126552 0.50126552 0 0 0 3.90625 6.5 A 0.50126552 0.50126552 0 0 0 3.875 6.5 z M 4 7 L 6 7 L 6 9 L 4 9 L 4 7 z M 7 7 L 9 7 L 9 9 L 7 9 L 7 7 z M 10 7 L 12 7 L 12 9 L 10 9 L 10 7 z M 13 7 L 15 7 L 15 9 L 13 9 L 13 7 z M 16 7 L 18 7 L 18 9 L 16 9 L 16 7 z M 6.5 9.15625 A 0.50126552 0.50126552 0 0 0 6.84375 9.5 A 0.50126552 0.50126552 0 0 0 6.5 9.84375 A 0.50126552 0.50126552 0 0 0 6.15625 9.5 A 0.50126552 0.50126552 0 0 0 6.5 9.15625 z M 9.5 9.15625 A 0.50126552 0.50126552 0 0 0 9.84375 9.5 A 0.50126552 0.50126552 0 0 0 9.5 9.84375 A 0.50126552 0.50126552 0 0 0 9.15625 9.5 A 0.50126552 0.50126552 0 0 0 9.5 9.15625 z M 12.5 9.15625 A 0.50126552 0.50126552 0 0 0 12.84375 9.5 A 0.50126552 0.50126552 0 0 0 12.5 9.84375 A 0.50126552 0.50126552 0 0 0 12.15625 9.5 A 0.50126552 0.50126552 0 0 0 12.5 9.15625 z M 15.5 9.15625 A 0.50126552 0.50126552 0 0 0 15.84375 9.5 A 0.50126552 0.50126552 0 0 0 15.5 9.84375 A 0.50126552 0.50126552 0 0 0 15.15625 9.5 A 0.50126552 0.50126552 0 0 0 15.5 9.15625 z M 4 10 L 6 10 L 6 12 L 4 12 L 4 10 z M 7 10 L 9 10 L 9 12 L 7 12 L 7 10 z M 10 10 L 12 10 L 12 12 L 10 12 L 10 10 z M 13 10 L 15 10 L 15 12 L 13 12 L 13 10 z M 16 10 L 18 10 L 18 12 L 16 12 L 16 10 z M 6.5 12.15625 A 0.50126552 0.50126552 0 0 0 6.84375 12.5 A 0.50126552 0.50126552 0 0 0 6.5 12.84375 A 0.50126552 0.50126552 0 0 0 6.15625 12.5 A 0.50126552 0.50126552 0 0 0 6.5 12.15625 z M 9.5 12.15625 A 0.50126552 0.50126552 0 0 0 9.84375 12.5 L 9.15625 12.5 A 0.50126552 0.50126552 0 0 0 9.5 12.15625 z M 12.5 12.15625 A 0.50126552 0.50126552 0 0 0 12.84375 12.5 L 12.15625 12.5 A 0.50126552 0.50126552 0 0 0 12.5 12.15625 z M 15.5 12.15625 A 0.50126552 0.50126552 0 0 0 15.84375 12.5 A 0.50126552 0.50126552 0 0 0 15.5 12.84375 A 0.50126552 0.50126552 0 0 0 15.15625 12.5 A 0.50126552 0.50126552 0 0 0 15.5 12.15625 z M 4 13 L 6 13 L 6 15 L 4 15 L 4 13 z M 7 13 L 15 13 L 15 15 L 7 15 L 7 13 z M 16 13 L 18 13 L 18 15 L 16 15 L 16 13 z "
       id="path3829" />
    <path
       inkscape:connector-curvature="0"
       style="opacity:0.3;fill:#000000;fill-opacity:1;stroke:none;display:inline"
       d="m 3.5,4.9999997 c -0.8682406,-0.03424 -1.5762596,0.7771943 -1.5,1.625 2.844e-4,0.2290966 -6.74e-5,0.4583708 0,0.6875 0.096302,-0.722809 0.7402895,-1.3424597 1.5,-1.3125 l 14.8125,0 c 0.81858,-0.07739 1.656874,0.5240894 1.6875,1.375 -5.76e-4,-0.3331662 0.0011,-0.6670759 0,-1 -0.03063,-0.8509106 -0.86892,-1.4523902 -1.6875,-1.375 l -14.8125,0 z m 0.5,4 0,1 2,0 0,-1 -2,0 z m 3,0 0,1 2,0 0,-1 -2,0 z m 3,0 0,1 2,0 0,-1 -2,0 z m 3,0 0,1 2,0 0,-1 -2,0 z m 3,0 0,1 2,0 0,-1 -2,0 z M 4,12 l 0,1 2,0 0,-1 -2,0 z m 3,0 0,1 2,0 0,-1 -2,0 z m 3,0 0,1 2,0 0,-1 -2,0 z m 3,0 0,1 2,0 0,-1 -2,0 z m 3,0 0,1 2,0 0,-1 -2,0 z m -12,3 0,1 2,0 0,-1 -2,0 z m 3,0 0,1 8,0 0,-1 -8,0 z m 9,0 0,1 2,0 0,-1 -2,0 z"
       id="path3956" />
    <path
       inkscape:connector-curvature="0"
       style="opacity:0.2;fill:#ffffff;fill-opacity:1;stroke:none;display:inline"
       d="m 4,6.9999997 0,1 2,0 0,-1 -2,0 z m 3,0 0,1 2,0 0,-1 -2,0 z m 3,0 0,1 2,0 0,-1 -2,0 z m 3,0 0,1 2,0 0,-1 -2,0 z m 3,0 0,1 2,0 0,-1 -2,0 z m -12,3 L 4,11 l 2,0 0,-1.0000003 -2,0 z m 3,0 L 7,11 l 2,0 0,-1.0000003 -2,0 z m 3,0 L 10,11 l 2,0 0,-1.0000003 -2,0 z m 3,0 L 13,11 l 2,0 0,-1.0000003 -2,0 z m 3,0 L 16,11 l 2,0 0,-1.0000003 -2,0 z M 4,13 l 0,1 2,0 0,-1 -2,0 z m 3,0 0,1 8,0 0,-1 -2,0 -1,0 -2,0 -1,0 -2,0 z m 9,0 0,1 2,0 0,-1 -2,0 z M 2,15.59375 c 7.776e-4,0.333274 -0.00144,0.666798 0,1 0.037895,0.846424 0.8637194,1.475502 1.6875,1.40625 4.9950816,-0.0054 9.974017,0.01905 14.96875,0 0.853504,-0.04404 1.446329,-0.904228 1.34375,-1.71875 -2.16e-4,-0.228895 5.2e-5,-0.458487 0,-0.6875 C 19.94358,16.304664 19.403066,16.961465 18.65625,17 13.661517,17.01905 8.6825816,16.9946 3.6875,17 2.8637194,17.06925 2.037895,16.440174 2,15.59375 z"
       id="path3965" />
  </g>
</svg>
