<?xml version="1.0" encoding="UTF-8" standalone="no"?>
<!-- Created with Inkscape (http://www.inkscape.org/) -->

<svg
   xmlns:dc="http://purl.org/dc/elements/1.1/"
   xmlns:cc="http://creativecommons.org/ns#"
   xmlns:rdf="http://www.w3.org/1999/02/22-rdf-syntax-ns#"
   xmlns:svg="http://www.w3.org/2000/svg"
   xmlns="http://www.w3.org/2000/svg"
   xmlns:xlink="http://www.w3.org/1999/xlink"
   xmlns:sodipodi="http://sodipodi.sourceforge.net/DTD/sodipodi-0.dtd"
   xmlns:inkscape="http://www.inkscape.org/namespaces/inkscape"
   width="22"
   height="22"
   id="svg2"
   sodipodi:version="0.32"
   inkscape:version="0.48.1 r9760"
   version="1.0"
   sodipodi:docname="indicator-messages-new.svg"
   inkscape:output_extension="org.inkscape.output.svg.inkscape"
   style="display:inline"
   inkscape:export-filename="/home/matthieu/Eye-Candy/Faience/0.1/sources/status/small/audio-volume-high.png"
   inkscape:export-xdpi="90"
   inkscape:export-ydpi="90">
  <defs
     id="defs4">
    <linearGradient
       gradientUnits="userSpaceOnUse"
       y2="19.387045"
       x2="11.998966"
       y1="0.92195445"
       x1="11.998966"
       gradientTransform="scale(0.9219544,1.0846523)"
       id="linearGradient3802">
      <stop
         id="stop3804"
         offset="0"
         style="stop-color:#000000;stop-opacity:0.23529412;" />
      <stop
         style="stop-color:#000000;stop-opacity:0.39215686;"
         offset="1"
         id="stop3806" />
      <stop
         id="stop3808"
         offset="1"
         style="stop-color:#000000;stop-opacity:0.55;" />
    </linearGradient>
    <linearGradient
       id="linearGradient3279">
      <stop
         style="stop-color:#f08e00;stop-opacity:1;"
         offset="0"
         id="stop3281" />
      <stop
         style="stop-color:#ffd200;stop-opacity:1;"
         offset="1"
         id="stop3283" />
    </linearGradient>
    <linearGradient
       inkscape:collect="always"
       xlink:href="#StandardGradient"
       id="linearGradient2934"
       gradientUnits="userSpaceOnUse"
       gradientTransform="matrix(1,0,0,-1,1,22.03125)"
       x1="7"
       y1="6"
       x2="7"
       y2="16" />
    <linearGradient
       inkscape:collect="always"
       xlink:href="#StandardGradient"
       id="linearGradient2936"
       gradientUnits="userSpaceOnUse"
       gradientTransform="matrix(1,0,0,-1,1,22.03125)"
       x1="10"
       y1="7"
       x2="10"
       y2="15" />
    <linearGradient
       inkscape:collect="always"
       xlink:href="#StandardGradient"
       id="linearGradient2938"
       gradientUnits="userSpaceOnUse"
       gradientTransform="matrix(1,0,0,-1,1,22.03125)"
       x1="13"
       y1="5"
       x2="13"
       y2="17" />
    <linearGradient
       inkscape:collect="always"
       xlink:href="#StandardGradient"
       id="linearGradient2940"
       gradientUnits="userSpaceOnUse"
       gradientTransform="matrix(1,0,0,-1,1,22.03125)"
       x1="16"
       y1="3"
       x2="16"
       y2="19" />
    <radialGradient
       inkscape:collect="always"
       xlink:href="#StandardGradient"
       id="radialGradient3857"
       cx="12"
       cy="12.447369"
       fx="12"
       fy="12.447369"
       r="6"
       gradientTransform="matrix(2.6666667,-9.1385016e-8,5.7115635e-8,1.6666667,-20.000001,-7.7456132)"
       gradientUnits="userSpaceOnUse" />
    <linearGradient
       id="StandardGradient"
       gradientTransform="scale(0.9219544,1.0846523)"
       x1="11.998966"
       y1="0.92195445"
       x2="11.998966"
       y2="19.387045"
       gradientUnits="userSpaceOnUse">
      <stop
         style="stop-color:#000000;stop-opacity:0.23529412;"
         offset="0"
         id="stop3283-1" />
      <stop
         id="stop3850"
         offset="0.69999999"
         style="stop-color:#000000;stop-opacity:0.39215686;" />
      <stop
         style="stop-color:#000000;stop-opacity:0.55;"
         offset="1"
         id="stop2651" />
    </linearGradient>
    <radialGradient
       r="6"
       fy="12.447369"
       fx="12"
       cy="12.447369"
       cx="12"
       gradientTransform="matrix(2.6666667,-9.1385016e-8,5.7115635e-8,1.6666667,-81.000001,-7.7456132)"
       gradientUnits="userSpaceOnUse"
       id="radialGradient3094"
       xlink:href="#StandardGradient"
       inkscape:collect="always" />
    <linearGradient
       inkscape:collect="always"
       xlink:href="#StandardGradient"
       id="linearGradient5517"
       gradientUnits="userSpaceOnUse"
       gradientTransform="matrix(1,0,0,-1,1,22.03125)"
       x1="16"
       y1="3"
       x2="16"
       y2="19" />
    <linearGradient
       inkscape:collect="always"
       xlink:href="#StandardGradient"
       id="linearGradient5522"
       gradientUnits="userSpaceOnUse"
       gradientTransform="matrix(1,0,0,-1,1,22.03125)"
       x1="16"
       y1="3"
       x2="16"
       y2="19" />
    <linearGradient
       inkscape:collect="always"
       xlink:href="#StandardGradient"
       id="linearGradient5526"
       gradientUnits="userSpaceOnUse"
       gradientTransform="matrix(1,0,0,-1,1,22.03125)"
       x1="16"
       y1="3"
       x2="16"
       y2="19" />
    <linearGradient
       inkscape:collect="always"
       xlink:href="#StandardGradient"
       id="linearGradient5528"
       gradientUnits="userSpaceOnUse"
       gradientTransform="matrix(1,0,0,-1,1,22.03125)"
       x1="16"
       y1="3"
       x2="16"
       y2="19" />
    <radialGradient
       inkscape:collect="always"
       xlink:href="#StandardGradient"
       id="radialGradient3786"
       cx="13"
       cy="12.055992"
       fx="13"
       fy="12.055992"
       r="9"
       gradientTransform="matrix(1.6666667,-9.5238096e-8,4.4444445e-8,0.7777778,-8.6666672,2.6231184)"
       gradientUnits="userSpaceOnUse" />
    <radialGradient
       inkscape:collect="always"
       xlink:href="#StandardGradient"
       id="radialGradient3040"
       gradientUnits="userSpaceOnUse"
       gradientTransform="matrix(1.7185356,-9.8202033e-8,4.5827616e-8,0.80198329,-10.446484,2.0969147)"
       cx="13"
       cy="12.055992"
       fx="13"
       fy="12.055992"
       r="9" />
    <radialGradient
       inkscape:collect="always"
       xlink:href="#StandardGradient"
       id="radialGradient3042"
       gradientUnits="userSpaceOnUse"
       gradientTransform="matrix(1.7185356,-9.8202033e-8,4.5827616e-8,0.80198329,-8.384241,2.0969147)"
       cx="13"
       cy="12.055992"
       fx="13"
       fy="12.055992"
       r="9" />
    <radialGradient
       inkscape:collect="always"
       xlink:href="#StandardGradient"
       id="radialGradient3046"
       gradientUnits="userSpaceOnUse"
       gradientTransform="matrix(1.7185356,-9.8202033e-8,4.5827616e-8,0.80198329,-9.4153623,2.0969147)"
       cx="13"
       cy="12.055992"
       fx="13"
       fy="12.055992"
       r="9" />
    <radialGradient
       inkscape:collect="always"
       xlink:href="#StandardGradient"
       id="radialGradient3832"
       gradientUnits="userSpaceOnUse"
       gradientTransform="matrix(1.6666667,-9.5238096e-8,4.4444445e-8,0.7777778,-8.6666672,22.623118)"
       cx="13"
       cy="12.055992"
       fx="13"
       fy="12.055992"
       r="9" />
    <radialGradient
       inkscape:collect="always"
       xlink:href="#StandardGradient"
       id="radialGradient3843"
       cx="13"
       cy="12.239852"
       fx="13"
       fy="12.239852"
       r="10.09375"
       gradientTransform="matrix(1.4860681,1.5854118e-8,0,0.89164084,-6.3188853,1.0864476)"
       gradientUnits="userSpaceOnUse" />
    <radialGradient
       inkscape:collect="always"
       xlink:href="#StandardGradient"
       id="radialGradient3861"
       gradientUnits="userSpaceOnUse"
       gradientTransform="matrix(1.4860681,1.5854118e-8,0,0.89164084,-6.3188853,1.0864476)"
       cx="13"
       cy="12.239852"
       fx="13"
       fy="12.239852"
       r="10.09375" />
    <radialGradient
       inkscape:collect="always"
       xlink:href="#StandardGradient"
       id="radialGradient3865"
       gradientUnits="userSpaceOnUse"
       gradientTransform="matrix(1.4860681,1.5854118e-8,0,0.89164084,-6.3188853,2.0864476)"
       cx="13"
       cy="12.239852"
       fx="13"
       fy="12.239852"
       r="10.09375" />
    <radialGradient
       inkscape:collect="always"
       xlink:href="#StandardGradient"
       id="radialGradient3872"
       gradientUnits="userSpaceOnUse"
       gradientTransform="matrix(1.4860681,1.5854118e-8,0,0.89164084,-6.3188853,1.0864476)"
       cx="13"
       cy="12.239852"
       fx="13"
       fy="12.239852"
       r="10.09375" />
    <radialGradient
       inkscape:collect="always"
       xlink:href="#StandardGradient"
       id="radialGradient3876"
       gradientUnits="userSpaceOnUse"
       gradientTransform="matrix(1.4860681,1.5854118e-8,0,0.89164084,-6.3188853,1.0864476)"
       cx="13"
       cy="12.239852"
       fx="13"
       fy="12.239852"
       r="10.09375" />
    <radialGradient
       inkscape:collect="always"
       xlink:href="#StandardGradient"
       id="radialGradient3878"
       gradientUnits="userSpaceOnUse"
       gradientTransform="matrix(1.4860681,1.5854118e-8,0,0.89164084,-6.3188853,1.0864476)"
       cx="13"
       cy="12.239852"
       fx="13"
       fy="12.239852"
       r="10.09375" />
    <radialGradient
       inkscape:collect="always"
       xlink:href="#StandardGradient"
       id="radialGradient3883"
       gradientUnits="userSpaceOnUse"
       gradientTransform="matrix(1.4860681,1.5854118e-8,0,0.89164084,-6.3188853,2.0864476)"
       cx="13"
       cy="12.239852"
       fx="13"
       fy="12.239852"
       r="10.09375" />
    <radialGradient
       inkscape:collect="always"
       xlink:href="#StandardGradient"
       id="radialGradient3887"
       gradientUnits="userSpaceOnUse"
       gradientTransform="matrix(1.4860681,1.5854118e-8,0,0.89164084,-6.3188853,1.0864476)"
       cx="13"
       cy="12.239852"
       fx="13"
       fy="12.239852"
       r="10.09375" />
    <radialGradient
       inkscape:collect="always"
       xlink:href="#StandardGradient"
       id="radialGradient3894"
       gradientUnits="userSpaceOnUse"
       gradientTransform="matrix(1.4860681,1.5854118e-8,0,0.89164084,-6.3188853,1.0864476)"
       cx="13"
       cy="12.239852"
       fx="13"
       fy="12.239852"
       r="10.09375" />
    <radialGradient
       inkscape:collect="always"
       xlink:href="#StandardGradient"
       id="radialGradient3898"
       gradientUnits="userSpaceOnUse"
       gradientTransform="matrix(1.4860681,1.5854118e-8,0,0.89164084,-6.3188853,1.0864476)"
       cx="13"
       cy="12.239852"
       fx="13"
       fy="12.239852"
       r="10.09375" />
    <linearGradient
       id="StandardGradient-5"
       gradientTransform="matrix(0.9984539,0,0,0.9984539,-0.0459776,0.05767558)"
       x1="10.710332"
       y1="1.9963325"
       x2="10.710332"
       y2="18.974037"
       gradientUnits="userSpaceOnUse">
      <stop
         style="stop-color:#000000;stop-opacity:0.86274511;"
         offset="0"
         id="stop3277" />
      <stop
         style="stop-color:#000000;stop-opacity:0.47058824;"
         offset="1"
         id="stop3279" />
    </linearGradient>
    <linearGradient
       inkscape:collect="always"
       xlink:href="#StandardGradient"
       id="linearGradient3838"
       gradientUnits="userSpaceOnUse"
       gradientTransform="matrix(0,1,-1,0,22.000002,2e-6)"
       x1="18.004087"
       y1="14.34689"
       x2="3.9078364"
       y2="14.34689" />
    <linearGradient
       inkscape:collect="always"
       xlink:href="#StandardGradient"
       id="linearGradient3842"
       gradientUnits="userSpaceOnUse"
       gradientTransform="matrix(0,1,-1,0,22.000002,2e-6)"
       x1="18.004087"
       y1="14.34689"
       x2="3.9078364"
       y2="14.34689" />
    <linearGradient
       inkscape:collect="always"
       xlink:href="#StandardGradient"
       id="linearGradient3844"
       gradientUnits="userSpaceOnUse"
       gradientTransform="matrix(0,1,-1,0,22.000002,2e-6)"
       x1="18.004087"
       y1="14.34689"
       x2="3.9078364"
       y2="14.34689" />
    <radialGradient
       inkscape:collect="always"
       xlink:href="#linearGradient3802"
       id="radialGradient3800"
       cx="13"
       cy="12.000011"
       fx="13"
       fy="12.000011"
       r="6.9999928"
       gradientTransform="matrix(2.1428593,0,0,1,-14.857172,-1.1000013e-5)"
       gradientUnits="userSpaceOnUse" />
    <linearGradient
       id="StandardGradient-50"
       gradientTransform="matrix(0.9984539,0,0,0.9984539,-0.0459776,0.05767558)"
       x1="10.710332"
       y1="1.9963325"
       x2="10.710332"
       y2="18.974037"
       gradientUnits="userSpaceOnUse">
      <stop
         style="stop-color:#000000;stop-opacity:0.86274511;"
         offset="0"
         id="stop3277-4" />
      <stop
         style="stop-color:#000000;stop-opacity:0.47058824;"
         offset="1"
         id="stop3279-8" />
    </linearGradient>
    <radialGradient
       inkscape:collect="always"
       xlink:href="#linearGradient3802"
       id="radialGradient3844"
       cx="15"
       cy="30.5"
       fx="15"
       fy="30.5"
       r="9"
       gradientTransform="matrix(1,0,0,0.66666667,0,3.6666667)"
       gradientUnits="userSpaceOnUse" />
    <radialGradient
       inkscape:collect="always"
       xlink:href="#StandardGradient"
       id="radialGradient3846"
       gradientUnits="userSpaceOnUse"
       gradientTransform="matrix(1.6666667,0,0,0.66666667,-8.6666667,3.6666667)"
       cx="13"
       cy="12.5"
       fx="13"
       fy="12.5"
       r="9" />
    <radialGradient
       inkscape:collect="always"
       xlink:href="#StandardGradient"
       id="radialGradient3852"
       gradientUnits="userSpaceOnUse"
       gradientTransform="matrix(1.6666667,0,0,0.66666667,-8.6666667,3.6666667)"
       cx="13"
       cy="12.5"
       fx="13"
       fy="12.5"
       r="9" />
    <radialGradient
       inkscape:collect="always"
       xlink:href="#StandardGradient"
       id="radialGradient3856"
       gradientUnits="userSpaceOnUse"
       gradientTransform="matrix(1.6666667,0,0,0.66666667,-8.6666667,3.6666667)"
       cx="13"
       cy="12.5"
       fx="13"
       fy="12.5"
       r="9" />
    <radialGradient
       inkscape:collect="always"
       xlink:href="#StandardGradient"
       id="radialGradient3858"
       gradientUnits="userSpaceOnUse"
       gradientTransform="matrix(1.6666667,0,0,0.66666667,-8.6666667,3.6666667)"
       cx="13"
       cy="12.5"
       fx="13"
       fy="12.5"
       r="9" />
  </defs>
  <sodipodi:namedview
     id="base"
     pagecolor="#818181"
     bordercolor="#ffcfcf"
     borderopacity="1"
     inkscape:pageopacity="1"
     inkscape:pageshadow="2"
     inkscape:zoom="22.640002"
     inkscape:cx="5.0184759"
     inkscape:cy="5.0223569"
     inkscape:document-units="px"
     inkscape:current-layer="layer1"
     showgrid="true"
     inkscape:showpageshadow="false"
     showguides="true"
     inkscape:guide-bbox="true"
     inkscape:window-width="1920"
     inkscape:window-height="1030"
     inkscape:window-x="0"
     inkscape:window-y="25"
     inkscape:window-maximized="1"
     borderlayer="true"
     inkscape:snap-global="true">
    <sodipodi:guide
       orientation="0,1"
       position="26.278146,128"
       id="guide2385" />
    <sodipodi:guide
       orientation="1,0"
       position="128,54.082119"
       id="guide2387" />
    <sodipodi:guide
       orientation="0,1"
       position="60.863576,64.084768"
       id="guide2391" />
    <inkscape:grid
       type="xygrid"
       id="grid3672"
       visible="true"
       enabled="true"
       empspacing="8"
       snapvisiblegridlinesonly="true" />
    <sodipodi:guide
       orientation="1,0"
       position="13,6"
       id="guide3013" />
    <sodipodi:guide
       orientation="0,1"
       position="18,10"
       id="guide3015" />
  </sodipodi:namedview>
  <metadata
     id="metadata7">
    <rdf:RDF>
      <cc:Work
         rdf:about="">
        <dc:format>image/svg+xml</dc:format>
        <dc:type
           rdf:resource="http://purl.org/dc/dcmitype/StillImage" />
        <dc:title></dc:title>
      </cc:Work>
    </rdf:RDF>
  </metadata>
  <g
     inkscape:label="Icon"
     inkscape:groupmode="layer"
     id="layer1"
     style="display:inline">
    <path
       inkscape:connector-curvature="0"
       style="opacity:0.05;fill:#ffffff;fill-opacity:1;stroke:none;display:inline"
       d="M 3.5,4 C 3.2519663,4 3.0139986,4.0562681 2.78125,4.125 2.2274833,4.2885301 1.7553303,4.6225251 1.4375,5.09375 1.3201461,5.2677426 1.2173954,5.4590716 1.15625,5.625 1.0546379,5.8992726 1.0655756,5.9861416 1.09375,5.875 1.0639909,5.9928262 1,6.2049027 1,6.5 l 0,9 c 0,0.295097 0.063991,0.507174 0.09375,0.625 0.026758,0.102549 0.082137,0.208938 0.125,0.3125 0.01594,0.03999 0.052567,0.222361 0.21875,0.46875 0.1094285,0.161617 0.1820846,0.247845 0.1875,0.25 0.3315297,0.370947 0.7816963,0.631722 1.25,0.75 C 2.9928262,17.936009 3.2049027,18 3.5,18 l 15,0 c 0.175546,0 0.331183,-0.02812 0.5,-0.0625 0.58905,-0.11993 1.131359,-0.441039 1.5,-0.9375 0.17727,-0.238732 0.246356,-0.448478 0.28125,-0.53125 0.0022,-0.0055 0.0999,-0.160629 0.15625,-0.4375 C 20.9414,16.0121 20.934,16.0173 20.9375,16 20.97186,15.831235 21,15.675571 21,15.5 l 0,-9 C 21,6.2519672 20.943733,6.0140003 20.875,5.78125 20.828314,5.6245351 20.790261,5.5524636 20.78125,5.53125 20.744769,5.4447123 20.682505,5.2716716 20.5625,5.09375 20.383223,4.8279473 20.172052,4.6167769 19.90625,4.4375 19.812687,4.3743941 19.681436,4.2855592 19.53125,4.21875 a 0.98573164,0.98573164 0 0 0 -0.0625,0 c -0.02276,-0.0096 -0.01319,0.00699 -0.03125,0 C 19.40835,4.20915 19.40148,4.194735 19.375,4.1875 19.35938,4.18317 19.29956,4.151768 19.3125,4.15625 a 0.98573164,0.98573164 0 0 0 -0.03125,0 C 19.183449,4.127164 19.137063,4.0967968 19.125,4.09375 19.007174,4.0639909 18.795097,4 18.5,4 l -15,0 z m 0,1 15,0 c 0.128113,0 0.256446,0.032557 0.375,0.0625 0.04246,0.010723 0.08411,0.019088 0.125,0.03125 0.0309,0.010698 0.06382,0.018633 0.09375,0.03125 0.0093,0.00331 0.02203,-0.00349 0.03125,0 0.07999,0.035583 0.146952,0.076574 0.21875,0.125 0.159551,0.1076133 0.298637,0.2466992 0.40625,0.40625 0.05381,0.079775 0.08715,0.1602109 0.125,0.25 0.02149,0.050583 0.0466,0.1028876 0.0625,0.15625 C 19.977535,6.1980709 20,6.3511125 20,6.5 l 0,9 c 0,0.103875 -0.01133,0.214678 -0.03125,0.3125 -0.0018,0.0099 0.002,0.02144 0,0.03125 -0.01813,0.08908 -0.06115,0.167514 -0.09375,0.25 -0.04676,0.110916 -0.0855,0.21722 -0.15625,0.3125 -0.215616,0.290377 -0.537978,0.487522 -0.90625,0.5625 C 18.714678,16.988666 18.603875,17 18.5,17 l -15,0 C 3.3718875,17 3.2435542,16.967443 3.125,16.9375 2.7776307,16.849766 2.4838796,16.657121 2.28125,16.375 2.2731403,16.363709 2.2578022,16.355271 2.25,16.34375 2.1908127,16.255997 2.1647618,16.16225 2.125,16.0625 2.0991845,16.000125 2.0798095,15.941339 2.0625,15.875 2.032557,15.756446 2,15.628113 2,15.5 l 0,-9 C 2,6.3718875 2.032557,6.2435542 2.0625,6.125 2.0756705,6.0730454 2.0753839,6.018324 2.09375,5.96875 2.1354906,5.8554799 2.1836385,5.7546396 2.25,5.65625 2.4419104,5.3717178 2.7251491,5.1621214 3.0625,5.0625 3.1980709,5.0224652 3.3511125,5 3.5,5 z m 0,1.03125 c -0.262593,0 -0.44197,0.159457 -0.46875,0.40625 l 7.9375,7.96875 8,-7.96875 C 18.941967,6.190707 18.762593,6.03125 18.5,6.03125 l -0.59375,0 -6.9375,6.9375 -6.9375,-6.9375 -0.53125,0 z m 11.65625,5.8125 -0.71875,0.71875 3.40625,3.40625 0.65625,0 c 0.237492,0 0.38803,-0.137016 0.4375,-0.34375 L 15.15625,11.84375 z M 6.75,11.90625 3.0625,15.59375 c 0.039799,0.224924 0.188423,0.375 0.4375,0.375 l 0.59375,0 L 7.46875,12.625 6.75,11.90625 z"
       id="path3125" />
    <path
       inkscape:connector-curvature="0"
       style="fill:url(#radialGradient3846);fill-opacity:1.0;stroke:none;display:inline"
       d="M 3.5,5 C 3.3511125,5 3.1980709,5.0224652 3.0625,5.0625 2.7251491,5.1621214 2.4419104,5.3717178 2.25,5.65625 2.1836385,5.7546396 2.1354906,5.8554799 2.09375,5.96875 2.0753839,6.018324 2.0756705,6.0730454 2.0625,6.125 2.032557,6.2435542 2,6.3718875 2,6.5 l 0,9 c 0,0.128113 0.032557,0.256446 0.0625,0.375 0.01731,0.06634 0.036684,0.125125 0.0625,0.1875 0.039762,0.09975 0.065813,0.193497 0.125,0.28125 0.0078,0.01152 0.02314,0.01996 0.03125,0.03125 0.2026296,0.282121 0.4963807,0.474766 0.84375,0.5625 C 3.2435542,16.967443 3.3718875,17 3.5,17 l 15,0 c 0.103875,0 0.214678,-0.01133 0.3125,-0.03125 0.368272,-0.07498 0.690634,-0.272123 0.90625,-0.5625 0.07075,-0.09528 0.109492,-0.201584 0.15625,-0.3125 0.0326,-0.08249 0.07562,-0.160924 0.09375,-0.25 0.002,-0.0098 -0.0018,-0.02137 0,-0.03125 C 19.988666,15.714678 20,15.603875 20,15.5 l 0,-9 C 20,6.3511125 19.977535,6.1980709 19.9375,6.0625 19.921603,6.0091376 19.896486,5.9568328 19.875,5.90625 19.837148,5.8164609 19.803807,5.7360254 19.75,5.65625 19.642387,5.4966992 19.503301,5.3576133 19.34375,5.25 19.271952,5.201574 19.204989,5.1605826 19.125,5.125 19.1158,5.12151 19.10307,5.12831 19.09375,5.125 19.06382,5.1123828 19.030896,5.1044477 19,5.09375 18.959105,5.0815878 18.917455,5.0732228 18.875,5.0625 18.756446,5.032557 18.628113,5 18.5,5 l -15,0 z m 0,1.03125 0.53125,0 6.9375,6.9375 6.9375,-6.9375 0.59375,0 c 0.262593,0 0.441967,0.159457 0.46875,0.40625 l -8,7.96875 L 3.03125,6.4375 C 3.05803,6.190707 3.237407,6.03125 3.5,6.03125 z m 11.65625,5.8125 3.78125,3.78125 c -0.04947,0.206734 -0.200008,0.34375 -0.4375,0.34375 l -0.65625,0 -3.40625,-3.40625 0.71875,-0.71875 z M 6.75,11.90625 7.46875,12.625 l -3.375,3.34375 -0.59375,0 c -0.249077,0 -0.397701,-0.150076 -0.4375,-0.375 L 6.75,11.90625 z"
       id="rect2932" />
    <path
       inkscape:connector-curvature="0"
       style="opacity:0.3;fill:#000000;fill-opacity:1;stroke:none;display:inline"
       d="M 3.5,5 C 3.3511125,5 3.1980709,5.0224652 3.0625,5.0625 2.7251491,5.1621214 2.4419104,5.3717178 2.25,5.65625 2.1836385,5.7546396 2.1354906,5.8554799 2.09375,5.96875 2.0753839,6.018324 2.0756705,6.0730454 2.0625,6.125 2.032557,6.2435542 2,6.3718875 2,6.5 l 0,1 C 2,7.3718875 2.032557,7.2435542 2.0625,7.125 2.0756705,7.0730454 2.0753839,7.018324 2.09375,6.96875 2.1354906,6.8554799 2.1836385,6.7546396 2.25,6.65625 2.4419104,6.3717178 2.7251491,6.1621214 3.0625,6.0625 3.1980709,6.0224652 3.3511125,6 3.5,6 l 15,0 c 0.128113,0 0.256446,0.032557 0.375,0.0625 0.04246,0.010723 0.08411,0.019088 0.125,0.03125 0.0309,0.010698 0.06382,0.018633 0.09375,0.03125 0.0093,0.00331 0.02205,-0.00349 0.03125,0 0.07999,0.035583 0.146952,0.076574 0.21875,0.125 0.159551,0.1076133 0.298637,0.2466992 0.40625,0.40625 0.05381,0.079775 0.08715,0.1602109 0.125,0.25 0.02149,0.050583 0.0466,0.1028876 0.0625,0.15625 C 19.977535,7.1980709 20,7.3511125 20,7.5 l 0,-1 C 20,6.3511125 19.977535,6.1980709 19.9375,6.0625 19.921603,6.0091376 19.896486,5.9568328 19.875,5.90625 19.837148,5.8164609 19.803807,5.7360254 19.75,5.65625 19.642387,5.4966992 19.503301,5.3576133 19.34375,5.25 19.271952,5.201574 19.204989,5.1605826 19.125,5.125 19.1158,5.12151 19.10307,5.12831 19.09375,5.125 19.06382,5.1123828 19.030896,5.1044477 19,5.09375 18.959105,5.0815878 18.917455,5.0732228 18.875,5.0625 18.756446,5.032557 18.628113,5 18.5,5 l -15,0 z m 0,2.03125 c -0.262593,0 -0.44197,0.159457 -0.46875,0.40625 l 7.9375,7.96875 8,-7.96875 C 18.941967,7.190707 18.762593,7.03125 18.5,7.03125 l -0.125,0 -7.40625,7.375 -7.34375,-7.375 -0.125,0 z m 11.4375,6.03125 -0.5,0.5 3.40625,3.40625 0.65625,0 c 0.237492,0 0.38803,-0.137016 0.4375,-0.34375 l -0.65625,-0.65625 -0.4375,0 -2.90625,-2.90625 z m -7.96875,0.0625 -2.875,2.84375 -0.40625,0 -0.625,0.625 c 0.039799,0.224924 0.188423,0.375 0.4375,0.375 l 0.59375,0 3.375,-3.34375 -0.5,-0.5 z"
       id="path3707" />
    <path
       inkscape:connector-curvature="0"
       style="opacity:0.15;fill:#ffffff;fill-opacity:1;stroke:none;display:inline"
       d="m 3.5,6.03125 c -0.262593,0 -0.44197,0.159457 -0.46875,0.40625 l 0.59375,0.59375 0.40625,0 6.9375,6.9375 6.9375,-6.9375 0.46875,0 0.59375,-0.59375 C 18.941967,6.190707 18.762593,6.03125 18.5,6.03125 l -0.59375,0 -6.9375,6.9375 -6.9375,-6.9375 -0.53125,0 z m 11.65625,5.8125 -0.71875,0.71875 0.5,0.5 0.21875,-0.21875 3.125,3.125 0.21875,0 c 0.237492,0 0.38803,-0.137016 0.4375,-0.34375 L 15.15625,11.84375 z M 6.75,11.90625 3.0625,15.59375 c 0.039799,0.224924 0.188423,0.375 0.4375,0.375 l 0.1875,0 3.0625,-3.0625 0.21875,0.21875 0.5,-0.5 L 6.75,11.90625 z M 2,15.5 l 0,1 c 0,0.128113 0.032557,0.256446 0.0625,0.375 0.01731,0.06634 0.036684,0.125125 0.0625,0.1875 0.039762,0.09975 0.065813,0.193497 0.125,0.28125 0.0078,0.01152 0.02314,0.01996 0.03125,0.03125 0.2026296,0.282121 0.4963807,0.474766 0.84375,0.5625 C 3.2435542,17.967443 3.3718875,18 3.5,18 l 15,0 c 0.103875,0 0.214678,-0.01133 0.3125,-0.03125 0.368272,-0.07498 0.690634,-0.272123 0.90625,-0.5625 0.07075,-0.09528 0.109492,-0.201584 0.15625,-0.3125 0.0326,-0.08249 0.07562,-0.160924 0.09375,-0.25 0.002,-0.0098 -0.0018,-0.02137 0,-0.03125 C 19.988666,16.714678 20,16.603875 20,16.5 l 0,-1 c 0,0.103875 -0.01133,0.214678 -0.03125,0.3125 -0.0018,0.0099 0.002,0.02145 0,0.03125 -0.01813,0.08908 -0.06115,0.16751 -0.09375,0.25 -0.04676,0.110916 -0.0855,0.21722 -0.15625,0.3125 -0.215616,0.290377 -0.537978,0.48752 -0.90625,0.5625 C 18.714678,16.98867 18.603875,17 18.5,17 l -15,0 C 3.3718875,17 3.2435542,16.967443 3.125,16.9375 2.7776307,16.849766 2.4838796,16.657121 2.28125,16.375 2.27314,16.36371 2.2578,16.35527 2.25,16.34375 2.190813,16.255997 2.164762,16.16225 2.125,16.0625 2.099184,16.000125 2.07981,15.94134 2.0625,15.875 2.032557,15.756446 2,15.628113 2,15.5 z"
       id="path3743" />
    <path
       style="fill:#000000;fill-opacity:1;stroke:none;display:inline;opacity:0.3"
       d="M 3.5 5 C 3.3511125 5 3.1980709 5.0224652 3.0625 5.0625 C 2.7251491 5.1621214 2.4419104 5.3717178 2.25 5.65625 C 2.1836385 5.7546396 2.1354906 5.8554799 2.09375 5.96875 C 2.0753839 6.018324 2.0756705 6.0730454 2.0625 6.125 C 2.032557 6.2435542 2 6.3718875 2 6.5 L 2 15.5 C 2 15.628113 2.032557 15.756446 2.0625 15.875 C 2.07981 15.94134 2.099184 16.000125 2.125 16.0625 C 2.164762 16.16225 2.190813 16.255997 2.25 16.34375 C 2.2578 16.35527 2.27314 16.36371 2.28125 16.375 C 2.4838796 16.657121 2.7776307 16.849766 3.125 16.9375 C 3.2435542 16.967443 3.3718875 17 3.5 17 L 18.5 17 C 18.603875 17 18.714678 16.98867 18.8125 16.96875 C 19.180772 16.89377 19.503134 16.696627 19.71875 16.40625 C 19.7895 16.31097 19.828242 16.204666 19.875 16.09375 C 19.9076 16.01126 19.95062 15.932826 19.96875 15.84375 C 19.97075 15.83395 19.96695 15.82238 19.96875 15.8125 C 19.988666 15.714678 20 15.603875 20 15.5 L 20 6.5 C 20 6.3511125 19.977535 6.1980709 19.9375 6.0625 C 19.921603 6.0091376 19.896486 5.9568328 19.875 5.90625 C 19.837148 5.8164609 19.803807 5.7360254 19.75 5.65625 C 19.642387 5.4966992 19.503301 5.3576133 19.34375 5.25 C 19.271952 5.201574 19.204989 5.1605826 19.125 5.125 C 19.1158 5.12151 19.10307 5.12831 19.09375 5.125 C 19.06382 5.1123828 19.030896 5.1044477 19 5.09375 C 18.959105 5.0815878 18.917455 5.0732228 18.875 5.0625 C 18.756446 5.032557 18.628113 5 18.5 5 L 3.5 5 z M 3.5 5.4375 L 18.5 5.4375 C 18.553282 5.4375 18.66237 5.4699746 18.78125 5.5 C 18.814895 5.5084976 18.824736 5.4954538 18.84375 5.5 C 18.856426 5.5030308 18.868843 5.5294188 18.875 5.53125 C 18.893015 5.5370782 18.946997 5.5352534 18.9375 5.53125 C 18.944637 5.5344248 18.961858 5.527915 18.96875 5.53125 C 19.008721 5.5505932 19.04083 5.5893066 19.09375 5.625 C 19.205686 5.7004984 19.299502 5.7943143 19.375 5.90625 C 19.399141 5.9420427 19.430284 5.9712538 19.46875 6.0625 A 0.44174025 0.44174025 0 0 0 19.46875 6.09375 C 19.495827 6.1574941 19.497901 6.1804534 19.5 6.1875 C 19.527175 6.2795215 19.5625 6.3955429 19.5625 6.5 L 19.5625 15.5 C 19.5625 15.571745 19.544693 15.65272 19.53125 15.71875 C 19.521297 15.773379 19.503949 15.788739 19.5 15.8125 C 19.496376 15.828826 19.49993 15.8779 19.5 15.875 C 19.490689 15.902956 19.484935 15.896546 19.46875 15.9375 C 19.416675 16.061028 19.398015 16.125256 19.375 16.15625 C 19.22796 16.354274 18.988084 16.476414 18.71875 16.53125 C 18.652743 16.544691 18.571757 16.5625 18.5 16.5625 L 3.5 16.5625 C 3.4467191 16.5625 3.3376304 16.530025 3.21875 16.5 C 2.9628981 16.43538 2.7652149 16.320221 2.625 16.125 C 2.6148772 16.110908 2.6328527 16.105369 2.625 16.09375 C 2.6137614 16.077087 2.5816874 16.032781 2.53125 15.90625 C 2.5165687 15.870778 2.5104393 15.818018 2.5 15.78125 C 2.4968208 15.768663 2.502923 15.762024 2.5 15.75 C 2.4753168 15.648462 2.4375 15.54764 2.4375 15.5 L 2.4375 6.5 C 2.4375 6.4467191 2.4699746 6.3376304 2.5 6.21875 C 2.5316986 6.0937064 2.5189393 6.0738788 2.5 6.125 C 2.5330446 6.0353279 2.58149 5.9707593 2.625 5.90625 C 2.7604814 5.7053812 2.9471325 5.5709817 3.1875 5.5 C 3.2795222 5.4728253 3.3955433 5.4375 3.5 5.4375 z M 3.5 5.59375 C 3.0585966 5.59375 2.6411489 5.9381924 2.59375 6.375 A 0.44174025 0.44174025 0 0 0 2.71875 6.75 L 10.65625 14.71875 A 0.44174025 0.44174025 0 0 0 11.28125 14.71875 L 19.28125 6.75 A 0.44174025 0.44174025 0 0 0 19.40625 6.375 C 19.358847 5.9381989 18.941403 5.59375 18.5 5.59375 L 17.90625 5.59375 A 0.44174025 0.44174025 0 0 0 17.59375 5.71875 L 10.96875 12.34375 L 4.34375 5.71875 A 0.44174025 0.44174025 0 0 0 4.03125 5.59375 L 3.5 5.59375 z M 3.5 6.03125 L 4.03125 6.03125 L 10.96875 12.96875 L 17.90625 6.03125 L 18.5 6.03125 C 18.762593 6.03125 18.941967 6.190707 18.96875 6.4375 L 10.96875 14.40625 L 3.03125 6.4375 C 3.05803 6.190707 3.237407 6.03125 3.5 6.03125 z M 15.03125 11.40625 A 0.44174025 0.44174025 0 0 0 14.84375 11.53125 L 14.125 12.25 A 0.44174025 0.44174025 0 0 0 14.125 12.875 L 17.53125 16.28125 A 0.44174025 0.44174025 0 0 0 17.84375 16.40625 L 18.5 16.40625 C 18.907377 16.40625 19.288612 16.079765 19.375 15.71875 A 0.44174025 0.44174025 0 0 0 19.25 15.3125 L 15.46875 11.53125 A 0.44174025 0.44174025 0 0 0 15.03125 11.40625 z M 6.625 11.46875 A 0.44174025 0.44174025 0 0 0 6.4375 11.59375 L 2.75 15.28125 A 0.44174025 0.44174025 0 0 0 2.625 15.65625 C 2.6583992 15.845006 2.7473715 16.04517 2.90625 16.1875 C 3.0651285 16.32983 3.28675 16.40625 3.5 16.40625 L 4.09375 16.40625 A 0.44174025 0.44174025 0 0 0 4.40625 16.28125 L 7.78125 12.9375 A 0.44174025 0.44174025 0 0 0 7.78125 12.3125 L 7.0625 11.59375 A 0.44174025 0.44174025 0 0 0 6.625 11.46875 z M 15.15625 11.84375 L 18.9375 15.625 C 18.88803 15.831734 18.737492 15.96875 18.5 15.96875 L 17.84375 15.96875 L 14.4375 12.5625 L 15.15625 11.84375 z M 6.75 11.90625 L 7.46875 12.625 L 4.09375 15.96875 L 3.5 15.96875 C 3.250923 15.96875 3.102299 15.818674 3.0625 15.59375 L 6.75 11.90625 z "
       id="path3848" />
  </g>
</svg>
