<?xml version="1.0" encoding="UTF-8" standalone="no"?>
<!-- Created with Inkscape (http://www.inkscape.org/) -->

<svg
   xmlns:dc="http://purl.org/dc/elements/1.1/"
   xmlns:cc="http://creativecommons.org/ns#"
   xmlns:rdf="http://www.w3.org/1999/02/22-rdf-syntax-ns#"
   xmlns:svg="http://www.w3.org/2000/svg"
   xmlns="http://www.w3.org/2000/svg"
   xmlns:xlink="http://www.w3.org/1999/xlink"
   xmlns:sodipodi="http://sodipodi.sourceforge.net/DTD/sodipodi-0.dtd"
   xmlns:inkscape="http://www.inkscape.org/namespaces/inkscape"
   width="24"
   height="24"
   id="svg2"
   sodipodi:version="0.32"
   inkscape:version="0.48.2 r9819"
   version="1.0"
   sodipodi:docname="network-error.svg"
   inkscape:output_extension="org.inkscape.output.svg.inkscape"
   style="display:inline">
  <defs
     id="defs4">
    <linearGradient
       inkscape:collect="always"
       id="linearGradient3327">
      <stop
         style="stop-color:#000000;stop-opacity:1;"
         offset="0"
         id="stop3330" />
      <stop
         style="stop-color:#000000;stop-opacity:0;"
         offset="1"
         id="stop3333" />
    </linearGradient>
    <linearGradient
       inkscape:collect="always"
       xlink:href="#linearGradient3327"
       id="linearGradient3335"
       x1="11.375"
       y1="22"
       x2="11.375"
       y2="-9.817296"
       gradientUnits="userSpaceOnUse" />
    <linearGradient
       inkscape:collect="always"
       xlink:href="#linearGradient4081"
       id="linearGradient3181"
       x1="-3.0607977"
       y1="27.258198"
       x2="-3.0607977"
       y2="7.2536583"
       gradientUnits="userSpaceOnUse"
       gradientTransform="translate(12.119372,-7.2581977)" />
    <inkscape:perspective
       sodipodi:type="inkscape:persp3d"
       inkscape:vp_x="0 : 11 : 1"
       inkscape:vp_y="0 : 1000 : 0"
       inkscape:vp_z="22 : 11 : 1"
       inkscape:persp3d-origin="11 : 7.3333333 : 1"
       id="perspective2531" />
    <linearGradient
       id="ButtonShadow"
       gradientTransform="scale(0.9883037,1.0118347)"
       x1="9.3550024"
       y1="21.742682"
       x2="9.3550024"
       y2="0.49362123"
       gradientUnits="userSpaceOnUse">
      <stop
         id="stop3277"
         offset="0"
         style="stop-color:#000000;stop-opacity:0.70588237;" />
      <stop
         id="stop3279"
         offset="1"
         style="stop-color:#000000;stop-opacity:0.15686275;" />
    </linearGradient>
    <linearGradient
       inkscape:collect="always"
       id="linearGradient3232">
      <stop
         style="stop-color:#000000;stop-opacity:1;"
         offset="0"
         id="stop3234" />
      <stop
         style="stop-color:#000000;stop-opacity:0;"
         offset="1"
         id="stop3236" />
    </linearGradient>
    <linearGradient
       gradientUnits="userSpaceOnUse"
       y2="-6.0004225"
       x2="11"
       y1="14.805666"
       x1="11"
       id="linearGradient3221"
       xlink:href="#linearGradient3232"
       inkscape:collect="always" />
    <linearGradient
       id="ButtonColor"
       x1="10.31979"
       y1="21"
       x2="10.31979"
       y2="0.99929649"
       gradientUnits="userSpaceOnUse">
      <stop
         style="stop-color:#29669f;stop-opacity:1;"
         offset="0"
         id="stop3189" />
      <stop
         style="stop-color:#88b6e0;stop-opacity:1;"
         offset="1"
         id="stop3191" />
    </linearGradient>
    <linearGradient
       inkscape:collect="always"
       xlink:href="#ButtonShadow"
       id="linearGradient38042"
       gradientUnits="userSpaceOnUse"
       gradientTransform="scale(0.9883037,1.0118347)"
       x1="9.3550024"
       y1="21.742682"
       x2="9.3550024"
       y2="0.49362123" />
    <filter
       inkscape:collect="always"
       id="filter3194"
       x="-0.18000001"
       width="1.36"
       y="-0.18000001"
       height="1.36"
       color-interpolation-filters="sRGB">
      <feGaussianBlur
         inkscape:collect="always"
         stdDeviation="1.2"
         id="feGaussianBlur3196" />
    </filter>
    <clipPath
       clipPathUnits="userSpaceOnUse"
       id="clipPath2849">
      <rect
         ry="2"
         rx="2"
         y="1"
         x="1"
         height="20"
         width="20"
         id="rect2851"
         style="fill:#ffffff;fill-opacity:1;fill-rule:evenodd;stroke:none;display:inline" />
    </clipPath>
    <linearGradient
       y2="16"
       x2="10"
       y1="1"
       x1="10"
       gradientUnits="userSpaceOnUse"
       id="linearGradient3078"
       xlink:href="#linearGradient3823"
       inkscape:collect="always"
       gradientTransform="translate(1,-1)" />
    <linearGradient
       id="linearGradient3823">
      <stop
         id="stop3825"
         offset="0"
         style="stop-color:#ffffff;stop-opacity:1;" />
      <stop
         id="stop3829"
         offset="1"
         style="stop-color:#ffffff;stop-opacity:0;" />
    </linearGradient>
    <linearGradient
       inkscape:collect="always"
       xlink:href="#linearGradient3831"
       id="linearGradient3845"
       x1="11"
       y1="19.5"
       x2="21"
       y2="19.5"
       gradientUnits="userSpaceOnUse"
       spreadMethod="reflect"
       gradientTransform="translate(1,-1)" />
    <linearGradient
       id="linearGradient3831">
      <stop
         style="stop-color:#ffffff;stop-opacity:1;"
         offset="0"
         id="stop3833" />
      <stop
         id="stop3821"
         offset="0.75"
         style="stop-color:#ffffff;stop-opacity:0.49803922;" />
      <stop
         style="stop-color:#ffffff;stop-opacity:0;"
         offset="1"
         id="stop3835" />
    </linearGradient>
    <linearGradient
       y2="16"
       x2="10"
       y1="1"
       x1="10"
       gradientTransform="translate(1,-1)"
       gradientUnits="userSpaceOnUse"
       id="linearGradient3961"
       xlink:href="#linearGradient3823"
       inkscape:collect="always" />
    <linearGradient
       inkscape:collect="always"
       xlink:href="#linearGradient3183"
       id="linearGradient7193"
       gradientUnits="userSpaceOnUse"
       gradientTransform="matrix(0,0.8456457,0.8456457,0,7.6846843,2.3309381)"
       x1="11"
       y1="11.015625"
       x2="19"
       y2="11.015625" />
    <linearGradient
       id="linearGradient3183">
      <stop
         style="stop-color:#c80000;stop-opacity:1;"
         offset="0"
         id="stop3185" />
      <stop
         style="stop-color:#f3604d;stop-opacity:1;"
         offset="1"
         id="stop3187" />
    </linearGradient>
    <linearGradient
       y2="5.9877172"
       x2="48"
       y1="90"
       x1="48"
       gradientUnits="userSpaceOnUse"
       id="linearGradient3161"
       xlink:href="#linearGradient4081"
       inkscape:collect="always" />
    <linearGradient
       id="linearGradient4081">
      <stop
         style="stop-color:#8c8c8c;stop-opacity:1;"
         offset="0"
         id="stop4083" />
      <stop
         style="stop-color:#dcdcdc;stop-opacity:1;"
         offset="1"
         id="stop4085" />
    </linearGradient>
    <linearGradient
       inkscape:collect="always"
       id="linearGradient4071-3">
      <stop
         style="stop-color:#000000;stop-opacity:1;"
         offset="0"
         id="stop4073-8" />
      <stop
         style="stop-color:#000000;stop-opacity:0;"
         offset="1"
         id="stop4075-4" />
    </linearGradient>
    <linearGradient
       inkscape:collect="always"
       id="linearGradient4047-2">
      <stop
         style="stop-color:#000000;stop-opacity:1;"
         offset="0"
         id="stop4049-0" />
      <stop
         style="stop-color:#000000;stop-opacity:0;"
         offset="1"
         id="stop4051-5" />
    </linearGradient>
    <linearGradient
       id="linearGradient3796-9">
      <stop
         id="stop3798-4"
         offset="0"
         style="stop-color:#ffffff;stop-opacity:0;" />
      <stop
         id="stop3800-9"
         offset="1"
         style="stop-color:#ffffff;stop-opacity:1;" />
    </linearGradient>
    <linearGradient
       id="linearGradient3780-6-5">
      <stop
         style="stop-color:#000000;stop-opacity:0;"
         offset="0"
         id="stop3782-4" />
      <stop
         style="stop-color:#000000;stop-opacity:1;"
         offset="1"
         id="stop3784-9" />
    </linearGradient>
    <linearGradient
       inkscape:collect="always"
       id="linearGradient4115-2">
      <stop
         style="stop-color:#ffffff;stop-opacity:1;"
         offset="0"
         id="stop4117-3" />
      <stop
         style="stop-color:#ffffff;stop-opacity:0;"
         offset="1"
         id="stop4119-6" />
    </linearGradient>
    <linearGradient
       inkscape:collect="always"
       xlink:href="#linearGradient4071-3"
       id="linearGradient4159"
       gradientUnits="userSpaceOnUse"
       x1="48.233639"
       y1="48.047016"
       x2="126.13924"
       y2="66.232674" />
    <linearGradient
       inkscape:collect="always"
       xlink:href="#linearGradient4047-2"
       id="linearGradient4161"
       gradientUnits="userSpaceOnUse"
       x1="48.055065"
       y1="48.031517"
       x2="126.67282"
       y2="62.838562" />
    <linearGradient
       inkscape:collect="always"
       xlink:href="#linearGradient4047-2"
       id="linearGradient4163"
       gradientUnits="userSpaceOnUse"
       x1="47.997307"
       y1="48.028725"
       x2="127.05216"
       y2="60.289631" />
    <linearGradient
       inkscape:collect="always"
       xlink:href="#linearGradient4047-2"
       id="linearGradient4165"
       gradientUnits="userSpaceOnUse"
       x1="47.99826"
       y1="48.028797"
       x2="127.41583"
       y2="57.664623" />
    <linearGradient
       inkscape:collect="always"
       xlink:href="#linearGradient4071-3"
       id="linearGradient4167"
       gradientUnits="userSpaceOnUse"
       x1="48.233639"
       y1="48.047016"
       x2="126.13924"
       y2="66.232674" />
    <linearGradient
       inkscape:collect="always"
       xlink:href="#linearGradient4047-2"
       id="linearGradient4169"
       gradientUnits="userSpaceOnUse"
       x1="48.055065"
       y1="48.031517"
       x2="126.67282"
       y2="62.838562" />
    <linearGradient
       inkscape:collect="always"
       xlink:href="#linearGradient4047-2"
       id="linearGradient4171"
       gradientUnits="userSpaceOnUse"
       x1="47.997307"
       y1="48.028725"
       x2="127.05216"
       y2="60.289631" />
    <linearGradient
       inkscape:collect="always"
       xlink:href="#linearGradient4047-2"
       id="linearGradient4173"
       gradientUnits="userSpaceOnUse"
       x1="47.99826"
       y1="48.028797"
       x2="127.41583"
       y2="57.664623" />
    <linearGradient
       inkscape:collect="always"
       xlink:href="#linearGradient4115-2"
       id="linearGradient4175"
       gradientUnits="userSpaceOnUse"
       x1="48.233643"
       y1="48.04702"
       x2="126.13924"
       y2="66.232674" />
    <linearGradient
       inkscape:collect="always"
       xlink:href="#linearGradient4115-2"
       id="linearGradient4177"
       gradientUnits="userSpaceOnUse"
       x1="48.055069"
       y1="48.031521"
       x2="126.67282"
       y2="62.838566" />
    <linearGradient
       inkscape:collect="always"
       xlink:href="#linearGradient4115-2"
       id="linearGradient4179"
       gradientUnits="userSpaceOnUse"
       x1="47.997311"
       y1="48.028728"
       x2="127.05216"
       y2="60.289635" />
    <linearGradient
       inkscape:collect="always"
       xlink:href="#linearGradient4115-2"
       id="linearGradient4181"
       gradientUnits="userSpaceOnUse"
       x1="47.998264"
       y1="48.028801"
       x2="127.41583"
       y2="57.664627" />
    <linearGradient
       inkscape:collect="always"
       xlink:href="#linearGradient4071-3"
       id="linearGradient4183"
       gradientUnits="userSpaceOnUse"
       x1="48.233639"
       y1="48.047016"
       x2="126.13924"
       y2="66.232674" />
    <linearGradient
       inkscape:collect="always"
       xlink:href="#linearGradient4047-2"
       id="linearGradient4185"
       gradientUnits="userSpaceOnUse"
       x1="48.055065"
       y1="48.031517"
       x2="126.67282"
       y2="62.838562" />
    <linearGradient
       inkscape:collect="always"
       xlink:href="#linearGradient4047-2"
       id="linearGradient4187"
       gradientUnits="userSpaceOnUse"
       x1="47.997307"
       y1="48.028725"
       x2="127.05216"
       y2="60.289631" />
    <linearGradient
       inkscape:collect="always"
       xlink:href="#linearGradient4047-2"
       id="linearGradient4189"
       gradientUnits="userSpaceOnUse"
       x1="47.99826"
       y1="48.028797"
       x2="127.41583"
       y2="57.664623" />
    <linearGradient
       inkscape:collect="always"
       xlink:href="#linearGradient4115-2"
       id="linearGradient4191"
       gradientUnits="userSpaceOnUse"
       x1="48.233643"
       y1="48.04702"
       x2="126.13924"
       y2="66.232674" />
    <linearGradient
       inkscape:collect="always"
       xlink:href="#linearGradient4115-2"
       id="linearGradient4193"
       gradientUnits="userSpaceOnUse"
       x1="48.055069"
       y1="48.031521"
       x2="126.67282"
       y2="62.838566" />
    <linearGradient
       inkscape:collect="always"
       xlink:href="#linearGradient4115-2"
       id="linearGradient4195"
       gradientUnits="userSpaceOnUse"
       x1="47.997311"
       y1="48.028728"
       x2="127.05216"
       y2="60.289635" />
    <linearGradient
       inkscape:collect="always"
       xlink:href="#linearGradient4115-2"
       id="linearGradient4197"
       gradientUnits="userSpaceOnUse"
       x1="47.998264"
       y1="48.028801"
       x2="127.41583"
       y2="57.664627" />
    <clipPath
       clipPathUnits="userSpaceOnUse"
       id="clipPath4203">
      <rect
         ry="7.8489056"
         rx="7.8489056"
         y="-66.891716"
         x="-110.5453"
         height="78.489059"
         width="78.489059"
         id="rect4205"
         style="opacity:0.5;fill:#ff00ff;fill-opacity:1;fill-rule:evenodd;stroke:none;display:inline" />
    </clipPath>
  </defs>
  <sodipodi:namedview
     id="base"
     pagecolor="#ffffff"
     bordercolor="#e7e7e7"
     borderopacity="1"
     inkscape:pageopacity="0.0"
     inkscape:pageshadow="2"
     inkscape:zoom="7.0009148"
     inkscape:cx="-80.315663"
     inkscape:cy="42.789423"
     inkscape:document-units="px"
     inkscape:current-layer="layer3"
     showgrid="true"
     inkscape:showpageshadow="false"
     showguides="false"
     inkscape:guide-bbox="true"
     inkscape:window-width="1920"
     inkscape:window-height="1027"
     inkscape:window-x="-1"
     inkscape:window-y="23"
     inkscape:window-maximized="1">
    <sodipodi:guide
       orientation="1,0"
       position="0,112"
       id="guide2383" />
    <sodipodi:guide
       orientation="0,1"
       position="26.278146,128"
       id="guide2385" />
    <sodipodi:guide
       orientation="1,0"
       position="128,54.082119"
       id="guide2387" />
    <sodipodi:guide
       orientation="0,1"
       position="78.156291,0"
       id="guide2389" />
    <sodipodi:guide
       orientation="0,1"
       position="60.863576,64.084768"
       id="guide2391" />
    <inkscape:grid
       type="xygrid"
       id="grid3672"
       visible="true"
       enabled="true"
       empspacing="8"
       snapvisiblegridlinesonly="true" />
  </sodipodi:namedview>
  <metadata
     id="metadata7">
    <rdf:RDF>
      <cc:Work
         rdf:about="">
        <dc:format>image/svg+xml</dc:format>
        <dc:type
           rdf:resource="http://purl.org/dc/dcmitype/StillImage" />
        <dc:title />
      </cc:Work>
    </rdf:RDF>
  </metadata>
  <g
     inkscape:label="Button"
     inkscape:groupmode="layer"
     id="layer1"
     transform="translate(0,2)">
    <g
       style="display:inline"
       id="g3337"
       transform="translate(1,-1)">
      <rect
         ry="2.5"
         rx="2.5"
         y="0.5"
         x="0.5"
         height="21.5"
         width="21"
         id="rect3371"
         style="opacity:0.3;fill:url(#linearGradient3335);fill-opacity:1;stroke:none;display:inline" />
      <rect
         style="opacity:0.5;fill:#000000;fill-opacity:1;stroke:none;display:inline"
         id="rect2553"
         width="20"
         height="20"
         x="1"
         y="2"
         rx="2.3809524"
         ry="2.3255813" />
    </g>
    <rect
       style="fill:url(#linearGradient3181);fill-opacity:1.0;fill-rule:evenodd;stroke:none;display:inline"
       id="rect3173"
       width="20"
       height="20"
       x="2"
       y="0"
       rx="2"
       ry="2" />
    <g
       id="g4132"
       transform="matrix(0.25481259,0,0,0.25481259,30.168333,17.044851)"
       clip-path="url(#clipPath4203)"
       style="opacity:0.8">
      <g
         id="g4097"
         inkscape:transform-center-x="-16.093513"
         inkscape:transform-center-y="-33.641891"
         transform="matrix(-0.06817198,-1.0460056,2.710673,0.60162586,-199.09545,-6.919871)"
         style="opacity:0.8">
        <path
           transform="matrix(0.99411049,-0.1083712,0.1083712,0.99411049,-5.1582185,5.4918915)"
           inkscape:transform-center-y="3.2334227"
           inkscape:transform-center-x="-30.208857"
           sodipodi:type="arc"
           style="opacity:0.05;color:#000000;fill:url(#linearGradient4159);fill-opacity:1;fill-rule:nonzero;stroke:none;stroke-width:2;marker:none;visibility:visible;display:inline;overflow:visible;enable-background:accumulate"
           id="path4099"
           sodipodi:cx="48"
           sodipodi:cy="48"
           sodipodi:rx="60.895905"
           sodipodi:ry="60.895905"
           d="m 108.8959,48 c 0,9.541976 -2.24232,18.950422 -6.54616,27.466658 L 48,48 z"
           sodipodi:start="0"
           sodipodi:end="0.46793338" />
        <path
           sodipodi:end="0.38497975"
           sodipodi:start="0"
           d="m 108.8959,48 c 0,7.838782 -1.51343,15.60384 -4.45721,22.86887 L 48,48 z"
           sodipodi:ry="60.895905"
           sodipodi:rx="60.895905"
           sodipodi:cy="48"
           sodipodi:cx="48"
           id="path4101"
           style="opacity:0.07000002;color:#000000;fill:url(#linearGradient4161);fill-opacity:1;fill-rule:nonzero;stroke:none;stroke-width:2;marker:none;visibility:visible;display:inline;overflow:visible;enable-background:accumulate"
           sodipodi:type="arc"
           inkscape:transform-center-x="-30.389206"
           inkscape:transform-center-y="5.7561286"
           transform="matrix(0.99786084,-0.06537382,0.06537382,0.99786084,-3.0940115,3.2415713)" />
        <path
           transform="matrix(0.99945136,-0.0331207,0.0331207,0.99945136,-1.5634586,1.6161281)"
           inkscape:transform-center-y="7.6655702"
           inkscape:transform-center-x="-30.447953"
           sodipodi:type="arc"
           style="opacity:0.1;color:#000000;fill:url(#linearGradient4163);fill-opacity:1;fill-rule:nonzero;stroke:none;stroke-width:2;marker:none;visibility:visible;display:inline;overflow:visible;enable-background:accumulate"
           id="path4103"
           sodipodi:cx="48"
           sodipodi:cy="48"
           sodipodi:rx="60.895905"
           sodipodi:ry="60.895905"
           d="m 108.8959,48 c 0,6.55049 -1.05689,13.058072 -3.12994,19.271878 L 48,48 z"
           sodipodi:start="0"
           sodipodi:end="0.32200852" />
        <path
           sodipodi:end="0.26179939"
           sodipodi:start="0"
           d="m 108.8959,48 c 0,5.321771 -0.6976,10.620584 -2.07497,15.76102 L 48,48 z"
           sodipodi:ry="60.895905"
           sodipodi:rx="60.895905"
           sodipodi:cy="48"
           sodipodi:cx="48"
           id="path4105"
           style="opacity:0.1;color:#000000;fill:url(#linearGradient4165);fill-opacity:1;fill-rule:nonzero;stroke:none;stroke-width:2;marker:none;visibility:visible;display:inline;overflow:visible;enable-background:accumulate"
           sodipodi:type="arc" />
      </g>
      <g
         style="opacity:0.9"
         transform="matrix(0.1413721,0.99271966,-1.1651755,0.12044784,-23.062734,-81.194684)"
         inkscape:transform-center-y="30.567075"
         inkscape:transform-center-x="0.33129085"
         id="g4011">
        <path
           sodipodi:end="0.46793338"
           sodipodi:start="0"
           d="m 108.8959,48 c 0,9.541976 -2.24232,18.950422 -6.54616,27.466658 L 48,48 z"
           sodipodi:ry="60.895905"
           sodipodi:rx="60.895905"
           sodipodi:cy="48"
           sodipodi:cx="48"
           id="path4009"
           style="opacity:0.05;color:#000000;fill:url(#linearGradient4167);fill-opacity:1;fill-rule:nonzero;stroke:none;stroke-width:2;marker:none;visibility:visible;display:inline;overflow:visible;enable-background:accumulate"
           sodipodi:type="arc"
           inkscape:transform-center-x="-30.208857"
           inkscape:transform-center-y="3.2334227"
           transform="matrix(0.99411049,-0.1083712,0.1083712,0.99411049,-5.1582185,5.4918915)" />
        <path
           transform="matrix(0.99786084,-0.06537382,0.06537382,0.99786084,-3.0940115,3.2415713)"
           inkscape:transform-center-y="5.7561286"
           inkscape:transform-center-x="-30.389206"
           sodipodi:type="arc"
           style="opacity:0.07000002;color:#000000;fill:url(#linearGradient4169);fill-opacity:1;fill-rule:nonzero;stroke:none;stroke-width:2;marker:none;visibility:visible;display:inline;overflow:visible;enable-background:accumulate"
           id="path4007"
           sodipodi:cx="48"
           sodipodi:cy="48"
           sodipodi:rx="60.895905"
           sodipodi:ry="60.895905"
           d="m 108.8959,48 c 0,7.838782 -1.51343,15.60384 -4.45721,22.86887 L 48,48 z"
           sodipodi:start="0"
           sodipodi:end="0.38497975" />
        <path
           sodipodi:end="0.32200852"
           sodipodi:start="0"
           d="m 108.8959,48 c 0,6.55049 -1.05689,13.058072 -3.12994,19.271878 L 48,48 z"
           sodipodi:ry="60.895905"
           sodipodi:rx="60.895905"
           sodipodi:cy="48"
           sodipodi:cx="48"
           id="path4005"
           style="opacity:0.1;color:#000000;fill:url(#linearGradient4171);fill-opacity:1;fill-rule:nonzero;stroke:none;stroke-width:2;marker:none;visibility:visible;display:inline;overflow:visible;enable-background:accumulate"
           sodipodi:type="arc"
           inkscape:transform-center-x="-30.447953"
           inkscape:transform-center-y="7.6655702"
           transform="matrix(0.99945136,-0.0331207,0.0331207,0.99945136,-1.5634586,1.6161281)" />
        <path
           sodipodi:type="arc"
           style="opacity:0.1;color:#000000;fill:url(#linearGradient4173);fill-opacity:1;fill-rule:nonzero;stroke:none;stroke-width:2;marker:none;visibility:visible;display:inline;overflow:visible;enable-background:accumulate"
           id="path4003"
           sodipodi:cx="48"
           sodipodi:cy="48"
           sodipodi:rx="60.895905"
           sodipodi:ry="60.895905"
           d="m 108.8959,48 c 0,5.321771 -0.6976,10.620584 -2.07497,15.76102 L 48,48 z"
           sodipodi:start="0"
           sodipodi:end="0.26179939" />
      </g>
      <g
         transform="matrix(1.062807,-0.13087531,-0.74010065,3.227468,-87.474889,-176.66774)"
         inkscape:transform-center-y="16.240454"
         inkscape:transform-center-x="-34.606346"
         id="g4027"
         style="opacity:0.9;fill:#ffffff">
        <path
           sodipodi:end="0.46793338"
           sodipodi:start="0"
           d="m 108.8959,48 c 0,9.541976 -2.24232,18.950422 -6.54616,27.466658 L 48,48 z"
           sodipodi:ry="60.895905"
           sodipodi:rx="60.895905"
           sodipodi:cy="48"
           sodipodi:cx="48"
           id="path4029"
           style="opacity:0.2;color:#000000;fill:url(#linearGradient4175);fill-opacity:1;fill-rule:nonzero;stroke:none;stroke-width:2;marker:none;visibility:visible;display:inline;overflow:visible;enable-background:accumulate"
           sodipodi:type="arc"
           inkscape:transform-center-x="-30.208857"
           inkscape:transform-center-y="3.2334227"
           transform="matrix(0.99411049,-0.1083712,0.1083712,0.99411049,-5.1582185,5.4918915)" />
        <path
           transform="matrix(0.99786084,-0.06537382,0.06537382,0.99786084,-3.0940115,3.2415713)"
           inkscape:transform-center-y="5.7561286"
           inkscape:transform-center-x="-30.389206"
           sodipodi:type="arc"
           style="opacity:0.4;color:#000000;fill:url(#linearGradient4177);fill-opacity:1;fill-rule:nonzero;stroke:none;stroke-width:2;marker:none;visibility:visible;display:inline;overflow:visible;enable-background:accumulate"
           id="path4031"
           sodipodi:cx="48"
           sodipodi:cy="48"
           sodipodi:rx="60.895905"
           sodipodi:ry="60.895905"
           d="m 108.8959,48 c 0,7.838782 -1.51343,15.60384 -4.45721,22.86887 L 48,48 z"
           sodipodi:start="0"
           sodipodi:end="0.38497975" />
        <path
           sodipodi:end="0.32200852"
           sodipodi:start="0"
           d="m 108.8959,48 c 0,6.55049 -1.05689,13.058072 -3.12994,19.271878 L 48,48 z"
           sodipodi:ry="60.895905"
           sodipodi:rx="60.895905"
           sodipodi:cy="48"
           sodipodi:cx="48"
           id="path4033"
           style="opacity:0.6;color:#000000;fill:url(#linearGradient4179);fill-opacity:1;fill-rule:nonzero;stroke:none;stroke-width:2;marker:none;visibility:visible;display:inline;overflow:visible;enable-background:accumulate"
           sodipodi:type="arc"
           inkscape:transform-center-x="-30.447953"
           inkscape:transform-center-y="7.6655702"
           transform="matrix(0.99945136,-0.0331207,0.0331207,0.99945136,-1.5634586,1.6161281)" />
        <path
           sodipodi:type="arc"
           style="opacity:0.8;color:#000000;fill:url(#linearGradient4181);fill-opacity:1;fill-rule:nonzero;stroke:none;stroke-width:2;marker:none;visibility:visible;display:inline;overflow:visible;enable-background:accumulate"
           id="path4035"
           sodipodi:cx="48"
           sodipodi:cy="48"
           sodipodi:rx="60.895905"
           sodipodi:ry="60.895905"
           d="m 108.8959,48 c 0,5.321771 -0.6976,10.620584 -2.07497,15.76102 L 48,48 z"
           sodipodi:start="0"
           sodipodi:end="0.26179939" />
      </g>
      <g
         id="g4079"
         inkscape:transform-center-x="26.014377"
         inkscape:transform-center-y="25.855951"
         transform="matrix(-0.61678932,0.78712829,-0.78712829,-0.61678932,-4.99852,-35.988071)"
         style="opacity:0.5">
        <path
           transform="matrix(0.99411049,-0.1083712,0.1083712,0.99411049,-5.1582185,5.4918915)"
           inkscape:transform-center-y="3.2334227"
           inkscape:transform-center-x="-30.208857"
           sodipodi:type="arc"
           style="opacity:0.05;color:#000000;fill:url(#linearGradient4183);fill-opacity:1;fill-rule:nonzero;stroke:none;stroke-width:2;marker:none;visibility:visible;display:inline;overflow:visible;enable-background:accumulate"
           id="path4081"
           sodipodi:cx="48"
           sodipodi:cy="48"
           sodipodi:rx="60.895905"
           sodipodi:ry="60.895905"
           d="m 108.8959,48 c 0,9.541976 -2.24232,18.950422 -6.54616,27.466658 L 48,48 z"
           sodipodi:start="0"
           sodipodi:end="0.46793338" />
        <path
           sodipodi:end="0.38497975"
           sodipodi:start="0"
           d="m 108.8959,48 c 0,7.838782 -1.51343,15.60384 -4.45721,22.86887 L 48,48 z"
           sodipodi:ry="60.895905"
           sodipodi:rx="60.895905"
           sodipodi:cy="48"
           sodipodi:cx="48"
           id="path4083"
           style="opacity:0.07000002;color:#000000;fill:url(#linearGradient4185);fill-opacity:1;fill-rule:nonzero;stroke:none;stroke-width:2;marker:none;visibility:visible;display:inline;overflow:visible;enable-background:accumulate"
           sodipodi:type="arc"
           inkscape:transform-center-x="-30.389206"
           inkscape:transform-center-y="5.7561286"
           transform="matrix(0.99786084,-0.06537382,0.06537382,0.99786084,-3.0940115,3.2415713)" />
        <path
           transform="matrix(0.99945136,-0.0331207,0.0331207,0.99945136,-1.5634586,1.6161281)"
           inkscape:transform-center-y="7.6655702"
           inkscape:transform-center-x="-30.447953"
           sodipodi:type="arc"
           style="opacity:0.1;color:#000000;fill:url(#linearGradient4187);fill-opacity:1;fill-rule:nonzero;stroke:none;stroke-width:2;marker:none;visibility:visible;display:inline;overflow:visible;enable-background:accumulate"
           id="path4085"
           sodipodi:cx="48"
           sodipodi:cy="48"
           sodipodi:rx="60.895905"
           sodipodi:ry="60.895905"
           d="m 108.8959,48 c 0,6.55049 -1.05689,13.058072 -3.12994,19.271878 L 48,48 z"
           sodipodi:start="0"
           sodipodi:end="0.32200852" />
        <path
           sodipodi:end="0.26179939"
           sodipodi:start="0"
           d="m 108.8959,48 c 0,5.321771 -0.6976,10.620584 -2.07497,15.76102 L 48,48 z"
           sodipodi:ry="60.895905"
           sodipodi:rx="60.895905"
           sodipodi:cy="48"
           sodipodi:cx="48"
           id="path4087"
           style="opacity:0.1;color:#000000;fill:url(#linearGradient4189);fill-opacity:1;fill-rule:nonzero;stroke:none;stroke-width:2;marker:none;visibility:visible;display:inline;overflow:visible;enable-background:accumulate"
           sodipodi:type="arc" />
      </g>
      <g
         style="opacity:0.9;fill:#ffffff"
         id="g4147"
         inkscape:transform-center-x="34.606347"
         inkscape:transform-center-y="-16.240455"
         transform="matrix(-1.062807,0.1308753,0.74010064,-3.227468,-57.003306,120.66774)">
        <path
           transform="matrix(0.99411049,-0.1083712,0.1083712,0.99411049,-5.1582185,5.4918915)"
           inkscape:transform-center-y="3.2334227"
           inkscape:transform-center-x="-30.208857"
           sodipodi:type="arc"
           style="opacity:0.2;color:#000000;fill:url(#linearGradient4191);fill-opacity:1;fill-rule:nonzero;stroke:none;stroke-width:2;marker:none;visibility:visible;display:inline;overflow:visible;enable-background:accumulate"
           id="path4149"
           sodipodi:cx="48"
           sodipodi:cy="48"
           sodipodi:rx="60.895905"
           sodipodi:ry="60.895905"
           d="m 108.8959,48 c 0,9.541976 -2.24232,18.950422 -6.54616,27.466658 L 48,48 z"
           sodipodi:start="0"
           sodipodi:end="0.46793338" />
        <path
           sodipodi:end="0.38497975"
           sodipodi:start="0"
           d="m 108.8959,48 c 0,7.838782 -1.51343,15.60384 -4.45721,22.86887 L 48,48 z"
           sodipodi:ry="60.895905"
           sodipodi:rx="60.895905"
           sodipodi:cy="48"
           sodipodi:cx="48"
           id="path4151"
           style="opacity:0.4;color:#000000;fill:url(#linearGradient4193);fill-opacity:1;fill-rule:nonzero;stroke:none;stroke-width:2;marker:none;visibility:visible;display:inline;overflow:visible;enable-background:accumulate"
           sodipodi:type="arc"
           inkscape:transform-center-x="-30.389206"
           inkscape:transform-center-y="5.7561286"
           transform="matrix(0.99786084,-0.06537382,0.06537382,0.99786084,-3.0940115,3.2415713)" />
        <path
           transform="matrix(0.99945136,-0.0331207,0.0331207,0.99945136,-1.5634586,1.6161281)"
           inkscape:transform-center-y="7.6655702"
           inkscape:transform-center-x="-30.447953"
           sodipodi:type="arc"
           style="opacity:0.6;color:#000000;fill:url(#linearGradient4195);fill-opacity:1;fill-rule:nonzero;stroke:none;stroke-width:2;marker:none;visibility:visible;display:inline;overflow:visible;enable-background:accumulate"
           id="path4153"
           sodipodi:cx="48"
           sodipodi:cy="48"
           sodipodi:rx="60.895905"
           sodipodi:ry="60.895905"
           d="m 108.8959,48 c 0,6.55049 -1.05689,13.058072 -3.12994,19.271878 L 48,48 z"
           sodipodi:start="0"
           sodipodi:end="0.32200852" />
        <path
           sodipodi:end="0.26179939"
           sodipodi:start="0"
           d="m 108.8959,48 c 0,5.321771 -0.6976,10.620584 -2.07497,15.76102 L 48,48 z"
           sodipodi:ry="60.895905"
           sodipodi:rx="60.895905"
           sodipodi:cy="48"
           sodipodi:cx="48"
           id="path4155"
           style="opacity:0.8;color:#000000;fill:url(#linearGradient4197);fill-opacity:1;fill-rule:nonzero;stroke:none;stroke-width:2;marker:none;visibility:visible;display:inline;overflow:visible;enable-background:accumulate"
           sodipodi:type="arc" />
      </g>
    </g>
    <path
       id="path3018"
       d="m -26,-1.8e-7 c -1.108,0 -2,0.89199998 -2,1.99999998 l 0,1 c 0,-1.108 0.892,-2 2,-2 l 16,0 c 1.108,0 2,0.892 2,2 l 0,-1 C -8,0.8919998 -8.892,-1.8e-7 -10,-1.8e-7 l -16,0 z"
       style="opacity:0.25;fill:#ffffff;fill-opacity:1;fill-rule:evenodd;stroke:none;display:inline"
       inkscape:connector-curvature="0" />
    <path
       style="opacity:0.15;fill:#000000;fill-opacity:1;fill-rule:evenodd;stroke:none;display:inline"
       d="m -26,19.999999 c -1.108,0 -2,-0.891999 -2,-1.999999 l 0,-1 c 0,1.108 0.892,2 2,2 l 16,0 c 1.108,0 2,-0.892 2,-2 l 0,1 c 0,1.108 -0.892,1.999999 -2,1.999999 l -16,0 z"
       id="path3020"
       inkscape:connector-curvature="0" />
    <path
       style="opacity:0.35;fill:url(#linearGradient3961);fill-opacity:1;fill-rule:evenodd;stroke:none;display:inline"
       d="M 4,0 C 2.892,0 2,0.892 2,2 l 0,16 c 0,1.108 0.892,2 2,2 l 16,0 c 1.108,0 2,-0.892 2,-2 L 22,2 C 22,0.892 21.108,0 20,0 L 4,0 z m 0,1.03125 16,0 c 0.5497,0 0.96875,0.4190495 0.96875,0.96875 l 0,16 c 0,0.5497 -0.41905,0.96875 -0.96875,0.96875 l -16,0 C 3.4502995,18.96875 3.03125,18.5497 3.03125,18 l 0,-16 C 3.03125,1.4502995 3.4502995,1.03125 4,1.03125 z"
       id="rect3050"
       inkscape:connector-curvature="0" />
    <path
       id="path3235"
       d="M 4,20 C 2.892,20 2,19.108 2,18 l 0,-1 c 0,1.108 0.892,2 2,2 l 16,0 c 1.108,0 2,-0.892 2,-2 l 0,1 c 0,1.108 -0.892,2 -2,2 L 4,20 z"
       style="opacity:0.2;fill:url(#linearGradient3845);fill-opacity:1;fill-rule:evenodd;stroke:none;display:inline"
       inkscape:connector-curvature="0" />
  </g>
  <g
     inkscape:groupmode="layer"
     id="layer2"
     inkscape:label="Highlight"
     transform="translate(0,2)"
     sodipodi:insensitive="true"
     style="display:none">
    <rect
       style="opacity:0.15;fill:#ffffff;fill-opacity:1;fill-rule:nonzero;stroke:none;display:inline;filter:url(#filter3194)"
       id="rect2410"
       width="16"
       height="16"
       x="3"
       y="3"
       rx="2"
       ry="2"
       clip-path="url(#clipPath2849)"
       transform="translate(1,-1)" />
  </g>
  <g
     inkscape:groupmode="layer"
     id="layer3"
     inkscape:label="Symbol"
     transform="translate(0,2)">
    <path
       style="opacity:0.4;fill:#000000;fill-opacity:1;stroke:none;display:inline"
       d="M 18.9375 4 C 18.673117 4 18.416823 4.1149988 18.21875 4.3125 L 16.4375 6.0625 L 14.40625 6.0625 C 14.02893 6.071 13.66861 6.260721 13.40625 6.53125 L 11.375 8.53125 C 10.855814 9.065012 10.855814 10.028738 11.375 10.5625 L 13.40625 12.5625 C 13.704336 12.872611 14.133197 13.035676 14.5625 13 C 14.885781 12.9542 15.182428 12.799563 15.40625 12.5625 L 17.4375 10.5625 C 17.708812 10.300896 17.866452 9.907481 17.875 9.53125 L 17.875 7.53125 C 17.875115 7.52075 17.875115 7.5105 17.875 7.5 L 19.65625 5.75 C 20.052395 5.354997 20.052395 4.707503 19.65625 4.3125 C 19.458177 4.1149988 19.201883 4 18.9375 4 z M 9.375 11.03125 C 9.0517184 11.07705 8.7550727 11.231687 8.53125 11.46875 L 6.5 13.46875 C 6.2286884 13.730354 6.0710483 14.092519 6.0625 14.46875 L 6.0625 16.5 C 6.0623854 16.5105 6.0623854 16.52075 6.0625 16.53125 L 4.28125 18.28125 C 3.8851047 18.676253 3.8851047 19.323747 4.28125 19.71875 C 4.6773954 20.113752 5.3538547 20.113752 5.75 19.71875 L 7.53125 17.9375 L 9.53125 17.9375 C 9.9085693 17.929 10.30014 17.770529 10.5625 17.5 L 12.5625 15.5 C 13.081686 14.966238 13.081686 14.002512 12.5625 13.46875 L 10.5625 11.46875 C 10.264414 11.158639 9.8043031 10.995574 9.375 11.03125 z "
       transform="translate(0,-2)"
       id="rect2911" />
    <path
       inkscape:connector-curvature="0"
       style="opacity:0.05;fill:#ffffff;fill-opacity:1;fill-rule:nonzero;stroke:none;display:inline"
       d="M 15.15625,10.625 A 1.0013293,1.0013293 0 0 0 14.5625,10.90625 L 12.84375,12.625 A 1.0013293,1.0013293 0 0 0 12.875,14.0625 L 13.8125,15 12.84375,15.96875 a 1.0013293,1.0013293 0 0 0 0,1.4375 L 14.5625,19.125 a 1.0013293,1.0013293 0 0 0 1.40625,0 l 1.03125,-1 0.9375,0.96875 A 1.0013293,1.0013293 0 0 0 19.375,19.125 l 1.78125,-1.78125 A 1.0013293,1.0013293 0 0 0 21.125,15.90625 L 20.1875,15 21.125,14.125 a 1.0013293,1.0013293 0 0 0 0.03125,-1.4375 L 19.375,10.90625 A 1.0013293,1.0013293 0 0 0 17.9375,10.9375 L 17,11.90625 l -1.03125,-1 A 1.0013293,1.0013293 0 0 0 15.15625,10.625 z"
       id="path3024" />
    <path
       inkscape:connector-curvature="0"
       style="opacity:0.05;fill:#ffffff;fill-opacity:1;fill-rule:nonzero;stroke:none;display:inline"
       d="M 15.28125,11.625 17,13.3125 18.65625,11.625 20.4375,13.40625 18.75,15 20.4375,16.625 18.65625,18.40625 17,16.71875 15.28125,18.40625 13.5625,16.6875 15.25,15 13.5625,13.34375 15.28125,11.625 z"
       id="path4389" />
    <path
       inkscape:connector-curvature="0"
       style="fill:url(#linearGradient7193);fill-opacity:1;fill-rule:evenodd;stroke:none;display:inline"
       d="m 13.577777,13.350759 1.717718,-1.717717 1.691292,1.664864 1.664864,-1.664864 1.770572,1.77057 -1.664866,1.612012 1.664866,1.612012 -1.770572,1.770571 -1.664864,-1.664865 -1.691292,1.664865 -1.717718,-1.717718 1.664866,-1.664865 -1.664866,-1.664865 z"
       id="path7165" />
    <path
       inkscape:connector-curvature="0"
       style="opacity:0;fill:#000000;fill-opacity:1;fill-rule:evenodd;stroke:none;display:inline"
       d="m 15,11 -2.0625,2.0625 0.5,0.5 L 15,12 l 2,2 1.9375,-2 1.59375,1.59375 L 21.0625,13.125 18.9375,11 17,13 15,11 z m -0.07839,4 -1.984106,2 0.5,0.5 1.5,-1.5 -0.01589,-1 z m 4.172422,0 -0.03153,1 1.46875,1.4375 0.53125,-0.5 L 19.094028,15 z"
       id="path7188"
       sodipodi:nodetypes="ccccccccccccccccccccc" />
    <path
       inkscape:connector-curvature="0"
       style="opacity:0.25;fill:#000000;fill-opacity:1;fill-rule:evenodd;stroke:none;display:inline"
       d="m 15.28125,11.625 -1.71875,1.71875 0.5,0.5 L 15.28125,12.625 17,14.3125 l 1.65625,-1.6875 1.28125,1.28125 0.5,-0.5 L 18.65625,11.625 17,13.3125 15.28125,11.625 z M 14.75,15.5 l -1.1875,1.1875 0.5,0.5 L 15.25,16 14.75,15.5 z m 4.53125,0 -0.53125,0.5 1.1875,1.125 0.5,-0.5 -1.15625,-1.125 z"
       id="path3771" />
    <path
       inkscape:connector-curvature="0"
       style="opacity:0.2;fill:#ffffff;fill-opacity:1;fill-rule:evenodd;stroke:none;display:inline"
       d="m 14.0625,13.84375 -0.5,0.5 L 14.75,15.5 15.25,15 14.0625,13.84375 z m 5.875,0.0625 L 18.75,15 l 0.53125,0.5 1.15625,-1.09375 -0.5,-0.5 z M 17,16.71875 l -1.71875,1.6875 -1.21875,-1.21875 -0.5,0.5 1.71875,1.71875 1.71875,-1.6875 1.65625,1.6875 1.78125,-1.78125 -0.5,-0.5 -1.28125,1.28125 L 17,16.71875 z"
       id="path3780" />
    <path
       inkscape:connector-curvature="0"
       style="opacity:0.25;fill:#000000;fill-opacity:1;fill-rule:evenodd;stroke:none;display:inline"
       d="M 15.28125,11.625 13.5625,13.34375 15.25,15 13.5625,16.6875 15.28125,18.40625 17,16.71875 18.65625,18.40625 20.4375,16.625 18.75,15 20.4375,13.40625 18.65625,11.625 17,13.3125 15.28125,11.625 z m 0,0.625 1.40625,1.375 a 0.44174028,0.44174028 0 0 0 0.625,0 l 1.34375,-1.375 1.15625,1.15625 -1.375,1.28125 a 0.44174028,0.44174028 0 0 0 0,0.625 l 1.375,1.3125 -1.15625,1.15625 -1.34375,-1.375 a 0.44174028,0.44174028 0 0 0 -0.625,0 l -1.40625,1.375 -1.09375,-1.09375 1.375,-1.375 a 0.44174028,0.44174028 0 0 0 0,-0.625 L 14.1875,13.34375 15.28125,12.25 z"
       id="path7150" />
  </g>
</svg>
