<?xml version="1.0" encoding="UTF-8" standalone="no"?>
<!-- Created with Inkscape (http://www.inkscape.org/) -->

<svg
   xmlns:dc="http://purl.org/dc/elements/1.1/"
   xmlns:cc="http://creativecommons.org/ns#"
   xmlns:rdf="http://www.w3.org/1999/02/22-rdf-syntax-ns#"
   xmlns:svg="http://www.w3.org/2000/svg"
   xmlns="http://www.w3.org/2000/svg"
   xmlns:xlink="http://www.w3.org/1999/xlink"
   xmlns:sodipodi="http://sodipodi.sourceforge.net/DTD/sodipodi-0.dtd"
   xmlns:inkscape="http://www.inkscape.org/namespaces/inkscape"
   width="22"
   height="22"
   id="svg2"
   sodipodi:version="0.32"
   inkscape:version="0.48.1 r9760"
   version="1.0"
   sodipodi:docname="notification-network-wireless-disconnected.svg"
   inkscape:output_extension="org.inkscape.output.svg.inkscape"
   style="display:inline"
   inkscape:export-filename="/home/matthieu/Eye-Candy/Faience/0.1/sources/status/small/audio-volume-high.png"
   inkscape:export-xdpi="90"
   inkscape:export-ydpi="90">
  <defs
     id="defs4">
    <linearGradient
       id="StandardGradient"
       gradientTransform="scale(0.9219544,1.0846523)"
       x1="11.998966"
       y1="0.92195445"
       x2="11.998966"
       y2="19.387045"
       gradientUnits="userSpaceOnUse">
      <stop
         style="stop-color:#000000;stop-opacity:0.23529412;"
         offset="0"
         id="stop3283-1" />
      <stop
         id="stop3850"
         offset="0.69999999"
         style="stop-color:#000000;stop-opacity:0.39215686;" />
      <stop
         style="stop-color:#000000;stop-opacity:0.55;"
         offset="1"
         id="stop2651" />
    </linearGradient>
    <linearGradient
       id="SpecificGradient"
       x1="10.406627"
       y1="2"
       x2="10.406627"
       y2="18.000771"
       gradientUnits="userSpaceOnUse">
      <stop
         style="stop-color:#e64b36;stop-opacity:1;"
         offset="0"
         id="stop3292" />
      <stop
         style="stop-color:#a31414;stop-opacity:1;"
         offset="1"
         id="stop3294" />
    </linearGradient>
    <radialGradient
       inkscape:collect="always"
       xlink:href="#StandardGradient"
       id="radialGradient3851"
       cx="36"
       cy="2"
       fx="36"
       fy="2"
       r="4"
       gradientUnits="userSpaceOnUse" />
    <radialGradient
       inkscape:collect="always"
       xlink:href="#SpecificGradient"
       id="radialGradient3855"
       gradientUnits="userSpaceOnUse"
       cx="36"
       cy="2"
       fx="36"
       fy="2"
       r="4"
       gradientTransform="translate(0,10)" />
    <radialGradient
       inkscape:collect="always"
       xlink:href="#StandardGradient"
       id="radialGradient3875"
       gradientUnits="userSpaceOnUse"
       gradientTransform="matrix(1.5,0,0,0.80000002,-36.5,31.466666)"
       cx="13.087769"
       cy="13.166667"
       fx="13.087769"
       fy="13.166667"
       r="10" />
    <radialGradient
       inkscape:collect="always"
       xlink:href="#StandardGradient"
       id="radialGradient3877"
       gradientUnits="userSpaceOnUse"
       gradientTransform="matrix(1.6,0,0,0.85333335,-7.6666665,30.297777)"
       cx="13.087769"
       cy="13.166667"
       fx="13.087769"
       fy="13.166667"
       r="10" />
    <radialGradient
       inkscape:collect="always"
       xlink:href="#StandardGradient"
       id="radialGradient3831"
       cx="13"
       cy="12.206731"
       fx="13"
       fy="12.206731"
       r="9.1875"
       gradientTransform="matrix(1.6326531,0,0,0.76190477,-38.22449,2.6996336)"
       gradientUnits="userSpaceOnUse" />
    <radialGradient
       inkscape:collect="always"
       xlink:href="#StandardGradient"
       id="radialGradient3878"
       gradientUnits="userSpaceOnUse"
       gradientTransform="matrix(1.3636364,0,0,0.72727273,-4.7272727,-16.962304)"
       cx="13"
       cy="12.323168"
       fx="13"
       fy="12.323168"
       r="11" />
    <linearGradient
       inkscape:collect="always"
       xlink:href="#linearGradient3183"
       id="linearGradient7193"
       gradientUnits="userSpaceOnUse"
       gradientTransform="matrix(0,0.8456457,0.8456457,0,7.6846844,4.3309381)"
       x1="11"
       y1="11.015625"
       x2="19"
       y2="11.015625" />
    <linearGradient
       id="linearGradient3183">
      <stop
         style="stop-color:#c80000;stop-opacity:1;"
         offset="0"
         id="stop3185" />
      <stop
         style="stop-color:#f3604d;stop-opacity:1;"
         offset="1"
         id="stop3187" />
    </linearGradient>
  </defs>
  <sodipodi:namedview
     id="base"
     pagecolor="#818181"
     bordercolor="#ffcfcf"
     borderopacity="1"
     inkscape:pageopacity="1"
     inkscape:pageshadow="2"
     inkscape:zoom="22.640002"
     inkscape:cx="-6.8854843"
     inkscape:cy="8.7247964"
     inkscape:document-units="px"
     inkscape:current-layer="layer1"
     showgrid="true"
     inkscape:showpageshadow="false"
     showguides="true"
     inkscape:guide-bbox="true"
     inkscape:window-width="1920"
     inkscape:window-height="1030"
     inkscape:window-x="0"
     inkscape:window-y="25"
     inkscape:window-maximized="1"
     borderlayer="true"
     inkscape:snap-global="true">
    <sodipodi:guide
       orientation="0,1"
       position="26.278146,128"
       id="guide2385" />
    <sodipodi:guide
       orientation="1,0"
       position="128,54.082119"
       id="guide2387" />
    <sodipodi:guide
       orientation="0,1"
       position="60.863576,64.084768"
       id="guide2391" />
    <inkscape:grid
       type="xygrid"
       id="grid3672"
       visible="true"
       enabled="true"
       empspacing="8"
       snapvisiblegridlinesonly="true" />
    <sodipodi:guide
       orientation="1,0"
       position="13,6"
       id="guide3013" />
    <sodipodi:guide
       orientation="0,1"
       position="18,10"
       id="guide3015" />
  </sodipodi:namedview>
  <metadata
     id="metadata7">
    <rdf:RDF>
      <cc:Work
         rdf:about="">
        <dc:format>image/svg+xml</dc:format>
        <dc:type
           rdf:resource="http://purl.org/dc/dcmitype/StillImage" />
        <dc:title></dc:title>
      </cc:Work>
    </rdf:RDF>
  </metadata>
  <g
     inkscape:label="Icon"
     inkscape:groupmode="layer"
     id="layer1"
     style="display:inline">
    <path
       style="opacity:0.05;color:#000000;fill:#ffffff;fill-opacity:1;fill-rule:nonzero;stroke:none;stroke-width:1.5;marker:none;visibility:visible;display:inline;overflow:visible;enable-background:accumulate"
       d="m 11,32.03125 c -4.4333243,0 -8.4774719,1.890127 -11.375,4.96875 a 0.97406626,0.97406626 0 0 0 0,1.3125 L 1.40625,40.25 a 0.97406626,0.97406626 0 0 0 0.625,0.3125 0.97406626,0.97406626 0 0 0 0.25,0.59375 l 1.8125,1.90625 A 0.97406626,0.97406626 0 0 0 4.6875,43.375 0.97406626,0.97406626 0 0 0 4.9375,44 l 1.78125,1.875 a 0.97406626,0.97406626 0 0 0 0.65625,0.3125 0.97406626,0.97406626 0 0 0 0.25,0.625 l 2.65625,2.84375 a 0.97406626,0.97406626 0 0 0 1.4375,0 L 14.375,46.8125 a 0.97406626,0.97406626 0 0 0 0.25,-0.625 0.97406626,0.97406626 0 0 0 0.65625,-0.3125 L 17.0625,44 a 0.97406626,0.97406626 0 0 0 0.25,-0.625 0.97406626,0.97406626 0 0 0 0.59375,-0.3125 l 1.8125,-1.90625 a 0.97406626,0.97406626 0 0 0 0.25,-0.59375 0.97406626,0.97406626 0 0 0 0.625,-0.3125 L 22.375,38.3125 A 0.97406626,0.97406626 0 0 0 22.375,37 C 19.477473,33.921376 15.433322,32.03125 11,32.03125 z M 11,33 c 4.158378,0 7.93114,1.76082 10.65625,4.65625 l -1.78125,1.9375 c -2.270927,-2.412859 -5.409686,-3.9375 -8.875,-3.9375 -3.465316,0 -6.604074,1.524641 -8.875,3.9375 L 0.34375,37.65625 C 3.068861,34.76082 6.8416199,33 11,33 z m 0,4 c 3.118784,0 5.956167,1.328427 8,3.5 l -1.8125,1.90625 c -1.589648,-1.689002 -3.761779,-2.75 -6.1875,-2.75 -2.4257219,0 -4.5978519,1.060998 -6.1875,2.75 L 3,40.5 C 5.0438332,38.328427 7.8812151,37 11,37 z m 0,4 c 2.07919,0 3.981195,0.896036 5.34375,2.34375 l -1.78125,1.875 C 13.654129,44.253606 12.386127,43.65625 11,43.65625 c -1.3861275,0 -2.6541295,0.597356 -3.5625,1.5625 l -1.78125,-1.875 C 7.0188054,41.896036 8.9208093,41 11,41 z m 0,4 c 1.039594,0 1.974972,0.432393 2.65625,1.15625 L 11,49 8.34375,46.15625 C 9.0250278,45.432393 9.9604045,45 11,45 z"
       id="path3894"
       inkscape:connector-curvature="0" />
    <rect
       style="opacity:0.80000000000000004;color:#000000;fill:url(#radialGradient3851);fill-opacity:1;fill-rule:nonzero;stroke:none;stroke-width:2;stroke-linecap:round;stroke-linejoin:round;stroke-miterlimit:4;stroke-opacity:1;stroke-dasharray:none;stroke-dashoffset:8.59999999999999787;marker:none;visibility:visible;display:inline;overflow:visible;enable-background:accumulate"
       id="rect3841"
       width="8"
       height="8"
       x="32"
       y="-2" />
    <rect
       y="8"
       x="32"
       height="8"
       width="8"
       id="rect3853"
       style="opacity:0.80000000000000004;color:#000000;fill:url(#radialGradient3855);fill-opacity:1.0;fill-rule:nonzero;stroke:none;stroke-width:2;marker:none;visibility:visible;display:inline;overflow:visible;enable-background:accumulate" />
    <path
       style="color:#000000;fill:url(#radialGradient3877);fill-opacity:1;fill-rule:nonzero;stroke:none;stroke-width:1.5;marker:none;visibility:visible;display:inline;overflow:visible;enable-background:accumulate"
       d="M 11.000001,33 C 6.8416209,33 3.0584445,34.771236 0.3333335,37.666667 l 1.8039216,1.916666 c 2.270926,-2.412858 5.3974299,-3.916666 8.8627459,-3.916666 3.465314,0 6.591818,1.503808 8.862745,3.916666 l 1.80392,-1.916666 C 18.941556,34.771236 15.158379,33 11.000001,33 z m 0,4 c -3.1187849,0 -5.9561676,1.328427 -8.0000008,3.5 l 1.8039216,1.916667 c 1.5896481,-1.689002 3.7703573,-2.75 6.1960792,-2.75 2.425721,0 4.606431,1.060998 6.196079,2.75 L 19,40.5 C 16.956167,38.328427 14.118785,37 11.000001,37 z m 0,4 c -2.0791907,0 -3.9707788,0.885619 -5.3333342,2.333333 l 1.7647058,1.875 c 0.9083705,-0.965144 2.1825009,-1.541666 3.5686284,-1.541666 1.386127,0 2.660257,0.576522 3.568628,1.541666 l 1.764705,-1.875 C 14.970779,41.885619 13.079191,41 11.000001,41 z m 0,4 C 9.9604055,45 9.0146113,45.44281 8.3333335,46.166667 L 11.000001,49 13.666667,46.166667 C 12.985389,45.44281 12.039595,45 11.000001,45 z"
       id="path3909"
       inkscape:connector-curvature="0" />
    <path
       id="path3865"
       d="m -19,33 c -4.18144,0 -7.987508,1.785555 -10.71875,4.6875 a 0.99656599,0.99656599 0 0 0 0,1.375 l 1.6875,1.8125 a 0.99656599,0.99656599 0 0 0 0.53125,0.28125 0.99656599,0.99656599 0 0 0 0,0.03125 0.99656599,0.99656599 0 0 0 0.28125,0.53125 L -25.53125,43.5 A 0.99656599,0.99656599 0 0 0 -25,43.78125 0.99656599,0.99656599 0 0 0 -24.71875,44.375 l 1.65625,1.75 a 0.99656599,0.99656599 0 0 0 0.5625,0.3125 0.99656599,0.99656599 0 0 0 0.28125,0.59375 l 2.5,2.65625 a 0.99656599,0.99656599 0 0 0 1.4375,0 l 2.5,-2.65625 a 0.99656599,0.99656599 0 0 0 0.28125,-0.625 0.99656599,0.99656599 0 0 0 0.5625,-0.28125 l 1.65625,-1.75 A 0.99656599,0.99656599 0 0 0 -13,43.78125 0.99656599,0.99656599 0 0 0 -12.46875,43.5 l 1.6875,-1.78125 a 0.99656599,0.99656599 0 0 0 0.25,-0.53125 0.99656599,0.99656599 0 0 0 0,-0.03125 0.99656599,0.99656599 0 0 0 0.03125,0 0.99656599,0.99656599 0 0 0 0.53125,-0.28125 l 1.6875,-1.8125 a 0.99656599,0.99656599 0 0 0 0,-1.375 C -11.012492,34.785555 -14.818561,33 -19,33 z m 0,1 c 3.89848,0 7.445209,1.660534 10,4.375 l -1.6875,1.8125 C -12.816494,37.925445 -15.751268,36.5 -19,36.5 c -3.248733,0 -6.183507,1.425445 -8.3125,3.6875 L -29,38.375 C -26.445208,35.660534 -22.898481,34 -19,34 z m 0,3.75 c 2.92386,0 5.583906,1.2454 7.5,3.28125 l -1.6875,1.78125 C -14.677795,41.229061 -16.725886,40.25 -19,40.25 c -2.274114,0 -4.322205,0.979061 -5.8125,2.5625 L -26.5,41.03125 C -24.583906,38.9954 -21.92386,37.75 -19,37.75 z m 0,3.75 c 1.949241,0 3.722605,0.830268 5,2.1875 l -1.65625,1.75 C -16.507848,44.532678 -17.700506,44 -19,44 c -1.299493,0 -2.492153,0.532678 -3.34375,1.4375 L -24,43.6875 c 1.277396,-1.357232 3.050759,-2.1875 5,-2.1875 z m 0,3.75 c 0.97462,0 1.861302,0.415134 2.5,1.09375 L -19,49 -21.5,46.34375 C -20.861302,45.665134 -19.97462,45.25 -19,45.25 z"
       style="opacity:0.05;color:#000000;fill:#ffffff;fill-opacity:1;fill-rule:nonzero;stroke:none;stroke-width:1.5;marker:none;visibility:visible;display:inline;overflow:visible;enable-background:accumulate"
       inkscape:connector-curvature="0" />
    <path
       inkscape:connector-curvature="0"
       id="path3867"
       d="m -19,34 c -3.898481,0 -7.445208,1.660534 -10,4.375 l 1.691177,1.796875 C -25.17983,37.90982 -22.248733,36.5 -19,36.5 c 3.248732,0 6.17983,1.40982 8.308824,3.671875 L -9,38.375 C -11.554791,35.660534 -15.10152,34 -19,34 z m 0,3.75 c -2.92386,0 -5.583906,1.2454 -7.5,3.28125 l 1.691177,1.796875 C -23.318528,41.244686 -21.274114,40.25 -19,40.25 c 2.274114,0 4.318529,0.994686 5.808824,2.578125 L -11.5,41.03125 C -13.416094,38.9954 -16.07614,37.75 -19,37.75 z m 0,3.75 c -1.949241,0 -3.722604,0.830268 -5,2.1875 l 1.654412,1.757812 C -21.493991,44.54049 -20.299493,44 -19,44 c 1.299494,0 2.493991,0.54049 3.345589,1.445312 L -14,43.6875 C -15.277395,42.330268 -17.050759,41.5 -19,41.5 z m 0,3.75 c -0.97462,0 -1.861302,0.415134 -2.5,1.09375 L -19,49 -16.5,46.34375 C -17.138698,45.665134 -18.02538,45.25 -19,45.25 z"
       style="color:#000000;fill:url(#radialGradient3875);fill-opacity:1;fill-rule:nonzero;stroke:none;stroke-width:1.5;marker:none;visibility:visible;display:inline;overflow:visible;enable-background:accumulate" />
    <path
       id="path3869"
       d="m -19,36.5 c -3.248733,0 -6.183507,1.425445 -8.3125,3.6875 L -28.5,38.90625 c -0.164541,0.158885 -0.342819,0.301745 -0.5,0.46875 l 1.6875,1.8125 C -25.183507,38.925445 -22.248733,37.5 -19,37.5 c 3.248732,0 6.183506,1.425445 8.3125,3.6875 L -9,39.375 c -0.157181,-0.167005 -0.335459,-0.309865 -0.5,-0.46875 l -1.1875,1.28125 C -12.816494,37.925445 -15.751268,36.5 -19,36.5 z m 0,3.75 c -2.274114,0 -4.322205,0.979061 -5.8125,2.5625 L -26,41.5625 c -0.167862,0.156882 -0.341987,0.300861 -0.5,0.46875 l 1.6875,1.78125 C -23.322205,42.229061 -21.274114,41.25 -19,41.25 c 2.274114,0 4.322205,0.979061 5.8125,2.5625 L -11.5,42.03125 c -0.158013,-0.167889 -0.332138,-0.311868 -0.5,-0.46875 l -1.1875,1.25 C -14.677795,41.229061 -16.725886,40.25 -19,40.25 z m 0,3.75 c -1.299493,0 -2.492153,0.532678 -3.34375,1.4375 L -23.5,44.21875 c -0.174548,0.152594 -0.340326,0.299096 -0.5,0.46875 l 1.65625,1.75 C -21.492153,45.532678 -20.299493,45 -19,45 c 1.299494,0 2.492152,0.532678 3.34375,1.4375 L -14,44.6875 c -0.159674,-0.169654 -0.325452,-0.316156 -0.5,-0.46875 l -1.15625,1.21875 C -16.507848,44.532678 -17.700506,44 -19,44 z m -2,2.875 c -0.181114,0.131108 -0.345607,0.304707 -0.5,0.46875 L -19,50 -16.5,47.34375 C -16.654393,47.179707 -16.818886,47.006108 -17,46.875 L -19,49 -21,46.875 z"
       style="opacity:0.2;color:#000000;fill:#ffffff;fill-opacity:1;fill-rule:nonzero;stroke:none;stroke-width:1.5;marker:none;visibility:visible;display:inline;overflow:visible;enable-background:accumulate"
       inkscape:connector-curvature="0" />
    <path
       id="path3871"
       d="m -19,34 c -3.898481,0 -7.445208,1.660534 -10,4.375 l 1.6875,1.8125 C -25.183507,37.925445 -22.248733,36.5 -19,36.5 c 3.248732,0 6.183506,1.425445 8.3125,3.6875 L -9,38.375 C -11.554791,35.660534 -15.10152,34 -19,34 z m 0,0.46875 c 3.616134,0 6.899286,1.49328 9.34375,3.9375 l -1.0625,1.125 c -2.17712,-2.137009 -5.072088,-3.5 -8.28125,-3.5 -3.209163,0 -6.104131,1.362991 -8.28125,3.5 l -1.0625,-1.125 c 2.444465,-2.44422 5.727616,-3.9375 9.34375,-3.9375 z m 0,3.28125 c -2.92386,0 -5.583906,1.2454 -7.5,3.28125 l 1.6875,1.78125 C -23.322205,41.229061 -21.274114,40.25 -19,40.25 c 2.274114,0 4.322205,0.979061 5.8125,2.5625 L -11.5,41.03125 C -13.416094,38.9954 -16.07614,37.75 -19,37.75 z m 0,0.46875 c 2.641961,0 5.039467,1.077032 6.84375,2.84375 l -1.0625,1.09375 c -1.536846,-1.459389 -3.548467,-2.375 -5.78125,-2.375 -2.232782,0 -4.244404,0.915611 -5.78125,2.375 l -1.0625,-1.09375 C -24.039467,39.295782 -21.641961,38.21875 -19,38.21875 z M -19,41.5 c -1.949241,0 -3.722604,0.830268 -5,2.1875 l 1.65625,1.75 C -21.492153,44.532678 -20.299493,44 -19,44 c 1.299494,0 2.492152,0.532678 3.34375,1.4375 L -14,43.6875 C -15.277395,42.330268 -17.050759,41.5 -19,41.5 z m 0,0.46875 c 1.665976,0 3.181729,0.662266 4.34375,1.75 l -1.0625,1.125 c -0.903326,-0.787667 -2.025232,-1.3125 -3.28125,-1.3125 -1.256018,0 -2.377924,0.524833 -3.28125,1.3125 l -1.0625,-1.125 c 1.162022,-1.087734 2.677774,-1.75 4.34375,-1.75 z m 0,3.28125 c -0.97462,0 -1.861302,0.415134 -2.5,1.09375 L -19,49 -16.5,46.34375 C -17.138698,45.665134 -18.02538,45.25 -19,45.25 z m 0,0.46875 c 0.689551,0 1.300107,0.275621 1.8125,0.6875 L -19,48.3125 -20.8125,46.40625 c 0.512393,-0.411879 1.122949,-0.6875 1.8125,-0.6875 z"
       style="opacity:0.3;color:#000000;fill:#000000;fill-opacity:1;fill-rule:nonzero;stroke:none;stroke-width:1.5;marker:none;visibility:visible;display:inline;overflow:visible;enable-background:accumulate"
       inkscape:connector-curvature="0" />
    <path
       id="path3873"
       d="m -19,34 c -3.898481,0 -7.445208,1.660534 -10,4.375 l 0.5,0.53125 C -25.990117,36.482649 -22.658631,35 -19,35 c 3.65863,0 6.990117,1.482649 9.5,3.90625 L -9,38.375 C -11.554791,35.660534 -15.10152,34 -19,34 z m 0,3.75 c -2.92386,0 -5.583906,1.2454 -7.5,3.28125 l 0.5,0.53125 c 1.867668,-1.745503 4.317259,-2.8125 7,-2.8125 2.682741,0 5.132332,1.066997 7,2.8125 l 0.5,-0.53125 C -13.416094,38.9954 -16.07614,37.75 -19,37.75 z m 0,3.75 c -1.949241,0 -3.722604,0.830268 -5,2.1875 l 0.5,0.53125 C -22.278162,43.150592 -20.705585,42.5 -19,42.5 c 1.705586,0 3.278162,0.650592 4.5,1.71875 L -14,43.6875 C -15.277395,42.330268 -17.050759,41.5 -19,41.5 z m 0,3.75 c -0.97462,0 -1.861302,0.415134 -2.5,1.09375 L -21,46.875 c 0.568123,-0.411262 1.260976,-0.625 2,-0.625 0.739024,0 1.431877,0.213738 2,0.625 l 0.5,-0.53125 C -17.138698,45.665134 -18.02538,45.25 -19,45.25 z"
       style="opacity:0.3;color:#000000;fill:#000000;fill-opacity:1;fill-rule:nonzero;stroke:none;stroke-width:1.5;marker:none;visibility:visible;display:inline;overflow:visible;enable-background:accumulate"
       inkscape:connector-curvature="0" />
    <path
       style="opacity:0.2;color:#000000;fill:#ffffff;fill-opacity:1;fill-rule:nonzero;stroke:none;stroke-width:1.5;marker:none;visibility:visible;display:inline;overflow:visible;enable-background:accumulate"
       d="m 11,35.65625 c -3.465316,0 -6.604074,1.524642 -8.875,3.9375 L 0.84375,38.1875 c -0.16459967,0.159853 -0.3423502,0.301247 -0.5,0.46875 l 1.78125,1.9375 c 2.270926,-2.412858 5.409684,-3.9375 8.875,-3.9375 3.465314,0 6.604073,1.524642 8.875,3.9375 l 1.78125,-1.9375 c -0.15765,-0.167503 -0.3354,-0.308897 -0.5,-0.46875 L 19.875,39.59375 C 17.604073,37.180892 14.465314,35.65625 11,35.65625 z m 0,4 c -2.4257219,0 -4.5978519,1.060998 -6.1875,2.75 L 3.5,41.03125 C 3.3357282,41.186335 3.1553298,41.334962 3,41.5 l 1.8125,1.90625 c 1.5896481,-1.689002 3.7617781,-2.75 6.1875,-2.75 2.425721,0 4.597852,1.060998 6.1875,2.75 L 19,41.5 c -0.15533,-0.165038 -0.335728,-0.313665 -0.5,-0.46875 l -1.3125,1.375 c -1.589648,-1.689002 -3.761779,-2.75 -6.1875,-2.75 z m 0,4 c -1.3861275,0 -2.6541295,0.597356 -3.5625,1.5625 l -1.28125,-1.375 c -0.1743892,0.154233 -0.3396994,0.329681 -0.5,0.5 l 1.78125,1.875 c 0.9083705,-0.965144 2.1763725,-1.5625 3.5625,-1.5625 1.386127,0 2.654129,0.597356 3.5625,1.5625 l 1.78125,-1.875 c -0.160301,-0.170319 -0.325611,-0.345767 -0.5,-0.5 l -1.28125,1.375 C 13.654129,44.253606 12.386127,43.65625 11,43.65625 z m -2.125,3.0625 c -0.187076,0.136954 -0.3711683,0.267413 -0.53125,0.4375 L 11,50 13.65625,47.15625 C 13.496168,46.986163 13.312076,46.855704 13.125,46.71875 L 11,49 8.875,46.71875 z"
       id="path3879"
       inkscape:connector-curvature="0" />
    <path
       style="opacity:0.3;color:#000000;fill:#000000;fill-opacity:1;fill-rule:nonzero;stroke:none;stroke-width:1.5;marker:none;visibility:visible;display:inline;overflow:visible;enable-background:accumulate"
       d="M 11,33 C 6.8416199,33 3.068861,34.76082 0.34375,37.65625 l 1.78125,1.9375 c 2.270926,-2.412859 5.409684,-3.9375 8.875,-3.9375 3.465314,0 6.604073,1.524641 8.875,3.9375 l 1.78125,-1.9375 C 18.93114,34.76082 15.158378,33 11,33 z m 0,0.5625 c 3.820042,0 7.283814,1.555161 9.875,4.125 l -1.03125,1.125 C 17.51386,36.542893 14.422782,35.09375 11,35.09375 c -3.4227842,0 -6.5138611,1.449143 -8.84375,3.71875 L 1.125,37.6875 C 3.7161873,35.117661 7.1799558,33.5625 11,33.5625 z M 11,37 c -3.1187849,0 -5.9561668,1.328427 -8,3.5 l 1.8125,1.90625 c 1.5896481,-1.689002 3.7617781,-2.75 6.1875,-2.75 2.425721,0 4.597852,1.060998 6.1875,2.75 L 19,40.5 C 16.956167,38.328427 14.118784,37 11,37 z m 0,0.5625 c 2.770462,0 5.280989,1.131981 7.1875,2.96875 L 17.125,41.625 C 15.485527,40.089456 13.372764,39.09375 11,39.09375 c -2.3727652,0 -4.4855275,0.995706 -6.125,2.53125 L 3.8125,40.53125 C 5.719011,38.694481 8.2295373,37.5625 11,37.5625 z M 11,41 c -2.0791907,0 -3.9811946,0.896036 -5.34375,2.34375 l 1.78125,1.875 c 0.9083705,-0.965144 2.1763725,-1.5625 3.5625,-1.5625 1.386127,0 2.654129,0.597356 3.5625,1.5625 l 1.78125,-1.875 C 14.981195,41.896036 13.07919,41 11,41 z m 0,0.5625 c 1.726098,0 3.278531,0.730763 4.5,1.84375 l -1.03125,1.0625 c -0.960422,-0.816437 -2.139946,-1.375 -3.46875,-1.375 -1.3288048,0 -2.5083281,0.558563 -3.46875,1.375 L 6.5,43.40625 C 7.7214688,42.293263 9.2739009,41.5625 11,41.5625 z M 11,45 C 9.9604045,45 9.0250278,45.432393 8.34375,46.15625 L 11,49 13.65625,46.15625 C 12.974972,45.432393 12.039594,45 11,45 z m 0,0.5625 c 0.699644,0 1.289864,0.285728 1.8125,0.6875 L 11,48.1875 9.1875,46.25 C 9.7101357,45.848228 10.300355,45.5625 11,45.5625 z"
       id="path3908"
       inkscape:connector-curvature="0" />
    <path
       style="opacity:0.3;color:#000000;fill:#000000;fill-opacity:1;fill-rule:nonzero;stroke:none;stroke-width:1.5;marker:none;visibility:visible;display:inline;overflow:visible;enable-background:accumulate"
       d="M 11,33 C 6.8416199,33 3.068861,34.76082 0.34375,37.65625 l 0.5,0.53125 C 3.5243958,35.584159 7.0821854,34 11,34 c 3.917813,0 7.475605,1.584159 10.15625,4.1875 l 0.5,-0.53125 C 18.93114,34.76082 15.158378,33 11,33 z m 0,4 c -3.1187849,0 -5.9561668,1.328427 -8,3.5 l 0.5,0.53125 C 5.4972216,39.145722 8.1182404,38 11,38 c 2.881759,0 5.502779,1.145722 7.5,3.03125 L 19,40.5 C 16.956167,38.328427 14.118784,37 11,37 z m 0,4 c -2.0791907,0 -3.9811946,0.896036 -5.34375,2.34375 l 0.5,0.5 C 7.4641688,42.687004 9.16542,42 11,42 c 1.834579,0 3.535831,0.687004 4.84375,1.84375 l 0.5,-0.5 C 14.981195,41.896036 13.07919,41 11,41 z m 0,4 C 9.9604045,45 9.0250278,45.432393 8.34375,46.15625 L 8.875,46.71875 C 9.4840845,46.272855 10.204681,46 11,46 c 0.795318,0 1.515915,0.272855 2.125,0.71875 l 0.53125,-0.5625 C 12.974972,45.432393 12.039594,45 11,45 z"
       id="path3899"
       inkscape:connector-curvature="0" />
    <path
       style="color:#000000;fill:url(#radialGradient3831);fill-opacity:1;fill-rule:nonzero;stroke:none;stroke-width:2;marker:none;visibility:visible;display:inline;overflow:visible;enable-background:accumulate"
       d="m -19,5 c -3.589851,0 -6.834963,1.4599627 -9.1875,3.8125 l 1.40625,1.40625 C -24.790642,8.2281415 -22.037566,7 -19,7 c 3.037566,0 5.790641,1.2281415 7.78125,3.21875 L -9.8125,8.8125 C -12.165037,6.4599627 -15.410149,5 -19,5 z m 0,3 c -2.761424,0 -5.252856,1.127856 -7.0625,2.9375 l 1.40625,1.40625 C -23.208535,10.896035 -21.209139,10 -19,10 c 2.209139,0 4.208535,0.896035 5.65625,2.34375 L -11.9375,10.9375 C -13.747144,9.127856 -16.238577,8 -19,8 z m 0,3 c -1.932997,0 -3.670749,0.795749 -4.9375,2.0625 l 1.40625,1.40625 C -21.626428,13.563928 -20.380712,13 -19,13 c 1.380712,0 2.626428,0.563928 3.53125,1.46875 L -14.0625,13.0625 C -15.329251,11.795749 -17.067004,11 -19,11 z m 0,3 c -1.10457,0 -2.119892,0.432392 -2.84375,1.15625 L -19,18 -16.15625,15.15625 C -16.880108,14.432392 -17.89543,14 -19,14 z"
       id="path3803"
       inkscape:connector-curvature="0" />
    <path
       style="opacity:0.1;color:#000000;fill:#000000;fill-opacity:1;fill-rule:nonzero;stroke:none;stroke-width:2;marker:none;visibility:visible;display:inline;overflow:visible;enable-background:accumulate"
       d="m 11,3.4375 c -3.8086272,0 -7.2961199,1.3842433 -10,3.65625 L 2.65625,9.0625 C 4.9168746,7.1568438 7.8117766,6 11,6 c 3.172523,0 6.056592,1.1423795 8.3125,3.03125 L 20.96875,7.0625 C 18.269701,4.8075863 14.792623,3.4375 11,3.4375 z"
       id="path3978" />
    <path
       style="opacity:0.15;color:#000000;fill:#000000;fill-opacity:1;fill-rule:nonzero;stroke:none;stroke-width:2;marker:none;visibility:visible;display:inline;overflow:visible;enable-background:accumulate"
       d="m 11,7.46875 c -2.8266072,0 -5.4317048,1.0002366 -7.4375,2.6875 l 1.625,1.9375 C 6.7548694,10.777824 8.7935374,10 11,10 c 2.190542,0 4.218581,0.763684 5.78125,2.0625 l 1.625,-1.9375 C 16.405206,8.4547571 13.81071,7.46875 11,7.46875 z"
       id="path4036" />
    <path
       style="opacity:0.2;color:#000000;fill:#000000;fill-opacity:1;fill-rule:nonzero;stroke:none;stroke-width:2;marker:none;visibility:visible;display:inline;overflow:visible;enable-background:accumulate"
       d="m 11,11.53125 c -1.8294893,0 -3.5140551,0.658373 -4.8125,1.75 l 1.625,1.90625 C 8.6807777,14.456861 9.7763159,14 11,14 c 1.223684,0 2.319222,0.456861 3.1875,1.1875 l 1.59375,-1.90625 c -1.295886,-1.082506 -2.960289,-1.75 -4.78125,-1.75 z"
       id="path4092" />
    <path
       style="opacity:0.2;color:#000000;fill:#000000;fill-opacity:1;fill-rule:nonzero;stroke:none;stroke-width:2;marker:none;visibility:visible;display:inline;overflow:visible;enable-background:accumulate"
       d="m 11,15.5 c -0.865364,0 -1.6401241,0.322371 -2.25,0.84375 L 11,19 13.21875,16.34375 C 12.611418,15.831408 11.856896,15.5 11,15.5 z"
       id="path4034" />
    <path
       sodipodi:type="arc"
       style="opacity:0.64344261;color:#000000;fill:#ff00ff;fill-opacity:1;fill-rule:nonzero;stroke:none;stroke-width:2;marker:none;visibility:visible;display:inline;overflow:visible;enable-background:accumulate"
       id="path3874"
       sodipodi:cx="11"
       sodipodi:cy="19"
       sodipodi:rx="16.208479"
       sodipodi:ry="16.208479"
       d="M 27.208479,19 A 16.208479,16.208479 0 0 1 11,35.208479 L 11,19 z"
       sodipodi:start="0"
       sodipodi:end="1.5707963"
       inkscape:transform-center-y="-8.1042398"
       transform="matrix(-0.70710678,-0.70710678,0.70710678,-0.70710678,5.343146,20.213203)" />
    <path
       inkscape:connector-curvature="0"
       id="path3876"
       d="m 11,-16.5625 c -4.2978437,0 -8.1838359,1.746336 -11,4.5625 l 1.8125,1.8125 C 4.1650374,-12.540037 7.4101497,-14 11,-14 c 3.589851,0 6.834963,1.459963 9.1875,3.8125 L 22,-12 c -2.816164,-2.816164 -6.702156,-4.5625 -11,-4.5625 z m 0,4.03125 c -3.1846229,0 -6.0695932,1.288343 -8.15625,3.375 L 4.625,-7.375 C 6.2536797,-9.00368 8.5147189,-10 11,-10 c 2.485281,0 4.74632,0.99632 6.375,2.625 l 1.78125,-1.78125 c -2.086657,-2.086657 -4.971627,-3.375 -8.15625,-3.375 z m 0,4.0625 c -2.062753,0 -3.9297508,0.836001 -5.28125,2.1875 l 1.75,1.75 C 8.373572,-5.436072 9.6192882,-6 11,-6 c 1.380712,0 2.626428,0.563928 3.53125,1.46875 l 1.75,-1.75 C 14.929751,-7.632749 13.062753,-8.46875 11,-8.46875 z M 11,-4.5 c -0.966498,0 -1.8353746,0.397875 -2.46875,1.03125 L 11,-1 13.46875,-3.46875 C 12.835375,-4.102125 11.966499,-4.5 11,-4.5 z"
       style="color:#000000;fill:url(#radialGradient3878);fill-opacity:1;fill-rule:nonzero;stroke:none;stroke-width:2;marker:none;visibility:visible;display:inline;overflow:visible;enable-background:accumulate" />
    <path
       inkscape:connector-curvature="0"
       style="opacity:0.3;color:#000000;fill:#000000;fill-opacity:1;stroke:none;stroke-width:1;marker:none;visibility:visible;display:inline;overflow:visible;enable-background:accumulate"
       d="M 17.5,24 C 17.223,24 17,24.223 17,24.5 l 0,2.5 -0.5,0 C 16.223,27 16,27.223 16,27.5 l 0,4 c 0,0.277 0.223,0.5 0.5,0.5 l 5,0 c 0.277,0 0.5,-0.223 0.5,-0.5 l 0,-4 C 22,27.223 21.777,27 21.5,27 L 21,27 21,24.5 C 21,24.223 20.777,24 20.5,24 l -3,0 z m 0.5,1 2,0 0,2 -2,0 0,-2 z"
       id="rect2954" />
    <path
       inkscape:connector-curvature="0"
       style="opacity:0.05;fill:#ffffff;fill-opacity:1;fill-rule:nonzero;stroke:none;display:inline"
       d="M 15.15625,12.625 A 1.0013293,1.0013293 0 0 0 14.5625,12.90625 L 12.84375,14.625 A 1.0013293,1.0013293 0 0 0 12.875,16.0625 L 13.8125,17 12.84375,17.96875 a 1.0013293,1.0013293 0 0 0 0,1.4375 L 14.5625,21.125 a 1.0013293,1.0013293 0 0 0 1.40625,0 l 1.03125,-1 0.9375,0.96875 A 1.0013293,1.0013293 0 0 0 19.375,21.125 l 1.78125,-1.78125 A 1.0013293,1.0013293 0 0 0 21.125,17.90625 L 20.1875,17 21.125,16.125 a 1.0013293,1.0013293 0 0 0 0.03125,-1.4375 L 19.375,12.90625 A 1.0013293,1.0013293 0 0 0 17.9375,12.9375 L 17,13.90625 l -1.03125,-1 A 1.0013293,1.0013293 0 0 0 15.15625,12.625 z"
       id="path3024" />
    <path
       inkscape:connector-curvature="0"
       style="opacity:0.05;fill:#ffffff;fill-opacity:1;fill-rule:nonzero;stroke:none;display:inline"
       d="M 15.28125,13.625 17,15.3125 18.65625,13.625 20.4375,15.40625 18.75,17 20.4375,18.625 18.65625,20.40625 17,18.71875 15.28125,20.40625 13.5625,18.6875 15.25,17 13.5625,15.34375 15.28125,13.625 z"
       id="path4389" />
    <path
       inkscape:connector-curvature="0"
       style="fill:url(#linearGradient7193);fill-opacity:1;fill-rule:evenodd;stroke:none;display:inline"
       d="m 13.577777,15.350759 1.717718,-1.717717 1.691292,1.664864 1.664864,-1.664864 1.770572,1.77057 -1.664866,1.612012 1.664866,1.612012 -1.770572,1.770571 -1.664864,-1.664865 -1.691292,1.664865 -1.717718,-1.717718 1.664866,-1.664865 -1.664866,-1.664865 z"
       id="path7165" />
    <path
       inkscape:connector-curvature="0"
       style="opacity:0;fill:#000000;fill-opacity:1;fill-rule:evenodd;stroke:none;display:inline"
       d="m 15,13 -2.0625,2.0625 0.5,0.5 L 15,14 l 2,2 1.9375,-2 1.59375,1.59375 L 21.0625,15.125 18.9375,13 17,15 15,13 z m -0.07839,4 -1.984106,2 0.5,0.5 1.5,-1.5 -0.01589,-1 z m 4.172422,0 -0.03153,1 1.46875,1.4375 0.53125,-0.5 L 19.094028,17 z"
       id="path7188"
       sodipodi:nodetypes="ccccccccccccccccccccc" />
    <path
       inkscape:connector-curvature="0"
       style="opacity:0.25;fill:#000000;fill-opacity:1;fill-rule:evenodd;stroke:none;display:inline"
       d="m 15.28125,13.625 -1.71875,1.71875 0.5,0.5 L 15.28125,14.625 17,16.3125 l 1.65625,-1.6875 1.28125,1.28125 0.5,-0.5 L 18.65625,13.625 17,15.3125 15.28125,13.625 z M 14.75,17.5 l -1.1875,1.1875 0.5,0.5 L 15.25,18 14.75,17.5 z m 4.53125,0 -0.53125,0.5 1.1875,1.125 0.5,-0.5 -1.15625,-1.125 z"
       id="path3771" />
    <path
       inkscape:connector-curvature="0"
       style="opacity:0.2;fill:#ffffff;fill-opacity:1;fill-rule:evenodd;stroke:none;display:inline"
       d="m 14.0625,15.84375 -0.5,0.5 L 14.75,17.5 15.25,17 14.0625,15.84375 z m 5.875,0.0625 L 18.75,17 l 0.53125,0.5 1.15625,-1.09375 -0.5,-0.5 z M 17,18.71875 l -1.71875,1.6875 -1.21875,-1.21875 -0.5,0.5 1.71875,1.71875 1.71875,-1.6875 1.65625,1.6875 1.78125,-1.78125 -0.5,-0.5 -1.28125,1.28125 L 17,18.71875 z"
       id="path3780" />
    <path
       inkscape:connector-curvature="0"
       style="opacity:0.25;fill:#000000;fill-opacity:1;fill-rule:evenodd;stroke:none;display:inline"
       d="M 15.28125,13.625 13.5625,15.34375 15.25,17 13.5625,18.6875 15.28125,20.40625 17,18.71875 18.65625,20.40625 20.4375,18.625 18.75,17 20.4375,15.40625 18.65625,13.625 17,15.3125 15.28125,13.625 z m 0,0.625 1.40625,1.375 a 0.44174028,0.44174028 0 0 0 0.625,0 l 1.34375,-1.375 1.15625,1.15625 -1.375,1.28125 a 0.44174028,0.44174028 0 0 0 0,0.625 l 1.375,1.3125 -1.15625,1.15625 -1.34375,-1.375 a 0.44174028,0.44174028 0 0 0 -0.625,0 l -1.40625,1.375 -1.09375,-1.09375 1.375,-1.375 a 0.44174028,0.44174028 0 0 0 0,-0.625 L 14.1875,15.34375 15.28125,14.25 z"
       id="path7150" />
  </g>
</svg>
