<?xml version="1.0" encoding="UTF-8" standalone="no"?>
<!-- Created with Inkscape (http://www.inkscape.org/) -->

<svg
   xmlns:dc="http://purl.org/dc/elements/1.1/"
   xmlns:cc="http://creativecommons.org/ns#"
   xmlns:rdf="http://www.w3.org/1999/02/22-rdf-syntax-ns#"
   xmlns:svg="http://www.w3.org/2000/svg"
   xmlns="http://www.w3.org/2000/svg"
   xmlns:xlink="http://www.w3.org/1999/xlink"
   xmlns:sodipodi="http://sodipodi.sourceforge.net/DTD/sodipodi-0.dtd"
   xmlns:inkscape="http://www.inkscape.org/namespaces/inkscape"
   width="22"
   height="22"
   id="svg2"
   sodipodi:version="0.32"
   inkscape:version="0.48.1 r9760"
   version="1.0"
   sodipodi:docname="system-devices-panel.svg"
   inkscape:output_extension="org.inkscape.output.svg.inkscape"
   style="display:inline"
   inkscape:export-filename="/home/matthieu/Eye-Candy/Faience/0.1/sources/status/small/audio-volume-high.png"
   inkscape:export-xdpi="90"
   inkscape:export-ydpi="90">
  <defs
     id="defs4">
    <linearGradient
       id="StandardGradient"
       gradientTransform="scale(0.9219544,1.0846523)"
       x1="11.998966"
       y1="0.92195445"
       x2="11.998966"
       y2="19.387045"
       gradientUnits="userSpaceOnUse">
      <stop
         style="stop-color:#000000;stop-opacity:0.23529412;"
         offset="0"
         id="stop3283-1" />
      <stop
         id="stop3850"
         offset="0.69999999"
         style="stop-color:#000000;stop-opacity:0.39215686;" />
      <stop
         style="stop-color:#000000;stop-opacity:0.55;"
         offset="1"
         id="stop2651" />
    </linearGradient>
    <radialGradient
       inkscape:collect="always"
       xlink:href="#StandardGradient"
       id="radialGradient3834"
       cx="13"
       cy="12"
       fx="13"
       fy="12"
       r="8"
       gradientUnits="userSpaceOnUse"
       gradientTransform="matrix(1.875,0,0,1,-11.375,0)" />
    <radialGradient
       inkscape:collect="always"
       xlink:href="#StandardGradient"
       id="radialGradient3840"
       gradientUnits="userSpaceOnUse"
       gradientTransform="matrix(1.875,0,0,1,-11.375,0)"
       cx="13"
       cy="12"
       fx="13"
       fy="12"
       r="8" />
    <radialGradient
       inkscape:collect="always"
       xlink:href="#StandardGradient"
       id="radialGradient3844"
       gradientUnits="userSpaceOnUse"
       gradientTransform="matrix(1.875,0,0,1,-11.375,0)"
       cx="13"
       cy="12"
       fx="13"
       fy="12"
       r="8" />
    <radialGradient
       inkscape:collect="always"
       xlink:href="#StandardGradient"
       id="radialGradient3846"
       gradientUnits="userSpaceOnUse"
       gradientTransform="matrix(1.875,0,0,1,-11.375,0)"
       cx="13"
       cy="12"
       fx="13"
       fy="12"
       r="8" />
  </defs>
  <sodipodi:namedview
     id="base"
     pagecolor="#818181"
     bordercolor="#ffcfcf"
     borderopacity="1"
     inkscape:pageopacity="1"
     inkscape:pageshadow="2"
     inkscape:zoom="22.640002"
     inkscape:cx="13.589225"
     inkscape:cy="10.901278"
     inkscape:document-units="px"
     inkscape:current-layer="layer1"
     showgrid="true"
     inkscape:showpageshadow="false"
     showguides="true"
     inkscape:guide-bbox="true"
     inkscape:window-width="1920"
     inkscape:window-height="1030"
     inkscape:window-x="0"
     inkscape:window-y="25"
     inkscape:window-maximized="1"
     borderlayer="true"
     inkscape:snap-global="true">
    <sodipodi:guide
       orientation="0,1"
       position="26.278146,128"
       id="guide2385" />
    <sodipodi:guide
       orientation="1,0"
       position="128,54.082119"
       id="guide2387" />
    <sodipodi:guide
       orientation="0,1"
       position="60.863576,64.084768"
       id="guide2391" />
    <inkscape:grid
       type="xygrid"
       id="grid3672"
       visible="true"
       enabled="true"
       empspacing="8"
       snapvisiblegridlinesonly="true" />
    <sodipodi:guide
       orientation="1,0"
       position="13,6"
       id="guide3013" />
    <sodipodi:guide
       orientation="0,1"
       position="18,10"
       id="guide3015" />
  </sodipodi:namedview>
  <metadata
     id="metadata7">
    <rdf:RDF>
      <cc:Work
         rdf:about="">
        <dc:format>image/svg+xml</dc:format>
        <dc:type
           rdf:resource="http://purl.org/dc/dcmitype/StillImage" />
        <dc:title />
      </cc:Work>
    </rdf:RDF>
  </metadata>
  <g
     inkscape:label="Icon"
     inkscape:groupmode="layer"
     id="layer1"
     style="display:inline">
    <path
       inkscape:connector-curvature="0"
       style="opacity:0.05;fill:#ffffff;fill-opacity:1;fill-rule:nonzero;stroke:none;stroke-width:1;marker:none;visibility:visible;display:block;overflow:visible;enable-background:accumulate"
       d="M 9.90625,2 C 9.0086551,2 8.3125,2.689294 8.3125,3.59375 l 0,0.46875 C 8.1983291,4.1062075 8.0805285,4.1383272 7.96875,4.1875 L 7.65625,3.875 a 1.0062511,1.0062511 0 0 0 0,-0.03125 c -0.6110683,-0.6110732 -1.6442609,-0.6057554 -2.25,0 l -1.5625,1.5625 c -0.6057567,0.6057659 -0.6109946,1.6389306 0,2.25 a 1.0062511,1.0062511 0 0 0 0.03125,0 l 0.3125,0.3125 C 4.1383271,8.0805286 4.1062076,8.1983289 4.0625,8.3125 l -0.46875,0 C 2.6892791,8.3124915 2,9.0086468 2,9.90625 l 0,2.1875 c 0,0.897605 0.6892866,1.59375 1.59375,1.59375 l 0.46875,0 c 0.043708,0.114171 0.075827,0.231972 0.125,0.34375 l -0.3125,0.3125 a 1.0062511,1.0062511 0 0 0 -0.03125,0 c -0.6110407,0.611043 -0.6058189,1.644257 0,2.25 l 1.5625,1.5625 c 0.605761,0.605745 1.6389353,0.610984 2.25,0 a 1.0062511,1.0062511 0 0 0 0,-0.03125 l 0.3125,-0.3125 c 0.1117787,0.04917 0.229579,0.08129 0.34375,0.125 l 0,0.46875 C 8.3125,19.310709 9.0086557,20 9.90625,20 l 2.1875,0 c 0.897596,0 1.59375,-0.689295 1.59375,-1.59375 l 0,-0.46875 c 0.114171,-0.04371 0.231971,-0.07583 0.34375,-0.125 l 0.3125,0.3125 a 1.0062511,1.0062511 0 0 0 0,0.03125 c 0.33259,0.332587 0.79282,0.434689 1.125,0.4375 0.364259,0.0032 0.795999,-0.108535 1.125,-0.4375 l 1.5625,-1.5625 c 0.605738,-0.605741 0.611053,-1.638928 0,-2.25 a 1.0062511,1.0062511 0 0 0 -0.03125,0 l -0.3125,-0.3125 c 0.04917,-0.111779 0.08129,-0.229579 0.125,-0.34375 l 0.46875,0 C 19.310706,13.6875 20,12.991339 20,12.09375 l 0,-2.1875 C 20,9.0086544 19.310708,8.3125 18.40625,8.3125 l -0.46875,0 C 17.89379,8.1983298 17.86167,8.0805283 17.8125,7.96875 l 0.3125,-0.3125 a 1.0062511,1.0062511 0 0 0 0.03125,0 c 0.611052,-0.6110541 0.605784,-1.6442619 0,-2.25 l -1.5625,-1.5625 c -0.605742,-0.6057452 -1.638928,-0.611053 -2.25,0 a 1.0062511,1.0062511 0 0 0 0,0.03125 l -0.3125,0.3125 C 13.919472,4.1383273 13.801671,4.1062075 13.6875,4.0625 l 0,-0.46875 C 13.6875,2.6892961 12.991344,2 12.09375,2 l -2.1875,0 z m 0,1 2.1875,0 c 0.31484,0 0.59375,0.2735291 0.59375,0.59375 l 0,1.125 c 0.562952,0.1499932 1.101586,0.3700131 1.59375,0.65625 L 15.0625,4.5625 c 0.22643,-0.2264231 0.589877,-0.2226243 0.8125,0 l 1.5625,1.5625 c 0.222641,0.2226242 0.226429,0.5860701 0,0.8125 L 16.625,7.71875 c 0.286237,0.4921616 0.506251,1.0307959 0.65625,1.59375 l 1.125,0 C 18.726471,9.3125 19,9.591412 19,9.90625 l 0,2.1875 c 0,0.314838 -0.273526,0.59375 -0.59375,0.59375 l -1.125,0 c -0.149996,0.562952 -0.37001,1.101588 -0.65625,1.59375 l 0.8125,0.78125 c 0.226423,0.22643 0.222623,0.589876 0,0.8125 l -1.5625,1.5625 c -0.111312,0.1113 -0.259738,0.15755 -0.40625,0.15625 -0.146512,-0.0012 -0.293038,-0.04304 -0.40625,-0.15625 L 14.28125,16.625 c -0.492164,0.286238 -1.030798,0.506258 -1.59375,0.65625 l 0,1.125 C 12.6875,18.72647 12.40859,19 12.09375,19 l -2.1875,0 C 9.591413,19 9.3125,18.726472 9.3125,18.40625 l 0,-1.125 C 8.749548,17.131257 8.210913,16.911239 7.71875,16.625 L 6.9375,17.4375 c -0.22643,0.2264 -0.589872,0.222622 -0.8125,0 L 4.5625,15.875 c -0.222652,-0.222624 -0.226428,-0.586071 0,-0.8125 L 5.375,14.28125 C 5.088763,13.789086 4.868742,13.250451 4.71875,12.6875 l -1.125,0 C 3.273533,12.6875 3,12.408587 3,12.09375 L 3,9.90625 C 3,9.591411 3.273533,9.312497 3.59375,9.3125 l 1.125,0 C 4.868742,8.7495468 5.088763,8.2109116 5.375,7.71875 L 4.5625,6.9375 C 4.3361,6.7110723 4.339878,6.3476254 4.5625,6.125 L 6.125,4.5625 c 0.222624,-0.22263 0.586073,-0.2264288 0.8125,0 L 7.71875,5.375 C 8.210912,5.0887631 8.749548,4.8687432 9.3125,4.71875 l 0,-1.125 C 9.3125,3.2735291 9.591411,3 9.90625,3 z M 11,8 c -1.6568542,0 -3,1.3431458 -3,3 0,1.656854 1.3431458,3 3,3 1.656854,0 3,-1.343146 3,-3 0,-1.6568542 -1.343146,-3 -3,-3 z m 0,1 c 1.11309,0 2,0.88691 2,2 0,1.11309 -0.88691,2 -2,2 C 9.88691,13 9,12.11309 9,11 9,9.8869099 9.8869099,9 11,9 z"
       id="path3828" />
    <path
       inkscape:connector-curvature="0"
       style="fill:url(#radialGradient3834);fill-opacity:1;fill-rule:nonzero;stroke:none;stroke-width:1;marker:none;visibility:visible;display:block;overflow:visible;enable-background:accumulate"
       d="M 9.90625,3 C 9.591411,3 9.3125,3.2735291 9.3125,3.59375 l 0,1.125 C 8.749548,4.8687432 8.210912,5.0887631 7.71875,5.375 L 6.9375,4.5625 C 6.711073,4.3360712 6.347624,4.33987 6.125,4.5625 L 4.5625,6.125 c -0.222622,0.2226254 -0.2264,0.5860723 0,0.8125 L 5.375,7.71875 C 5.088763,8.2109116 4.868742,8.7495468 4.71875,9.3125 l -1.125,0 C 3.273533,9.312497 3,9.591411 3,9.90625 l 0,2.1875 c 0,0.314837 0.273533,0.59375 0.59375,0.59375 l 1.125,0 c 0.149992,0.562951 0.370013,1.101586 0.65625,1.59375 L 4.5625,15.0625 c -0.226428,0.226429 -0.222652,0.589876 0,0.8125 l 1.5625,1.5625 c 0.222628,0.222622 0.58607,0.2264 0.8125,0 L 7.71875,16.625 c 0.492163,0.286239 1.030798,0.506257 1.59375,0.65625 l 0,1.125 C 9.3125,18.726472 9.591413,19 9.90625,19 l 2.1875,0 c 0.31484,0 0.59375,-0.27353 0.59375,-0.59375 l 0,-1.125 c 0.562952,-0.149992 1.101586,-0.370012 1.59375,-0.65625 l 0.78125,0.8125 c 0.113212,0.113211 0.259738,0.15501 0.40625,0.15625 0.146512,0.0013 0.294938,-0.04495 0.40625,-0.15625 l 1.5625,-1.5625 c 0.222623,-0.222624 0.226423,-0.58607 0,-0.8125 L 16.625,14.28125 c 0.28624,-0.492162 0.506254,-1.030798 0.65625,-1.59375 l 1.125,0 C 18.726474,12.6875 19,12.408588 19,12.09375 l 0,-2.1875 C 19,9.591412 18.726471,9.3125 18.40625,9.3125 l -1.125,0 C 17.131251,8.7495459 16.911237,8.2109116 16.625,7.71875 L 17.4375,6.9375 c 0.226429,-0.2264299 0.222641,-0.5898758 0,-0.8125 L 15.875,4.5625 c -0.222623,-0.2226243 -0.58607,-0.2264231 -0.8125,0 L 14.28125,5.375 C 13.789086,5.0887631 13.250452,4.8687432 12.6875,4.71875 l 0,-1.125 C 12.6875,3.2735291 12.40859,3 12.09375,3 L 9.90625,3 z M 11,8 c 1.656854,0 3,1.3431458 3,3 0,1.656854 -1.343146,3 -3,3 C 9.3431458,14 8,12.656854 8,11 8,9.3431458 9.3431458,8 11,8 z"
       id="path2862" />
    <path
       inkscape:connector-curvature="0"
       style="opacity:0.3;fill:#000000;fill-opacity:1;fill-rule:nonzero;stroke:none;stroke-width:1;marker:none;visibility:visible;display:block;overflow:visible;enable-background:accumulate"
       d="M 9.90625,3 C 9.591411,3 9.3125,3.2735291 9.3125,3.59375 l 0,1 C 9.3125,4.2735291 9.591411,4 9.90625,4 l 2.1875,0 c 0.31484,0 0.59375,0.2735291 0.59375,0.59375 l 0,-1 C 12.6875,3.2735291 12.40859,3 12.09375,3 l -2.1875,0 z m -3.375,1.40625 C 6.3842564,4.4067248 6.236312,4.451185 6.125,4.5625 L 4.5625,6.125 c -0.222622,0.2226254 -0.2264,0.5860723 0,0.8125 L 4.65625,7.03125 6.125,5.5625 c 0.222624,-0.22263 0.586073,-0.2264288 0.8125,0 L 7.71875,6.375 C 8.210912,6.0887631 8.749548,5.8687432 9.3125,5.71875 l 0,-1 C 8.749548,4.8687432 8.210912,5.0887631 7.71875,5.375 L 6.9375,4.5625 C 6.8242865,4.4492856 6.6782436,4.4057752 6.53125,4.40625 z m 8.9375,0 C 15.321757,4.4057752 15.175715,4.4492885 15.0625,4.5625 L 14.28125,5.375 C 13.789086,5.0887631 13.250452,4.8687432 12.6875,4.71875 l 0,1 c 0.562952,0.1499932 1.101586,0.3700131 1.59375,0.65625 L 15.0625,5.5625 c 0.22643,-0.2264231 0.589877,-0.2226243 0.8125,0 L 17.34375,7.03125 17.4375,6.9375 c 0.226429,-0.2264299 0.222641,-0.5898758 0,-0.8125 L 15.875,4.5625 C 15.763689,4.4511879 15.615743,4.4067248 15.46875,4.40625 z m -10.4375,4 C 4.9050415,8.7006856 4.8022306,8.9991788 4.71875,9.3125 l -1.125,0 C 3.273533,9.312497 3,9.591411 3,9.90625 l 0,1 C 3,10.591411 3.273533,10.312497 3.59375,10.3125 l 1.125,0 C 4.868742,9.7495468 5.088763,9.2109116 5.375,8.71875 L 5.03125,8.40625 z m 11.9375,0 -0.34375,0.3125 c 0.286237,0.4921616 0.506251,1.0307959 0.65625,1.59375 l 1.125,0 C 18.726471,10.3125 19,10.591412 19,10.90625 l 0,-1 C 19,9.591412 18.726471,9.3125 18.40625,9.3125 l -1.125,0 C 17.197766,8.9991783 17.094957,8.7006854 16.96875,8.40625 z M 8.0625,11.5 C 8.0338207,11.666575 8,11.825236 8,12 c 0,1.656854 1.3431458,3 3,3 1.656854,0 3,-1.343146 3,-3 0,-0.174764 -0.03382,-0.333425 -0.0625,-0.5 C 13.694284,12.912646 12.48209,14 11,14 9.5179099,14 8.3057158,12.912646 8.0625,11.5 z M 5.03125,14.59375 4.5625,15.0625 c -0.226428,0.226429 -0.222652,0.589876 0,0.8125 L 4.65625,15.96875 5.375,15.28125 C 5.2480731,15.063008 5.131804,14.828335 5.03125,14.59375 z m 11.9375,0 c -0.100553,0.234585 -0.216822,0.469259 -0.34375,0.6875 l 0.71875,0.6875 0.09375,-0.09375 c 0.222623,-0.222624 0.226423,-0.58607 0,-0.8125 l -0.46875,-0.46875 z"
       id="path3804" />
    <path
       inkscape:connector-curvature="0"
       style="opacity:0.2;fill:#ffffff;fill-opacity:1;fill-rule:nonzero;stroke:none;stroke-width:1;marker:none;visibility:visible;display:block;overflow:visible;enable-background:accumulate"
       d="M 4.65625,7.03125 4.5625,7.125 c -0.222622,0.2226254 -0.2264,0.5860723 0,0.8125 L 5.03125,8.40625 C 5.131804,8.1716646 5.2480731,7.9369907 5.375,7.71875 L 4.65625,7.03125 z m 12.6875,0 -0.71875,0.6875 c 0.126927,0.2182407 0.243197,0.4529148 0.34375,0.6875 L 17.4375,7.9375 c 0.226429,-0.2264299 0.222641,-0.5898758 0,-0.8125 L 17.34375,7.03125 z M 11,8 C 9.3431458,8 8,9.343146 8,11 8,11.174764 8.0338207,11.333425 8.0625,11.5 8.3057158,10.087354 9.5179099,9 11,9 c 1.48209,0 2.694284,1.087354 2.9375,2.5 C 13.966179,11.333425 14,11.174764 14,11 14,9.343146 12.656854,8 11,8 z m -8,4.09375 0,1 c 0,0.314837 0.273533,0.59375 0.59375,0.59375 l 1.125,0 c 0.083481,0.31332 0.1862915,0.611814 0.3125,0.90625 L 5.375,14.28125 C 5.088763,13.789086 4.868742,13.250451 4.71875,12.6875 l -1.125,0 C 3.273533,12.6875 3,12.408587 3,12.09375 z m 16,0 c 0,0.314838 -0.273526,0.59375 -0.59375,0.59375 l -1.125,0 c -0.149996,0.562952 -0.37001,1.101588 -0.65625,1.59375 l 0.34375,0.3125 c 0.126208,-0.294436 0.229017,-0.59293 0.3125,-0.90625 l 1.125,0 C 18.726474,13.6875 19,13.408588 19,13.09375 l 0,-1 z M 4.65625,15.96875 4.5625,16.0625 c -0.226428,0.226429 -0.222652,0.589876 0,0.8125 l 1.5625,1.5625 c 0.222628,0.222622 0.58607,0.2264 0.8125,0 L 7.71875,17.625 c 0.492163,0.286239 1.030798,0.506257 1.59375,0.65625 l 0,-1 C 8.749548,17.131257 8.210913,16.911239 7.71875,16.625 L 6.9375,17.4375 c -0.22643,0.2264 -0.589872,0.222622 -0.8125,0 L 4.65625,15.96875 z m 12.6875,0 -1.46875,1.46875 c -0.111312,0.1113 -0.259738,0.15755 -0.40625,0.15625 -0.146512,-0.0012 -0.293038,-0.04304 -0.40625,-0.15625 L 14.28125,16.625 c -0.492164,0.286238 -1.030798,0.506258 -1.59375,0.65625 l 0,1 c 0.562952,-0.149992 1.101586,-0.370012 1.59375,-0.65625 l 0.78125,0.8125 c 0.113212,0.113211 0.259738,0.15501 0.40625,0.15625 0.146512,0.0013 0.294938,-0.04495 0.40625,-0.15625 l 1.5625,-1.5625 c 0.222623,-0.222624 0.226423,-0.58607 0,-0.8125 l -0.09375,-0.09375 z m -8.03125,2.4375 0,1 C 9.3125,19.726472 9.591413,20 9.90625,20 l 2.1875,0 c 0.31484,0 0.59375,-0.27353 0.59375,-0.59375 l 0,-1 C 12.6875,18.72647 12.40859,19 12.09375,19 l -2.1875,0 C 9.591413,19 9.3125,18.726472 9.3125,18.40625 z"
       id="path3813" />
    <path
       style="fill:#000000;fill-opacity:1;fill-rule:nonzero;stroke:none;stroke-width:1;marker:none;visibility:visible;display:block;overflow:visible;enable-background:accumulate;opacity:0.3"
       d="M 9.90625 3 C 9.591411 3 9.3125 3.2735291 9.3125 3.59375 L 9.3125 4.71875 C 8.749548 4.8687432 8.210912 5.0887631 7.71875 5.375 L 6.9375 4.5625 C 6.711073 4.3360712 6.347624 4.33987 6.125 4.5625 L 4.5625 6.125 C 4.339878 6.3476254 4.3361 6.7110723 4.5625 6.9375 L 5.375 7.71875 C 5.088763 8.2109116 4.868742 8.7495468 4.71875 9.3125 L 3.59375 9.3125 C 3.273533 9.312497 3 9.591411 3 9.90625 L 3 12.09375 C 3 12.408587 3.273533 12.6875 3.59375 12.6875 L 4.71875 12.6875 C 4.868742 13.250451 5.088763 13.789086 5.375 14.28125 L 4.5625 15.0625 C 4.336072 15.288929 4.339848 15.652376 4.5625 15.875 L 6.125 17.4375 C 6.347628 17.660122 6.71107 17.6639 6.9375 17.4375 L 7.71875 16.625 C 8.210913 16.911239 8.749548 17.131257 9.3125 17.28125 L 9.3125 18.40625 C 9.3125 18.726472 9.591413 19 9.90625 19 L 12.09375 19 C 12.40859 19 12.6875 18.72647 12.6875 18.40625 L 12.6875 17.28125 C 13.250452 17.131258 13.789086 16.911238 14.28125 16.625 L 15.0625 17.4375 C 15.175712 17.550711 15.322238 17.59251 15.46875 17.59375 C 15.615262 17.59505 15.763688 17.5488 15.875 17.4375 L 17.4375 15.875 C 17.660123 15.652376 17.663923 15.28893 17.4375 15.0625 L 16.625 14.28125 C 16.91124 13.789088 17.131254 13.250452 17.28125 12.6875 L 18.40625 12.6875 C 18.726474 12.6875 19 12.408588 19 12.09375 L 19 9.90625 C 19 9.591412 18.726471 9.3125 18.40625 9.3125 L 17.28125 9.3125 C 17.131251 8.7495459 16.911237 8.2109116 16.625 7.71875 L 17.4375 6.9375 C 17.663929 6.7110701 17.660141 6.3476242 17.4375 6.125 L 15.875 4.5625 C 15.652377 4.3398757 15.28893 4.3360769 15.0625 4.5625 L 14.28125 5.375 C 13.789086 5.0887631 13.250452 4.8687432 12.6875 4.71875 L 12.6875 3.59375 C 12.6875 3.2735291 12.40859 3 12.09375 3 L 9.90625 3 z M 9.90625 3.5 L 12.09375 3.5 C 12.127181 3.5 12.1875 3.5556527 12.1875 3.59375 L 12.1875 4.71875 A 0.48591427 0.48591427 0 0 0 12.5625 5.1875 C 13.085736 5.3269111 13.578726 5.5180671 14.03125 5.78125 A 0.48591427 0.48591427 0 0 0 14.625 5.71875 L 15.40625 4.90625 C 15.446938 4.865563 15.493633 4.8686331 15.53125 4.90625 L 17.09375 6.46875 C 17.131373 6.5063702 17.134446 6.5530534 17.09375 6.59375 L 16.28125 7.375 A 0.48591427 0.48591427 0 0 0 16.21875 7.96875 C 16.481931 8.4212686 16.673082 8.9142562 16.8125 9.4375 A 0.48591427 0.48591427 0 0 0 17.28125 9.8125 L 18.40625 9.8125 C 18.444345 9.8125 18.5 9.8728231 18.5 9.90625 L 18.5 12.09375 C 18.5 12.12718 18.444351 12.1875 18.40625 12.1875 L 17.28125 12.1875 A 0.48591427 0.48591427 0 0 0 16.8125 12.5625 C 16.673085 13.08574 16.481933 13.578732 16.21875 14.03125 A 0.48591427 0.48591427 0 0 0 16.28125 14.625 L 17.09375 15.40625 C 17.134437 15.446938 17.131369 15.493631 17.09375 15.53125 L 15.53125 17.09375 C 15.525059 17.09994 15.510113 17.094117 15.46875 17.09375 C 15.411896 17.093269 15.413525 17.101025 15.40625 17.09375 L 14.625 16.28125 A 0.48591427 0.48591427 0 0 0 14.03125 16.21875 C 13.578726 16.481934 13.085735 16.67309 12.5625 16.8125 A 0.48591427 0.48591427 0 0 0 12.1875 17.28125 L 12.1875 18.40625 C 12.1875 18.444346 12.12718 18.5 12.09375 18.5 L 9.90625 18.5 C 9.8728239 18.5 9.8125 18.444346 9.8125 18.40625 L 9.8125 17.28125 A 0.48591427 0.48591427 0 0 0 9.4375 16.8125 C 8.9142635 16.673089 8.4212713 16.481934 7.96875 16.21875 A 0.48591427 0.48591427 0 0 0 7.375 16.28125 L 6.59375 17.09375 C 6.5530584 17.134436 6.5063647 17.131364 6.46875 17.09375 L 4.90625 15.53125 C 4.8686276 15.493632 4.8655498 15.44695 4.90625 15.40625 L 5.71875 14.625 A 0.48591427 0.48591427 0 0 0 5.78125 14.03125 C 5.5180669 13.578725 5.3269097 13.085734 5.1875 12.5625 A 0.48591427 0.48591427 0 0 0 4.71875 12.1875 L 3.59375 12.1875 C 3.555663 12.1875 3.5 12.127171 3.5 12.09375 L 3.5 9.90625 C 3.5 9.8728253 3.5556666 9.8124996 3.59375 9.8125 L 4.71875 9.8125 A 0.48591427 0.48591427 0 0 0 5.1875 9.4375 C 5.3269097 8.9142644 5.5180674 8.4212714 5.78125 7.96875 A 0.48591427 0.48591427 0 0 0 5.71875 7.375 L 4.90625 6.59375 C 4.8655691 6.5530641 4.8686421 6.5063585 4.90625 6.46875 L 6.46875 4.90625 C 6.5063694 4.8686296 6.5530646 4.8655643 6.59375 4.90625 L 7.375 5.71875 A 0.48591427 0.48591427 0 0 0 7.96875 5.78125 C 8.4212713 5.5180678 8.9142642 5.3269112 9.4375 5.1875 A 0.48591427 0.48591427 0 0 0 9.8125 4.71875 L 9.8125 3.59375 C 9.8125 3.5556537 9.8728213 3.5 9.90625 3.5 z M 11 7.5 C 9.0805645 7.5 7.5 9.0805645 7.5 11 C 7.5 12.919435 9.0805644 14.5 11 14.5 C 12.919435 14.5 14.5 12.919435 14.5 11 C 14.5 9.0805644 12.919435 7.5 11 7.5 z M 11 8 C 12.656854 8 14 9.3431458 14 11 C 14 12.656854 12.656854 14 11 14 C 9.3431458 14 8 12.656854 8 11 C 8 9.3431458 9.3431458 8 11 8 z "
       id="path3836" />
  </g>
</svg>
