<?xml version="1.0" encoding="UTF-8" standalone="no"?>
<!-- Created with Inkscape (http://www.inkscape.org/) -->

<svg
   xmlns:dc="http://purl.org/dc/elements/1.1/"
   xmlns:cc="http://creativecommons.org/ns#"
   xmlns:rdf="http://www.w3.org/1999/02/22-rdf-syntax-ns#"
   xmlns:svg="http://www.w3.org/2000/svg"
   xmlns="http://www.w3.org/2000/svg"
   xmlns:xlink="http://www.w3.org/1999/xlink"
   xmlns:sodipodi="http://sodipodi.sourceforge.net/DTD/sodipodi-0.dtd"
   xmlns:inkscape="http://www.inkscape.org/namespaces/inkscape"
   width="24"
   height="24"
   id="svg2"
   sodipodi:version="0.32"
   inkscape:version="0.48.1 r9760"
   version="1.0"
   sodipodi:docname="weather-showers.svg"
   inkscape:output_extension="org.inkscape.output.svg.inkscape"
   style="display:inline">
  <defs
     id="defs4">
    <inkscape:path-effect
       effect="skeletal"
       id="path-effect5487"
       is_visible="true"
       pattern="M 0,5 10,10 10,0 z"
       copytype="single_stretched"
       prop_scale="1"
       scale_y_rel="false"
       spacing="0"
       normal_offset="0"
       tang_offset="0"
       prop_units="false"
       vertical_pattern="false"
       fuse_tolerance="0" />
    <linearGradient
       inkscape:collect="always"
       id="linearGradient3327">
      <stop
         style="stop-color:#000000;stop-opacity:1;"
         offset="0"
         id="stop3330" />
      <stop
         style="stop-color:#000000;stop-opacity:0;"
         offset="1"
         id="stop3333" />
    </linearGradient>
    <linearGradient
       inkscape:collect="always"
       xlink:href="#linearGradient3327"
       id="linearGradient3335"
       x1="11.375"
       y1="22"
       x2="11.375"
       y2="-9.817296"
       gradientUnits="userSpaceOnUse" />
    <linearGradient
       inkscape:collect="always"
       xlink:href="#linearGradient3700"
       id="linearGradient3181"
       x1="-3.0607977"
       y1="27.258198"
       x2="-3.0607977"
       y2="7.2536583"
       gradientUnits="userSpaceOnUse"
       gradientTransform="translate(12.119372,-7.2581977)" />
    <filter
       inkscape:collect="always"
       id="filter3194"
       x="-0.18000001"
       width="1.36"
       y="-0.18000001"
       height="1.36"
       color-interpolation-filters="sRGB">
      <feGaussianBlur
         inkscape:collect="always"
         stdDeviation="1.2"
         id="feGaussianBlur3196" />
    </filter>
    <clipPath
       clipPathUnits="userSpaceOnUse"
       id="clipPath2849">
      <rect
         ry="2"
         rx="2"
         y="1"
         x="1"
         height="20"
         width="20"
         id="rect2851"
         style="fill:#ffffff;fill-opacity:1;fill-rule:evenodd;stroke:none;display:inline" />
    </clipPath>
    <linearGradient
       id="linearGradient3762-0">
      <stop
         style="stop-color:#ffda56;stop-opacity:1;"
         offset="0"
         id="stop3764-5" />
      <stop
         id="stop3770-3"
         offset="0.640625"
         style="stop-color:#ffda56;stop-opacity:1;" />
      <stop
         style="stop-color:#ffda56;stop-opacity:0;"
         offset="1"
         id="stop3766-9" />
    </linearGradient>
    <radialGradient
       inkscape:collect="always"
       xlink:href="#linearGradient3752-3"
       id="radialGradient4520"
       gradientUnits="userSpaceOnUse"
       cx="64"
       cy="32"
       fx="64"
       fy="32"
       r="32" />
    <linearGradient
       id="linearGradient3752-3">
      <stop
         id="stop3754-6"
         offset="0"
         style="stop-color:#ffdc4d;stop-opacity:1;" />
      <stop
         style="stop-color:#ffe041;stop-opacity:1;"
         offset="0.77642262"
         id="stop3756-2" />
      <stop
         id="stop3758-7"
         offset="1"
         style="stop-color:#fffda4;stop-opacity:0;" />
    </linearGradient>
    <linearGradient
       id="linearGradient3699-8">
      <stop
         style="stop-color:#fff894;stop-opacity:1;"
         offset="0"
         id="stop3701-8" />
      <stop
         id="stop4084"
         offset="0.80000001"
         style="stop-color:#ffc822;stop-opacity:1;" />
      <stop
         style="stop-color:#ffb400;stop-opacity:1;"
         offset="1"
         id="stop3703-4" />
    </linearGradient>
    <linearGradient
       id="linearGradient3823-9">
      <stop
         id="stop3825-8"
         offset="0"
         style="stop-color:#ffffff;stop-opacity:1;" />
      <stop
         id="stop3829-3"
         offset="1"
         style="stop-color:#ffffff;stop-opacity:0;" />
    </linearGradient>
    <linearGradient
       inkscape:collect="always"
       xlink:href="#linearGradient3831-4"
       id="linearGradient3845-6"
       x1="11"
       y1="19.5"
       x2="21"
       y2="19.5"
       gradientUnits="userSpaceOnUse"
       spreadMethod="reflect"
       gradientTransform="translate(1,1)" />
    <linearGradient
       id="linearGradient3831-4">
      <stop
         style="stop-color:#ffffff;stop-opacity:1;"
         offset="0"
         id="stop3833-7" />
      <stop
         id="stop3821-1"
         offset="0.75"
         style="stop-color:#ffffff;stop-opacity:0.49803922;" />
      <stop
         style="stop-color:#ffffff;stop-opacity:0;"
         offset="1"
         id="stop3835-5" />
    </linearGradient>
    <linearGradient
       y2="16"
       x2="10"
       y1="1"
       x1="10"
       gradientTransform="translate(1,1)"
       gradientUnits="userSpaceOnUse"
       id="linearGradient4763"
       xlink:href="#linearGradient3823-9"
       inkscape:collect="always" />
    <linearGradient
       id="linearGradient3700-86">
      <stop
         style="stop-color:#66707c;stop-opacity:1;"
         offset="0"
         id="stop3702-7-7" />
      <stop
         style="stop-color:#a4a8ac;stop-opacity:1;"
         offset="1"
         id="stop3704-0" />
    </linearGradient>
    <linearGradient
       inkscape:collect="always"
       xlink:href="#linearGradient3700-86-3"
       id="linearGradient3181-8"
       x1="-3.0607977"
       y1="27.258198"
       x2="-3.0607977"
       y2="7.2536583"
       gradientUnits="userSpaceOnUse"
       gradientTransform="translate(12.119372,-7.2581977)" />
    <linearGradient
       id="linearGradient3700-86-3">
      <stop
         style="stop-color:#66707c;stop-opacity:1;"
         offset="0"
         id="stop3702-7-7-6" />
      <stop
         style="stop-color:#a4a8ac;stop-opacity:1;"
         offset="1"
         id="stop3704-0-0" />
    </linearGradient>
    <radialGradient
       r="21.228415"
       fy="70.318527"
       fx="49.422203"
       cy="70.318527"
       cx="49.422203"
       gradientTransform="matrix(1,0,0,0.61803403,0,26.859284)"
       gradientUnits="userSpaceOnUse"
       id="radialGradient5156"
       xlink:href="#linearGradient4864"
       inkscape:collect="always" />
    <linearGradient
       inkscape:collect="always"
       id="linearGradient4864">
      <stop
         style="stop-color:#000000;stop-opacity:1;"
         offset="0"
         id="stop4866" />
      <stop
         style="stop-color:#000000;stop-opacity:0;"
         offset="1"
         id="stop4868" />
    </linearGradient>
    <radialGradient
       inkscape:collect="always"
       xlink:href="#linearGradient4864"
       id="radialGradient4882"
       gradientUnits="userSpaceOnUse"
       gradientTransform="matrix(1,0,0,0.61803403,0,26.859284)"
       cx="49.422203"
       cy="70.318527"
       fx="49.422203"
       fy="70.318527"
       r="21.228415" />
    <radialGradient
       inkscape:collect="always"
       xlink:href="#linearGradient4864"
       id="radialGradient4874"
       gradientUnits="userSpaceOnUse"
       gradientTransform="matrix(1,0,0,0.61803403,0,26.859284)"
       cx="49.422203"
       cy="70.318527"
       fx="49.422203"
       fy="70.318527"
       r="21.228415" />
    <linearGradient
       inkscape:collect="always"
       id="linearGradient4810">
      <stop
         style="stop-color:#ffffff;stop-opacity:1;"
         offset="0"
         id="stop4812" />
      <stop
         style="stop-color:#ffffff;stop-opacity:0;"
         offset="1"
         id="stop4814" />
    </linearGradient>
    <linearGradient
       inkscape:collect="always"
       id="linearGradient3814-9-16">
      <stop
         style="stop-color:#ffffff;stop-opacity:1;"
         offset="0"
         id="stop3816-9-9" />
      <stop
         style="stop-color:#ffffff;stop-opacity:0;"
         offset="1"
         id="stop3818-8-0" />
    </linearGradient>
    <linearGradient
       inkscape:collect="always"
       id="linearGradient3854-2-4">
      <stop
         style="stop-color:#ffffff;stop-opacity:1;"
         offset="0"
         id="stop3856-1-6" />
      <stop
         style="stop-color:#ffffff;stop-opacity:0;"
         offset="1"
         id="stop3858-3-7" />
    </linearGradient>
    <linearGradient
       inkscape:collect="always"
       id="linearGradient3862-9-4">
      <stop
         style="stop-color:#ffffff;stop-opacity:1;"
         offset="0"
         id="stop3864-9-8" />
      <stop
         style="stop-color:#ffffff;stop-opacity:0;"
         offset="1"
         id="stop3866-2-4-7" />
    </linearGradient>
    <linearGradient
       y2="38.687656"
       x2="45.966625"
       y1="18.873959"
       x1="45.966625"
       gradientTransform="translate(46.277498,18.233172)"
       gradientUnits="userSpaceOnUse"
       id="linearGradient3546"
       xlink:href="#linearGradient3814-9-16"
       inkscape:collect="always" />
    <linearGradient
       inkscape:collect="always"
       xlink:href="#linearGradient3814-9-16"
       id="linearGradient5369"
       gradientUnits="userSpaceOnUse"
       gradientTransform="matrix(0.23809524,0,0,0.23809524,11.589881,4.865041)"
       x1="45.966625"
       y1="18.873959"
       x2="45.966625"
       y2="38.687656" />
    <linearGradient
       inkscape:collect="always"
       xlink:href="#linearGradient3862-9-4"
       id="linearGradient5372"
       gradientUnits="userSpaceOnUse"
       gradientTransform="matrix(-0.23809524,0,0,0.23809524,35.950893,-7.5714284)"
       x1="75.917961"
       y1="63.13913"
       x2="75.917961"
       y2="76.550301" />
    <linearGradient
       inkscape:collect="always"
       xlink:href="#linearGradient3854-2-4"
       id="linearGradient5375"
       gradientUnits="userSpaceOnUse"
       gradientTransform="matrix(0.23809524,0,0,0.23809524,11.52381,-17.333333)"
       x1="46.769516"
       y1="78.496399"
       x2="46.769516"
       y2="91.665634" />
    <linearGradient
       inkscape:collect="always"
       xlink:href="#linearGradient3862-9-4"
       id="linearGradient5378"
       gradientUnits="userSpaceOnUse"
       gradientTransform="matrix(0.23809524,0,0,0.23809524,-12.52381,-9.2380951)"
       x1="75.917961"
       y1="63.13913"
       x2="75.917961"
       y2="76.550301" />
    <linearGradient
       inkscape:collect="always"
       xlink:href="#linearGradient3814-9-16"
       id="linearGradient5381"
       gradientUnits="userSpaceOnUse"
       gradientTransform="matrix(-0.22864857,0.06640162,0.06640162,0.22864857,24.72361,4.1655588)"
       x1="39.819206"
       y1="13.055696"
       x2="45.633511"
       y2="33.076782" />
    <linearGradient
       inkscape:collect="always"
       xlink:href="#linearGradient3814-9-16"
       id="linearGradient5384"
       gradientUnits="userSpaceOnUse"
       gradientTransform="matrix(0.23809524,0,0,0.23809524,3.5114546,-2.9702091)"
       x1="76.75824"
       y1="27.409969"
       x2="76.75824"
       y2="44.91465" />
    <linearGradient
       inkscape:collect="always"
       xlink:href="#linearGradient3814-9-16"
       id="linearGradient5387"
       gradientUnits="userSpaceOnUse"
       gradientTransform="matrix(0.23809524,0,0,0.23809524,-5.3148814,-0.84924494)"
       x1="45.966625"
       y1="18.873959"
       x2="45.966625"
       y2="38.687656" />
    <linearGradient
       inkscape:collect="always"
       xlink:href="#linearGradient3814-9-16"
       id="linearGradient5390"
       gradientUnits="userSpaceOnUse"
       gradientTransform="matrix(0.23809524,0,0,0.23809524,-4.9047619,-6.8571429)"
       x1="35.83757"
       y1="56.923836"
       x2="35.83757"
       y2="86.110924" />
    <linearGradient
       inkscape:collect="always"
       xlink:href="#linearGradient3814-9-16"
       id="linearGradient5393"
       gradientUnits="userSpaceOnUse"
       gradientTransform="matrix(0.23809524,0,0,0.23809524,0.10071122,-0.67213991)"
       x1="38.534676"
       y1="8.6325254"
       x2="38.534676"
       y2="44.721241" />
    <linearGradient
       inkscape:collect="always"
       xlink:href="#linearGradient3814-9-16"
       id="linearGradient5396"
       gradientUnits="userSpaceOnUse"
       gradientTransform="matrix(-0.23809524,0,0,0.23809524,23.488095,-5.9047617)"
       x1="29.300009"
       y1="52.947876"
       x2="29.300009"
       y2="73.400635" />
    <linearGradient
       inkscape:collect="always"
       xlink:href="#linearGradient3862-9-4"
       id="linearGradient5399"
       gradientUnits="userSpaceOnUse"
       gradientTransform="matrix(0.23809524,0,0,0.23809524,-0.6190476,-13.761905)"
       x1="75.917961"
       y1="63.13913"
       x2="75.917961"
       y2="76.550301" />
    <linearGradient
       inkscape:collect="always"
       xlink:href="#linearGradient3854-2-4"
       id="linearGradient5402"
       gradientUnits="userSpaceOnUse"
       gradientTransform="matrix(0.23809524,0,0,0.23809524,2.952381,-14.47619)"
       x1="46.769516"
       y1="78.496399"
       x2="46.769516"
       y2="91.665634" />
    <linearGradient
       inkscape:collect="always"
       xlink:href="#linearGradient3814-9-16"
       id="linearGradient5405"
       gradientUnits="userSpaceOnUse"
       gradientTransform="matrix(-0.23809524,0,0,0.23809524,21.748062,-4.3987805)"
       x1="76.75824"
       y1="27.409969"
       x2="76.75824"
       y2="56.865051" />
    <linearGradient
       inkscape:collect="always"
       xlink:href="#linearGradient4810"
       id="linearGradient5411"
       gradientUnits="userSpaceOnUse"
       gradientTransform="matrix(0.2411522,0,0,0.23831603,9.1939491,20.313313)"
       spreadMethod="reflect"
       x1="42.818394"
       y1="66.939888"
       x2="43.270054"
       y2="35.27647" />
    <linearGradient
       inkscape:collect="always"
       xlink:href="#linearGradient4810"
       id="linearGradient5432"
       gradientUnits="userSpaceOnUse"
       gradientTransform="matrix(0.2411522,0,0,0.23831603,4.410282,19.11279)"
       spreadMethod="reflect"
       x1="56.461472"
       y1="56.0373"
       x2="56.461472"
       y2="44.43996" />
    <linearGradient
       inkscape:collect="always"
       xlink:href="#linearGradient4810"
       id="linearGradient5435"
       gradientUnits="userSpaceOnUse"
       gradientTransform="matrix(0.2411522,0,0,0.23831603,5.1331477,22.974546)"
       spreadMethod="reflect"
       x1="64.447701"
       y1="54.932674"
       x2="64.447701"
       y2="36.757607" />
    <linearGradient
       inkscape:collect="always"
       xlink:href="#linearGradient4810"
       id="linearGradient5441"
       gradientUnits="userSpaceOnUse"
       gradientTransform="matrix(0.2411522,0,0,0.23831603,13.956277,14.85797)"
       spreadMethod="reflect"
       x1="49.649223"
       y1="69.250671"
       x2="49.649223"
       y2="51.033485" />
    <linearGradient
       inkscape:collect="always"
       xlink:href="#linearGradient4810"
       id="linearGradient5444"
       gradientUnits="userSpaceOnUse"
       gradientTransform="matrix(0.2411522,0,0,0.23831603,17.130468,19.198632)"
       spreadMethod="reflect"
       x1="56.461472"
       y1="56.0373"
       x2="56.461472"
       y2="44.43996" />
    <linearGradient
       inkscape:collect="always"
       xlink:href="#linearGradient4810"
       id="linearGradient5453"
       gradientUnits="userSpaceOnUse"
       gradientTransform="matrix(0.23809524,0,0,0.23809524,3.1417199,19.965754)"
       spreadMethod="reflect"
       x1="34.175827"
       y1="57.867619"
       x2="34.688854"
       y2="39.914955" />
    <linearGradient
       inkscape:collect="always"
       xlink:href="#linearGradient4810"
       id="linearGradient5456"
       gradientUnits="userSpaceOnUse"
       spreadMethod="reflect"
       x1="99.479851"
       y1="46.581116"
       x2="99.479851"
       y2="34.625645"
       gradientTransform="matrix(0.2411522,0,0,0.23831603,5.7913038,19.733989)" />
    <linearGradient
       inkscape:collect="always"
       xlink:href="#linearGradient4810"
       id="linearGradient5459"
       gradientUnits="userSpaceOnUse"
       spreadMethod="reflect"
       x1="64.447701"
       y1="54.932674"
       x2="64.447701"
       y2="36.757607"
       gradientTransform="matrix(0.2411522,0,0,0.23831603,6.4931032,19.600956)" />
    <linearGradient
       inkscape:collect="always"
       xlink:href="#linearGradient4810"
       id="linearGradient5462"
       gradientUnits="userSpaceOnUse"
       spreadMethod="reflect"
       x1="34.175827"
       y1="57.867619"
       x2="34.688854"
       y2="39.914955"
       gradientTransform="matrix(0.2411522,0,0,0.23831603,6.34558,19.64002)" />
    <linearGradient
       inkscape:collect="always"
       xlink:href="#linearGradient4810"
       id="linearGradient5465"
       gradientUnits="userSpaceOnUse"
       gradientTransform="matrix(0.23809524,0,0,0.23809524,6.2528977,20.276351)"
       spreadMethod="reflect"
       x1="27.483698"
       y1="63.801872"
       x2="27.483698"
       y2="31.981205" />
    <linearGradient
       inkscape:collect="always"
       xlink:href="#linearGradient4810"
       id="linearGradient5468"
       gradientUnits="userSpaceOnUse"
       spreadMethod="reflect"
       x1="87.269562"
       y1="70.558372"
       x2="87.269562"
       y2="38.525948"
       gradientTransform="matrix(0.23809524,0,0,0.23809524,6.1495691,19.758297)" />
    <linearGradient
       inkscape:collect="always"
       xlink:href="#linearGradient4810"
       id="linearGradient5471"
       gradientUnits="userSpaceOnUse"
       gradientTransform="matrix(0.2411522,0,0,0.23831603,5.5583686,19.79567)"
       spreadMethod="reflect"
       x1="97.048943"
       y1="60.691067"
       x2="97.048943"
       y2="28.449224" />
    <linearGradient
       inkscape:collect="always"
       xlink:href="#linearGradient4810"
       id="linearGradient5474"
       gradientUnits="userSpaceOnUse"
       spreadMethod="reflect"
       x1="73.866722"
       y1="66.902718"
       x2="73.866722"
       y2="35.248737"
       gradientTransform="matrix(0.2411522,0,0,0.23831603,6.1662642,19.634701)" />
    <linearGradient
       inkscape:collect="always"
       xlink:href="#linearGradient4810"
       id="linearGradient5480"
       gradientUnits="userSpaceOnUse"
       spreadMethod="reflect"
       x1="42.818394"
       y1="66.939888"
       x2="43.270054"
       y2="35.27647"
       gradientTransform="matrix(0.23809524,0,0,0.23809524,5.8639103,19.676581)" />
    <clipPath
       clipPathUnits="userSpaceOnUse"
       id="clipPath5548">
      <rect
         ry="1.9999999"
         rx="1.9999999"
         y="2"
         x="2"
         height="20"
         width="20"
         id="rect5550"
         style="fill:#ff00ff;fill-opacity:1;fill-rule:evenodd;stroke:none;display:inline" />
    </clipPath>
    <linearGradient
       inkscape:collect="always"
       xlink:href="#linearGradient3700"
       id="linearGradient3617"
       gradientUnits="userSpaceOnUse"
       x1="48"
       y1="90"
       x2="48"
       y2="5.9877172" />
    <linearGradient
       id="linearGradient3700">
      <stop
         style="stop-color:#7d8590;stop-opacity:1;"
         offset="0"
         id="stop3702" />
      <stop
         style="stop-color:#a6aaae;stop-opacity:1;"
         offset="1"
         id="stop3704" />
    </linearGradient>
  </defs>
  <sodipodi:namedview
     id="base"
     pagecolor="#ffffff"
     bordercolor="#e7e7e7"
     borderopacity="1"
     inkscape:pageopacity="0.0"
     inkscape:pageshadow="2"
     inkscape:zoom="13.918519"
     inkscape:cx="-1.8984358"
     inkscape:cy="8.0954544"
     inkscape:document-units="px"
     inkscape:current-layer="g5516"
     showgrid="true"
     inkscape:showpageshadow="false"
     showguides="false"
     inkscape:guide-bbox="true"
     inkscape:window-width="1920"
     inkscape:window-height="1030"
     inkscape:window-x="0"
     inkscape:window-y="25"
     inkscape:window-maximized="1"
     inkscape:snap-global="false">
    <sodipodi:guide
       orientation="1,0"
       position="0,112"
       id="guide2383" />
    <sodipodi:guide
       orientation="0,1"
       position="26.278146,128"
       id="guide2385" />
    <sodipodi:guide
       orientation="1,0"
       position="128,54.082119"
       id="guide2387" />
    <sodipodi:guide
       orientation="0,1"
       position="78.156291,0"
       id="guide2389" />
    <sodipodi:guide
       orientation="0,1"
       position="60.863576,64.084768"
       id="guide2391" />
    <inkscape:grid
       type="xygrid"
       id="grid3672"
       visible="true"
       enabled="true"
       empspacing="8"
       snapvisiblegridlinesonly="true" />
  </sodipodi:namedview>
  <metadata
     id="metadata7">
    <rdf:RDF>
      <cc:Work
         rdf:about="">
        <dc:format>image/svg+xml</dc:format>
        <dc:type
           rdf:resource="http://purl.org/dc/dcmitype/StillImage" />
        <dc:title></dc:title>
      </cc:Work>
    </rdf:RDF>
  </metadata>
  <g
     inkscape:label="Button"
     inkscape:groupmode="layer"
     id="layer1"
     transform="translate(0,2)"
     sodipodi:insensitive="true">
    <g
       style="display:inline"
       id="g3337"
       transform="translate(1,-1)">
      <rect
         ry="2.5"
         rx="2.5"
         y="0.5"
         x="0.5"
         height="21.5"
         width="21"
         id="rect3371"
         style="opacity:0.3;fill:url(#linearGradient3335);fill-opacity:1;stroke:none;display:inline" />
      <rect
         style="opacity:0.5;fill:#000000;fill-opacity:1;stroke:none;display:inline"
         id="rect2553"
         width="20"
         height="20"
         x="1"
         y="2"
         rx="2.3809524"
         ry="2.3255813" />
    </g>
    <rect
       style="fill:url(#linearGradient3181);fill-opacity:1;fill-rule:evenodd;stroke:none;display:inline"
       id="rect3173"
       width="20"
       height="20"
       x="2"
       y="0"
       rx="2"
       ry="2" />
    <path
       id="path3018"
       d="m -26,-1.8e-7 c -1.108,0 -2,0.89199998 -2,1.99999998 l 0,1 c 0,-1.108 0.892,-2 2,-2 l 16,0 c 1.108,0 2,0.892 2,2 l 0,-1 C -8,0.8919998 -8.892,-1.8e-7 -10,-1.8e-7 l -16,0 z"
       style="opacity:0.25;fill:#ffffff;fill-opacity:1;fill-rule:evenodd;stroke:none;display:inline"
       inkscape:connector-curvature="0" />
    <path
       style="opacity:0.15;fill:#000000;fill-opacity:1;fill-rule:evenodd;stroke:none;display:inline"
       d="m -26,19.999999 c -1.108,0 -2,-0.891999 -2,-1.999999 l 0,-1 c 0,1.108 0.892,2 2,2 l 16,0 c 1.108,0 2,-0.892 2,-2 l 0,1 c 0,1.108 -0.892,1.999999 -2,1.999999 l -16,0 z"
       id="path3020"
       inkscape:connector-curvature="0" />
  </g>
  <g
     inkscape:groupmode="layer"
     id="layer2"
     inkscape:label="Highlight"
     transform="translate(0,2)"
     sodipodi:insensitive="true"
     style="display:none">
    <rect
       style="opacity:0.15;fill:#ffffff;fill-opacity:1;fill-rule:nonzero;stroke:none;display:inline;filter:url(#filter3194)"
       id="rect2410"
       width="16"
       height="16"
       x="3"
       y="3"
       rx="2"
       ry="2"
       clip-path="url(#clipPath2849)"
       transform="translate(1,-1)" />
  </g>
  <g
     inkscape:groupmode="layer"
     id="layer4"
     inkscape:label="Clouds">
    <rect
       transform="matrix(0.96592583,0.25881904,-0.25881904,0.96592583,0,0)"
       y="27.995602"
       x="16.058765"
       height="15.238095"
       width="0.47619048"
       id="rect4800"
       style="opacity:0.4;color:#000000;fill:url(#linearGradient5480);fill-opacity:1;stroke:none;stroke-width:1.5;marker:none;visibility:visible;display:inline;overflow:visible;enable-background:accumulate" />
    <rect
       transform="matrix(0.96679898,0.25553812,-0.26213597,0.96503095,0,0)"
       style="opacity:0.4;color:#000000;fill:url(#linearGradient5474);fill-opacity:1;stroke:none;stroke-width:1.5;marker:none;visibility:visible;display:inline;overflow:visible;enable-background:accumulate"
       id="rect4822"
       width="0.48230439"
       height="15.252226"
       x="23.979385"
       y="27.952579" />
    <rect
       transform="matrix(0.96679898,0.25553812,-0.26213597,0.96503095,0,0)"
       y="26.633211"
       x="28.961935"
       height="15.252226"
       width="0.48230439"
       id="rect4826"
       style="opacity:0.4;color:#000000;fill:url(#linearGradient5471);fill-opacity:1;stroke:none;stroke-width:1.5;marker:none;visibility:visible;display:inline;overflow:visible;enable-background:accumulate" />
    <rect
       transform="matrix(0.96592583,0.25881904,-0.25881904,0.96592583,0,0)"
       style="opacity:0.4;color:#000000;fill:url(#linearGradient5468);fill-opacity:1;stroke:none;stroke-width:1.5;marker:none;visibility:visible;display:inline;overflow:visible;enable-background:accumulate"
       id="rect4830"
       width="0.47619048"
       height="15.238095"
       x="26.928038"
       y="28.938862" />
    <rect
       transform="matrix(0.96592583,0.25881904,-0.25881904,0.96592583,0,0)"
       y="27.848227"
       x="12.796635"
       height="15.238095"
       width="0.47619048"
       id="rect4834"
       style="opacity:0.6;color:#000000;fill:url(#linearGradient5465);fill-opacity:1;stroke:none;stroke-width:1.5;marker:none;visibility:visible;display:inline;overflow:visible;enable-background:accumulate" />
    <rect
       transform="matrix(0.96679898,0.25553812,-0.26213597,0.96503095,0,0)"
       y="29.141111"
       x="14.587154"
       height="8.5793762"
       width="0.48230439"
       id="rect4842"
       style="opacity:0.4;color:#000000;fill:url(#linearGradient5462);fill-opacity:1;stroke:none;stroke-width:1.5;marker:none;visibility:visible;display:inline;overflow:visible;enable-background:accumulate" />
    <rect
       transform="matrix(0.96679898,0.25553812,-0.26213597,0.96503095,0,0)"
       style="opacity:0.4;color:#000000;fill:url(#linearGradient5459);fill-opacity:1;stroke:none;stroke-width:1.5;marker:none;visibility:visible;display:inline;overflow:visible;enable-background:accumulate"
       id="rect4846"
       width="0.48230439"
       height="8.5793762"
       x="22.034807"
       y="28.402603" />
    <rect
       transform="matrix(0.96679898,0.25553812,-0.26213597,0.96503095,0,0)"
       style="opacity:0.4;color:#000000;fill:url(#linearGradient5456);fill-opacity:1;stroke:none;stroke-width:1.5;marker:none;visibility:visible;display:inline;overflow:visible;enable-background:accumulate"
       id="rect4854"
       width="0.48230439"
       height="5.7195849"
       x="29.78109"
       y="27.975224" />
    <rect
       style="opacity:0.4;color:#000000;fill:url(#linearGradient5453);fill-opacity:1;stroke:none;stroke-width:1.5;marker:none;visibility:visible;display:inline;overflow:visible;enable-background:accumulate"
       id="rect3220"
       width="0.47619048"
       height="8.5714283"
       x="11.278821"
       y="29.458044"
       transform="matrix(0.96592583,0.25881904,-0.25881904,0.96592583,0,0)" />
    <rect
       transform="matrix(0.96679898,0.25553812,-0.26213597,0.96503095,0,0)"
       style="opacity:0.4;color:#000000;fill:url(#linearGradient5444);fill-opacity:1;stroke:none;stroke-width:1.5;marker:none;visibility:visible;display:inline;overflow:visible;enable-background:accumulate"
       id="rect4004"
       width="0.48230439"
       height="5.7195849"
       x="30.746275"
       y="29.693424" />
    <rect
       y="27.071827"
       x="25.929293"
       height="8.5793762"
       width="0.48230439"
       id="rect4008"
       style="opacity:0.6;color:#000000;fill:url(#linearGradient5441);fill-opacity:1;stroke:none;stroke-width:1.5;marker:none;visibility:visible;display:inline;overflow:visible;enable-background:accumulate"
       transform="matrix(0.96679898,0.25553812,-0.26213597,0.96503095,0,0)" />
    <rect
       y="31.776197"
       x="20.674854"
       height="8.5793762"
       width="0.48230439"
       id="rect4016"
       style="opacity:0.4;color:#000000;fill:url(#linearGradient5435);fill-opacity:1;stroke:none;stroke-width:1.5;marker:none;visibility:visible;display:inline;overflow:visible;enable-background:accumulate"
       transform="matrix(0.96679898,0.25553812,-0.26213597,0.96503095,0,0)" />
    <rect
       y="29.607582"
       x="18.026089"
       height="5.7195849"
       width="0.48230439"
       id="rect4020"
       style="opacity:0.4;color:#000000;fill:url(#linearGradient5432);fill-opacity:1;stroke:none;stroke-width:1.5;marker:none;visibility:visible;display:inline;overflow:visible;enable-background:accumulate"
       transform="matrix(0.96679898,0.25553812,-0.26213597,0.96503095,0,0)" />
    <rect
       style="opacity:0.6;color:#000000;fill:url(#linearGradient5411);fill-opacity:1;stroke:none;stroke-width:1.5;marker:none;visibility:visible;display:inline;overflow:visible;enable-background:accumulate"
       id="rect4052"
       width="0.48230439"
       height="15.252226"
       x="19.519697"
       y="28.640049"
       transform="matrix(0.96679898,0.25553812,-0.26213597,0.96503095,0,0)" />
    <g
       id="g5516"
       clip-path="url(#clipPath5548)">
      <path
         transform="matrix(0.40014872,0,0,0.40014872,2.2891203,-10.772564)"
         sodipodi:type="arc"
         style="opacity:0.1;color:#000000;fill:url(#radialGradient5156);fill-opacity:1;fill-rule:nonzero;stroke:none;stroke-width:1.5;marker:none;visibility:visible;display:inline;overflow:visible;enable-background:accumulate"
         id="path4876"
         sodipodi:cx="49.422203"
         sodipodi:cy="70.318527"
         sodipodi:rx="21.228415"
         sodipodi:ry="13.119883"
         d="m 70.650618,70.318527 a 21.228415,13.119883 0 1 1 -42.456829,0 21.228415,13.119883 0 1 1 42.456829,0 z" />
      <path
         transform="matrix(0.38895822,0,0,0.38368076,-11.091082,-4.2994491)"
         sodipodi:type="arc"
         style="opacity:0.1;color:#000000;fill:url(#radialGradient4882);fill-opacity:1;fill-rule:nonzero;stroke:none;stroke-width:1.5;marker:none;visibility:visible;display:inline;overflow:visible;enable-background:accumulate"
         id="path4880"
         sodipodi:cx="49.422203"
         sodipodi:cy="70.318527"
         sodipodi:rx="21.228415"
         sodipodi:ry="13.119883"
         d="m 70.650618,70.318527 a 21.228415,13.119883 0 1 1 -42.456829,0 21.228415,13.119883 0 1 1 42.456829,0 z" />
      <path
         d="m 70.650618,70.318527 a 21.228415,13.119883 0 1 1 -42.456829,0 21.228415,13.119883 0 1 1 42.456829,0 z"
         sodipodi:ry="13.119883"
         sodipodi:rx="21.228415"
         sodipodi:cy="70.318527"
         sodipodi:cx="49.422203"
         id="path4872"
         style="opacity:0.1;color:#000000;fill:url(#radialGradient4874);fill-opacity:1;fill-rule:nonzero;stroke:none;stroke-width:1.5;marker:none;visibility:visible;display:inline;overflow:visible;enable-background:accumulate"
         sodipodi:type="arc"
         transform="matrix(0.27469651,0,0,0.27096938,-7.8577189,-3.5166089)" />
      <path
         style="opacity:0.3;color:#000000;fill:url(#linearGradient5405);fill-opacity:1;fill-rule:nonzero;stroke:none;stroke-width:1.5;marker:none;visibility:visible;display:inline;overflow:visible;enable-background:accumulate"
         d="m 5.014431,1.1815765 c 0.7205638,0.073177 1.2797619,0.6887012 1.2797619,1.4285712 0,0.1195829 -0.016971,0.2312465 -0.044643,0.3422621 0.3227512,-0.1974366 0.7025745,-0.3125002 1.1086309,-0.3125002 0.1659824,0 0.3285896,0.023555 0.483631,0.059524 0.1131086,-0.324409 0.4182793,-0.5580357 0.78125,-0.5580357 0.4588343,0 0.8258929,0.3744991 0.8258929,0.8333335 0,0.2197745 -0.083868,0.4168928 -0.2232143,0.5654762 0.046784,-0.00533 0.093159,0 0.141369,0 0.6882516,0 1.2500006,0.5543081 1.2500006,1.2425595 0,0.6882514 -0.561749,1.25 -1.2500006,1.25 -0.096186,0 -0.1853693,-0.016576 -0.2752976,-0.037202 -0.2408895,0.3397648 -0.5798995,0.5998422 -0.9747024,0.7514881 10e-4,0.027483 0.00744,0.05412 0.00744,0.081845 0,1.2480293 -1.0138755,2.2544643 -2.2619048,2.2544643 -0.364385,0 -0.7071067,-0.084905 -1.0119048,-0.2380953 C 4.2258362,9.2698974 3.4682693,9.5223503 2.6558,9.5223503 c -1.628255,0 -3.02223117,-1.0012222 -3.60863117,-2.4181548 C -2.092155,6.9621465 -2.9766407,5.9977726 -2.9766407,4.8199693 c 0,-1.2755593 1.0309881,-2.3139882 2.30654762,-2.3139882 0.27607858,0 0.5432762,0.052525 0.78869049,0.141369 C 0.32198312,2.473258 0.5446355,2.3156351 0.78079979,2.1860406 0.76110932,2.1304863 0.74359741,2.0697713 0.74359741,2.0074692 c 0,-0.2936541 0.24205953,-0.5282739 0.53571429,-0.5282739 0.225781,0 0.4213976,0.136296 0.4985119,0.3348215 0.2516286,-0.057806 0.5136357,-0.096717 0.7812503,-0.1041667 0.073912,-0.3060907 0.3482897,-0.5282738 0.6770833,-0.5282738 0.2796302,0 0.5210886,0.1643098 0.6324405,0.4017857 0.2568535,-0.2510026 0.6082062,-0.4017857 0.9970238,-0.4017857 0.049325,0 0.1007719,-0.00488 0.1488095,0 z"
         id="path4203"
         inkscape:connector-curvature="0" />
      <path
         id="path3724"
         d="m 13.450893,4.2142857 c -0.299772,0 -0.555712,0.1647234 -0.691964,0.4092262 -0.456706,0.031615 -0.859875,0.2440179 -1.138393,0.5729167 -0.127155,-0.1714317 -0.3282,-0.2827381 -0.558036,-0.2827381 -0.385421,0 -0.699405,0.313984 -0.699405,0.6994048 0,0.1057904 0.02484,0.2003359 0.06696,0.2901785 -0.378218,0.085013 -0.6622028,0.4145679 -0.6622028,0.8184524 0,0.468011 0.3727628,0.8482143 0.8407738,0.8482143 0.367723,0 0.678866,-0.2380836 0.796131,-0.5654762 0.271938,0.5336234 0.82579,0.9002976 1.465774,0.9002976 0.260766,0 0.510092,-0.063126 0.729167,-0.1711309 0.13618,0.1255312 0.321019,0.2008928 0.520833,0.2008928 0.394499,0 0.710676,-0.3008514 0.751488,-0.6845238 0.0736,0.011274 0.146459,0.022322 0.223214,0.022322 0.361222,0 0.69556,-0.1345812 0.952381,-0.3497024 0.170488,0.1928762 0.421741,0.3125 0.699405,0.3125 0.513895,0 0.930059,-0.4161653 0.930059,-0.9300596 0,-0.513894 -0.416164,-0.9300595 -0.930059,-0.9300595 -0.07524,0 -0.153148,0.012905 -0.223214,0.029762 -0.170403,-0.6285712 -0.746072,-1.09375 -1.428572,-1.09375 -0.357317,0 -0.681874,0.1313007 -0.9375,0.3422619 C 14.02628,4.3933967 13.762035,4.2142857 13.450893,4.2142857 z"
         style="opacity:0.3;color:#000000;fill:url(#linearGradient5402);fill-opacity:1;fill-rule:nonzero;stroke:none;stroke-width:1.5;marker:none;visibility:visible;display:inline;overflow:visible;enable-background:accumulate"
         inkscape:connector-curvature="0" />
      <path
         style="opacity:0.2;color:#000000;fill:url(#linearGradient5399);fill-opacity:1;fill-rule:nonzero;stroke:none;stroke-width:1.5;marker:none;visibility:visible;display:inline;overflow:visible;enable-background:accumulate"
         d="m 17.9375,1.15625 c -0.833444,0 -1.539058,0.5205353 -1.815476,1.2574403 -0.695877,0.0124 -1.257441,0.580924 -1.257441,1.2797621 0,0.7066048 0.573158,1.2797619 1.279762,1.2797619 0.279843,0 0.533445,-0.093119 0.744048,-0.2455357 0.303241,0.1955038 0.66148,0.3125 1.049107,0.3125 0.09814,0 0.195949,-0.00829 0.290179,-0.022321 0.109713,0.1329419 0.275481,0.2232142 0.461309,0.2232142 0.264289,0 0.486346,-0.1715221 0.565476,-0.4092262 0.13643,0.040977 0.281773,0.066964 0.431548,0.066964 0.825902,0 1.495536,-0.669634 1.495536,-1.4955357 0,-0.6916927 -0.47085,-1.2725642 -1.108631,-1.4434525 0.0059,-0.036484 0.01488,-0.073461 0.01488,-0.1116071 0,-0.3854205 -0.313984,-0.6919642 -0.699405,-0.6919642 -0.206237,0 -0.393076,0.088421 -0.520833,0.2306546 C 18.5921,1.2372662 18.273023,1.15625 17.9375,1.15625 z"
         id="path3874"
         inkscape:connector-curvature="0" />
      <path
         id="path3646"
         d="m 16.955357,5.3229167 c 0.523071,0 0.952381,0.4218697 0.952381,0.9449405 0,0.1780452 -0.05593,0.3413521 -0.141369,0.4836309 0.0944,0.1101122 0.188327,0.2203581 0.267857,0.3422619 0.16227,-0.032337 0.333688,-0.044643 0.505953,-0.044643 0.55769,0 1.068108,0.1760143 1.480655,0.4761905 0.279675,-0.580207 0.840176,-0.9747024 1.488095,-0.9747024 0.926845,0 1.681547,0.8077771 1.681547,1.8080357 0,0.4551657 -0.159764,0.8723033 -0.416666,1.1904762 0.3402,0.3929357 0.550595,0.904715 0.550595,1.458334 0,1.248029 -1.044133,2.254464 -2.328869,2.254464 -0.447487,0 -0.865505,-0.122103 -1.220238,-0.334822 -0.275968,0.313033 -0.635634,0.559826 -1.041667,0.691965 -0.614034,0.641453 -1.482386,1.041666 -2.440476,1.041666 -1.023016,0 -1.940941,-0.456424 -2.559524,-1.175595 -0.453572,-0.08717 -0.863731,-0.302739 -1.197917,-0.595238 -0.03704,0.0027 -0.07388,0.0074 -0.111607,0.0074 -0.502349,0 -0.949025,-0.24344 -1.227678,-0.61756 -0.08253,0.0104 -0.167415,0.02232 -0.252977,0.02232 -1.036965,0 -1.8749995,-0.790664 -1.8749995,-1.763392 0,-0.972729 0.8380345,-1.7633935 1.8749995,-1.7633935 0.02001,0 0.03966,0.00686 0.05952,0.00744 0.03291,-0.5407264 0.496288,-0.9672619 1.071429,-0.9672619 0.01298,0 0.02433,0.00701 0.0372,0.00744 0.450331,-1.3014667 1.677821,-2.2321429 3.132441,-2.2321429 0.325318,0 0.640368,0.046788 0.9375,0.1339286 0.17129,-0.2442833 0.452803,-0.4017857 0.773809,-0.4017857 z"
         style="opacity:0.5;color:#000000;fill:url(#linearGradient5396);fill-opacity:1;fill-rule:nonzero;stroke:none;stroke-width:1.5;marker:none;visibility:visible;display:inline;overflow:visible;enable-background:accumulate"
         inkscape:connector-curvature="0" />
      <path
         id="path3686"
         d="m 12.615593,1.2177411 c -0.339538,0 -0.61756,0.2705819 -0.61756,0.6101188 0,0.2243371 0.11815,0.4209135 0.297619,0.5282738 -0.10233,0.148394 -0.179038,0.3138447 -0.230655,0.4910714 -0.185733,-0.063051 -0.377856,-0.1089557 -0.580357,-0.1264881 0.0066,-0.036627 0.01488,-0.073076 0.01488,-0.1116071 0,-0.3487141 -0.283726,-0.6324405 -0.63244,-0.6324405 -0.2555,0 -0.473529,0.1537295 -0.572917,0.3720238 C 10.041409,2.0900165 9.6928301,1.9254056 9.3045806,1.9171456 c 0,-0.3120072 -0.2534688,-0.565476 -0.5654762,-0.565476 -0.2937843,0 -0.5307829,0.2266734 -0.5580357,0.5133926 -0.089807,-0.032403 -0.1892005,-0.052083 -0.2901786,-0.052083 -0.468011,0 -0.8482143,0.3802034 -0.8482143,0.8482143 0,0.015331 0.00664,0.029511 0.00744,0.044643 -0.1447357,-0.018669 -0.2896834,-0.029762 -0.4389881,-0.029762 -0.3973046,0 -0.7732641,0.067818 -1.1309524,0.1860119 -0.2710698,-0.2571851 -0.6385079,-0.416667 -1.0416662,-0.416667 -0.8350783,0 -1.5104167,0.6753382 -1.5104167,1.510417 0,0.1252617 0.015931,0.2481879 0.044643,0.3645834 C 2.4594,4.3875805 2.0649969,4.8229912 2.0649969,5.354646 c 0,0.1043847 0.0162,0.2024854 0.044643,0.297619 C 2.0577779,5.697538 2.0080218,5.743552 1.9608304,5.7936341 1.7521997,5.6150826 1.4813878,5.5034555 1.1795804,5.5034555 c -0.65154456,0 -1.17559528,0.5069376 -1.17559528,1.1309524 0,0.6240143 0.52405072,1.1309524 1.17559528,1.1309524 0.097881,0 0.1917978,-0.015683 0.2827381,-0.037202 0.2287478,0.8978719 1.0395085,1.5625 2.0089288,1.5625 0.3046945,0 0.5949657,-0.068148 0.8556548,-0.1860119 0.6242712,0.5104605 1.4149233,0.8184524 2.2842262,0.8184524 1.1745631,0 2.2176171,-0.5620457 2.8794643,-1.4285715 0.1747743,0.1023803 0.3780564,0.1636905 0.5952384,0.1636905 0.577938,0 1.05944,-0.4111902 1.160714,-0.9598214 0.0073,6.36e-5 0.01497,0 0.02232,0 0.860315,0 1.613114,-0.4382136 2.061012,-1.1011905 0.301788,0.3095269 0.724029,0.4985119 1.190476,0.4985119 0.842191,0 1.543017,-0.6235929 1.651786,-1.4360119 0.106166,0.025494 0.213396,0.044643 0.327381,0.044643 0.780018,0 1.413691,-0.6336722 1.413691,-1.4136905 0,-0.7800189 -0.633673,-1.4136906 -1.413691,-1.4136906 -0.08154,0 -0.16057,0.00904 -0.238095,0.022321 -0.117246,-0.1167269 -0.270114,-0.1860119 -0.438988,-0.1860119 -0.174627,0 -0.335258,0.076989 -0.453869,0.2008927 -0.184637,-0.7458049 -0.856318,-1.3020832 -1.659226,-1.3020832 -0.174726,0 -0.339728,0.033188 -0.498512,0.081845 C 13.1476,1.4216644 12.907098,1.217741 12.615592,1.217741 z"
         style="opacity:0.2;color:#000000;fill:url(#linearGradient5393);fill-opacity:1;fill-rule:nonzero;stroke:none;stroke-width:1.5;marker:none;visibility:visible;display:inline;overflow:visible;enable-background:accumulate"
         inkscape:connector-curvature="0" />
      <path
         id="path3739"
         d="m 2.3571429,5.8363095 c -0.2262971,0 -0.4353526,0.07276 -0.6026786,0.1934524 -0.1381057,-0.02129 -0.2800414,-0.037202 -0.4241071,-0.037202 -0.62946169,0 -1.20247884,0.2179858 -1.6666667,0.5729167 -0.0536181,-0.00847 -0.10754119,-0.014881 -0.16369048,-0.014881 -0.55060122,0 -0.99702382,0.4218697 -0.99702382,0.9449404 0,0.1961517 0.063635,0.377115 0.171131,0.5282739 -0.063809,0.2327835 -0.096726,0.4761288 -0.096726,0.7291666 0,0.2555893 0.031669,0.5017277 0.096726,0.7366072 -0.1476008,-0.066433 -0.3112689,-0.1041667 -0.483631,-0.1041667 -0.6515448,0 -1.1755952,0.5240507 -1.1755952,1.175595 0,0.651545 0.5240504,1.183036 1.1755952,1.183036 0.087171,0 0.1711907,-0.01182 0.2529762,-0.02976 -1.531e-4,0.0098 0,0.01989 0,0.02976 0,1.027789 0.83233024,1.860119 1.86011905,1.860119 0.66332406,0 1.24039645,-0.348111 1.56994045,-0.870536 0.4859743,0.438326 1.1318177,0.706845 1.8377977,0.706845 0.9559517,0 1.7935674,-0.493343 2.2842262,-1.235119 0.3081343,0.231226 0.6862936,0.372024 1.1011905,0.372024 0.6488035,0 1.2188516,-0.341741 1.547619,-0.848214 0.1650398,0.13242 0.3671781,0.215774 0.5952381,0.215774 0.311736,0 0.5902165,-0.149882 0.7663686,-0.379465 0.07683,0.04839 0.170355,0.08184 0.267858,0.08184 0.2753,0 0.498512,-0.223211 0.498512,-0.498511 0,-0.275301 -0.223212,-0.498512 -0.498512,-0.498512 -0.04302,0 -0.08667,0.0046 -0.126488,0.01488 C 10.026528,10.318502 9.7140377,10.063658 9.3363096,10.025298 9.3157787,9.7043298 9.0523422,9.452381 8.7261906,9.452381 8.6354296,9.452381 8.5507587,9.46916 8.4732144,9.504464 8.1355141,9.1274431 7.6427118,8.8869048 7.0967263,8.8869048 c -0.2439172,0 -0.4714148,0.04792 -0.6845238,0.1339286 -0.053395,-0.565101 -0.5295572,-1.0119048 -1.108631,-1.0119048 -0.066709,0 -0.1299721,0.011074 -0.1934524,0.022321 0.00764,-0.051825 0.014881,-0.1023033 0.014881,-0.15625 0,-0.5964845 -0.489825,-1.078869 -1.0863096,-1.078869 -0.2236816,0 -0.4303045,0.062118 -0.6026785,0.1785714 C 3.406332,6.939564 3.378099,6.904137 3.346726,6.8705353 c 0.00289,-0.029351 0.00744,-0.059218 0.00744,-0.089286 0,-0.5230707 -0.4464226,-0.9449405 -0.9970238,-0.9449405 z"
         style="opacity:0.5;color:#000000;fill:url(#linearGradient5390);fill-opacity:1;fill-rule:nonzero;stroke:none;stroke-width:1.5;marker:none;visibility:visible;display:inline;overflow:visible;enable-background:accumulate"
         inkscape:connector-curvature="0" />
      <path
         id="path3772"
         d="m 6.5452377,3.5927193 c -0.4274002,0 -0.7826438,0.31781 -0.8407738,0.7291667 C 5.4686927,4.4166024 5.2529824,4.5381938 5.0571424,4.6939098 4.9421039,4.5728424 4.7834639,4.4930169 4.6032734,4.4930169 c -0.3487141,0 -0.6324405,0.2837264 -0.6324405,0.6324405 0,0.00255 -3.02e-5,0.00489 0,0.00744 C 3.724232,5.1491098 3.488186,5.19642 3.2639877,5.2742669 3.1329705,5.1225876 2.936991,5.0287312 2.7208329,5.0287312 c -0.3897138,0 -0.7065029,0.3115545 -0.7142857,0.6994048 -0.01035,-5.238e-4 -0.019279,-0.00744 -0.029762,-0.00744 -0.2865879,0 -0.5293576,0.2071083 -0.5877976,0.4761905 -0.58418576,0.039535 -1.08633886,0.3618621 -1.37648815,0.8333333 -0.11728572,-0.049608 -0.2441081,-0.074405 -0.37946429,-0.074405 -0.54142453,0 -0.98214286,0.4407183 -0.98214286,0.9821428 0,0.5414245 0.44071833,0.9747024 0.98214286,0.9747024 0.12720333,0 0.24561905,-0.022874 0.35714286,-0.066964 0.30620357,0.5198288 0.8708962,0.8630953 1.51785718,0.8630953 0.2089921,0 0.4092435,-0.03736 0.5952381,-0.1041667 0.4966226,0.5738904 1.227629,0.9375004 2.0461309,0.9375004 0.8510034,0 1.6091374,-0.39063 2.1056548,-1.0044647 0.2892981,0.3293495 0.7102196,0.5431557 1.1830357,0.5431557 0.3677843,0 0.7063439,-0.1313704 0.9747024,-0.3422628 0.25179,0.1307562 0.5374534,0.2083333 0.8407739,0.2083333 0.3687964,0 0.7098361,-0.1097488 0.997024,-0.297619 0.118583,0.06122 0.251692,0.096726 0.394345,0.096726 0.415077,0 0.76499,-0.2942745 0.848214,-0.6845238 0.05622,0.3666991 0.369066,0.6473215 0.751489,0.6473215 0.422127,0 0.766369,-0.336801 0.766369,-0.7589286 0,-0.3845393 -0.285084,-0.7053069 -0.654762,-0.7589286 0.01091,-0.061585 0.02232,-0.1287348 0.02232,-0.1934524 0,-0.5964845 -0.482384,-1.078869 -1.078869,-1.078869 -0.200018,0 -0.38995,0.06148 -0.550595,0.15625 -0.05333,-0.076158 -0.107096,-0.1561734 -0.171131,-0.2232143 0.02522,-0.059637 0.0372,-0.1246272 0.0372,-0.1934524 0,-0.2753005 -0.223211,-0.4985119 -0.498512,-0.4985119 -0.02219,0 -0.04555,0.00463 -0.06696,0.00744 -0.0041,-0.4277931 -0.3524901,-0.7738096 -0.7812501,-0.7738096 -0.113675,0 -0.2225169,0.023295 -0.3199405,0.066964 C 8.6091927,4.8595683 8.0372089,4.4091341 7.3562496,4.2251598 7.260692,3.8618493 6.938547,3.5927193 6.5452377,3.5927193 z"
         style="opacity:0.5;color:#000000;fill:url(#linearGradient5387);fill-opacity:1;fill-rule:nonzero;stroke:none;stroke-width:1.5;marker:none;visibility:visible;display:inline;overflow:visible;enable-background:accumulate"
         inkscape:connector-curvature="0" />
      <path
         id="path3671"
         d="m 20.245086,2.610148 c -0.720564,0.073177 -1.279762,0.6887013 -1.279762,1.4285713 0,0.1195828 0.01697,0.2312464 0.04464,0.3422619 -0.322752,-0.1974364 -0.702575,-0.3125 -1.108631,-0.3125 -0.165983,0 -0.32859,0.023555 -0.483631,0.059524 -0.113109,-0.324409 -0.41828,-0.5580357 -0.78125,-0.5580357 -0.458835,0 -0.825893,0.374499 -0.825893,0.8333333 0,0.2197746 0.08387,0.4168929 0.223214,0.5654762 -0.04678,-0.00533 -0.09316,0 -0.141369,0 -0.688251,0 -1.25,0.5543081 -1.25,1.2425596 0,0.6882514 0.561749,1.25 1.25,1.25 0.09619,0 0.185369,-0.016576 0.275298,-0.037202 0.240889,0.3397647 0.579899,0.5998421 0.974702,0.7514881 -10e-4,0.027483 -0.0074,0.05412 -0.0074,0.081845 0,1.2480293 1.013875,2.2544643 2.261904,2.2544643 0.364385,0 0.707107,-0.08491 1.011905,-0.238096 0.624905,0.424631 1.382472,0.677084 2.194941,0.677084 1.628255,0 3.022231,-1.001222 3.608631,-2.4181547 1.139324,-0.142049 2.023809,-1.1064228 2.023809,-2.2842262 0,-1.2755593 -1.030988,-2.3139881 -2.306547,-2.3139881 -0.276079,0 -0.543276,0.052525 -0.788691,0.1413691 -0.203385,-0.1740922 -0.426038,-0.331715 -0.662202,-0.4613096 0.01969,-0.055554 0.0372,-0.1162695 0.0372,-0.1785716 0,-0.2936541 -0.242059,-0.5282738 -0.535714,-0.5282738 -0.225781,0 -0.421398,0.1362959 -0.498512,0.3348214 -0.251629,-0.057806 -0.513636,-0.096717 -0.78125,-0.1041667 -0.07391,-0.3060906 -0.34829,-0.5282737 -0.677083,-0.5282737 -0.279631,0 -0.521088,0.1643098 -0.632441,0.4017856 -0.256855,-0.2510025 -0.608206,-0.4017856 -0.997024,-0.4017856 -0.04932,0 -0.100772,-0.00488 -0.148809,0 z"
         style="opacity:0.4;color:#000000;fill:url(#linearGradient5384);fill-opacity:1;fill-rule:nonzero;stroke:none;stroke-width:1.5;marker:none;visibility:visible;display:inline;overflow:visible;enable-background:accumulate"
         inkscape:connector-curvature="0" />
      <path
         style="opacity:0.4;color:#000000;fill:url(#linearGradient5381);fill-opacity:1;fill-rule:nonzero;stroke:none;stroke-width:1.5;marker:none;visibility:visible;display:inline;overflow:visible;enable-background:accumulate"
         d="m 13.232332,9.4706917 c 0.326066,-0.094692 0.668519,0.087617 0.763211,0.4136831 0.06257,0.2154362 0.0039,0.4371632 -0.138482,0.5903162 0.139656,0.113967 0.259462,0.251461 0.358457,0.407261 0.16078,-0.112348 0.332478,-0.210012 0.522055,-0.283324 -0.01656,-0.03333 -0.03467,-0.06603 -0.04542,-0.103028 -0.09725,-0.334879 0.09609,-0.6864759 0.430968,-0.7837276 0.245363,-0.071255 0.497613,0.015569 0.653938,0.1974846 0.170585,-0.3189036 0.459426,-0.5741974 0.829968,-0.6904074 -0.08702,-0.2996279 0.08571,-0.6137293 0.385336,-0.7007441 0.282128,-0.081933 0.57294,0.069652 0.679074,0.3373948 0.07721,-0.056164 0.167169,-0.1027826 0.26414,-0.1309441 0.449442,-0.1305219 0.920594,0.1285627 1.051116,0.5780048 0.0043,0.014724 0.0019,0.030191 0.0053,0.044947 0.133787,-0.058293 0.26989,-0.1093698 0.413271,-0.1510091 0.381541,-0.1108028 0.761497,-0.1505257 1.137957,-0.1367759 0.188589,-0.3225786 0.496973,-0.5782067 0.884134,-0.6906422 0.801946,-0.2328921 1.638831,0.2273086 1.871724,1.0292543 0.03493,0.1202914 0.05392,0.2427833 0.05881,0.3625681 0.511698,-0.078666 1.011884,0.2294752 1.160155,0.7400358 0.02911,0.100243 0.04091,0.19897 0.04013,0.298261 0.06243,0.02901 0.123045,0.05933 0.182331,0.09426 0.150557,-0.229651 0.379493,-0.412375 0.669326,-0.496546 0.625693,-0.181707 1.270331,0.158967 1.44436,0.758223 0.174028,0.599256 -0.18785,1.232231 -0.813545,1.413939 -0.094,0.0273 -0.188562,0.03843 -0.281896,0.04312 0.03073,0.926043 -0.562504,1.790412 -1.493462,2.06077 -0.292604,0.08498 -0.590364,0.100484 -0.873581,0.06 -0.457142,0.664309 -1.13053,1.180583 -1.965342,1.423022 -1.127961,0.327569 -2.286378,0.07872 -3.163628,-0.568849 -0.139288,0.147061 -0.317406,0.262631 -0.525971,0.3232 -0.555008,0.16118 -1.13208,-0.09941 -1.382343,-0.598031 -0.007,0.0021 -0.01438,0.0042 -0.02144,0.0062 -0.82618,0.23993 -1.671323,0.02905 -2.286346,-0.482711 -0.203491,0.381411 -0.556274,0.680655 -1.004215,0.810741 -0.808775,0.234876 -1.655707,-0.168524 -1.986734,-0.918375 -0.09484,0.05409 -0.192478,0.102384 -0.301942,0.134173 -0.74907,0.217537 -1.5343231,-0.214271 -1.75186,-0.963341 -0.2175367,-0.74907 0.214271,-1.534324 0.9633414,-1.75186 0.078303,-0.02274 0.1567196,-0.0361 0.2348736,-0.04497 0.08004,-0.144794 0.20752,-0.253963 0.369695,-0.30106 0.167698,-0.0487 0.343426,-0.01956 0.491887,0.06634 -0.03068,-0.767707 0.459209,-1.489237 1.230261,-1.713158 0.167793,-0.04873 0.335504,-0.06287 0.501558,-0.06043 -0.01521,-0.2790993 0.158878,-0.5420038 0.438819,-0.6233012 z"
         id="path3870"
         inkscape:connector-curvature="0" />
      <path
         id="path3713"
         d="m 6.0327382,5.6800595 c -0.8334443,0 -1.5390586,0.5205358 -1.8154762,1.2574405 -0.6958769,0.0124 -1.2574405,0.5809241 -1.2574405,1.2797619 0,0.7066048 0.5731571,1.279762 1.2797619,1.279762 0.2798426,0 0.5334445,-0.093119 0.7440476,-0.2455358 0.3032412,0.1955041 0.66148,0.3125 1.0491072,0.3125 0.098135,0 0.195949,-0.00829 0.2901785,-0.022321 0.1097134,0.1329422 0.2754817,0.2232143 0.4613096,0.2232143 0.2642885,0 0.4863452,-0.1715221 0.5654762,-0.4092262 0.136429,0.040977 0.2817726,0.066964 0.4315476,0.066964 0.8259017,0 1.4955357,-0.6696341 1.4955357,-1.4955357 0,-0.6916927 -0.4708502,-1.2725641 -1.1086309,-1.4434524 0.00589,-0.036484 0.014881,-0.073461 0.014881,-0.1116072 0,-0.3854207 -0.313984,-0.6919643 -0.6994048,-0.6919643 -0.2062366,0 -0.3930759,0.088422 -0.5208333,0.2306548 C 6.6873382,5.7610757 6.3682608,5.6800595 6.0327382,5.6800595 z"
         style="opacity:0.5;color:#000000;fill:url(#linearGradient5378);fill-opacity:1;fill-rule:nonzero;stroke:none;stroke-width:1.5;marker:none;visibility:visible;display:inline;overflow:visible;enable-background:accumulate"
         inkscape:connector-curvature="0" />
      <path
         style="opacity:0.3;color:#000000;fill:url(#linearGradient5375);fill-opacity:1;fill-rule:nonzero;stroke:none;stroke-width:1.5;marker:none;visibility:visible;display:inline;overflow:visible;enable-background:accumulate"
         d="m 22.022322,1.3571427 c -0.299772,0 -0.555712,0.1647234 -0.691965,0.4092262 -0.456707,0.031614 -0.859874,0.2440179 -1.138393,0.5729167 -0.127154,-0.1714317 -0.3282,-0.2827381 -0.558035,-0.2827381 -0.385421,0 -0.699405,0.313984 -0.699405,0.6994048 0,0.1057904 0.02484,0.2003358 0.06696,0.2901786 -0.378217,0.085013 -0.662202,0.4145677 -0.662202,0.8184524 0,0.468011 0.372763,0.8482143 0.840774,0.8482143 0.367723,0 0.678865,-0.2380835 0.796131,-0.5654762 0.271937,0.5336234 0.825789,0.9002977 1.465773,0.9002977 0.260767,0 0.510093,-0.063126 0.729167,-0.171131 0.136181,0.1255312 0.321019,0.2008929 0.520833,0.2008929 0.3945,0 0.710677,-0.3008515 0.751489,-0.6845239 0.0736,0.011274 0.146459,0.022322 0.223214,0.022322 0.361221,0 0.695559,-0.1345812 0.952381,-0.3497024 0.170488,0.1928762 0.42174,0.3125 0.699405,0.3125 0.513895,0 0.930059,-0.4161652 0.930059,-0.9300595 0,-0.5138943 -0.416164,-0.9300597 -0.930059,-0.9300597 -0.07524,0 -0.153148,0.012905 -0.223215,0.029762 -0.170402,-0.6285712 -0.746071,-1.09375 -1.428571,-1.09375 -0.357317,0 -0.681874,0.1313007 -0.9375,0.3422619 C 22.59771,1.5362537 22.333462,1.3571427 22.022322,1.3571427 z"
         id="path4207"
         inkscape:connector-curvature="0" />
      <path
         id="path4236"
         d="m 17.394345,7.3467262 c 0.833445,0 1.539059,0.5205355 1.815477,1.2574405 0.695877,0.0124 1.25744,0.5809238 1.25744,1.2797619 0,0.7066044 -0.573157,1.2797624 -1.279762,1.2797624 -0.279842,0 -0.533444,-0.09312 -0.744047,-0.245536 -0.303242,0.195504 -0.66148,0.3125 -1.049108,0.3125 -0.09814,0 -0.195949,-0.0083 -0.290178,-0.02232 -0.109714,0.132942 -0.275482,0.223215 -0.46131,0.223215 -0.264288,0 -0.486345,-0.171522 -0.565476,-0.409227 -0.136429,0.04098 -0.281773,0.06696 -0.431548,0.06696 -0.825901,0 -1.495535,-0.669634 -1.495535,-1.495536 0,-0.6916926 0.47085,-1.272564 1.108631,-1.4434523 -0.0059,-0.036484 -0.01488,-0.073461 -0.01488,-0.1116072 0,-0.3854205 0.313984,-0.6919643 0.699405,-0.6919643 0.206236,0 0.393075,0.088422 0.520833,0.2306548 0.275459,-0.1496386 0.594537,-0.2306548 0.930059,-0.2306548 z"
         style="opacity:0.3;color:#000000;fill:url(#linearGradient5372);fill-opacity:1;fill-rule:nonzero;stroke:none;stroke-width:1.5;marker:none;visibility:visible;display:inline;overflow:visible;enable-background:accumulate"
         inkscape:connector-curvature="0" />
      <path
         style="opacity:0.5;color:#000000;fill:url(#linearGradient5369);fill-opacity:1;fill-rule:nonzero;stroke:none;stroke-width:1.5;marker:none;visibility:visible;display:inline;overflow:visible;enable-background:accumulate"
         d="m 23.45,9.307005 c -0.4274,0 -0.782645,0.31781 -0.840774,0.729167 -0.235771,0.09472 -0.451481,0.216308 -0.647321,0.372024 -0.115038,-0.121068 -0.273679,-0.200893 -0.453869,-0.200893 -0.348714,0 -0.632441,0.283726 -0.632441,0.63244 0,0.0026 -3.1e-5,0.0049 0,0.0074 -0.246601,0.01621 -0.482647,0.06352 -0.706845,0.141369 -0.131017,-0.15168 -0.326997,-0.245536 -0.543155,-0.245536 -0.389714,0 -0.706503,0.311554 -0.714286,0.699405 -0.01035,-5.24e-4 -0.01928,-0.0074 -0.02976,-0.0074 -0.286588,0 -0.529357,0.207109 -0.587797,0.476191 -0.584186,0.03953 -1.086339,0.361862 -1.376488,0.833333 -0.117286,-0.04961 -0.244109,-0.07441 -0.379465,-0.07441 -0.541424,0 -0.982143,0.440719 -0.982143,0.982143 0,0.541425 0.440719,0.974703 0.982143,0.974703 0.127204,0 0.245619,-0.02287 0.357143,-0.06696 0.306204,0.519829 0.870896,0.863096 1.517857,0.863096 0.208992,0 0.409244,-0.03736 0.595238,-0.104167 0.496623,0.573889 1.227629,0.9375 2.046132,0.9375 0.851002,0 1.609136,-0.39063 2.105655,-1.004464 0.289297,0.329349 0.710219,0.543154 1.183035,0.543154 0.367784,0 0.706343,-0.131369 0.974703,-0.342262 0.25179,0.130757 0.537452,0.208334 0.840774,0.208334 0.368795,0 0.709835,-0.109749 0.997023,-0.297619 0.118584,0.06122 0.251693,0.09673 0.394346,0.09673 0.415076,0 0.764988,-0.294275 0.848214,-0.684524 0.05622,0.366699 0.369064,0.647322 0.751488,0.647322 0.422126,0 0.766369,-0.336801 0.766369,-0.758929 0,-0.384539 -0.285083,-0.705307 -0.654762,-0.758929 0.0109,-0.06159 0.02231,-0.128734 0.02231,-0.193452 0,-0.596485 -0.482386,-1.078869 -1.078869,-1.078869 -0.200019,0 -0.38995,0.06148 -0.550596,0.15625 -0.05333,-0.07616 -0.107097,-0.156173 -0.171131,-0.223214 0.02522,-0.05964 0.0372,-0.124627 0.0372,-0.193453 0,-0.2753 -0.223212,-0.498512 -0.498512,-0.498512 -0.02219,0 -0.04555,0.0046 -0.06696,0.0074 -0.0041,-0.427793 -0.352491,-0.77381 -0.78125,-0.77381 -0.113677,0 -0.222517,0.0233 -0.319941,0.06696 C 25.513943,10.573854 24.94196,10.12342 24.261,9.9394455 24.165443,9.576135 23.843298,9.307005 23.449988,9.307005 z"
         id="path4240"
         inkscape:connector-curvature="0" />
      <path
         style="opacity:0.5;fill:#ffffff;fill-rule:evenodd;stroke:none"
         d="M 15.184718,15.547756 13,22 l 1,0 z"
         id="path5490"
         inkscape:connector-curvature="0"
         sodipodi:nodetypes="cccc" />
      <path
         style="opacity:0.3;fill:#ffffff;fill-rule:evenodd;stroke:none"
         d="m 11,16 -2,6 1,0 z"
         id="path5494"
         inkscape:connector-curvature="0"
         sodipodi:nodetypes="cccc" />
      <path
         sodipodi:nodetypes="cccc"
         inkscape:connector-curvature="0"
         id="path5496"
         d="M 11,11 7,22 8,22 z"
         style="opacity:0.5;fill:#ffffff;fill-rule:evenodd;stroke:none" />
      <path
         sodipodi:nodetypes="cccc"
         inkscape:connector-curvature="0"
         id="path5500"
         d="M 6.6114615,11.165616 3,22 4,22 z"
         style="opacity:0.5;fill:#ffffff;fill-rule:evenodd;stroke:none" />
      <path
         style="opacity:0.2;fill:#ffffff;fill-rule:evenodd;stroke:none"
         d="m 20,13 -3,9 1,0 z"
         id="path5504"
         inkscape:connector-curvature="0"
         sodipodi:nodetypes="cccc" />
      <path
         style="opacity:0.4;fill:#ffffff;fill-rule:evenodd;stroke:none"
         d="m 11.635155,18.818738 1.516581,-4.515949 -0.663239,0 z"
         id="path5508"
         inkscape:connector-curvature="0"
         sodipodi:nodetypes="cccc" />
      <path
         sodipodi:nodetypes="cccc"
         inkscape:connector-curvature="0"
         id="path5510"
         d="m 16.426021,18.825965 1.516581,-4.515949 -0.663239,0 z"
         style="opacity:0.3;fill:#ffffff;fill-rule:evenodd;stroke:none" />
      <path
         style="opacity:0.3;fill:#ffffff;fill-rule:evenodd;stroke:none"
         d="m 19.839292,19.454412 1.516581,-4.515949 -0.663239,0 z"
         id="path5512"
         inkscape:connector-curvature="0"
         sodipodi:nodetypes="cccc" />
      <path
         sodipodi:nodetypes="cccc"
         inkscape:connector-curvature="0"
         id="path5514"
         d="m 6.8778983,17.540161 1.516581,-4.515949 -0.663239,0 z"
         style="opacity:0.3;fill:#ffffff;fill-rule:evenodd;stroke:none" />
      <path
         style="opacity:0.3;fill:#ffffff;fill-rule:evenodd;stroke:none"
         d="m 2.2521848,17.648576 1.516581,-4.515949 -0.663239,0 z"
         id="path5729"
         inkscape:connector-curvature="0"
         sodipodi:nodetypes="cccc" />
    </g>
  </g>
  <g
     inkscape:groupmode="layer"
     id="layer5"
     inkscape:label="Button Highlights"
     sodipodi:insensitive="true">
    <path
       style="opacity:0.35;fill:url(#linearGradient4763);fill-opacity:1;fill-rule:evenodd;stroke:none;display:inline"
       d="M 4,2 C 2.892,2 2,2.892 2,4 l 0,16 c 0,1.108 0.892,2 2,2 l 16,0 c 1.108,0 2,-0.892 2,-2 L 22,4 C 22,2.892 21.108,2 20,2 L 4,2 z m 0,1.03125 16,0 c 0.5497,0 0.96875,0.4190495 0.96875,0.96875 l 0,16 c 0,0.5497 -0.41905,0.96875 -0.96875,0.96875 l -16,0 C 3.4502995,20.96875 3.03125,20.5497 3.03125,20 l 0,-16 C 3.03125,3.4502995 3.4502995,3.03125 4,3.03125 z"
       id="rect3050"
       inkscape:connector-curvature="0" />
    <path
       id="path3235"
       d="M 4,22 C 2.892,22 2,21.108 2,20 l 0,-1 c 0,1.108 0.892,2 2,2 l 16,0 c 1.108,0 2,-0.892 2,-2 l 0,1 c 0,1.108 -0.892,2 -2,2 L 4,22 z"
       style="opacity:0.2;fill:url(#linearGradient3845-6);fill-opacity:1;fill-rule:evenodd;stroke:none;display:inline"
       inkscape:connector-curvature="0" />
  </g>
</svg>
