<?xml version="1.0" encoding="UTF-8" standalone="no"?>
<!-- Created with Inkscape (http://www.inkscape.org/) -->

<svg
   xmlns:dc="http://purl.org/dc/elements/1.1/"
   xmlns:cc="http://creativecommons.org/ns#"
   xmlns:rdf="http://www.w3.org/1999/02/22-rdf-syntax-ns#"
   xmlns:svg="http://www.w3.org/2000/svg"
   xmlns="http://www.w3.org/2000/svg"
   xmlns:xlink="http://www.w3.org/1999/xlink"
   xmlns:sodipodi="http://sodipodi.sourceforge.net/DTD/sodipodi-0.dtd"
   xmlns:inkscape="http://www.inkscape.org/namespaces/inkscape"
   width="16"
   height="16"
   id="svg2"
   sodipodi:version="0.32"
   inkscape:version="0.48.1 r9760"
   version="1.0"
   sodipodi:docname="avatar-default.svg"
   inkscape:output_extension="org.inkscape.output.svg.inkscape">
  <defs
     id="defs4">
    <linearGradient
       id="StandardGradient"
       gradientTransform="scale(0.9219544,1.0846523)"
       x1="11.998966"
       y1="0.92195445"
       x2="11.998966"
       y2="19.387045"
       gradientUnits="userSpaceOnUse">
      <stop
         style="stop-color:#000000;stop-opacity:0.23529412;"
         offset="0"
         id="stop3283-1" />
      <stop
         id="stop3850"
         offset="0.69999999"
         style="stop-color:#000000;stop-opacity:0.39215686;" />
      <stop
         style="stop-color:#000000;stop-opacity:0.55;"
         offset="1"
         id="stop2651" />
    </linearGradient>
    <linearGradient
       id="StandardGradient-5"
       gradientTransform="scale(0.9219544,1.0846523)"
       x1="11.998966"
       y1="0.92195445"
       x2="11.998966"
       y2="19.387045"
       gradientUnits="userSpaceOnUse">
      <stop
         style="stop-color:#000000;stop-opacity:0.23529412;"
         offset="0"
         id="stop3283-1-0" />
      <stop
         id="stop3850-4"
         offset="0.69999999"
         style="stop-color:#000000;stop-opacity:0.39215686;" />
      <stop
         style="stop-color:#000000;stop-opacity:0.55;"
         offset="1"
         id="stop2651-8" />
    </linearGradient>
    <radialGradient
       inkscape:collect="always"
       xlink:href="#StandardGradient-5"
       id="radialGradient3058"
       gradientUnits="userSpaceOnUse"
       gradientTransform="matrix(1.0897833,0,0,0.69349844,-24.826707,0.24084798)"
       cx="12.687574"
       cy="14.072349"
       fx="12.687574"
       fy="14.072349"
       r="10.09375" />
    <radialGradient
       inkscape:collect="always"
       xlink:href="#StandardGradient"
       id="radialGradient3833"
       cx="9"
       cy="10.127841"
       fx="9"
       fy="10.127841"
       r="6.832387"
       gradientTransform="matrix(1.6099791,-3.5886283e-8,2.9361504e-8,1.3172556,-5.4898119,-3.3409549)"
       gradientUnits="userSpaceOnUse" />
    <radialGradient
       inkscape:collect="always"
       xlink:href="#StandardGradient"
       id="radialGradient3839"
       gradientUnits="userSpaceOnUse"
       gradientTransform="matrix(1.6099791,-3.5886283e-8,2.9361504e-8,1.3172556,-5.4898119,-3.3409549)"
       cx="9"
       cy="10.127841"
       fx="9"
       fy="10.127841"
       r="6.832387" />
    <radialGradient
       inkscape:collect="always"
       xlink:href="#StandardGradient"
       id="radialGradient3844"
       gradientUnits="userSpaceOnUse"
       gradientTransform="matrix(1.6099791,-3.5886283e-8,2.9361504e-8,1.3172556,-5.4898119,-3.3409549)"
       cx="9"
       cy="10.127841"
       fx="9"
       fy="10.127841"
       r="6.832387" />
    <radialGradient
       inkscape:collect="always"
       xlink:href="#StandardGradient"
       id="radialGradient3846"
       gradientUnits="userSpaceOnUse"
       gradientTransform="matrix(1.6099791,-3.5886283e-8,2.9361504e-8,1.3172556,-5.4898119,-3.3409549)"
       cx="9"
       cy="10.127841"
       fx="9"
       fy="10.127841"
       r="6.832387" />
  </defs>
  <sodipodi:namedview
     id="base"
     pagecolor="#7c7c7c"
     bordercolor="#ff6c6c"
     borderopacity="1"
     inkscape:pageopacity="1"
     inkscape:pageshadow="2"
     inkscape:zoom="22.762856"
     inkscape:cx="1.7533561"
     inkscape:cy="8.9520469"
     inkscape:document-units="px"
     inkscape:current-layer="layer1"
     showgrid="true"
     inkscape:showpageshadow="false"
     showguides="true"
     inkscape:guide-bbox="true"
     inkscape:window-width="1920"
     inkscape:window-height="1030"
     inkscape:window-x="0"
     inkscape:window-y="25"
     inkscape:window-maximized="1"
     inkscape:snap-global="true"
     borderlayer="true">
    <inkscape:grid
       type="xygrid"
       id="grid3672"
       visible="true"
       enabled="true"
       empspacing="8"
       snapvisiblegridlinesonly="true" />
    <sodipodi:guide
       orientation="1,0"
       position="9,3"
       id="guide2950" />
    <sodipodi:guide
       orientation="0,1"
       position="18,6"
       id="guide2952" />
  </sodipodi:namedview>
  <metadata
     id="metadata7">
    <rdf:RDF>
      <cc:Work
         rdf:about="">
        <dc:format>image/svg+xml</dc:format>
        <dc:type
           rdf:resource="http://purl.org/dc/dcmitype/StillImage" />
        <dc:title></dc:title>
      </cc:Work>
    </rdf:RDF>
  </metadata>
  <g
     inkscape:label="Calque 1"
     inkscape:groupmode="layer"
     id="layer1">
    <path
       inkscape:connector-curvature="0"
       style="opacity:0.05;fill:#ffffff;fill-opacity:1;stroke:none;display:inline"
       d="M 8,0 C 5.5736271,0 3.53125,1.8831703 3.53125,4.25 a 0.99446048,0.99446048 0 0 0 0,0.03125 c 0.00218,0.095821 -0.00491,0.2230638 0,0.34375 C 3.3882324,4.8960409 3.3209975,5.195796 3.3125,5.4375 3.296276,5.8989823 3.404445,6.335217 3.59375,6.78125 3.69062,7.0094912 3.8419097,7.167572 3.96875,7.34375 3.9727,7.41428 3.947939,7.4804583 4,7.71875 A 0.99446048,0.99446048 0 0 0 4.03125,7.8125 c 0.1303448,0.3910335 0.3063671,0.6840796 0.53125,1.03125 0.1620778,0.2502129 0.3515711,0.5029815 0.53125,0.75 0.018375,0.2112465 0.035432,0.408973 0.03125,0.59375 -0.5156625,0.318654 -1.3734524,0.662336 -2.3125,1.03125 -0.5395416,0.211964 -1.0637991,0.44448 -1.53125,0.75 -0.41582396,0.271777 -0.86991318,0.72722 -0.96875,1.375 l -0.03125,0 L 0.25,13.5625 0.1875,13.78125 A 0.99446048,0.99446048 0 0 0 1.15625,15 l 13.6875,0 A 0.99446048,0.99446048 0 0 0 15.8125,13.78125 L 15.75,13.5625 l -0.03125,-0.21875 -0.0625,0 C 15.59575,13.043392 15.500284,12.743893 15.34375,12.5625 15.142948,12.32981 14.914567,12.171785 14.6875,12.03125 14.233365,11.75018 13.752116,11.530076 13.21875,11.3125 12.288563,10.933048 11.421115,10.526177 10.90625,10.1875 10.90095,10.042524 10.87005,9.8986479 10.875,9.75 11.051207,9.4790799 11.228502,9.1968305 11.40625,8.90625 11.636555,8.5297511 11.832991,8.2197759 11.96875,7.8125 A 0.99446048,0.99446048 0 0 0 12,7.71875 c 0.05805,-0.2453838 0.04972,-0.3367629 0.0625,-0.4375 0.109945,-0.1494134 0.215678,-0.271872 0.3125,-0.5 C 12.554558,6.3581826 12.665537,5.9359607 12.65625,5.5 12.65085,5.2486815 12.57886,4.9911785 12.4375,4.71875 c 0.006,-0.1525338 0.02724,-0.319595 0.03125,-0.4375 a 0.99446048,0.99446048 0 0 0 0,-0.03125 C 12.46875,1.8831709 10.426374,0 8,0 z M 8,1 C 9.92713,1 11.46875,2.4513467 11.46875,4.25 11.46135,4.4679161 11.45434,4.747717 11.4375,5 11.722999,5.1795336 11.734497,5.780106 11.46875,6.40625 11.37422,6.62898 11.253325,6.7820586 11.125,6.9375 11.08469,7.1255618 11.08292,7.2815896 11.03125,7.5 10.88748,7.9313097 10.303249,8.807875 9.875,9.46875 c -0.027509,0.438541 -0.022871,0.867255 0.03125,1.3125 1.337594,1.163125 4.838149,1.785771 4.84375,2.78125 L 14.84375,14 1.15625,14 1.25,13.5625 c -0.00519,-1.163125 3.4895513,-1.657729 4.84375,-2.78125 0.093891,-0.547419 0.046084,-1.01881 0,-1.5 C 5.6237761,8.65469 5.0978288,7.8872356 4.96875,7.5 4.922494,7.2882799 4.943677,7.2164843 4.90625,7.03125 4.7522124,6.8654619 4.610929,6.6676168 4.5,6.40625 4.2202661,5.747151 4.2329502,5.077367 4.5625,4.9375 4.544225,4.7041783 4.5356,4.4415331 4.53125,4.25 4.53125,2.4513467 6.0728717,1 8,1 z"
       id="path3842" />
    <path
       style="fill:url(#radialGradient3833);fill-opacity:1.0;stroke:none;display:inline"
       d="M 7.9999997,1 C 6.0728714,1 4.5284089,2.4513466 4.5284089,4.2499999 c 0.00435,0.1915331 0.018657,0.4683828 0.036932,0.7017045 -0.3295498,0.139867 -0.3535979,0.7812419 -0.073864,1.4403409 0.110929,0.2613668 0.2522124,0.4620527 0.40625,0.6278408 0.037427,0.1852343 0.027607,0.2683936 0.073863,0.4801137 0.1290788,0.3872356 0.6379806,1.1461662 1.1079545,1.7727262 0.046084,0.48119 0.093891,0.966787 0,1.514206 -1.3541987,1.123521 -4.8432579,1.606761 -4.8380674,2.769886 L 1.167614,14 14.832388,14 14.758518,13.556818 C 14.752917,12.561339 11.258047,11.950057 9.9204527,10.786932 9.8663317,10.341687 9.8560147,9.895927 9.8835237,9.457386 10.311773,8.796511 10.88464,7.9313095 11.02841,7.4999998 c 0.05167,-0.2184104 0.07048,-0.3659154 0.110794,-0.5539772 0.128325,-0.1554414 0.237857,-0.3312473 0.332388,-0.5539773 0.265747,-0.626144 0.248569,-1.2238754 -0.03693,-1.403409 0.01684,-0.252283 0.02952,-0.5207203 0.03693,-0.7386364 C 11.471592,2.4513466 9.9271305,1 8.0000005,1 z"
       id="path3159"
       inkscape:connector-curvature="0" />
    <path
       inkscape:connector-curvature="0"
       style="opacity:0.3;fill:#000000;fill-opacity:1;stroke:none;display:inline"
       d="M 8,1 C 6.0728717,1 4.53125,2.4513467 4.53125,4.25 4.5356,4.4415331 4.544225,4.7041783 4.5625,4.9375 4.7316184,3.2885409 6.1876333,2 8,2 9.8123683,2 11.268382,3.2885409 11.4375,4.9375 11.452298,4.7041631 11.461956,4.4497879 11.46875,4.25 11.46875,2.4513467 9.92713,1 8,1 z M 4.5625,4.9375 C 4.279568,5.0575815 4.2399042,5.5717531 4.40625,6.125 4.448877,6.053372 4.491647,5.9675714 4.5625,5.9375 4.544225,5.7041783 4.5356,5.4415331 4.53125,5.25 4.53125,5.1428892 4.551791,5.0419144 4.5625,4.9375 z M 11.4375,5 c 0.0069,0.084187 0.03125,0.1641093 0.03125,0.25 C 11.46135,5.4679161 11.45434,5.747717 11.4375,6 11.496,6.03679 11.52666,6.087693 11.5625,6.15625 11.726524,5.627416 11.684457,5.1552966 11.4375,5 z M 9.875,10.46875 c -0.027509,0.438541 -0.022871,0.867255 0.03125,1.3125 1.068459,0.929095 3.494014,1.516798 4.4375,2.21875 l 0.5,0 L 14.75,13.5625 C 14.7444,12.567021 11.243844,11.944375 9.90625,10.78125 9.893332,10.674975 9.883008,10.574978 9.875,10.46875 z m -3.78125,0.0625 c -0.00835,0.08453 0.014999,0.162553 0,0.25 C 4.7395513,11.904771 1.2448095,12.399375 1.25,13.5625 L 1.15625,14 1.5625,14 c 0.8622122,-0.796752 3.4139279,-1.291755 4.53125,-2.21875 0.077593,-0.452395 0.035007,-0.849643 0,-1.25 z"
       id="path3818" />
    <path
       inkscape:connector-curvature="0"
       style="opacity:0.2;fill:#ffffff;fill-opacity:1;stroke:none;display:inline"
       d="M 4.40625,6.125 C 4.2506131,6.3865247 4.2804089,6.8888573 4.5,7.40625 4.610929,7.6676168 4.7522124,7.8654619 4.90625,8.03125 4.943677,8.2164843 4.922494,8.2882799 4.96875,8.5 c 0.1290788,0.3872356 0.6550261,1.15469 1.125,1.78125 0.008,0.08353 -0.00735,0.165907 0,0.25 0.043928,-0.444607 0.038722,-0.8456774 0,-1.25 C 5.6237761,8.65469 5.0978288,7.8872356 4.96875,7.5 4.922494,7.2882799 4.943677,7.2164843 4.90625,7.03125 4.7522124,6.8654619 4.610929,6.6676168 4.5,6.40625 4.4604291,6.3130145 4.4336583,6.2161568 4.40625,6.125 z m 7.15625,0.03125 c -0.0256,0.082535 -0.05787,0.1654706 -0.09375,0.25 C 11.37422,6.62898 11.253325,6.7820586 11.125,6.9375 11.08469,7.1255618 11.08292,7.2815896 11.03125,7.5 10.88748,7.9313097 10.303249,8.807875 9.875,9.46875 9.854711,9.7921988 9.851737,10.1093 9.875,10.4375 10.301716,9.7793513 10.88897,8.9268388 11.03125,8.5 11.08292,8.2815896 11.08469,8.1255618 11.125,7.9375 11.253325,7.7820586 11.374219,7.62898 11.46875,7.40625 11.680041,6.9084142 11.701574,6.4222514 11.5625,6.15625 z M 1.5625,14 C 1.3797077,14.168915 1.2490921,14.359046 1.25,14.5625 L 1.15625,15 14.84375,15 14.75,14.5625 C 14.748873,14.362201 14.581405,14.176815 14.34375,14 L 1.5625,14 z"
       id="path3827" />
    <path
       style="fill:#000000;fill-opacity:1;stroke:none;display:inline;opacity:0.3"
       d="M 8 1 C 6.0728717 1 4.53125 2.4513467 4.53125 4.25 C 4.5356 4.4415331 4.544225 4.7041783 4.5625 4.9375 C 4.2329502 5.077367 4.2202661 5.747151 4.5 6.40625 C 4.610929 6.6676168 4.7522124 6.8654619 4.90625 7.03125 C 4.943677 7.2164843 4.922494 7.2882799 4.96875 7.5 C 5.0978288 7.8872356 5.6237761 8.65469 6.09375 9.28125 C 6.139834 9.76244 6.187641 10.233831 6.09375 10.78125 C 4.7395513 11.904771 1.2448095 12.399375 1.25 13.5625 L 1.15625 14 L 14.84375 14 L 14.75 13.5625 C 14.744399 12.567021 11.243844 11.944375 9.90625 10.78125 C 9.852129 10.336005 9.847491 9.907291 9.875 9.46875 C 10.303249 8.807875 10.88748 7.9313097 11.03125 7.5 C 11.08292 7.2815896 11.084686 7.1255618 11.125 6.9375 C 11.253325 6.7820586 11.374219 6.62898 11.46875 6.40625 C 11.734497 5.780106 11.722999 5.1795336 11.4375 5 C 11.45434 4.747717 11.46134 4.4679161 11.46875 4.25 C 11.46875 2.4513467 9.92713 1 8 1 z M 8 1.5625 C 9.6333019 1.5625 10.88813 2.7555281 10.90625 4.21875 C 10.906382 4.2294352 10.90625 4.2392864 10.90625 4.25 C 10.899031 4.4669909 10.890039 4.7434546 10.875 4.96875 A 0.56152743 0.56152743 0 0 0 11.0625 5.4375 C 11.065949 5.449973 11.092192 5.4893347 11.09375 5.5625 C 11.096867 5.7088306 11.044013 5.9365375 10.9375 6.1875 C 10.874083 6.33692 10.810829 6.4443609 10.6875 6.59375 A 0.56152743 0.56152743 0 0 0 10.5625 6.8125 C 10.515361 7.0323987 10.527698 7.1703837 10.5 7.3125 C 10.464182 7.419955 10.304114 7.7498499 10.09375 8.09375 C 9.8833861 8.4376501 9.6221331 8.8230986 9.40625 9.15625 A 0.56152743 0.56152743 0 0 0 9.3125 9.4375 C 9.2833127 9.9027957 9.2848833 10.359463 9.34375 10.84375 A 0.56152743 0.56152743 0 0 0 9.53125 11.21875 C 10.345624 11.926901 11.595341 12.329971 12.625 12.75 C 13.139829 12.960015 13.584012 13.163653 13.875 13.34375 C 13.938794 13.383233 13.954848 13.402697 14 13.4375 L 1.9375 13.4375 C 1.9728774 13.388504 1.9566114 13.360057 2.125 13.25 C 2.4056476 13.066572 2.864226 12.888162 3.375 12.6875 C 4.3965481 12.286175 5.6088972 11.906206 6.4375 11.21875 A 0.56152743 0.56152743 0 0 0 6.65625 10.875 C 6.7645877 10.243351 6.7021384 9.6978978 6.65625 9.21875 A 0.56152743 0.56152743 0 0 0 6.53125 8.9375 C 6.3019648 8.6318215 6.0709141 8.3024489 5.875 8 C 5.6965559 7.7245211 5.5755461 7.4819601 5.53125 7.375 C 5.4982729 7.2240593 5.5199001 7.1594028 5.46875 6.90625 A 0.56152743 0.56152743 0 0 0 5.3125 6.65625 C 5.1935482 6.5282241 5.1150054 6.3848414 5.03125 6.1875 C 4.9192983 5.9237235 4.8694565 5.6576801 4.875 5.5 C 4.8777717 5.4211599 4.8829373 5.4012252 4.875 5.40625 A 0.56152743 0.56152743 0 0 0 5.125 4.90625 C 5.1082125 4.6919193 5.097982 4.4363388 5.09375 4.25 C 5.09375 2.7721705 6.3547728 1.5625 8 1.5625 z "
       id="path3835" />
  </g>
</svg>
