<?xml version="1.0" encoding="UTF-8" standalone="no"?>
<!-- Created with Inkscape (http://www.inkscape.org/) -->

<svg
   xmlns:dc="http://purl.org/dc/elements/1.1/"
   xmlns:cc="http://creativecommons.org/ns#"
   xmlns:rdf="http://www.w3.org/1999/02/22-rdf-syntax-ns#"
   xmlns:svg="http://www.w3.org/2000/svg"
   xmlns="http://www.w3.org/2000/svg"
   xmlns:xlink="http://www.w3.org/1999/xlink"
   xmlns:sodipodi="http://sodipodi.sourceforge.net/DTD/sodipodi-0.dtd"
   xmlns:inkscape="http://www.inkscape.org/namespaces/inkscape"
   width="16"
   height="16"
   id="svg2"
   sodipodi:version="0.32"
   inkscape:version="0.48.1 r9760"
   version="1.0"
   sodipodi:docname="bluetooth-active.svg"
   inkscape:output_extension="org.inkscape.output.svg.inkscape"
   style="display:inline"
   inkscape:export-filename="/home/matthieu/Eye-Candy/Faience/0.1/sources/status/small/audio-volume-high.png"
   inkscape:export-xdpi="90"
   inkscape:export-ydpi="90">
  <defs
     id="defs4">
    <linearGradient
       id="StandardGradient"
       gradientTransform="scale(0.9219544,1.0846523)"
       x1="11.998966"
       y1="0.92195445"
       x2="11.998966"
       y2="19.387045"
       gradientUnits="userSpaceOnUse">
      <stop
         style="stop-color:#000000;stop-opacity:0.23529412;"
         offset="0"
         id="stop3283-1" />
      <stop
         id="stop3850"
         offset="0.69999999"
         style="stop-color:#000000;stop-opacity:0.39215686;" />
      <stop
         style="stop-color:#000000;stop-opacity:0.55;"
         offset="1"
         id="stop2651" />
    </linearGradient>
    <radialGradient
       inkscape:collect="always"
       xlink:href="#StandardGradient"
       id="radialGradient3813"
       cx="26"
       cy="2"
       fx="26"
       fy="2"
       r="2"
       gradientUnits="userSpaceOnUse" />
    <radialGradient
       inkscape:collect="always"
       xlink:href="#SpecificGradient"
       id="radialGradient3817"
       gradientUnits="userSpaceOnUse"
       cx="26"
       cy="2"
       fx="26"
       fy="2"
       r="2"
       gradientTransform="translate(0,12)" />
    <linearGradient
       id="SpecificGradient"
       x1="10.406627"
       y1="2"
       x2="10.406627"
       y2="18.000771"
       gradientUnits="userSpaceOnUse">
      <stop
         style="stop-color:#e64b36;stop-opacity:1;"
         offset="0"
         id="stop3292" />
      <stop
         style="stop-color:#a31414;stop-opacity:1;"
         offset="1"
         id="stop3294" />
    </linearGradient>
    <radialGradient
       r="4.2487397"
       fy="11.531093"
       fx="13"
       cy="11.531093"
       cx="13"
       gradientTransform="matrix(3.0891514,0,0,1.6475475,-30.499797,-4.1230219)"
       gradientUnits="userSpaceOnUse"
       id="radialGradient3025"
       xlink:href="#StandardGradient"
       inkscape:collect="always" />
    <radialGradient
       inkscape:collect="always"
       xlink:href="#StandardGradient"
       id="radialGradient3825"
       gradientUnits="userSpaceOnUse"
       gradientTransform="matrix(3.0891514,0,0,1.6475475,-30.499797,-3.1230219)"
       cx="13"
       cy="11.531093"
       fx="13"
       fy="11.531093"
       r="4.2487397" />
    <radialGradient
       inkscape:collect="always"
       xlink:href="#StandardGradient"
       id="radialGradient3827"
       gradientUnits="userSpaceOnUse"
       gradientTransform="matrix(3.0891514,0,0,1.6475475,-30.499797,-10.123022)"
       cx="13"
       cy="11.531093"
       fx="13"
       fy="11.531093"
       r="4.2487397" />
    <radialGradient
       inkscape:collect="always"
       xlink:href="#StandardGradient"
       id="radialGradient3832"
       gradientUnits="userSpaceOnUse"
       gradientTransform="matrix(3.0891514,0,0,1.6475475,-30.499797,-9.1230219)"
       cx="13"
       cy="11.531093"
       fx="13"
       fy="11.531093"
       r="4.2487397" />
    <radialGradient
       inkscape:collect="always"
       xlink:href="#StandardGradient"
       id="radialGradient3836"
       gradientUnits="userSpaceOnUse"
       gradientTransform="matrix(3.0891514,0,0,1.6475475,-30.499797,-4.1230219)"
       cx="13"
       cy="11.531093"
       fx="13"
       fy="11.531093"
       r="4.2487397" />
    <radialGradient
       inkscape:collect="always"
       xlink:href="#StandardGradient"
       id="radialGradient3844"
       gradientUnits="userSpaceOnUse"
       gradientTransform="matrix(3.0891514,0,0,1.6475475,-30.499797,-4.1230219)"
       cx="13"
       cy="11.531093"
       fx="13"
       fy="11.531093"
       r="4.2487397" />
    <radialGradient
       inkscape:collect="always"
       xlink:href="#StandardGradient"
       id="radialGradient3848"
       gradientUnits="userSpaceOnUse"
       gradientTransform="matrix(3.0891514,0,0,1.6475475,-30.499797,-10.123022)"
       cx="13"
       cy="11.531093"
       fx="13"
       fy="11.531093"
       r="4.2487397" />
    <radialGradient
       inkscape:collect="always"
       xlink:href="#StandardGradient"
       id="radialGradient3855"
       gradientUnits="userSpaceOnUse"
       gradientTransform="matrix(3.0891514,0,0,1.6475475,-30.499797,-4.1230219)"
       cx="13"
       cy="11.531093"
       fx="13"
       fy="11.531093"
       r="4.2487397" />
    <radialGradient
       inkscape:collect="always"
       xlink:href="#StandardGradient"
       id="radialGradient3859"
       gradientUnits="userSpaceOnUse"
       gradientTransform="matrix(3.0891514,0,0,1.6475475,-30.499797,-4.1230219)"
       cx="13"
       cy="11.531093"
       fx="13"
       fy="11.531093"
       r="4.2487397" />
    <radialGradient
       inkscape:collect="always"
       xlink:href="#StandardGradient"
       id="radialGradient3861"
       gradientUnits="userSpaceOnUse"
       gradientTransform="matrix(3.0891514,0,0,1.6475475,-30.499797,-10.123022)"
       cx="13"
       cy="11.531093"
       fx="13"
       fy="11.531093"
       r="4.2487397" />
  </defs>
  <sodipodi:namedview
     id="base"
     pagecolor="#818181"
     bordercolor="#ffcfcf"
     borderopacity="1"
     inkscape:pageopacity="1"
     inkscape:pageshadow="2"
     inkscape:zoom="22.640002"
     inkscape:cx="-5.919608"
     inkscape:cy="5.0184975"
     inkscape:document-units="px"
     inkscape:current-layer="layer1"
     showgrid="true"
     inkscape:showpageshadow="false"
     showguides="true"
     inkscape:guide-bbox="true"
     inkscape:window-width="1920"
     inkscape:window-height="1030"
     inkscape:window-x="0"
     inkscape:window-y="25"
     inkscape:window-maximized="1"
     borderlayer="true"
     inkscape:snap-global="true">
    <sodipodi:guide
       orientation="0,1"
       position="26.278146,128"
       id="guide2385" />
    <sodipodi:guide
       orientation="1,0"
       position="128,54.082119"
       id="guide2387" />
    <sodipodi:guide
       orientation="0,1"
       position="60.863576,64.084768"
       id="guide2391" />
    <inkscape:grid
       type="xygrid"
       id="grid3672"
       visible="true"
       enabled="true"
       empspacing="8"
       snapvisiblegridlinesonly="true" />
    <sodipodi:guide
       orientation="1,0"
       position="13,6"
       id="guide3013" />
    <sodipodi:guide
       orientation="0,1"
       position="18,10"
       id="guide3015" />
  </sodipodi:namedview>
  <metadata
     id="metadata7">
    <rdf:RDF>
      <cc:Work
         rdf:about="">
        <dc:format>image/svg+xml</dc:format>
        <dc:type
           rdf:resource="http://purl.org/dc/dcmitype/StillImage" />
        <dc:title></dc:title>
      </cc:Work>
    </rdf:RDF>
  </metadata>
  <g
     inkscape:label="Icon"
     inkscape:groupmode="layer"
     id="layer1"
     style="display:inline"
     transform="translate(0,-6)">
    <path
       style="fill:#ffffff;fill-opacity:1;fill-rule:evenodd;display:inline;overflow:visible;opacity:0.2"
       d="M 6.875 0 A 0.99268772 0.99268772 0 0 0 6 1 L 6 4.21875 L 5.34375 3.5625 A 0.99268772 0.99268772 0 0 0 3.96875 3.53125 L 3.09375 4.375 A 0.99268772 0.99268772 0 0 0 3.09375 5.78125 L 5.3125 8 L 3.09375 10.21875 A 0.99268772 0.99268772 0 0 0 3.09375 11.59375 L 3.9375 12.4375 A 0.99268772 0.99268772 0 0 0 5.3125 12.4375 L 6 11.75 L 6 15 A 0.99268772 0.99268772 0 0 0 7.6875 15.71875 L 11.90625 11.53125 A 0.99268772 0.99268772 0 0 0 11.9375 10.125 L 9.75 7.9375 L 11.875 5.8125 A 0.99268772 0.99268772 0 0 0 11.875 4.40625 L 7.6875 0.28125 A 0.99268772 0.99268772 0 0 0 6.875 0 z M 7 1 L 11.1875 5.125 L 8.375 7.9375 L 11.21875 10.8125 L 7 15 L 7 9.375 L 4.625 11.75 L 3.78125 10.90625 L 6.6875 8 L 3.78125 5.09375 L 4.65625 4.25 L 7 6.59375 L 7 1 z M 8.09375 3.6875 L 8.09375 6.59375 L 9.5625 5.15625 L 8.09375 3.6875 z M 8.09375 9.28125 L 8.09375 12.1875 L 9.5625 10.75 L 8.09375 9.28125 z "
       transform="translate(0,6)"
       id="path3846" />
    <rect
       style="opacity:1;color:#000000;fill:url(#radialGradient3813);fill-opacity:1;fill-rule:nonzero;stroke:none;stroke-width:1;stroke-linecap:round;stroke-linejoin:round;stroke-miterlimit:4;stroke-opacity:1;stroke-dasharray:none;stroke-dashoffset:8.59999999999999787;marker:none;visibility:visible;display:inline;overflow:visible;enable-background:accumulate"
       id="rect3036"
       width="4"
       height="4"
       x="24"
       y="0"
       transform="translate(0,6)" />
    <rect
       y="12"
       x="24"
       height="4"
       width="4"
       id="rect3815"
       style="color:#000000;fill:url(#radialGradient3817);fill-opacity:1.0;fill-rule:nonzero;stroke:none;stroke-width:1;marker:none;visibility:visible;display:inline;overflow:visible;enable-background:accumulate" />
    <path
       inkscape:connector-curvature="0"
       style="fill:url(#radialGradient3025);fill-opacity:1.0;fill-rule:evenodd;display:inline;overflow:visible"
       d="m 7.0082932,7 0,5.6 L 4.6435874,10.235294 3.7965287,11.094118 6.6906473,13.988235 3.773,16.905882 4.631823,17.752942 7.0082941,15.376471 7.0082941,21 11.208294,16.8 8.361235,13.952941 11.196529,11.129412 7.0082932,7 z M 8.102413,9.682353 9.54947,11.152942 8.102413,12.6 l 0,-2.917647 z m 0,5.588236 L 9.54947,16.752941 8.102413,18.2 l 0,-2.929411 z"
       id="path3740" />
    <path
       style="fill:#000000;fill-opacity:1;fill-rule:evenodd;display:inline;overflow:visible;opacity:0.3"
       d="M 7 1 L 7 2 L 10.6875 5.625 L 11.1875 5.125 L 7 1 z M 4.65625 4.25 L 3.78125 5.09375 L 4.28125 5.59375 L 4.65625 5.25 L 7 7.59375 L 7 6.59375 L 4.65625 4.25 z M 9.0625 5.65625 L 8.09375 6.59375 L 8.09375 7.59375 L 9.5625 6.15625 L 9.0625 5.65625 z M 8.875 8.4375 L 8.375 8.9375 L 10.71875 11.3125 L 11.21875 10.8125 L 8.875 8.4375 z M 6.1875 8.5 L 3.78125 10.90625 L 4.28125 11.40625 L 6.6875 9 L 6.1875 8.5 z M 9.0625 11.25 L 8.09375 12.1875 L 8.09375 13.1875 L 9.5625 11.75 L 9.0625 11.25 z "
       transform="translate(0,6)"
       id="path3821" />
    <path
       style="fill:#ffffff;fill-opacity:1;fill-rule:evenodd;display:inline;overflow:visible;opacity:0.2"
       d="M 8.09375 3.6875 L 8.09375 4.6875 L 9.0625 5.65625 L 9.5625 5.15625 L 8.09375 3.6875 z M 4.28125 5.59375 L 3.78125 6.09375 L 6.1875 8.5 L 6.6875 8 L 4.28125 5.59375 z M 10.6875 5.625 L 8.375 7.9375 L 8.875 8.4375 L 11.1875 6.125 L 10.6875 5.625 z M 8.09375 9.28125 L 8.09375 10.28125 L 9.0625 11.25 L 9.5625 10.75 L 8.09375 9.28125 z M 7 9.375 L 4.625 11.75 L 4.28125 11.40625 L 3.78125 11.90625 L 4.625 12.75 L 7 10.375 L 7 9.375 z M 10.71875 11.3125 L 7 15 L 7 16 L 11.21875 11.8125 L 10.71875 11.3125 z "
       transform="translate(0,6)"
       id="path3830" />
    <path
       style="fill:#000000;fill-opacity:1;fill-rule:evenodd;display:inline;overflow:visible;opacity:0.3"
       d="M 7 1 L 7 6.59375 L 4.65625 4.25 L 3.78125 5.09375 L 6.6875 8 L 3.78125 10.90625 L 4.625 11.75 L 7 9.375 L 7 15 L 11.21875 10.8125 L 8.375 7.9375 L 11.1875 5.125 L 7 1 z M 7.5 2.1875 L 10.5 5.125 L 8.03125 7.59375 A 0.48591427 0.48591427 0 0 0 8.03125 8.28125 L 10.53125 10.8125 L 7.5 13.8125 L 7.5 9.375 A 0.48591427 0.48591427 0 0 0 6.65625 9.03125 L 4.625 11.0625 L 4.46875 10.90625 L 7.03125 8.34375 A 0.48591427 0.48591427 0 0 0 7.03125 7.65625 L 4.46875 5.09375 L 4.65625 4.9375 L 6.65625 6.9375 A 0.48591427 0.48591427 0 0 0 7.5 6.59375 L 7.5 2.1875 z M 7.96875 3.1875 A 0.48591427 0.48591427 0 0 0 7.59375 3.6875 L 7.59375 6.59375 A 0.48591427 0.48591427 0 0 0 8.4375 6.9375 L 9.90625 5.5 A 0.48591427 0.48591427 0 0 0 9.90625 4.8125 L 8.4375 3.34375 A 0.48591427 0.48591427 0 0 0 8.0625 3.1875 A 0.48591427 0.48591427 0 0 0 7.96875 3.1875 z M 8.09375 3.6875 L 9.5625 5.15625 L 8.09375 6.59375 L 8.09375 3.6875 z M 7.96875 8.78125 A 0.48591427 0.48591427 0 0 0 7.59375 9.28125 L 7.59375 12.1875 A 0.48591427 0.48591427 0 0 0 8.4375 12.53125 L 9.90625 11.09375 A 0.48591427 0.48591427 0 0 0 9.90625 10.40625 L 8.4375 8.9375 A 0.48591427 0.48591427 0 0 0 8.0625 8.78125 A 0.48591427 0.48591427 0 0 0 7.96875 8.78125 z M 8.09375 9.28125 L 9.5625 10.75 L 8.09375 12.1875 L 8.09375 9.28125 z "
       transform="translate(0,6)"
       id="path3851" />
    <path
       inkscape:connector-curvature="0"
       style="opacity:0.4;color:#000000;fill:#000000;fill-opacity:1;fill-rule:nonzero;stroke:none;stroke-width:1;marker:none;visibility:visible;display:inline;overflow:visible;enable-background:accumulate"
       d="M 12.625,25 C 12.27875,25 12,25.27875 12,25.625 L 12,28 11.625,28 C 11.27875,28 11,28.27875 11,28.625 l 0,2.75 C 11,31.72125 11.27875,32 11.625,32 l 3.75,0 C 15.72125,32 16,31.72125 16,31.375 l 0,-2.75 C 16,28.27875 15.72125,28 15.375,28 L 15,28 15,25.625 C 15,25.27875 14.72125,25 14.375,25 z m 0.375,1 1,0 0,2 -1,0 z"
       id="rect3648"
       sodipodi:nodetypes="sscsssssssscsssccccc" />
  </g>
</svg>
