<?xml version="1.0" encoding="UTF-8" standalone="no"?>
<!-- Created with Inkscape (http://www.inkscape.org/) -->

<svg
   xmlns:dc="http://purl.org/dc/elements/1.1/"
   xmlns:cc="http://creativecommons.org/ns#"
   xmlns:rdf="http://www.w3.org/1999/02/22-rdf-syntax-ns#"
   xmlns:svg="http://www.w3.org/2000/svg"
   xmlns="http://www.w3.org/2000/svg"
   xmlns:xlink="http://www.w3.org/1999/xlink"
   xmlns:sodipodi="http://sodipodi.sourceforge.net/DTD/sodipodi-0.dtd"
   xmlns:inkscape="http://www.inkscape.org/namespaces/inkscape"
   width="16"
   height="16"
   id="svg2"
   sodipodi:version="0.32"
   inkscape:version="0.48.1 r9760"
   version="1.0"
   sodipodi:docname="krb-expiring-ticket.svg"
   inkscape:output_extension="org.inkscape.output.svg.inkscape"
   style="display:inline"
   inkscape:export-filename="/home/matthieu/Eye-Candy/Faience/0.1/sources/status/small/audio-volume-high.png"
   inkscape:export-xdpi="90"
   inkscape:export-ydpi="90">
  <defs
     id="defs4">
    <linearGradient
       id="StandardGradient"
       gradientTransform="scale(0.9219544,1.0846523)"
       x1="11.998966"
       y1="0.92195445"
       x2="11.998966"
       y2="19.387045"
       gradientUnits="userSpaceOnUse">
      <stop
         style="stop-color:#000000;stop-opacity:0.23529412;"
         offset="0"
         id="stop3283-1" />
      <stop
         id="stop3850"
         offset="0.69999999"
         style="stop-color:#000000;stop-opacity:0.39215686;" />
      <stop
         style="stop-color:#000000;stop-opacity:0.55;"
         offset="1"
         id="stop2651" />
    </linearGradient>
    <radialGradient
       inkscape:collect="always"
       xlink:href="#StandardGradient"
       id="radialGradient3813"
       cx="26"
       cy="2"
       fx="26"
       fy="2"
       r="2"
       gradientUnits="userSpaceOnUse" />
    <radialGradient
       inkscape:collect="always"
       xlink:href="#SpecificGradient"
       id="radialGradient3817"
       gradientUnits="userSpaceOnUse"
       cx="26"
       cy="2"
       fx="26"
       fy="2"
       r="2"
       gradientTransform="translate(0,12)" />
    <linearGradient
       id="SpecificGradient"
       x1="10.406627"
       y1="2"
       x2="10.406627"
       y2="18.000771"
       gradientUnits="userSpaceOnUse">
      <stop
         style="stop-color:#e64b36;stop-opacity:1;"
         offset="0"
         id="stop3292" />
      <stop
         style="stop-color:#a31414;stop-opacity:1;"
         offset="1"
         id="stop3294" />
    </linearGradient>
    <radialGradient
       inkscape:collect="always"
       xlink:href="#SpecificGradient"
       id="radialGradient3864"
       gradientUnits="userSpaceOnUse"
       gradientTransform="matrix(2.7499999,8.1398199e-8,-5.9198689e-8,1.9999999,-25.77222,-8.9520706)"
       cx="12.644444"
       cy="12.476035"
       fx="12.644444"
       fy="12.476035"
       r="4" />
    <radialGradient
       inkscape:collect="always"
       xlink:href="#SpecificGradient"
       id="radialGradient3034"
       gradientUnits="userSpaceOnUse"
       gradientTransform="matrix(2.7499999,-4.409056e-8,3.4719418e-8,2.2500004,-25.772221,-12.071084)"
       cx="12.644444"
       cy="12.476036"
       fx="12.644444"
       fy="12.476036"
       r="4" />
  </defs>
  <sodipodi:namedview
     id="base"
     pagecolor="#818181"
     bordercolor="#ffcfcf"
     borderopacity="1"
     inkscape:pageopacity="1"
     inkscape:pageshadow="2"
     inkscape:zoom="22.640002"
     inkscape:cx="-13.981103"
     inkscape:cy="7.3701688"
     inkscape:document-units="px"
     inkscape:current-layer="layer1"
     showgrid="true"
     inkscape:showpageshadow="false"
     showguides="true"
     inkscape:guide-bbox="true"
     inkscape:window-width="1920"
     inkscape:window-height="1030"
     inkscape:window-x="0"
     inkscape:window-y="25"
     inkscape:window-maximized="1"
     borderlayer="true"
     inkscape:snap-global="true">
    <sodipodi:guide
       orientation="0,1"
       position="26.278146,128"
       id="guide2385" />
    <sodipodi:guide
       orientation="1,0"
       position="128,54.082119"
       id="guide2387" />
    <sodipodi:guide
       orientation="0,1"
       position="60.863576,64.084768"
       id="guide2391" />
    <inkscape:grid
       type="xygrid"
       id="grid3672"
       visible="true"
       enabled="true"
       empspacing="8"
       snapvisiblegridlinesonly="true" />
    <sodipodi:guide
       orientation="1,0"
       position="9,-3"
       id="guide3013" />
    <sodipodi:guide
       orientation="0,1"
       position="17,6"
       id="guide3015" />
  </sodipodi:namedview>
  <metadata
     id="metadata7">
    <rdf:RDF>
      <cc:Work
         rdf:about="">
        <dc:format>image/svg+xml</dc:format>
        <dc:type
           rdf:resource="http://purl.org/dc/dcmitype/StillImage" />
        <dc:title />
      </cc:Work>
    </rdf:RDF>
  </metadata>
  <g
     inkscape:label="Icon"
     inkscape:groupmode="layer"
     id="layer1"
     style="display:inline"
     transform="translate(0,-6)">
    <rect
       style="opacity:1;color:#000000;fill:url(#radialGradient3813);fill-opacity:1;fill-rule:nonzero;stroke:none;stroke-width:1;stroke-linecap:round;stroke-linejoin:round;stroke-miterlimit:4;stroke-opacity:1;stroke-dasharray:none;stroke-dashoffset:8.59999999999999787;marker:none;visibility:visible;display:inline;overflow:visible;enable-background:accumulate"
       id="rect3036"
       width="4"
       height="4"
       x="24"
       y="0"
       transform="translate(0,6)" />
    <rect
       y="12"
       x="24"
       height="4"
       width="4"
       id="rect3815"
       style="color:#000000;fill:url(#radialGradient3817);fill-opacity:1.0;fill-rule:nonzero;stroke:none;stroke-width:1;marker:none;visibility:visible;display:inline;overflow:visible;enable-background:accumulate" />
    <path
       inkscape:connector-curvature="0"
       style="opacity:0.05;color:#000000;fill:#ffffff;fill-opacity:1;fill-rule:nonzero;stroke:none;stroke-width:1;marker:none;visibility:visible;display:inline;overflow:visible;enable-background:accumulate"
       d="M 8.5,6 C 6.0186762,6 4,8.0186762 4,10.5 c 0,1.520609 0.8364275,2.746405 2,3.5625 L 6,19.5 a 1.0146952,1.0146952 0 0 0 0.28125,0.71875 l 1.5,1.5 a 1.0146952,1.0146952 0 0 0 1.4375,0 l 1.5,-1.5 A 1.0146952,1.0146952 0 0 0 11,19.5 L 11,18 A 1.0146952,1.0146952 0 0 0 10.71875,17.28125 L 10.4375,17 10.71875,16.71875 A 1.0146952,1.0146952 0 0 0 11,16 l 0,-1.9375 C 12.163572,13.246405 13,12.020609 13,10.5 13,8.0186764 10.981324,6 8.5,6 z m 0,1 c 1.932997,0 3.5,1.5670034 3.5,3.5 0,1.399431 -0.813097,2.596207 -2,3.15625 L 10,16 9,17 10,18 10,19.5 8.5,21 7,19.5 7,13.65625 C 5.8130968,13.096207 5,11.899431 5,10.5 5,8.5670034 6.5670034,7 8.5,7 z m 0,1.5 c -0.5522847,0 -1,0.4477153 -1,1 0,0.552285 0.4477153,1 1,1 0.5522847,0 1,-0.447715 1,-1 0,-0.5522847 -0.4477153,-1 -1,-1 z"
       id="path3841" />
    <path
       style="color:#000000;fill:url(#radialGradient3034);fill-opacity:1.0;fill-rule:nonzero;stroke:none;stroke-width:1;marker:none;visibility:visible;display:inline;overflow:visible;enable-background:accumulate"
       d="M 8.5,7 C 6.5670034,7 5,8.5670034 5,10.5 c 0,1.399431 0.8130968,2.596207 2,3.15625 L 7,19.5 8.5,21 10,19.5 10,18 9,17 10,16 10,13.65625 C 11.186903,13.096207 12,11.899431 12,10.5 12,8.5670034 10.432997,7 8.5,7 z m 0,1.5 c 0.5522847,0 1,0.4477153 1,1 0,0.552285 -0.4477153,1 -1,1 -0.5522847,0 -1,-0.447715 -1,-1 0,-0.5522847 0.4477153,-1 1,-1 z"
       id="path3745"
       inkscape:connector-curvature="0"
       sodipodi:nodetypes="ssccccccccsssssss" />
    <path
       inkscape:connector-curvature="0"
       style="opacity:0.25;color:#000000;fill:#000000;fill-opacity:1;fill-rule:nonzero;stroke:none;stroke-width:1;marker:none;visibility:visible;display:inline;overflow:visible;enable-background:accumulate"
       d="M 8.5,7 C 6.5670034,7 5,8.5670034 5,10.5 c 0,1.399431 0.8130968,2.596207 2,3.15625 L 7,19.5 8.5,21 10,19.5 10,18 9,17 10,16 10,13.65625 C 11.186903,13.096207 12,11.899431 12,10.5 12,8.5670034 10.432997,7 8.5,7 z m 0,0.53125 c 1.637835,0 2.96875,1.3309156 2.96875,2.96875 0,1.187881 -0.685102,2.183266 -1.6875,2.65625 a 0.54620625,0.54620625 0 0 0 -0.3125,0.5 l 0,2.125 L 8.625,16.625 a 0.54620625,0.54620625 0 0 0 0,0.75 l 0.84375,0.84375 0,1.0625 L 8.5,20.25 7.53125,19.28125 l 0,-5.625 a 0.54620625,0.54620625 0 0 0 -0.3125,-0.5 C 6.2163516,12.683266 5.53125,11.687881 5.53125,10.5 5.53125,8.8621657 6.8621657,7.53125 8.5,7.53125 z m 0,0.4375 c -0.847447,0 -1.53125,0.683803 -1.53125,1.53125 0,0.847447 0.683803,1.53125 1.53125,1.53125 0.847447,0 1.53125,-0.683803 1.53125,-1.53125 C 10.03125,8.652553 9.347447,7.96875 8.5,7.96875 z M 8.5,8.5 c 0.5522847,0 1,0.4477153 1,1 0,0.552285 -0.4477153,1 -1,1 -0.5522847,0 -1,-0.447715 -1,-1 0,-0.5522847 0.4477153,-1 1,-1 z"
       id="path3036" />
    <path
       inkscape:connector-curvature="0"
       style="opacity:0.25;color:#000000;fill:#000000;fill-opacity:1;fill-rule:nonzero;stroke:none;stroke-width:1;marker:none;visibility:visible;display:inline;overflow:visible;enable-background:accumulate"
       d="M 8.5,7 C 6.5670034,7 5,8.5670034 5,10.5 5,10.674929 5.0066987,10.832252 5.03125,11 5.2713411,9.3009988 6.7347353,8 8.5,8 10.265265,8 11.728659,9.3009988 11.96875,11 11.993301,10.832252 12,10.674929 12,10.5 12,8.5670034 10.432997,7 8.5,7 z M 7.65625,10 C 7.5666305,10.149872 7.5,10.31268 7.5,10.5 c 0,0.552285 0.4477153,1 1,1 0.5522847,0 1,-0.447715 1,-1 C 9.5,10.31268 9.4333695,10.149872 9.34375,10 9.1691392,10.292004 8.8649652,10.5 8.5,10.5 8.1350348,10.5 7.8308608,10.292004 7.65625,10 z M 9.5,17.5 9,18 l 1,1 0,-1 -0.5,-0.5 z"
       id="path3817" />
    <path
       inkscape:connector-curvature="0"
       style="opacity:0.2;color:#000000;fill:#ffffff;fill-opacity:1;fill-rule:nonzero;stroke:none;stroke-width:1;marker:none;visibility:visible;display:inline;overflow:visible;enable-background:accumulate"
       d="m 8.5,8.5 c -0.5522847,0 -1,0.4477153 -1,1 0,0.1873196 0.06663,0.350128 0.15625,0.5 C 7.8308608,9.707996 8.1350348,9.5 8.5,9.5 8.8649652,9.5 9.1691392,9.707996 9.34375,10 9.4333695,9.850128 9.5,9.6873196 9.5,9.5 c 0,-0.5522847 -0.4477153,-1 -1,-1 z M 5.03125,11.03125 C 5.0111422,11.18306 5,11.342695 5,11.5 c 0,1.399431 0.8130968,2.596207 2,3.15625 l 0,-1 C 5.9701869,13.17033 5.2113183,12.192321 5.03125,11.03125 z m 6.9375,0 C 11.788682,12.192321 11.029813,13.17033 10,13.65625 l 0,1 c 1.186903,-0.560043 2,-1.756819 2,-3.15625 0,-0.157305 -0.01114,-0.31694 -0.03125,-0.46875 z M 10,16 9,17 9.5,17.5 10,17 10,16 z m -3,3.5 0,1 1.5,1.5 1.5,-1.5 0,-1 L 8.5,21 7,19.5 z"
       id="path3826" />
  </g>
</svg>
