<?xml version="1.0" encoding="UTF-8" standalone="no"?>
<!-- Created with Inkscape (http://www.inkscape.org/) -->

<svg
   xmlns:dc="http://purl.org/dc/elements/1.1/"
   xmlns:cc="http://creativecommons.org/ns#"
   xmlns:rdf="http://www.w3.org/1999/02/22-rdf-syntax-ns#"
   xmlns:svg="http://www.w3.org/2000/svg"
   xmlns="http://www.w3.org/2000/svg"
   xmlns:xlink="http://www.w3.org/1999/xlink"
   xmlns:sodipodi="http://sodipodi.sourceforge.net/DTD/sodipodi-0.dtd"
   xmlns:inkscape="http://www.inkscape.org/namespaces/inkscape"
   width="16"
   height="16"
   id="svg2"
   sodipodi:version="0.32"
   inkscape:version="0.48.1 r9760"
   version="1.0"
   sodipodi:docname="network-transmit.svg"
   inkscape:output_extension="org.inkscape.output.svg.inkscape"
   style="display:inline"
   inkscape:export-filename="/home/matthieu/Eye-Candy/Faience/0.1/sources/status/small/audio-volume-high.png"
   inkscape:export-xdpi="90"
   inkscape:export-ydpi="90">
  <defs
     id="defs4">
    <linearGradient
       id="StandardGradient"
       gradientTransform="scale(0.9219544,1.0846523)"
       x1="11.998966"
       y1="0.92195445"
       x2="11.998966"
       y2="19.387045"
       gradientUnits="userSpaceOnUse">
      <stop
         style="stop-color:#000000;stop-opacity:0.23529412;"
         offset="0"
         id="stop3283-1" />
      <stop
         id="stop3850"
         offset="0.69999999"
         style="stop-color:#000000;stop-opacity:0.39215686;" />
      <stop
         style="stop-color:#000000;stop-opacity:0.55;"
         offset="1"
         id="stop2651" />
    </linearGradient>
    <radialGradient
       inkscape:collect="always"
       xlink:href="#StandardGradient"
       id="radialGradient3813"
       cx="26"
       cy="2"
       fx="26"
       fy="2"
       r="2"
       gradientUnits="userSpaceOnUse" />
    <radialGradient
       inkscape:collect="always"
       xlink:href="#SpecificGradient"
       id="radialGradient3817"
       gradientUnits="userSpaceOnUse"
       cx="26"
       cy="2"
       fx="26"
       fy="2"
       r="2"
       gradientTransform="translate(0,12)" />
    <linearGradient
       id="SpecificGradient"
       x1="10.406627"
       y1="2"
       x2="10.406627"
       y2="18.000771"
       gradientUnits="userSpaceOnUse">
      <stop
         style="stop-color:#e64b36;stop-opacity:1;"
         offset="0"
         id="stop3292" />
      <stop
         style="stop-color:#a31414;stop-opacity:1;"
         offset="1"
         id="stop3294" />
    </linearGradient>
    <linearGradient
       id="StandardGradient-1"
       gradientTransform="scale(1.1467263,0.8720476)"
       x1="7.1904788"
       y1="6.9551144"
       x2="7.1904788"
       y2="18.319494"
       gradientUnits="userSpaceOnUse">
      <stop
         style="stop-color:#000000;stop-opacity:0.86274511;"
         offset="0"
         id="stop3280" />
      <stop
         style="stop-color:#000000;stop-opacity:0.47058824;"
         offset="1"
         id="stop3282" />
    </linearGradient>
    <radialGradient
       inkscape:collect="always"
       xlink:href="#StandardGradient"
       id="radialGradient3836"
       cx="9"
       cy="9.9982185"
       fx="9"
       fy="9.9982185"
       r="7.9858136"
       gradientTransform="matrix(1.3774426,2.764074e-8,-2.2615151e-8,1.1269985,-3.3969833,-1.2679776)"
       gradientUnits="userSpaceOnUse" />
    <radialGradient
       inkscape:collect="always"
       xlink:href="#StandardGradient"
       id="radialGradient3804"
       gradientUnits="userSpaceOnUse"
       gradientTransform="matrix(1.3774426,2.764074e-8,-2.2615151e-8,1.1269985,-3.3969833,-1.2679776)"
       cx="9"
       cy="9.9982185"
       fx="9"
       fy="9.9982185"
       r="7.9858136" />
    <radialGradient
       inkscape:collect="always"
       xlink:href="#StandardGradient"
       id="radialGradient3808"
       gradientUnits="userSpaceOnUse"
       gradientTransform="matrix(1.3774426,2.764074e-8,-2.2615151e-8,1.1269985,-3.3969833,-7.2679776)"
       cx="9"
       cy="9.9982185"
       fx="9"
       fy="9.9982185"
       r="7.9858136" />
  </defs>
  <sodipodi:namedview
     id="base"
     pagecolor="#818181"
     bordercolor="#ffcfcf"
     borderopacity="1"
     inkscape:pageopacity="1"
     inkscape:pageshadow="2"
     inkscape:zoom="22.640002"
     inkscape:cx="-5.919608"
     inkscape:cy="4.3559534"
     inkscape:document-units="px"
     inkscape:current-layer="layer1"
     showgrid="true"
     inkscape:showpageshadow="false"
     showguides="true"
     inkscape:guide-bbox="true"
     inkscape:window-width="1920"
     inkscape:window-height="1030"
     inkscape:window-x="0"
     inkscape:window-y="25"
     inkscape:window-maximized="1"
     borderlayer="true"
     inkscape:snap-global="true">
    <sodipodi:guide
       orientation="0,1"
       position="26.278146,128"
       id="guide2385" />
    <sodipodi:guide
       orientation="1,0"
       position="128,54.082119"
       id="guide2387" />
    <sodipodi:guide
       orientation="0,1"
       position="60.863576,64.084768"
       id="guide2391" />
    <inkscape:grid
       type="xygrid"
       id="grid3672"
       visible="true"
       enabled="true"
       empspacing="8"
       snapvisiblegridlinesonly="true" />
    <sodipodi:guide
       orientation="1,0"
       position="9,-3"
       id="guide3013" />
    <sodipodi:guide
       orientation="0,1"
       position="17,6"
       id="guide3015" />
  </sodipodi:namedview>
  <metadata
     id="metadata7">
    <rdf:RDF>
      <cc:Work
         rdf:about="">
        <dc:format>image/svg+xml</dc:format>
        <dc:type
           rdf:resource="http://purl.org/dc/dcmitype/StillImage" />
        <dc:title></dc:title>
      </cc:Work>
    </rdf:RDF>
  </metadata>
  <g
     inkscape:label="Icon"
     inkscape:groupmode="layer"
     id="layer1"
     style="display:inline"
     transform="translate(0,-6)">
    <path
       style="fill:#ffffff;fill-opacity:1;stroke:none;display:inline;opacity:0.05"
       d="M 5.9375 6.03125 C 5.9440391 6.031154 5.8372296 6.063015 5.84375 6.0625 C 5.8502704 6.061985 5.7435239 6.063432 5.75 6.0625 C 5.7564761 6.061568 5.6498436 6.095095 5.65625 6.09375 A 0.94106619 0.94106619 0 0 0 5.5625 6.09375 C 5.5690491 6.091594 5.4311048 6.158845 5.4375 6.15625 C 5.4438952 6.153655 5.3375372 6.190524 5.34375 6.1875 C 5.3499628 6.184476 5.2439977 6.25344 5.25 6.25 C 5.2560023 6.24656 5.1504856 6.285093 5.15625 6.28125 C 5.1620144 6.277407 5.0882502 6.347979 5.09375 6.34375 C 5.0992498 6.339521 4.9947905 6.410848 5 6.40625 C 5.0052095 6.401652 4.9326055 6.504947 4.9375 6.5 C 4.9393825 6.498097 4.9201451 6.516191 4.90625 6.53125 C 4.8923549 6.546309 4.8850133 6.551742 4.875 6.5625 C 4.868992 6.568955 4.8426986 6.563717 4.84375 6.5625 L 2.53125 8.90625 C 2.5383206 8.899267 2.4311221 9.007649 2.4375 9 C 2.4438779 8.992351 2.3381283 9.133247 2.34375 9.125 C 2.3493717 9.116753 2.2451915 9.258768 2.25 9.25 C 2.2548085 9.241232 2.1835541 9.415457 2.1875 9.40625 C 2.1914459 9.397043 2.121958 9.540809 2.125 9.53125 C 2.128042 9.521691 2.091644 9.697319 2.09375 9.6875 C 2.095856 9.677681 2.0613523 9.853733 2.0625 9.84375 C 2.0636477 9.833767 2.062323 9.9788 2.0625 9.96875 A 0.94106619 0.94106619 0 0 0 2.0625 10 L 2.0625 11.5 L -0.40625 13.96875 C -1.0706629 14.63316 -1.0706612 15.741839 -0.40625 16.40625 C 0.25815934 17.070661 1.3668406 17.070661 2.03125 16.40625 L 4.5 13.9375 L 6 13.9375 A 0.94106619 0.94106619 0 0 0 6.03125 13.9375 C 6.0214453 13.937699 6.1659932 13.936361 6.15625 13.9375 C 6.1465068 13.938639 6.3220957 13.904179 6.3125 13.90625 C 6.3029043 13.908321 6.4781128 13.872014 6.46875 13.875 C 6.4593872 13.877986 6.6027958 13.808623 6.59375 13.8125 C 6.5847042 13.816377 6.7586464 13.745264 6.75 13.75 C 6.7413536 13.754736 6.8831671 13.650694 6.875 13.65625 C 6.8668329 13.661806 7.007611 13.556171 7 13.5625 C 6.992389 13.568829 7.1007319 13.461703 7.09375 13.46875 L 9.46875 11.09375 A 0.94106619 0.94106619 0 0 0 9.5 11.09375 C 9.4931631 11.100844 9.5998906 10.961019 9.59375 10.96875 C 9.5876094 10.976481 9.6928841 10.83545 9.6875 10.84375 C 9.6821159 10.85205 9.7545738 10.709956 9.75 10.71875 C 9.7454262 10.727544 9.8162172 10.584544 9.8125 10.59375 C 9.8087828 10.602956 9.8778223 10.427967 9.875 10.4375 C 9.8721777 10.447033 9.9081481 10.302731 9.90625 10.3125 C 9.9043519 10.322269 9.9384541 10.146338 9.9375 10.15625 C 9.9365459 10.166162 9.9375 9.99004 9.9375 10 C 9.9375 10.00996 9.9365459 9.833838 9.9375 9.84375 C 9.9384541 9.853662 9.9043519 9.677731 9.90625 9.6875 C 9.9081481 9.697269 9.8721777 9.552967 9.875 9.5625 C 9.8778223 9.572033 9.8087828 9.397044 9.8125 9.40625 C 9.8162172 9.415456 9.7454262 9.272456 9.75 9.28125 C 9.7545738 9.290044 9.6821159 9.14795 9.6875 9.15625 C 9.6928841 9.16455 9.5876094 9.023519 9.59375 9.03125 C 9.5998906 9.038981 9.4931631 8.899156 9.5 8.90625 A 0.94106619 0.94106619 0 0 0 9.46875 8.90625 L 7.125 6.53125 C 7.1261297 6.532459 7.1006034 6.538093 7.09375 6.53125 C 7.0731899 6.510722 7.0588902 6.465352 7.0625 6.46875 C 7.067313 6.473281 6.9636633 6.402043 6.96875 6.40625 C 6.9738367 6.410457 6.9009114 6.339884 6.90625 6.34375 C 6.9115886 6.347616 6.8069319 6.277739 6.8125 6.28125 C 6.8180681 6.284761 6.7129755 6.246858 6.71875 6.25 C 6.7245245 6.253142 6.6190429 6.184738 6.625 6.1875 C 6.6309571 6.190262 6.5251346 6.153878 6.53125 6.15625 C 6.5373654 6.158622 6.4312508 6.123027 6.4375 6.125 C 6.4437492 6.126973 6.3373921 6.092182 6.34375 6.09375 C 6.3501079 6.095318 6.2435586 6.061344 6.25 6.0625 C 6.2564414 6.063656 6.1497505 6.061759 6.15625 6.0625 C 6.1627495 6.063241 6.0559679 6.062177 6.0625 6.0625 C 6.0690321 6.062823 5.9309609 6.031346 5.9375 6.03125 z M 5.84375 7 A 0.63312664 0.63136584 0 0 1 6.4375 7.1875 L 8.8125 9.5625 A 0.63312664 0.63136584 0 0 1 8.8125 10.4375 L 6.4375 12.8125 A 0.63312664 0.63136584 0 0 1 6 13 L 4.125 13 L 1.375 15.75 C 1.0605817 16.064419 0.56441825 16.064419 0.25 15.75 C -0.06441823 15.435582 -0.06441823 14.939417 0.25 14.625 L 3 11.875 L 3 10 A 0.63312664 0.63136584 0 0 1 3.1875 9.5625 L 5.5625 7.1875 A 0.63312664 0.63136584 0 0 1 5.84375 7 z "
       transform="translate(0,6)"
       id="path3806" />
    <path
       inkscape:connector-curvature="0"
       style="opacity:0.2;fill:#ffffff;fill-opacity:1;stroke:none;display:inline"
       d="M 8.75,16.5 6.4375,18.8125 C 6.3231288,18.927941 6.1626987,18.996697 6,19 l -1.875,0 -2.75,2.75 C 1.2177909,21.90721 1.0151454,22 0.8125,22 l 1.3125,0 2,-2 L 6,20 c 0.1626987,-0.0033 0.3231288,-0.07206 0.4375,-0.1875 l 2.375,-2.375 c 0.2239116,-0.232328 0.2239116,-0.642672 0,-0.875 z M 0.8125,22 C 0.60985457,22 0.40720913,21.90721 0.25,21.75 0.2279907,21.72799 0.206428,21.71117 0.1875,21.6875 0.11131887,21.78275 0.08862739,21.887289 0.0625,22 z"
       id="path3752"
       sodipodi:nodetypes="ccccscccccccccsccc" />
    <rect
       style="opacity:1;color:#000000;fill:url(#radialGradient3813);fill-opacity:1;fill-rule:nonzero;stroke:none;stroke-width:1;stroke-linecap:round;stroke-linejoin:round;stroke-miterlimit:4;stroke-opacity:1;stroke-dasharray:none;stroke-dashoffset:8.59999999999999787;marker:none;visibility:visible;display:inline;overflow:visible;enable-background:accumulate"
       id="rect3036"
       width="4"
       height="4"
       x="24"
       y="0"
       transform="translate(0,6)" />
    <rect
       y="12"
       x="24"
       height="4"
       width="4"
       id="rect3815"
       style="color:#000000;fill:url(#radialGradient3817);fill-opacity:1.0;fill-rule:nonzero;stroke:none;stroke-width:1;marker:none;visibility:visible;display:inline;overflow:visible;enable-background:accumulate" />
    <path
       style="fill:#000000;fill-opacity:1;stroke:none;display:inline;opacity:0.2"
       d="m 15.1875,6 c -0.202645,0 -0.405291,0.061541 -0.5625,0.21875 l -2.75,2.75 -1.875,0 a 0.63312664,0.63136584 0 0 0 -0.4375,0.1875 l -2.375,2.375 a 0.63312664,0.63136584 0 0 0 0,0.875 l 2.375,2.375 a 0.63312664,0.63136584 0 0 0 0.59375,0.1875 0.63312664,0.63136584 0 0 0 0.28125,-0.1875 l 2.375,-2.375 A 0.63312664,0.63136584 0 0 0 13,11.96875 l 0,-1.875 2.75,-2.75 c 0.314418,-0.314417 0.314418,-0.8105819 0,-1.125 C 15.592791,6.0615405 15.390145,6 15.1875,6 z"
       id="path3798" />
    <path
       style="fill:url(#radialGradient3836);fill-opacity:1;stroke:none;display:inline"
       d="M 5.84375,13 A 0.63312664,0.63136584 0 0 0 5.5625,13.1875 l -2.375,2.375 A 0.63312664,0.63136584 0 0 0 3,16 l 0,1.875 -2.75,2.75 c -0.31441823,0.314417 -0.31441823,0.810582 0,1.125 0.31441825,0.314419 0.8105817,0.314419 1.125,0 L 4.125,19 6,19 a 0.63312664,0.63136584 0 0 0 0.4375,-0.1875 l 2.375,-2.375 a 0.63312664,0.63136584 0 0 0 0,-0.875 l -2.375,-2.375 A 0.63312664,0.63136584 0 0 0 5.84375,13 z"
       id="path3708" />
    <path
       style="opacity:0.3;fill:#000000;fill-opacity:1;stroke:none;display:inline"
       d="M 5.84375,7 C 5.7353462,7.0356835 5.637002,7.1012463 5.5625,7.1875 l -2.375,2.375 C 3.0716445,9.6769269 3.0028631,9.8374168 3,10 l 0,1.875 -2.75,2.75 c -0.31441823,0.314417 -0.31441823,0.810582 0,1.125 0.31441825,0.314419 0.8105817,0.314419 1.125,0 L 4.125,13 6,13 c 0.1626987,-0.0033 0.3231288,-0.07206 0.4375,-0.1875 l 2.375,-2.375 c 0.2239116,-0.232328 0.2239116,-0.6426722 0,-0.875 L 6.4375,7.1875 C 6.2895711,7.0291195 6.0561351,6.9554028 5.84375,7 z m 0.125,0.5 c 0.02461,0.00122 0.00677,-0.00279 0.03125,0 0.023498,0.00742 0.00827,-0.00891 0.03125,0 0.022358,0.010367 -0.021648,0.01947 0,0.03125 0.019964,0.014456 0.012254,-0.015709 0.03125,0 -3.14e-4,0.010414 -3.14e-4,0.020836 0,0.03125 l 2.375,2.375 0.03125,0 c 0.00847,0.016285 -0.00768,0.014577 0,0.03125 0.00263,0.01817 -0.00176,0.012975 0,0.03125 -0.00176,0.01827 0.00263,0.01308 0,0.03125 -0.00768,0.01667 0.00847,0.01497 0,0.03125 -0.00924,0.01586 -0.021261,-0.0154 -0.03125,0 l -2.375,2.375 c -0.013625,0.01249 0.01421,0.01943 0,0.03125 -0.015761,0.0096 -0.015043,-0.0089 -0.03125,0 -0.017851,0.0048 -0.013191,-0.0039 -0.03125,0 l -1.875,0 C 3.9858584,12.467659 3.8472005,12.525433 3.75,12.625 L 1,15.375 c -0.12162724,0.121628 -0.25337283,0.121627 -0.375,0 -0.1216261,-0.121626 -0.12162518,-0.253375 0,-0.375 l 2.75,-2.75 c 0.099567,-0.0972 0.1573414,-0.235858 0.15625,-0.375 l 0,-1.875 c 0.00389,-0.018117 -0.00476,-0.013343 0,-0.03125 0.00891,-0.016243 -0.00968,-0.015457 0,-0.03125 0.011861,-0.014226 0.018716,0.013636 0.03125,0 l 2.375,-2.375 c 0.010854,-0.00997 0.021284,-0.020396 0.03125,-0.03125 0.018239,-0.018435 -0.019441,-0.014091 0,-0.03125 z"
       transform="translate(0,6)"
       id="path3838"
       inkscape:connector-curvature="0"
       sodipodi:nodetypes="cccccsssccccccccccccccccccccccccccsssccccccccc" />
    <path
       inkscape:connector-curvature="0"
       style="opacity:0.3;fill:#000000;fill-opacity:1;stroke:none;display:inline"
       d="m 5.84375,13 c -0.1084038,0.03568 -0.206748,0.101246 -0.28125,0.1875 l -2.375,2.375 C 3.0716445,15.676927 3.0028631,15.837417 3,16 l 0,0.90625 c 0.024214,-0.130404 0.090878,-0.252622 0.1875,-0.34375 l 2.375,-2.375 C 5.637002,14.101246 5.7353462,14.035683 5.84375,14 c 0.2123851,-0.0446 0.4458211,0.02912 0.59375,0.1875 L 8.75,16.5 8.8125,16.4375 c 0.2239116,-0.232328 0.2239116,-0.642672 0,-0.875 l -2.375,-2.375 C 6.2895711,13.029119 6.0561351,12.955403 5.84375,13 z M 3,17.875 0.25,20.625 C -0.04240895,20.917408 -0.0639717,21.373084 0.1875,21.6875 0.206428,21.66383 0.2279907,21.64701 0.25,21.625 L 3,18.875 z"
       id="path3737"
       sodipodi:nodetypes="cccccccccccccccscccc" />
    <path
       inkscape:connector-curvature="0"
       style="opacity:0.4;color:#000000;fill:#000000;fill-opacity:1;fill-rule:nonzero;stroke:none;stroke-width:1;marker:none;visibility:visible;display:inline;overflow:visible;enable-background:accumulate"
       d="M 12.625,25 C 12.27875,25 12,25.27875 12,25.625 L 12,28 11.625,28 C 11.27875,28 11,28.27875 11,28.625 l 0,2.75 C 11,31.72125 11.27875,32 11.625,32 l 3.75,0 C 15.72125,32 16,31.72125 16,31.375 l 0,-2.75 C 16,28.27875 15.72125,28 15.375,28 L 15,28 15,25.625 C 15,25.27875 14.72125,25 14.375,25 z m 0.375,1 1,0 0,2 -1,0 z"
       id="rect3648"
       sodipodi:nodetypes="sscsssssssscsssccccc" />
  </g>
</svg>
