<?xml version="1.0" encoding="UTF-8" standalone="no"?>
<!-- Created with Inkscape (http://www.inkscape.org/) -->

<svg
   xmlns:dc="http://purl.org/dc/elements/1.1/"
   xmlns:cc="http://creativecommons.org/ns#"
   xmlns:rdf="http://www.w3.org/1999/02/22-rdf-syntax-ns#"
   xmlns:svg="http://www.w3.org/2000/svg"
   xmlns="http://www.w3.org/2000/svg"
   xmlns:xlink="http://www.w3.org/1999/xlink"
   xmlns:sodipodi="http://sodipodi.sourceforge.net/DTD/sodipodi-0.dtd"
   xmlns:inkscape="http://www.inkscape.org/namespaces/inkscape"
   width="16"
   height="16"
   id="svg2"
   sodipodi:version="0.32"
   inkscape:version="0.48.1 r9760"
   version="1.0"
   sodipodi:docname="network-receive.svg"
   inkscape:output_extension="org.inkscape.output.svg.inkscape"
   style="display:inline"
   inkscape:export-filename="/home/matthieu/Eye-Candy/Faience/0.1/sources/status/small/audio-volume-high.png"
   inkscape:export-xdpi="90"
   inkscape:export-ydpi="90">
  <defs
     id="defs4">
    <linearGradient
       id="StandardGradient"
       gradientTransform="scale(0.9219544,1.0846523)"
       x1="11.998966"
       y1="0.92195445"
       x2="11.998966"
       y2="19.387045"
       gradientUnits="userSpaceOnUse">
      <stop
         style="stop-color:#000000;stop-opacity:0.23529412;"
         offset="0"
         id="stop3283-1" />
      <stop
         id="stop3850"
         offset="0.69999999"
         style="stop-color:#000000;stop-opacity:0.39215686;" />
      <stop
         style="stop-color:#000000;stop-opacity:0.55;"
         offset="1"
         id="stop2651" />
    </linearGradient>
    <radialGradient
       inkscape:collect="always"
       xlink:href="#StandardGradient"
       id="radialGradient3813"
       cx="26"
       cy="2"
       fx="26"
       fy="2"
       r="2"
       gradientUnits="userSpaceOnUse" />
    <radialGradient
       inkscape:collect="always"
       xlink:href="#SpecificGradient"
       id="radialGradient3817"
       gradientUnits="userSpaceOnUse"
       cx="26"
       cy="2"
       fx="26"
       fy="2"
       r="2"
       gradientTransform="translate(0,12)" />
    <linearGradient
       id="SpecificGradient"
       x1="10.406627"
       y1="2"
       x2="10.406627"
       y2="18.000771"
       gradientUnits="userSpaceOnUse">
      <stop
         style="stop-color:#e64b36;stop-opacity:1;"
         offset="0"
         id="stop3292" />
      <stop
         style="stop-color:#a31414;stop-opacity:1;"
         offset="1"
         id="stop3294" />
    </linearGradient>
    <linearGradient
       id="StandardGradient-1"
       gradientTransform="scale(1.1467263,0.8720476)"
       x1="7.1904788"
       y1="6.9551144"
       x2="7.1904788"
       y2="18.319494"
       gradientUnits="userSpaceOnUse">
      <stop
         style="stop-color:#000000;stop-opacity:0.86274511;"
         offset="0"
         id="stop3280" />
      <stop
         style="stop-color:#000000;stop-opacity:0.47058824;"
         offset="1"
         id="stop3282" />
    </linearGradient>
    <radialGradient
       inkscape:collect="always"
       xlink:href="#StandardGradient"
       id="radialGradient3836"
       cx="9"
       cy="9.9982185"
       fx="9"
       fy="9.9982185"
       r="7.9858136"
       gradientTransform="matrix(1.3774426,2.764074e-8,-2.2615151e-8,1.1269985,-3.3969833,-1.2679776)"
       gradientUnits="userSpaceOnUse" />
    <radialGradient
       inkscape:collect="always"
       xlink:href="#StandardGradient"
       id="radialGradient3804"
       gradientUnits="userSpaceOnUse"
       gradientTransform="matrix(1.3774426,2.764074e-8,-2.2615151e-8,1.1269985,-3.3969833,-1.2679776)"
       cx="9"
       cy="9.9982185"
       fx="9"
       fy="9.9982185"
       r="7.9858136" />
    <radialGradient
       inkscape:collect="always"
       xlink:href="#StandardGradient"
       id="radialGradient3808"
       gradientUnits="userSpaceOnUse"
       gradientTransform="matrix(1.3774426,2.764074e-8,-2.2615151e-8,1.1269985,-3.3969833,-7.2679776)"
       cx="9"
       cy="9.9982185"
       fx="9"
       fy="9.9982185"
       r="7.9858136" />
  </defs>
  <sodipodi:namedview
     id="base"
     pagecolor="#818181"
     bordercolor="#ffcfcf"
     borderopacity="1"
     inkscape:pageopacity="1"
     inkscape:pageshadow="2"
     inkscape:zoom="22.640002"
     inkscape:cx="-5.919608"
     inkscape:cy="4.3559534"
     inkscape:document-units="px"
     inkscape:current-layer="layer1"
     showgrid="true"
     inkscape:showpageshadow="false"
     showguides="true"
     inkscape:guide-bbox="true"
     inkscape:window-width="1920"
     inkscape:window-height="1030"
     inkscape:window-x="0"
     inkscape:window-y="25"
     inkscape:window-maximized="1"
     borderlayer="true"
     inkscape:snap-global="true">
    <sodipodi:guide
       orientation="0,1"
       position="26.278146,128"
       id="guide2385" />
    <sodipodi:guide
       orientation="1,0"
       position="128,54.082119"
       id="guide2387" />
    <sodipodi:guide
       orientation="0,1"
       position="60.863576,64.084768"
       id="guide2391" />
    <inkscape:grid
       type="xygrid"
       id="grid3672"
       visible="true"
       enabled="true"
       empspacing="8"
       snapvisiblegridlinesonly="true" />
    <sodipodi:guide
       orientation="1,0"
       position="9,-3"
       id="guide3013" />
    <sodipodi:guide
       orientation="0,1"
       position="17,6"
       id="guide3015" />
  </sodipodi:namedview>
  <metadata
     id="metadata7">
    <rdf:RDF>
      <cc:Work
         rdf:about="">
        <dc:format>image/svg+xml</dc:format>
        <dc:type
           rdf:resource="http://purl.org/dc/dcmitype/StillImage" />
        <dc:title></dc:title>
      </cc:Work>
    </rdf:RDF>
  </metadata>
  <g
     inkscape:label="Icon"
     inkscape:groupmode="layer"
     id="layer1"
     style="display:inline"
     transform="translate(0,-6)">
    <path
       style="fill:#ffffff;fill-opacity:1;stroke:none;display:inline;opacity:0.05"
       d="M 15.1875 -1 C 14.783102 -1 14.274279 -0.8680287 13.90625 -0.5 L 11.4375 1.96875 L 10 1.96875 A 0.99661141 0.99661141 0 0 0 9.96875 1.96875 C 9.9803338 1.9685148 9.8009892 1.9700962 9.8125 1.96875 C 9.8240108 1.9674038 9.6449145 2.0024464 9.65625 2 C 9.6675855 1.9975536 9.520191 2.0660268 9.53125 2.0625 C 9.542309 2.0589732 9.3643172 2.0983283 9.375 2.09375 C 9.3856828 2.0891717 9.2085409 2.193092 9.21875 2.1875 C 9.2289591 2.181908 9.084109 2.2565587 9.09375 2.25 C 9.103391 2.2434413 8.9597677 2.3512193 8.96875 2.34375 C 8.9754867 2.338148 8.9084811 2.4071002 8.875 2.4375 C 8.8638396 2.4476333 8.8416905 2.4708287 8.84375 2.46875 L 6.46875 4.8125 A 0.99661141 0.99661141 0 0 0 6.46875 4.84375 C 6.4768164 4.83538 6.3677568 4.97787 6.375 4.96875 C 6.3822432 4.95963 6.2749006 5.103538 6.28125 5.09375 C 6.2875994 5.083962 6.1821074 5.229118 6.1875 5.21875 C 6.1928926 5.208382 6.1206182 5.385852 6.125 5.375 C 6.1293818 5.364148 6.0904236 5.511235 6.09375 5.5 C 6.0970764 5.488765 6.0290131 5.667762 6.03125 5.65625 C 6.0334869 5.644738 6.0301257 5.82418 6.03125 5.8125 C 6.0323743 5.80082 6 5.980486 6 5.96875 C 6 5.957014 6.0323743 6.13668 6.03125 6.125 C 6.0301257 6.11332 6.0334869 6.292762 6.03125 6.28125 C 6.0290131 6.269738 6.0970764 6.448735 6.09375 6.4375 C 6.0904236 6.426265 6.1293818 6.573352 6.125 6.5625 C 6.1206182 6.551648 6.1928926 6.729118 6.1875 6.71875 C 6.1821074 6.708382 6.2875994 6.853538 6.28125 6.84375 C 6.2749006 6.833962 6.3822432 6.97787 6.375 6.96875 C 6.3677568 6.95963 6.4768164 7.10212 6.46875 7.09375 A 0.99661141 0.99661141 0 0 0 6.46875 7.125 L 8.84375 9.46875 C 8.8410845 9.465896 8.8551562 9.480078 8.875 9.5 C 8.8948438 9.519922 8.9090897 9.533923 8.90625 9.53125 C 8.9005707 9.525903 9.0060032 9.598714 9 9.59375 C 8.9939968 9.588786 9.0688016 9.660813 9.0625 9.65625 C 9.0561984 9.651687 9.1628235 9.722894 9.15625 9.71875 C 9.1496765 9.714606 9.2568181 9.78496 9.25 9.78125 C 9.2431819 9.77754 9.3507847 9.815762 9.34375 9.8125 C 9.3367153 9.809238 9.4447226 9.877802 9.4375 9.875 C 9.4302774 9.872198 9.5386313 9.908581 9.53125 9.90625 C 9.5238687 9.903919 9.6325104 9.939352 9.625 9.9375 C 9.6174896 9.935648 9.7576096 9.970116 9.75 9.96875 C 9.7423904 9.967384 9.8514286 9.969626 9.84375 9.96875 C 9.8360714 9.967874 9.9452173 9.969132 9.9375 9.96875 C 9.9297827 9.968368 10.070226 9.968637 10.0625 9.96875 C 10.054774 9.968863 10.163953 9.968142 10.15625 9.96875 C 10.148547 9.969358 10.257651 9.967649 10.25 9.96875 C 10.242349 9.969851 10.382568 9.935911 10.375 9.9375 A 0.99661141 0.99661141 0 0 0 10.46875 9.90625 C 10.461015 9.908796 10.570053 9.871935 10.5625 9.875 C 10.554947 9.878065 10.663586 9.840179 10.65625 9.84375 C 10.648914 9.847321 10.788337 9.777188 10.78125 9.78125 C 10.774163 9.785312 10.881805 9.714213 10.875 9.71875 C 10.868195 9.723287 10.943991 9.651258 10.9375 9.65625 C 10.931009 9.661242 11.037398 9.588324 11.03125 9.59375 C 11.025102 9.599176 11.130775 9.494163 11.125 9.5 L 11.15625 9.5 C 11.177723 9.476622 11.191531 9.432833 11.1875 9.4375 L 13.5 7.125 L 13.53125 7.125 C 13.548965 7.105178 13.631583 6.992104 13.625 7 C 13.617477 7.009023 13.72538 6.865275 13.71875 6.875 C 13.71212 6.884725 13.78692 6.739662 13.78125 6.75 C 13.77558 6.760338 13.879652 6.582896 13.875 6.59375 C 13.870348 6.604604 13.909835 6.426234 13.90625 6.4375 C 13.902665 6.448766 13.971232 6.300929 13.96875 6.3125 C 13.966268 6.324071 14.001352 6.144486 14 6.15625 C 13.998648 6.168014 14.000209 5.988157 14 6 A 0.99661141 0.99661141 0 0 0 14 5.96875 L 14 4.53125 L 16.46875 2.0625 C 17.15382 1.3774317 17.153819 0.1850687 16.46875 -0.5 C 16.100721 -0.8680306 15.591896 -1 15.1875 -1 z M 15.1875 0 C 15.390145 0 15.592791 0.0615405 15.75 0.21875 C 16.064418 0.5331681 16.064418 1.029333 15.75 1.34375 L 13 4.09375 L 13 5.96875 A 0.63312664 0.63136584 0 0 1 12.8125 6.40625 L 10.4375 8.78125 A 0.63312664 0.63136584 0 0 1 10.15625 8.96875 A 0.63312664 0.63136584 0 0 1 9.5625 8.78125 L 7.1875 6.40625 A 0.63312664 0.63136584 0 0 1 7.1875 5.53125 L 9.5625 3.15625 A 0.63312664 0.63136584 0 0 1 10 2.96875 L 11.875 2.96875 L 14.625 0.21875 C 14.782209 0.061541 14.984855 0 15.1875 0 z "
       transform="translate(0,6)"
       id="path3806" />
    <path
       inkscape:connector-curvature="0"
       style="opacity:0.2;fill:#ffffff;fill-opacity:1;stroke:none;display:inline"
       d="m 15.8125,7.2812501 c -0.01893,0.023666 -0.04049,0.040491 -0.0625,0.0625 L 13,10.09375 l 0,1 2.75,-2.7499999 C 15.896204,8.1975462 15.989492,8.0022722 16,7.8125001 16.01051,7.6227281 15.93824,7.438458 15.8125,7.2812501 z M 13,12.125 c -0.03551,0.108323 -0.101081,0.206677 -0.1875,0.28125 l -2.375,2.375 c -0.0745,0.08625 -0.172846,0.151817 -0.28125,0.1875 -0.2123851,0.0446 -0.4458211,-0.02912 -0.59375,-0.1875 L 7.25,12.46875 7.1875,12.53125 c -0.2239116,0.232328 -0.2239116,0.642672 0,0.875 l 2.375,2.375 c 0.1479289,0.158381 0.3813649,0.232097 0.59375,0.1875 0.108404,-0.03568 0.206748,-0.101246 0.28125,-0.1875 l 2.375,-2.375 C 12.928355,13.291823 12.997137,13.131333 13,12.96875 z"
       id="path3752"
       sodipodi:nodetypes="ccccscccccccccccccccc" />
    <rect
       style="opacity:1;color:#000000;fill:url(#radialGradient3813);fill-opacity:1;fill-rule:nonzero;stroke:none;stroke-width:1;stroke-linecap:round;stroke-linejoin:round;stroke-miterlimit:4;stroke-opacity:1;stroke-dasharray:none;stroke-dashoffset:8.59999999999999787;marker:none;visibility:visible;display:inline;overflow:visible;enable-background:accumulate"
       id="rect3036"
       width="4"
       height="4"
       x="24"
       y="0"
       transform="translate(0,6)" />
    <rect
       y="12"
       x="24"
       height="4"
       width="4"
       id="rect3815"
       style="color:#000000;fill:url(#radialGradient3817);fill-opacity:1.0;fill-rule:nonzero;stroke:none;stroke-width:1;marker:none;visibility:visible;display:inline;overflow:visible;enable-background:accumulate" />
    <path
       style="fill:url(#radialGradient3836);fill-opacity:1;stroke:none;display:inline"
       d="m 15.1875,6 c -0.202645,0 -0.405291,0.061541 -0.5625,0.21875 l -2.75,2.75 -1.875,0 a 0.63312664,0.63136584 0 0 0 -0.4375,0.1875 l -2.375,2.375 a 0.63312664,0.63136584 0 0 0 0,0.875 l 2.375,2.375 a 0.63312664,0.63136584 0 0 0 0.59375,0.1875 0.63312664,0.63136584 0 0 0 0.28125,-0.1875 l 2.375,-2.375 A 0.63312664,0.63136584 0 0 0 13,11.96875 l 0,-1.875 2.75,-2.75 c 0.314418,-0.314417 0.314418,-0.8105819 0,-1.125 C 15.592791,6.0615405 15.390145,6 15.1875,6 z"
       id="path3030" />
    <path
       style="fill:#000000;fill-opacity:1;stroke:none;display:inline;opacity:0.2"
       d="M 5.84375,13 A 0.63312664,0.63136584 0 0 0 5.5625,13.1875 l -2.375,2.375 A 0.63312664,0.63136584 0 0 0 3,16 l 0,1.875 -2.75,2.75 c -0.31441823,0.314417 -0.31441823,0.810582 0,1.125 0.31441825,0.314419 0.8105817,0.314419 1.125,0 L 4.125,19 6,19 a 0.63312664,0.63136584 0 0 0 0.4375,-0.1875 l 2.375,-2.375 a 0.63312664,0.63136584 0 0 0 0,-0.875 l -2.375,-2.375 A 0.63312664,0.63136584 0 0 0 5.84375,13 z"
       id="path3708" />
    <path
       style="opacity:0.3;fill:#000000;fill-opacity:1;stroke:none;display:inline"
       d="M 15.1875,0 C 14.984855,0 14.782209,0.0615405 14.625,0.21875 l -2.75,2.75 -1.875,0 c -0.1626987,0.0033 -0.3231288,0.072059 -0.4375,0.1875 l -2.375,2.375 c -0.2239116,0.2323278 -0.2239116,0.6426722 0,0.875 l 2.375,2.375 c 0.1479289,0.1583805 0.3813649,0.2320972 0.59375,0.1875 0.108404,-0.035683 0.206748,-0.1012463 0.28125,-0.1875 l 2.375,-2.375 C 12.928355,6.2918231 12.997137,6.1313332 13,5.96875 l 0,-1.875 2.75,-2.75 c 0.314418,-0.314417 0.314418,-0.8105819 0,-1.125 C 15.592791,0.0615405 15.390145,0 15.1875,0 z m 0,0.53125 c 0.0977,0 0.139948,0.014948 0.1875,0.0625 0.121626,0.12162611 0.121625,0.25337533 0,0.375 l -2.75,2.75 c -0.09957,0.097201 -0.157341,0.2358584 -0.15625,0.375 l 0,1.875 c -0.0039,0.018117 0.0048,0.013343 0,0.03125 -0.0089,0.016243 0.0097,0.015457 0,0.03125 -0.01186,0.014226 -0.01872,-0.013636 -0.03125,0 l -2.375,2.375 c -0.01085,0.00997 -0.02128,0.020395 -0.03125,0.03125 -0.01824,0.018435 0.01944,0.014091 0,0.03125 -0.02157,0.014382 -0.0088,-0.012893 -0.03125,0 -0.023498,-0.00742 -0.00827,0.00891 -0.03125,0 -0.022358,-0.010367 0.021648,-0.01947 0,-0.03125 -0.019964,-0.014456 -0.012254,0.015709 -0.03125,0 3.14e-4,-0.010414 3.14e-4,-0.020836 0,-0.03125 l -2.375,-2.375 c -0.00999,-0.015398 -0.02201,0.01586 -0.03125,0 -0.00847,-0.016285 0.00768,-0.014577 0,-0.03125 -0.00263,-0.01817 0.00176,-0.012975 0,-0.03125 0.00176,-0.018275 -0.00263,-0.01308 0,-0.03125 0.00768,-0.016673 -0.00847,-0.014965 0,-0.03125 l 0.03125,0 2.375,-2.375 c 0.013625,-0.012488 -0.01421,-0.019433 0,-0.03125 0.015761,-0.00965 0.015044,0.00888 0.03125,0 0.017852,-0.00476 0.013191,0.0039 0.03125,0 l 1.875,0 c 0.139142,0.00109 0.2778,-0.056683 0.375,-0.15625 l 2.75,-2.75 c 0.04755,-0.047552 0.0898,-0.0625 0.1875,-0.0625 z"
       transform="translate(0,6)"
       id="path3838"
       inkscape:connector-curvature="0"
       sodipodi:nodetypes="sscccccccccccsssssscccccccccccccccccccccccccccss" />
    <path
       inkscape:connector-curvature="0"
       style="opacity:0.3;fill:#000000;fill-opacity:1;stroke:none;display:inline"
       d="m 15.1875,6.0000001 c -0.202645,0 -0.405291,0.06154 -0.5625,0.21875 l -2.75,2.75 -1.875,0 c -0.1626987,0.0033 -0.3231288,0.072059 -0.4375,0.1875 L 7.1875,11.53125 c -0.2239116,0.232328 -0.2239116,0.642672 0,0.875 l 0.0625,0.0625 2.3125,-2.3125 C 9.6768712,10.040809 9.8373014,9.9720533 10,9.9687501 l 1.875,0 2.75,-2.75 c 0.157209,-0.15721 0.359855,-0.21875 0.5625,-0.21875 0.202645,0 0.405291,0.06154 0.5625,0.21875 0.02201,0.022009 0.04357,0.038834 0.0625,0.0625 0.251472,-0.3144149 0.229909,-0.7700913 -0.0625,-1.0625 -0.157209,-0.1572096 -0.359855,-0.21875 -0.5625,-0.21875 z"
       id="path3737"
       sodipodi:nodetypes="sscccccccccssccss" />
    <path
       inkscape:connector-curvature="0"
       style="opacity:0.4;color:#000000;fill:#000000;fill-opacity:1;fill-rule:nonzero;stroke:none;stroke-width:1;marker:none;visibility:visible;display:inline;overflow:visible;enable-background:accumulate"
       d="M 12.625,25 C 12.27875,25 12,25.27875 12,25.625 L 12,28 11.625,28 C 11.27875,28 11,28.27875 11,28.625 l 0,2.75 C 11,31.72125 11.27875,32 11.625,32 l 3.75,0 C 15.72125,32 16,31.72125 16,31.375 l 0,-2.75 C 16,28.27875 15.72125,28 15.375,28 L 15,28 15,25.625 C 15,25.27875 14.72125,25 14.375,25 z m 0.375,1 1,0 0,2 -1,0 z"
       id="rect3648"
       sodipodi:nodetypes="sscsssssssscsssccccc" />
  </g>
</svg>
