<?xml version="1.0" encoding="UTF-8" standalone="no"?>
<!-- Created with Inkscape (http://www.inkscape.org/) -->

<svg
   xmlns:dc="http://purl.org/dc/elements/1.1/"
   xmlns:cc="http://creativecommons.org/ns#"
   xmlns:rdf="http://www.w3.org/1999/02/22-rdf-syntax-ns#"
   xmlns:svg="http://www.w3.org/2000/svg"
   xmlns="http://www.w3.org/2000/svg"
   xmlns:xlink="http://www.w3.org/1999/xlink"
   xmlns:sodipodi="http://sodipodi.sourceforge.net/DTD/sodipodi-0.dtd"
   xmlns:inkscape="http://www.inkscape.org/namespaces/inkscape"
   width="16"
   height="16"
   id="svg2"
   sodipodi:version="0.32"
   inkscape:version="0.48.1 r9760"
   version="1.0"
   sodipodi:docname="nm-adhoc.svg"
   inkscape:output_extension="org.inkscape.output.svg.inkscape"
   style="display:inline"
   inkscape:export-filename="/home/matthieu/Eye-Candy/Faience/0.1/sources/status/small/audio-volume-high.png"
   inkscape:export-xdpi="90"
   inkscape:export-ydpi="90">
  <defs
     id="defs4">
    <linearGradient
       id="StandardGradient"
       gradientTransform="scale(0.9219544,1.0846523)"
       x1="11.998966"
       y1="0.92195445"
       x2="11.998966"
       y2="19.387045"
       gradientUnits="userSpaceOnUse">
      <stop
         style="stop-color:#000000;stop-opacity:0.23529412;"
         offset="0"
         id="stop3283-1" />
      <stop
         id="stop3850"
         offset="0.69999999"
         style="stop-color:#000000;stop-opacity:0.39215686;" />
      <stop
         style="stop-color:#000000;stop-opacity:0.55;"
         offset="1"
         id="stop2651" />
    </linearGradient>
    <radialGradient
       inkscape:collect="always"
       xlink:href="#StandardGradient"
       id="radialGradient3813"
       cx="26"
       cy="2"
       fx="26"
       fy="2"
       r="2"
       gradientUnits="userSpaceOnUse" />
    <radialGradient
       inkscape:collect="always"
       xlink:href="#SpecificGradient"
       id="radialGradient3817"
       gradientUnits="userSpaceOnUse"
       cx="26"
       cy="2"
       fx="26"
       fy="2"
       r="2"
       gradientTransform="translate(0,12)" />
    <linearGradient
       id="SpecificGradient"
       x1="10.406627"
       y1="2"
       x2="10.406627"
       y2="18.000771"
       gradientUnits="userSpaceOnUse">
      <stop
         style="stop-color:#e64b36;stop-opacity:1;"
         offset="0"
         id="stop3292" />
      <stop
         style="stop-color:#a31414;stop-opacity:1;"
         offset="1"
         id="stop3294" />
    </linearGradient>
    <linearGradient
       id="StandardGradient-1"
       gradientTransform="scale(1.1467263,0.8720476)"
       x1="7.1904788"
       y1="6.9551144"
       x2="7.1904788"
       y2="18.319494"
       gradientUnits="userSpaceOnUse">
      <stop
         style="stop-color:#000000;stop-opacity:0.86274511;"
         offset="0"
         id="stop3280" />
      <stop
         style="stop-color:#000000;stop-opacity:0.47058824;"
         offset="1"
         id="stop3282" />
    </linearGradient>
    <radialGradient
       inkscape:collect="always"
       xlink:href="#StandardGradient"
       id="radialGradient3836"
       cx="9"
       cy="9.9982185"
       fx="9"
       fy="9.9982185"
       r="7.9858136"
       gradientTransform="matrix(1.3774426,2.764074e-8,-2.2615151e-8,1.1269985,-3.3969833,-1.2679776)"
       gradientUnits="userSpaceOnUse" />
  </defs>
  <sodipodi:namedview
     id="base"
     pagecolor="#818181"
     bordercolor="#ffcfcf"
     borderopacity="1"
     inkscape:pageopacity="1"
     inkscape:pageshadow="2"
     inkscape:zoom="22.640002"
     inkscape:cx="1.5892253"
     inkscape:cy="4.3559534"
     inkscape:document-units="px"
     inkscape:current-layer="layer1"
     showgrid="true"
     inkscape:showpageshadow="false"
     showguides="true"
     inkscape:guide-bbox="true"
     inkscape:window-width="1920"
     inkscape:window-height="1030"
     inkscape:window-x="0"
     inkscape:window-y="25"
     inkscape:window-maximized="1"
     borderlayer="true"
     inkscape:snap-global="true">
    <sodipodi:guide
       orientation="0,1"
       position="26.278146,128"
       id="guide2385" />
    <sodipodi:guide
       orientation="1,0"
       position="128,54.082119"
       id="guide2387" />
    <sodipodi:guide
       orientation="0,1"
       position="60.863576,64.084768"
       id="guide2391" />
    <inkscape:grid
       type="xygrid"
       id="grid3672"
       visible="true"
       enabled="true"
       empspacing="8"
       snapvisiblegridlinesonly="true" />
    <sodipodi:guide
       orientation="1,0"
       position="9,-3"
       id="guide3013" />
    <sodipodi:guide
       orientation="0,1"
       position="17,6"
       id="guide3015" />
  </sodipodi:namedview>
  <metadata
     id="metadata7">
    <rdf:RDF>
      <cc:Work
         rdf:about="">
        <dc:format>image/svg+xml</dc:format>
        <dc:type
           rdf:resource="http://purl.org/dc/dcmitype/StillImage" />
        <dc:title></dc:title>
      </cc:Work>
    </rdf:RDF>
  </metadata>
  <g
     inkscape:label="Icon"
     inkscape:groupmode="layer"
     id="layer1"
     style="display:inline"
     transform="translate(0,-6)">
    <path
       style="fill:#ffffff;fill-opacity:1;stroke:none;display:inline;opacity:0.05"
       d="M 15.1875 -1 C 14.784895 -1 14.303657 -0.83490841 13.9375 -0.46875 L 11.5 1.96875 L 10 1.96875 A 0.9877612 0.9877612 0 0 0 9.96875 1.96875 C 9.9800503 1.9685206 9.8012709 2.0013132 9.8125 2 C 9.8237291 1.9986868 9.6451917 2.0336365 9.65625 2.03125 C 9.6673083 2.0288635 9.5204612 2.0659406 9.53125 2.0625 C 9.5420388 2.0590594 9.364578 2.1294666 9.375 2.125 C 9.385422 2.1205334 9.2087899 2.1929556 9.21875 2.1875 C 9.2287101 2.1820444 9.0843438 2.256399 9.09375 2.25 C 9.1031562 2.243601 8.9599862 2.3510376 8.96875 2.34375 C 8.9775138 2.3364624 8.8669623 2.4768629 8.875 2.46875 L 6.5 4.84375 A 0.9877612 0.9877612 0 0 0 6.46875 4.84375 C 6.4766205 4.8355837 6.3679325 4.9776484 6.375 4.96875 C 6.3820675 4.9598516 6.2750544 5.1033011 6.28125 5.09375 C 6.2874456 5.0841989 6.2134878 5.2288672 6.21875 5.21875 C 6.2240122 5.2086328 6.1519741 5.3855901 6.15625 5.375 C 6.1605259 5.3644099 6.0905039 5.5109641 6.09375 5.5 C 6.0969961 5.4890359 6.0603171 5.6674846 6.0625 5.65625 C 6.0646829 5.6450154 6.0301528 5.8238984 6.03125 5.8125 C 6.0323472 5.8011016 6.03125 5.9802032 6.03125 5.96875 C 6.03125 5.9664594 6.0307124 5.9901774 6.03125 6 C 6.0013009 5.9995699 5.9318476 6.0000829 5.9375 6 C 5.9450365 5.9998895 5.8362351 6.0005931 5.84375 6 C 5.8512649 5.9994069 5.7425364 6.0010736 5.75 6 C 5.7574636 5.9989264 5.6488671 6.0328003 5.65625 6.03125 A 0.9877612 0.9877612 0 0 0 5.53125 6.0625 C 5.5387964 6.0600159 5.4301316 6.0967399 5.4375 6.09375 C 5.4448684 6.0907601 5.3365926 6.1597336 5.34375 6.15625 C 5.3509074 6.1527664 5.243086 6.191463 5.25 6.1875 C 5.256914 6.183537 5.149611 6.254426 5.15625 6.25 C 5.162889 6.245574 5.0561666 6.3173705 5.0625 6.3125 C 5.0688334 6.3076295 4.9627518 6.3802942 4.96875 6.375 C 4.9747482 6.3697058 4.8693654 6.4744452 4.875 6.46875 C 4.8764087 6.4673262 4.882116 6.4922538 4.875 6.5 C 4.8607681 6.5154923 4.8580796 6.5158517 4.84375 6.53125 C 4.8365852 6.5389492 4.811189 6.5327678 4.8125 6.53125 L 2.5 8.875 C 2.50814 8.8669604 2.367659 8.9775545 2.375 8.96875 C 2.382341 8.9599455 2.2747808 9.1032398 2.28125 9.09375 C 2.2877192 9.0842602 2.2132176 9.2288377 2.21875 9.21875 C 2.2242824 9.2086623 2.1517109 9.3855913 2.15625 9.375 C 2.1607891 9.3644087 2.0902511 9.5422444 2.09375 9.53125 C 2.0972489 9.5202556 2.0600779 9.6987921 2.0625 9.6875 C 2.0649221 9.6762079 2.0299302 9.8239805 2.03125 9.8125 C 2.0325698 9.8010195 1.9997965 9.9803073 2 9.96875 A 0.9877612 0.9877612 0 0 0 2 10 L 2 11.5 L -0.4375 13.9375 C -1.1192794 14.619277 -1.1192776 15.755723 -0.4375 16.4375 C 0.24427565 17.119277 1.3807243 17.119277 2.0625 16.4375 L 4.5 14 L 6 14 A 0.9877612 0.9877612 0 0 0 6.03125 14 C 6.0199497 14.000229 6.1987291 13.967437 6.1875 13.96875 C 6.1762709 13.970063 6.3548083 13.935113 6.34375 13.9375 C 6.3326917 13.939887 6.4795388 13.902809 6.46875 13.90625 C 6.4579612 13.909691 6.635422 13.839283 6.625 13.84375 C 6.614578 13.848217 6.7912101 13.775794 6.78125 13.78125 C 6.7712899 13.786706 6.9156562 13.712351 6.90625 13.71875 C 6.8968438 13.725149 7.0400138 13.617712 7.03125 13.625 C 7.0224862 13.632288 7.1330377 13.491887 7.125 13.5 L 9.5 11.125 A 0.9877612 0.9877612 0 0 0 9.53125 11.125 C 9.5233795 11.133166 9.6320675 10.991102 9.625 11 C 9.6179325 11.008898 9.7249456 10.865449 9.71875 10.875 C 9.7125544 10.884551 9.7865122 10.739883 9.78125 10.75 C 9.7759878 10.760117 9.8480259 10.58316 9.84375 10.59375 C 9.8394741 10.60434 9.9094961 10.457786 9.90625 10.46875 C 9.9030039 10.479714 9.9396829 10.301265 9.9375 10.3125 C 9.9353171 10.323735 9.9698472 10.144852 9.96875 10.15625 C 9.9676528 10.167648 9.96875 9.9885468 9.96875 10 C 9.96875 10.002291 9.9692876 9.9785726 9.96875 9.96875 C 9.9986991 9.9691801 10.068152 9.9686671 10.0625 9.96875 C 10.054963 9.9688605 10.163765 9.9681569 10.15625 9.96875 C 10.148735 9.9693431 10.257464 9.9676764 10.25 9.96875 C 10.242536 9.9698236 10.351133 9.9359497 10.34375 9.9375 A 0.9877612 0.9877612 0 0 0 10.46875 9.90625 C 10.461204 9.9087341 10.569868 9.8720101 10.5625 9.875 C 10.555132 9.8779899 10.663407 9.8090164 10.65625 9.8125 C 10.649093 9.8159836 10.756914 9.777287 10.75 9.78125 C 10.743086 9.785213 10.850389 9.714324 10.84375 9.71875 C 10.837111 9.723176 10.943833 9.6513795 10.9375 9.65625 C 10.931167 9.6611205 11.037248 9.5884558 11.03125 9.59375 C 11.025252 9.5990442 11.130635 9.4943048 11.125 9.5 C 11.123591 9.5014238 11.117884 9.4764962 11.125 9.46875 L 11.15625 9.4375 L 11.1875 9.4375 L 13.5 7.09375 C 13.49186 7.1017896 13.632341 6.9911955 13.625 7 C 13.617659 7.0088045 13.725219 6.8655102 13.71875 6.875 C 13.712281 6.8844898 13.786782 6.7399123 13.78125 6.75 C 13.775718 6.7600877 13.848289 6.5831587 13.84375 6.59375 C 13.839211 6.6043413 13.909749 6.4265056 13.90625 6.4375 C 13.902751 6.4484944 13.939922 6.2699579 13.9375 6.28125 C 13.935078 6.2925421 13.97007 6.1447695 13.96875 6.15625 C 13.96743 6.1677305 14.000204 5.9884427 14 6 A 0.9877612 0.9877612 0 0 0 14 5.96875 L 14 4.46875 L 16.4375 2.03125 C 17.119279 1.3494732 17.119277 0.21302724 16.4375 -0.46875 C 16.071343 -0.83490841 15.590105 -1 15.1875 -1 z M 15.1875 0 C 15.390145 0 15.592791 0.0615405 15.75 0.21875 C 16.064418 0.5331681 16.064418 1.029333 15.75 1.34375 L 13 4.09375 L 13 5.96875 A 0.63312664 0.63136584 0 0 1 12.8125 6.40625 L 10.4375 8.78125 A 0.63312664 0.63136584 0 0 1 10.15625 8.96875 A 0.63312664 0.63136584 0 0 1 9.5625 8.78125 L 7.1875 6.40625 A 0.63312664 0.63136584 0 0 1 7.1875 5.53125 L 9.5625 3.15625 A 0.63312664 0.63136584 0 0 1 10 2.96875 L 11.875 2.96875 L 14.625 0.21875 C 14.782209 0.0615405 14.984855 0 15.1875 0 z M 5.84375 7 A 0.63312664 0.63136584 0 0 1 6.4375 7.1875 L 8.8125 9.5625 A 0.63312664 0.63136584 0 0 1 8.8125 10.4375 L 6.4375 12.8125 A 0.63312664 0.63136584 0 0 1 6 13 L 4.125 13 L 1.375 15.75 C 1.0605817 16.064419 0.56441825 16.064419 0.25 15.75 C -0.06441823 15.435582 -0.06441823 14.939417 0.25 14.625 L 3 11.875 L 3 10 A 0.63312664 0.63136584 0 0 1 3.1875 9.5625 L 5.5625 7.1875 A 0.63312664 0.63136584 0 0 1 5.84375 7 z "
       transform="translate(0,6)"
       id="path3857" />
    <path
       inkscape:connector-curvature="0"
       style="opacity:0.2;fill:#ffffff;fill-opacity:1;stroke:none;display:inline"
       d="m 15.8125,7.2812501 c -0.01893,0.023666 -0.04049,0.040491 -0.0625,0.0625 L 13,10.09375 l 0,1 2.75,-2.7499999 C 15.896204,8.1975462 15.989492,8.0022722 16,7.8125001 16.01051,7.6227281 15.93824,7.438458 15.8125,7.2812501 z M 13,12.125 a 0.63312664,0.63136584 0 0 1 -0.1875,0.28125 l -2.375,2.375 a 0.63312664,0.63136584 0 0 1 -0.28125,0.1875 0.63312664,0.63136584 0 0 1 -0.59375,-0.1875 L 7.25,12.46875 7.1875,12.53125 a 0.63312664,0.63136584 0 0 0 0,0.875 l 2.375,2.375 a 0.63312664,0.63136584 0 0 0 0.59375,0.1875 0.63312664,0.63136584 0 0 0 0.28125,-0.1875 l 2.375,-2.375 A 0.63312664,0.63136584 0 0 0 13,12.96875 L 13,12.125 z M 8.75,16.5 6.4375,18.8125 A 0.63312664,0.63136584 0 0 1 6,19 l -1.875,0 -2.75,2.75 C 1.2177909,21.90721 1.0151454,22 0.8125,22 l 1.3125,0 2,-2 L 6,20 a 0.63312664,0.63136584 0 0 0 0.4375,-0.1875 l 2.375,-2.375 a 0.63312664,0.63136584 0 0 0 0,-0.875 L 8.75,16.5 z M 0.8125,22 C 0.60985457,22 0.40720913,21.90721 0.25,21.75 0.2279907,21.72799 0.206428,21.71117 0.1875,21.6875 0.11131887,21.78275 0.08862739,21.887289 0.0625,22 l 0.75,0 z"
       id="path3752" />
    <rect
       style="opacity:1;color:#000000;fill:url(#radialGradient3813);fill-opacity:1;fill-rule:nonzero;stroke:none;stroke-width:1;stroke-linecap:round;stroke-linejoin:round;stroke-miterlimit:4;stroke-opacity:1;stroke-dasharray:none;stroke-dashoffset:8.59999999999999787;marker:none;visibility:visible;display:inline;overflow:visible;enable-background:accumulate"
       id="rect3036"
       width="4"
       height="4"
       x="24"
       y="0"
       transform="translate(0,6)" />
    <rect
       y="12"
       x="24"
       height="4"
       width="4"
       id="rect3815"
       style="color:#000000;fill:url(#radialGradient3817);fill-opacity:1.0;fill-rule:nonzero;stroke:none;stroke-width:1;marker:none;visibility:visible;display:inline;overflow:visible;enable-background:accumulate" />
    <path
       style="fill:url(#radialGradient3836);fill-opacity:1;stroke:none;display:inline"
       d="M 15.1875 0 C 14.984855 0 14.782209 0.0615405 14.625 0.21875 L 11.875 2.96875 L 10 2.96875 A 0.63312664 0.63136584 0 0 0 9.5625 3.15625 L 7.1875 5.53125 A 0.63312664 0.63136584 0 0 0 7.1875 6.40625 L 9.5625 8.78125 A 0.63312664 0.63136584 0 0 0 10.15625 8.96875 A 0.63312664 0.63136584 0 0 0 10.4375 8.78125 L 12.8125 6.40625 A 0.63312664 0.63136584 0 0 0 13 5.96875 L 13 4.09375 L 15.75 1.34375 C 16.064418 1.029333 16.064418 0.5331681 15.75 0.21875 C 15.592791 0.0615405 15.390145 0 15.1875 0 z M 5.84375 7 A 0.63312664 0.63136584 0 0 0 5.5625 7.1875 L 3.1875 9.5625 A 0.63312664 0.63136584 0 0 0 3 10 L 3 11.875 L 0.25 14.625 C -0.06441823 14.939417 -0.06441823 15.435582 0.25 15.75 C 0.56441825 16.064419 1.0605817 16.064419 1.375 15.75 L 4.125 13 L 6 13 A 0.63312664 0.63136584 0 0 0 6.4375 12.8125 L 8.8125 10.4375 A 0.63312664 0.63136584 0 0 0 8.8125 9.5625 L 6.4375 7.1875 A 0.63312664 0.63136584 0 0 0 5.84375 7 z "
       transform="translate(0,6)"
       id="path3708" />
    <path
       style="fill:#000000;fill-opacity:1;stroke:none;display:inline;opacity:0.3"
       d="M 15.1875 0 C 14.984855 0 14.782209 0.0615405 14.625 0.21875 L 11.875 2.96875 L 10 2.96875 A 0.63312664 0.63136584 0 0 0 9.5625 3.15625 L 7.1875 5.53125 A 0.63312664 0.63136584 0 0 0 7.1875 6.40625 L 9.5625 8.78125 A 0.63312664 0.63136584 0 0 0 10.15625 8.96875 A 0.63312664 0.63136584 0 0 0 10.4375 8.78125 L 12.8125 6.40625 A 0.63312664 0.63136584 0 0 0 13 5.96875 L 13 4.09375 L 15.75 1.34375 C 16.064418 1.029333 16.064418 0.5331681 15.75 0.21875 C 15.592791 0.0615405 15.390145 0 15.1875 0 z M 15.1875 0.53125 C 15.285205 0.53125 15.327448 0.54619798 15.375 0.59375 C 15.496626 0.71537611 15.496625 0.84712533 15.375 0.96875 L 12.625 3.71875 A 0.51838223 0.51838223 0 0 0 12.46875 4.09375 L 12.46875 5.96875 C 12.464864 5.9868669 12.473508 5.9820927 12.46875 6 C 12.459842 6.0162431 12.478433 6.0154571 12.46875 6.03125 C 12.456889 6.0454762 12.450034 6.0176139 12.4375 6.03125 L 10.0625 8.40625 A 0.51838223 0.51838223 0 0 0 10.03125 8.4375 C 10.013011 8.4559346 10.050691 8.4515908 10.03125 8.46875 C 10.009677 8.4831318 10.022493 8.4558574 10 8.46875 C 9.9765018 8.4613295 9.9917252 8.4776617 9.96875 8.46875 C 9.9463924 8.4583833 9.9903979 8.4492797 9.96875 8.4375 C 9.9487864 8.4230437 9.9564956 8.4532089 9.9375 8.4375 A 0.51838223 0.51838223 0 0 0 9.9375 8.40625 L 7.5625 6.03125 C 7.5525114 6.0158515 7.5404901 6.0471098 7.53125 6.03125 C 7.5227799 6.0149651 7.5389305 6.0166726 7.53125 6 C 7.5286165 5.9818304 7.5330091 5.9870252 7.53125 5.96875 C 7.5330091 5.9504748 7.5286165 5.9556696 7.53125 5.9375 C 7.5389305 5.9208274 7.5227799 5.9225349 7.53125 5.90625 L 7.5625 5.90625 L 9.9375 3.53125 C 9.9511255 3.518762 9.9232896 3.5118168 9.9375 3.5 C 9.9532613 3.4903532 9.9525435 3.5088771 9.96875 3.5 C 9.9866015 3.4952391 9.9819407 3.5038974 10 3.5 L 11.875 3.5 A 0.51838223 0.51838223 0 0 0 12.25 3.34375 L 15 0.59375 C 15.047552 0.54619798 15.089795 0.53125 15.1875 0.53125 z M 5.84375 7 A 0.63312664 0.63136584 0 0 0 5.5625 7.1875 L 3.1875 9.5625 A 0.63312664 0.63136584 0 0 0 3 10 L 3 11.875 L 0.25 14.625 C -0.06441823 14.939417 -0.06441823 15.435582 0.25 15.75 C 0.56441825 16.064419 1.0605817 16.064419 1.375 15.75 L 4.125 13 L 6 13 A 0.63312664 0.63136584 0 0 0 6.4375 12.8125 L 8.8125 10.4375 A 0.63312664 0.63136584 0 0 0 8.8125 9.5625 L 6.4375 7.1875 A 0.63312664 0.63136584 0 0 0 5.84375 7 z M 5.96875 7.5 C 5.9933598 7.5012176 5.9755185 7.4972085 6 7.5 C 6.0234982 7.5074205 6.0082748 7.4910883 6.03125 7.5 C 6.0536076 7.5103667 6.0096021 7.5194703 6.03125 7.53125 C 6.0512136 7.5457063 6.0435044 7.5155411 6.0625 7.53125 A 0.51838223 0.51838223 0 0 0 6.0625 7.5625 L 8.4375 9.9375 L 8.46875 9.9375 C 8.4772201 9.9537849 8.4610695 9.9520774 8.46875 9.96875 C 8.4713835 9.9869196 8.4669909 9.9817248 8.46875 10 C 8.4669909 10.018275 8.4713835 10.01308 8.46875 10.03125 C 8.4610695 10.047923 8.4772201 10.046215 8.46875 10.0625 C 8.4595099 10.07836 8.4474886 10.047102 8.4375 10.0625 L 6.0625 12.4375 C 6.0488745 12.449988 6.0767104 12.456933 6.0625 12.46875 C 6.0467387 12.478397 6.0474565 12.459873 6.03125 12.46875 C 6.0133985 12.473511 6.0180593 12.464853 6 12.46875 L 4.125 12.46875 A 0.51838223 0.51838223 0 0 0 3.75 12.625 L 1 15.375 C 0.87837276 15.496628 0.74662717 15.496627 0.625 15.375 C 0.5033739 15.253374 0.50337482 15.121625 0.625 15 L 3.375 12.25 A 0.51838223 0.51838223 0 0 0 3.53125 11.875 L 3.53125 10 C 3.535136 9.9818831 3.526492 9.9866573 3.53125 9.96875 C 3.5401583 9.9525069 3.5215674 9.9532929 3.53125 9.9375 C 3.5431114 9.9232738 3.5499661 9.9511361 3.5625 9.9375 L 5.9375 7.5625 A 0.51838223 0.51838223 0 0 0 5.96875 7.53125 C 5.9869886 7.5128154 5.949309 7.5171592 5.96875 7.5 z "
       transform="translate(0,6)"
       id="path3838" />
    <path
       inkscape:connector-curvature="0"
       style="opacity:0.3;fill:#000000;fill-opacity:1;stroke:none;display:inline"
       d="m 15.1875,6.0000001 c -0.202645,0 -0.405291,0.06154 -0.5625,0.21875 l -2.75,2.75 -1.875,0 a 0.63312664,0.63136584 0 0 0 -0.4375,0.1875 L 7.1875,11.53125 a 0.63312664,0.63136584 0 0 0 0,0.875 l 0.0625,0.0625 2.3125,-2.3125 A 0.63312664,0.63136584 0 0 1 10,9.9687501 l 1.875,0 2.75,-2.75 c 0.157209,-0.15721 0.359855,-0.21875 0.5625,-0.21875 0.202645,0 0.405291,0.06154 0.5625,0.21875 0.02201,0.022009 0.04357,0.038834 0.0625,0.0625 0.251472,-0.3144149 0.229909,-0.7700913 -0.0625,-1.0625 -0.157209,-0.1572096 -0.359855,-0.21875 -0.5625,-0.21875 z M 5.84375,13 A 0.63312664,0.63136584 0 0 0 5.5625,13.1875 l -2.375,2.375 A 0.63312664,0.63136584 0 0 0 3,16 l 0,0.90625 A 0.63312664,0.63136584 0 0 1 3.1875,16.5625 l 2.375,-2.375 A 0.63312664,0.63136584 0 0 1 5.84375,14 0.63312664,0.63136584 0 0 1 6.4375,14.1875 L 8.75,16.5 8.8125,16.4375 a 0.63312664,0.63136584 0 0 0 0,-0.875 l -2.375,-2.375 A 0.63312664,0.63136584 0 0 0 5.84375,13 z M 3,17.875 0.25,20.625 C -0.04240895,20.917408 -0.0639717,21.373084 0.1875,21.6875 0.206428,21.66383 0.2279907,21.64701 0.25,21.625 l 2.75,-2.75 0,-1 z"
       id="path3737" />
    <path
       inkscape:connector-curvature="0"
       style="opacity:0.4;color:#000000;fill:#000000;fill-opacity:1;fill-rule:nonzero;stroke:none;stroke-width:1;marker:none;visibility:visible;display:inline;overflow:visible;enable-background:accumulate"
       d="M 12.625,25 C 12.27875,25 12,25.27875 12,25.625 L 12,28 11.625,28 C 11.27875,28 11,28.27875 11,28.625 l 0,2.75 C 11,31.72125 11.27875,32 11.625,32 l 3.75,0 C 15.72125,32 16,31.72125 16,31.375 l 0,-2.75 C 16,28.27875 15.72125,28 15.375,28 L 15,28 15,25.625 C 15,25.27875 14.72125,25 14.375,25 z m 0.375,1 1,0 0,2 -1,0 z"
       id="rect3648"
       sodipodi:nodetypes="sscsssssssscsssccccc" />
  </g>
</svg>
