<?xml version="1.0" encoding="UTF-8" standalone="no"?>
<!-- Created with Inkscape (http://www.inkscape.org/) -->

<svg
   xmlns:dc="http://purl.org/dc/elements/1.1/"
   xmlns:cc="http://creativecommons.org/ns#"
   xmlns:rdf="http://www.w3.org/1999/02/22-rdf-syntax-ns#"
   xmlns:svg="http://www.w3.org/2000/svg"
   xmlns="http://www.w3.org/2000/svg"
   xmlns:xlink="http://www.w3.org/1999/xlink"
   xmlns:sodipodi="http://sodipodi.sourceforge.net/DTD/sodipodi-0.dtd"
   xmlns:inkscape="http://www.inkscape.org/namespaces/inkscape"
   width="16"
   height="16"
   id="svg2"
   sodipodi:version="0.32"
   inkscape:version="0.48.1 r9760"
   version="1.0"
   sodipodi:docname="sound-cion.svg"
   inkscape:output_extension="org.inkscape.output.svg.inkscape"
   style="display:inline"
   inkscape:export-filename="/home/matthieu/Eye-Candy/Faience/0.1/sources/status/small/audio-volume-high.png"
   inkscape:export-xdpi="90"
   inkscape:export-ydpi="90">
  <defs
     id="defs4">
    <linearGradient
       id="SpecificGradient"
       x1="10.406627"
       y1="2"
       x2="10.406627"
       y2="18.000771"
       gradientUnits="userSpaceOnUse">
      <stop
         style="stop-color:#e64b36;stop-opacity:1;"
         offset="0"
         id="stop3292" />
      <stop
         style="stop-color:#a31414;stop-opacity:1;"
         offset="1"
         id="stop3294" />
    </linearGradient>
    <radialGradient
       r="8"
       fy="13"
       fx="12"
       cy="13"
       cx="12"
       gradientTransform="matrix(2,0,0,1.25,-21,-4.25)"
       gradientUnits="userSpaceOnUse"
       id="radialGradient3031"
       xlink:href="#SpecificGradient"
       inkscape:collect="always" />
    <radialGradient
       inkscape:collect="always"
       xlink:href="#SpecificGradient"
       id="radialGradient3766"
       cx="13"
       cy="12.000011"
       fx="13"
       fy="12.000011"
       r="6.9999928"
       gradientTransform="matrix(2.1428593,-2.531168e-8,1.1812118e-8,1.0000011,-17.857171,2.9999763)"
       gradientUnits="userSpaceOnUse" />
    <linearGradient
       id="StandardGradient-10"
       gradientTransform="matrix(0.9984539,0,0,0.9984539,-0.0459776,0.05767558)"
       x1="10.710332"
       y1="1.9963325"
       x2="10.710332"
       y2="18.974037"
       gradientUnits="userSpaceOnUse">
      <stop
         style="stop-color:#000000;stop-opacity:0.86274511;"
         offset="0"
         id="stop3277-3" />
      <stop
         style="stop-color:#000000;stop-opacity:0.47058824;"
         offset="1"
         id="stop3279-1" />
    </linearGradient>
    <radialGradient
       inkscape:collect="always"
       xlink:href="#StandardGradient-5"
       id="radialGradient3806"
       cx="9"
       cy="15.60848"
       fx="9"
       fy="15.60848"
       r="5.6296797"
       gradientTransform="matrix(1.95393,3.8553944e-8,-2.8039232e-8,1.42104,-8.5853696,-6.1802755)"
       gradientUnits="userSpaceOnUse" />
    <radialGradient
       inkscape:collect="always"
       xlink:href="#StandardGradient-5"
       id="radialGradient3058"
       gradientUnits="userSpaceOnUse"
       gradientTransform="matrix(1.0897833,0,0,0.69349844,-4.8267067,0.24084798)"
       cx="12.687574"
       cy="14.072349"
       fx="12.687574"
       fy="14.072349"
       r="10.09375" />
    <linearGradient
       id="StandardGradient-5"
       gradientTransform="scale(0.9219544,1.0846523)"
       x1="11.998966"
       y1="0.92195445"
       x2="11.998966"
       y2="19.387045"
       gradientUnits="userSpaceOnUse">
      <stop
         style="stop-color:#000000;stop-opacity:0.23529412;"
         offset="0"
         id="stop3283-1-0" />
      <stop
         id="stop3850-4"
         offset="0.69999999"
         style="stop-color:#000000;stop-opacity:0.39215686;" />
      <stop
         style="stop-color:#000000;stop-opacity:0.55;"
         offset="1"
         id="stop2651-8" />
    </linearGradient>
    <radialGradient
       r="10.09375"
       fy="14.072349"
       fx="12.687574"
       cy="14.072349"
       cx="12.687574"
       gradientTransform="matrix(1.0897833,0,0,0.69349844,-10.826707,10.240848)"
       gradientUnits="userSpaceOnUse"
       id="radialGradient3041"
       xlink:href="#StandardGradient-5"
       inkscape:collect="always" />
    <radialGradient
       inkscape:collect="always"
       xlink:href="#StandardGradient-5"
       id="radialGradient3831"
       gradientUnits="userSpaceOnUse"
       gradientTransform="matrix(1.95393,3.8553944e-8,-2.8039232e-8,1.42104,-8.5853696,-6.1802755)"
       cx="9"
       cy="15.60848"
       fx="9"
       fy="15.60848"
       r="5.6296797" />
    <radialGradient
       inkscape:collect="always"
       xlink:href="#StandardGradient-5"
       id="radialGradient3835"
       gradientUnits="userSpaceOnUse"
       gradientTransform="matrix(1.95393,3.8553944e-8,-2.8039232e-8,1.42104,-8.5853696,-6.1802755)"
       cx="9"
       cy="15.60848"
       fx="9"
       fy="15.60848"
       r="5.6296797" />
    <radialGradient
       inkscape:collect="always"
       xlink:href="#StandardGradient-5"
       id="radialGradient3837"
       gradientUnits="userSpaceOnUse"
       gradientTransform="matrix(1.95393,3.8553944e-8,-2.8039232e-8,1.42104,-8.5853696,-12.180276)"
       cx="9"
       cy="15.60848"
       fx="9"
       fy="15.60848"
       r="5.6296797" />
  </defs>
  <sodipodi:namedview
     id="base"
     pagecolor="#818181"
     bordercolor="#ffcfcf"
     borderopacity="1"
     inkscape:pageopacity="1"
     inkscape:pageshadow="2"
     inkscape:zoom="22.640002"
     inkscape:cx="-9.5823239"
     inkscape:cy="5.0886113"
     inkscape:document-units="px"
     inkscape:current-layer="layer1"
     showgrid="true"
     inkscape:showpageshadow="false"
     showguides="true"
     inkscape:guide-bbox="true"
     inkscape:window-width="1920"
     inkscape:window-height="1030"
     inkscape:window-x="0"
     inkscape:window-y="25"
     inkscape:window-maximized="1"
     borderlayer="true"
     inkscape:snap-global="true">
    <sodipodi:guide
       orientation="0,1"
       position="26.278146,128"
       id="guide2385" />
    <sodipodi:guide
       orientation="1,0"
       position="128,54.082119"
       id="guide2387" />
    <sodipodi:guide
       orientation="0,1"
       position="60.863576,64.084768"
       id="guide2391" />
    <inkscape:grid
       type="xygrid"
       id="grid3672"
       visible="true"
       enabled="true"
       empspacing="8"
       snapvisiblegridlinesonly="true" />
    <sodipodi:guide
       orientation="1,0"
       position="9,2"
       id="guide3013" />
    <sodipodi:guide
       orientation="-1.8369095e-16,-1"
       position="18,6"
       id="guide3015" />
  </sodipodi:namedview>
  <metadata
     id="metadata7">
    <rdf:RDF>
      <cc:Work
         rdf:about="">
        <dc:format>image/svg+xml</dc:format>
        <dc:type
           rdf:resource="http://purl.org/dc/dcmitype/StillImage" />
        <dc:title></dc:title>
      </cc:Work>
    </rdf:RDF>
  </metadata>
  <g
     inkscape:label="Icon"
     inkscape:groupmode="layer"
     id="layer1"
     style="display:inline"
     transform="translate(0,-6)">
    <path
       style="opacity:0.05;fill:#ffffff;fill-opacity:1;stroke:none;display:inline"
       d="M 8.8125,6.000001 C 8.3526176,6.084179 7.9882548,6.5326256 8,7.000001 l 0,8.21875 c -0.4784696,-0.130678 -0.968627,-0.21875 -1.5,-0.21875 -1.1578137,0 -2.2350818,0.346487 -3.0625,0.9375 C 2.6100818,16.528514 2,17.434667 2,18.500001 c 0,1.065334 0.6100818,1.971487 1.4375,2.5625 0.8274182,0.591013 1.9046863,0.9375 3.0625,0.9375 2.151975,0 4.104797,-1.161727 4.40625,-3.0625 l 0.03125,0 c 8.29e-4,-0.0036 -0.0042,-0.076 0,-0.09375 C 10.953167,18.776966 11,18.682715 11,18.500001 l 0,-6.21875 c 0.841314,0.279609 1.407652,0.728702 1.6875,1.34375 0.388554,0.853959 0.306158,1.980256 0.1875,2.3125 l 0.9375,0.34375 C 14.291016,14.941407 13.992305,11.187079 10,11.000001 l 0,7.5 c 0,0.09464 -0.01957,0.167778 -0.03125,0.21875 -0.1589435,1.275517 -1.6416965,2.28125 -3.46875,2.28125 -1.9329966,0 -3.5,-1.119288 -3.5,-2.5 0,-1.380712 1.5670034,-2.5 3.5,-2.5 0.9849755,0 1.8639871,0.282255 2.5,0.75 l 0,-9.75 1,0 c 0,0 0.34375,1.03125 1.84375,2.15625 1.473793,1.105345 3.264921,3.405902 1.96875,7.125 l 0.9375,0.3125 c 0.715684,-2.053509 0.586674,-3.826371 0.03125,-5.21875 -0.555424,-1.3923794 -1.496983,-2.3649249 -2.34375,-3 -0.662775,-0.4970809 -1.034613,-0.9674004 -1.25,-1.28125 -0.215387,-0.3138496 -0.25,-0.40625 -0.25,-0.40625 C 10.810604,6.2933317 10.414084,6.0025508 10,6.000001 l -1,0 c -0.031227,-0.00148 -0.062523,-0.00148 -0.09375,0 -0.031227,-0.00148 -0.062523,-0.00148 -0.09375,0 z"
       id="path6748"
       inkscape:connector-curvature="0"
       sodipodi:nodetypes="cccssssscccscscccscssscccsccsssccccc" />
    <path
       style="fill:url(#radialGradient3806);fill-opacity:1.0;stroke:none;display:inline"
       d="m 9,7.000001 c 0,3.583333 0,6.166666 0,9.75 -0.6360129,-0.467745 -1.5150245,-0.75 -2.5,-0.75 -1.9329966,0 -3.5,1.119288 -3.5,2.5 0,1.380712 1.5670034,2.5 3.5,2.5 1.8270535,0 3.3098065,-1.005733 3.46875,-2.28125 C 9.9804301,18.667779 10,18.594638 10,18.500001 l 0,-7.5 c 3.992305,0.187078 4.291016,3.941406 3.8125,5.28125 1.296171,-3.719098 -0.494957,-6.019655 -1.96875,-7.125 C 10.34375,8.031251 10,7.000001 10,7.000001 z"
       id="path2834"
       inkscape:connector-curvature="0"
       sodipodi:nodetypes="ccssscsccscc" />
    <path
       style="opacity:0.3;fill:#000000;fill-opacity:1;stroke:none;display:inline"
       d="m 9,7.000001 0,1 1,0 c 0,0 0.34375,1.03125 1.84375,2.15625 1.05643,0.792322 2.246424,2.209682 2.375,4.3125 0.267652,-2.668947 -1.157876,-4.399657 -2.375,-5.3125 C 10.34375,8.031251 10,7.000001 10,7.000001 z m 4.9375,8.6875 c -0.02983,0.23125 -0.06519,0.42627 -0.125,0.59375 0.05548,-0.159178 0.111818,-0.314752 0.15625,-0.46875 -0.0025,-0.04131 -0.02761,-0.08314 -0.03125,-0.125 z M 6.5,16.000001 c -1.9329966,0 -3.5,1.119288 -3.5,2.5 0,0.172589 0.015877,0.337256 0.0625,0.5 0.3263619,-1.139208 1.746128,-2 3.4375,-2 0.9849755,0 1.8639871,0.282255 2.5,0.75 l 0,-1 c -0.6360129,-0.467745 -1.5150245,-0.75 -2.5,-0.75 z"
       id="path3144"
       inkscape:connector-curvature="0"
       sodipodi:nodetypes="cccscsccccccsscsccs" />
    <path
       style="opacity:0.2;fill:#ffffff;fill-opacity:1;stroke:none;display:inline"
       d="m 10,11.000001 0,1 c 2.84614,0.133369 3.789121,2.064202 3.9375,3.65625 0.197639,-1.623863 -0.464163,-4.49349 -3.9375,-4.65625 z m 4.21875,3.46875 c -0.04257,0.424511 -0.113636,0.871123 -0.25,1.34375 0.03541,0.579476 -0.03006,1.115407 -0.15625,1.46875 0.367062,-1.05321 0.457046,-1.981742 0.40625,-2.8125 z M 10,18.500001 c 0,0.09464 -0.01957,0.167778 -0.03125,0.21875 -0.1589435,1.275517 -1.6416965,2.28125 -3.46875,2.28125 -1.691372,0 -3.1111381,-0.860792 -3.4375,-2 -0.046623,0.162744 -0.0625,0.327411 -0.0625,0.5 0,1.380712 1.5670034,2.5 3.5,2.5 1.8270535,0 3.3098065,-1.005733 3.46875,-2.28125 C 9.9804301,19.667779 10,19.594638 10,19.500001 z"
       id="path3921"
       inkscape:connector-curvature="0"
       sodipodi:nodetypes="ccccccccccscsscsc" />
    <path
       style="fill:#000000;fill-opacity:1;stroke:none;display:inline;opacity:0.3"
       d="M 9 1 L 9 10.75 C 8.3639871 10.282255 7.4849755 10 6.5 10 C 4.5670034 10 3 11.119288 3 12.5 C 3 13.880712 4.5670034 15 6.5 15 C 8.3270535 15 9.8098065 13.994267 9.96875 12.71875 C 9.9804301 12.667778 10 12.594637 10 12.5 L 10 5 C 13.992305 5.187078 14.291016 8.941406 13.8125 10.28125 C 15.108671 6.562152 13.317543 4.261595 11.84375 3.15625 C 10.34375 2.03125 10 1 10 1 L 9 1 z M 9.5 1.5 L 9.71875 1.5 C 9.7838592 1.6408335 9.7988664 1.6899553 9.96875 1.9375 C 10.270643 2.3774008 10.769744 2.9366829 11.5625 3.53125 C 12.24554 4.04353 12.978146 4.833045 13.40625 5.90625 C 13.424378 5.951695 13.420492 6.016 13.4375 6.0625 C 12.732636 5.223385 11.621173 4.574503 10.03125 4.5 A 0.48591427 0.48591427 0 0 0 9.5 4.90625 L 9.5 1.5 z M 6.5 10.5 C 7.3921556 10.5 8.1797105 10.759822 8.71875 11.15625 A 0.48591427 0.48591427 0 0 0 9.5 10.90625 L 9.5 12.5 C 9.5 12.527656 9.5154693 12.557492 9.5 12.625 A 0.48591427 0.48591427 0 0 0 9.5 12.65625 C 9.3830299 13.594932 8.1487514 14.5 6.5 14.5 C 5.6272807 14.5 4.8507595 14.259471 4.3125 13.875 C 3.7742405 13.490529 3.5 13.006549 3.5 12.5 C 3.5 11.993451 3.7742405 11.509471 4.3125 11.125 C 4.8507595 10.740529 5.6272807 10.5 6.5 10.5 z "
       transform="translate(0,6)"
       id="path3827" />
  </g>
</svg>
