<?xml version="1.0" encoding="UTF-8" standalone="no"?>
<!-- Created with Inkscape (http://www.inkscape.org/) -->

<svg
   xmlns:dc="http://purl.org/dc/elements/1.1/"
   xmlns:cc="http://creativecommons.org/ns#"
   xmlns:rdf="http://www.w3.org/1999/02/22-rdf-syntax-ns#"
   xmlns:svg="http://www.w3.org/2000/svg"
   xmlns="http://www.w3.org/2000/svg"
   xmlns:xlink="http://www.w3.org/1999/xlink"
   xmlns:sodipodi="http://sodipodi.sourceforge.net/DTD/sodipodi-0.dtd"
   xmlns:inkscape="http://www.inkscape.org/namespaces/inkscape"
   width="16"
   height="16"
   id="svg2"
   sodipodi:version="0.32"
   inkscape:version="0.48.1 r9760"
   version="1.0"
   sodipodi:docname="system-devices-panel-alert.svg"
   inkscape:output_extension="org.inkscape.output.svg.inkscape"
   style="display:inline"
   inkscape:export-filename="/home/matthieu/Eye-Candy/Faience/0.1/sources/status/small/audio-volume-high.png"
   inkscape:export-xdpi="90"
   inkscape:export-ydpi="90">
  <defs
     id="defs4">
    <linearGradient
       id="SpecificGradient"
       x1="10.406627"
       y1="2"
       x2="10.406627"
       y2="18.000771"
       gradientUnits="userSpaceOnUse">
      <stop
         style="stop-color:#e64b36;stop-opacity:1;"
         offset="0"
         id="stop3292" />
      <stop
         style="stop-color:#a31414;stop-opacity:1;"
         offset="1"
         id="stop3294" />
    </linearGradient>
    <radialGradient
       inkscape:collect="always"
       xlink:href="#SpecificGradient-8"
       id="radialGradient3817"
       gradientUnits="userSpaceOnUse"
       cx="26"
       cy="2"
       fx="26"
       fy="2"
       r="2"
       gradientTransform="translate(0,12)" />
    <linearGradient
       id="SpecificGradient-8"
       x1="10.406627"
       y1="2"
       x2="10.406627"
       y2="18.000771"
       gradientUnits="userSpaceOnUse">
      <stop
         style="stop-color:#e64b36;stop-opacity:1;"
         offset="0"
         id="stop3292-7" />
      <stop
         style="stop-color:#a31414;stop-opacity:1;"
         offset="1"
         id="stop3294-1" />
    </linearGradient>
    <radialGradient
       inkscape:collect="always"
       xlink:href="#StandardGradient"
       id="radialGradient3813"
       cx="26"
       cy="2"
       fx="26"
       fy="2"
       r="2"
       gradientUnits="userSpaceOnUse"
       gradientTransform="translate(0,6)" />
    <linearGradient
       id="StandardGradient"
       gradientTransform="scale(0.9219544,1.0846523)"
       x1="11.998966"
       y1="0.92195445"
       x2="11.998966"
       y2="19.387045"
       gradientUnits="userSpaceOnUse">
      <stop
         style="stop-color:#000000;stop-opacity:0.23529412;"
         offset="0"
         id="stop3283-1" />
      <stop
         id="stop3850"
         offset="0.69999999"
         style="stop-color:#000000;stop-opacity:0.39215686;" />
      <stop
         style="stop-color:#000000;stop-opacity:0.55;"
         offset="1"
         id="stop2651" />
    </linearGradient>
    <radialGradient
       inkscape:collect="always"
       xlink:href="#SpecificGradient"
       id="radialGradient3800"
       cx="13"
       cy="12.000011"
       fx="13"
       fy="12.000011"
       r="6.9999928"
       gradientTransform="matrix(2.1428593,0,0,1,-17.857172,2.999989)"
       gradientUnits="userSpaceOnUse" />
  </defs>
  <sodipodi:namedview
     id="base"
     pagecolor="#818181"
     bordercolor="#ffcfcf"
     borderopacity="1"
     inkscape:pageopacity="1"
     inkscape:pageshadow="2"
     inkscape:zoom="22.640002"
     inkscape:cx="-9.5823239"
     inkscape:cy="5.1327809"
     inkscape:document-units="px"
     inkscape:current-layer="layer1"
     showgrid="true"
     inkscape:showpageshadow="false"
     showguides="true"
     inkscape:guide-bbox="true"
     inkscape:window-width="1920"
     inkscape:window-height="1030"
     inkscape:window-x="0"
     inkscape:window-y="25"
     inkscape:window-maximized="1"
     borderlayer="true"
     inkscape:snap-global="true">
    <sodipodi:guide
       orientation="0,1"
       position="26.278146,128"
       id="guide2385" />
    <sodipodi:guide
       orientation="1,0"
       position="128,54.082119"
       id="guide2387" />
    <sodipodi:guide
       orientation="0,1"
       position="60.863576,64.084768"
       id="guide2391" />
    <inkscape:grid
       type="xygrid"
       id="grid3672"
       visible="true"
       enabled="true"
       empspacing="8"
       snapvisiblegridlinesonly="true" />
    <sodipodi:guide
       orientation="1,0"
       position="13,6"
       id="guide3013" />
    <sodipodi:guide
       orientation="0,1"
       position="18,10"
       id="guide3015" />
  </sodipodi:namedview>
  <metadata
     id="metadata7">
    <rdf:RDF>
      <cc:Work
         rdf:about="">
        <dc:format>image/svg+xml</dc:format>
        <dc:type
           rdf:resource="http://purl.org/dc/dcmitype/StillImage" />
        <dc:title />
      </cc:Work>
    </rdf:RDF>
  </metadata>
  <g
     inkscape:label="Icon"
     inkscape:groupmode="layer"
     id="layer1"
     style="display:inline"
     transform="translate(0,-6)">
    <path
       inkscape:connector-curvature="0"
       style="opacity:0.05;fill:#ffffff;fill-opacity:1;fill-rule:nonzero;stroke:none;stroke-width:1;marker:none;visibility:visible;display:block;overflow:visible;enable-background:accumulate"
       d="m 7.03125,6 c -0.8112558,0 -1.5,0.6817529 -1.5,1.5 l 0,0.34375 C 5.4791123,7.8643786 5.4266416,7.8842581 5.375,7.90625 l -0.21875,-0.25 c -0.00712,-0.00712 -0.023981,0.00694 -0.03125,0 -0.5592595,-0.5337613 -1.5510481,-0.5427381 -2.09375,0 l -1.375,1.375 c -0.5427076,0.5427048 -0.5337622,1.534477 0,2.09375 l 0.25,0.25 c -0.021992,0.05164 -0.041871,0.104112 -0.0625,0.15625 l -0.34375,0 c -0.81824227,0 -1.5,0.688746 -1.5,1.5 l 0,1.9375 c 0,0.811255 0.68175533,1.5 1.5,1.5 l 0.34375,0 c 0.020629,0.05214 0.040508,0.104608 0.0625,0.15625 l -0.25,0.25 c -0.5337775,0.55927 -0.5427156,1.551048 0,2.09375 l 1.375,1.375 c 0.5427284,0.54272 1.5344817,0.533711 2.09375,0 l 0.03125,0 0.21875,-0.25 c 0.051642,0.02199 0.104112,0.04187 0.15625,0.0625 l 0,0.34375 c -8.8e-6,0.818261 0.6887354,1.5 1.5,1.5 l 1.9375,0 c 0.8112665,0 1.5,-0.681747 1.5,-1.5 l 0,-0.34375 c 0.05214,-0.02063 0.104608,-0.04051 0.15625,-0.0625 l 0.25,0.25 c 0.559248,0.53375 1.551042,0.542775 2.09375,0 l 1.375,-1.375 c 0.54271,-0.542724 0.533702,-1.534486 0,-2.09375 l -0.25,-0.25 c 0.02199,-0.05164 0.04187,-0.104112 0.0625,-0.15625 l 0.34375,0 c 0.818249,0 1.5,-0.688746 1.5,-1.5 l 0,-1.9375 c 0,-0.811256 -0.681757,-1.5 -1.5,-1.5 l -0.34375,0 C 14.13562,11.47911 14.11574,11.426642 14.09375,11.375 l 0.25,-0.21875 0,-0.03125 c 0.235597,-0.244593 0.434061,-0.624861 0.4375,-1.03125 0.0038,-0.447529 -0.198276,-0.823259 -0.4375,-1.0625 l -1.375,-1.375 c -0.542701,-0.5426982 -1.534476,-0.5337679 -2.09375,0 -0.0073,0.00694 -0.02413,-0.00712 -0.03125,0 l -0.21875,0.25 C 10.57336,7.884258 10.520888,7.864379 10.46875,7.84375 l 0,-0.34375 c 0,-0.8182443 -0.6887515,-1.5 -1.5,-1.5 l -1.9375,0 z m 0,1 1.9375,0 c 0.275483,0 0.5,0.219804 0.5,0.5 l 0,1 c 0.492583,0.131246 0.944358,0.31204 1.375,0.5625 L 11.5625,8.375 c 0.198126,-0.198122 0.492704,-0.194795 0.6875,0 l 1.375,1.375 c 0.09739,0.097398 0.15735,0.215552 0.15625,0.34375 -0.0011,0.128198 -0.05719,0.24469 -0.15625,0.34375 l -0.6875,0.71875 c 0.250458,0.430643 0.431257,0.882418 0.5625,1.375 l 1,0 c 0.280192,0 0.5,0.224515 0.5,0.5 l 0,1.9375 c 0,0.275482 -0.219806,0.5 -0.5,0.5 l -1,0 c -0.131244,0.492583 -0.312041,0.944358 -0.5625,1.375 l 0.6875,0.71875 c 0.1981,0.198126 0.194794,0.492701 0,0.6875 l -1.375,1.375 c -0.194796,0.19482 -0.489375,0.198124 -0.6875,0 l -0.71875,-0.6875 c -0.430643,0.250457 -0.882418,0.431257 -1.375,0.5625 l 0,1 c 0,0.280189 -0.224518,0.5 -0.5,0.5 l -1.9375,0 c -0.275484,0 -0.500003,-0.219811 -0.5,-0.5 l 0,-1 C 6.038666,19.368757 5.586891,19.187957 5.15625,18.9375 L 4.4375,19.625 c -0.198124,0.1981 -0.492703,0.194794 -0.6875,0 L 2.375,18.25 c -0.194801,-0.194796 -0.198125,-0.489376 0,-0.6875 L 3.0625,16.84375 C 2.812043,16.413108 2.631244,15.961333 2.5,15.46875 l -1,0 c -0.280193,0 -0.5,-0.224516 -0.5,-0.5 l 0,-1.9375 c 0,-0.275485 0.219807,-0.5 0.5,-0.5 l 1,0 c 0.131244,-0.492582 0.312043,-0.944357 0.5625,-1.375 L 2.375,10.4375 C 2.17688,10.239374 2.180204,9.944795 2.375,9.75 L 3.75,8.375 c 0.194796,-0.194809 0.489374,-0.198125 0.6875,0 L 5.15625,9.0625 C 5.586891,8.812043 6.038666,8.631247 6.53125,8.5 l 0,-1 c 0,-0.280193 0.224517,-0.5 0.5,-0.5 z M 8,11 c -1.6568542,0 -3,1.343146 -3,3 0,1.656854 1.3431458,3 3,3 1.6568542,0 3,-1.343146 3,-3 0,-1.656854 -1.3431458,-3 -3,-3 z m 0,1 c 1.112511,0 2,0.887489 2,2 0,1.112511 -0.887489,2 -2,2 -1.112511,0 -2,-0.887489 -2,-2 0,-1.112511 0.887489,-2 2,-2 z"
       id="path3876" />
    <path
       inkscape:connector-curvature="0"
       style="fill:url(#radialGradient3800);fill-opacity:1.0;fill-rule:nonzero;stroke:none;stroke-width:1;marker:none;visibility:visible;display:block;overflow:visible;enable-background:accumulate"
       d="m 7.03125,7 c -0.275483,0 -0.5,0.219807 -0.5,0.5 l 0,1 C 6.038666,8.631247 5.586891,8.812043 5.15625,9.0625 L 4.4375,8.375 C 4.239374,8.176875 3.944796,8.180191 3.75,8.375 L 2.375,9.75 c -0.194796,0.194795 -0.19812,0.489374 0,0.6875 l 0.6875,0.71875 C 2.812043,11.586893 2.631244,12.038668 2.5,12.53125 l -1,0 c -0.280193,0 -0.5,0.224515 -0.5,0.5 l 0,1.9375 c 0,0.275484 0.219807,0.5 0.5,0.5 l 1,0 c 0.131244,0.492583 0.312043,0.944358 0.5625,1.375 L 2.375,17.5625 c -0.198125,0.198124 -0.194801,0.492704 0,0.6875 l 1.375,1.375 c 0.194797,0.194794 0.489376,0.1981 0.6875,0 l 0.71875,-0.6875 c 0.430641,0.250457 0.882416,0.431257 1.375,0.5625 l 0,1 c -3e-6,0.280189 0.224516,0.5 0.5,0.5 l 1.9375,0 c 0.275482,0 0.5,-0.219811 0.5,-0.5 l 0,-1 c 0.492582,-0.131243 0.944357,-0.312043 1.375,-0.5625 l 0.71875,0.6875 c 0.198125,0.198124 0.492704,0.19482 0.6875,0 l 1.375,-1.375 c 0.194794,-0.194799 0.1981,-0.489374 0,-0.6875 l -0.6875,-0.71875 c 0.250459,-0.430642 0.431256,-0.882417 0.5625,-1.375 l 1,0 c 0.280194,0 0.5,-0.224518 0.5,-0.5 l 0,-1.9375 c 0,-0.275485 -0.219808,-0.5 -0.5,-0.5 l -1,0 c -0.131243,-0.492582 -0.312042,-0.944357 -0.5625,-1.375 L 13.625,10.4375 c 0.09906,-0.09906 0.155165,-0.215552 0.15625,-0.34375 C 13.78235,9.965552 13.722391,9.847398 13.625,9.75 L 12.25,8.375 c -0.194796,-0.194795 -0.489374,-0.198122 -0.6875,0 L 10.84375,9.0625 C 10.413108,8.81204 9.961333,8.631246 9.46875,8.5 l 0,-1 c 0,-0.280196 -0.224517,-0.5 -0.5,-0.5 L 7.03125,7 z M 8,11 c 1.6568542,0 3,1.343146 3,3 0,1.656854 -1.3431458,3 -3,3 -1.6568542,0 -3,-1.343146 -3,-3 0,-1.656854 1.3431458,-3 3,-3 z"
       id="path2862" />
    <rect
       style="color:#000000;fill:url(#radialGradient3813);fill-opacity:1;fill-rule:nonzero;stroke:none;stroke-width:1;marker:none;visibility:visible;display:inline;overflow:visible;enable-background:accumulate"
       id="rect3036"
       width="4"
       height="4"
       x="24"
       y="6" />
    <rect
       y="12"
       x="24"
       height="4"
       width="4"
       id="rect3815"
       style="color:#000000;fill:url(#radialGradient3817);fill-opacity:1;fill-rule:nonzero;stroke:none;stroke-width:1;marker:none;visibility:visible;display:inline;overflow:visible;enable-background:accumulate" />
    <path
       inkscape:connector-curvature="0"
       style="opacity:0.25;fill:#000000;fill-opacity:1;fill-rule:nonzero;stroke:none;stroke-width:1;marker:none;visibility:visible;display:block;overflow:visible;enable-background:accumulate"
       d="m 7.03125,7 c -0.275483,0 -0.5,0.219807 -0.5,0.5 l 0,1 C 6.038666,8.631247 5.586891,8.812043 5.15625,9.0625 L 4.4375,8.375 C 4.239374,8.176875 3.944796,8.180191 3.75,8.375 L 2.375,9.75 c -0.194796,0.194795 -0.19812,0.489374 0,0.6875 l 0.6875,0.71875 C 2.812043,11.586893 2.631244,12.038668 2.5,12.53125 l -1,0 c -0.280193,0 -0.5,0.224515 -0.5,0.5 l 0,1.9375 c 0,0.275484 0.219807,0.5 0.5,0.5 l 1,0 c 0.131244,0.492583 0.312043,0.944358 0.5625,1.375 L 2.375,17.5625 c -0.198125,0.198124 -0.194801,0.492704 0,0.6875 l 1.375,1.375 c 0.194797,0.194794 0.489376,0.1981 0.6875,0 l 0.71875,-0.6875 c 0.430641,0.250457 0.882416,0.431257 1.375,0.5625 l 0,1 c -3e-6,0.280189 0.224516,0.5 0.5,0.5 l 1.9375,0 c 0.275482,0 0.5,-0.219811 0.5,-0.5 l 0,-1 c 0.492582,-0.131243 0.944357,-0.312043 1.375,-0.5625 l 0.71875,0.6875 c 0.198125,0.198124 0.492704,0.19482 0.6875,0 l 1.375,-1.375 c 0.194794,-0.194799 0.1981,-0.489374 0,-0.6875 l -0.6875,-0.71875 c 0.250459,-0.430642 0.431256,-0.882417 0.5625,-1.375 l 1,0 c 0.280194,0 0.5,-0.224518 0.5,-0.5 l 0,-1.9375 c 0,-0.275485 -0.219808,-0.5 -0.5,-0.5 l -1,0 c -0.131243,-0.492582 -0.312042,-0.944357 -0.5625,-1.375 L 13.625,10.4375 c 0.09906,-0.09906 0.155165,-0.215552 0.15625,-0.34375 C 13.78235,9.965552 13.722391,9.847398 13.625,9.75 L 12.25,8.375 c -0.194796,-0.194795 -0.489374,-0.198122 -0.6875,0 L 10.84375,9.0625 C 10.413108,8.81204 9.961333,8.631246 9.46875,8.5 l 0,-1 c 0,-0.280196 -0.224517,-0.5 -0.5,-0.5 l -1.9375,0 z m 0,0.5 1.9375,0 0,1 a 0.48591427,0.48591427 0 0 0 0.375,0.46875 c 0.4567359,0.1216947 0.859177,0.2726984 1.25,0.5 a 0.48591427,0.48591427 0 0 0 0.59375,-0.0625 l 0.71875,-0.6875 1.375,1.375 -0.6875,0.71875 a 0.48591427,0.48591427 0 0 0 -0.0625,0.59375 c 0.227302,0.390828 0.378309,0.79327 0.5,1.25 a 0.48591427,0.48591427 0 0 0 0.46875,0.375 l 1,0 0,1.9375 -1,0 a 0.48591427,0.48591427 0 0 0 -0.46875,0.375 c -0.121692,0.456733 -0.272698,0.859175 -0.5,1.25 a 0.48591427,0.48591427 0 0 0 0.0625,0.59375 l 0.6875,0.71875 -1.375,1.375 -0.71875,-0.6875 a 0.48591427,0.48591427 0 0 0 -0.59375,-0.0625 c -0.390829,0.227302 -0.7932704,0.378309 -1.25,0.5 A 0.48591427,0.48591427 0 0 0 8.96875,19.5 l 0,1 -1.9375,0 0,-1 a 0.48591427,0.48591427 0 0 0 -0.375,-0.46875 c -0.4567314,-0.121691 -0.8591738,-0.272699 -1.25,-0.5 a 0.48591427,0.48591427 0 0 0 -0.59375,0.0625 l -0.71875,0.6875 -1.375,-1.375 0.6875,-0.71875 a 0.48591427,0.48591427 0 0 0 0.0625,-0.59375 c -0.227301,-0.390827 -0.3783082,-0.793268 -0.5,-1.25 A 0.48591427,0.48591427 0 0 0 2.5,14.96875 l -1,0 0,-1.9375 1,0 a 0.48591427,0.48591427 0 0 0 0.46875,-0.375 c 0.1216918,-0.456731 0.2726988,-0.859172 0.5,-1.25 A 0.48591427,0.48591427 0 0 0 3.40625,10.8125 l -0.6875,-0.71875 1.375,-1.375 0.71875,0.6875 a 0.48591427,0.48591427 0 0 0 0.59375,0.0625 c 0.3908242,-0.2272999 0.7932638,-0.3783045 1.25,-0.5 A 0.48591427,0.48591427 0 0 0 7.03125,8.5 l 0,-1 z M 8,10.5 c -1.9194355,0 -3.5,1.580565 -3.5,3.5 0,1.919436 1.5805645,3.5 3.5,3.5 1.9194355,0 3.5,-1.580564 3.5,-3.5 0,-1.919435 -1.5805645,-3.5 -3.5,-3.5 z M 8,11 c 1.6568542,0 3,1.343146 3,3 0,1.656854 -1.3431458,3 -3,3 -1.6568542,0 -3,-1.343146 -3,-3 0,-1.656854 1.3431458,-3 3,-3 z"
       id="path3839" />
    <path
       inkscape:connector-curvature="0"
       style="opacity:0.25;fill:#000000;fill-opacity:1;fill-rule:nonzero;stroke:none;stroke-width:1;marker:none;visibility:visible;display:block;overflow:visible;enable-background:accumulate"
       d="m 7.03125,7 c -0.275483,0 -0.5,0.219807 -0.5,0.5 l 0,1 c 0,-0.280193 0.224517,-0.5 0.5,-0.5 l 1.9375,0 c 0.275483,0 0.5,0.219804 0.5,0.5 l 0,-1 c 0,-0.280196 -0.224517,-0.5 -0.5,-0.5 l -1.9375,0 z m 2.4375,1.5 0,1 c 0.492583,0.131246 0.944358,0.31204 1.375,0.5625 L 11.5625,9.375 c 0.198126,-0.198122 0.492704,-0.194795 0.6875,0 l 1.21875,1.21875 0.15625,-0.15625 c 0.09906,-0.09906 0.155165,-0.215552 0.15625,-0.34375 C 13.78235,9.965552 13.722391,9.847398 13.625,9.75 L 12.25,8.375 c -0.194796,-0.194795 -0.489374,-0.198122 -0.6875,0 L 10.84375,9.0625 C 10.413108,8.81204 9.961333,8.631246 9.46875,8.5 z m -2.9375,0 C 6.038666,8.631247 5.586891,8.812043 5.15625,9.0625 L 4.4375,8.375 C 4.239374,8.176875 3.944796,8.180191 3.75,8.375 L 2.375,9.75 c -0.194796,0.194795 -0.19812,0.489374 0,0.6875 L 2.53125,10.59375 3.75,9.375 c 0.194796,-0.194809 0.489374,-0.198125 0.6875,0 l 0.71875,0.6875 C 5.586891,9.812043 6.038666,9.631247 6.53125,9.5 l 0,-1 z M 2.75,11.8125 C 2.657088,12.040847 2.565622,12.284959 2.5,12.53125 l -1,0 c -0.280193,0 -0.5,0.224515 -0.5,0.5 l 0,1 c 0,-0.275485 0.219807,-0.5 0.5,-0.5 l 1,0 c 0.131244,-0.492582 0.312043,-0.944357 0.5625,-1.375 L 2.75,11.8125 z m 10.5,0 -0.3125,0.34375 c 0.250458,0.430643 0.431257,0.882418 0.5625,1.375 l 1,0 c 0.280192,0 0.5,0.224515 0.5,0.5 l 0,-1 c 0,-0.275485 -0.219808,-0.5 -0.5,-0.5 l -1,0 C 13.434379,12.284959 13.342912,12.040847 13.25,11.8125 z M 5.0625,14.5 C 5.0338207,14.666575 5,14.825236 5,15 c 0,1.656854 1.3431458,3 3,3 1.6568542,0 3,-1.343146 3,-3 0,-0.174764 -0.03382,-0.333425 -0.0625,-0.5 C 10.694284,15.912646 9.4820901,17 8,17 6.5179099,17 5.3057158,15.912646 5.0625,14.5 z M 2.75,17.1875 2.375,17.5625 c -0.198125,0.198124 -0.194801,0.492704 0,0.6875 l 0.15625,0.15625 0.53125,-0.5625 C 2.9372715,17.628429 2.8429124,17.415847 2.75,17.1875 z m 10.5,0 c -0.09291,0.228347 -0.187271,0.440929 -0.3125,0.65625 l 0.53125,0.5625 L 13.625,18.25 c 0.194794,-0.194799 0.1981,-0.489374 0,-0.6875 l -0.375,-0.375 z"
       id="path3852" />
    <path
       inkscape:connector-curvature="0"
       style="opacity:0.2;fill:#ffffff;fill-opacity:1;fill-rule:nonzero;stroke:none;stroke-width:1;marker:none;visibility:visible;display:block;overflow:visible;enable-background:accumulate"
       d="M 2.53125,10.59375 2.375,10.75 c -0.194796,0.194795 -0.19812,0.489374 0,0.6875 l 0.375,0.375 c 0.092912,-0.228347 0.1872715,-0.440928 0.3125,-0.65625 l -0.53125,-0.5625 z m 10.9375,0 -0.53125,0.5625 c 0.125229,0.215322 0.219588,0.427903 0.3125,0.65625 l 0.375,-0.375 c 0.09906,-0.09906 0.155165,-0.215552 0.15625,-0.34375 C 13.78235,10.965552 13.722391,10.847398 13.625,10.75 L 13.46875,10.59375 z M 8,11 c -1.6568542,0 -3,1.343146 -3,3 0,0.174764 0.033821,0.333425 0.0625,0.5 C 5.3057158,13.087354 6.5179099,12 8,12 c 1.4820901,0 2.694284,1.087354 2.9375,2.5 C 10.966179,14.333425 11,14.174764 11,14 11,12.343146 9.6568542,11 8,11 z m -7,3.96875 0,1 c 0,0.275484 0.219807,0.5 0.5,0.5 l 1,0 c 0.065622,0.246291 0.1570876,0.490403 0.25,0.71875 L 3.0625,16.84375 C 2.812043,16.413108 2.631244,15.961333 2.5,15.46875 l -1,0 c -0.280193,0 -0.5,-0.224516 -0.5,-0.5 z m 14,0 c 0,0.275482 -0.219806,0.5 -0.5,0.5 l -1,0 c -0.131244,0.492583 -0.312041,0.944358 -0.5625,1.375 L 13.25,17.1875 c 0.09291,-0.228347 0.184378,-0.472459 0.25,-0.71875 l 1,0 c 0.280194,0 0.5,-0.224518 0.5,-0.5 l 0,-1 z M 2.53125,18.40625 2.375,18.5625 c -0.198125,0.198124 -0.194801,0.492704 0,0.6875 l 1.375,1.375 c 0.194797,0.194794 0.489376,0.1981 0.6875,0 l 0.71875,-0.6875 c 0.430641,0.250457 0.882416,0.431257 1.375,0.5625 l 0,-1 C 6.038666,19.368757 5.586891,19.187957 5.15625,18.9375 L 4.4375,19.625 c -0.198124,0.1981 -0.492703,0.194794 -0.6875,0 L 2.53125,18.40625 z m 4,2.09375 0,1 c -3e-6,0.280189 0.224516,0.5 0.5,0.5 l 1.9375,0 c 0.275482,0 0.5,-0.219811 0.5,-0.5 l 0,-1 c 0,0.280189 -0.224518,0.5 -0.5,0.5 l -1.9375,0 c -0.275484,0 -0.500003,-0.219811 -0.5,-0.5 z m 2.9375,0 c 0.492582,-0.131243 0.944357,-0.312043 1.375,-0.5625 l 0.71875,0.6875 c 0.198125,0.198124 0.492704,0.19482 0.6875,0 l 1.375,-1.375 c 0.194794,-0.194799 0.1981,-0.489374 0,-0.6875 L 13.46875,18.40625 12.25,19.625 c -0.194796,0.19482 -0.489375,0.198124 -0.6875,0 l -0.71875,-0.6875 c -0.430643,0.250457 -0.882418,0.431257 -1.375,0.5625 l 0,1 z"
       id="path3861" />
  </g>
</svg>
