<?xml version="1.0" encoding="UTF-8" standalone="no"?>
<!-- Created with Inkscape (http://www.inkscape.org/) -->

<svg
   xmlns:dc="http://purl.org/dc/elements/1.1/"
   xmlns:cc="http://creativecommons.org/ns#"
   xmlns:rdf="http://www.w3.org/1999/02/22-rdf-syntax-ns#"
   xmlns:svg="http://www.w3.org/2000/svg"
   xmlns="http://www.w3.org/2000/svg"
   xmlns:xlink="http://www.w3.org/1999/xlink"
   xmlns:sodipodi="http://sodipodi.sourceforge.net/DTD/sodipodi-0.dtd"
   xmlns:inkscape="http://www.inkscape.org/namespaces/inkscape"
   width="16"
   height="16"
   id="svg2"
   sodipodi:version="0.32"
   inkscape:version="0.48.1 r9760"
   version="1.0"
   sodipodi:docname="system-devices-panel-informations.svg"
   inkscape:output_extension="org.inkscape.output.svg.inkscape"
   style="display:inline"
   inkscape:export-filename="/home/matthieu/Eye-Candy/Faience/0.1/sources/status/small/audio-volume-high.png"
   inkscape:export-xdpi="90"
   inkscape:export-ydpi="90">
  <defs
     id="defs4">
    <linearGradient
       id="linearGradient3279">
      <stop
         style="stop-color:#f08e00;stop-opacity:1;"
         offset="0"
         id="stop3281" />
      <stop
         style="stop-color:#ffd200;stop-opacity:1;"
         offset="1"
         id="stop3283" />
    </linearGradient>
    <linearGradient
       inkscape:collect="always"
       xlink:href="#StandardGradient"
       id="linearGradient2934"
       gradientUnits="userSpaceOnUse"
       gradientTransform="matrix(1,0,0,-1,1,22.03125)"
       x1="7"
       y1="6"
       x2="7"
       y2="16" />
    <linearGradient
       inkscape:collect="always"
       xlink:href="#StandardGradient"
       id="linearGradient2936"
       gradientUnits="userSpaceOnUse"
       gradientTransform="matrix(1,0,0,-1,1,22.03125)"
       x1="10"
       y1="7"
       x2="10"
       y2="15" />
    <linearGradient
       inkscape:collect="always"
       xlink:href="#StandardGradient"
       id="linearGradient2938"
       gradientUnits="userSpaceOnUse"
       gradientTransform="matrix(1,0,0,-1,1,22.03125)"
       x1="13"
       y1="5"
       x2="13"
       y2="17" />
    <linearGradient
       inkscape:collect="always"
       xlink:href="#StandardGradient"
       id="linearGradient2940"
       gradientUnits="userSpaceOnUse"
       gradientTransform="matrix(1,0,0,-1,1,22.03125)"
       x1="16"
       y1="3"
       x2="16"
       y2="19" />
    <radialGradient
       inkscape:collect="always"
       xlink:href="#StandardGradient"
       id="radialGradient3857"
       cx="12"
       cy="12.447369"
       fx="12"
       fy="12.447369"
       r="6"
       gradientTransform="matrix(2.6666667,-9.1385016e-8,5.7115635e-8,1.6666667,-20.000001,-7.7456132)"
       gradientUnits="userSpaceOnUse" />
    <linearGradient
       id="StandardGradient"
       gradientTransform="scale(0.9219544,1.0846523)"
       x1="11.998966"
       y1="0.92195445"
       x2="11.998966"
       y2="19.387045"
       gradientUnits="userSpaceOnUse">
      <stop
         style="stop-color:#000000;stop-opacity:0.23529412;"
         offset="0"
         id="stop3283-1" />
      <stop
         id="stop3850"
         offset="0.69999999"
         style="stop-color:#000000;stop-opacity:0.39215686;" />
      <stop
         style="stop-color:#000000;stop-opacity:0.55;"
         offset="1"
         id="stop2651" />
    </linearGradient>
    <radialGradient
       r="6"
       fy="12.447369"
       fx="12"
       cy="12.447369"
       cx="12"
       gradientTransform="matrix(2.6666667,-9.1385016e-8,5.7115635e-8,1.6666667,-81.000001,-7.7456132)"
       gradientUnits="userSpaceOnUse"
       id="radialGradient3094"
       xlink:href="#StandardGradient"
       inkscape:collect="always" />
    <linearGradient
       inkscape:collect="always"
       xlink:href="#StandardGradient"
       id="linearGradient5517"
       gradientUnits="userSpaceOnUse"
       gradientTransform="matrix(1,0,0,-1,1,22.03125)"
       x1="16"
       y1="3"
       x2="16"
       y2="19" />
    <linearGradient
       inkscape:collect="always"
       xlink:href="#StandardGradient"
       id="linearGradient5522"
       gradientUnits="userSpaceOnUse"
       gradientTransform="matrix(1,0,0,-1,1,22.03125)"
       x1="16"
       y1="3"
       x2="16"
       y2="19" />
    <linearGradient
       inkscape:collect="always"
       xlink:href="#StandardGradient"
       id="linearGradient5526"
       gradientUnits="userSpaceOnUse"
       gradientTransform="matrix(1,0,0,-1,1,22.03125)"
       x1="16"
       y1="3"
       x2="16"
       y2="19" />
    <linearGradient
       inkscape:collect="always"
       xlink:href="#StandardGradient"
       id="linearGradient5528"
       gradientUnits="userSpaceOnUse"
       gradientTransform="matrix(1,0,0,-1,1,22.03125)"
       x1="16"
       y1="3"
       x2="16"
       y2="19" />
    <radialGradient
       inkscape:collect="always"
       xlink:href="#StandardGradient"
       id="radialGradient3786"
       cx="13"
       cy="12.055992"
       fx="13"
       fy="12.055992"
       r="9"
       gradientTransform="matrix(1.6666667,-9.5238096e-8,4.4444445e-8,0.7777778,-8.6666672,2.6231184)"
       gradientUnits="userSpaceOnUse" />
    <radialGradient
       inkscape:collect="always"
       xlink:href="#StandardGradient"
       id="radialGradient3040"
       gradientUnits="userSpaceOnUse"
       gradientTransform="matrix(1.7185356,-9.8202033e-8,4.5827616e-8,0.80198329,-10.446484,2.0969147)"
       cx="13"
       cy="12.055992"
       fx="13"
       fy="12.055992"
       r="9" />
    <radialGradient
       inkscape:collect="always"
       xlink:href="#StandardGradient"
       id="radialGradient3042"
       gradientUnits="userSpaceOnUse"
       gradientTransform="matrix(1.7185356,-9.8202033e-8,4.5827616e-8,0.80198329,-8.384241,2.0969147)"
       cx="13"
       cy="12.055992"
       fx="13"
       fy="12.055992"
       r="9" />
    <radialGradient
       inkscape:collect="always"
       xlink:href="#StandardGradient"
       id="radialGradient3046"
       gradientUnits="userSpaceOnUse"
       gradientTransform="matrix(1.7185356,-9.8202033e-8,4.5827616e-8,0.80198329,-9.4153623,2.0969147)"
       cx="13"
       cy="12.055992"
       fx="13"
       fy="12.055992"
       r="9" />
    <radialGradient
       inkscape:collect="always"
       xlink:href="#StandardGradient"
       id="radialGradient3861"
       gradientUnits="userSpaceOnUse"
       gradientTransform="matrix(1.4860681,1.5854118e-8,0,0.89164084,-6.3188853,1.0864476)"
       cx="13"
       cy="12.239852"
       fx="13"
       fy="12.239852"
       r="10.09375" />
    <radialGradient
       inkscape:collect="always"
       xlink:href="#StandardGradient"
       id="radialGradient3865"
       gradientUnits="userSpaceOnUse"
       gradientTransform="matrix(1.4860681,1.5854118e-8,0,0.89164084,-6.3188853,2.0864476)"
       cx="13"
       cy="12.239852"
       fx="13"
       fy="12.239852"
       r="10.09375" />
    <radialGradient
       inkscape:collect="always"
       xlink:href="#StandardGradient"
       id="radialGradient3872"
       gradientUnits="userSpaceOnUse"
       gradientTransform="matrix(1.4860681,1.5854118e-8,0,0.89164084,-6.3188853,1.0864476)"
       cx="13"
       cy="12.239852"
       fx="13"
       fy="12.239852"
       r="10.09375" />
    <radialGradient
       inkscape:collect="always"
       xlink:href="#StandardGradient"
       id="radialGradient3876"
       gradientUnits="userSpaceOnUse"
       gradientTransform="matrix(1.4860681,1.5854118e-8,0,0.89164084,-6.3188853,1.0864476)"
       cx="13"
       cy="12.239852"
       fx="13"
       fy="12.239852"
       r="10.09375" />
    <radialGradient
       inkscape:collect="always"
       xlink:href="#StandardGradient"
       id="radialGradient3878"
       gradientUnits="userSpaceOnUse"
       gradientTransform="matrix(1.4860681,1.5854118e-8,0,0.89164084,-6.3188853,1.0864476)"
       cx="13"
       cy="12.239852"
       fx="13"
       fy="12.239852"
       r="10.09375" />
    <radialGradient
       inkscape:collect="always"
       xlink:href="#StandardGradient"
       id="radialGradient3883"
       gradientUnits="userSpaceOnUse"
       gradientTransform="matrix(1.4860681,1.5854118e-8,0,0.89164084,-6.3188853,2.0864476)"
       cx="13"
       cy="12.239852"
       fx="13"
       fy="12.239852"
       r="10.09375" />
    <radialGradient
       inkscape:collect="always"
       xlink:href="#StandardGradient"
       id="radialGradient3887"
       gradientUnits="userSpaceOnUse"
       gradientTransform="matrix(1.4860681,1.5854118e-8,0,0.89164084,-6.3188853,1.0864476)"
       cx="13"
       cy="12.239852"
       fx="13"
       fy="12.239852"
       r="10.09375" />
    <radialGradient
       inkscape:collect="always"
       xlink:href="#StandardGradient"
       id="radialGradient3894"
       gradientUnits="userSpaceOnUse"
       gradientTransform="matrix(1.4860681,1.5854118e-8,0,0.89164084,-6.3188853,1.0864476)"
       cx="13"
       cy="12.239852"
       fx="13"
       fy="12.239852"
       r="10.09375" />
    <radialGradient
       inkscape:collect="always"
       xlink:href="#StandardGradient"
       id="radialGradient3898"
       gradientUnits="userSpaceOnUse"
       gradientTransform="matrix(1.4860681,1.5854118e-8,0,0.89164084,-6.3188853,1.0864476)"
       cx="13"
       cy="12.239852"
       fx="13"
       fy="12.239852"
       r="10.09375" />
    <linearGradient
       inkscape:collect="always"
       xlink:href="#SpecificGradient"
       id="linearGradient3642"
       x1="18.004087"
       y1="14.34689"
       x2="3.9078364"
       y2="14.34689"
       gradientUnits="userSpaceOnUse"
       gradientTransform="matrix(0,1,-1,0,22.000002,2e-6)" />
    <linearGradient
       id="StandardGradient-5"
       gradientTransform="matrix(0.9984539,0,0,0.9984539,-0.0459776,0.05767558)"
       x1="10.710332"
       y1="1.9963325"
       x2="10.710332"
       y2="18.974037"
       gradientUnits="userSpaceOnUse">
      <stop
         style="stop-color:#000000;stop-opacity:0.86274511;"
         offset="0"
         id="stop3277" />
      <stop
         style="stop-color:#000000;stop-opacity:0.47058824;"
         offset="1"
         id="stop3279" />
    </linearGradient>
    <radialGradient
       inkscape:collect="always"
       xlink:href="#SpecificGradient"
       id="radialGradient3878-7"
       cx="12"
       cy="13"
       fx="12"
       fy="13"
       r="8"
       gradientUnits="userSpaceOnUse"
       gradientTransform="matrix(2,0,0,1.25,-12,-3.25)" />
    <linearGradient
       id="SpecificGradient"
       x1="10.406627"
       y1="2"
       x2="10.406627"
       y2="18.000771"
       gradientUnits="userSpaceOnUse">
      <stop
         style="stop-color:#e64b36;stop-opacity:1;"
         offset="0"
         id="stop3292" />
      <stop
         style="stop-color:#a31414;stop-opacity:1;"
         offset="1"
         id="stop3294" />
    </linearGradient>
    <radialGradient
       r="8"
       fy="13"
       fx="12"
       cy="13"
       cx="12"
       gradientTransform="matrix(2,0,0,1.25,-21,-4.25)"
       gradientUnits="userSpaceOnUse"
       id="radialGradient3031"
       xlink:href="#SpecificGradient"
       inkscape:collect="always" />
    <linearGradient
       inkscape:collect="always"
       xlink:href="#StandardGradient-0"
       id="linearGradient3869"
       gradientUnits="userSpaceOnUse"
       gradientTransform="matrix(0,-1,-1,0,19.000002,21.000002)"
       x1="18.004087"
       y1="14.34689"
       x2="3.9078364"
       y2="14.34689" />
    <linearGradient
       id="StandardGradient-0"
       gradientTransform="matrix(0.9984539,0,0,0.9984539,-0.0459776,0.05767558)"
       x1="10.710332"
       y1="1.9963325"
       x2="10.710332"
       y2="18.974037"
       gradientUnits="userSpaceOnUse">
      <stop
         style="stop-color:#000000;stop-opacity:0.86274511;"
         offset="0"
         id="stop3277-3" />
      <stop
         style="stop-color:#000000;stop-opacity:0.47058824;"
         offset="1"
         id="stop3279-3" />
    </linearGradient>
    <linearGradient
       inkscape:collect="always"
       xlink:href="#StandardGradient-0"
       id="linearGradient3833"
       x1="54"
       y1="3.5"
       x2="59"
       y2="3.5"
       gradientUnits="userSpaceOnUse"
       gradientTransform="translate(-54,50)" />
    <linearGradient
       id="linearGradient3053"
       gradientTransform="matrix(0.9984539,0,0,0.9984539,-0.0459776,0.05767558)"
       x1="10.710332"
       y1="1.9963325"
       x2="10.710332"
       y2="18.974037"
       gradientUnits="userSpaceOnUse">
      <stop
         style="stop-color:#000000;stop-opacity:0.86274511;"
         offset="0"
         id="stop3055" />
      <stop
         style="stop-color:#000000;stop-opacity:0.47058824;"
         offset="1"
         id="stop3057" />
    </linearGradient>
    <linearGradient
       y2="3.5"
       x2="59"
       y1="3.5"
       x1="54"
       gradientTransform="translate(-46,50)"
       gradientUnits="userSpaceOnUse"
       id="linearGradient3829"
       xlink:href="#SpecificGradient-6"
       inkscape:collect="always" />
    <linearGradient
       id="SpecificGradient-6"
       x1="10.761708"
       y1="3.9999998"
       x2="10.761708"
       y2="18.011395"
       gradientUnits="userSpaceOnUse">
      <stop
         style="stop-color:#a50000;stop-opacity:1;"
         offset="0"
         id="stop3292-1" />
      <stop
         style="stop-color:#e73800;stop-opacity:1;"
         offset="1"
         id="stop3294-8" />
    </linearGradient>
    <linearGradient
       gradientTransform="translate(-3,-1)"
       inkscape:collect="always"
       xlink:href="#SpecificGradient-6"
       id="linearGradient3883"
       gradientUnits="userSpaceOnUse"
       x1="11"
       y1="4"
       x2="11"
       y2="12" />
    <linearGradient
       id="linearGradient3064"
       x1="10.761708"
       y1="3.9999998"
       x2="10.761708"
       y2="18.011395"
       gradientUnits="userSpaceOnUse">
      <stop
         style="stop-color:#a50000;stop-opacity:1;"
         offset="0"
         id="stop3066" />
      <stop
         style="stop-color:#e73800;stop-opacity:1;"
         offset="1"
         id="stop3068" />
    </linearGradient>
    <linearGradient
       inkscape:collect="always"
       xlink:href="#StandardGradient-0"
       id="linearGradient4014"
       gradientUnits="userSpaceOnUse"
       gradientTransform="translate(-53,53)"
       x1="54"
       y1="3.5"
       x2="59"
       y2="3.5" />
    <linearGradient
       inkscape:collect="always"
       xlink:href="#SpecificGradient-6"
       id="linearGradient4016"
       gradientUnits="userSpaceOnUse"
       gradientTransform="translate(-45,53)"
       x1="54"
       y1="3.5"
       x2="59"
       y2="3.5" />
    <linearGradient
       inkscape:collect="always"
       xlink:href="#SpecificGradient"
       id="linearGradient4018"
       gradientUnits="userSpaceOnUse"
       x1="11"
       y1="4"
       x2="11"
       y2="12"
       gradientTransform="translate(-3,3)" />
    <radialGradient
       inkscape:collect="always"
       xlink:href="#StandardGradient"
       id="radialGradient4020"
       cx="13"
       cy="12.037249"
       fx="13"
       fy="12.037249"
       r="7"
       gradientTransform="matrix(2.1428571,6.1402799e-8,-3.2748159e-8,1.1428571,-17.857143,-4.7568563)"
       gradientUnits="userSpaceOnUse" />
    <radialGradient
       inkscape:collect="always"
       xlink:href="#StandardGradient"
       id="radialGradient4026"
       gradientUnits="userSpaceOnUse"
       gradientTransform="matrix(2.1428571,6.1402799e-8,-3.2748159e-8,1.1428571,-14.857143,-1.7568563)"
       cx="13"
       cy="12.037249"
       fx="13"
       fy="12.037249"
       r="7" />
    <radialGradient
       inkscape:collect="always"
       xlink:href="#StandardGradient"
       id="radialGradient4030"
       gradientUnits="userSpaceOnUse"
       gradientTransform="matrix(2.1428571,6.1402799e-8,-3.2748159e-8,1.1428571,-14.857143,-1.7568563)"
       cx="13"
       cy="12.037249"
       fx="13"
       fy="12.037249"
       r="7" />
    <radialGradient
       inkscape:collect="always"
       xlink:href="#StandardGradient"
       id="radialGradient4032"
       gradientUnits="userSpaceOnUse"
       gradientTransform="matrix(2.1428571,6.1402799e-8,-3.2748159e-8,1.1428571,-14.857143,-1.7568563)"
       cx="13"
       cy="12.037249"
       fx="13"
       fy="12.037249"
       r="7" />
    <radialGradient
       inkscape:collect="always"
       xlink:href="#StandardGradient"
       id="radialGradient3848"
       gradientUnits="userSpaceOnUse"
       gradientTransform="matrix(2.1428571,6.1402799e-8,-3.2748159e-8,1.1428571,-17.857143,2.2431437)"
       cx="13"
       cy="12.037249"
       fx="13"
       fy="12.037249"
       r="7" />
    <radialGradient
       inkscape:collect="always"
       xlink:href="#StandardGradient"
       id="radialGradient3850"
       gradientUnits="userSpaceOnUse"
       gradientTransform="matrix(2.1428571,6.1402799e-8,-3.2748159e-8,1.1428571,-17.857143,-4.7568563)"
       cx="13"
       cy="12.037249"
       fx="13"
       fy="12.037249"
       r="7" />
    <radialGradient
       inkscape:collect="always"
       xlink:href="#StandardGradient"
       id="radialGradient3858"
       gradientUnits="userSpaceOnUse"
       gradientTransform="matrix(2.1428571,6.1402799e-8,-3.2748159e-8,1.1428571,-17.857143,-4.7568563)"
       cx="13"
       cy="12.037249"
       fx="13"
       fy="12.037249"
       r="7" />
    <radialGradient
       inkscape:collect="always"
       xlink:href="#StandardGradient"
       id="radialGradient3862"
       gradientUnits="userSpaceOnUse"
       gradientTransform="matrix(2.1428571,6.1402799e-8,-3.2748159e-8,1.1428571,-17.857143,-3.7568563)"
       cx="13"
       cy="12.037249"
       fx="13"
       fy="12.037249"
       r="7" />
    <radialGradient
       inkscape:collect="always"
       xlink:href="#StandardGradient"
       id="radialGradient3866"
       gradientUnits="userSpaceOnUse"
       gradientTransform="matrix(2.1428571,6.1402799e-8,-3.2748159e-8,1.1428571,-17.857143,1.2431437)"
       cx="13"
       cy="12.037249"
       fx="13"
       fy="12.037249"
       r="7" />
    <radialGradient
       inkscape:collect="always"
       xlink:href="#StandardGradient"
       id="radialGradient3873"
       gradientUnits="userSpaceOnUse"
       gradientTransform="matrix(2.1428571,6.1402799e-8,-3.2748159e-8,1.1428571,-17.857143,-4.7568563)"
       cx="13"
       cy="12.037249"
       fx="13"
       fy="12.037249"
       r="7" />
    <radialGradient
       inkscape:collect="always"
       xlink:href="#StandardGradient"
       id="radialGradient3879"
       gradientUnits="userSpaceOnUse"
       gradientTransform="matrix(2.1428571,6.1402799e-8,-3.2748159e-8,1.1428571,-17.857143,-4.7568563)"
       cx="13"
       cy="12.037249"
       fx="13"
       fy="12.037249"
       r="7" />
    <radialGradient
       inkscape:collect="always"
       xlink:href="#StandardGradient"
       id="radialGradient3884"
       gradientUnits="userSpaceOnUse"
       gradientTransform="matrix(2.1428571,6.1402799e-8,-3.2748159e-8,1.1428571,-17.857143,-4.7568563)"
       cx="13"
       cy="12.037249"
       fx="13"
       fy="12.037249"
       r="7" />
  </defs>
  <sodipodi:namedview
     id="base"
     pagecolor="#818181"
     bordercolor="#ffcfcf"
     borderopacity="1"
     inkscape:pageopacity="1"
     inkscape:pageshadow="2"
     inkscape:zoom="22.640002"
     inkscape:cx="-6.537388"
     inkscape:cy="5.0444417"
     inkscape:document-units="px"
     inkscape:current-layer="layer1"
     showgrid="true"
     inkscape:showpageshadow="false"
     showguides="true"
     inkscape:guide-bbox="true"
     inkscape:window-width="1920"
     inkscape:window-height="1030"
     inkscape:window-x="0"
     inkscape:window-y="25"
     inkscape:window-maximized="1"
     borderlayer="true"
     inkscape:snap-global="true">
    <sodipodi:guide
       orientation="0,1"
       position="26.278146,128"
       id="guide2385" />
    <sodipodi:guide
       orientation="1,0"
       position="128,54.082119"
       id="guide2387" />
    <sodipodi:guide
       orientation="0,1"
       position="60.863576,64.084768"
       id="guide2391" />
    <inkscape:grid
       type="xygrid"
       id="grid3672"
       visible="true"
       enabled="true"
       empspacing="8"
       snapvisiblegridlinesonly="true" />
    <sodipodi:guide
       orientation="1,0"
       position="13,6"
       id="guide3013" />
    <sodipodi:guide
       orientation="0,1"
       position="18,10"
       id="guide3015" />
  </sodipodi:namedview>
  <metadata
     id="metadata7">
    <rdf:RDF>
      <cc:Work
         rdf:about="">
        <dc:format>image/svg+xml</dc:format>
        <dc:type
           rdf:resource="http://purl.org/dc/dcmitype/StillImage" />
        <dc:title />
      </cc:Work>
    </rdf:RDF>
  </metadata>
  <g
     inkscape:label="Icon"
     inkscape:groupmode="layer"
     id="layer1"
     style="display:inline"
     transform="translate(0,-6)">
    <path
       style="fill:#ffffff;fill-opacity:1;fill-rule:nonzero;stroke:none;stroke-width:1;marker:none;visibility:visible;display:block;overflow:visible;enable-background:accumulate;opacity:0.05"
       d="M 7.5 0.03125 C 6.7052542 0.03125 6.03125 0.70525424 6.03125 1.5 L 6.03125 1.71875 A 0.96477523 0.96477523 0 0 0 5.65625 1.78125 C 5.5636014 1.8162106 5.4421769 1.8672156 5.34375 1.90625 L 5.125 1.6875 C 5.1185957 1.6810965 5.1003244 1.6938238 5.09375 1.6875 C 4.8496766 1.4527304 4.5110047 1.2564873 4.125 1.25 C 3.6782171 1.2424912 3.2975895 1.4524141 3.0625 1.6875 L 1.6875 3.0625 C 1.1597381 3.5902483 1.1686807 4.5496568 1.6875 5.09375 L 1.9375 5.34375 C 1.9062781 5.4161584 1.8722709 5.4890939 1.84375 5.5625 L 1.5 5.5625 C 0.70448169 5.5625 0.03125 6.2426251 0.03125 7.03125 L 0.03125 8.96875 C 0.03125 9.757374 0.70448398 10.4375 1.5 10.4375 L 1.84375 10.4375 C 1.8722709 10.510906 1.9062781 10.583842 1.9375 10.65625 L 1.6875 10.90625 C 1.1686955 11.450346 1.159746 12.409749 1.6875 12.9375 L 3.0625 14.3125 C 3.5902485 14.840284 4.549667 14.831304 5.09375 14.3125 L 5.125 14.3125 L 5.34375 14.0625 C 5.4161584 14.093722 5.4890942 14.127729 5.5625 14.15625 L 5.5625 14.5 C 5.5625 15.295521 6.2426243 15.96875 7.03125 15.96875 L 8.96875 15.96875 C 9.7573687 15.96875 10.4375 15.295518 10.4375 14.5 L 10.4375 14.15625 C 10.510906 14.127729 10.583841 14.093722 10.65625 14.0625 L 10.90625 14.3125 C 11.450347 14.83131 12.409752 14.840245 12.9375 14.3125 L 14.3125 12.9375 C 14.545716 12.70426 14.753724 12.340296 14.75 11.90625 C 14.746618 11.512104 14.541993 11.144668 14.3125 10.90625 L 14.0625 10.65625 C 14.093722 10.583841 14.127729 10.510906 14.15625 10.4375 L 14.5 10.4375 C 15.295517 10.4375 15.96875 9.7573763 15.96875 8.96875 L 15.96875 7.03125 C 15.96875 6.2426257 15.295522 5.5625 14.5 5.5625 L 14.15625 5.5625 C 14.127729 5.4890938 14.093722 5.4161587 14.0625 5.34375 L 14.3125 5.125 L 14.3125 5.09375 C 14.831246 4.5496628 14.840256 3.5902695 14.3125 3.0625 L 12.9375 1.6875 C 12.409746 1.1596808 11.450322 1.1687068 10.90625 1.6875 C 10.899019 1.694395 10.882083 1.6804175 10.875 1.6875 L 10.65625 1.90625 C 10.557823 1.8672157 10.436398 1.8162106 10.34375 1.78125 A 0.96477523 0.96477523 0 0 0 9.96875 1.71875 L 9.96875 1.5 C 9.96875 0.70525424 9.2947458 0.03125 8.5 0.03125 L 7.5 0.03125 z M 7.5 1 L 8.5 1 C 8.777 1 9 1.223 9 1.5 L 9 5.5 C 9 5.777 8.777 6 8.5 6 L 7.5 6 C 7.223 6 7 5.777 7 5.5 L 7 1.5 C 7 1.223 7.223 1 7.5 1 z M 4.09375 2.21875 C 4.2201429 2.2208742 4.338438 2.27595 4.4375 2.375 L 5.15625 3.0625 C 5.4274885 2.9047501 5.7015293 2.8001267 6 2.6875 L 6 5.5 L 6 5.78125 C 5.3910945 6.3303238 5 7.1155322 5 8 C 5 9.6568542 6.3431458 11 8 11 C 9.6568542 11 11 9.6568542 11 8 C 11 7.1155322 10.608905 6.3303238 10 5.78125 L 10 5.5 L 10 2.6875 C 10.29847 2.8001267 10.57251 2.9047501 10.84375 3.0625 L 11.5625 2.375 C 11.760625 2.176876 12.055204 2.18018 12.25 2.375 L 13.625 3.75 C 13.819794 3.944799 13.8231 4.239374 13.625 4.4375 L 12.9375 5.15625 C 13.187959 5.586892 13.368756 6.038667 13.5 6.53125 L 14.5 6.53125 C 14.780194 6.53125 15 6.755768 15 7.03125 L 15 8.96875 C 15 9.244235 14.780192 9.46875 14.5 9.46875 L 13.5 9.46875 C 13.368757 9.961332 13.187958 10.413107 12.9375 10.84375 L 13.625 11.5625 C 13.72406 11.66156 13.78015 11.778052 13.78125 11.90625 C 13.78235 12.034448 13.72239 12.1526 13.625 12.25 L 12.25 13.625 C 12.055204 13.819795 11.760626 13.823122 11.5625 13.625 L 10.84375 12.9375 C 10.413108 13.18796 9.961333 13.368754 9.46875 13.5 L 9.46875 14.5 C 9.46875 14.780196 9.244233 15 8.96875 15 L 7.03125 15 C 6.755767 15 6.53125 14.780193 6.53125 14.5 L 6.53125 13.5 C 6.038666 13.368753 5.586891 13.187957 5.15625 12.9375 L 4.4375 13.625 C 4.239374 13.823125 3.944796 13.819809 3.75 13.625 L 2.375 12.25 C 2.180204 12.055205 2.17688 11.760626 2.375 11.5625 L 3.0625 10.84375 C 2.812043 10.413107 2.631244 9.961332 2.5 9.46875 L 1.5 9.46875 C 1.219807 9.46875 1 9.244235 1 8.96875 L 1 7.03125 C 1 6.755766 1.219807 6.53125 1.5 6.53125 L 2.5 6.53125 C 2.631244 6.038667 2.812043 5.586892 3.0625 5.15625 L 2.375 4.4375 C 2.176875 4.239376 2.180199 3.944796 2.375 3.75 L 3.75 2.375 C 3.8473985 2.277603 3.9673571 2.2166258 4.09375 2.21875 z M 6.375 6.90625 C 6.1578096 7.2173503 6.03125 7.5973867 6.03125 8 C 6.03125 9.0736356 6.9263644 9.96875 8 9.96875 C 9.0736356 9.96875 9.96875 9.0736356 9.96875 8 C 9.96875 7.5973867 9.8421904 7.2173503 9.625 6.90625 C 9.8627515 7.2219855 10.03125 7.576728 10.03125 8 C 10.03125 9.1355031 9.1355031 10.03125 8 10.03125 C 6.8644969 10.03125 5.96875 9.1355031 5.96875 8 C 5.96875 7.5767278 6.1372485 7.2219854 6.375 6.90625 z M 8 7 C 8.552285 7 9 7.447715 9 8 C 9 8.552285 8.552285 9 8 9 C 7.447715 9 7 8.552285 7 8 C 7 7.447715 7.447715 7 8 7 z "
       transform="translate(0,6)"
       id="path3881" />
    <path
       inkscape:connector-curvature="0"
       d="m 39.757265,32.000052 c -0.354195,0 -0.640989,0.293819 -0.640989,0.654066 l 0,1.268892 c -0.63332,0.168741 -1.23846,0.423619 -1.792143,0.745637 l -0.902615,-0.902613 c -0.127369,-0.127363 -0.279939,-0.194825 -0.444765,-0.19622 -0.164826,-0.0014 -0.332621,0.05792 -0.457847,0.183138 l -1.765983,1.765981 c -0.25045,0.250452 -0.241652,0.647882 0.01307,0.902615 l 0.902614,0.902612 c -0.32202,0.553682 -0.576899,1.158824 -0.745644,1.792145 l -1.26889,0 C 32.293821,39.116305 32,39.403101 32,39.757293 l 0,2.485457 c 0,0.354192 0.293821,0.640988 0.654068,0.640988 l 1.26889,0 c 0.168746,0.633322 0.423624,1.238463 0.74564,1.792144 l -0.902615,0.902614 c -0.254733,0.254733 -0.263532,0.65216 -0.01306,0.902612 l 1.765983,1.765984 c 0.250451,0.250452 0.647879,0.24165 0.902612,-0.01308 l 0.902615,-0.902614 c 0.553683,0.322017 1.158823,0.576896 1.792143,0.745638 l 0,1.268891 c 0,0.360247 0.286794,0.654068 0.640989,0.654068 l 2.485456,0 c 0.354194,0 0.640987,-0.293821 0.640987,-0.654068 l 0,-1.268891 c 0.633321,-0.168742 1.238463,-0.423621 1.792145,-0.745638 l 0.902616,0.902615 c 0.25473,0.254731 0.65216,0.263533 0.902612,0.01307 l 1.765982,-1.765984 c 0.25045,-0.250453 0.24165,-0.647881 -0.01305,-0.902613 L 47.331404,44.67587 c 0.322016,-0.553681 0.576895,-1.158823 0.745636,-1.792145 l 1.268894,0 C 49.706177,42.883733 50,42.596939 50,42.242746 l 0,-2.485458 c 0,-0.354191 -0.293823,-0.640987 -0.654066,-0.640987 l -1.268894,0 C 47.908299,38.482982 47.65342,37.87784 47.331404,37.324156 l 0.902614,-0.902613 c 0.25473,-0.254732 0.263532,-0.65216 0.01305,-0.902612 l -1.76598,-1.765985 c -0.250457,-0.25045 -0.647882,-0.24165 -0.902616,0.01305 l -0.902617,0.902615 c -0.553683,-0.322019 -1.158824,-0.576898 -1.792145,-0.74564 l 0,-1.268889 c 0,-0.36025 -0.286793,-0.654069 -0.640984,-0.654069 l -2.485457,0 z m 1.242728,6.279048 c 1.501951,0 2.720923,1.218972 2.720923,2.720921 0,1.501951 -1.218975,2.720921 -2.720923,2.720921 -1.501948,0 -2.720922,-1.21897 -2.720922,-2.720921 0,-1.501949 1.218974,-2.720921 2.720922,-2.720921 z"
       id="rect3267"
       style="fill:#000000;fill-opacity:1;fill-rule:nonzero;stroke:none;stroke-width:1;marker:none;visibility:visible;display:block;overflow:visible;enable-background:accumulate" />
    <path
       style="fill:url(#radialGradient4020);fill-opacity:1;fill-rule:nonzero;stroke:none;stroke-width:1;marker:none;visibility:visible;display:block;overflow:visible;enable-background:accumulate"
       d="M 4.09375 2.21875 C 3.9673571 2.2166258 3.8473985 2.277603 3.75 2.375 L 2.375 3.75 C 2.180199 3.944796 2.176875 4.239376 2.375 4.4375 L 3.0625 5.15625 C 2.812043 5.586892 2.631244 6.038667 2.5 6.53125 L 1.5 6.53125 C 1.219807 6.53125 1 6.755766 1 7.03125 L 1 8.96875 C 1 9.244235 1.219807 9.46875 1.5 9.46875 L 2.5 9.46875 C 2.631244 9.961332 2.812043 10.413107 3.0625 10.84375 L 2.375 11.5625 C 2.17688 11.760626 2.180204 12.055205 2.375 12.25 L 3.75 13.625 C 3.944796 13.819809 4.239374 13.823125 4.4375 13.625 L 5.15625 12.9375 C 5.586891 13.187957 6.038666 13.368753 6.53125 13.5 L 6.53125 14.5 C 6.53125 14.780193 6.755767 15 7.03125 15 L 8.96875 15 C 9.244233 15 9.46875 14.780196 9.46875 14.5 L 9.46875 13.5 C 9.961333 13.368754 10.413108 13.18796 10.84375 12.9375 L 11.5625 13.625 C 11.760626 13.823122 12.055204 13.819795 12.25 13.625 L 13.625 12.25 C 13.72239 12.1526 13.78235 12.034448 13.78125 11.90625 C 13.78015 11.778052 13.72406 11.66156 13.625 11.5625 L 12.9375 10.84375 C 13.187958 10.413107 13.368757 9.961332 13.5 9.46875 L 14.5 9.46875 C 14.780192 9.46875 15 9.244235 15 8.96875 L 15 7.03125 C 15 6.755768 14.780194 6.53125 14.5 6.53125 L 13.5 6.53125 C 13.368756 6.038667 13.187959 5.586892 12.9375 5.15625 L 13.625 4.4375 C 13.8231 4.239374 13.819794 3.944799 13.625 3.75 L 12.25 2.375 C 12.055204 2.18018 11.760625 2.176876 11.5625 2.375 L 10.84375 3.0625 C 10.57251 2.9047501 10.29847 2.8001267 10 2.6875 L 10 5.5 L 10 5.78125 C 10.608905 6.3303238 11 7.1155322 11 8 C 11 9.6568542 9.6568542 11 8 11 C 6.3431458 11 5 9.6568542 5 8 C 5 7.1155322 5.3910945 6.3303238 6 5.78125 L 6 5.5 L 6 2.6875 C 5.7015293 2.8001267 5.4274885 2.9047501 5.15625 3.0625 L 4.4375 2.375 C 4.338438 2.27595 4.2201429 2.2208742 4.09375 2.21875 z "
       transform="translate(0,6)"
       id="path2862" />
    <rect
       y="54"
       x="1"
       height="5"
       width="5"
       id="rect3825"
       style="fill:url(#linearGradient4014);fill-opacity:1;stroke:none;display:inline"
       transform="matrix(0,1,1,0,0,0)" />
    <rect
       transform="matrix(0,1,1,0,0,0)"
       style="fill:url(#linearGradient4016);fill-opacity:1;stroke:none;display:inline"
       id="rect3808"
       width="5"
       height="5"
       x="9"
       y="54" />
    <path
       inkscape:connector-curvature="0"
       style="color:#000000;fill:url(#linearGradient4018);fill-opacity:1;fill-rule:nonzero;stroke:none;stroke-width:1.5;marker:none;visibility:visible;display:inline;overflow:visible;enable-background:accumulate"
       d="M 7.5,7 C 7.223,7 7,7.223 7,7.5 l 0,4 C 7,11.777 7.223,12 7.5,12 l 1,0 C 8.777,12 9,11.777 9,11.5 l 0,-4 C 9,7.223 8.777,7 8.5,7 l -1,0 z M 8,13 c -0.552285,0 -1,0.447715 -1,1 0,0.552285 0.447715,1 1,1 0.552285,0 1,-0.447715 1,-1 0,-0.552285 -0.447715,-1 -1,-1 z"
       id="path3856" />
    <path
       inkscape:connector-curvature="0"
       style="opacity:0.25;color:#000000;fill:#000000;fill-opacity:1;fill-rule:nonzero;stroke:none;stroke-width:1.5;marker:none;visibility:visible;display:inline;overflow:visible;enable-background:accumulate"
       d="M 7.5,7 C 7.223,7 7,7.223 7,7.5 l 0,1 C 7,8.223 7.223,8 7.5,8 l 1,0 C 8.777,8 9,8.223 9,8.5 l 0,-1 C 9,7.223 8.777,7 8.5,7 l -1,0 z M 8,13 c -0.552285,0 -1,0.447715 -1,1 0,0.18732 0.06663,0.350128 0.15625,0.5 C 7.330861,14.207996 7.635035,14 8,14 8.364965,14 8.669139,14.207996 8.84375,14.5 8.933369,14.350128 9,14.18732 9,14 9,13.447715 8.552285,13 8,13 z"
       id="path3885" />
    <path
       style="fill:#000000;fill-opacity:1;fill-rule:nonzero;stroke:none;stroke-width:1;marker:none;visibility:visible;display:block;overflow:visible;enable-background:accumulate;opacity:0.3"
       d="M 4.09375 2.21875 C 3.9673571 2.2166258 3.8473985 2.277603 3.75 2.375 L 2.375 3.75 C 2.180199 3.944796 2.176875 4.239376 2.375 4.4375 L 3.0625 5.15625 C 2.812043 5.586892 2.631244 6.038667 2.5 6.53125 L 1.5 6.53125 C 1.219807 6.53125 1 6.755766 1 7.03125 L 1 8.96875 C 1 9.244235 1.219807 9.46875 1.5 9.46875 L 2.5 9.46875 C 2.631244 9.961332 2.812043 10.413107 3.0625 10.84375 L 2.375 11.5625 C 2.17688 11.760626 2.180204 12.055205 2.375 12.25 L 3.75 13.625 C 3.944796 13.819809 4.239374 13.823125 4.4375 13.625 L 5.15625 12.9375 C 5.586891 13.187957 6.038666 13.368753 6.53125 13.5 L 6.53125 14.5 C 6.53125 14.780193 6.755767 15 7.03125 15 L 8.96875 15 C 9.244233 15 9.46875 14.780196 9.46875 14.5 L 9.46875 13.5 C 9.961333 13.368754 10.413108 13.18796 10.84375 12.9375 L 11.5625 13.625 C 11.760626 13.823122 12.055204 13.819795 12.25 13.625 L 13.625 12.25 C 13.72239 12.1526 13.78235 12.034448 13.78125 11.90625 C 13.78015 11.778052 13.72406 11.66156 13.625 11.5625 L 12.9375 10.84375 C 13.187958 10.413107 13.368757 9.961332 13.5 9.46875 L 14.5 9.46875 C 14.780192 9.46875 15 9.244235 15 8.96875 L 15 7.03125 C 15 6.755768 14.780194 6.53125 14.5 6.53125 L 13.5 6.53125 C 13.368756 6.038667 13.187959 5.586892 12.9375 5.15625 L 13.625 4.4375 C 13.8231 4.239374 13.819794 3.944799 13.625 3.75 L 12.25 2.375 C 12.055204 2.18018 11.760625 2.176876 11.5625 2.375 L 10.84375 3.0625 C 10.57251 2.9047501 10.29847 2.8001267 10 2.6875 L 10 5.5 L 10 5.78125 C 10.608905 6.3303238 11 7.1155322 11 8 C 11 9.6568542 9.6568542 11 8 11 C 6.3431458 11 5 9.6568542 5 8 C 5 7.1155322 5.3910945 6.3303238 6 5.78125 L 6 5.5 L 6 2.6875 C 5.7015293 2.8001267 5.4274885 2.9047501 5.15625 3.0625 L 4.4375 2.375 C 4.338438 2.27595 4.2201429 2.2208742 4.09375 2.21875 z M 4.0625 2.78125 C 4.0698298 2.7843093 4.0802598 2.7810233 4.09375 2.78125 L 4.78125 3.46875 A 0.54802092 0.54802092 0 0 0 5.4375 3.53125 L 5.4375 5.5 L 5.4375 5.625 C 4.8511649 6.2540004 4.4375 7.0681715 4.4375 8 C 4.4375 9.9529971 6.0470029 11.5625 8 11.5625 C 9.9529971 11.5625 11.5625 9.9529971 11.5625 8 C 11.5625 7.0681714 11.148835 6.2540002 10.5625 5.625 L 10.5625 5.5 L 10.5625 3.53125 A 0.54802092 0.54802092 0 0 0 11.21875 3.46875 L 11.90625 2.78125 L 11.9375 2.78125 L 13.21875 4.0625 L 13.21875 4.09375 L 12.53125 4.78125 A 0.54802092 0.54802092 0 0 0 12.46875 5.4375 C 12.693092 5.8232361 12.848279 6.2353492 12.96875 6.6875 A 0.54802092 0.54802092 0 0 0 13.5 7.09375 L 14.4375 7.09375 L 14.4375 8.90625 L 13.5 8.90625 A 0.54802092 0.54802092 0 0 0 12.96875 9.3125 C 12.84828 9.7646479 12.693092 10.176761 12.46875 10.5625 A 0.54802092 0.54802092 0 0 0 12.53125 11.21875 L 13.21875 11.90625 L 13.21875 11.9375 L 11.9375 13.21875 L 11.90625 13.21875 L 11.21875 12.53125 A 0.54802092 0.54802092 0 0 0 10.5625 12.46875 C 10.176766 12.693092 9.7646541 12.848276 9.3125 12.96875 A 0.54802092 0.54802092 0 0 0 8.90625 13.5 L 8.90625 14.4375 L 7.09375 14.4375 L 7.09375 13.5 A 0.54802092 0.54802092 0 0 0 6.6875 12.96875 C 6.2353456 12.848275 5.8232351 12.69309 5.4375 12.46875 A 0.54802092 0.54802092 0 0 0 4.78125 12.53125 L 4.09375 13.21875 L 4.0625 13.21875 L 2.78125 11.9375 L 2.78125 11.90625 L 3.46875 11.21875 A 0.54802092 0.54802092 0 0 0 3.53125 10.5625 C 3.3069084 10.176761 3.1517209 9.7646485 3.03125 9.3125 A 0.54802092 0.54802092 0 0 0 2.5 8.90625 L 1.5625 8.90625 L 1.5625 7.09375 L 2.5 7.09375 A 0.54802092 0.54802092 0 0 0 3.03125 6.6875 C 3.1517209 6.2353506 3.3069087 5.8232381 3.53125 5.4375 A 0.54802092 0.54802092 0 0 0 3.46875 4.78125 L 2.78125 4.09375 L 2.78125 4.0625 L 4.0625 2.78125 z "
       transform="translate(0,6)"
       id="path3063" />
    <path
       style="fill:#000000;fill-opacity:1;fill-rule:nonzero;stroke:none;stroke-width:1;marker:none;visibility:visible;display:block;overflow:visible;enable-background:accumulate;opacity:0.3"
       d="M 4.09375 2.21875 C 3.9673571 2.2166258 3.8473985 2.277603 3.75 2.375 L 2.375 3.75 C 2.180199 3.944796 2.176875 4.239376 2.375 4.4375 L 2.53125 4.59375 L 3.75 3.375 C 3.8473985 3.277603 3.9673571 3.2166258 4.09375 3.21875 C 4.2201429 3.2208742 4.338438 3.27595 4.4375 3.375 L 5.15625 4.0625 C 5.4274885 3.9047501 5.7015293 3.8001267 6 3.6875 L 6 2.6875 C 5.7015293 2.8001267 5.4274885 2.9047501 5.15625 3.0625 L 4.4375 2.375 C 4.338438 2.27595 4.2201429 2.2208742 4.09375 2.21875 z M 11.90625 2.21875 C 11.78349 2.218337 11.661562 2.275938 11.5625 2.375 L 10.84375 3.0625 C 10.57251 2.9047501 10.29847 2.8001267 10 2.6875 L 10 3.6875 C 10.29847 3.8001267 10.57251 3.9047501 10.84375 4.0625 L 11.5625 3.375 C 11.760625 3.176876 12.055204 3.18018 12.25 3.375 L 13.46875 4.59375 L 13.625 4.4375 C 13.8231 4.239374 13.819794 3.944799 13.625 3.75 L 12.25 2.375 C 12.152602 2.27759 12.02901 2.219163 11.90625 2.21875 z M 2.75 5.8125 C 2.6570876 6.0408469 2.565622 6.2849585 2.5 6.53125 L 1.5 6.53125 C 1.219807 6.53125 1 6.755766 1 7.03125 L 1 8.03125 C 1 7.755766 1.219807 7.53125 1.5 7.53125 L 2.5 7.53125 C 2.631244 7.038667 2.812043 6.586892 3.0625 6.15625 L 2.75 5.8125 z M 13.25 5.8125 L 12.9375 6.15625 C 13.187959 6.586892 13.368756 7.038667 13.5 7.53125 L 14.5 7.53125 C 14.780194 7.53125 15 7.755768 15 8.03125 L 15 7.03125 C 15 6.755768 14.780194 6.53125 14.5 6.53125 L 13.5 6.53125 C 13.434378 6.2849585 13.342912 6.0408469 13.25 5.8125 z M 5.0625 8.46875 C 5.0317729 8.6388209 5 8.8206219 5 9 C 5 10.656854 6.3431458 12 8 12 C 9.6568542 12 11 10.656854 11 9 C 11 8.8206219 10.968227 8.6388209 10.9375 8.46875 C 10.70703 9.896584 9.492871 11 8 11 C 6.507129 11 5.2929696 9.896584 5.0625 8.46875 z M 2.75 11.1875 L 2.375 11.5625 C 2.17688 11.760626 2.180204 12.055205 2.375 12.25 L 2.53125 12.40625 L 3.0625 11.84375 C 2.9372715 11.628429 2.8429124 11.415847 2.75 11.1875 z M 13.25 11.1875 C 13.157088 11.415847 13.062729 11.628429 12.9375 11.84375 L 13.46875 12.40625 L 13.625 12.25 C 13.72239 12.1526 13.78235 12.034448 13.78125 11.90625 C 13.78015 11.778052 13.72406 11.66156 13.625 11.5625 L 13.25 11.1875 z "
       transform="translate(0,6)"
       id="path3844" />
    <path
       style="fill:#ffffff;fill-opacity:1;fill-rule:nonzero;stroke:none;stroke-width:1;marker:none;visibility:visible;display:block;overflow:visible;enable-background:accumulate;opacity:0.2"
       d="M 2.53125 4.59375 L 2.375 4.75 C 2.180199 4.944796 2.176875 5.239376 2.375 5.4375 L 2.75 5.8125 C 2.8429124 5.5841531 2.9372715 5.371571 3.0625 5.15625 L 2.53125 4.59375 z M 13.46875 4.59375 L 12.9375 5.15625 C 13.062729 5.371571 13.157088 5.5841531 13.25 5.8125 L 13.625 5.4375 C 13.8231 5.239374 13.819794 4.944799 13.625 4.75 L 13.46875 4.59375 z M 7 5.5 L 7 6.5 C 7 6.777 7.223 7 7.5 7 L 8 7 L 8.5 7 C 8.777 7 9 6.777 9 6.5 L 9 5.5 C 9 5.777 8.777 6 8.5 6 L 7.5 6 C 7.223 6 7 5.777 7 5.5 z M 6 5.78125 C 5.3910945 6.330324 5 7.115532 5 8 C 5 8.1639832 5.0371843 8.3119108 5.0625 8.46875 C 5.1832805 7.8002443 5.514586 7.2189669 6 6.78125 L 6 6.5 L 6 5.78125 z M 10 5.78125 L 10 6.5 L 10 6.78125 C 10.485414 7.2189669 10.816719 7.8002443 10.9375 8.46875 C 10.962816 8.3119108 11 8.1639832 11 8 C 11 7.115532 10.608905 6.330324 10 5.78125 z M 7.15625 8.5 C 7.0666305 8.649872 7 8.8126804 7 9 C 7 9.552285 7.447715 10 8 10 C 8.552285 10 9 9.552285 9 9 C 9 8.8126804 8.9333695 8.649872 8.84375 8.5 C 8.6691393 8.792004 8.3649654 9 8 9 C 7.6350346 9 7.3308607 8.792004 7.15625 8.5 z M 1 8.96875 L 1 9.96875 C 1 10.244235 1.219807 10.46875 1.5 10.46875 L 2.5 10.46875 C 2.565622 10.715041 2.6570876 10.959153 2.75 11.1875 L 3.0625 10.84375 C 2.812043 10.413107 2.631244 9.961332 2.5 9.46875 L 1.5 9.46875 C 1.219807 9.46875 1 9.244235 1 8.96875 z M 15 8.96875 C 15 9.244235 14.780192 9.46875 14.5 9.46875 L 13.5 9.46875 C 13.368757 9.961332 13.187958 10.413107 12.9375 10.84375 L 13.25 11.1875 C 13.342912 10.959153 13.434379 10.715041 13.5 10.46875 L 14.5 10.46875 C 14.780192 10.46875 15 10.244235 15 9.96875 L 15 8.96875 z M 2.53125 12.40625 L 2.375 12.5625 C 2.17688 12.760626 2.180204 13.055205 2.375 13.25 L 3.75 14.625 C 3.944796 14.819809 4.239374 14.823125 4.4375 14.625 L 5.15625 13.9375 C 5.586891 14.187957 6.038666 14.368753 6.53125 14.5 L 6.53125 13.5 C 6.038666 13.368753 5.586891 13.187957 5.15625 12.9375 L 4.4375 13.625 C 4.239374 13.823125 3.944796 13.819809 3.75 13.625 L 2.53125 12.40625 z M 6.53125 14.5 L 6.53125 15.5 C 6.53125 15.780193 6.755767 16 7.03125 16 L 8.96875 16 C 9.244233 16 9.46875 15.780196 9.46875 15.5 L 9.46875 14.5 C 9.46875 14.780196 9.244233 15 8.96875 15 L 7.03125 15 C 6.755767 15 6.53125 14.780193 6.53125 14.5 z M 9.46875 14.5 C 9.961333 14.368754 10.413108 14.18796 10.84375 13.9375 L 11.5625 14.625 C 11.760626 14.823122 12.055204 14.819795 12.25 14.625 L 13.625 13.25 C 13.72239 13.1526 13.78235 13.034448 13.78125 12.90625 C 13.78015 12.778052 13.72406 12.66156 13.625 12.5625 L 13.46875 12.40625 L 12.25 13.625 C 12.055204 13.819795 11.760626 13.823122 11.5625 13.625 L 10.84375 12.9375 C 10.413108 13.18796 9.961333 13.368754 9.46875 13.5 L 9.46875 14.5 z "
       transform="translate(0,6)"
       id="path3853" />
  </g>
</svg>
