<?xml version="1.0" encoding="UTF-8" standalone="no"?>
<!-- Created with Inkscape (http://www.inkscape.org/) -->

<svg
   xmlns:dc="http://purl.org/dc/elements/1.1/"
   xmlns:cc="http://creativecommons.org/ns#"
   xmlns:rdf="http://www.w3.org/1999/02/22-rdf-syntax-ns#"
   xmlns:svg="http://www.w3.org/2000/svg"
   xmlns="http://www.w3.org/2000/svg"
   xmlns:xlink="http://www.w3.org/1999/xlink"
   xmlns:sodipodi="http://sodipodi.sourceforge.net/DTD/sodipodi-0.dtd"
   xmlns:inkscape="http://www.inkscape.org/namespaces/inkscape"
   width="16"
   height="16"
   id="svg2"
   sodipodi:version="0.32"
   inkscape:version="0.48.1 r9760"
   version="1.0"
   sodipodi:docname="weather-clear.svg"
   inkscape:output_extension="org.inkscape.output.svg.inkscape"
   style="display:inline">
  <defs
     id="defs4">
    <inkscape:perspective
       sodipodi:type="inkscape:persp3d"
       inkscape:vp_x="0 : 8 : 1"
       inkscape:vp_y="0 : 1000 : 0"
       inkscape:vp_z="16 : 8 : 1"
       inkscape:persp3d-origin="8 : 5.3333333 : 1"
       id="perspective35" />
    <linearGradient
       inkscape:collect="always"
       id="linearGradient3327">
      <stop
         style="stop-color:#000000;stop-opacity:1;"
         offset="0"
         id="stop3330" />
      <stop
         style="stop-color:#000000;stop-opacity:0;"
         offset="1"
         id="stop3333" />
    </linearGradient>
    <linearGradient
       id="ButtonColor"
       x1="10.31979"
       y1="21"
       x2="10.31979"
       y2="0.99929649"
       gradientUnits="userSpaceOnUse">
      <stop
         style="stop-color:#29669f;stop-opacity:1;"
         offset="0"
         id="stop3189" />
      <stop
         style="stop-color:#88b6e0;stop-opacity:1;"
         offset="1"
         id="stop3191" />
    </linearGradient>
    <linearGradient
       inkscape:collect="always"
       xlink:href="#linearGradient3700"
       id="linearGradient3204"
       x1="1"
       y1="9"
       x2="15"
       y2="9"
       gradientUnits="userSpaceOnUse"
       gradientTransform="translate(-17,-2)" />
    <linearGradient
       inkscape:collect="always"
       xlink:href="#linearGradient3327"
       id="linearGradient3629"
       x1="0"
       y1="8"
       x2="29.017237"
       y2="8"
       gradientUnits="userSpaceOnUse"
       gradientTransform="matrix(0,-1,1,0,0,16)" />
    <linearGradient
       inkscape:collect="always"
       xlink:href="#SVGID_1_-4"
       id="linearGradient3765"
       gradientUnits="userSpaceOnUse"
       gradientTransform="matrix(0.09341072,0,0,0.04108075,-26.756456,8.0246654)"
       x1="383.28857"
       y1="0"
       x2="383.28857"
       y2="218.48047" />
    <linearGradient
       id="SVGID_1_-4"
       gradientUnits="userSpaceOnUse"
       x1="383.28857"
       y1="0"
       x2="383.28857"
       y2="218.48047">
      <stop
         offset="0.005618"
         style="stop-color:#ED2828"
         id="stop3143-2" />
      <stop
         offset="0.5"
         style="stop-color:#EF3B39"
         id="stop3145-1" />
      <stop
         offset="0.994382"
         style="stop-color:#C02126"
         id="stop3147-3" />
    </linearGradient>
    <linearGradient
       y2="180.6748"
       x2="175.30762"
       y1="73.254395"
       x1="175.30762"
       gradientUnits="userSpaceOnUse"
       id="linearGradient3749-5">
      <stop
         id="stop3751-8"
         style="stop-color:#000000;stop-opacity:1;"
         offset="0" />
      <stop
         id="stop3753-7"
         style="stop-color:#000000;stop-opacity:0.4728682;"
         offset="0.99438202" />
    </linearGradient>
    <linearGradient
       inkscape:collect="always"
       xlink:href="#linearGradient3749-5"
       id="linearGradient3754"
       gradientUnits="userSpaceOnUse"
       gradientTransform="matrix(0.04164302,0,0,0.03408859,1.9444673,0.78644322)"
       x1="175.30762"
       y1="73.254395"
       x2="175.30762"
       y2="180.6748" />
    <linearGradient
       inkscape:collect="always"
       xlink:href="#linearGradient3749-5"
       id="linearGradient3756"
       gradientUnits="userSpaceOnUse"
       gradientTransform="matrix(0.04998763,0,0,0.03408859,2.4795353,0.78644322)"
       x1="175.30762"
       y1="73.254395"
       x2="175.30762"
       y2="180.6748" />
    <linearGradient
       y2="180.6748"
       x2="175.30762"
       y1="73.254395"
       x1="175.30762"
       gradientTransform="matrix(0.04859283,0,0,0.03408859,3.115962,0.78644322)"
       gradientUnits="userSpaceOnUse"
       id="linearGradient3809"
       xlink:href="#linearGradient3749-5"
       inkscape:collect="always" />
    <inkscape:perspective
       id="perspective3729"
       inkscape:persp3d-origin="0.5 : 0.33333333 : 1"
       inkscape:vp_z="1 : 0.5 : 1"
       inkscape:vp_y="0 : 1000 : 0"
       inkscape:vp_x="0 : 0.5 : 1"
       sodipodi:type="inkscape:persp3d" />
    <linearGradient
       inkscape:collect="always"
       xlink:href="#linearGradient3696"
       id="linearGradient4163"
       x1="6"
       y1="48"
       x2="90"
       y2="48"
       gradientUnits="userSpaceOnUse"
       gradientTransform="translate(-96,0)" />
    <linearGradient
       id="linearGradient3696">
      <stop
         id="stop3698"
         offset="0"
         style="stop-color:#2458a6;stop-opacity:1;" />
      <stop
         id="stop3700"
         offset="1"
         style="stop-color:#598ad4;stop-opacity:1;" />
    </linearGradient>
    <linearGradient
       y2="48"
       x2="90"
       y1="48"
       x1="6"
       gradientTransform="translate(-52.867199,-57.252856)"
       gradientUnits="userSpaceOnUse"
       id="linearGradient3738"
       xlink:href="#linearGradient3696"
       inkscape:collect="always" />
    <inkscape:perspective
       id="perspective3703"
       inkscape:persp3d-origin="0.5 : 0.33333333 : 1"
       inkscape:vp_z="1 : 0.5 : 1"
       inkscape:vp_y="0 : 1000 : 0"
       inkscape:vp_x="0 : 0.5 : 1"
       sodipodi:type="inkscape:persp3d" />
    <linearGradient
       gradientTransform="matrix(0.19388162,0,0,0.19388162,-1.4007219,-1.9461429)"
       inkscape:collect="always"
       xlink:href="#linearGradient4099"
       id="linearGradient4113"
       x1="22.111456"
       y1="62.983868"
       x2="40"
       y2="32"
       gradientUnits="userSpaceOnUse" />
    <linearGradient
       id="linearGradient4099">
      <stop
         style="stop-color:#9ede27;stop-opacity:1;"
         offset="0"
         id="stop4101" />
      <stop
         style="stop-color:#c8f16b;stop-opacity:1;"
         offset="1"
         id="stop4103" />
    </linearGradient>
    <linearGradient
       gradientTransform="matrix(0.19388162,0,0,0.19388162,-1.5256152,-1.9461429)"
       inkscape:collect="always"
       xlink:href="#linearGradient4099"
       id="linearGradient4105"
       x1="38"
       y1="74"
       x2="70"
       y2="49"
       gradientUnits="userSpaceOnUse" />
    <linearGradient
       id="linearGradient3712">
      <stop
         style="stop-color:#9ede27;stop-opacity:1;"
         offset="0"
         id="stop3714" />
      <stop
         style="stop-color:#c8f16b;stop-opacity:1;"
         offset="1"
         id="stop3716" />
    </linearGradient>
    <linearGradient
       inkscape:collect="always"
       xlink:href="#linearGradient3799-3"
       id="linearGradient3746"
       gradientUnits="userSpaceOnUse"
       x1="56.037025"
       y1="49.333305"
       x2="56.037025"
       y2="13.593002"
       gradientTransform="matrix(0.26518093,0,0,0.26518093,-0.34872536,-3.7081516)" />
    <linearGradient
       id="linearGradient3799-3">
      <stop
         style="stop-color:#1a1a1a;stop-opacity:1;"
         offset="0"
         id="stop3801-3" />
      <stop
         style="stop-color:#000000;stop-opacity:1;"
         offset="1"
         id="stop3803-2" />
    </linearGradient>
    <linearGradient
       y2="13.593002"
       x2="56.037025"
       y1="49.333305"
       x1="56.037025"
       gradientTransform="matrix(0.19388162,0,0,0.19388162,-1.3401963,-1.8843368)"
       gradientUnits="userSpaceOnUse"
       id="linearGradient3726"
       xlink:href="#linearGradient3799-3"
       inkscape:collect="always" />
    <inkscape:perspective
       id="perspective3736"
       inkscape:persp3d-origin="0.5 : 0.33333333 : 1"
       inkscape:vp_z="1 : 0.5 : 1"
       inkscape:vp_y="0 : 1000 : 0"
       inkscape:vp_x="0 : 0.5 : 1"
       sodipodi:type="inkscape:persp3d" />
    <radialGradient
       inkscape:collect="always"
       xlink:href="#linearGradient3784-2"
       id="radialGradient3758"
       gradientUnits="userSpaceOnUse"
       gradientTransform="matrix(1.0456205,0.08243661,-0.05194947,0.90987799,0.84943041,1.3399685)"
       cx="49.580967"
       cy="67.04126"
       fx="49.580967"
       fy="67.04126"
       r="10" />
    <linearGradient
       id="linearGradient3784-2">
      <stop
         id="stop3786-4"
         offset="0"
         style="stop-color:#a0a0a0;stop-opacity:1;" />
      <stop
         id="stop3790-2"
         offset="1"
         style="stop-color:#1a1a1a;stop-opacity:1;" />
    </linearGradient>
    <radialGradient
       r="10"
       fy="67.04126"
       fx="49.580967"
       cy="67.04126"
       cx="49.580967"
       gradientTransform="matrix(1.0456205,0.08243661,-0.05194947,0.90987799,0.84943041,1.3399685)"
       gradientUnits="userSpaceOnUse"
       id="radialGradient3745"
       xlink:href="#linearGradient3784-2"
       inkscape:collect="always" />
    <radialGradient
       inkscape:collect="always"
       xlink:href="#linearGradient3784-2"
       id="radialGradient3698"
       cx="10.116978"
       cy="6.5340972"
       fx="10.116978"
       fy="6.5340972"
       r="2.6487656"
       gradientTransform="matrix(0.60548597,-0.18291744,0.13322228,0.44098703,0.81853832,7.6996387)"
       gradientUnits="userSpaceOnUse" />
    <clipPath
       clipPathUnits="userSpaceOnUse"
       id="clipPath4170">
      <rect
         style="fill:#ff00ff;fill-opacity:1;fill-rule:evenodd;stroke:none;display:inline"
         id="rect4172"
         width="20"
         height="20"
         x="2"
         y="0"
         rx="2"
         ry="2" />
    </clipPath>
    <radialGradient
       inkscape:collect="always"
       xlink:href="#linearGradient3762-0"
       id="radialGradient4061"
       gradientUnits="userSpaceOnUse"
       gradientTransform="matrix(0.23938211,0,0,0.24140293,-3.7375817,2.2306696)"
       cx="65.324959"
       cy="31.114408"
       fx="65.324959"
       fy="31.114408"
       r="52.04668" />
    <linearGradient
       id="linearGradient3762-0">
      <stop
         style="stop-color:#ffda56;stop-opacity:1;"
         offset="0"
         id="stop3764-5" />
      <stop
         id="stop3770-3"
         offset="0.640625"
         style="stop-color:#ffda56;stop-opacity:1;" />
      <stop
         style="stop-color:#ffda56;stop-opacity:0;"
         offset="1"
         id="stop3766-9" />
    </linearGradient>
    <radialGradient
       inkscape:collect="always"
       xlink:href="#linearGradient3762-0"
       id="radialGradient4522"
       gradientUnits="userSpaceOnUse"
       cx="64"
       cy="32"
       fx="64"
       fy="32"
       r="40" />
    <linearGradient
       id="linearGradient4192">
      <stop
         style="stop-color:#ffda56;stop-opacity:1;"
         offset="0"
         id="stop4194" />
      <stop
         id="stop4196"
         offset="0.640625"
         style="stop-color:#ffda56;stop-opacity:1;" />
      <stop
         style="stop-color:#ffda56;stop-opacity:0;"
         offset="1"
         id="stop4198" />
    </linearGradient>
    <radialGradient
       inkscape:collect="always"
       xlink:href="#linearGradient3752-3"
       id="radialGradient4520"
       gradientUnits="userSpaceOnUse"
       cx="64"
       cy="32"
       fx="64"
       fy="32"
       r="32" />
    <linearGradient
       id="linearGradient3752-3">
      <stop
         id="stop3754-6"
         offset="0"
         style="stop-color:#ffdc4d;stop-opacity:1;" />
      <stop
         style="stop-color:#ffe041;stop-opacity:1;"
         offset="0.77642262"
         id="stop3756-2" />
      <stop
         id="stop3758-7"
         offset="1"
         style="stop-color:#fffda4;stop-opacity:0;" />
    </linearGradient>
    <radialGradient
       inkscape:collect="always"
       xlink:href="#linearGradient3699-8"
       id="radialGradient4518"
       gradientUnits="userSpaceOnUse"
       cx="52.148148"
       cy="43.851852"
       fx="52.148148"
       fy="43.851852"
       r="32" />
    <linearGradient
       id="linearGradient3699-8">
      <stop
         style="stop-color:#fff894;stop-opacity:1;"
         offset="0"
         id="stop3701-8" />
      <stop
         id="stop4084"
         offset="0.80000001"
         style="stop-color:#ffc822;stop-opacity:1;" />
      <stop
         style="stop-color:#ffb400;stop-opacity:1;"
         offset="1"
         id="stop3703-4" />
    </linearGradient>
    <filter
       color-interpolation-filters="sRGB"
       inkscape:collect="always"
       id="filter4449"
       x="-0.073074818"
       width="1.1461496"
       y="-0.10019269"
       height="1.2003855">
      <feGaussianBlur
         inkscape:collect="always"
         stdDeviation="0.56854841"
         id="feGaussianBlur4451" />
    </filter>
    <clipPath
       clipPathUnits="userSpaceOnUse"
       id="clipPath4303">
      <path
         sodipodi:type="arc"
         style="color:#000000;fill:#ff0000;fill-opacity:1;fill-rule:nonzero;stroke:none;stroke-width:1.5;marker:none;visibility:visible;display:inline;overflow:visible;enable-background:accumulate"
         id="path4305"
         sodipodi:cx="64"
         sodipodi:cy="32"
         sodipodi:rx="32"
         sodipodi:ry="32"
         d="m 96,32 a 32,32 0 1 1 -64,0 32,32 0 1 1 64,0 z"
         transform="matrix(0.84375003,0,0,0.84375003,-6.000001,14.000003)" />
    </clipPath>
    <radialGradient
       inkscape:collect="always"
       xlink:href="#linearGradient4271"
       id="radialGradient4098"
       gradientUnits="userSpaceOnUse"
       gradientTransform="matrix(1,0,0,1.0689655,0,-3.0472483)"
       cx="57.033619"
       cy="44.185143"
       fx="57.033619"
       fy="44.185143"
       r="10.810294" />
    <linearGradient
       inkscape:collect="always"
       id="linearGradient4271">
      <stop
         style="stop-color:#ff6600;stop-opacity:1;"
         offset="0"
         id="stop4273" />
      <stop
         style="stop-color:#ff6600;stop-opacity:0;"
         offset="1"
         id="stop4275" />
    </linearGradient>
    <radialGradient
       inkscape:collect="always"
       xlink:href="#linearGradient4271"
       id="radialGradient4100"
       gradientUnits="userSpaceOnUse"
       gradientTransform="matrix(1,0,0,1.0689655,0,-3.0472483)"
       cx="57.033619"
       cy="44.185143"
       fx="57.033619"
       fy="44.185143"
       r="10.810294" />
    <radialGradient
       inkscape:collect="always"
       xlink:href="#linearGradient4271"
       id="radialGradient4102"
       gradientUnits="userSpaceOnUse"
       gradientTransform="matrix(1,0,0,1.0689655,0,-3.0472483)"
       cx="57.033619"
       cy="44.185143"
       fx="57.033619"
       fy="44.185143"
       r="10.810294" />
    <radialGradient
       inkscape:collect="always"
       xlink:href="#linearGradient4271"
       id="radialGradient4104"
       gradientUnits="userSpaceOnUse"
       gradientTransform="matrix(1,0,0,1.0689655,0,-3.0472483)"
       cx="57.033619"
       cy="44.185143"
       fx="57.033619"
       fy="44.185143"
       r="10.810294" />
    <linearGradient
       inkscape:collect="always"
       xlink:href="#linearGradient4090"
       id="linearGradient4106"
       gradientUnits="userSpaceOnUse"
       x1="64.995598"
       y1="-0.90906203"
       x2="64.995598"
       y2="55.535763" />
    <linearGradient
       inkscape:collect="always"
       id="linearGradient4090">
      <stop
         style="stop-color:#ffffff;stop-opacity:1;"
         offset="0"
         id="stop4092" />
      <stop
         style="stop-color:#ffffff;stop-opacity:0;"
         offset="1"
         id="stop4094" />
    </linearGradient>
    <filter
       color-interpolation-filters="sRGB"
       inkscape:collect="always"
       id="filter4421"
       x="-0.11751841"
       width="1.2350368"
       y="-0.12003421"
       height="1.2400684">
      <feGaussianBlur
         inkscape:collect="always"
         stdDeviation="0.56854841"
         id="feGaussianBlur4423" />
    </filter>
    <filter
       color-interpolation-filters="sRGB"
       inkscape:collect="always"
       id="filter4425"
       x="-0.13546811"
       width="1.2709363"
       y="-0.12851021"
       height="1.2570204">
      <feGaussianBlur
         inkscape:collect="always"
         stdDeviation="0.56854841"
         id="feGaussianBlur4427" />
    </filter>
    <filter
       color-interpolation-filters="sRGB"
       inkscape:collect="always"
       id="filter4429">
      <feGaussianBlur
         inkscape:collect="always"
         stdDeviation="0.56854841"
         id="feGaussianBlur4431" />
    </filter>
    <filter
       color-interpolation-filters="sRGB"
       inkscape:collect="always"
       id="filter4433"
       x="-0.068762444"
       width="1.1375248"
       y="-0.11615224"
       height="1.2323045">
      <feGaussianBlur
         inkscape:collect="always"
         stdDeviation="0.56854841"
         id="feGaussianBlur4435" />
    </filter>
    <filter
       color-interpolation-filters="sRGB"
       inkscape:collect="always"
       id="filter4437">
      <feGaussianBlur
         inkscape:collect="always"
         stdDeviation="0.56854841"
         id="feGaussianBlur4439" />
    </filter>
    <filter
       color-interpolation-filters="sRGB"
       inkscape:collect="always"
       id="filter4441">
      <feGaussianBlur
         inkscape:collect="always"
         stdDeviation="0.56854841"
         id="feGaussianBlur4443" />
    </filter>
    <filter
       color-interpolation-filters="sRGB"
       inkscape:collect="always"
       id="filter4445">
      <feGaussianBlur
         inkscape:collect="always"
         stdDeviation="0.56854841"
         id="feGaussianBlur4447" />
    </filter>
    <filter
       color-interpolation-filters="sRGB"
       inkscape:collect="always"
       id="filter4453">
      <feGaussianBlur
         inkscape:collect="always"
         stdDeviation="0.56854841"
         id="feGaussianBlur4455" />
    </filter>
    <filter
       color-interpolation-filters="sRGB"
       inkscape:collect="always"
       id="filter4457">
      <feGaussianBlur
         inkscape:collect="always"
         stdDeviation="0.56854841"
         id="feGaussianBlur4459" />
    </filter>
    <filter
       color-interpolation-filters="sRGB"
       inkscape:collect="always"
       id="filter4461"
       x="-0.10343797"
       width="1.2068759"
       y="-0.21036677"
       height="1.4207335">
      <feGaussianBlur
         inkscape:collect="always"
         stdDeviation="0.5685484"
         id="feGaussianBlur4463" />
    </filter>
    <filter
       color-interpolation-filters="sRGB"
       inkscape:collect="always"
       id="filter4465"
       x="-0.071041182"
       width="1.1420825"
       y="-0.11023861"
       height="1.2204772">
      <feGaussianBlur
         inkscape:collect="always"
         stdDeviation="0.5685484"
         id="feGaussianBlur4467" />
    </filter>
    <filter
       color-interpolation-filters="sRGB"
       inkscape:collect="always"
       id="filter4469">
      <feGaussianBlur
         inkscape:collect="always"
         stdDeviation="0.5685484"
         id="feGaussianBlur4471" />
    </filter>
    <filter
       color-interpolation-filters="sRGB"
       inkscape:collect="always"
       id="filter4473"
       x="-0.070044853"
       width="1.1400898"
       y="-0.12051222"
       height="1.2410244">
      <feGaussianBlur
         inkscape:collect="always"
         stdDeviation="0.56854841"
         id="feGaussianBlur4475" />
    </filter>
    <linearGradient
       inkscape:collect="always"
       xlink:href="#linearGradient3700"
       id="linearGradient3181"
       x1="-3.0607977"
       y1="27.258198"
       x2="-3.0607977"
       y2="7.2536583"
       gradientUnits="userSpaceOnUse"
       gradientTransform="translate(12.119372,-7.2581977)" />
    <linearGradient
       id="linearGradient3700">
      <stop
         style="stop-color:#2a76bd;stop-opacity:1;"
         offset="0"
         id="stop3702" />
      <stop
         style="stop-color:#68b0f4;stop-opacity:1;"
         offset="1"
         id="stop3704" />
    </linearGradient>
    <linearGradient
       y2="7.2536583"
       x2="-3.0607977"
       y1="27.258198"
       x1="-3.0607977"
       gradientTransform="translate(1.03495,-10.185083)"
       gradientUnits="userSpaceOnUse"
       id="linearGradient4311"
       xlink:href="#linearGradient3700"
       inkscape:collect="always" />
  </defs>
  <sodipodi:namedview
     id="base"
     pagecolor="#ffffff"
     bordercolor="#e7e7e7"
     borderopacity="1"
     inkscape:pageopacity="0.0"
     inkscape:pageshadow="2"
     inkscape:zoom="26.212949"
     inkscape:cx="-9.5134686"
     inkscape:cy="9.5563131"
     inkscape:document-units="px"
     inkscape:current-layer="layer1"
     showgrid="true"
     inkscape:showpageshadow="false"
     showguides="false"
     inkscape:guide-bbox="true"
     inkscape:window-width="1920"
     inkscape:window-height="1030"
     inkscape:window-x="0"
     inkscape:window-y="25"
     inkscape:window-maximized="1"
     inkscape:snap-global="false">
    <sodipodi:guide
       orientation="1,0"
       position="0,112"
       id="guide2383" />
    <sodipodi:guide
       orientation="0,1"
       position="26.278146,128"
       id="guide2385" />
    <sodipodi:guide
       orientation="1,0"
       position="128,54.082119"
       id="guide2387" />
    <sodipodi:guide
       orientation="0,1"
       position="78.156291,0"
       id="guide2389" />
    <sodipodi:guide
       orientation="0,1"
       position="60.863576,64.084768"
       id="guide2391" />
    <inkscape:grid
       type="xygrid"
       id="grid3672"
       visible="true"
       enabled="true" />
  </sodipodi:namedview>
  <metadata
     id="metadata7">
    <rdf:RDF>
      <cc:Work
         rdf:about="">
        <dc:format>image/svg+xml</dc:format>
        <dc:type
           rdf:resource="http://purl.org/dc/dcmitype/StillImage" />
        <dc:title></dc:title>
      </cc:Work>
    </rdf:RDF>
  </metadata>
  <g
     inkscape:label="Button"
     inkscape:groupmode="layer"
     id="layer1">
    <rect
       ry="2"
       rx="2"
       y="0"
       x="-16"
       height="16"
       width="16"
       id="rect3196"
       style="fill:url(#linearGradient3204);fill-opacity:1.0;fill-rule:nonzero;stroke:none"
       transform="matrix(0,-1,1,0,0,0)" />
    <g
       transform="matrix(0.8,0,0,0.8,-1.6,0)"
       style="display:inline"
       id="g4108"
       clip-path="url(#clipPath4170)">
      <path
         inkscape:connector-curvature="0"
         sodipodi:nodetypes="ccccccccccccccccccccccccccccccccccccccccc"
         id="path3663"
         d="M 18.006168,-1.1717011 14.574184,6.2598136 21.12975,1.3577257 15.569275,7.3649745 23.318818,4.7285937 16.17415,8.7235453 24.359089,8.610939 l -8.029491,1.5916 7.819139,2.422191 -8.128333,-0.967548 6.687944,4.719887 -7.431514,-3.431985 4.902088,6.555568 -6.007249,-5.560476 1.976841,6.289134 L 12.813102,14.54505 12.690158,22.306 11.334108,14.700499 9.241687,21.483217 9.879465,14.391305 6.054667,19.24196 8.591563,13.647734 1.046686,19.680462 7.596472,12.542573 -0.1530721,15.178954 6.991597,11.184003 1.020826,11.013949 6.836148,9.7050086 -0.559,7.424148 7.145342,8.2503656 2.247577,4.8966679 7.888913,6.9624637 2.986825,0.40689608 8.994074,5.9673724 6.357693,-1.7821714 l 3.994952,7.144669 -0.112607,-8.1849404 1.591601,8.0294919 2.42219,-7.8191382 -0.967547,8.1283323 4.719886,-6.6879443 z"
         style="opacity:0.4;color:#000000;fill:url(#radialGradient4061);fill-opacity:1;fill-rule:nonzero;stroke:none;stroke-width:1.5;marker:none;visibility:visible;display:inline;overflow:visible;enable-background:accumulate" />
      <path
         transform="matrix(0.23938211,0,0,0.23938211,-3.2588175,2.0541643)"
         d="M 98.641016,52 83.98731,45.995265 94.641778,57.711505 81.253405,49.253405 89.711504,62.641778 77.995265,51.98731 84,66.641016 74.311885,54.11391 77.680806,69.587705 70.315185,55.56859 70.945927,71.39231 66.1266,56.30715 64,72 61.8734,56.30715 57.054073,71.39231 57.684815,55.56859 50.319194,69.587705 53.688115,54.11391 44,66.641016 50.004735,51.98731 38.288495,62.641778 46.746595,49.253405 33.358222,57.711504 44.01269,45.995265 29.358984,52 41.88609,42.311885 26.412295,45.680806 40.43141,38.315185 24.60769,38.945927 39.69285,34.1266 24,32 39.69285,29.8734 24.60769,25.054073 40.43141,25.684815 26.412295,18.319194 41.88609,21.688115 29.358984,12 44.01269,18.004735 33.358222,6.2884955 46.746595,14.746595 38.288496,1.3582222 50.004735,12.01269 44,-2.6410162 53.688115,9.8860903 50.319194,-5.5877049 57.684815,8.4314102 57.054073,-7.3923102 61.8734,7.6928497 64,-8 66.1266,7.6928498 70.945927,-7.3923101 70.315185,8.4314102 77.680806,-5.5877048 74.311885,9.8860904 84,-2.6410161 77.995265,12.01269 89.711505,1.3582224 81.253405,14.746595 94.641778,6.2884957 83.98731,18.004735 98.641016,12 86.11391,21.688115 101.5877,18.319194 87.56859,25.684815 103.39231,25.054073 88.30715,29.8734 104,32 88.30715,34.1266 103.39231,38.945927 87.56859,38.315185 101.5877,45.680806 86.11391,42.311885 z"
         inkscape:randomized="0"
         inkscape:rounded="1.7347235e-17"
         inkscape:flatsided="false"
         sodipodi:arg2="0.61086524"
         sodipodi:arg1="0.52359878"
         sodipodi:r2="24.4"
         sodipodi:r1="40"
         sodipodi:cy="32"
         sodipodi:cx="64"
         sodipodi:sides="36"
         id="path3760"
         style="opacity:0.8;color:#000000;fill:url(#radialGradient4522);fill-opacity:1;fill-rule:nonzero;stroke:none;stroke-width:1.5;marker:none;visibility:visible;display:inline;overflow:visible;enable-background:accumulate"
         sodipodi:type="star" />
      <path
         transform="matrix(0.2468628,0,0,0.2468628,-3.7375808,1.5754006)"
         d="M 96,32 C 96,49.673112 81.673112,64 64,64 46.326888,64 32,49.673112 32,32 32,14.326888 46.326888,0 64,0 81.673112,0 96,14.326888 96,32 z"
         sodipodi:ry="32"
         sodipodi:rx="32"
         sodipodi:cy="32"
         sodipodi:cx="64"
         id="path3651"
         style="color:#000000;fill:url(#radialGradient4520);fill-opacity:1;fill-rule:nonzero;stroke:none;stroke-width:1.5;marker:none;visibility:visible;display:inline;overflow:visible;enable-background:accumulate"
         sodipodi:type="arc" />
      <path
         sodipodi:type="arc"
         style="color:#000000;fill:url(#radialGradient4518);fill-opacity:1;fill-rule:nonzero;stroke:none;stroke-width:1.5;marker:none;visibility:visible;display:inline;overflow:visible;enable-background:accumulate"
         id="path3695"
         sodipodi:cx="64"
         sodipodi:cy="32"
         sodipodi:rx="32"
         sodipodi:ry="32"
         d="M 96,32 C 96,49.673112 81.673112,64 64,64 46.326888,64 32,49.673112 32,32 32,14.326888 46.326888,0 64,0 81.673112,0 96,14.326888 96,32 z"
         transform="matrix(0.1827054,0,0,0.1827054,0.3685564,3.6279682)" />
      <path
         transform="matrix(0.92514574,0,0,0.92514574,0.90292955,0.70877631)"
         d="m 12.0625,2.75 c -3.6991622,0 -6.71875,3.0195883 -6.71875,6.71875 0,3.699161 3.0195878,6.71875 6.71875,6.71875 3.699161,0 6.71875,-3.019589 6.71875,-6.71875 C 18.78125,5.7695883 15.761661,2.75 12.0625,2.75 z m 0,0.75 c 3.308297,0 5.96875,2.6604527 5.96875,5.96875 0,3.308297 -2.660453,5.96875 -5.96875,5.96875 -3.3082979,0 -5.96875,-2.660453 -5.96875,-5.96875 C 6.09375,6.1604527 8.7542021,3.5 12.0625,3.5 z"
         id="path4075"
         style="color:#000000;fill:#ffc000;fill-opacity:1;fill-rule:nonzero;stroke:none;stroke-width:1.5;marker:none;visibility:visible;display:inline;overflow:visible;enable-background:accumulate"
         inkscape:original="M 12.0625 3 C 8.492908 3 5.59375 5.8991585 5.59375 9.46875 C 5.59375 13.038341 8.492908 15.9375 12.0625 15.9375 C 15.632091 15.9375 18.53125 13.038341 18.53125 9.46875 C 18.53125 5.8991585 15.632091 3 12.0625 3 z M 12.0625 3.25 C 15.499884 3.25 18.28125 6.0313659 18.28125 9.46875 C 18.28125 12.906134 15.499884 15.6875 12.0625 15.6875 C 8.6251153 15.6875 5.84375 12.906134 5.84375 9.46875 C 5.84375 6.0313659 8.6251153 3.25 12.0625 3.25 z "
         inkscape:radius="0.23930018"
         sodipodi:type="inkscape:offset" />
      <path
         inkscape:connector-curvature="0"
         transform="matrix(-0.23260936,0.05653921,-0.05653921,-0.23260936,30.397453,17.871368)"
         id="path4351"
         d="m 63.495725,27.343283 c 1.691567,-0.386605 3.760002,-1.103699 5.252728,0.176942 1.622723,1.210353 0.947173,3.438271 1.465562,5.120212 1.075407,1.578792 2.868092,2.630145 3.39028,4.572528 0.549496,1.212388 1.005368,3.054703 -0.32076,3.936525 -1.679305,0.734233 -4.202379,0.786408 -5.202101,-1.039088 -1.295524,-1.32453 -1.38772,-3.392637 -2.484647,-4.736939 -1.879758,-0.59972 -3.943699,-0.114816 -5.855587,-0.794802 -1.655022,-0.183074 -3.172518,-1.722392 -2.722232,-3.446173 0.575059,-2.293314 3.030965,-3.732148 5.311456,-3.648081 0.390498,-0.02534 0.782142,-0.05803 1.165301,-0.141124 z"
         style="opacity:0.07000002;fill:#ff6600;stroke:none;filter:url(#filter4449)" />
      <g
         transform="matrix(0.95501875,0,0,0.95501875,-18.554486,0.41240441)"
         id="g4077">
        <g
           transform="matrix(0.23938211,0,0,0.23938211,20.571296,-0.33965772)"
           id="g4295"
           clip-path="url(#clipPath4303)">
          <path
             transform="matrix(1.3218391,0,0,1.3218391,-14.876472,-17.939623)"
             d="m 67.843913,44.185143 c 0,6.382109 -4.839933,11.55583 -10.810294,11.55583 -5.970361,0 -10.810294,-5.173721 -10.810294,-11.55583 0,-6.38211 4.839933,-11.555831 10.810294,-11.555831 5.970361,0 10.810294,5.173721 10.810294,11.555831 z"
             sodipodi:ry="11.555831"
             sodipodi:rx="10.810294"
             sodipodi:cy="44.185143"
             sodipodi:cx="57.033619"
             id="path4269"
             style="opacity:0.3;color:#000000;fill:url(#radialGradient4098);fill-opacity:1;fill-rule:nonzero;stroke:none;stroke-width:1.5;marker:none;visibility:visible;display:inline;overflow:visible;enable-background:accumulate"
             sodipodi:type="arc" />
          <path
             sodipodi:type="arc"
             style="opacity:0.3;color:#000000;fill:url(#radialGradient4100);fill-opacity:1;fill-rule:nonzero;stroke:none;stroke-width:1.5;marker:none;visibility:visible;display:inline;overflow:visible;enable-background:accumulate"
             id="path4279"
             sodipodi:cx="57.033619"
             sodipodi:cy="44.185143"
             sodipodi:rx="10.810294"
             sodipodi:ry="11.555831"
             d="m 67.843913,44.185143 c 0,6.382109 -4.839933,11.55583 -10.810294,11.55583 -5.970361,0 -10.810294,-5.173721 -10.810294,-11.55583 0,-6.38211 4.839933,-11.555831 10.810294,-11.555831 5.970361,0 10.810294,5.173721 10.810294,11.555831 z"
             transform="matrix(1.0422692,0,0,1.0422692,-26.556559,-5.5867866)" />
          <path
             transform="matrix(1.4508714,0,0,1.4508714,-43.952434,-36.066556)"
             d="m 67.843913,44.185143 c 0,6.382109 -4.839933,11.55583 -10.810294,11.55583 -5.970361,0 -10.810294,-5.173721 -10.810294,-11.55583 0,-6.38211 4.839933,-11.555831 10.810294,-11.555831 5.970361,0 10.810294,5.173721 10.810294,11.555831 z"
             sodipodi:ry="11.555831"
             sodipodi:rx="10.810294"
             sodipodi:cy="44.185143"
             sodipodi:cx="57.033619"
             id="path4283"
             style="opacity:0.3;color:#000000;fill:url(#radialGradient4102);fill-opacity:1;fill-rule:nonzero;stroke:none;stroke-width:1.5;marker:none;visibility:visible;display:inline;overflow:visible;enable-background:accumulate"
             sodipodi:type="arc" />
          <path
             sodipodi:type="arc"
             style="opacity:0.3;color:#000000;fill:url(#radialGradient4104);fill-opacity:1;fill-rule:nonzero;stroke:none;stroke-width:1.5;marker:none;visibility:visible;display:inline;overflow:visible;enable-background:accumulate"
             id="path4287"
             sodipodi:cx="57.033619"
             sodipodi:cy="44.185143"
             sodipodi:rx="10.810294"
             sodipodi:ry="11.555831"
             d="m 67.843913,44.185143 c 0,6.382109 -4.839933,11.55583 -10.810294,11.55583 -5.970361,0 -10.810294,-5.173721 -10.810294,-11.55583 0,-6.38211 4.839933,-11.555831 10.810294,-11.555831 5.970361,0 10.810294,5.173721 10.810294,11.555831 z"
             transform="matrix(1.9221358,0,0,1.6981832,-48.091452,-49.354932)" />
        </g>
        <path
           sodipodi:type="arc"
           style="opacity:0.5;color:#000000;fill:url(#linearGradient4106);fill-opacity:1;fill-rule:nonzero;stroke:none;stroke-width:1.5;marker:none;visibility:visible;display:inline;overflow:visible;enable-background:accumulate"
           id="path4086"
           sodipodi:cx="64"
           sodipodi:cy="32"
           sodipodi:rx="32"
           sodipodi:ry="32"
           d="M 96,32 C 96,49.673112 81.673112,64 64,64 46.326888,64 32,49.673112 32,32 32,14.326888 46.326888,0 64,0 81.673112,0 96,14.326888 96,32 z"
           transform="matrix(0.14063017,0,0,0.08857691,23.061307,3.6660763)" />
        <path
           style="opacity:0.07000002;fill:#ff6600;stroke:none;filter:url(#filter4421)"
           d="m 24.8096,39.35105 c -0.486437,1.523676 0.0317,3.832207 1.873425,3.538622 1.077406,2.367083 -3.418682,3.028306 -2.45647,5.528441 0.390688,1.418612 2.462669,1.209646 1.542332,-0.444994 -0.274639,-2.100499 2.995175,-2.623043 2.999677,-0.281949 0.913693,1.612732 3.710035,2.717817 4.91407,0.846968 0.85384,-1.440377 -3.404403,-3.483763 -0.650318,-4.177487 2.547972,0.770365 3.537643,-2.50797 1.788276,-4.017132 -1.251246,-1.460564 -2.791804,0.09474 -3.100418,1.385872 -2.124936,1.495584 -4.440665,-0.981566 -4.19277,-3.068597 -0.75242,-0.953442 -2.491237,-0.48632 -2.717804,0.690256 z"
           id="path4337"
           inkscape:connector-curvature="0"
           transform="matrix(0.23938211,0,0,0.23938211,20.571296,-0.81842194)" />
        <path
           style="opacity:0.07000002;fill:#ff6600;stroke:none;filter:url(#filter4425)"
           d="m 41.211425,51.528162 c -1.140292,-1.575846 -2.314247,-4.741446 0.0246,-5.79161 2.394181,-0.669098 3.112004,2.302608 4.929997,2.944427 2.067223,0.09268 2.898693,1.705675 2.570029,3.544564 0.312424,1.426612 2.528382,3.15799 0.0925,3.94749 -1.677517,0.437833 -3.834764,-0.888012 -3.602076,-2.763831 0.04456,-2.121611 -2.241063,-2.205062 -3.585446,-1.506463 l -0.247153,-0.143804 -0.182455,-0.230773 0,0 z"
           id="path4339"
           inkscape:connector-curvature="0"
           transform="matrix(0.23938211,0,0,0.23938211,20.571296,-0.81842194)" />
        <path
           style="opacity:0.07000002;fill:#ff6600;stroke:none;filter:url(#filter4429)"
           d="m 31.270925,47.551962 c 2.067551,-0.470399 1.592808,-3.472738 3.44449,-4.141974 2.745902,0.544454 1.790062,4.163181 1.64083,6.165841 1.332023,1.968434 5.786664,0.474897 5.545368,3.700317 -0.428768,2.635469 1.508023,4.738719 1.82601,7.109089 -0.60003,2.643451 -4.945781,2.957873 -5.519638,0.110032 -1.142766,-2.169543 3.333377,-3.8415 0.382194,-5.469574 -1.889743,-0.83289 -4.549187,-2.114942 -6.029042,0.08389 -1.473276,1.946846 -4.445144,-0.129293 -4.128269,-2.17889 0.296978,-2.1872 5.120429,-0.812256 3.945563,-3.552061 -0.348713,-0.568152 -1.797441,-0.985101 -1.107506,-1.826673 z"
           id="path4341"
           inkscape:connector-curvature="0"
           transform="matrix(0.23938211,0,0,0.23938211,20.571296,-0.81842194)" />
        <path
           style="opacity:0.07000002;fill:#ff6600;stroke:none;filter:url(#filter4433)"
           d="m 34.004562,59.480562 c -1.916224,-0.985718 -2.800531,-4.922209 0.05414,-5.153051 2.184612,-0.07762 2.94969,2.589224 2.632208,4.359453 -0.258367,2.680317 3.684131,2.982919 5.16886,1.363 2.248605,-0.159205 4.171287,3.201028 6.380086,1.166407 1.006212,-0.753628 2.779377,-3.588743 3.833278,-1.923997 -0.65567,1.679783 -3.771871,2.221793 -2.832023,4.560821 -0.293617,2.284271 -3.30646,2.691912 -5.009291,1.742205 -1.531658,-1.004161 -3.323503,-4.115971 -5.241896,-1.905629 -1.795596,1.424613 -4.894233,-0.232303 -4.59639,-2.535132 -0.108318,-0.562421 -0.202472,-1.130729 -0.388971,-1.674077 z"
           id="path4343"
           inkscape:connector-curvature="0"
           transform="matrix(0.23938211,0,0,0.23938211,20.571296,-0.81842194)" />
        <path
           style="opacity:0.07000002;fill:#ff6600;stroke:none;filter:url(#filter4437)"
           d="m 57.861762,41.587662 c 1.691568,-0.386605 3.760001,-1.103698 5.252729,0.176942 1.622722,1.210354 0.947171,3.438271 1.465562,5.120212 1.075407,1.578792 2.868092,2.630145 3.39028,4.572528 0.549496,1.212388 1.005368,3.054703 -0.32076,3.936525 -1.679306,0.734234 -4.202379,0.786409 -5.202101,-1.039087 -1.295525,-1.324531 -1.38772,-3.392638 -2.484647,-4.736939 -1.879758,-0.59972 -3.943699,-0.114816 -5.855587,-0.794802 -1.655022,-0.183075 -3.172518,-1.722392 -2.722232,-3.446173 0.575059,-2.293314 3.030965,-3.732148 5.311456,-3.648082 0.390498,-0.02534 0.782142,-0.05803 1.165301,-0.141124 z"
           id="path4345"
           inkscape:connector-curvature="0"
           transform="matrix(0.23938211,0,0,0.23938211,20.571296,-0.81842194)" />
        <path
           id="path4347"
           d="m 34.875138,37.544195 c 1.691567,-0.386605 3.760001,-1.103699 5.252728,0.176942 1.622723,1.210353 0.947172,3.438271 1.465562,5.120212 1.075407,1.578792 2.868092,2.630145 3.39028,4.572528 0.549496,1.212388 1.005368,3.054703 -0.32076,3.936525 -1.679306,0.734233 -4.202379,0.786408 -5.202101,-1.039088 -1.295525,-1.32453 -1.38772,-3.392637 -2.484647,-4.736939 -1.879758,-0.59972 -3.943699,-0.114816 -5.855587,-0.794802 -1.655022,-0.183074 -3.172518,-1.722392 -2.722232,-3.446173 0.575059,-2.293314 3.030965,-3.732148 5.311456,-3.648081 0.390498,-0.02534 0.782142,-0.05803 1.165301,-0.141124 z"
           style="opacity:0.07000002;fill:#ff6600;stroke:none;filter:url(#filter4441)"
           inkscape:connector-curvature="0"
           transform="matrix(0.23938211,0,0,0.23938211,20.571296,-0.81842194)" />
        <path
           id="path4349"
           d="m 55.418287,42.072787 c -1.916224,-0.985718 -2.800531,-4.922209 0.05414,-5.153051 2.184612,-0.07762 2.94969,2.589224 2.632208,4.359453 -0.258367,2.680317 3.684131,2.982919 5.16886,1.363 2.248605,-0.159205 4.171287,3.201028 6.380086,1.166407 1.006212,-0.753628 2.779377,-3.588743 3.833278,-1.923997 -0.65567,1.679783 -3.771871,2.221793 -2.832023,4.560821 -0.293617,2.284271 -3.30646,2.691912 -5.009291,1.742205 -1.531658,-1.004161 -3.323503,-4.115971 -5.241896,-1.905629 -1.795596,1.424613 -4.894233,-0.232303 -4.59639,-2.535132 -0.108318,-0.562421 -0.202472,-1.130729 -0.388971,-1.674077 z"
           style="opacity:0.07000002;fill:#ff6600;stroke:none;filter:url(#filter4445)"
           transform="matrix(-0.10476404,0.21524007,-0.21524007,-0.10476404,50.517175,2.9064073)"
           inkscape:connector-curvature="0" />
        <path
           id="path4353"
           d="m 46.6787,46.806424 c 2.067551,-0.470399 1.592808,-3.472738 3.44449,-4.141974 2.745902,0.544454 1.790062,4.163181 1.64083,6.165841 1.332023,1.968434 5.786664,0.474897 5.545368,3.700317 -0.428768,2.635469 1.508023,4.738719 1.82601,7.109089 -0.60003,2.643451 -4.945781,2.957873 -5.519638,0.110032 -1.142766,-2.169543 3.333377,-3.8415 0.382194,-5.469574 -1.889743,-0.83289 -4.549187,-2.114942 -6.029042,0.08389 -1.473276,1.946846 -4.445144,-0.129293 -4.128269,-2.17889 0.296978,-2.1872 5.120429,-0.812256 3.945563,-3.552061 -0.348713,-0.568152 -1.797441,-0.985101 -1.107506,-1.826673 z"
           style="opacity:0.07000002;fill:#ff6600;stroke:none;filter:url(#filter4453)"
           inkscape:connector-curvature="0"
           transform="matrix(0.23938211,0,0,0.23938211,20.571296,-0.81842194)" />
        <path
           style="opacity:0.07000002;fill:#ff6600;stroke:none;filter:url(#filter4457)"
           d="m 35.910838,43.496595 c 1.691567,-0.386605 3.760001,-1.103699 5.252728,0.176942 1.622723,1.210353 0.947172,3.438271 1.465562,5.120212 1.075407,1.578792 2.868092,2.630145 3.39028,4.572528 0.549496,1.212388 1.005368,3.054703 -0.32076,3.936525 -1.679306,0.734233 -4.202379,0.786408 -5.202101,-1.039088 -1.295525,-1.32453 -1.38772,-3.392637 -2.484647,-4.736939 -1.879758,-0.59972 -3.943699,-0.114816 -5.855587,-0.794802 -1.655022,-0.183074 -3.172518,-1.722392 -2.722232,-3.446173 0.575059,-2.293314 3.030965,-3.732148 5.311456,-3.648081 0.390498,-0.02534 0.782142,-0.05803 1.165301,-0.141124 z"
           id="path4355"
           transform="matrix(-0.23318797,-0.0541033,0.0541033,-0.23318797,34.108934,25.513715)"
           inkscape:connector-curvature="0" />
        <path
           id="path4357"
           d="m 57.6549,36.605512 c -1.140292,-1.575846 -2.314247,-4.741446 0.0246,-5.79161 2.394181,-0.669098 3.112004,2.302608 4.929997,2.944427 2.067223,0.09268 2.898693,1.705675 2.570029,3.544564 0.312424,1.426612 2.528382,3.15799 0.0925,3.94749 -1.677517,0.437833 -3.834764,-0.888012 -3.602076,-2.763831 0.04456,-2.121611 -2.241063,-2.205062 -3.585446,-1.506463 l -0.247153,-0.143804 -0.182455,-0.230773 0,0 z"
           style="opacity:0.07000002;fill:#ff6600;stroke:none;filter:url(#filter4461)"
           transform="matrix(-0.16149015,0.1767052,-0.1767052,-0.16149015,46.094595,7.45467)"
           inkscape:connector-curvature="0" />
        <path
           id="path4359"
           d="m 47.7144,32.629312 c 2.067551,-0.470399 1.592808,-3.472738 3.44449,-4.141974 2.745902,0.544454 1.790062,4.163181 1.64083,6.165841 1.332023,1.968434 5.786664,0.474897 5.545368,3.700317 -0.428768,2.635469 1.508023,4.738719 1.82601,7.109089 -0.60003,2.643451 -4.945781,2.957873 -5.519638,0.110032 -1.142766,-2.169543 3.333377,-3.8415 0.382194,-5.469574 -1.889743,-0.83289 -4.549187,-2.114942 -6.029042,0.08389 -1.473276,1.946846 -4.445144,-0.129293 -4.128269,-2.17889 0.296978,-2.1872 5.120429,-0.812256 3.945563,-3.552061 C 48.473193,33.88783 47.024465,33.470881 47.7144,32.629309 z"
           style="opacity:0.07000002;fill:#ff6600;stroke:none;filter:url(#filter4465)"
           transform="matrix(-0.16149015,0.1767052,-0.1767052,-0.16149015,46.094595,7.45467)"
           inkscape:connector-curvature="0" />
        <path
           id="path4361"
           d="m 50.448037,44.557912 c -1.916224,-0.985718 -2.800531,-4.922209 0.05414,-5.153051 2.184612,-0.07762 2.94969,2.589224 2.632208,4.359453 -0.258367,2.680317 3.684131,2.982919 5.16886,1.363 2.248605,-0.159205 4.171287,3.201028 6.380086,1.166407 1.006212,-0.753628 2.779377,-3.588743 3.833278,-1.923997 -0.65567,1.679783 -3.771871,2.221793 -2.832023,4.560821 -0.293617,2.284271 -3.30646,2.691912 -5.009291,1.742205 -1.531658,-1.004161 -3.323503,-4.115971 -5.241896,-1.905629 -1.795596,1.424613 -4.894233,-0.232303 -4.59639,-2.535132 -0.108318,-0.562421 -0.202472,-1.130729 -0.388971,-1.674077 z"
           style="opacity:0.07000002;fill:#ff6600;stroke:none;filter:url(#filter4469)"
           transform="matrix(-0.16149015,0.1767052,-0.1767052,-0.16149015,46.094595,7.45467)"
           inkscape:connector-curvature="0" />
        <path
           transform="matrix(0.19724905,-0.1356341,0.1356341,0.19724905,17.505738,4.9992978)"
           id="path4363"
           d="m 35.910838,43.496595 c 1.691567,-0.386605 3.760001,-1.103699 5.252728,0.176942 1.622723,1.210353 0.947172,3.438271 1.465562,5.120212 1.075407,1.578792 2.868092,2.630145 3.39028,4.572528 0.549496,1.212388 1.005368,3.054703 -0.32076,3.936525 -1.679306,0.734233 -4.202379,0.786408 -5.202101,-1.039088 -1.295525,-1.32453 -1.38772,-3.392637 -2.484647,-4.736939 -1.879758,-0.59972 -3.943699,-0.114816 -5.855587,-0.794802 -1.655022,-0.183074 -3.172518,-1.722392 -2.722232,-3.446173 0.575059,-2.293314 3.030965,-3.732148 5.311456,-3.648081 0.390498,-0.02534 0.782142,-0.05803 1.165301,-0.141124 z"
           style="opacity:0.07000002;fill:#ff6600;stroke:none;filter:url(#filter4473)"
           inkscape:connector-curvature="0" />
      </g>
    </g>
    <path
       style="opacity:0.4;fill:url(#linearGradient3629);fill-opacity:1;fill-rule:nonzero;stroke:none"
       d="m 0,14 c 0,1.108 0.892,2 2,2 l 12,0 c 1.108,0 2,-0.892 2,-2 L 16,2 C 16,0.892 15.108,0 14,0 L 2,0 C 0.892,0 0,0.892 0,2 l 0,12 z m 0.96875,0 0,-12 C 0.96875,1.416801 1.4168007,0.96875 2,0.96875 l 12,0 c 0.583199,0 1.03125,0.448051 1.03125,1.03125 l 0,12 c 0,0.583199 -0.448051,1.03125 -1.03125,1.03125 l -12,0 C 1.4168007,15.03125 0.96875,14.583199 0.96875,14 z"
       id="rect2835" />
    <path
       style="fill:#ffffff;fill-opacity:1;fill-rule:nonzero;stroke:none;opacity:0.3"
       d="M 2 0.96875 C 1.4168007 0.96875 0.96875 1.4168007 0.96875 2 L 0.96875 3 C 0.96875 2.4168007 1.4168007 1.96875 2 1.96875 L 14 1.96875 C 14.583199 1.96875 15.03125 2.4168007 15.03125 3 L 15.03125 2 C 15.03125 1.4168007 14.583199 0.96875 14 0.96875 L 2 0.96875 z "
       id="path2843" />
  </g>
</svg>
