<?xml version="1.0" encoding="UTF-8" standalone="no"?>
<!-- Created with Inkscape (http://www.inkscape.org/) -->

<svg
   xmlns:dc="http://purl.org/dc/elements/1.1/"
   xmlns:cc="http://creativecommons.org/ns#"
   xmlns:rdf="http://www.w3.org/1999/02/22-rdf-syntax-ns#"
   xmlns:svg="http://www.w3.org/2000/svg"
   xmlns="http://www.w3.org/2000/svg"
   xmlns:xlink="http://www.w3.org/1999/xlink"
   xmlns:sodipodi="http://sodipodi.sourceforge.net/DTD/sodipodi-0.dtd"
   xmlns:inkscape="http://www.inkscape.org/namespaces/inkscape"
   width="16"
   height="16"
   id="svg2"
   sodipodi:version="0.32"
   inkscape:version="0.48.1 r9760"
   version="1.0"
   sodipodi:docname="weather-few-clouds.svg"
   inkscape:output_extension="org.inkscape.output.svg.inkscape"
   style="display:inline">
  <defs
     id="defs4">
    <inkscape:perspective
       sodipodi:type="inkscape:persp3d"
       inkscape:vp_x="0 : 8 : 1"
       inkscape:vp_y="0 : 1000 : 0"
       inkscape:vp_z="16 : 8 : 1"
       inkscape:persp3d-origin="8 : 5.3333333 : 1"
       id="perspective35" />
    <linearGradient
       inkscape:collect="always"
       id="linearGradient3327">
      <stop
         style="stop-color:#000000;stop-opacity:1;"
         offset="0"
         id="stop3330" />
      <stop
         style="stop-color:#000000;stop-opacity:0;"
         offset="1"
         id="stop3333" />
    </linearGradient>
    <linearGradient
       id="ButtonColor"
       x1="10.31979"
       y1="21"
       x2="10.31979"
       y2="0.99929649"
       gradientUnits="userSpaceOnUse">
      <stop
         style="stop-color:#29669f;stop-opacity:1;"
         offset="0"
         id="stop3189" />
      <stop
         style="stop-color:#88b6e0;stop-opacity:1;"
         offset="1"
         id="stop3191" />
    </linearGradient>
    <linearGradient
       inkscape:collect="always"
       xlink:href="#linearGradient3700-7"
       id="linearGradient3204"
       x1="1"
       y1="9"
       x2="15"
       y2="9"
       gradientUnits="userSpaceOnUse"
       gradientTransform="translate(-17,-2)" />
    <linearGradient
       inkscape:collect="always"
       xlink:href="#linearGradient3327"
       id="linearGradient3629"
       x1="0"
       y1="8"
       x2="29.017237"
       y2="8"
       gradientUnits="userSpaceOnUse"
       gradientTransform="matrix(0,-1,1,0,0,16)" />
    <linearGradient
       inkscape:collect="always"
       xlink:href="#SVGID_1_-4"
       id="linearGradient3765"
       gradientUnits="userSpaceOnUse"
       gradientTransform="matrix(0.09341072,0,0,0.04108075,-26.756456,8.0246654)"
       x1="383.28857"
       y1="0"
       x2="383.28857"
       y2="218.48047" />
    <linearGradient
       id="SVGID_1_-4"
       gradientUnits="userSpaceOnUse"
       x1="383.28857"
       y1="0"
       x2="383.28857"
       y2="218.48047">
      <stop
         offset="0.005618"
         style="stop-color:#ED2828"
         id="stop3143-2" />
      <stop
         offset="0.5"
         style="stop-color:#EF3B39"
         id="stop3145-1" />
      <stop
         offset="0.994382"
         style="stop-color:#C02126"
         id="stop3147-3" />
    </linearGradient>
    <linearGradient
       y2="180.6748"
       x2="175.30762"
       y1="73.254395"
       x1="175.30762"
       gradientUnits="userSpaceOnUse"
       id="linearGradient3749-5">
      <stop
         id="stop3751-8"
         style="stop-color:#000000;stop-opacity:1;"
         offset="0" />
      <stop
         id="stop3753-7"
         style="stop-color:#000000;stop-opacity:0.4728682;"
         offset="0.99438202" />
    </linearGradient>
    <linearGradient
       inkscape:collect="always"
       xlink:href="#linearGradient3749-5"
       id="linearGradient3754"
       gradientUnits="userSpaceOnUse"
       gradientTransform="matrix(0.04164302,0,0,0.03408859,1.9444673,0.78644322)"
       x1="175.30762"
       y1="73.254395"
       x2="175.30762"
       y2="180.6748" />
    <linearGradient
       inkscape:collect="always"
       xlink:href="#linearGradient3749-5"
       id="linearGradient3756"
       gradientUnits="userSpaceOnUse"
       gradientTransform="matrix(0.04998763,0,0,0.03408859,2.4795353,0.78644322)"
       x1="175.30762"
       y1="73.254395"
       x2="175.30762"
       y2="180.6748" />
    <linearGradient
       y2="180.6748"
       x2="175.30762"
       y1="73.254395"
       x1="175.30762"
       gradientTransform="matrix(0.04859283,0,0,0.03408859,3.115962,0.78644322)"
       gradientUnits="userSpaceOnUse"
       id="linearGradient3809"
       xlink:href="#linearGradient3749-5"
       inkscape:collect="always" />
    <inkscape:perspective
       id="perspective3729"
       inkscape:persp3d-origin="0.5 : 0.33333333 : 1"
       inkscape:vp_z="1 : 0.5 : 1"
       inkscape:vp_y="0 : 1000 : 0"
       inkscape:vp_x="0 : 0.5 : 1"
       sodipodi:type="inkscape:persp3d" />
    <linearGradient
       inkscape:collect="always"
       xlink:href="#linearGradient3696"
       id="linearGradient4163"
       x1="6"
       y1="48"
       x2="90"
       y2="48"
       gradientUnits="userSpaceOnUse"
       gradientTransform="translate(-96,0)" />
    <linearGradient
       id="linearGradient3696">
      <stop
         id="stop3698"
         offset="0"
         style="stop-color:#2458a6;stop-opacity:1;" />
      <stop
         id="stop3700"
         offset="1"
         style="stop-color:#598ad4;stop-opacity:1;" />
    </linearGradient>
    <linearGradient
       y2="48"
       x2="90"
       y1="48"
       x1="6"
       gradientTransform="translate(-52.867199,-57.252856)"
       gradientUnits="userSpaceOnUse"
       id="linearGradient3738"
       xlink:href="#linearGradient3696"
       inkscape:collect="always" />
    <inkscape:perspective
       id="perspective3703"
       inkscape:persp3d-origin="0.5 : 0.33333333 : 1"
       inkscape:vp_z="1 : 0.5 : 1"
       inkscape:vp_y="0 : 1000 : 0"
       inkscape:vp_x="0 : 0.5 : 1"
       sodipodi:type="inkscape:persp3d" />
    <linearGradient
       gradientTransform="matrix(0.19388162,0,0,0.19388162,-1.4007219,-1.9461429)"
       inkscape:collect="always"
       xlink:href="#linearGradient4099"
       id="linearGradient4113"
       x1="22.111456"
       y1="62.983868"
       x2="40"
       y2="32"
       gradientUnits="userSpaceOnUse" />
    <linearGradient
       id="linearGradient4099">
      <stop
         style="stop-color:#9ede27;stop-opacity:1;"
         offset="0"
         id="stop4101" />
      <stop
         style="stop-color:#c8f16b;stop-opacity:1;"
         offset="1"
         id="stop4103" />
    </linearGradient>
    <linearGradient
       gradientTransform="matrix(0.19388162,0,0,0.19388162,-1.5256152,-1.9461429)"
       inkscape:collect="always"
       xlink:href="#linearGradient4099"
       id="linearGradient4105"
       x1="38"
       y1="74"
       x2="70"
       y2="49"
       gradientUnits="userSpaceOnUse" />
    <linearGradient
       id="linearGradient3712">
      <stop
         style="stop-color:#9ede27;stop-opacity:1;"
         offset="0"
         id="stop3714" />
      <stop
         style="stop-color:#c8f16b;stop-opacity:1;"
         offset="1"
         id="stop3716" />
    </linearGradient>
    <linearGradient
       inkscape:collect="always"
       xlink:href="#linearGradient3799-3"
       id="linearGradient3746"
       gradientUnits="userSpaceOnUse"
       x1="56.037025"
       y1="49.333305"
       x2="56.037025"
       y2="13.593002"
       gradientTransform="matrix(0.26518093,0,0,0.26518093,-0.34872536,-3.7081516)" />
    <linearGradient
       id="linearGradient3799-3">
      <stop
         style="stop-color:#1a1a1a;stop-opacity:1;"
         offset="0"
         id="stop3801-3" />
      <stop
         style="stop-color:#000000;stop-opacity:1;"
         offset="1"
         id="stop3803-2" />
    </linearGradient>
    <linearGradient
       y2="13.593002"
       x2="56.037025"
       y1="49.333305"
       x1="56.037025"
       gradientTransform="matrix(0.19388162,0,0,0.19388162,-1.3401963,-1.8843368)"
       gradientUnits="userSpaceOnUse"
       id="linearGradient3726"
       xlink:href="#linearGradient3799-3"
       inkscape:collect="always" />
    <inkscape:perspective
       id="perspective3736"
       inkscape:persp3d-origin="0.5 : 0.33333333 : 1"
       inkscape:vp_z="1 : 0.5 : 1"
       inkscape:vp_y="0 : 1000 : 0"
       inkscape:vp_x="0 : 0.5 : 1"
       sodipodi:type="inkscape:persp3d" />
    <radialGradient
       inkscape:collect="always"
       xlink:href="#linearGradient3784-2"
       id="radialGradient3758"
       gradientUnits="userSpaceOnUse"
       gradientTransform="matrix(1.0456205,0.08243661,-0.05194947,0.90987799,0.84943041,1.3399685)"
       cx="49.580967"
       cy="67.04126"
       fx="49.580967"
       fy="67.04126"
       r="10" />
    <linearGradient
       id="linearGradient3784-2">
      <stop
         id="stop3786-4"
         offset="0"
         style="stop-color:#a0a0a0;stop-opacity:1;" />
      <stop
         id="stop3790-2"
         offset="1"
         style="stop-color:#1a1a1a;stop-opacity:1;" />
    </linearGradient>
    <radialGradient
       r="10"
       fy="67.04126"
       fx="49.580967"
       cy="67.04126"
       cx="49.580967"
       gradientTransform="matrix(1.0456205,0.08243661,-0.05194947,0.90987799,0.84943041,1.3399685)"
       gradientUnits="userSpaceOnUse"
       id="radialGradient3745"
       xlink:href="#linearGradient3784-2"
       inkscape:collect="always" />
    <radialGradient
       inkscape:collect="always"
       xlink:href="#linearGradient3784-2"
       id="radialGradient3698"
       cx="10.116978"
       cy="6.5340972"
       fx="10.116978"
       fy="6.5340972"
       r="2.6487656"
       gradientTransform="matrix(0.60548597,-0.18291744,0.13322228,0.44098703,0.81853832,7.6996387)"
       gradientUnits="userSpaceOnUse" />
    <clipPath
       clipPathUnits="userSpaceOnUse"
       id="clipPath4170">
      <rect
         style="fill:#ff00ff;fill-opacity:1;fill-rule:evenodd;stroke:none;display:inline"
         id="rect4172"
         width="20"
         height="20"
         x="2"
         y="0"
         rx="2"
         ry="2" />
    </clipPath>
    <radialGradient
       inkscape:collect="always"
       xlink:href="#linearGradient3762-0"
       id="radialGradient4061"
       gradientUnits="userSpaceOnUse"
       gradientTransform="matrix(0.23938211,0,0,0.24140293,-3.7375817,2.2306696)"
       cx="65.324959"
       cy="31.114408"
       fx="65.324959"
       fy="31.114408"
       r="52.04668" />
    <linearGradient
       id="linearGradient3762-0">
      <stop
         style="stop-color:#ffda56;stop-opacity:1;"
         offset="0"
         id="stop3764-5" />
      <stop
         id="stop3770-3"
         offset="0.640625"
         style="stop-color:#ffda56;stop-opacity:1;" />
      <stop
         style="stop-color:#ffda56;stop-opacity:0;"
         offset="1"
         id="stop3766-9" />
    </linearGradient>
    <radialGradient
       inkscape:collect="always"
       xlink:href="#linearGradient3762-0"
       id="radialGradient4522"
       gradientUnits="userSpaceOnUse"
       cx="64"
       cy="32"
       fx="64"
       fy="32"
       r="40" />
    <linearGradient
       id="linearGradient4192">
      <stop
         style="stop-color:#ffda56;stop-opacity:1;"
         offset="0"
         id="stop4194" />
      <stop
         id="stop4196"
         offset="0.640625"
         style="stop-color:#ffda56;stop-opacity:1;" />
      <stop
         style="stop-color:#ffda56;stop-opacity:0;"
         offset="1"
         id="stop4198" />
    </linearGradient>
    <radialGradient
       inkscape:collect="always"
       xlink:href="#linearGradient3752-3"
       id="radialGradient4520"
       gradientUnits="userSpaceOnUse"
       cx="64"
       cy="32"
       fx="64"
       fy="32"
       r="32" />
    <linearGradient
       id="linearGradient3752-3">
      <stop
         id="stop3754-6"
         offset="0"
         style="stop-color:#ffdc4d;stop-opacity:1;" />
      <stop
         style="stop-color:#ffe041;stop-opacity:1;"
         offset="0.77642262"
         id="stop3756-2" />
      <stop
         id="stop3758-7"
         offset="1"
         style="stop-color:#fffda4;stop-opacity:0;" />
    </linearGradient>
    <radialGradient
       inkscape:collect="always"
       xlink:href="#linearGradient3699-8"
       id="radialGradient4518"
       gradientUnits="userSpaceOnUse"
       cx="52.148148"
       cy="43.851852"
       fx="52.148148"
       fy="43.851852"
       r="32" />
    <linearGradient
       id="linearGradient3699-8">
      <stop
         style="stop-color:#fff894;stop-opacity:1;"
         offset="0"
         id="stop3701-8" />
      <stop
         id="stop4084"
         offset="0.80000001"
         style="stop-color:#ffc822;stop-opacity:1;" />
      <stop
         style="stop-color:#ffb400;stop-opacity:1;"
         offset="1"
         id="stop3703-4" />
    </linearGradient>
    <filter
       color-interpolation-filters="sRGB"
       inkscape:collect="always"
       id="filter4449"
       x="-0.073074818"
       width="1.1461496"
       y="-0.10019269"
       height="1.2003855">
      <feGaussianBlur
         inkscape:collect="always"
         stdDeviation="0.56854841"
         id="feGaussianBlur4451" />
    </filter>
    <clipPath
       clipPathUnits="userSpaceOnUse"
       id="clipPath4303">
      <path
         sodipodi:type="arc"
         style="color:#000000;fill:#ff0000;fill-opacity:1;fill-rule:nonzero;stroke:none;stroke-width:1.5;marker:none;visibility:visible;display:inline;overflow:visible;enable-background:accumulate"
         id="path4305"
         sodipodi:cx="64"
         sodipodi:cy="32"
         sodipodi:rx="32"
         sodipodi:ry="32"
         d="m 96,32 a 32,32 0 1 1 -64,0 32,32 0 1 1 64,0 z"
         transform="matrix(0.84375003,0,0,0.84375003,-6.000001,14.000003)" />
    </clipPath>
    <radialGradient
       inkscape:collect="always"
       xlink:href="#linearGradient4271"
       id="radialGradient4098"
       gradientUnits="userSpaceOnUse"
       gradientTransform="matrix(1,0,0,1.0689655,0,-3.0472483)"
       cx="57.033619"
       cy="44.185143"
       fx="57.033619"
       fy="44.185143"
       r="10.810294" />
    <linearGradient
       inkscape:collect="always"
       id="linearGradient4271">
      <stop
         style="stop-color:#ff6600;stop-opacity:1;"
         offset="0"
         id="stop4273" />
      <stop
         style="stop-color:#ff6600;stop-opacity:0;"
         offset="1"
         id="stop4275" />
    </linearGradient>
    <radialGradient
       inkscape:collect="always"
       xlink:href="#linearGradient4271"
       id="radialGradient4100"
       gradientUnits="userSpaceOnUse"
       gradientTransform="matrix(1,0,0,1.0689655,0,-3.0472483)"
       cx="57.033619"
       cy="44.185143"
       fx="57.033619"
       fy="44.185143"
       r="10.810294" />
    <radialGradient
       inkscape:collect="always"
       xlink:href="#linearGradient4271"
       id="radialGradient4102"
       gradientUnits="userSpaceOnUse"
       gradientTransform="matrix(1,0,0,1.0689655,0,-3.0472483)"
       cx="57.033619"
       cy="44.185143"
       fx="57.033619"
       fy="44.185143"
       r="10.810294" />
    <radialGradient
       inkscape:collect="always"
       xlink:href="#linearGradient4271"
       id="radialGradient4104"
       gradientUnits="userSpaceOnUse"
       gradientTransform="matrix(1,0,0,1.0689655,0,-3.0472483)"
       cx="57.033619"
       cy="44.185143"
       fx="57.033619"
       fy="44.185143"
       r="10.810294" />
    <linearGradient
       inkscape:collect="always"
       xlink:href="#linearGradient4090"
       id="linearGradient4106"
       gradientUnits="userSpaceOnUse"
       x1="64.995598"
       y1="-0.90906203"
       x2="64.995598"
       y2="55.535763" />
    <linearGradient
       inkscape:collect="always"
       id="linearGradient4090">
      <stop
         style="stop-color:#ffffff;stop-opacity:1;"
         offset="0"
         id="stop4092" />
      <stop
         style="stop-color:#ffffff;stop-opacity:0;"
         offset="1"
         id="stop4094" />
    </linearGradient>
    <filter
       color-interpolation-filters="sRGB"
       inkscape:collect="always"
       id="filter4421"
       x="-0.11751841"
       width="1.2350368"
       y="-0.12003421"
       height="1.2400684">
      <feGaussianBlur
         inkscape:collect="always"
         stdDeviation="0.56854841"
         id="feGaussianBlur4423" />
    </filter>
    <filter
       color-interpolation-filters="sRGB"
       inkscape:collect="always"
       id="filter4425"
       x="-0.13546811"
       width="1.2709363"
       y="-0.12851021"
       height="1.2570204">
      <feGaussianBlur
         inkscape:collect="always"
         stdDeviation="0.56854841"
         id="feGaussianBlur4427" />
    </filter>
    <filter
       color-interpolation-filters="sRGB"
       inkscape:collect="always"
       id="filter4429">
      <feGaussianBlur
         inkscape:collect="always"
         stdDeviation="0.56854841"
         id="feGaussianBlur4431" />
    </filter>
    <filter
       color-interpolation-filters="sRGB"
       inkscape:collect="always"
       id="filter4433"
       x="-0.068762444"
       width="1.1375248"
       y="-0.11615224"
       height="1.2323045">
      <feGaussianBlur
         inkscape:collect="always"
         stdDeviation="0.56854841"
         id="feGaussianBlur4435" />
    </filter>
    <filter
       color-interpolation-filters="sRGB"
       inkscape:collect="always"
       id="filter4437">
      <feGaussianBlur
         inkscape:collect="always"
         stdDeviation="0.56854841"
         id="feGaussianBlur4439" />
    </filter>
    <filter
       color-interpolation-filters="sRGB"
       inkscape:collect="always"
       id="filter4441">
      <feGaussianBlur
         inkscape:collect="always"
         stdDeviation="0.56854841"
         id="feGaussianBlur4443" />
    </filter>
    <filter
       color-interpolation-filters="sRGB"
       inkscape:collect="always"
       id="filter4445">
      <feGaussianBlur
         inkscape:collect="always"
         stdDeviation="0.56854841"
         id="feGaussianBlur4447" />
    </filter>
    <filter
       color-interpolation-filters="sRGB"
       inkscape:collect="always"
       id="filter4453">
      <feGaussianBlur
         inkscape:collect="always"
         stdDeviation="0.56854841"
         id="feGaussianBlur4455" />
    </filter>
    <filter
       color-interpolation-filters="sRGB"
       inkscape:collect="always"
       id="filter4457">
      <feGaussianBlur
         inkscape:collect="always"
         stdDeviation="0.56854841"
         id="feGaussianBlur4459" />
    </filter>
    <filter
       color-interpolation-filters="sRGB"
       inkscape:collect="always"
       id="filter4461"
       x="-0.10343797"
       width="1.2068759"
       y="-0.21036677"
       height="1.4207335">
      <feGaussianBlur
         inkscape:collect="always"
         stdDeviation="0.5685484"
         id="feGaussianBlur4463" />
    </filter>
    <filter
       color-interpolation-filters="sRGB"
       inkscape:collect="always"
       id="filter4465"
       x="-0.071041182"
       width="1.1420825"
       y="-0.11023861"
       height="1.2204772">
      <feGaussianBlur
         inkscape:collect="always"
         stdDeviation="0.5685484"
         id="feGaussianBlur4467" />
    </filter>
    <filter
       color-interpolation-filters="sRGB"
       inkscape:collect="always"
       id="filter4469">
      <feGaussianBlur
         inkscape:collect="always"
         stdDeviation="0.5685484"
         id="feGaussianBlur4471" />
    </filter>
    <filter
       color-interpolation-filters="sRGB"
       inkscape:collect="always"
       id="filter4473"
       x="-0.070044853"
       width="1.1400898"
       y="-0.12051222"
       height="1.2410244">
      <feGaussianBlur
         inkscape:collect="always"
         stdDeviation="0.56854841"
         id="feGaussianBlur4475" />
    </filter>
    <linearGradient
       inkscape:collect="always"
       xlink:href="#linearGradient3700"
       id="linearGradient3181"
       x1="-3.0607977"
       y1="27.258198"
       x2="-3.0607977"
       y2="7.2536583"
       gradientUnits="userSpaceOnUse"
       gradientTransform="translate(12.119372,-7.2581977)" />
    <linearGradient
       id="linearGradient3700">
      <stop
         style="stop-color:#2a76bd;stop-opacity:1;"
         offset="0"
         id="stop3702" />
      <stop
         style="stop-color:#68b0f4;stop-opacity:1;"
         offset="1"
         id="stop3704" />
    </linearGradient>
    <linearGradient
       inkscape:collect="always"
       xlink:href="#linearGradient3814-9-9"
       id="linearGradient3982-8"
       gradientUnits="userSpaceOnUse"
       gradientTransform="matrix(-0.96032399,0.27888679,0.27888679,0.96032399,111.43916,15.295347)"
       x1="39.819206"
       y1="13.055696"
       x2="44.586384"
       y2="29.471077" />
    <linearGradient
       inkscape:collect="always"
       id="linearGradient3814-9-9">
      <stop
         style="stop-color:#ffffff;stop-opacity:1;"
         offset="0"
         id="stop3816-9-3" />
      <stop
         style="stop-color:#ffffff;stop-opacity:0;"
         offset="1"
         id="stop3818-8-6" />
    </linearGradient>
    <linearGradient
       inkscape:collect="always"
       xlink:href="#linearGradient3814-9-9"
       id="linearGradient3980-3"
       gradientUnits="userSpaceOnUse"
       gradientTransform="translate(-10,-3)"
       x1="35.83757"
       y1="56.923836"
       x2="35.83757"
       y2="89.995026" />
    <linearGradient
       inkscape:collect="always"
       xlink:href="#linearGradient3814-9-9"
       id="linearGradient3929-6"
       gradientUnits="userSpaceOnUse"
       gradientTransform="translate(44.277498,16.233172)"
       x1="45.966625"
       y1="28.94561"
       x2="45.966625"
       y2="48.086025" />
    <linearGradient
       inkscape:collect="always"
       xlink:href="#linearGradient3814-9-9"
       id="linearGradient3926-0"
       gradientUnits="userSpaceOnUse"
       gradientTransform="matrix(-1,0,0,1,80.94186,38.325122)"
       x1="76.75824"
       y1="27.409969"
       x2="76.75824"
       y2="56.865051" />
    <linearGradient
       y2="76.550301"
       x2="75.917961"
       y1="63.13913"
       x1="75.917961"
       gradientTransform="matrix(-1,0,0,1,85.59375,12.000001)"
       gradientUnits="userSpaceOnUse"
       id="linearGradient4442"
       xlink:href="#linearGradient3862-9-4"
       inkscape:collect="always" />
    <linearGradient
       inkscape:collect="always"
       id="linearGradient3862-9-4">
      <stop
         style="stop-color:#ffffff;stop-opacity:1;"
         offset="0"
         id="stop3864-9-9" />
      <stop
         style="stop-color:#ffffff;stop-opacity:0;"
         offset="1"
         id="stop3866-2-6" />
    </linearGradient>
    <linearGradient
       y2="76.550301"
       x2="75.917961"
       y1="63.13913"
       x1="75.917961"
       gradientTransform="matrix(-1,0,0,1,85.59375,12.000001)"
       gradientUnits="userSpaceOnUse"
       id="linearGradient4594"
       xlink:href="#linearGradient3862-9-4"
       inkscape:collect="always" />
    <clipPath
       clipPathUnits="userSpaceOnUse"
       id="clipPath4130">
      <rect
         transform="matrix(0,-1,1,0,0,0)"
         style="fill:#ff00ff;fill-opacity:1;fill-rule:nonzero;stroke:none"
         id="rect4132"
         width="84"
         height="84"
         x="-90"
         y="6"
         rx="10.5"
         ry="10.5" />
    </clipPath>
    <linearGradient
       inkscape:collect="always"
       xlink:href="#linearGradient3700-7"
       id="linearGradient3617"
       gradientUnits="userSpaceOnUse"
       x1="48"
       y1="90"
       x2="48"
       y2="5.9877172" />
    <linearGradient
       id="linearGradient3700-7">
      <stop
         style="stop-color:#98b9d7;stop-opacity:1;"
         offset="0"
         id="stop3702-6" />
      <stop
         style="stop-color:#68b0f4;stop-opacity:1;"
         offset="1"
         id="stop3704-3" />
    </linearGradient>
    <linearGradient
       gradientTransform="translate(-58.071358,-37.41717)"
       y2="5.9877172"
       x2="48"
       y1="90"
       x1="48"
       gradientUnits="userSpaceOnUse"
       id="linearGradient3203"
       xlink:href="#linearGradient3700-7"
       inkscape:collect="always" />
  </defs>
  <sodipodi:namedview
     id="base"
     pagecolor="#ffffff"
     bordercolor="#e7e7e7"
     borderopacity="1"
     inkscape:pageopacity="0.0"
     inkscape:pageshadow="2"
     inkscape:zoom="26.212949"
     inkscape:cx="-9.5516177"
     inkscape:cy="9.5753876"
     inkscape:document-units="px"
     inkscape:current-layer="layer1"
     showgrid="true"
     inkscape:showpageshadow="false"
     showguides="false"
     inkscape:guide-bbox="true"
     inkscape:window-width="1920"
     inkscape:window-height="1030"
     inkscape:window-x="0"
     inkscape:window-y="25"
     inkscape:window-maximized="1"
     inkscape:snap-global="false">
    <sodipodi:guide
       orientation="1,0"
       position="0,112"
       id="guide2383" />
    <sodipodi:guide
       orientation="0,1"
       position="26.278146,128"
       id="guide2385" />
    <sodipodi:guide
       orientation="1,0"
       position="128,54.082119"
       id="guide2387" />
    <sodipodi:guide
       orientation="0,1"
       position="78.156291,0"
       id="guide2389" />
    <sodipodi:guide
       orientation="0,1"
       position="60.863576,64.084768"
       id="guide2391" />
    <inkscape:grid
       type="xygrid"
       id="grid3672"
       visible="true"
       enabled="true" />
  </sodipodi:namedview>
  <metadata
     id="metadata7">
    <rdf:RDF>
      <cc:Work
         rdf:about="">
        <dc:format>image/svg+xml</dc:format>
        <dc:type
           rdf:resource="http://purl.org/dc/dcmitype/StillImage" />
        <dc:title></dc:title>
      </cc:Work>
    </rdf:RDF>
  </metadata>
  <g
     inkscape:label="Button"
     inkscape:groupmode="layer"
     id="layer1">
    <rect
       ry="2"
       rx="2"
       y="0"
       x="-16"
       height="16"
       width="16"
       id="rect3196"
       style="fill:url(#linearGradient3204);fill-opacity:1.0;fill-rule:nonzero;stroke:none"
       transform="matrix(0,-1,1,0,0,0)" />
    <g
       transform="matrix(0.8,0,0,0.8,-1.6,0)"
       style="display:inline"
       id="g4108"
       clip-path="url(#clipPath4170)">
      <path
         inkscape:connector-curvature="0"
         sodipodi:nodetypes="ccccccccccccccccccccccccccccccccccccccccc"
         id="path3663"
         d="M 18.006168,-1.1717011 14.574184,6.2598136 21.12975,1.3577257 15.569275,7.3649745 23.318818,4.7285937 16.17415,8.7235453 24.359089,8.610939 l -8.029491,1.5916 7.819139,2.422191 -8.128333,-0.967548 6.687944,4.719887 -7.431514,-3.431985 4.902088,6.555568 -6.007249,-5.560476 1.976841,6.289134 L 12.813102,14.54505 12.690158,22.306 11.334108,14.700499 9.241687,21.483217 9.879465,14.391305 6.054667,19.24196 8.591563,13.647734 1.046686,19.680462 7.596472,12.542573 -0.1530721,15.178954 6.991597,11.184003 1.020826,11.013949 6.836148,9.7050086 -0.559,7.424148 7.145342,8.2503656 2.247577,4.8966679 7.888913,6.9624637 2.986825,0.40689608 8.994074,5.9673724 6.357693,-1.7821714 l 3.994952,7.144669 -0.112607,-8.1849404 1.591601,8.0294919 2.42219,-7.8191382 -0.967547,8.1283323 4.719886,-6.6879443 z"
         style="opacity:0.4;color:#000000;fill:url(#radialGradient4061);fill-opacity:1;fill-rule:nonzero;stroke:none;stroke-width:1.5;marker:none;visibility:visible;display:inline;overflow:visible;enable-background:accumulate" />
      <path
         transform="matrix(0.23938211,0,0,0.23938211,-3.2588175,2.0541643)"
         d="M 98.641016,52 83.98731,45.995265 94.641778,57.711505 81.253405,49.253405 89.711504,62.641778 77.995265,51.98731 84,66.641016 74.311885,54.11391 77.680806,69.587705 70.315185,55.56859 70.945927,71.39231 66.1266,56.30715 64,72 61.8734,56.30715 57.054073,71.39231 57.684815,55.56859 50.319194,69.587705 53.688115,54.11391 44,66.641016 50.004735,51.98731 38.288495,62.641778 46.746595,49.253405 33.358222,57.711504 44.01269,45.995265 29.358984,52 41.88609,42.311885 26.412295,45.680806 40.43141,38.315185 24.60769,38.945927 39.69285,34.1266 24,32 39.69285,29.8734 24.60769,25.054073 40.43141,25.684815 26.412295,18.319194 41.88609,21.688115 29.358984,12 44.01269,18.004735 33.358222,6.2884955 46.746595,14.746595 38.288496,1.3582222 50.004735,12.01269 44,-2.6410162 53.688115,9.8860903 50.319194,-5.5877049 57.684815,8.4314102 57.054073,-7.3923102 61.8734,7.6928497 64,-8 66.1266,7.6928498 70.945927,-7.3923101 70.315185,8.4314102 77.680806,-5.5877048 74.311885,9.8860904 84,-2.6410161 77.995265,12.01269 89.711505,1.3582224 81.253405,14.746595 94.641778,6.2884957 83.98731,18.004735 98.641016,12 86.11391,21.688115 101.5877,18.319194 87.56859,25.684815 103.39231,25.054073 88.30715,29.8734 104,32 88.30715,34.1266 103.39231,38.945927 87.56859,38.315185 101.5877,45.680806 86.11391,42.311885 z"
         inkscape:randomized="0"
         inkscape:rounded="1.7347235e-17"
         inkscape:flatsided="false"
         sodipodi:arg2="0.61086524"
         sodipodi:arg1="0.52359878"
         sodipodi:r2="24.4"
         sodipodi:r1="40"
         sodipodi:cy="32"
         sodipodi:cx="64"
         sodipodi:sides="36"
         id="path3760"
         style="opacity:0.8;color:#000000;fill:url(#radialGradient4522);fill-opacity:1;fill-rule:nonzero;stroke:none;stroke-width:1.5;marker:none;visibility:visible;display:inline;overflow:visible;enable-background:accumulate"
         sodipodi:type="star" />
      <path
         transform="matrix(0.2468628,0,0,0.2468628,-3.7375808,1.5754006)"
         d="M 96,32 C 96,49.673112 81.673112,64 64,64 46.326888,64 32,49.673112 32,32 32,14.326888 46.326888,0 64,0 81.673112,0 96,14.326888 96,32 z"
         sodipodi:ry="32"
         sodipodi:rx="32"
         sodipodi:cy="32"
         sodipodi:cx="64"
         id="path3651"
         style="color:#000000;fill:url(#radialGradient4520);fill-opacity:1;fill-rule:nonzero;stroke:none;stroke-width:1.5;marker:none;visibility:visible;display:inline;overflow:visible;enable-background:accumulate"
         sodipodi:type="arc" />
      <path
         sodipodi:type="arc"
         style="color:#000000;fill:url(#radialGradient4518);fill-opacity:1;fill-rule:nonzero;stroke:none;stroke-width:1.5;marker:none;visibility:visible;display:inline;overflow:visible;enable-background:accumulate"
         id="path3695"
         sodipodi:cx="64"
         sodipodi:cy="32"
         sodipodi:rx="32"
         sodipodi:ry="32"
         d="M 96,32 C 96,49.673112 81.673112,64 64,64 46.326888,64 32,49.673112 32,32 32,14.326888 46.326888,0 64,0 81.673112,0 96,14.326888 96,32 z"
         transform="matrix(0.1827054,0,0,0.1827054,0.3685564,3.6279682)" />
      <path
         transform="matrix(0.92514574,0,0,0.92514574,0.90292955,0.70877631)"
         d="m 12.0625,2.75 c -3.6991622,0 -6.71875,3.0195883 -6.71875,6.71875 0,3.699161 3.0195878,6.71875 6.71875,6.71875 3.699161,0 6.71875,-3.019589 6.71875,-6.71875 C 18.78125,5.7695883 15.761661,2.75 12.0625,2.75 z m 0,0.75 c 3.308297,0 5.96875,2.6604527 5.96875,5.96875 0,3.308297 -2.660453,5.96875 -5.96875,5.96875 -3.3082979,0 -5.96875,-2.660453 -5.96875,-5.96875 C 6.09375,6.1604527 8.7542021,3.5 12.0625,3.5 z"
         id="path4075"
         style="color:#000000;fill:#ffc000;fill-opacity:1;fill-rule:nonzero;stroke:none;stroke-width:1.5;marker:none;visibility:visible;display:inline;overflow:visible;enable-background:accumulate"
         inkscape:original="M 12.0625 3 C 8.492908 3 5.59375 5.8991585 5.59375 9.46875 C 5.59375 13.038341 8.492908 15.9375 12.0625 15.9375 C 15.632091 15.9375 18.53125 13.038341 18.53125 9.46875 C 18.53125 5.8991585 15.632091 3 12.0625 3 z M 12.0625 3.25 C 15.499884 3.25 18.28125 6.0313659 18.28125 9.46875 C 18.28125 12.906134 15.499884 15.6875 12.0625 15.6875 C 8.6251153 15.6875 5.84375 12.906134 5.84375 9.46875 C 5.84375 6.0313659 8.6251153 3.25 12.0625 3.25 z "
         inkscape:radius="0.23930018"
         sodipodi:type="inkscape:offset" />
      <path
         inkscape:connector-curvature="0"
         transform="matrix(-0.23260936,0.05653921,-0.05653921,-0.23260936,30.397453,17.871368)"
         id="path4351"
         d="m 63.495725,27.343283 c 1.691567,-0.386605 3.760002,-1.103699 5.252728,0.176942 1.622723,1.210353 0.947173,3.438271 1.465562,5.120212 1.075407,1.578792 2.868092,2.630145 3.39028,4.572528 0.549496,1.212388 1.005368,3.054703 -0.32076,3.936525 -1.679305,0.734233 -4.202379,0.786408 -5.202101,-1.039088 -1.295524,-1.32453 -1.38772,-3.392637 -2.484647,-4.736939 -1.879758,-0.59972 -3.943699,-0.114816 -5.855587,-0.794802 -1.655022,-0.183074 -3.172518,-1.722392 -2.722232,-3.446173 0.575059,-2.293314 3.030965,-3.732148 5.311456,-3.648081 0.390498,-0.02534 0.782142,-0.05803 1.165301,-0.141124 z"
         style="opacity:0.07000002;fill:#ff6600;stroke:none;filter:url(#filter4449)" />
      <g
         transform="matrix(0.95501875,0,0,0.95501875,-18.554486,0.41240441)"
         id="g4077">
        <g
           transform="matrix(0.23938211,0,0,0.23938211,20.571296,-0.33965772)"
           id="g4295"
           clip-path="url(#clipPath4303)">
          <path
             transform="matrix(1.3218391,0,0,1.3218391,-14.876472,-17.939623)"
             d="m 67.843913,44.185143 c 0,6.382109 -4.839933,11.55583 -10.810294,11.55583 -5.970361,0 -10.810294,-5.173721 -10.810294,-11.55583 0,-6.38211 4.839933,-11.555831 10.810294,-11.555831 5.970361,0 10.810294,5.173721 10.810294,11.555831 z"
             sodipodi:ry="11.555831"
             sodipodi:rx="10.810294"
             sodipodi:cy="44.185143"
             sodipodi:cx="57.033619"
             id="path4269"
             style="opacity:0.3;color:#000000;fill:url(#radialGradient4098);fill-opacity:1;fill-rule:nonzero;stroke:none;stroke-width:1.5;marker:none;visibility:visible;display:inline;overflow:visible;enable-background:accumulate"
             sodipodi:type="arc" />
          <path
             sodipodi:type="arc"
             style="opacity:0.3;color:#000000;fill:url(#radialGradient4100);fill-opacity:1;fill-rule:nonzero;stroke:none;stroke-width:1.5;marker:none;visibility:visible;display:inline;overflow:visible;enable-background:accumulate"
             id="path4279"
             sodipodi:cx="57.033619"
             sodipodi:cy="44.185143"
             sodipodi:rx="10.810294"
             sodipodi:ry="11.555831"
             d="m 67.843913,44.185143 c 0,6.382109 -4.839933,11.55583 -10.810294,11.55583 -5.970361,0 -10.810294,-5.173721 -10.810294,-11.55583 0,-6.38211 4.839933,-11.555831 10.810294,-11.555831 5.970361,0 10.810294,5.173721 10.810294,11.555831 z"
             transform="matrix(1.0422692,0,0,1.0422692,-26.556559,-5.5867866)" />
          <path
             transform="matrix(1.4508714,0,0,1.4508714,-43.952434,-36.066556)"
             d="m 67.843913,44.185143 c 0,6.382109 -4.839933,11.55583 -10.810294,11.55583 -5.970361,0 -10.810294,-5.173721 -10.810294,-11.55583 0,-6.38211 4.839933,-11.555831 10.810294,-11.555831 5.970361,0 10.810294,5.173721 10.810294,11.555831 z"
             sodipodi:ry="11.555831"
             sodipodi:rx="10.810294"
             sodipodi:cy="44.185143"
             sodipodi:cx="57.033619"
             id="path4283"
             style="opacity:0.3;color:#000000;fill:url(#radialGradient4102);fill-opacity:1;fill-rule:nonzero;stroke:none;stroke-width:1.5;marker:none;visibility:visible;display:inline;overflow:visible;enable-background:accumulate"
             sodipodi:type="arc" />
          <path
             sodipodi:type="arc"
             style="opacity:0.3;color:#000000;fill:url(#radialGradient4104);fill-opacity:1;fill-rule:nonzero;stroke:none;stroke-width:1.5;marker:none;visibility:visible;display:inline;overflow:visible;enable-background:accumulate"
             id="path4287"
             sodipodi:cx="57.033619"
             sodipodi:cy="44.185143"
             sodipodi:rx="10.810294"
             sodipodi:ry="11.555831"
             d="m 67.843913,44.185143 c 0,6.382109 -4.839933,11.55583 -10.810294,11.55583 -5.970361,0 -10.810294,-5.173721 -10.810294,-11.55583 0,-6.38211 4.839933,-11.555831 10.810294,-11.555831 5.970361,0 10.810294,5.173721 10.810294,11.555831 z"
             transform="matrix(1.9221358,0,0,1.6981832,-48.091452,-49.354932)" />
        </g>
        <path
           sodipodi:type="arc"
           style="opacity:0.5;color:#000000;fill:url(#linearGradient4106);fill-opacity:1;fill-rule:nonzero;stroke:none;stroke-width:1.5;marker:none;visibility:visible;display:inline;overflow:visible;enable-background:accumulate"
           id="path4086"
           sodipodi:cx="64"
           sodipodi:cy="32"
           sodipodi:rx="32"
           sodipodi:ry="32"
           d="M 96,32 C 96,49.673112 81.673112,64 64,64 46.326888,64 32,49.673112 32,32 32,14.326888 46.326888,0 64,0 81.673112,0 96,14.326888 96,32 z"
           transform="matrix(0.14063017,0,0,0.08857691,23.061307,3.6660763)" />
        <path
           style="opacity:0.07000002;fill:#ff6600;stroke:none;filter:url(#filter4421)"
           d="m 24.8096,39.35105 c -0.486437,1.523676 0.0317,3.832207 1.873425,3.538622 1.077406,2.367083 -3.418682,3.028306 -2.45647,5.528441 0.390688,1.418612 2.462669,1.209646 1.542332,-0.444994 -0.274639,-2.100499 2.995175,-2.623043 2.999677,-0.281949 0.913693,1.612732 3.710035,2.717817 4.91407,0.846968 0.85384,-1.440377 -3.404403,-3.483763 -0.650318,-4.177487 2.547972,0.770365 3.537643,-2.50797 1.788276,-4.017132 -1.251246,-1.460564 -2.791804,0.09474 -3.100418,1.385872 -2.124936,1.495584 -4.440665,-0.981566 -4.19277,-3.068597 -0.75242,-0.953442 -2.491237,-0.48632 -2.717804,0.690256 z"
           id="path4337"
           inkscape:connector-curvature="0"
           transform="matrix(0.23938211,0,0,0.23938211,20.571296,-0.81842194)" />
        <path
           style="opacity:0.07000002;fill:#ff6600;stroke:none;filter:url(#filter4425)"
           d="m 41.211425,51.528162 c -1.140292,-1.575846 -2.314247,-4.741446 0.0246,-5.79161 2.394181,-0.669098 3.112004,2.302608 4.929997,2.944427 2.067223,0.09268 2.898693,1.705675 2.570029,3.544564 0.312424,1.426612 2.528382,3.15799 0.0925,3.94749 -1.677517,0.437833 -3.834764,-0.888012 -3.602076,-2.763831 0.04456,-2.121611 -2.241063,-2.205062 -3.585446,-1.506463 l -0.247153,-0.143804 -0.182455,-0.230773 0,0 z"
           id="path4339"
           inkscape:connector-curvature="0"
           transform="matrix(0.23938211,0,0,0.23938211,20.571296,-0.81842194)" />
        <path
           style="opacity:0.07000002;fill:#ff6600;stroke:none;filter:url(#filter4429)"
           d="m 31.270925,47.551962 c 2.067551,-0.470399 1.592808,-3.472738 3.44449,-4.141974 2.745902,0.544454 1.790062,4.163181 1.64083,6.165841 1.332023,1.968434 5.786664,0.474897 5.545368,3.700317 -0.428768,2.635469 1.508023,4.738719 1.82601,7.109089 -0.60003,2.643451 -4.945781,2.957873 -5.519638,0.110032 -1.142766,-2.169543 3.333377,-3.8415 0.382194,-5.469574 -1.889743,-0.83289 -4.549187,-2.114942 -6.029042,0.08389 -1.473276,1.946846 -4.445144,-0.129293 -4.128269,-2.17889 0.296978,-2.1872 5.120429,-0.812256 3.945563,-3.552061 -0.348713,-0.568152 -1.797441,-0.985101 -1.107506,-1.826673 z"
           id="path4341"
           inkscape:connector-curvature="0"
           transform="matrix(0.23938211,0,0,0.23938211,20.571296,-0.81842194)" />
        <path
           style="opacity:0.07000002;fill:#ff6600;stroke:none;filter:url(#filter4433)"
           d="m 34.004562,59.480562 c -1.916224,-0.985718 -2.800531,-4.922209 0.05414,-5.153051 2.184612,-0.07762 2.94969,2.589224 2.632208,4.359453 -0.258367,2.680317 3.684131,2.982919 5.16886,1.363 2.248605,-0.159205 4.171287,3.201028 6.380086,1.166407 1.006212,-0.753628 2.779377,-3.588743 3.833278,-1.923997 -0.65567,1.679783 -3.771871,2.221793 -2.832023,4.560821 -0.293617,2.284271 -3.30646,2.691912 -5.009291,1.742205 -1.531658,-1.004161 -3.323503,-4.115971 -5.241896,-1.905629 -1.795596,1.424613 -4.894233,-0.232303 -4.59639,-2.535132 -0.108318,-0.562421 -0.202472,-1.130729 -0.388971,-1.674077 z"
           id="path4343"
           inkscape:connector-curvature="0"
           transform="matrix(0.23938211,0,0,0.23938211,20.571296,-0.81842194)" />
        <path
           style="opacity:0.07000002;fill:#ff6600;stroke:none;filter:url(#filter4437)"
           d="m 57.861762,41.587662 c 1.691568,-0.386605 3.760001,-1.103698 5.252729,0.176942 1.622722,1.210354 0.947171,3.438271 1.465562,5.120212 1.075407,1.578792 2.868092,2.630145 3.39028,4.572528 0.549496,1.212388 1.005368,3.054703 -0.32076,3.936525 -1.679306,0.734234 -4.202379,0.786409 -5.202101,-1.039087 -1.295525,-1.324531 -1.38772,-3.392638 -2.484647,-4.736939 -1.879758,-0.59972 -3.943699,-0.114816 -5.855587,-0.794802 -1.655022,-0.183075 -3.172518,-1.722392 -2.722232,-3.446173 0.575059,-2.293314 3.030965,-3.732148 5.311456,-3.648082 0.390498,-0.02534 0.782142,-0.05803 1.165301,-0.141124 z"
           id="path4345"
           inkscape:connector-curvature="0"
           transform="matrix(0.23938211,0,0,0.23938211,20.571296,-0.81842194)" />
        <path
           id="path4347"
           d="m 34.875138,37.544195 c 1.691567,-0.386605 3.760001,-1.103699 5.252728,0.176942 1.622723,1.210353 0.947172,3.438271 1.465562,5.120212 1.075407,1.578792 2.868092,2.630145 3.39028,4.572528 0.549496,1.212388 1.005368,3.054703 -0.32076,3.936525 -1.679306,0.734233 -4.202379,0.786408 -5.202101,-1.039088 -1.295525,-1.32453 -1.38772,-3.392637 -2.484647,-4.736939 -1.879758,-0.59972 -3.943699,-0.114816 -5.855587,-0.794802 -1.655022,-0.183074 -3.172518,-1.722392 -2.722232,-3.446173 0.575059,-2.293314 3.030965,-3.732148 5.311456,-3.648081 0.390498,-0.02534 0.782142,-0.05803 1.165301,-0.141124 z"
           style="opacity:0.07000002;fill:#ff6600;stroke:none;filter:url(#filter4441)"
           inkscape:connector-curvature="0"
           transform="matrix(0.23938211,0,0,0.23938211,20.571296,-0.81842194)" />
        <path
           id="path4349"
           d="m 55.418287,42.072787 c -1.916224,-0.985718 -2.800531,-4.922209 0.05414,-5.153051 2.184612,-0.07762 2.94969,2.589224 2.632208,4.359453 -0.258367,2.680317 3.684131,2.982919 5.16886,1.363 2.248605,-0.159205 4.171287,3.201028 6.380086,1.166407 1.006212,-0.753628 2.779377,-3.588743 3.833278,-1.923997 -0.65567,1.679783 -3.771871,2.221793 -2.832023,4.560821 -0.293617,2.284271 -3.30646,2.691912 -5.009291,1.742205 -1.531658,-1.004161 -3.323503,-4.115971 -5.241896,-1.905629 -1.795596,1.424613 -4.894233,-0.232303 -4.59639,-2.535132 -0.108318,-0.562421 -0.202472,-1.130729 -0.388971,-1.674077 z"
           style="opacity:0.07000002;fill:#ff6600;stroke:none;filter:url(#filter4445)"
           transform="matrix(-0.10476404,0.21524007,-0.21524007,-0.10476404,50.517175,2.9064073)"
           inkscape:connector-curvature="0" />
        <path
           id="path4353"
           d="m 46.6787,46.806424 c 2.067551,-0.470399 1.592808,-3.472738 3.44449,-4.141974 2.745902,0.544454 1.790062,4.163181 1.64083,6.165841 1.332023,1.968434 5.786664,0.474897 5.545368,3.700317 -0.428768,2.635469 1.508023,4.738719 1.82601,7.109089 -0.60003,2.643451 -4.945781,2.957873 -5.519638,0.110032 -1.142766,-2.169543 3.333377,-3.8415 0.382194,-5.469574 -1.889743,-0.83289 -4.549187,-2.114942 -6.029042,0.08389 -1.473276,1.946846 -4.445144,-0.129293 -4.128269,-2.17889 0.296978,-2.1872 5.120429,-0.812256 3.945563,-3.552061 -0.348713,-0.568152 -1.797441,-0.985101 -1.107506,-1.826673 z"
           style="opacity:0.07000002;fill:#ff6600;stroke:none;filter:url(#filter4453)"
           inkscape:connector-curvature="0"
           transform="matrix(0.23938211,0,0,0.23938211,20.571296,-0.81842194)" />
        <path
           style="opacity:0.07000002;fill:#ff6600;stroke:none;filter:url(#filter4457)"
           d="m 35.910838,43.496595 c 1.691567,-0.386605 3.760001,-1.103699 5.252728,0.176942 1.622723,1.210353 0.947172,3.438271 1.465562,5.120212 1.075407,1.578792 2.868092,2.630145 3.39028,4.572528 0.549496,1.212388 1.005368,3.054703 -0.32076,3.936525 -1.679306,0.734233 -4.202379,0.786408 -5.202101,-1.039088 -1.295525,-1.32453 -1.38772,-3.392637 -2.484647,-4.736939 -1.879758,-0.59972 -3.943699,-0.114816 -5.855587,-0.794802 -1.655022,-0.183074 -3.172518,-1.722392 -2.722232,-3.446173 0.575059,-2.293314 3.030965,-3.732148 5.311456,-3.648081 0.390498,-0.02534 0.782142,-0.05803 1.165301,-0.141124 z"
           id="path4355"
           transform="matrix(-0.23318797,-0.0541033,0.0541033,-0.23318797,34.108934,25.513715)"
           inkscape:connector-curvature="0" />
        <path
           id="path4357"
           d="m 57.6549,36.605512 c -1.140292,-1.575846 -2.314247,-4.741446 0.0246,-5.79161 2.394181,-0.669098 3.112004,2.302608 4.929997,2.944427 2.067223,0.09268 2.898693,1.705675 2.570029,3.544564 0.312424,1.426612 2.528382,3.15799 0.0925,3.94749 -1.677517,0.437833 -3.834764,-0.888012 -3.602076,-2.763831 0.04456,-2.121611 -2.241063,-2.205062 -3.585446,-1.506463 l -0.247153,-0.143804 -0.182455,-0.230773 0,0 z"
           style="opacity:0.07000002;fill:#ff6600;stroke:none;filter:url(#filter4461)"
           transform="matrix(-0.16149015,0.1767052,-0.1767052,-0.16149015,46.094595,7.45467)"
           inkscape:connector-curvature="0" />
        <path
           id="path4359"
           d="m 47.7144,32.629312 c 2.067551,-0.470399 1.592808,-3.472738 3.44449,-4.141974 2.745902,0.544454 1.790062,4.163181 1.64083,6.165841 1.332023,1.968434 5.786664,0.474897 5.545368,3.700317 -0.428768,2.635469 1.508023,4.738719 1.82601,7.109089 -0.60003,2.643451 -4.945781,2.957873 -5.519638,0.110032 -1.142766,-2.169543 3.333377,-3.8415 0.382194,-5.469574 -1.889743,-0.83289 -4.549187,-2.114942 -6.029042,0.08389 -1.473276,1.946846 -4.445144,-0.129293 -4.128269,-2.17889 0.296978,-2.1872 5.120429,-0.812256 3.945563,-3.552061 C 48.473193,33.88783 47.024465,33.470881 47.7144,32.629309 z"
           style="opacity:0.07000002;fill:#ff6600;stroke:none;filter:url(#filter4465)"
           transform="matrix(-0.16149015,0.1767052,-0.1767052,-0.16149015,46.094595,7.45467)"
           inkscape:connector-curvature="0" />
        <path
           id="path4361"
           d="m 50.448037,44.557912 c -1.916224,-0.985718 -2.800531,-4.922209 0.05414,-5.153051 2.184612,-0.07762 2.94969,2.589224 2.632208,4.359453 -0.258367,2.680317 3.684131,2.982919 5.16886,1.363 2.248605,-0.159205 4.171287,3.201028 6.380086,1.166407 1.006212,-0.753628 2.779377,-3.588743 3.833278,-1.923997 -0.65567,1.679783 -3.771871,2.221793 -2.832023,4.560821 -0.293617,2.284271 -3.30646,2.691912 -5.009291,1.742205 -1.531658,-1.004161 -3.323503,-4.115971 -5.241896,-1.905629 -1.795596,1.424613 -4.894233,-0.232303 -4.59639,-2.535132 -0.108318,-0.562421 -0.202472,-1.130729 -0.388971,-1.674077 z"
           style="opacity:0.07000002;fill:#ff6600;stroke:none;filter:url(#filter4469)"
           transform="matrix(-0.16149015,0.1767052,-0.1767052,-0.16149015,46.094595,7.45467)"
           inkscape:connector-curvature="0" />
        <path
           transform="matrix(0.19724905,-0.1356341,0.1356341,0.19724905,17.505738,4.9992978)"
           id="path4363"
           d="m 35.910838,43.496595 c 1.691567,-0.386605 3.760001,-1.103699 5.252728,0.176942 1.622723,1.210353 0.947172,3.438271 1.465562,5.120212 1.075407,1.578792 2.868092,2.630145 3.39028,4.572528 0.549496,1.212388 1.005368,3.054703 -0.32076,3.936525 -1.679306,0.734233 -4.202379,0.786408 -5.202101,-1.039088 -1.295525,-1.32453 -1.38772,-3.392637 -2.484647,-4.736939 -1.879758,-0.59972 -3.943699,-0.114816 -5.855587,-0.794802 -1.655022,-0.183074 -3.172518,-1.722392 -2.722232,-3.446173 0.575059,-2.293314 3.030965,-3.732148 5.311456,-3.648081 0.390498,-0.02534 0.782142,-0.05803 1.165301,-0.141124 z"
           style="opacity:0.07000002;fill:#ff6600;stroke:none;filter:url(#filter4473)"
           inkscape:connector-curvature="0" />
      </g>
    </g>
    <path
       style="fill:#ffffff;fill-opacity:1;fill-rule:nonzero;stroke:none;opacity:0.3"
       d="M 2 0.96875 C 1.4168007 0.96875 0.96875 1.4168007 0.96875 2 L 0.96875 3 C 0.96875 2.4168007 1.4168007 1.96875 2 1.96875 L 14 1.96875 C 14.583199 1.96875 15.03125 2.4168007 15.03125 3 L 15.03125 2 C 15.03125 1.4168007 14.583199 0.96875 14 0.96875 L 2 0.96875 z "
       id="path2843" />
    <g
       style="display:inline"
       transform="matrix(0.19047619,0,0,0.19047619,-1.1428571,-1.1428568)"
       id="g3963"
       clip-path="url(#clipPath4130)">
      <path
         inkscape:connector-curvature="0"
         style="color:#000000;fill:url(#linearGradient3982-8);fill-opacity:1;fill-rule:nonzero;stroke:none;stroke-width:1.5;marker:none;visibility:visible;display:inline;overflow:visible;enable-background:accumulate"
         d="m 63.175794,37.576905 c 1.369476,-0.397707 2.807779,0.367992 3.205487,1.737469 0.262772,0.904832 0.01648,1.836087 -0.581625,2.479326 0.586553,0.478664 1.089738,1.056139 1.505518,1.710498 0.675277,-0.471862 1.39641,-0.882052 2.192631,-1.189959 -0.06956,-0.139988 -0.145615,-0.277311 -0.190748,-0.432721 -0.408457,-1.406491 0.403578,-2.883197 1.810068,-3.291654 1.030523,-0.299273 2.089976,0.06539 2.74654,0.829435 0.716458,-1.339395 1.929589,-2.411629 3.485864,-2.899711 -0.365462,-1.258437 0.359975,-2.577663 1.618413,-2.943125 1.184938,-0.344117 2.406347,0.292537 2.852109,1.417058 0.324269,-0.235887 0.702109,-0.431687 1.109389,-0.549965 1.887657,-0.548192 3.866495,0.539963 4.414688,2.42762 0.01796,0.06184 0.0078,0.126802 0.02228,0.188776 0.561904,-0.244831 1.133537,-0.459353 1.735737,-0.634238 1.602475,-0.465372 3.198285,-0.632208 4.779415,-0.574459 0.79208,-1.35483 2.08729,-2.428468 3.71337,-2.900697 3.36817,-0.978147 6.88309,0.954696 7.86124,4.322868 0.14672,0.505224 0.22646,1.01969 0.24699,1.522786 2.14913,-0.330399 4.24991,0.963796 4.87265,3.108152 0.12227,0.421021 0.17183,0.835673 0.16855,1.252696 0.2622,0.121854 0.51679,0.249167 0.76579,0.395888 0.63234,-0.964536 1.59387,-1.731977 2.81117,-2.085493 2.62791,-0.76317 5.33539,0.66766 6.06631,3.184536 0.73092,2.516876 -0.78897,5.175372 -3.41689,5.938542 -0.39479,0.114651 -0.79196,0.161401 -1.18396,0.181128 0.12908,3.889379 -2.36252,7.519728 -6.27254,8.655233 -1.22894,0.356896 -2.47953,0.422032 -3.66904,0.251997 -1.92,2.790095 -4.74823,4.958448 -8.25444,5.976689 -4.73744,1.37579 -9.602786,0.33061 -13.287237,-2.389162 -0.585007,0.617655 -1.333104,1.103049 -2.209076,1.35744 -2.331035,0.676952 -4.754739,-0.41753 -5.805842,-2.511733 -0.02951,0.0088 -0.06039,0.01754 -0.09003,0.02614 -3.469958,1.007707 -7.019558,0.122007 -9.602656,-2.027384 -0.854661,1.601925 -2.336349,2.85875 -4.217701,3.405112 -3.396856,0.986478 -6.953971,-0.707802 -8.344283,-3.857177 -0.398342,0.22718 -0.808409,0.430016 -1.268154,0.56353 -3.146095,0.913654 -6.444159,-0.899938 -7.357814,-4.046033 -0.913654,-3.146096 0.899938,-6.44416 4.046034,-7.357814 0.328869,-0.09551 0.658222,-0.151626 0.986469,-0.188857 0.336169,-0.608133 0.871585,-1.066644 1.552717,-1.26445 0.704334,-0.204545 1.442393,-0.08217 2.065929,0.278645 -0.128873,-3.224369 1.928678,-6.254798 5.167095,-7.195264 0.70473,-0.20466 1.409116,-0.264071 2.106545,-0.253808 -0.06387,-1.172217 0.667285,-2.276416 1.843037,-2.617865 z"
         id="path3870" />
      <path
         inkscape:connector-curvature="0"
         id="path3739"
         d="m 20.5,50.3125 c -0.950448,0 -1.828481,0.305591 -2.53125,0.8125 -0.580044,-0.08942 -1.176174,-0.15625 -1.78125,-0.15625 -2.643739,0 -5.050411,0.91554 -7,2.40625 C 8.962304,53.33941 8.735827,53.3125 8.5,53.3125 c -2.312525,0 -4.1875,1.771853 -4.1875,3.96875 0,0.823837 0.267268,1.583883 0.71875,2.21875 -0.267997,0.977691 -0.40625,1.999741 -0.40625,3.0625 0,1.073475 0.133008,2.107256 0.40625,3.09375 C 4.411327,65.37723 3.723921,65.21875 3,65.21875 c -2.736488,0 -4.9375,2.201013 -4.9375,4.9375 0,2.736488 2.201012,4.96875 4.9375,4.96875 0.36612,0 0.719001,-0.04965 1.0625,-0.125 -6.43e-4,0.04129 0,0.08355 0,0.125 0,4.316713 3.495787,7.8125 7.8125,7.8125 2.785961,0 5.209665,-1.462067 6.59375,-3.65625 2.041092,1.840971 4.753634,2.96875 7.71875,2.96875 4.014997,0 7.532983,-2.07204 9.59375,-5.1875 1.294164,0.971148 2.882433,1.5625 4.625,1.5625 2.724975,0 5.119177,-1.435314 6.5,-3.5625 0.693167,0.556164 1.542148,0.90625 2.5,0.90625 1.309291,0 2.478909,-0.629504 3.21875,-1.59375 0.322673,0.203233 0.71549,0.34375 1.125,0.34375 1.156262,0 2.09375,-0.937488 2.09375,-2.09375 0,-1.156262 -0.937488,-2.09375 -2.09375,-2.09375 -0.180666,0 -0.364014,0.01947 -0.53125,0.0625 C 52.711419,69.137709 51.398958,68.067364 49.8125,67.90625 49.72627,66.558185 48.619837,65.5 47.25,65.5 c -0.381196,0 -0.736814,0.07047 -1.0625,0.21875 -1.418341,-1.583489 -3.488111,-2.59375 -5.78125,-2.59375 -1.024452,0 -1.979942,0.201263 -2.875,0.5625 -0.224258,-2.373424 -2.22414,-4.25 -4.65625,-4.25 -0.280177,0 -0.545883,0.04651 -0.8125,0.09375 0.03207,-0.217664 0.0625,-0.429674 0.0625,-0.65625 0,-2.505235 -2.057265,-4.53125 -4.5625,-4.53125 -0.939463,0 -1.807279,0.260895 -2.53125,0.75 -0.124657,-0.147579 -0.243234,-0.296374 -0.375,-0.4375 0.01212,-0.123274 0.03125,-0.248717 0.03125,-0.375 0,-2.196897 -1.874975,-3.96875 -4.1875,-3.96875 z"
         style="color:#000000;fill:url(#linearGradient3980-3);fill-opacity:1;fill-rule:nonzero;stroke:none;stroke-width:1.5;marker:none;visibility:visible;display:inline;overflow:visible;enable-background:accumulate" />
      <path
         inkscape:connector-curvature="0"
         id="path3772"
         d="m 94.09,34.889421 c -1.79508,0 -3.28711,1.334802 -3.53125,3.0625 -0.99024,0.397809 -1.89622,0.908493 -2.71875,1.5625 -0.48316,-0.508483 -1.14945,-0.84375 -1.90625,-0.84375 -1.4646,0 -2.65625,1.191651 -2.65625,2.65625 0,0.01073 -1.3e-4,0.02055 0,0.03125 -1.03573,0.06809 -2.02712,0.266793 -2.96875,0.59375 -0.550274,-0.637053 -1.373388,-1.03125 -2.281252,-1.03125 -1.636798,0 -2.967312,1.308529 -3,2.9375 -0.04347,-0.0022 -0.08097,-0.03125 -0.125,-0.03125 -1.203669,0 -2.223302,0.869855 -2.46875,2 -2.45358,0.166046 -4.562623,1.519821 -5.78125,3.5 -0.4926,-0.208352 -1.025254,-0.3125 -1.59375,-0.3125 -2.273983,0 -4.125,1.851017 -4.125,4.125 0,2.273983 1.851017,4.09375 4.125,4.09375 0.534254,0 1.0316,-0.09607 1.5,-0.28125 1.286055,2.183281 3.657764,3.625 6.375,3.625 0.877767,0 1.718823,-0.156911 2.5,-0.4375 2.085815,2.410336 5.156042,3.9375 8.593752,3.9375 3.57421,0 6.75837,-1.640646 8.84375,-4.21875 1.21505,1.383268 2.98292,2.28125 4.96875,2.28125 1.54469,0 2.96664,-0.551752 4.09375,-1.4375 1.05752,0.549176 2.2573,0.875 3.53125,0.875 1.54894,0 2.98131,-0.460945 4.1875,-1.25 0.49805,0.257126 1.05711,0.40625 1.65625,0.40625 1.74332,0 3.21295,-1.235953 3.5625,-2.875 0.23611,1.540136 1.55007,2.71875 3.15625,2.71875 1.77293,0 3.21875,-1.414564 3.21875,-3.1875 0,-1.615065 -1.19735,-2.962289 -2.75,-3.1875 0.0458,-0.258658 0.0937,-0.540686 0.0937,-0.8125 0,-2.505235 -2.02602,-4.53125 -4.53125,-4.53125 -0.84008,0 -1.63779,0.258215 -2.3125,0.65625 -0.22398,-0.319863 -0.44981,-0.655928 -0.71875,-0.9375 0.10594,-0.250475 0.15625,-0.523434 0.15625,-0.8125 0,-1.156262 -0.93749,-2.09375 -2.09375,-2.09375 -0.0932,0 -0.1913,0.01945 -0.28125,0.03125 -0.0172,-1.796731 -1.48046,-3.25 -3.28125,-3.25 -0.47744,0 -0.93457,0.09784 -1.34375,0.28125 -1.42514,-2.522984 -3.82747,-4.414808 -6.6875,-5.1875 -0.40134,-1.525904 -1.75435,-2.65625 -3.40625,-2.65625 z"
         style="color:#000000;fill:url(#linearGradient3929-6);fill-opacity:1;fill-rule:nonzero;stroke:none;stroke-width:1.5;marker:none;visibility:visible;display:inline;overflow:visible;enable-background:accumulate" />
      <path
         inkscape:connector-curvature="0"
         id="path3671"
         d="m 10.66061,61.762622 c 3.026368,0.307343 5.375,2.892545 5.375,5.999999 0,0.502248 -0.07128,0.971235 -0.1875,1.4375 1.355555,-0.829233 2.950813,-1.3125 4.65625,-1.3125 0.697126,0 1.380076,0.09893 2.03125,0.25 0.475056,-1.362518 1.756773,-2.34375 3.28125,-2.34375 1.927104,0 3.46875,1.572896 3.46875,3.5 0,0.923053 -0.352247,1.75095 -0.9375,2.375 0.196494,-0.02238 0.391268,0 0.59375,0 2.890656,0 5.25,2.328094 5.25,5.21875 0,2.890656 -2.359344,5.25 -5.25,5.25 -0.403981,0 -0.778551,-0.06962 -1.15625,-0.15625 -1.011736,1.427012 -2.435578,2.519337 -4.09375,3.15625 0.0042,0.11543 0.03125,0.227305 0.03125,0.34375 0,5.241723 -4.258277,9.46875 -9.5,9.46875 -1.530417,0 -2.969848,-0.356599 -4.25,-1 -2.624598,1.783448 -5.806379,2.84375 -9.21875,2.84375 -6.838671,0 -12.693371,-4.205133 -15.156251,-10.15625 -4.78516,-0.596606 -8.5,-4.646976 -8.5,-9.59375 0,-5.357349 4.33015,-9.71875 9.6875,-9.71875 1.15953,0 2.28176,0.220606 3.3125,0.59375 0.85422,-0.731187 1.78936,-1.393203 2.78125,-1.9375 -0.0827,-0.233328 -0.15625,-0.488331 -0.15625,-0.75 0,-1.233347 1.01665,-2.21875 2.25,-2.21875 0.94828,0 1.76987,0.572443 2.09375,1.40625 1.05684,-0.242785 2.15727,-0.406213 3.281251,-0.4375 0.31043,-1.285581 1.462817,-2.21875 2.84375,-2.21875 1.174447,0 2.188572,0.690101 2.65625,1.6875 1.078785,-1.054211 2.554466,-1.6875 4.1875,-1.6875 0.207164,0 0.423242,-0.02049 0.625,0 z"
         style="opacity:0.8;color:#000000;fill:url(#linearGradient3926-0);fill-opacity:1;fill-rule:nonzero;stroke:none;stroke-width:1.5;marker:none;visibility:visible;display:inline;overflow:visible;enable-background:accumulate" />
      <path
         inkscape:connector-curvature="0"
         id="path3713"
         d="m 7.65625,74.65625 c 3.500466,0 6.464046,2.18625 7.625,5.28125 2.922683,0.05208 5.28125,2.439881 5.28125,5.375 0,2.96774 -2.40726,5.375 -5.375,5.375 -1.175339,0 -2.240467,-0.391098 -3.125,-1.03125 -1.273613,0.821117 -2.778216,1.3125 -4.40625,1.3125 -0.412169,0 -0.822986,-0.03481 -1.21875,-0.09375 -0.460796,0.558357 -1.157023,0.9375 -1.9375,0.9375 -1.110012,0 -2.04265,-0.720393 -2.375,-1.71875 -0.573002,0.172103 -1.183445,0.28125 -1.8125,0.28125 -3.468787,0 -6.28125,-2.812463 -6.28125,-6.28125 0,-2.905109 1.97757,-5.344769 4.65625,-6.0625 -0.02473,-0.153233 -0.0625,-0.308535 -0.0625,-0.46875 0,-1.618767 1.318733,-2.90625 2.9375,-2.90625 0.866194,0 1.650919,0.371372 2.1875,0.96875 1.15693,-0.628482 2.497055,-0.96875 3.90625,-0.96875 z"
         style="opacity:0.8;color:#000000;fill:url(#linearGradient4594);fill-opacity:1;fill-rule:nonzero;stroke:none;stroke-width:1.5;marker:none;visibility:visible;display:inline;overflow:visible;enable-background:accumulate" />
    </g>
    <path
       style="opacity:0.4;fill:url(#linearGradient3629);fill-opacity:1;fill-rule:nonzero;stroke:none"
       d="m 0,14 c 0,1.108 0.892,2 2,2 l 12,0 c 1.108,0 2,-0.892 2,-2 L 16,2 C 16,0.892 15.108,0 14,0 L 2,0 C 0.892,0 0,0.892 0,2 l 0,12 z m 0.96875,0 0,-12 C 0.96875,1.416801 1.4168007,0.96875 2,0.96875 l 12,0 c 0.583199,0 1.03125,0.448051 1.03125,1.03125 l 0,12 c 0,0.583199 -0.448051,1.03125 -1.03125,1.03125 l -12,0 C 1.4168007,15.03125 0.96875,14.583199 0.96875,14 z"
       id="rect2835" />
  </g>
</svg>
