<?xml version="1.0" encoding="UTF-8" standalone="no"?>
<!-- Created with Inkscape (http://www.inkscape.org/) -->

<svg
   xmlns:dc="http://purl.org/dc/elements/1.1/"
   xmlns:cc="http://creativecommons.org/ns#"
   xmlns:rdf="http://www.w3.org/1999/02/22-rdf-syntax-ns#"
   xmlns:svg="http://www.w3.org/2000/svg"
   xmlns="http://www.w3.org/2000/svg"
   xmlns:xlink="http://www.w3.org/1999/xlink"
   xmlns:sodipodi="http://sodipodi.sourceforge.net/DTD/sodipodi-0.dtd"
   xmlns:inkscape="http://www.inkscape.org/namespaces/inkscape"
   width="16"
   height="16"
   id="svg2"
   sodipodi:version="0.32"
   inkscape:version="0.48.1 r9760"
   version="1.0"
   sodipodi:docname="folder-wine.svg"
   inkscape:output_extension="org.inkscape.output.svg.inkscape"
   style="display:inline">
  <defs
     id="defs4">
    <linearGradient
       id="linearGradient3191">
      <stop
         style="stop-color:#b44d1a;stop-opacity:1"
         offset="0"
         id="stop3193" />
      <stop
         style="stop-color:#e77530;stop-opacity:1"
         offset="1"
         id="stop3195" />
    </linearGradient>
    <linearGradient
       id="linearGradient3187">
      <stop
         style="stop-color:#c29657;stop-opacity:1;"
         offset="0"
         id="stop3189" />
      <stop
         style="stop-color:#e2c89a;stop-opacity:1;"
         offset="1"
         id="stop3191" />
    </linearGradient>
    <linearGradient
       inkscape:collect="always"
       xlink:href="#linearGradient3885"
       id="linearGradient3668"
       x1="10.871767"
       y1="26.306055"
       x2="10.871767"
       y2="8.1216478"
       gradientUnits="userSpaceOnUse"
       gradientTransform="matrix(0.6999999,0,0,0.6999999,-1.886778,-3.4141973)" />
    <linearGradient
       inkscape:collect="always"
       xlink:href="#linearGradient3191"
       id="linearGradient3197"
       x1="4.0625"
       y1="17.000139"
       x2="4.0625"
       y2="2.9996619"
       gradientUnits="userSpaceOnUse"
       gradientTransform="translate(0,-1.5)" />
    <linearGradient
       id="linearGradient3885">
      <stop
         style="stop-color:#eb7731;stop-opacity:1;"
         offset="0"
         id="stop3887" />
      <stop
         id="stop3889"
         offset="0.5"
         style="stop-color:#e59343;stop-opacity:1;" />
      <stop
         style="stop-color:#e5b66b;stop-opacity:1;"
         offset="1"
         id="stop3891" />
    </linearGradient>
  </defs>
  <sodipodi:namedview
     id="base"
     pagecolor="#ffffff"
     bordercolor="#dc0000"
     borderopacity="1"
     inkscape:pageopacity="0"
     inkscape:pageshadow="2"
     inkscape:zoom="22.695034"
     inkscape:cx="1.6934466"
     inkscape:cy="10.022229"
     inkscape:document-units="px"
     inkscape:current-layer="layer2"
     showgrid="true"
     inkscape:showpageshadow="false"
     showguides="true"
     inkscape:guide-bbox="true"
     inkscape:window-width="1920"
     inkscape:window-height="1030"
     inkscape:window-x="0"
     inkscape:window-y="25"
     inkscape:window-maximized="1"
     borderlayer="true">
    <sodipodi:guide
       orientation="0,1"
       position="26.278146,128"
       id="guide2385" />
    <sodipodi:guide
       orientation="1,0"
       position="128,54.082119"
       id="guide2387" />
    <sodipodi:guide
       orientation="0,1"
       position="78.156291,0"
       id="guide2389" />
    <inkscape:grid
       type="xygrid"
       id="grid3672"
       visible="true"
       enabled="true"
       empspacing="8"
       snapvisiblegridlinesonly="true" />
  </sodipodi:namedview>
  <metadata
     id="metadata7">
    <rdf:RDF>
      <cc:Work
         rdf:about="">
        <dc:format>image/svg+xml</dc:format>
        <dc:type
           rdf:resource="http://purl.org/dc/dcmitype/StillImage" />
        <dc:title></dc:title>
      </cc:Work>
    </rdf:RDF>
  </metadata>
  <g
     inkscape:label="Folder"
     inkscape:groupmode="layer"
     id="layer1"
     style="display:inline"
     sodipodi:insensitive="true">
    <rect
       style="fill:url(#linearGradient3197);fill-opacity:1;fill-rule:nonzero;stroke:none"
       id="rect2419"
       width="16"
       height="14.5"
       x="0"
       y="1.5"
       rx="2"
       ry="2" />
    <rect
       style="opacity:0;fill:#000000;fill-opacity:1;stroke:none;display:inline"
       id="rect3214"
       width="15"
       height="12.000001"
       x="0.5"
       y="4"
       rx="1.6666666"
       ry="1.627907" />
    <path
       style="fill:#e4691e;fill-opacity:1;fill-rule:nonzero;stroke:none"
       d="M 2.049999,0 C 1.4683,0 1,0.4683 1,1.05 L 1,2.1185435 1,3.577728 c 0,0.5816999 0.4683,1.0499999 1.049999,1.0499999 l 4.1756515,0 7.7000025,0 c 0.581699,0 1.049999,-0.4683 1.049999,-1.0499999 l 0,-1.4591845 c 0,-0.5816999 -0.4683,-1.0499999 -1.049999,-1.0499999 l -6.4643875,0 L 7.2756495,1.05 C 6.6968312,0.9921743 6.8073495,0 6.2256505,0 L 2.049999,0 z"
       id="rect2859"
       sodipodi:nodetypes="cccccccccccscc"
       inkscape:connector-curvature="0" />
    <path
       style="fill:#e7893c;fill-opacity:1;fill-rule:nonzero;stroke:none"
       d="m 2.038152,1.027728 c -0.01345,0 0,-0.01913 0,0.03125 l 0,1.0625 0,3.46875 4.1875,0 7.6875,0 c 0.05038,0 0.03125,0.01345 0.03125,0 l 0,-3.46875 c 0,-0.01345 -0.0178,-0.03125 -0.03125,-0.03125 l -6.4375,0 -0.1875,0 c -0.03123,0.0014 -0.06252,0.0014 -0.09375,0 C 6.752915,2.046118 6.356927,1.740365 6.163152,1.496478 6.002471,1.294244 5.937954,1.151834 5.881902,1.027728 l -3.84375,0 z"
       id="path3218"
       sodipodi:nodetypes="cccccccccccsscc"
       inkscape:connector-curvature="0" />
    <rect
       style="fill:url(#linearGradient3668);fill-opacity:1;fill-rule:nonzero;stroke:none"
       id="rect3660"
       width="14"
       height="13.000002"
       x="1"
       y="2"
       rx="1"
       ry="1" />
    <path
       style="opacity:0.2;fill:#ffffff;fill-opacity:1;fill-rule:nonzero;stroke:none"
       d="M 2,2 C 1.446,2 1,2.446 1,3 L 1,4 C 1,3.446 1.446,3 2,3 l 12,0 c 0.554,0 1,0.446 1,1 L 15,3 C 15,2.446 14.554,2 14,2 L 2,2 z"
       id="rect3880"
       inkscape:connector-curvature="0" />
    <rect
       style="color:#000000;fill:#d37e43;fill-opacity:1;fill-rule:nonzero;stroke:none;stroke-width:2;marker:none;visibility:visible;display:inline;overflow:visible;enable-background:accumulate"
       id="rect3884-0"
       width="8"
       height="8"
       x="24"
       y="-8" />
  </g>
  <g
     inkscape:groupmode="layer"
     id="layer2"
     inkscape:label="Symbol">
    <path
       style="fill:#ffffff;fill-opacity:1;display:inline;opacity:0.15"
       d="M 6.78125 3.65625 C 6.1735624 3.6655491 5.4763464 3.8325908 4.6875 4.15625 A 0.92519683 0.92519683 0 0 0 4.15625 4.75 L 3.21875 7.9375 A 0.92519683 0.92519683 0 0 0 3.25 8.53125 A 0.92519683 0.92519683 0 0 0 3.25 8.5625 A 0.92519683 0.92519683 0 0 0 3.03125 8.875 L 2.15625 12.0625 A 0.92519683 0.92519683 0 0 0 3.40625 13.15625 C 4.2390273 12.814651 4.7367656 12.790281 5.09375 12.84375 C 5.4507344 12.897219 5.7488226 13.061545 6.125 13.3125 A 0.92519683 0.92519683 0 0 0 6.71875 13.4375 A 0.92519683 0.92519683 0 0 0 6.84375 13.59375 C 7.2930254 13.895985 7.8991942 14.211975 8.65625 14.3125 C 9.4133058 14.413025 10.273797 14.269964 11.3125 13.84375 A 0.92519683 0.92519683 0 0 0 11.84375 13.25 L 12.75 10.1875 A 0.92519683 0.92519683 0 0 0 12.71875 9.53125 A 0.92519683 0.92519683 0 0 0 12.90625 9.15625 L 13.8125 6 A 0.92519683 0.92519683 0 0 0 12.59375 4.90625 C 11.763193 5.2467622 11.264662 5.2722513 10.90625 5.21875 C 10.547838 5.1652487 10.248529 4.9996489 9.875 4.75 A 0.92519683 0.92519683 0 0 0 9.3125 4.625 A 0.92519683 0.92519683 0 0 0 9.28125 4.625 A 0.92519683 0.92519683 0 0 0 9.125 4.4375 C 8.5701974 4.0652226 7.8111481 3.6404833 6.78125 3.65625 z M 6.78125 4.59375 C 7.5739202 4.581615 8.1176288 4.8782995 8.625 5.21875 L 7.6875 8.375 C 7.1988128 8.0483737 6.7158629 7.7242388 5.96875 7.71875 C 5.4760406 7.714906 4.8387755 7.8823143 4.09375 8.1875 L 5.03125 5 C 5.7339884 4.7116704 6.3056477 4.6010279 6.78125 4.59375 z M 9.375 5.53125 C 10.185155 6.0727188 11.066066 6.5172518 12.9375 5.75 L 12.03125 8.90625 C 10.237017 9.7026322 9.2783085 9.2633227 8.46875 8.71875 L 9.375 5.53125 z M 5.71875 8.75 C 6.5107431 8.7308844 7.025277 9.0029291 7.53125 9.34375 L 6.625 12.53125 C 5.8124607 11.989189 4.9376539 11.543326 3.0625 12.3125 L 3.9375 9.125 L 3.96875 9.125 C 4.6691393 8.8387767 5.243554 8.7614725 5.71875 8.75 z M 8.3125 9.625 C 9.1244419 10.166913 9.9666048 10.584836 11.875 9.9375 L 10.96875 13 C 9.0956762 13.768583 8.1860496 13.358107 7.375 12.8125 L 8.3125 9.625 z "
       id="path4274" />
    <path
       inkscape:connector-curvature="0"
       style="fill:#d37e43;fill-opacity:1;display:inline"
       d="M 6.7789754,4.582786 C 6.3033731,4.5900639 5.7326793,4.7234648 5.0299409,5.0117944 L 4.1059242,8.1798554 C 4.8509497,7.8746697 5.4612493,7.7140025 5.9539587,7.7178465 6.7010716,7.7233353 7.2143061,8.0512329 7.7029933,8.3778592 L 8.62701,5.2097982 C 8.1196388,4.8693477 7.5716456,4.570651 6.7789754,4.582786 z M 9.386025,5.5398046 8.4620072,8.7078656 C 9.2715657,9.2524383 10.231844,9.7022515 12.026077,8.9058693 L 12.950095,5.7378084 C 11.078661,6.5050602 10.19618,6.0812734 9.386025,5.5398046 z M 5.7229551,8.7408661 C 5.2477591,8.7523386 4.6743109,8.8506505 3.9739216,9.1368738 l -0.032999,0 -0.8910174,3.1680612 C 4.9250591,11.535761 5.8014334,11.993879 6.6139727,12.53594 L 7.5379892,9.3348776 C 7.0320162,8.9940567 6.5149482,8.7217505 5.7229551,8.7408661 z m 2.574049,0.8910172 -0.9240178,3.1680617 c 0.8110496,0.545607 1.7239969,0.966586 3.5970707,0.198003 L 11.861073,9.9288895 C 9.9526778,10.576226 9.108946,10.173796 8.2970041,9.6318833 z"
       id="path3675" />
    <path
       style="fill:#000000;fill-opacity:1;display:inline;opacity:0.2"
       d="M 6.78125 4.59375 C 6.3056477 4.6010279 5.7339884 4.7116704 5.03125 5 L 4.09375 8.1875 C 4.8387755 7.8823143 5.4760406 7.714906 5.96875 7.71875 C 6.7158629 7.7242388 7.1988128 8.0483737 7.6875 8.375 L 8.625 5.21875 C 8.1176288 4.8782995 7.5739202 4.581615 6.78125 4.59375 z M 6.78125 4.96875 C 7.3598883 4.9598916 7.7559459 5.1615123 8.15625 5.40625 L 7.4375 7.8125 C 7.0364136 7.5759944 6.5881591 7.3483006 5.96875 7.34375 C 5.5794107 7.3407125 5.129454 7.4437507 4.65625 7.59375 L 5.34375 5.3125 C 5.9215928 5.0953889 6.4003162 4.9745792 6.78125 4.96875 z M 9.375 5.53125 L 8.46875 8.71875 C 9.2783085 9.2633227 10.237017 9.7026322 12.03125 8.90625 L 12.9375 5.75 C 11.066066 6.5172518 10.185155 6.0727188 9.375 5.53125 z M 9.625 6.125 C 9.9359659 6.2962401 10.26957 6.4376141 10.6875 6.5 C 11.152879 6.5694688 11.73814 6.4935629 12.375 6.3125 L 11.71875 8.625 C 10.962121 8.9341928 10.387595 8.9999001 9.9375 8.9375 C 9.5410335 8.8825348 9.2234014 8.7257213 8.90625 8.53125 L 9.625 6.125 z M 5.71875 8.75 C 5.243554 8.7614725 4.6691393 8.8387767 3.96875 9.125 L 3.9375 9.125 L 3.0625 12.3125 C 4.9376539 11.543326 5.8124607 11.989189 6.625 12.53125 L 7.53125 9.34375 C 7.025277 9.0029291 6.5107431 8.7308844 5.71875 8.75 z M 5.71875 9.125 C 6.3137595 9.1106388 6.6957029 9.2845743 7.09375 9.53125 L 6.375 11.9375 C 6.0642145 11.766094 5.7301058 11.625048 5.3125 11.5625 C 4.8474819 11.49285 4.2623717 11.568513 3.625 11.75 L 4.25 9.4375 C 4.8344565 9.2188896 5.3118454 9.1348238 5.71875 9.125 z M 8.3125 9.625 L 7.375 12.8125 C 8.1860496 13.358107 9.0956762 13.768583 10.96875 13 L 11.875 9.9375 C 9.9666048 10.584836 9.1244419 10.166913 8.3125 9.625 z M 8.53125 10.21875 C 8.8445516 10.394036 9.2031096 10.523788 9.625 10.59375 C 10.089774 10.670823 10.659738 10.622192 11.3125 10.46875 L 10.65625 12.71875 C 9.8578215 13.022961 9.2629807 13.091067 8.8125 13.03125 C 8.4268452 12.980041 8.1191016 12.842064 7.8125 12.65625 L 8.53125 10.21875 z "
       id="path4258" />
    <path
       style="fill:#000000;fill-opacity:1;display:inline;opacity:0.2"
       d="M 6.78125 4.59375 C 6.3056477 4.6010279 5.7339884 4.7116704 5.03125 5 L 4.09375 8.1875 C 4.2055038 8.1417221 4.300501 8.132957 4.40625 8.09375 L 5.03125 6 C 5.7339884 5.7116704 6.3056477 5.6010279 6.78125 5.59375 C 7.4443491 5.5835986 7.934894 5.7951335 8.375 6.0625 L 8.625 5.21875 C 8.1176288 4.8782995 7.5739202 4.581615 6.78125 4.59375 z M 9.375 5.53125 L 8.46875 8.71875 C 8.5505987 8.7738079 8.6331139 8.8230693 8.71875 8.875 L 9.375 6.53125 C 10.137414 7.0408108 10.970538 7.437196 12.625 6.84375 L 12.9375 5.75 C 11.066066 6.5172518 10.185155 6.0727188 9.375 5.53125 z M 5.71875 8.75 C 5.6145666 8.7525153 5.4889312 8.7693213 5.375 8.78125 C 5.0024191 8.8525847 4.5734737 8.9909902 4.09375 9.1875 L 4.125 9.09375 C 4.0714413 9.1139961 4.023867 9.1024757 3.96875 9.125 L 3.9375 9.125 L 3.0625 12.3125 C 3.1748236 12.266426 3.269643 12.225013 3.375 12.1875 L 3.9375 10.125 L 3.96875 10.125 C 4.6691393 9.8387765 5.243554 9.7614725 5.71875 9.75 C 6.3812827 9.7340091 6.8490527 9.9261101 7.28125 10.1875 L 7.53125 9.34375 C 7.025277 9.0029291 6.5107431 8.7308844 5.71875 8.75 z M 8.3125 9.625 L 7.375 12.8125 C 7.4543926 12.865909 7.5428496 12.887479 7.625 12.9375 L 8.3125 10.625 C 9.0779895 11.135909 9.8749521 11.531115 11.5625 11.03125 L 11.875 9.96875 C 10.513455 10.530952 9.6328894 10.366061 8.9375 10 C 8.7701766 9.9221353 8.6224907 9.8164228 8.46875 9.71875 C 8.4175031 9.6861924 8.3632464 9.6588695 8.3125 9.625 z "
       id="path4253" />
    <path
       style="fill:#ffffff;fill-opacity:1;display:inline;opacity:0.15"
       d="M 8.375 6.0625 L 7.6875 8.375 C 7.1988128 8.0483737 6.7158629 7.7242388 5.96875 7.71875 C 5.549947 7.7154826 5.0054943 7.8715767 4.40625 8.09375 L 4.125 9.09375 C 4.602815 8.9131276 5.0101683 8.8194482 5.375 8.78125 C 5.4917013 8.7589063 5.611971 8.7593752 5.71875 8.75 C 5.8005006 8.7428223 5.8926699 8.7181564 5.96875 8.71875 C 6.7158629 8.7242388 7.1988128 9.0483737 7.6875 9.375 L 8.625 6.21875 C 8.5420643 6.1630994 8.4609977 6.114744 8.375 6.0625 z M 12.9375 6.75 C 12.827219 6.7952131 12.7286 6.8065892 12.625 6.84375 L 12.03125 8.90625 C 10.418419 9.6221152 9.4801327 9.3367111 8.71875 8.875 L 8.46875 9.71875 C 8.6224907 9.8164228 8.7701766 9.9221352 8.9375 10 C 9.6067936 10.311459 10.443704 10.423002 11.875 9.9375 L 11.875 9.96875 C 11.929462 9.9462619 11.97518 9.9311369 12.03125 9.90625 L 12.9375 6.75 z M 7.28125 10.1875 L 6.625 12.53125 C 5.8611326 12.021659 5.0284958 11.598768 3.375 12.1875 L 3.0625 13.3125 C 4.9376539 12.543326 5.8124607 12.989189 6.625 13.53125 L 7.53125 10.34375 C 7.4485429 10.288039 7.3657023 10.238576 7.28125 10.1875 z M 11.875 10.9375 C 11.765818 10.974535 11.664906 11.000917 11.5625 11.03125 L 10.96875 13 C 9.2790289 13.693347 8.3820722 13.398482 7.625 12.9375 L 7.375 13.8125 C 8.1860496 14.358107 9.0956762 14.768583 10.96875 14 L 11.875 10.9375 z "
       id="path4265" />
  </g>
</svg>
