<?xml version="1.0" encoding="UTF-8" standalone="no"?>
<!-- Created with Inkscape (http://www.inkscape.org/) -->

<svg
   xmlns:dc="http://purl.org/dc/elements/1.1/"
   xmlns:cc="http://creativecommons.org/ns#"
   xmlns:rdf="http://www.w3.org/1999/02/22-rdf-syntax-ns#"
   xmlns:svg="http://www.w3.org/2000/svg"
   xmlns="http://www.w3.org/2000/svg"
   xmlns:xlink="http://www.w3.org/1999/xlink"
   xmlns:sodipodi="http://sodipodi.sourceforge.net/DTD/sodipodi-0.dtd"
   xmlns:inkscape="http://www.inkscape.org/namespaces/inkscape"
   width="22"
   height="22"
   id="svg2"
   sodipodi:version="0.32"
   inkscape:version="0.48.1 r9760"
   version="1.0"
   sodipodi:docname="audio-volume-medium.svg"
   inkscape:output_extension="org.inkscape.output.svg.inkscape"
   style="display:inline"
   inkscape:export-filename="/home/matthieu/Eye-Candy/Faience/0.1/sources/status/small/audio-volume-high.png"
   inkscape:export-xdpi="90"
   inkscape:export-ydpi="90">
  <defs
     id="defs4">
    <linearGradient
       id="linearGradient3279">
      <stop
         style="stop-color:#f08e00;stop-opacity:1;"
         offset="0"
         id="stop3281" />
      <stop
         style="stop-color:#ffd200;stop-opacity:1;"
         offset="1"
         id="stop3283" />
    </linearGradient>
    <linearGradient
       inkscape:collect="always"
       xlink:href="#StandardGradient"
       id="linearGradient2934"
       gradientUnits="userSpaceOnUse"
       gradientTransform="matrix(1,0,0,-1,1,22.03125)"
       x1="7"
       y1="6"
       x2="7"
       y2="16" />
    <linearGradient
       inkscape:collect="always"
       xlink:href="#StandardGradient"
       id="linearGradient2936"
       gradientUnits="userSpaceOnUse"
       gradientTransform="matrix(1,0,0,-1,1,22.03125)"
       x1="10"
       y1="7"
       x2="10"
       y2="15" />
    <linearGradient
       inkscape:collect="always"
       xlink:href="#StandardGradient"
       id="linearGradient2938"
       gradientUnits="userSpaceOnUse"
       gradientTransform="matrix(1,0,0,-1,1,22.03125)"
       x1="13"
       y1="5"
       x2="13"
       y2="17" />
    <linearGradient
       inkscape:collect="always"
       xlink:href="#StandardGradient"
       id="linearGradient2940"
       gradientUnits="userSpaceOnUse"
       gradientTransform="matrix(1,0,0,-1,1,22.03125)"
       x1="16"
       y1="3"
       x2="16"
       y2="19" />
    <radialGradient
       inkscape:collect="always"
       xlink:href="#StandardGradient"
       id="radialGradient3857"
       cx="12"
       cy="12.447369"
       fx="12"
       fy="12.447369"
       r="6"
       gradientTransform="matrix(2.6666667,-9.1385016e-8,5.7115635e-8,1.6666667,-20.000001,-7.7456132)"
       gradientUnits="userSpaceOnUse" />
    <linearGradient
       id="StandardGradient"
       gradientTransform="scale(0.9219544,1.0846523)"
       x1="11.998966"
       y1="0.92195445"
       x2="11.998966"
       y2="19.387045"
       gradientUnits="userSpaceOnUse">
      <stop
         style="stop-color:#000000;stop-opacity:0.23529412;"
         offset="0"
         id="stop3283-1" />
      <stop
         id="stop3850"
         offset="0.69999999"
         style="stop-color:#000000;stop-opacity:0.39215686;" />
      <stop
         style="stop-color:#000000;stop-opacity:0.55;"
         offset="1"
         id="stop2651" />
    </linearGradient>
    <radialGradient
       r="6"
       fy="12.447369"
       fx="12"
       cy="12.447369"
       cx="12"
       gradientTransform="matrix(2.6666667,-9.1385016e-8,5.7115635e-8,1.6666667,-81.000001,-7.7456132)"
       gradientUnits="userSpaceOnUse"
       id="radialGradient3094"
       xlink:href="#StandardGradient"
       inkscape:collect="always" />
    <linearGradient
       inkscape:collect="always"
       xlink:href="#StandardGradient"
       id="linearGradient5517"
       gradientUnits="userSpaceOnUse"
       gradientTransform="matrix(1,0,0,-1,1,22.03125)"
       x1="16"
       y1="3"
       x2="16"
       y2="19" />
    <linearGradient
       inkscape:collect="always"
       xlink:href="#StandardGradient"
       id="linearGradient5522"
       gradientUnits="userSpaceOnUse"
       gradientTransform="matrix(1,0,0,-1,1,22.03125)"
       x1="16"
       y1="3"
       x2="16"
       y2="19" />
    <linearGradient
       inkscape:collect="always"
       xlink:href="#StandardGradient"
       id="linearGradient5526"
       gradientUnits="userSpaceOnUse"
       gradientTransform="matrix(1,0,0,-1,1,22.03125)"
       x1="16"
       y1="3"
       x2="16"
       y2="19" />
    <linearGradient
       inkscape:collect="always"
       xlink:href="#StandardGradient"
       id="linearGradient5528"
       gradientUnits="userSpaceOnUse"
       gradientTransform="matrix(1,0,0,-1,1,22.03125)"
       x1="16"
       y1="3"
       x2="16"
       y2="19" />
    <radialGradient
       inkscape:collect="always"
       xlink:href="#StandardGradient"
       id="radialGradient3786"
       cx="13"
       cy="12.055992"
       fx="13"
       fy="12.055992"
       r="9"
       gradientTransform="matrix(1.6666667,-9.5238096e-8,4.4444445e-8,0.7777778,-8.6666672,2.6231184)"
       gradientUnits="userSpaceOnUse" />
    <radialGradient
       inkscape:collect="always"
       xlink:href="#StandardGradient"
       id="radialGradient3040"
       gradientUnits="userSpaceOnUse"
       gradientTransform="matrix(1.7185356,-9.8202033e-8,4.5827616e-8,0.80198329,-10.446484,2.0969147)"
       cx="13"
       cy="12.055992"
       fx="13"
       fy="12.055992"
       r="9" />
    <radialGradient
       inkscape:collect="always"
       xlink:href="#StandardGradient"
       id="radialGradient3042"
       gradientUnits="userSpaceOnUse"
       gradientTransform="matrix(1.7185356,-9.8202033e-8,4.5827616e-8,0.80198329,-8.384241,2.0969147)"
       cx="13"
       cy="12.055992"
       fx="13"
       fy="12.055992"
       r="9" />
    <radialGradient
       inkscape:collect="always"
       xlink:href="#StandardGradient"
       id="radialGradient3046"
       gradientUnits="userSpaceOnUse"
       gradientTransform="matrix(1.7185356,-9.8202033e-8,4.5827616e-8,0.80198329,-9.4153623,2.0969147)"
       cx="13"
       cy="12.055992"
       fx="13"
       fy="12.055992"
       r="9" />
    <radialGradient
       inkscape:collect="always"
       xlink:href="#StandardGradient"
       id="radialGradient3832"
       gradientUnits="userSpaceOnUse"
       gradientTransform="matrix(1.6666667,-9.5238096e-8,4.4444445e-8,0.7777778,-8.6666672,22.623118)"
       cx="13"
       cy="12.055992"
       fx="13"
       fy="12.055992"
       r="9" />
    <radialGradient
       inkscape:collect="always"
       xlink:href="#StandardGradient"
       id="radialGradient3843"
       cx="13"
       cy="12.239852"
       fx="13"
       fy="12.239852"
       r="10.09375"
       gradientTransform="matrix(1.4860681,1.5854118e-8,0,0.89164084,-6.3188853,1.0864476)"
       gradientUnits="userSpaceOnUse" />
    <radialGradient
       inkscape:collect="always"
       xlink:href="#StandardGradient"
       id="radialGradient3861"
       gradientUnits="userSpaceOnUse"
       gradientTransform="matrix(1.4860681,1.5854118e-8,0,0.89164084,-6.3188853,1.0864476)"
       cx="13"
       cy="12.239852"
       fx="13"
       fy="12.239852"
       r="10.09375" />
    <radialGradient
       inkscape:collect="always"
       xlink:href="#StandardGradient"
       id="radialGradient3865"
       gradientUnits="userSpaceOnUse"
       gradientTransform="matrix(1.4860681,1.5854118e-8,0,0.89164084,-6.3188853,2.0864476)"
       cx="13"
       cy="12.239852"
       fx="13"
       fy="12.239852"
       r="10.09375" />
    <radialGradient
       inkscape:collect="always"
       xlink:href="#StandardGradient"
       id="radialGradient3872"
       gradientUnits="userSpaceOnUse"
       gradientTransform="matrix(1.4860681,1.5854118e-8,0,0.89164084,-6.3188853,1.0864476)"
       cx="13"
       cy="12.239852"
       fx="13"
       fy="12.239852"
       r="10.09375" />
    <radialGradient
       inkscape:collect="always"
       xlink:href="#StandardGradient"
       id="radialGradient3876"
       gradientUnits="userSpaceOnUse"
       gradientTransform="matrix(1.4860681,1.5854118e-8,0,0.89164084,-6.3188853,1.0864476)"
       cx="13"
       cy="12.239852"
       fx="13"
       fy="12.239852"
       r="10.09375" />
    <radialGradient
       inkscape:collect="always"
       xlink:href="#StandardGradient"
       id="radialGradient3878"
       gradientUnits="userSpaceOnUse"
       gradientTransform="matrix(1.4860681,1.5854118e-8,0,0.89164084,-6.3188853,1.0864476)"
       cx="13"
       cy="12.239852"
       fx="13"
       fy="12.239852"
       r="10.09375" />
    <radialGradient
       inkscape:collect="always"
       xlink:href="#StandardGradient"
       id="radialGradient3883"
       gradientUnits="userSpaceOnUse"
       gradientTransform="matrix(1.4860681,1.5854118e-8,0,0.89164084,-6.3188853,2.0864476)"
       cx="13"
       cy="12.239852"
       fx="13"
       fy="12.239852"
       r="10.09375" />
    <radialGradient
       inkscape:collect="always"
       xlink:href="#StandardGradient"
       id="radialGradient3887"
       gradientUnits="userSpaceOnUse"
       gradientTransform="matrix(1.4860681,1.5854118e-8,0,0.89164084,-6.3188853,1.0864476)"
       cx="13"
       cy="12.239852"
       fx="13"
       fy="12.239852"
       r="10.09375" />
    <radialGradient
       inkscape:collect="always"
       xlink:href="#StandardGradient"
       id="radialGradient3894"
       gradientUnits="userSpaceOnUse"
       gradientTransform="matrix(1.4860681,1.5854118e-8,0,0.89164084,-6.3188853,1.0864476)"
       cx="13"
       cy="12.239852"
       fx="13"
       fy="12.239852"
       r="10.09375" />
    <radialGradient
       inkscape:collect="always"
       xlink:href="#StandardGradient"
       id="radialGradient3898"
       gradientUnits="userSpaceOnUse"
       gradientTransform="matrix(1.4860681,1.5854118e-8,0,0.89164084,-6.3188853,1.0864476)"
       cx="13"
       cy="12.239852"
       fx="13"
       fy="12.239852"
       r="10.09375" />
    <radialGradient
       inkscape:collect="always"
       xlink:href="#StandardGradient"
       id="radialGradient3088"
       gradientUnits="userSpaceOnUse"
       gradientTransform="matrix(1.4860681,1.5854118e-8,0,0.89164084,-6.3188853,1.0864476)"
       cx="13"
       cy="12.239852"
       fx="13"
       fy="12.239852"
       r="10.09375" />
  </defs>
  <sodipodi:namedview
     id="base"
     pagecolor="#818181"
     bordercolor="#ffcfcf"
     borderopacity="1"
     inkscape:pageopacity="1"
     inkscape:pageshadow="2"
     inkscape:zoom="45.010588"
     inkscape:cx="9.8708669"
     inkscape:cy="11.079975"
     inkscape:document-units="px"
     inkscape:current-layer="layer1"
     showgrid="true"
     inkscape:showpageshadow="false"
     showguides="true"
     inkscape:guide-bbox="true"
     inkscape:window-width="1920"
     inkscape:window-height="1030"
     inkscape:window-x="0"
     inkscape:window-y="25"
     inkscape:window-maximized="1"
     borderlayer="true"
     inkscape:snap-global="true">
    <sodipodi:guide
       orientation="0,1"
       position="26.278146,128"
       id="guide2385" />
    <sodipodi:guide
       orientation="1,0"
       position="128,54.082119"
       id="guide2387" />
    <sodipodi:guide
       orientation="0,1"
       position="60.863576,64.084768"
       id="guide2391" />
    <inkscape:grid
       type="xygrid"
       id="grid3672"
       visible="true"
       enabled="true"
       empspacing="8"
       snapvisiblegridlinesonly="true" />
    <sodipodi:guide
       orientation="1,0"
       position="13,6"
       id="guide3013" />
    <sodipodi:guide
       orientation="0,1"
       position="18,10"
       id="guide3015" />
  </sodipodi:namedview>
  <metadata
     id="metadata7">
    <rdf:RDF>
      <cc:Work
         rdf:about="">
        <dc:format>image/svg+xml</dc:format>
        <dc:type
           rdf:resource="http://purl.org/dc/dcmitype/StillImage" />
        <dc:title></dc:title>
      </cc:Work>
    </rdf:RDF>
  </metadata>
  <g
     inkscape:label="Icon"
     inkscape:groupmode="layer"
     id="layer1"
     style="display:inline">
    <path
       style="opacity:0.05;color:#000000;fill:#ffffff;fill-opacity:1;fill-rule:nonzero;stroke:none;stroke-width:1;marker:none;visibility:visible;display:inline;overflow:visible;enable-background:accumulate"
       d="m 7.875,3.1875 c -0.1675073,0.033741 -0.3233884,0.1228162 -0.4375,0.25 l -3.75,3.75 -2.1875,0 C 0.79366699,7.1875 0.1875,7.793667 0.1875,8.5 l 0,5 c 0,0.706333 0.60616699,1.3125 1.3125,1.3125 l 2.1875,0 3.75,3.75 C 7.8789002,19.018775 8.8174572,18.63482 8.8125,18 l 0,-10 c 0.033741,0.1675073 0.1228162,0.3233884 0.25,0.4375 0.6162665,0.6149963 1,1.4398584 1,2.34375 0,0.889851 -0.3598731,1.660107 -0.96875,2.28125 -0.3302467,0.325503 -0.2823942,0.947585 0.09375,1.21875 l 1.75,1.21875 c 0.318977,0.225438 0.804552,0.168312 1.0625,-0.125 1.069034,-1.226047 1.75,-2.837316 1.75,-4.59375 C 13.75,9.0067435 13.060476,7.3603979 11.96875,6.125 11.710802,5.8316883 11.225227,5.7745619 10.90625,6 l -1.75,1.21875 C 8.9760535,7.33938 8.8487015,7.5361967 8.8125,7.75 l 0,-3.75 C 8.8199889,3.5619914 8.4061643,3.1634937 7.96875,3.1875 c -0.031214,-0.00183 -0.062536,-0.00183 -0.09375,0 z m 6.53125,0.46875 c -0.10301,0.032389 -0.199329,0.0859 -0.28125,0.15625 l -1.6875,1.15625 c -0.04459,0.027075 -0.08652,0.058524 -0.125,0.09375 l -0.03125,0.03125 c -0.292407,0.2957279 -0.292407,0.8292721 0,1.125 1.181994,1.1675628 1.90625,2.7750677 1.90625,4.5625 0,1.772993 -0.705009,3.330009 -1.875,4.5 -0.292407,0.295728 -0.292407,0.829272 0,1.125 l 0.03125,0.03125 c 0.03848,0.03523 0.08041,0.06668 0.125,0.09375 l 1.71875,1.15625 c 0.313987,0.208393 0.776144,0.152374 1.03125,-0.125 C 16.851015,15.772335 17.875,13.396698 17.875,10.78125 17.875,8.1366076 16.81905,5.7317927 15.15625,3.9375 14.99669,3.7493525 14.746286,3.6420364 14.5,3.65625 c -0.03121,-0.00183 -0.06254,-0.00183 -0.09375,0 z M 8,4 8,18 4,14 1.5,14 C 1.223,14 1,13.777 1,13.5 l 0,-5 C 1,8.223 1.223,8 1.5,8 L 4,8 z m 6.5625,0.46875 c 1.533732,1.6550184 2.5,3.8796719 2.5,6.3125 0,2.409208 -0.931705,4.598539 -2.4375,6.25 L 12.90625,15.875 12.875,15.84375 C 14.181431,14.537319 15,12.773376 15,10.78125 15,8.7730748 14.168774,6.9650966 12.84375,5.65625 L 12.875,5.625 z m -3.1875,2.1875 c 0.96592,1.0930354 1.5625,2.5528643 1.5625,4.125 0,1.55725 -0.581626,2.973402 -1.53125,4.0625 L 9.65625,13.625 C 10.38507,12.881498 10.875,11.903846 10.875,10.78125 10.875,9.6422021 10.372739,8.6211979 9.625,7.875 z"
       id="path3896"
       inkscape:connector-curvature="0"
       sodipodi:nodetypes="cccsssscccccsccccscccccccccccccsccccccsccccccsssscccscccsccccsccscc" />
    <path
       style="opacity:0.2;color:#000000;fill:#000000;fill-opacity:1;fill-rule:nonzero;stroke:none;stroke-width:1;marker:none;visibility:visible;display:inline;overflow:visible;enable-background:accumulate"
       d="M 17.75,2.28125 16.0625,3.4375 c 1.879756,1.863016 3.03125,4.4889391 3.03125,7.34375 0,2.83785 -1.139715,5.420965 -3,7.28125 l 1.6875,1.15625 c 2.087127,-2.213913 3.40625,-5.15704 3.40625,-8.4375 1e-6,-3.2961333 -1.332686,-6.2828798 -3.4375,-8.5 z"
       id="path3086" />
    <path
       style="opacity:1;color:#000000;fill:url(#radialGradient3088);fill-opacity:1;fill-rule:nonzero;stroke:none;stroke-width:1;marker:none;visibility:visible;display:inline;overflow:visible;enable-background:accumulate"
       d="M 8 4 L 4 8 L 1.5 8 C 1.223 8 1 8.223 1 8.5 L 1 13.5 C 1 13.777 1.223 14 1.5 14 L 4 14 L 8 18 L 8 4 z M 14.5625 4.46875 L 12.875 5.625 L 12.84375 5.65625 C 14.168774 6.9650966 15 8.7730748 15 10.78125 C 15 12.773376 14.181431 14.537319 12.875 15.84375 L 12.90625 15.875 L 14.625 17.03125 C 16.130795 15.379789 17.0625 13.190458 17.0625 10.78125 C 17.0625 8.3484219 16.096232 6.1237684 14.5625 4.46875 z M 11.375 6.65625 L 9.625 7.875 C 10.372739 8.6211979 10.875 9.6422021 10.875 10.78125 C 10.875 11.903846 10.38507 12.881498 9.65625 13.625 L 11.40625 14.84375 C 12.355874 13.754652 12.9375 12.3385 12.9375 10.78125 C 12.9375 9.2091143 12.34092 7.7492854 11.375 6.65625 z "
       id="path3084" />
    <path
       style="fill:url(#radialGradient3832);fill-opacity:1;fill-rule:nonzero;stroke:none"
       d="m 7.25,26.03125 c -0.1236886,-8.6e-5 -0.2318178,0.05771 -0.34375,0.15625 l -1.9375,1.6875 -2,0 C 2.4260626,27.875 2,28.337311 2,28.90625 l 0,4.25 c 0,0.568939 0.4260625,1 0.96875,1 l 1.96875,0 1.96875,1.71875 C 6.968141,35.93321 7.054464,35.97232 7.125,36 c 0.054047,0.01898 0.070595,0.03126 0.125,0.03125 0.1632157,-2.5e-5 0.3391835,-0.09186 0.46875,-0.25 C 7.8915051,35.57039 8.00323,35.242111 8,34.90625 l 0,-1.75 0,-4.25 0,-1.75 C 8.0014529,26.76429 7.849127,26.38389 7.625,26.1875 7.5129367,26.089306 7.3736886,26.031336 7.25,26.03125 z"
       id="path3034"
       inkscape:connector-curvature="0" />
    <path
       style="opacity:0.3;color:#000000;fill:#000000;fill-opacity:1;fill-rule:nonzero;stroke:none;stroke-width:1;marker:none;visibility:visible;display:inline;overflow:visible;enable-background:accumulate"
       d="M 8,4 4,8 1.5,8 C 1.223,8 1,8.223 1,8.5 l 0,5 C 1,13.777 1.223,14 1.5,14 L 4,14 8,18 z M 14.5625,4.46875 12.875,5.625 12.84375,5.65625 C 14.168774,6.9650966 15,8.7730748 15,10.78125 c 0,1.992126 -0.818569,3.756069 -2.125,5.0625 l 0.03125,0.03125 1.71875,1.15625 c 1.505795,-1.651461 2.4375,-3.840792 2.4375,-6.25 0,-2.4328281 -0.966268,-4.6574816 -2.5,-6.3125 z m -0.09375,0.6875 c 1.279504,1.5245478 2.09375,3.4871841 2.09375,5.625 0,2.116639 -0.779608,4.045766 -2.03125,5.5625 L 13.625,15.75 C 14.78239,14.407215 15.5,12.699409 15.5,10.78125 15.5,8.8477279 14.76948,7.1038293 13.59375,5.75 z M 7.5,5.25 7.5,16.75 4.375,13.625 C 4.2729365,13.536287 4.1348788,13.490267 4,13.5 l -2.5,0 0,-5 2.5,0 c 0.1348788,0.00973 0.2729365,-0.036287 0.375,-0.125 z M 11.375,6.65625 9.625,7.875 c 0.747739,0.7461979 1.25,1.7672021 1.25,2.90625 0,1.122596 -0.48993,2.100248 -1.21875,2.84375 l 1.75,1.21875 c 0.949624,-1.089098 1.53125,-2.50525 1.53125,-4.0625 0,-1.5721357 -0.59658,-3.0319646 -1.5625,-4.125 z M 11.21875,7.375 c 0.721898,0.9559804 1.21875,2.1205501 1.21875,3.40625 0,1.266298 -0.453894,2.399454 -1.15625,3.34375 L 10.375,13.5 c 0.585989,-0.758191 1,-1.668986 1,-2.71875 C 11.375,9.711123 10.952009,8.7748759 10.34375,8 z"
       id="path3868"
       inkscape:connector-curvature="0"
       sodipodi:nodetypes="ccssssccccccscccsccsccscccccccccccccsccsccsccscc" />
    <path
       style="opacity:0.3;color:#000000;fill:#000000;fill-opacity:1;fill-rule:nonzero;stroke:none;stroke-width:1;marker:none;visibility:visible;display:inline;overflow:visible;enable-background:accumulate"
       d="M 8,4 4,8 1.5,8 C 1.223,8 1,8.223 1,8.5 l 0,1 C 1,9.223 1.223,9 1.5,9 L 4,9 8,5 z M 14.5625,4.46875 12.875,5.625 12.84375,5.65625 c 0.201939,0.1994733 0.384695,0.4033983 0.5625,0.625 l 1.15625,-0.8125 c 1.427855,1.5407691 2.346322,3.575976 2.46875,5.8125 0.0088,-0.164112 0.03125,-0.333687 0.03125,-0.5 0,-2.4328281 -0.966268,-4.6574816 -2.5,-6.3125 z M 11.375,6.65625 9.625,7.875 C 9.8215761,8.0711709 9.9982711,8.2686918 10.15625,8.5 L 11.375,7.65625 c 0.84518,0.956406 1.403855,2.1836775 1.53125,3.53125 0.0093,-0.138309 0.03125,-0.265499 0.03125,-0.40625 0,-1.5721357 -0.59658,-3.0319646 -1.5625,-4.125 z m -0.5625,4.625 C 10.689868,12.191389 10.272821,12.996008 9.65625,13.625 L 10.1875,14 c 0.431181,-0.63389 0.6875,-1.391997 0.6875,-2.21875 0,-0.169005 -0.04122,-0.336704 -0.0625,-0.5 z m 4.15625,0 c -0.123049,1.789621 -0.896283,3.365033 -2.09375,4.5625 l 0.03125,0.03125 0.53125,0.34375 C 14.410748,14.998276 15,13.468294 15,11.78125 c 0,-0.167493 -0.01988,-0.335466 -0.03125,-0.5 z"
       id="path3845"
       inkscape:connector-curvature="0"
       sodipodi:nodetypes="ccsscscccccccccsccccccsccccscccccsc" />
    <path
       style="opacity:0.2;color:#000000;fill:#ffffff;fill-opacity:1;fill-rule:nonzero;stroke:none;stroke-width:1;marker:none;visibility:visible;display:inline;overflow:visible;enable-background:accumulate"
       d="M 13.40625,6.28125 12.875,6.625 12.84375,6.65625 c 1.21451,1.1996815 2.000059,2.8168336 2.125,4.625 0.0112,-0.162847 0.03125,-0.333846 0.03125,-0.5 0,-1.7021216 -0.604882,-3.2675592 -1.59375,-4.5 z M 10.15625,8.5 9.625,8.875 c 0.636794,0.6354815 1.065384,1.468978 1.1875,2.40625 0.02233,-0.165694 0.0625,-0.327104 0.0625,-0.5 0,-0.8395991 -0.275806,-1.6327048 -0.71875,-2.28125 z m 6.875,2.78125 c -0.118169,2.213223 -1.004403,4.212543 -2.40625,5.75 l -1.1875,-0.8125 c -0.176001,0.220709 -0.362428,0.424928 -0.5625,0.625 l 0.03125,0.03125 1.71875,1.15625 c 1.505795,-1.651461 2.4375,-3.840792 2.4375,-6.25 0,-0.167943 -0.02217,-0.33416 -0.03125,-0.5 z m -4.125,0.0625 c -0.12431,1.329186 -0.669079,2.547039 -1.5,3.5 L 10.1875,14 c -0.154293,0.22683 -0.3391804,0.429061 -0.53125,0.625 l 1.75,1.21875 c 0.949624,-1.089098 1.53125,-2.50525 1.53125,-4.0625 0,-0.144945 -0.02129,-0.294664 -0.03125,-0.4375 z M 1,13.5 l 0,1 C 1,14.777 1.223,15 1.5,15 L 4,15 8,19 8,18 4,14 1.5,14 C 1.223,14 1,13.777 1,13.5 z"
       id="path3881"
       inkscape:connector-curvature="0"
       sodipodi:nodetypes="ccccsccccscccccccsccccccsccssccccsc" />
  </g>
</svg>
