<?xml version="1.0" encoding="UTF-8" standalone="no"?>
<!-- Created with Inkscape (http://www.inkscape.org/) -->

<svg
   xmlns:dc="http://purl.org/dc/elements/1.1/"
   xmlns:cc="http://creativecommons.org/ns#"
   xmlns:rdf="http://www.w3.org/1999/02/22-rdf-syntax-ns#"
   xmlns:svg="http://www.w3.org/2000/svg"
   xmlns="http://www.w3.org/2000/svg"
   xmlns:xlink="http://www.w3.org/1999/xlink"
   xmlns:sodipodi="http://sodipodi.sourceforge.net/DTD/sodipodi-0.dtd"
   xmlns:inkscape="http://www.inkscape.org/namespaces/inkscape"
   width="24"
   height="24"
   id="svg2"
   sodipodi:version="0.32"
   inkscape:version="0.48.1 r9760"
   version="1.0"
   sodipodi:docname="avatar-default.svg"
   inkscape:output_extension="org.inkscape.output.svg.inkscape"
   style="display:inline">
  <defs
     id="defs4">
    <linearGradient
       inkscape:collect="always"
       id="linearGradient3327">
      <stop
         style="stop-color:#000000;stop-opacity:1;"
         offset="0"
         id="stop3330" />
      <stop
         style="stop-color:#000000;stop-opacity:0;"
         offset="1"
         id="stop3333" />
    </linearGradient>
    <linearGradient
       inkscape:collect="always"
       xlink:href="#linearGradient3327"
       id="linearGradient3335"
       x1="11.375"
       y1="22"
       x2="11.375"
       y2="-9.817296"
       gradientUnits="userSpaceOnUse" />
    <linearGradient
       inkscape:collect="always"
       xlink:href="#linearGradient3700"
       id="linearGradient3181"
       x1="-3.0607977"
       y1="27.258198"
       x2="-3.0607977"
       y2="7.2536583"
       gradientUnits="userSpaceOnUse"
       gradientTransform="translate(12.119372,-7.2581977)" />
    <inkscape:perspective
       sodipodi:type="inkscape:persp3d"
       inkscape:vp_x="0 : 11 : 1"
       inkscape:vp_y="0 : 1000 : 0"
       inkscape:vp_z="22 : 11 : 1"
       inkscape:persp3d-origin="11 : 7.3333333 : 1"
       id="perspective2531" />
    <linearGradient
       id="ButtonShadow"
       gradientTransform="scale(0.9883037,1.0118347)"
       x1="9.3550024"
       y1="21.742682"
       x2="9.3550024"
       y2="0.49362123"
       gradientUnits="userSpaceOnUse">
      <stop
         id="stop3277"
         offset="0"
         style="stop-color:#000000;stop-opacity:0.70588237;" />
      <stop
         id="stop3279"
         offset="1"
         style="stop-color:#000000;stop-opacity:0.15686275;" />
    </linearGradient>
    <linearGradient
       inkscape:collect="always"
       id="linearGradient3232">
      <stop
         style="stop-color:#000000;stop-opacity:1;"
         offset="0"
         id="stop3234" />
      <stop
         style="stop-color:#000000;stop-opacity:0;"
         offset="1"
         id="stop3236" />
    </linearGradient>
    <linearGradient
       gradientUnits="userSpaceOnUse"
       y2="-6.0004225"
       x2="11"
       y1="14.805666"
       x1="11"
       id="linearGradient3221"
       xlink:href="#linearGradient3232"
       inkscape:collect="always" />
    <linearGradient
       id="ButtonColor"
       x1="10.31979"
       y1="21"
       x2="10.31979"
       y2="0.99929649"
       gradientUnits="userSpaceOnUse">
      <stop
         style="stop-color:#29669f;stop-opacity:1;"
         offset="0"
         id="stop3189" />
      <stop
         style="stop-color:#88b6e0;stop-opacity:1;"
         offset="1"
         id="stop3191" />
    </linearGradient>
    <linearGradient
       inkscape:collect="always"
       xlink:href="#ButtonShadow"
       id="linearGradient38042"
       gradientUnits="userSpaceOnUse"
       gradientTransform="scale(0.9883037,1.0118347)"
       x1="9.3550024"
       y1="21.742682"
       x2="9.3550024"
       y2="0.49362123" />
    <filter
       inkscape:collect="always"
       id="filter3194"
       x="-0.18000001"
       width="1.36"
       y="-0.18000001"
       height="1.36"
       color-interpolation-filters="sRGB">
      <feGaussianBlur
         inkscape:collect="always"
         stdDeviation="1.2"
         id="feGaussianBlur3196" />
    </filter>
    <clipPath
       clipPathUnits="userSpaceOnUse"
       id="clipPath2849">
      <rect
         ry="2"
         rx="2"
         y="1"
         x="1"
         height="20"
         width="20"
         id="rect2851"
         style="fill:#ffffff;fill-opacity:1;fill-rule:evenodd;stroke:none;display:inline" />
    </clipPath>
    <linearGradient
       y2="16"
       x2="10"
       y1="1"
       x1="10"
       gradientUnits="userSpaceOnUse"
       id="linearGradient3078"
       xlink:href="#linearGradient3823"
       inkscape:collect="always"
       gradientTransform="translate(1,-1)" />
    <linearGradient
       id="linearGradient3823">
      <stop
         id="stop3825"
         offset="0"
         style="stop-color:#ffffff;stop-opacity:1;" />
      <stop
         id="stop3829"
         offset="1"
         style="stop-color:#ffffff;stop-opacity:0;" />
    </linearGradient>
    <linearGradient
       inkscape:collect="always"
       xlink:href="#linearGradient3831"
       id="linearGradient3845"
       x1="11"
       y1="19.5"
       x2="21"
       y2="19.5"
       gradientUnits="userSpaceOnUse"
       spreadMethod="reflect"
       gradientTransform="translate(1,-1)" />
    <linearGradient
       id="linearGradient3831">
      <stop
         style="stop-color:#ffffff;stop-opacity:1;"
         offset="0"
         id="stop3833" />
      <stop
         id="stop3821"
         offset="0.75"
         style="stop-color:#ffffff;stop-opacity:0.49803922;" />
      <stop
         style="stop-color:#ffffff;stop-opacity:0;"
         offset="1"
         id="stop3835" />
    </linearGradient>
    <linearGradient
       y2="16"
       x2="10"
       y1="1"
       x1="10"
       gradientTransform="translate(1,-1)"
       gradientUnits="userSpaceOnUse"
       id="linearGradient3961"
       xlink:href="#linearGradient3823"
       inkscape:collect="always" />
    <linearGradient
       inkscape:collect="always"
       xlink:href="#linearGradient3700"
       id="linearGradient3617"
       gradientUnits="userSpaceOnUse"
       x1="48"
       y1="90"
       x2="48"
       y2="5.9877172" />
    <linearGradient
       id="linearGradient3700">
      <stop
         style="stop-color:#bebebe;stop-opacity:1;"
         offset="0"
         id="stop3702" />
      <stop
         style="stop-color:#dcdcdc;stop-opacity:1;"
         offset="1"
         id="stop3704" />
    </linearGradient>
    <linearGradient
       y2="80"
       x2="56"
       y1="16"
       x1="56"
       gradientTransform="matrix(0.29452874,0,0,0.29452874,-3.1373803,-3.7264369)"
       gradientUnits="userSpaceOnUse"
       id="linearGradient3782"
       xlink:href="#StandardGradient-3"
       inkscape:collect="always" />
    <linearGradient
       id="StandardGradient-3"
       gradientTransform="scale(0.9219544,1.0846523)"
       x1="11.998966"
       y1="0.92195445"
       x2="11.998966"
       y2="19.387045"
       gradientUnits="userSpaceOnUse">
      <stop
         style="stop-color:#000000;stop-opacity:0.86274511;"
         offset="0"
         id="stop3283-5" />
      <stop
         style="stop-color:#000000;stop-opacity:0.47058824;"
         offset="1"
         id="stop2651-2" />
    </linearGradient>
    <linearGradient
       inkscape:collect="always"
       xlink:href="#StandardGradient-3"
       id="linearGradient3048"
       gradientUnits="userSpaceOnUse"
       gradientTransform="matrix(0.24246106,0,0,0.24246106,30.361868,-2.1230529)"
       x1="56"
       y1="16"
       x2="56"
       y2="80" />
    <linearGradient
       inkscape:collect="always"
       xlink:href="#StandardGradient-3"
       id="linearGradient3824"
       gradientUnits="userSpaceOnUse"
       gradientTransform="matrix(0.29995182,0,0,0.28966015,-2.3976881,-1.6643405)"
       x1="56"
       y1="16"
       x2="56"
       y2="80" />
  </defs>
  <sodipodi:namedview
     id="base"
     pagecolor="#ffffff"
     bordercolor="#e7e7e7"
     borderopacity="1"
     inkscape:pageopacity="0.0"
     inkscape:pageshadow="2"
     inkscape:zoom="9.8712898"
     inkscape:cx="-23.077699"
     inkscape:cy="8.283539"
     inkscape:document-units="px"
     inkscape:current-layer="layer3"
     showgrid="true"
     inkscape:showpageshadow="false"
     showguides="false"
     inkscape:guide-bbox="true"
     inkscape:window-width="1920"
     inkscape:window-height="1030"
     inkscape:window-x="0"
     inkscape:window-y="25"
     inkscape:window-maximized="1"
     inkscape:snap-global="true">
    <sodipodi:guide
       orientation="1,0"
       position="0,112"
       id="guide2383" />
    <sodipodi:guide
       orientation="0,1"
       position="26.278146,128"
       id="guide2385" />
    <sodipodi:guide
       orientation="1,0"
       position="128,54.082119"
       id="guide2387" />
    <sodipodi:guide
       orientation="0,1"
       position="78.156291,0"
       id="guide2389" />
    <sodipodi:guide
       orientation="0,1"
       position="60.863576,64.084768"
       id="guide2391" />
    <inkscape:grid
       type="xygrid"
       id="grid3672"
       visible="true"
       enabled="true"
       empspacing="8"
       snapvisiblegridlinesonly="true" />
  </sodipodi:namedview>
  <metadata
     id="metadata7">
    <rdf:RDF>
      <cc:Work
         rdf:about="">
        <dc:format>image/svg+xml</dc:format>
        <dc:type
           rdf:resource="http://purl.org/dc/dcmitype/StillImage" />
        <dc:title />
      </cc:Work>
    </rdf:RDF>
  </metadata>
  <g
     inkscape:label="Button"
     inkscape:groupmode="layer"
     id="layer1"
     transform="translate(0,2)">
    <g
       style="display:inline"
       id="g3337"
       transform="translate(1,-1)">
      <rect
         ry="2.5"
         rx="2.5"
         y="0.5"
         x="0.5"
         height="21.5"
         width="21"
         id="rect3371"
         style="opacity:0.3;fill:url(#linearGradient3335);fill-opacity:1;stroke:none;display:inline" />
      <rect
         style="opacity:0.5;fill:#000000;fill-opacity:1;stroke:none;display:inline"
         id="rect2553"
         width="20"
         height="20"
         x="1"
         y="2"
         rx="2.3809524"
         ry="2.3255813" />
    </g>
    <rect
       style="fill:url(#linearGradient3181);fill-opacity:1.0;fill-rule:evenodd;stroke:none;display:inline"
       id="rect3173"
       width="20"
       height="20"
       x="2"
       y="0"
       rx="2"
       ry="2" />
    <path
       id="path3018"
       d="m -26,-1.8e-7 c -1.108,0 -2,0.89199998 -2,1.99999998 l 0,1 c 0,-1.108 0.892,-2 2,-2 l 16,0 c 1.108,0 2,0.892 2,2 l 0,-1 C -8,0.8919998 -8.892,-1.8e-7 -10,-1.8e-7 l -16,0 z"
       style="opacity:0.25;fill:#ffffff;fill-opacity:1;fill-rule:evenodd;stroke:none;display:inline"
       inkscape:connector-curvature="0" />
    <path
       style="opacity:0.15;fill:#000000;fill-opacity:1;fill-rule:evenodd;stroke:none;display:inline"
       d="m -26,19.999999 c -1.108,0 -2,-0.891999 -2,-1.999999 l 0,-1 c 0,1.108 0.892,2 2,2 l 16,0 c 1.108,0 2,-0.892 2,-2 l 0,1 c 0,1.108 -0.892,1.999999 -2,1.999999 l -16,0 z"
       id="path3020"
       inkscape:connector-curvature="0" />
    <path
       style="opacity:0.45;fill:url(#linearGradient3961);fill-opacity:1;fill-rule:evenodd;stroke:none;display:inline"
       d="M 4,0 C 2.892,0 2,0.892 2,2 l 0,16 c 0,1.108 0.892,2 2,2 l 16,0 c 1.108,0 2,-0.892 2,-2 L 22,2 C 22,0.892 21.108,0 20,0 L 4,0 z m 0,1.03125 16,0 c 0.5497,0 0.96875,0.4190495 0.96875,0.96875 l 0,16 c 0,0.5497 -0.41905,0.96875 -0.96875,0.96875 l -16,0 C 3.4502995,18.96875 3.03125,18.5497 3.03125,18 l 0,-16 C 3.03125,1.4502995 3.4502995,1.03125 4,1.03125 z"
       id="rect3050"
       inkscape:connector-curvature="0" />
    <path
       id="path3235"
       d="M 4,20 C 2.892,20 2,19.108 2,18 l 0,-1 c 0,1.108 0.892,2 2,2 l 16,0 c 1.108,0 2,-0.892 2,-2 l 0,1 c 0,1.108 -0.892,2 -2,2 L 4,20 z"
       style="opacity:0.2;fill:url(#linearGradient3845);fill-opacity:1;fill-rule:evenodd;stroke:none;display:inline"
       inkscape:connector-curvature="0" />
  </g>
  <g
     inkscape:groupmode="layer"
     id="layer2"
     inkscape:label="Highlight"
     transform="translate(0,2)"
     sodipodi:insensitive="true">
    <rect
       style="opacity:0.15;fill:#ffffff;fill-opacity:1;fill-rule:nonzero;stroke:none;display:inline;filter:url(#filter3194)"
       id="rect2410"
       width="16"
       height="16"
       x="3"
       y="3"
       rx="2"
       ry="2"
       clip-path="url(#clipPath2849)"
       transform="translate(1,-1)" />
  </g>
  <g
     inkscape:groupmode="layer"
     id="layer3"
     inkscape:label="Symbol"
     transform="translate(0,2)">
    <path
       style="fill:#ffffff;fill-opacity:1;stroke:none;display:inline;enable-background:new;opacity:0.25"
       d="M 12 4.03125 C 9.4400517 4.03125 7.25 5.9190071 7.25 8.375 A 0.97359367 0.97359367 0 0 0 7.25 8.40625 C 7.252338 8.5050126 7.2457313 8.6570735 7.25 8.78125 C 7.0944404 9.0561229 7.0107375 9.3644938 7 9.625 C 6.9808682 10.089165 7.1117491 10.547231 7.3125 11 C 7.4097722 11.219386 7.5412722 11.417975 7.6875 11.625 C 7.7167022 11.7387 7.7577884 11.865962 7.78125 11.96875 A 0.97359367 0.97359367 0 0 0 7.8125 12.0625 C 7.9517992 12.462525 8.1326278 12.767817 8.375 13.125 C 8.5599432 13.39755 8.7632664 13.668811 8.96875 13.9375 C 8.9840768 14.145413 8.9494539 14.36279 8.9375 14.5625 C 8.360651 14.906761 7.391149 15.276967 6.375 15.65625 C 5.7928452 15.873543 5.2439021 16.098437 4.75 16.40625 C 4.2953513 16.689599 3.827981 17.172734 3.75 17.875 L 3.6875 17.875 L 3.53125 18.84375 A 0.97359367 0.97359367 0 0 0 4.5 19.96875 L 19.5 19.96875 A 0.97359367 0.97359367 0 0 0 20.46875 18.84375 L 20.3125 17.875 L 20.25 17.875 C 20.199474 17.532129 20.084689 17.197764 19.90625 17 C 19.69587 16.766834 19.45913 16.610564 19.21875 16.46875 C 18.73799 16.185122 18.201309 15.973446 17.625 15.75 C 16.608308 15.355809 15.633272 14.929415 15.0625 14.5625 C 15.055992 14.397088 15.024811 14.232705 15.03125 14.0625 C 15.224622 13.774894 15.436757 13.490979 15.625 13.1875 C 15.865705 12.799444 16.048867 12.460615 16.1875 12.0625 A 0.97359367 0.97359367 0 0 0 16.21875 11.96875 C 16.268886 11.765898 16.287254 11.660556 16.3125 11.53125 C 16.435144 11.371719 16.54805 11.24403 16.65625 11 C 16.847186 10.569364 16.949804 10.126257 16.9375 9.6875 C 16.933122 9.5313804 16.76332 9.3855155 16.71875 9.21875 C 16.741594 8.9043938 16.742303 8.6227519 16.75 8.40625 A 0.97359367 0.97359367 0 0 0 16.75 8.375 C 16.750003 5.9190064 14.559949 4.03125 12 4.03125 z M 12 5 C 14.093502 5 15.781252 6.5046408 15.78125 8.375 C 15.772893 8.6100583 15.769986 8.8812209 15.75 9.15625 C 16.036034 9.3617631 16.061895 9.9607862 15.78125 10.59375 C 15.679954 10.822209 15.543468 10.995704 15.40625 11.15625 C 15.361847 11.354816 15.338404 11.518755 15.28125 11.75 C 15.125758 12.196529 14.527182 13.09511 14.0625 13.78125 C 14.03255 14.237579 14.03491 14.692946 14.09375 15.15625 C 15.54682 16.365747 19.33775 16.996084 19.34375 18.03125 L 19.5 19 L 4.5 19 L 4.65625 18.03125 C 4.650611 16.821753 8.4351468 16.324561 9.90625 15.15625 C 10.00878 14.583945 9.98848 14.096885 9.9375 13.59375 C 9.4264021 12.941541 8.8592056 12.153346 8.71875 11.75 C 8.6734093 11.551357 8.6312435 11.426104 8.59375 11.25 C 8.4366913 11.080867 8.3014568 10.850766 8.1875 10.59375 C 7.8919722 9.9272234 7.918684 9.2628153 8.25 9.09375 C 8.2267223 8.8271389 8.2238241 8.5893464 8.21875 8.375 C 8.21875 6.5046404 9.906499 5 12 5 z "
       transform="translate(0,-2)"
       id="path3841" />
    <path
       style="fill:url(#linearGradient3824);fill-opacity:1;stroke:none;display:inline;enable-background:new"
       d="M 11.999999,3 C 9.906498,3 8.21134,4.4896404 8.21134,6.36 8.2164141,6.5743464 8.2267249,6.8400555 8.2500026,7.1066666 7.9186866,7.2757319 7.8771524,7.9334734 8.1726802,8.6 8.286637,8.857016 8.4408795,9.0655332 8.5979382,9.2346666 8.6354317,9.4107709 8.6685769,9.55869 8.7139176,9.757333 c 0.1404556,0.403346 0.7260155,1.177124 1.2371134,1.829333 0.05098,0.503135 0.06387,0.995695 -0.03866,1.568 -1.4711032,1.168311 -5.2633676,1.665171 -5.2577286,2.874668 L 4.5,17 l 15,0 -0.15464,-0.970666 c -0.006,-1.035166 -3.804662,-1.665171 -5.257732,-2.874668 -0.05884,-0.463304 -0.06862,-0.925003 -0.03867,-1.381332 0.464682,-0.68614 1.081622,-1.569472 1.237114,-2.016001 C 15.343226,9.526088 15.357651,9.358566 15.402054,9.16 15.539272,8.999454 15.687356,8.8284587 15.788652,8.6 16.069297,7.9670362 16.036019,7.3495131 15.749985,7.144 15.769971,6.8689709 15.780295,6.5950583 15.788652,6.36 15.788654,4.4896408 14.093494,3 11.999992,3 z"
       id="path3798"
       inkscape:connector-curvature="0" />
    <path
       id="path3042"
       d="m 41.999996,1.7678444 c -1.692247,0 -3.064083,1.269162 -3.064083,2.8347532 0.0041,0.1794194 0.0067,0.3842788 0.02554,0.6074467 -0.267812,0.1415167 -0.30272,0.6949403 -0.06384,1.2528588 0.09211,0.2151362 0.217754,0.3899416 0.344709,0.5315154 0.0042,0.00474 0.0085,0.00802 0.01277,0.012639 0.0303,0.1474087 0.05272,0.2639997 0.08937,0.4302747 0.113535,0.3376218 0.582692,0.9726834 0.995829,1.5186178 0.04121,0.4211498 0.04458,0.8370868 -0.0383,1.316137 -1.189145,0.977938 -4.230437,1.417374 -4.225879,2.429787 l -0.408543,2.632269 c 0,0.539305 0.812764,1.033096 2.106558,1.366756 l 0.178738,0.721344 a 0.44494565,0.44104686 0 0 0 0.280872,0.291069 c 0.05743,0.02203 0.09795,0.0686 0.25534,0.113894 0.829068,0.23859 2.091469,0.404963 3.510929,0.404963 1.419458,0 2.694627,-0.166373 3.523696,-0.404963 0.157386,-0.04529 0.197914,-0.09188 0.255339,-0.113894 a 0.44494565,0.44104686 0 0 0 0.268108,-0.278413 l 0.217039,-0.759311 c 1.262183,-0.33313 2.068256,-0.809734 2.068256,-1.341445 l -0.408549,-2.632267 c -0.0048,-0.866489 -3.064084,-1.417376 -4.238649,-2.429789 -0.04756,-0.3878114 -0.04975,-0.7696443 -0.02553,-1.1516166 0.375618,-0.5743358 0.870138,-1.3093674 0.995827,-1.6831355 0.04619,-0.1935646 0.06625,-0.3273403 0.102141,-0.4935507 0.110919,-0.1343856 0.21176,-0.2896628 0.293641,-0.480895 0.226855,-0.5298246 0.205675,-1.0428685 -0.02553,-1.214894 0.01616,-0.2302141 0.03154,-0.448656 0.03829,-0.6454124 2e-6,-1.5655909 -1.371834,-2.8347525 -3.064081,-2.8347525 z"
       style="fill:url(#linearGradient3048);fill-opacity:1;stroke:none;display:inline;enable-background:new"
       inkscape:connector-curvature="0" />
    <path
       inkscape:transform-center-y="-1.2991396"
       id="path3044"
       d="m 42,1.7678302 c -1.692247,0 -3.061338,1.264217 -3.061338,2.8298084 0.0038,0.1644936 0.01083,0.3641967 0.02573,0.5659616 0.143935,-1.4418021 1.43959,-2.572553 3.035608,-2.572553 1.596018,0 2.891674,1.1307513 3.035613,2.572553 0.01396,-0.2000244 0.01978,-0.3927784 0.02573,-0.5659616 C 45.06134,3.0320476 43.692247,1.7678302 42,1.7678302 z m -3.035613,3.4472211 c -0.226114,0.1194833 -0.2849,0.5417616 -0.154353,1.0032957 0.0372,-0.080502 0.0874,-0.1446995 0.154353,-0.1800787 -0.01882,-0.223168 -0.02162,-0.4379934 -0.02573,-0.6174128 0,-0.071382 0.02012,-0.1357469 0.02573,-0.2058042 z m 6.071226,0.051451 c 0.0033,0.053 0.02573,0.1006161 0.02573,0.1543532 -0.0068,0.1967564 -0.0096,0.4129242 -0.02573,0.6431383 0.04416,0.032858 0.07433,0.09887 0.102902,0.1543532 0.12241,-0.4231715 0.07881,-0.798455 -0.102902,-0.9518447 z m -4.682047,4.6563211 c -0.01074,0.1172906 -0.02989,0.2355266 -0.05145,0.3601586 -1.189147,0.977937 -4.223548,1.405786 -4.21899,2.418198 l -0.411608,2.624005 c 0,0.09922 0.02422,0.213276 0.07718,0.308706 l 0.334431,-2.109494 c -0.0046,-1.012412 3.029843,-1.440261 4.218987,-2.418199 0.07288,-0.421168 0.07902,-0.813342 0.05144,-1.1833748 z m 3.318594,0.051451 c -0.02248,0.3733066 -0.02076,0.7529096 0.02573,1.1319236 1.174565,1.012414 4.21413,1.551711 4.218988,2.418199 l 0.334431,2.083769 c 0.04875,-0.09035 0.07717,-0.188675 0.07717,-0.282981 L 47.916876,12.70118 c -0.0048,-0.866487 -3.044423,-1.405785 -4.218988,-2.418198 -0.01241,-0.101134 -0.01915,-0.208275 -0.02573,-0.3087075 z"
       style="opacity:0.5;fill:#000000;fill-opacity:1;stroke:none;display:inline;enable-background:new"
       inkscape:connector-curvature="0" />
    <path
       inkscape:transform-center-y="2.636867"
       id="path3046"
       d="m 38.810034,6.218347 c -0.111603,0.2415052 -0.101987,0.6620333 0.07718,1.0804723 0.09211,0.2151361 0.233202,0.3729366 0.360158,0.5145106 0.0042,0.00474 -0.0043,0.021105 0,0.025725 0.0303,0.1474086 0.06625,0.2453337 0.102902,0.4116085 0.113535,0.3376219 0.564434,0.9718719 0.977569,1.5178063 0.0049,0.050883 0.02194,0.103499 0.02573,0.1543532 0.03055,-0.3335445 0.0047,-0.6659882 -0.02573,-0.9775701 -0.413136,-0.5459341 -0.864035,-1.180184 -0.97757,-1.5178059 -0.03665,-0.1662749 -0.0726,-0.2641998 -0.102902,-0.4116085 -0.0043,-0.00462 0.0042,-0.020984 0,-0.025725 -0.126955,-0.1415745 -0.268042,-0.2993749 -0.360157,-0.5145111 -0.03719,-0.086864 -0.0531,-0.1721462 -0.07718,-0.2572553 z m 6.328481,0 c -0.02362,0.081639 -0.04132,0.1734963 -0.07717,0.2572553 -0.08188,0.1912323 -0.197787,0.328674 -0.308706,0.4630595 -0.03588,0.1662105 -0.0567,0.2952206 -0.102903,0.4887851 -0.125689,0.3737681 -0.601952,1.1235496 -0.977569,1.6978851 -0.01738,0.2741172 -0.01682,0.5469824 0,0.8232169 0.375617,-0.5743354 0.85188,-1.3241169 0.977569,-1.6978849 0.04619,-0.1935647 0.06703,-0.3225748 0.102903,-0.4887851 0.110919,-0.1343856 0.226825,-0.2718274 0.308706,-0.4630596 0.183524,-0.4286221 0.198192,-0.8454836 0.07717,-1.0804723 z m 3.112789,9.389819 c -0.226167,0.419036 -0.942551,0.780702 -1.980866,1.054746 l -0.23153,0.771767 a 0.44494565,0.44104686 0 0 1 -0.257255,0.28298 c -0.05743,0.02202 -0.09987,0.05761 -0.257256,0.102902 -0.829068,0.23859 -2.104938,0.411608 -3.524397,0.411608 -1.41946,0 -2.669603,-0.173018 -3.498672,-0.411608 -0.157387,-0.04529 -0.199829,-0.08087 -0.257255,-0.102902 a 0.44494565,0.44104686 0 0 1 -0.282981,-0.28298 l -0.180079,-0.746041 c -1.05575,-0.272271 -1.797429,-0.631501 -2.032317,-1.054747 l -0.07718,0.51451 c 0,0.539305 0.8157,1.029794 2.109494,1.363454 l 0.180078,0.746041 a 0.44494565,0.44104686 0 0 0 0.282981,0.282979 c 0.05743,0.02203 0.09987,0.05761 0.257255,0.102903 0.829069,0.23859 2.079213,0.411609 2.471621,0.411609 2.44651,0 3.72238,-0.173019 4.551448,-0.411609 0.157387,-0.04529 0.199831,-0.08089 0.257256,-0.102903 a 0.44494565,0.44104686 0 0 0 0.257255,-0.282979 l 0.23153,-0.771766 c 1.262183,-0.33313 2.058042,-0.806017 2.058042,-1.337729 l -0.07717,-0.540235 z"
       style="opacity:0.4;fill:#ffffff;fill-opacity:1;stroke:none;display:inline;enable-background:new"
       inkscape:connector-curvature="0" />
    <path
       style="fill:#ffffff;fill-opacity:1;stroke:none;display:inline;enable-background:new;opacity:0.29999999999999999"
       d="M 8.0625 10.3125 C 7.9248974 10.600058 7.9658542 11.093855 8.1875 11.59375 C 8.3014568 11.850766 8.4366913 12.080866 8.59375 12.25 C 8.631244 12.426104 8.6734096 12.551357 8.71875 12.75 C 8.8592056 13.153346 9.4264021 13.941541 9.9375 14.59375 C 9.9427738 14.645798 9.9331271 14.698078 9.9375 14.75 C 9.9749523 14.345759 9.9757908 13.971652 9.9375 13.59375 C 9.4264021 12.941541 8.8592056 12.153346 8.71875 11.75 C 8.6734096 11.551357 8.631244 11.426104 8.59375 11.25 C 8.4366913 11.080866 8.3014568 10.850766 8.1875 10.59375 C 8.1449926 10.49788 8.0912014 10.406579 8.0625 10.3125 z M 15.875 10.3125 C 15.846823 10.405411 15.823347 10.498805 15.78125 10.59375 C 15.679954 10.822209 15.543468 10.995704 15.40625 11.15625 C 15.361848 11.354816 15.3384 11.518755 15.28125 11.75 C 15.125758 12.196529 14.527182 13.09511 14.0625 13.78125 C 14.040713 14.113211 14.038646 14.445055 14.0625 14.78125 C 14.527182 14.09511 15.125758 13.196529 15.28125 12.75 C 15.3384 12.518755 15.361848 12.354816 15.40625 12.15625 C 15.543468 11.995704 15.679954 11.822209 15.78125 11.59375 C 16.009748 11.078398 16.029692 10.593341 15.875 10.3125 z M 4.65625 19 C 4.6557219 19.010475 4.6562007 19.020667 4.65625 19.03125 L 4.5 20 L 19.5 20 L 19.34375 19.03125 C 19.343689 19.020758 19.344584 19.010409 19.34375 19 L 4.65625 19 z "
       transform="translate(0,-2)"
       id="path3826" />
    <path
       style="fill:#000000;fill-opacity:1;stroke:none;display:inline;enable-background:new;opacity:0.1"
       d="M 12 5 C 9.906499 5 8.21875 6.5046404 8.21875 8.375 C 8.2238241 8.5893464 8.2267223 8.8271389 8.25 9.09375 C 7.918684 9.2628153 7.8919722 9.9272234 8.1875 10.59375 C 8.3014568 10.850766 8.4366913 11.080867 8.59375 11.25 C 8.6312435 11.426104 8.6734093 11.551357 8.71875 11.75 C 8.8592056 12.153346 9.4264021 12.941541 9.9375 13.59375 C 9.98848 14.096885 10.00878 14.583945 9.90625 15.15625 C 8.4351468 16.324561 4.650611 16.821753 4.65625 18.03125 L 4.5 19 L 19.5 19 L 19.34375 18.03125 C 19.33775 16.996084 15.54682 16.365747 14.09375 15.15625 C 14.03491 14.692946 14.03255 14.237579 14.0625 13.78125 C 14.527182 13.09511 15.125758 12.196529 15.28125 11.75 C 15.338404 11.518755 15.361847 11.354816 15.40625 11.15625 C 15.543468 10.995704 15.679954 10.822209 15.78125 10.59375 C 16.061895 9.9607862 16.036034 9.3617631 15.75 9.15625 C 15.769986 8.8812209 15.772893 8.6100583 15.78125 8.375 C 15.781252 6.5046408 14.093502 5 12 5 z M 12 6.03125 C 13.579719 6.03125 14.732332 7.1149653 14.75 8.34375 C 14.750139 8.3534225 14.75 8.3653083 14.75 8.375 C 14.741748 8.6193461 14.734961 8.870672 14.71875 9.09375 A 1.0464399 1.0464399 0 0 0 14.90625 9.8125 C 14.90002 9.8899467 14.884488 9.9938884 14.8125 10.15625 C 14.772806 10.245775 14.742969 10.330725 14.625 10.46875 A 1.0464399 1.0464399 0 0 0 14.375 10.9375 C 14.330168 11.137985 14.313236 11.261285 14.28125 11.40625 C 14.274671 11.436066 14.257763 11.468592 14.25 11.5 C 14.207338 11.591785 14.093274 11.823486 13.90625 12.125 C 13.693636 12.467769 13.417891 12.84731 13.1875 13.1875 A 1.0464399 1.0464399 0 0 0 13.03125 13.71875 C 12.998086 14.224056 12.993305 14.736407 13.0625 15.28125 A 1.0464399 1.0464399 0 0 0 13.4375 15.96875 C 14.439218 16.802553 15.769068 17.19621 16.875 17.625 C 17.191687 17.747785 17.379783 17.858021 17.625 17.96875 L 6.15625 17.96875 C 6.4199055 17.837928 6.6951819 17.711268 7.09375 17.5625 C 8.1854562 17.155014 9.5413636 16.779709 10.5625 15.96875 A 1.0464399 1.0464399 0 0 0 10.9375 15.34375 C 11.06243 14.646415 11.023749 14.0428 10.96875 13.5 A 1.0464399 1.0464399 0 0 0 10.75 12.9375 C 10.504764 12.624556 10.265183 12.298694 10.0625 12 C 9.8598168 11.701306 9.7147383 11.39473 9.71875 11.40625 C 9.6826485 11.263495 9.6439478 11.120247 9.625 11.03125 A 1.0464399 1.0464399 0 0 0 9.375 10.53125 C 9.336146 10.489409 9.2396737 10.344402 9.15625 10.15625 C 9.0782494 9.9803292 9.0679708 9.8351394 9.0625 9.75 A 1.0464399 1.0464399 0 0 0 9.28125 9 C 9.262921 8.7900686 9.2548706 8.5863772 9.25 8.375 C 9.249757 8.3644562 9.2502511 8.3543558 9.25 8.34375 C 9.2676689 7.1149638 10.420282 6.03125 12 6.03125 z "
       transform="translate(0,-2)"
       id="path3855" />
    <path
       style="fill:#000000;fill-opacity:1;stroke:none;display:inline;enable-background:new;opacity:0.4"
       d="M 12 5 C 9.906499 5 8.21875 6.5046404 8.21875 8.375 C 8.2236039 8.5800446 8.2287951 8.8076246 8.25 9.0625 C 8.4278716 7.3427167 10.025545 6 12 6 C 13.974456 6 15.57213 7.342717 15.75 9.0625 C 15.765651 8.8211339 15.773894 8.5818964 15.78125 8.375 C 15.781252 6.5046408 14.093502 5 12 5 z M 8.25 9.09375 C 7.9708776 9.2361817 7.9020073 9.7320894 8.0625 10.28125 C 8.1074346 10.196821 8.1739922 10.132536 8.25 10.09375 C 8.2267223 9.8271389 8.2238241 9.5893464 8.21875 9.375 C 8.21875 9.2791824 8.2412766 9.1874201 8.25 9.09375 z M 15.75 9.1875 C 15.753942 9.2507559 15.78125 9.3108022 15.78125 9.375 C 15.77289 9.6100583 15.76999 9.8812209 15.75 10.15625 C 15.803149 10.194437 15.839697 10.248408 15.875 10.3125 C 16.030225 9.8006507 15.976458 9.3732458 15.75 9.1875 z M 9.9375 14.75 C 9.9250887 14.883961 9.9317702 15.0138 9.90625 15.15625 C 8.4351468 16.324561 4.650611 16.821753 4.65625 18.03125 L 4.5 19 L 4.65625 19 C 4.7160777 17.813343 8.448019 17.314338 9.90625 16.15625 C 9.9981734 15.643149 9.9753988 15.199992 9.9375 14.75 z M 14.0625 14.8125 C 14.034995 15.258715 14.036245 15.703454 14.09375 16.15625 C 15.532093 17.353489 19.262336 17.983355 19.34375 19 L 19.5 19 L 19.34375 18.03125 C 19.33775 16.996084 15.54682 16.365747 14.09375 15.15625 C 14.07904 15.040424 14.071223 14.928067 14.0625 14.8125 z "
       transform="translate(0,-2)"
       id="path3846" />
  </g>
</svg>
