<?xml version="1.0" encoding="UTF-8" standalone="no"?>
<!-- Created with Inkscape (http://www.inkscape.org/) -->

<svg
   xmlns:dc="http://purl.org/dc/elements/1.1/"
   xmlns:cc="http://creativecommons.org/ns#"
   xmlns:rdf="http://www.w3.org/1999/02/22-rdf-syntax-ns#"
   xmlns:svg="http://www.w3.org/2000/svg"
   xmlns="http://www.w3.org/2000/svg"
   xmlns:xlink="http://www.w3.org/1999/xlink"
   xmlns:sodipodi="http://sodipodi.sourceforge.net/DTD/sodipodi-0.dtd"
   xmlns:inkscape="http://www.inkscape.org/namespaces/inkscape"
   width="22"
   height="22"
   id="svg2"
   sodipodi:version="0.32"
   inkscape:version="0.48.1 r9760"
   version="1.0"
   sodipodi:docname="krb-expiring-ticket.svg"
   inkscape:output_extension="org.inkscape.output.svg.inkscape"
   style="display:inline"
   inkscape:export-filename="/home/matthieu/Eye-Candy/Faience/0.1/sources/status/small/audio-volume-high.png"
   inkscape:export-xdpi="90"
   inkscape:export-ydpi="90">
  <defs
     id="defs4">
    <linearGradient
       id="StandardGradient"
       gradientTransform="scale(0.9219544,1.0846523)"
       x1="11.998966"
       y1="0.92195445"
       x2="11.998966"
       y2="19.387045"
       gradientUnits="userSpaceOnUse">
      <stop
         style="stop-color:#000000;stop-opacity:0.23529412;"
         offset="0"
         id="stop3283-1" />
      <stop
         id="stop3850"
         offset="0.69999999"
         style="stop-color:#000000;stop-opacity:0.39215686;" />
      <stop
         style="stop-color:#000000;stop-opacity:0.55;"
         offset="1"
         id="stop2651" />
    </linearGradient>
    <linearGradient
       id="SpecificGradient"
       x1="10.406627"
       y1="2"
       x2="10.406627"
       y2="18.000771"
       gradientUnits="userSpaceOnUse">
      <stop
         style="stop-color:#e64b36;stop-opacity:1;"
         offset="0"
         id="stop3292" />
      <stop
         style="stop-color:#a31414;stop-opacity:1;"
         offset="1"
         id="stop3294" />
    </linearGradient>
    <radialGradient
       inkscape:collect="always"
       xlink:href="#StandardGradient"
       id="radialGradient3851"
       cx="36"
       cy="2"
       fx="36"
       fy="2"
       r="4"
       gradientUnits="userSpaceOnUse" />
    <radialGradient
       inkscape:collect="always"
       xlink:href="#SpecificGradient"
       id="radialGradient3855"
       gradientUnits="userSpaceOnUse"
       cx="36"
       cy="2"
       fx="36"
       fy="2"
       r="4"
       gradientTransform="translate(0,10)" />
    <radialGradient
       inkscape:collect="always"
       xlink:href="#StandardGradient"
       id="radialGradient3827"
       cx="13"
       cy="12.499498"
       fx="13"
       fy="12.499498"
       r="9.0085821"
       gradientTransform="matrix(1.6650789,0,0,0.77703685,-8.6460257,2.2874294)"
       gradientUnits="userSpaceOnUse" />
    <radialGradient
       inkscape:collect="always"
       xlink:href="#SpecificGradient"
       id="radialGradient3817"
       cx="13"
       cy="11.735294"
       fx="13"
       fy="11.735294"
       r="4"
       gradientTransform="matrix(3.75,0,0,2.2500001,-35.75,-14.404413)"
       gradientUnits="userSpaceOnUse" />
    <radialGradient
       inkscape:collect="always"
       xlink:href="#StandardGradient"
       id="radialGradient3823"
       gradientUnits="userSpaceOnUse"
       gradientTransform="matrix(3.75,0,0,2.2500001,-35.75,-14.404413)"
       cx="13"
       cy="11.735294"
       fx="13"
       fy="11.735294"
       r="4" />
    <radialGradient
       inkscape:collect="always"
       xlink:href="#StandardGradient"
       id="radialGradient3828"
       gradientUnits="userSpaceOnUse"
       gradientTransform="matrix(3.75,0,0,2.2500001,-35.75,-14.404413)"
       cx="13"
       cy="11.735294"
       fx="13"
       fy="11.735294"
       r="4" />
    <radialGradient
       inkscape:collect="always"
       xlink:href="#StandardGradient"
       id="radialGradient3830"
       gradientUnits="userSpaceOnUse"
       gradientTransform="matrix(3.75,0,0,2.2500001,-35.75,-14.404413)"
       cx="13"
       cy="11.735294"
       fx="13"
       fy="11.735294"
       r="4" />
  </defs>
  <sodipodi:namedview
     id="base"
     pagecolor="#818181"
     bordercolor="#ffcfcf"
     borderopacity="1"
     inkscape:pageopacity="1"
     inkscape:pageshadow="2"
     inkscape:zoom="16.056739"
     inkscape:cx="-7.9767046"
     inkscape:cy="5.0218982"
     inkscape:document-units="px"
     inkscape:current-layer="layer1"
     showgrid="true"
     inkscape:showpageshadow="false"
     showguides="true"
     inkscape:guide-bbox="true"
     inkscape:window-width="1920"
     inkscape:window-height="1030"
     inkscape:window-x="0"
     inkscape:window-y="25"
     inkscape:window-maximized="1"
     borderlayer="true"
     inkscape:snap-global="true">
    <sodipodi:guide
       orientation="0,1"
       position="26.278146,128"
       id="guide2385" />
    <sodipodi:guide
       orientation="1,0"
       position="128,54.082119"
       id="guide2387" />
    <sodipodi:guide
       orientation="0,1"
       position="60.863576,64.084768"
       id="guide2391" />
    <inkscape:grid
       type="xygrid"
       id="grid3672"
       visible="true"
       enabled="true"
       empspacing="8"
       snapvisiblegridlinesonly="true" />
    <sodipodi:guide
       orientation="1,0"
       position="13,6"
       id="guide3013" />
    <sodipodi:guide
       orientation="0,1"
       position="18,10"
       id="guide3015" />
  </sodipodi:namedview>
  <metadata
     id="metadata7">
    <rdf:RDF>
      <cc:Work
         rdf:about="">
        <dc:format>image/svg+xml</dc:format>
        <dc:type
           rdf:resource="http://purl.org/dc/dcmitype/StillImage" />
        <dc:title />
      </cc:Work>
    </rdf:RDF>
  </metadata>
  <g
     inkscape:label="Icon"
     inkscape:groupmode="layer"
     id="layer1"
     style="display:inline">
    <rect
       style="opacity:0.80000000000000004;color:#000000;fill:url(#radialGradient3851);fill-opacity:1;fill-rule:nonzero;stroke:none;stroke-width:2;stroke-linecap:round;stroke-linejoin:round;stroke-miterlimit:4;stroke-opacity:1;stroke-dasharray:none;stroke-dashoffset:8.59999999999999787;marker:none;visibility:visible;display:inline;overflow:visible;enable-background:accumulate"
       id="rect3841"
       width="8"
       height="8"
       x="32"
       y="-2" />
    <rect
       y="8"
       x="32"
       height="8"
       width="8"
       id="rect3853"
       style="opacity:0.80000000000000004;color:#000000;fill:url(#radialGradient3855);fill-opacity:1.0;fill-rule:nonzero;stroke:none;stroke-width:2;marker:none;visibility:visible;display:inline;overflow:visible;enable-background:accumulate" />
    <path
       inkscape:connector-curvature="0"
       style="opacity:0.05;color:#000000;fill:#ffffff;fill-opacity:1;fill-rule:nonzero;stroke:none;stroke-width:1;marker:none;visibility:visible;display:inline;overflow:visible;enable-background:accumulate"
       d="M 11,2 C 8.2538357,2 6,4.2538357 6,7 6,8.5842467 6.8460289,9.9045106 8,10.8125 L 8,18 a 0.99378074,0.99378074 0 0 0 0.3125,0.6875 l 2,2 a 0.99378074,0.99378074 0 0 0 1.375,0 l 2,-2 A 0.99378074,0.99378074 0 0 0 14,18 l 0,-1 A 0.99378074,0.99378074 0 0 0 13.6875,16.3125 L 13.375,16 13.6875,15.6875 A 0.99378074,0.99378074 0 0 0 14,15 l 0,-1 A 0.99378074,0.99378074 0 0 0 13.6875,13.3125 L 13.375,13 13.6875,12.6875 A 0.99378074,0.99378074 0 0 0 14,12 l 0,-1.1875 C 15.153971,9.9045107 16,8.5842468 16,7 16,4.2538357 13.746164,2 11,2 z m 0,1 c 2.209139,0 4,1.790861 4,4 0,1.4792085 -0.806209,2.7454149 -2,3.4375 L 13,12 l -1,1 1,1 0,1 -1,1 1,1 0,1 -2,2 -2,-2 0,-7.5625 C 7.8062088,9.7454149 7,8.4792085 7,7 7,4.790861 8.790861,3 11,3 z m 0,2 c -0.552285,0 -1,0.4477153 -1,1 0,0.5522847 0.447715,1 1,1 0.552285,0 1,-0.4477153 1,-1 0,-0.5522847 -0.447715,-1 -1,-1 z"
       id="path3963" />
    <path
       inkscape:connector-curvature="0"
       style="color:#000000;fill:url(#radialGradient3817);fill-opacity:1.0;fill-rule:nonzero;stroke:none;stroke-width:1;marker:none;visibility:visible;display:inline;overflow:visible;enable-background:accumulate"
       d="M 11,3 C 8.790861,3 7,4.790861 7,7 7,8.4792085 7.8062088,9.7454149 9,10.4375 L 9,18 l 2,2 2,-2 0,-1 -1,-1 1,-1 0,-1 -1,-1 1,-1 0,-1.5625 C 14.193791,9.7454149 15,8.4792085 15,7 15,4.790861 13.209139,3 11,3 z m 0,2 c 0.552285,0 1,0.4477153 1,1 0,0.5522847 -0.447715,1 -1,1 -0.552285,0 -1,-0.4477153 -1,-1 0,-0.5522847 0.447715,-1 1,-1 z"
       id="path3745"
       sodipodi:nodetypes="cscccccccccccsccsssc" />
    <path
       style="color:#000000;fill:#000000;fill-opacity:1;fill-rule:nonzero;stroke:none;stroke-width:1;marker:none;visibility:visible;display:inline;overflow:visible;enable-background:accumulate;opacity:0.25"
       d="M 11 3 C 8.790861 3 7 4.790861 7 7 C 7 8.4792085 7.8062088 9.7454149 9 10.4375 L 9 18 L 11 20 L 13 18 L 13 17 L 12 16 L 13 15 L 13 14 L 12 13 L 13 12 L 13 10.4375 C 14.193791 9.7454149 15 8.4792085 15 7 C 15 4.790861 13.209139 3 11 3 z M 11 3.53125 C 12.930242 3.53125 14.46875 5.0697585 14.46875 7 C 14.46875 8.2916987 13.794728 9.394332 12.75 10 A 0.51610785 0.51610785 0 0 0 12.46875 10.4375 L 12.46875 11.78125 L 11.625 12.625 A 0.51610785 0.51610785 0 0 0 11.625 13.375 L 12.46875 14.21875 L 12.46875 14.78125 L 11.625 15.625 A 0.51610785 0.51610785 0 0 0 11.625 16.375 L 12.46875 17.21875 L 12.46875 17.78125 L 11 19.25 L 9.53125 17.78125 L 9.53125 10.4375 A 0.51610785 0.51610785 0 0 0 9.25 10 C 8.2052714 9.394332 7.53125 8.2916987 7.53125 7 C 7.53125 5.0697585 9.0697585 3.53125 11 3.53125 z M 11 4.46875 C 10.168818 4.46875 9.46875 5.1688179 9.46875 6 C 9.46875 6.8311821 10.168818 7.53125 11 7.53125 C 11.831182 7.53125 12.53125 6.8311821 12.53125 6 C 12.53125 5.1688179 11.831182 4.46875 11 4.46875 z M 11 5 C 11.552285 5 12 5.4477153 12 6 C 12 6.5522847 11.552285 7 11 7 C 10.447715 7 10 6.5522847 10 6 C 10 5.4477153 10.447715 5 11 5 z "
       id="path3819" />
    <path
       inkscape:connector-curvature="0"
       style="opacity:0.25;color:#000000;fill:#000000;fill-opacity:1;fill-rule:nonzero;stroke:none;stroke-width:1;marker:none;visibility:visible;display:inline;overflow:visible;enable-background:accumulate"
       d="M 11,3 C 8.790861,3 7,4.790861 7,7 7,7.205513 7.0012485,7.3974285 7.03125,7.59375 7.2352743,5.5758781 8.9283275,4 11,4 13.071673,4 14.764726,5.5758781 14.96875,7.59375 14.998751,7.3974285 15,7.205513 15,7 15,4.790861 13.209139,3 11,3 z M 10.15625,6.5 C 10.066631,6.649872 10,6.8126805 10,7 10,7.5522847 10.447715,8 11,8 11.552285,8 12,7.5522847 12,7 12,6.8126805 11.933369,6.649872 11.84375,6.5 11.669139,6.792004 11.364965,7 11,7 10.635035,7 10.330861,6.792004 10.15625,6.5 z M 12.5,13.5 12,14 l 1,1 0,-1 -0.5,-0.5 z m 0,3 -0.5,0.5 1,1 0,-1 -0.5,-0.5 z"
       id="path3939" />
    <path
       inkscape:connector-curvature="0"
       style="opacity:0.2;color:#000000;fill:#ffffff;fill-opacity:1;fill-rule:nonzero;stroke:none;stroke-width:1;marker:none;visibility:visible;display:inline;overflow:visible;enable-background:accumulate"
       d="m 11,5 c -0.552285,0 -1,0.4477153 -1,1 0,0.1873195 0.06663,0.350128 0.15625,0.5 C 10.330861,6.207996 10.635035,6 11,6 11.364965,6 11.669139,6.207996 11.84375,6.5 11.933369,6.350128 12,6.1873195 12,6 12,5.4477153 11.552285,5 11,5 z M 7.03125,7.59375 C 7.0177119,7.7276465 7,7.8625335 7,8 c 0,1.4792085 0.8062088,2.745415 2,3.4375 l 0,-1 C 7.9720675,9.8415694 7.2171882,8.8104798 7.03125,7.59375 z m 7.9375,0 C 14.782812,8.8104798 14.027932,9.8415694 13,10.4375 l 0,1 C 14.193791,10.745415 15,9.4792085 15,8 15,7.8625335 14.982288,7.7276465 14.96875,7.59375 z M 13,12 12,13 12.5,13.5 13,13 13,12 z m 0,3 -1,1 0.5,0.5 0.5,-0.5 0,-1 z m -4,3 0,1 2,2 2,-2 0,-1 -2,2 -2,-2 z"
       id="path3948" />
  </g>
</svg>
