<?xml version="1.0" encoding="UTF-8" standalone="no"?>
<!-- Created with Inkscape (http://www.inkscape.org/) -->

<svg
   xmlns:dc="http://purl.org/dc/elements/1.1/"
   xmlns:cc="http://creativecommons.org/ns#"
   xmlns:rdf="http://www.w3.org/1999/02/22-rdf-syntax-ns#"
   xmlns:svg="http://www.w3.org/2000/svg"
   xmlns="http://www.w3.org/2000/svg"
   xmlns:xlink="http://www.w3.org/1999/xlink"
   xmlns:sodipodi="http://sodipodi.sourceforge.net/DTD/sodipodi-0.dtd"
   xmlns:inkscape="http://www.inkscape.org/namespaces/inkscape"
   width="22"
   height="22"
   id="svg2"
   sodipodi:version="0.32"
   inkscape:version="0.48.1 r9760"
   version="1.0"
   sodipodi:docname="network-transmit.svg"
   inkscape:output_extension="org.inkscape.output.svg.inkscape"
   style="display:inline"
   inkscape:export-filename="/home/matthieu/Eye-Candy/Faience/0.1/sources/status/small/audio-volume-high.png"
   inkscape:export-xdpi="90"
   inkscape:export-ydpi="90">
  <defs
     id="defs4">
    <linearGradient
       id="StandardGradient"
       gradientTransform="scale(0.9219544,1.0846523)"
       x1="11.998966"
       y1="0.92195445"
       x2="11.998966"
       y2="19.387045"
       gradientUnits="userSpaceOnUse">
      <stop
         style="stop-color:#000000;stop-opacity:0.23529412;"
         offset="0"
         id="stop3283-1" />
      <stop
         id="stop3850"
         offset="0.69999999"
         style="stop-color:#000000;stop-opacity:0.39215686;" />
      <stop
         style="stop-color:#000000;stop-opacity:0.55;"
         offset="1"
         id="stop2651" />
    </linearGradient>
    <radialGradient
       inkscape:collect="always"
       xlink:href="#SpecificGradient"
       id="radialGradient3846"
       gradientUnits="userSpaceOnUse"
       gradientTransform="matrix(1.6666667,0,0,0.66666667,-8.6666667,3.6666667)"
       cx="13"
       cy="12.5"
       fx="13"
       fy="12.5"
       r="9" />
    <linearGradient
       id="SpecificGradient"
       x1="10.406627"
       y1="2"
       x2="10.406627"
       y2="18.000771"
       gradientUnits="userSpaceOnUse">
      <stop
         style="stop-color:#e64b36;stop-opacity:1;"
         offset="0"
         id="stop3292" />
      <stop
         style="stop-color:#a31414;stop-opacity:1;"
         offset="1"
         id="stop3294" />
    </linearGradient>
    <linearGradient
       y2="10.015271"
       x2="7.3589039"
       y1="21.007164"
       x1="7.3589039"
       gradientTransform="matrix(-1,0,0,-1,21.954435,22.02535)"
       gradientUnits="userSpaceOnUse"
       id="linearGradient2965"
       xlink:href="#StandardGradient-3"
       inkscape:collect="always" />
    <linearGradient
       id="StandardGradient-3"
       gradientTransform="matrix(0.9984539,0,0,0.9984539,-0.0459776,0.05767558)"
       x1="10.710332"
       y1="1.9963325"
       x2="10.710332"
       y2="18.974037"
       gradientUnits="userSpaceOnUse">
      <stop
         style="stop-color:#000000;stop-opacity:0.86274511;"
         offset="0"
         id="stop3277-3" />
      <stop
         style="stop-color:#000000;stop-opacity:0.47058824;"
         offset="1"
         id="stop3279-1" />
    </linearGradient>
    <linearGradient
       y2="20.914557"
       x2="6.2713833"
       y1="9.9362373"
       x1="6.2713833"
       gradientUnits="userSpaceOnUse"
       id="linearGradient3809"
       xlink:href="#StandardGradient-5"
       inkscape:collect="always" />
    <linearGradient
       id="StandardGradient-5"
       gradientTransform="matrix(0.9984539,0,0,0.9984539,-0.0459776,0.05767558)"
       x1="10.710332"
       y1="1.9963325"
       x2="10.710332"
       y2="18.974037"
       gradientUnits="userSpaceOnUse">
      <stop
         style="stop-color:#000000;stop-opacity:0.86274511;"
         offset="0"
         id="stop3277" />
      <stop
         style="stop-color:#000000;stop-opacity:0.47058824;"
         offset="1"
         id="stop3279" />
    </linearGradient>
    <radialGradient
       inkscape:collect="always"
       xlink:href="#StandardGradient"
       id="radialGradient3826"
       cx="13"
       cy="11.997729"
       fx="13"
       fy="11.997729"
       r="9.9846087"
       gradientTransform="matrix(1.5023123,0,0,1.0022927,-6.5300594,-0.0252368)"
       gradientUnits="userSpaceOnUse" />
    <radialGradient
       inkscape:collect="always"
       xlink:href="#StandardGradient"
       id="radialGradient3832"
       gradientUnits="userSpaceOnUse"
       gradientTransform="matrix(1.5023123,0,0,1.0022927,-6.5300594,-0.0252368)"
       cx="13"
       cy="11.997729"
       fx="13"
       fy="11.997729"
       r="9.9846087" />
    <radialGradient
       inkscape:collect="always"
       xlink:href="#StandardGradient"
       id="radialGradient3836"
       gradientUnits="userSpaceOnUse"
       gradientTransform="matrix(1.5023123,0,0,1.0022927,-6.5300594,-0.0252368)"
       cx="13"
       cy="11.997729"
       fx="13"
       fy="11.997729"
       r="9.9846087" />
    <radialGradient
       inkscape:collect="always"
       xlink:href="#StandardGradient"
       id="radialGradient3838"
       gradientUnits="userSpaceOnUse"
       gradientTransform="matrix(1.5023123,0,0,1.0022927,-6.5300594,-0.0252368)"
       cx="13"
       cy="11.997729"
       fx="13"
       fy="11.997729"
       r="9.9846087" />
    <radialGradient
       inkscape:collect="always"
       xlink:href="#StandardGradient"
       id="radialGradient3851"
       cx="36"
       cy="2"
       fx="36"
       fy="2"
       r="4"
       gradientUnits="userSpaceOnUse" />
    <radialGradient
       inkscape:collect="always"
       xlink:href="#SpecificGradient"
       id="radialGradient3855"
       gradientUnits="userSpaceOnUse"
       cx="36"
       cy="2"
       fx="36"
       fy="2"
       r="4"
       gradientTransform="translate(0,10)" />
    <radialGradient
       inkscape:collect="always"
       xlink:href="#StandardGradient"
       id="radialGradient3814"
       gradientUnits="userSpaceOnUse"
       gradientTransform="matrix(1.5023123,0,0,1.0022927,-6.5300594,-0.0252368)"
       cx="13"
       cy="11.997729"
       fx="13"
       fy="11.997729"
       r="9.9846087" />
    <radialGradient
       inkscape:collect="always"
       xlink:href="#StandardGradient"
       id="radialGradient3818"
       gradientUnits="userSpaceOnUse"
       gradientTransform="matrix(1.5023123,0,0,1.0022927,-6.5300594,-0.0252368)"
       cx="13"
       cy="11.997729"
       fx="13"
       fy="11.997729"
       r="9.9846087" />
  </defs>
  <sodipodi:namedview
     id="base"
     pagecolor="#818181"
     bordercolor="#ffcfcf"
     borderopacity="1"
     inkscape:pageopacity="1"
     inkscape:pageshadow="2"
     inkscape:zoom="22.640002"
     inkscape:cx="0.25828305"
     inkscape:cy="7.3267573"
     inkscape:document-units="px"
     inkscape:current-layer="layer1"
     showgrid="true"
     inkscape:showpageshadow="false"
     showguides="true"
     inkscape:guide-bbox="true"
     inkscape:window-width="1920"
     inkscape:window-height="1030"
     inkscape:window-x="0"
     inkscape:window-y="25"
     inkscape:window-maximized="1"
     borderlayer="true"
     inkscape:snap-global="true">
    <sodipodi:guide
       orientation="0,1"
       position="26.278146,128"
       id="guide2385" />
    <sodipodi:guide
       orientation="1,0"
       position="128,54.082119"
       id="guide2387" />
    <sodipodi:guide
       orientation="0,1"
       position="60.863576,64.084768"
       id="guide2391" />
    <inkscape:grid
       type="xygrid"
       id="grid3672"
       visible="true"
       enabled="true"
       empspacing="8"
       snapvisiblegridlinesonly="true" />
    <sodipodi:guide
       orientation="1,0"
       position="13,6"
       id="guide3013" />
    <sodipodi:guide
       orientation="0,1"
       position="18,10"
       id="guide3015" />
  </sodipodi:namedview>
  <metadata
     id="metadata7">
    <rdf:RDF>
      <cc:Work
         rdf:about="">
        <dc:format>image/svg+xml</dc:format>
        <dc:type
           rdf:resource="http://purl.org/dc/dcmitype/StillImage" />
        <dc:title></dc:title>
      </cc:Work>
    </rdf:RDF>
  </metadata>
  <g
     inkscape:label="Icon"
     inkscape:groupmode="layer"
     id="layer1"
     style="display:inline">
    <path
       style="fill:#ffffff;fill-opacity:1;stroke:none;display:inline;opacity:0.05"
       d="M 8.25 9.0625 C 7.7153493 9.138245 7.2159764 9.3961691 6.84375 9.78125 C 6.8371619 9.7880656 6.8190125 9.7743523 6.8125 9.78125 L 4.8125 11.78125 C 4.3657698 12.222806 4.1079619 12.812052 4.09375 13.4375 A 0.97981314 0.97981314 0 0 0 4.09375 13.46875 L 4.09375 15.125 L 0.59375 18.59375 C -0.18146823 19.366733 -0.18146823 20.633267 0.59375 21.40625 C 1.384785 22.195001 2.6464655 22.195002 3.4375 21.40625 L 6.9375 17.90625 L 8.53125 17.90625 A 0.97981314 0.97981314 0 0 0 8.5625 17.90625 C 9.1888227 17.892141 9.7846165 17.655543 10.25 17.1875 L 10.28125 17.1875 L 12.25 15.1875 C 13.180154 14.231233 13.180154 12.737517 12.25 11.78125 L 10.28125 9.78125 C 10.274967 9.7747131 10.256336 9.7877011 10.25 9.78125 C 9.7237047 9.2453802 9.0049573 9.0023575 8.28125 9.0625 A 0.97981314 0.97981314 0 0 0 8.25 9.0625 z M 8.375 10.03125 C 8.804303 9.9955735 9.264414 10.158639 9.5625 10.46875 L 11.5625 12.46875 C 12.081686 13.002512 12.081686 13.966238 11.5625 14.5 L 9.5625 16.5 C 9.300139 16.770529 8.908569 16.929 8.53125 16.9375 L 6.53125 16.9375 L 2.75 20.71875 C 2.353855 21.113752 1.677396 21.113752 1.28125 20.71875 C 0.885105 20.323747 0.885105 19.676253 1.28125 19.28125 L 5.0625 15.53125 C 5.062386 15.52075 5.062386 15.5105 5.0625 15.5 L 5.0625 13.46875 C 5.071049 13.092519 5.228688 12.730354 5.5 12.46875 L 7.53125 10.46875 C 7.755073 10.231687 8.051718 10.07705 8.375 10.03125 z "
       id="path3816" />
    <path
       style="fill:#000000;fill-opacity:1;stroke:none;display:inline;opacity:0.2"
       d="m 19.9375,1 c -0.264383,0 -0.520677,0.1149992 -0.71875,0.3125 l -3.78125,3.75 -2.03125,0 c -0.37732,0.0085 -0.73764,0.198221 -1,0.46875 l -2.03125,2 c -0.519186,0.533762 -0.519186,1.497488 0,2.03125 l 2.03125,2 c 0.298086,0.310111 0.726946,0.473177 1.15625,0.4375 0.323281,-0.0458 0.619928,-0.200437 0.84375,-0.4375 l 2.03125,-2 C 16.708812,9.300896 16.866452,8.907481 16.875,8.53125 l 0,-2 c 1.15e-4,-0.0105 1.15e-4,-0.02075 0,-0.03125 l 3.78125,-3.75 c 0.396146,-0.395003 0.396146,-1.042497 0,-1.4375 C 20.458177,1.1149992 20.201883,1 19.9375,1 z"
       id="path3040" />
    <path
       style="fill:url(#radialGradient3826);fill-opacity:1;stroke:none;display:inline"
       d="m 8.375,10.03125 c -0.323282,0.0458 -0.619927,0.200437 -0.84375,0.4375 l -2.03125,2 c -0.271312,0.261604 -0.428951,0.623769 -0.4375,1 l 0,2.03125 c -1.14e-4,0.0105 -1.14e-4,0.02075 0,0.03125 l -3.78125,3.75 c -0.396145,0.395003 -0.396145,1.042497 0,1.4375 0.396146,0.395002 1.072605,0.395002 1.46875,0 l 3.78125,-3.78125 2,0 C 8.908569,16.929 9.300139,16.770529 9.5625,16.5 l 2,-2 c 0.519186,-0.533762 0.519186,-1.497488 0,-2.03125 l -2,-2 C 9.264414,10.158639 8.804303,9.9955735 8.375,10.03125 z"
       id="rect2911" />
    <path
       style="opacity:0.3;fill:#000000;fill-opacity:1;stroke:none;display:inline"
       d="m 8.375,10.03125 c -0.323282,0.0458 -0.619927,0.200437 -0.84375,0.4375 l -2.03125,2 c -0.271312,0.261604 -0.428951,0.623769 -0.4375,1 l 0,2.03125 c -1.14e-4,0.0105 -1.14e-4,0.02075 0,0.03125 l -3.78125,3.75 c -0.396145,0.395003 -0.396145,1.042497 0,1.4375 0.396146,0.395002 1.072605,0.395002 1.46875,0 l 3.78125,-3.78125 2,0 C 8.908569,16.929 9.300139,16.770529 9.5625,16.5 l 2,-2 c 0.519186,-0.533762 0.519186,-1.497488 0,-2.03125 l -2,-2 C 9.264414,10.158639 8.804303,9.9955735 8.375,10.03125 z m 0.03125,0.5 c 0.0097,-8.06e-4 0.021416,4.51e-4 0.03125,0 0.2678746,-0.01227 0.5762011,0.10044 0.75,0.28125 0.010413,3.24e-4 0.020837,3.24e-4 0.03125,0 l 1.96875,2 c 0.308638,0.317303 0.308638,1.026447 0,1.34375 l -1.96875,2 c -0.010413,-3.24e-4 -0.020837,-3.24e-4 -0.03125,0 -0.1567987,0.16168 -0.411545,0.275737 -0.65625,0.28125 l -2,0 c -0.1289303,0.0053 -0.2549853,0.06259 -0.34375,0.15625 L 2.40625,20.375 c -0.1938343,0.193275 -0.5874145,0.193276 -0.78125,0 -0.2019373,-0.201355 -0.2019373,-0.548645 0,-0.75 l 3.78125,-3.75 c 0.093658,-0.08877 0.150956,-0.21482 0.15625,-0.34375 -7.55e-5,-0.007 -7.55e-5,-0.0243 0,-0.03125 l 0,-2.03125 c 0.00553,-0.243449 0.1066335,-0.456632 0.28125,-0.625 3.243e-4,-0.01041 3.243e-4,-0.02084 0,-0.03125 l 2.03125,-2 c 0.010413,3.24e-4 0.020837,3.24e-4 0.03125,0 0.139906,-0.148182 0.301122,-0.246717 0.5,-0.28125 z"
       id="path3828"
       inkscape:connector-curvature="0"
       sodipodi:nodetypes="cccccccsccccccccccccccccccccscccccccccc" />
    <path
       inkscape:connector-curvature="0"
       style="opacity:0.3;fill:#000000;fill-opacity:1;stroke:none;display:inline"
       d="m 8.375,10.03125 c -0.323282,0.0458 -0.619927,0.200437 -0.84375,0.4375 l -2.03125,2 c -0.271312,0.261604 -0.428952,0.623769 -0.4375,1 l 0,1 c 0.0085,-0.376231 0.166188,-0.738396 0.4375,-1 l 2.03125,-2 c 0.223823,-0.237063 0.520468,-0.3917 0.84375,-0.4375 0.429303,-0.03568 0.889414,0.127389 1.1875,0.4375 l 2,2 c 0.14354,0.147569 0.248329,0.337736 0.3125,0.53125 0.181133,-0.511967 0.07002,-1.137993 -0.3125,-1.53125 l -2,-2 C 9.264414,10.158639 8.804303,9.9955735 8.375,10.03125 z m -3.3125,5.5 -3.78125,3.75 C 0.950352,19.611194 0.903104,20.10927 1.125,20.5 1.1702,20.41689 1.21146,20.350839 1.28125,20.28125 l 3.78125,-3.75 c -1.15e-4,-0.0105 -1.15e-4,-0.02075 0,-0.03125 l 0,-0.96875 z"
       id="path3689" />
    <path
       inkscape:connector-curvature="0"
       style="opacity:0.2;fill:#ffffff;fill-opacity:1;stroke:none;display:inline"
       d="m 11.875,14 c -0.06472,0.182918 -0.175832,0.359495 -0.3125,0.5 l -2,2 c -0.262361,0.270529 -0.653931,0.429 -1.03125,0.4375 l -2,0 L 2.75,20.71875 c -0.396145,0.395002 -1.072605,0.395002 -1.46875,0 C 1.216,20.65369 1.168754,20.577045 1.125,20.5 c -0.211364,0.388659 -0.170105,0.893336 0.15625,1.21875 0.396145,0.395002 1.072605,0.395002 1.46875,0 l 3.78125,-3.78125 2,0 C 8.908569,17.929 9.300139,17.770529 9.5625,17.5 l 2,-2 c 0.375646,-0.386193 0.480436,-0.993569 0.3125,-1.5 z"
       id="path3734" />
    <rect
       style="opacity:0.80000000000000004;color:#000000;fill:url(#radialGradient3851);fill-opacity:1;fill-rule:nonzero;stroke:none;stroke-width:2;stroke-linecap:round;stroke-linejoin:round;stroke-miterlimit:4;stroke-opacity:1;stroke-dasharray:none;stroke-dashoffset:8.59999999999999787;marker:none;visibility:visible;display:inline;overflow:visible;enable-background:accumulate"
       id="rect3841"
       width="8"
       height="8"
       x="32"
       y="-2" />
    <rect
       y="8"
       x="32"
       height="8"
       width="8"
       id="rect3853"
       style="opacity:0.80000000000000004;color:#000000;fill:url(#radialGradient3855);fill-opacity:1.0;fill-rule:nonzero;stroke:none;stroke-width:2;marker:none;visibility:visible;display:inline;overflow:visible;enable-background:accumulate" />
  </g>
</svg>
