<?xml version="1.0" encoding="UTF-8" standalone="no"?>
<!-- Created with Inkscape (http://www.inkscape.org/) -->

<svg
   xmlns:dc="http://purl.org/dc/elements/1.1/"
   xmlns:cc="http://creativecommons.org/ns#"
   xmlns:rdf="http://www.w3.org/1999/02/22-rdf-syntax-ns#"
   xmlns:svg="http://www.w3.org/2000/svg"
   xmlns="http://www.w3.org/2000/svg"
   xmlns:xlink="http://www.w3.org/1999/xlink"
   xmlns:sodipodi="http://sodipodi.sourceforge.net/DTD/sodipodi-0.dtd"
   xmlns:inkscape="http://www.inkscape.org/namespaces/inkscape"
   width="22"
   height="22"
   id="svg2"
   sodipodi:version="0.32"
   inkscape:version="0.48.1 r9760"
   version="1.0"
   sodipodi:docname="network-error.svg"
   inkscape:output_extension="org.inkscape.output.svg.inkscape"
   style="display:inline"
   inkscape:export-filename="/home/matthieu/Eye-Candy/Faience/0.1/sources/status/small/audio-volume-high.png"
   inkscape:export-xdpi="90"
   inkscape:export-ydpi="90">
  <defs
     id="defs4">
    <linearGradient
       id="StandardGradient"
       gradientTransform="scale(0.9219544,1.0846523)"
       x1="11.998966"
       y1="0.92195445"
       x2="11.998966"
       y2="19.387045"
       gradientUnits="userSpaceOnUse">
      <stop
         style="stop-color:#000000;stop-opacity:0.23529412;"
         offset="0"
         id="stop3283-1" />
      <stop
         id="stop3850"
         offset="0.69999999"
         style="stop-color:#000000;stop-opacity:0.39215686;" />
      <stop
         style="stop-color:#000000;stop-opacity:0.55;"
         offset="1"
         id="stop2651" />
    </linearGradient>
    <radialGradient
       inkscape:collect="always"
       xlink:href="#SpecificGradient"
       id="radialGradient3846"
       gradientUnits="userSpaceOnUse"
       gradientTransform="matrix(1.6666667,0,0,0.66666667,-8.6666667,3.6666667)"
       cx="13"
       cy="12.5"
       fx="13"
       fy="12.5"
       r="9" />
    <linearGradient
       id="SpecificGradient"
       x1="10.406627"
       y1="2"
       x2="10.406627"
       y2="18.000771"
       gradientUnits="userSpaceOnUse">
      <stop
         style="stop-color:#e64b36;stop-opacity:1;"
         offset="0"
         id="stop3292" />
      <stop
         style="stop-color:#a31414;stop-opacity:1;"
         offset="1"
         id="stop3294" />
    </linearGradient>
    <linearGradient
       y2="10.015271"
       x2="7.3589039"
       y1="21.007164"
       x1="7.3589039"
       gradientTransform="matrix(-1,0,0,-1,21.954435,22.02535)"
       gradientUnits="userSpaceOnUse"
       id="linearGradient2965"
       xlink:href="#StandardGradient-3"
       inkscape:collect="always" />
    <linearGradient
       id="StandardGradient-3"
       gradientTransform="matrix(0.9984539,0,0,0.9984539,-0.0459776,0.05767558)"
       x1="10.710332"
       y1="1.9963325"
       x2="10.710332"
       y2="18.974037"
       gradientUnits="userSpaceOnUse">
      <stop
         style="stop-color:#000000;stop-opacity:0.86274511;"
         offset="0"
         id="stop3277-3" />
      <stop
         style="stop-color:#000000;stop-opacity:0.47058824;"
         offset="1"
         id="stop3279-1" />
    </linearGradient>
    <linearGradient
       y2="20.914557"
       x2="6.2713833"
       y1="9.9362373"
       x1="6.2713833"
       gradientUnits="userSpaceOnUse"
       id="linearGradient3809"
       xlink:href="#StandardGradient-5"
       inkscape:collect="always" />
    <linearGradient
       id="StandardGradient-5"
       gradientTransform="matrix(0.9984539,0,0,0.9984539,-0.0459776,0.05767558)"
       x1="10.710332"
       y1="1.9963325"
       x2="10.710332"
       y2="18.974037"
       gradientUnits="userSpaceOnUse">
      <stop
         style="stop-color:#000000;stop-opacity:0.86274511;"
         offset="0"
         id="stop3277" />
      <stop
         style="stop-color:#000000;stop-opacity:0.47058824;"
         offset="1"
         id="stop3279" />
    </linearGradient>
    <radialGradient
       inkscape:collect="always"
       xlink:href="#StandardGradient"
       id="radialGradient3832"
       gradientUnits="userSpaceOnUse"
       gradientTransform="matrix(1.5023123,0,0,1.0022927,-6.5300594,-0.0252368)"
       cx="13"
       cy="11.997729"
       fx="13"
       fy="11.997729"
       r="9.9846087" />
    <radialGradient
       inkscape:collect="always"
       xlink:href="#StandardGradient"
       id="radialGradient3836"
       gradientUnits="userSpaceOnUse"
       gradientTransform="matrix(1.5023123,0,0,1.0022927,-6.5300594,-0.0252368)"
       cx="13"
       cy="11.997729"
       fx="13"
       fy="11.997729"
       r="9.9846087" />
    <radialGradient
       inkscape:collect="always"
       xlink:href="#StandardGradient"
       id="radialGradient3838"
       gradientUnits="userSpaceOnUse"
       gradientTransform="matrix(1.5023123,0,0,1.0022927,-6.5300594,-0.0252368)"
       cx="13"
       cy="11.997729"
       fx="13"
       fy="11.997729"
       r="9.9846087" />
    <radialGradient
       inkscape:collect="always"
       xlink:href="#StandardGradient"
       id="radialGradient3851"
       cx="36"
       cy="2"
       fx="36"
       fy="2"
       r="4"
       gradientUnits="userSpaceOnUse" />
    <radialGradient
       inkscape:collect="always"
       xlink:href="#SpecificGradient"
       id="radialGradient3855"
       gradientUnits="userSpaceOnUse"
       cx="36"
       cy="2"
       fx="36"
       fy="2"
       r="4"
       gradientTransform="translate(0,10)" />
    <linearGradient
       inkscape:collect="always"
       xlink:href="#linearGradient3183"
       id="linearGradient7193"
       gradientUnits="userSpaceOnUse"
       gradientTransform="matrix(0,0.8456457,0.8456457,0,7.6846843,4.3309381)"
       x1="11"
       y1="11.015625"
       x2="19"
       y2="11.015625" />
    <linearGradient
       id="linearGradient3183">
      <stop
         style="stop-color:#c80000;stop-opacity:1;"
         offset="0"
         id="stop3185" />
      <stop
         style="stop-color:#f3604d;stop-opacity:1;"
         offset="1"
         id="stop3187" />
    </linearGradient>
  </defs>
  <sodipodi:namedview
     id="base"
     pagecolor="#818181"
     bordercolor="#ffcfcf"
     borderopacity="1"
     inkscape:pageopacity="1"
     inkscape:pageshadow="2"
     inkscape:zoom="22.640002"
     inkscape:cx="0.25828305"
     inkscape:cy="7.3488422"
     inkscape:document-units="px"
     inkscape:current-layer="layer1"
     showgrid="true"
     inkscape:showpageshadow="false"
     showguides="true"
     inkscape:guide-bbox="true"
     inkscape:window-width="1920"
     inkscape:window-height="1030"
     inkscape:window-x="0"
     inkscape:window-y="25"
     inkscape:window-maximized="1"
     borderlayer="true"
     inkscape:snap-global="true">
    <sodipodi:guide
       orientation="0,1"
       position="26.278146,128"
       id="guide2385" />
    <sodipodi:guide
       orientation="1,0"
       position="128,54.082119"
       id="guide2387" />
    <sodipodi:guide
       orientation="0,1"
       position="60.863576,64.084768"
       id="guide2391" />
    <inkscape:grid
       type="xygrid"
       id="grid3672"
       visible="true"
       enabled="true"
       empspacing="8"
       snapvisiblegridlinesonly="true" />
    <sodipodi:guide
       orientation="1,0"
       position="13,6"
       id="guide3013" />
    <sodipodi:guide
       orientation="0,1"
       position="18,10"
       id="guide3015" />
  </sodipodi:namedview>
  <metadata
     id="metadata7">
    <rdf:RDF>
      <cc:Work
         rdf:about="">
        <dc:format>image/svg+xml</dc:format>
        <dc:type
           rdf:resource="http://purl.org/dc/dcmitype/StillImage" />
        <dc:title></dc:title>
      </cc:Work>
    </rdf:RDF>
  </metadata>
  <g
     inkscape:label="Icon"
     inkscape:groupmode="layer"
     id="layer1"
     style="display:inline">
    <rect
       style="opacity:0.80000000000000004;color:#000000;fill:url(#radialGradient3851);fill-opacity:1;fill-rule:nonzero;stroke:none;stroke-width:2;stroke-linecap:round;stroke-linejoin:round;stroke-miterlimit:4;stroke-opacity:1;stroke-dasharray:none;stroke-dashoffset:8.59999999999999787;marker:none;visibility:visible;display:inline;overflow:visible;enable-background:accumulate"
       id="rect3841"
       width="8"
       height="8"
       x="32"
       y="-2" />
    <rect
       y="8"
       x="32"
       height="8"
       width="8"
       id="rect3853"
       style="opacity:0.80000000000000004;color:#000000;fill:url(#radialGradient3855);fill-opacity:1.0;fill-rule:nonzero;stroke:none;stroke-width:2;marker:none;visibility:visible;display:inline;overflow:visible;enable-background:accumulate" />
    <path
       inkscape:connector-curvature="0"
       style="opacity:0.2;fill:#000000;fill-opacity:1;stroke:none;display:inline"
       d="m 6.385832,12.017557 c -0.3232816,0.0458 -0.629422,0.204084 -0.8532447,0.441147 L 3.5100816,14.475378 C 3.23877,14.736982 3.0762067,15.107484 3.0676584,15.483715 l 0,2.016674 c -1.146e-4,0.0105 -1.146e-4,0.02101 0,0.03151 l -1.7831023,1.734916 c -0.3961453,0.395003 -0.3961453,1.054482 0,1.449485 0.3961454,0.395002 1.0575307,0.395002 1.453676,0 l 1.7831023,-1.766428 2.0225056,0 c 0.3773193,-0.0085 0.7488925,-0.170618 1.011253,-0.441147 l 2.022506,-2.016674 c 0.519186,-0.533762 0.519186,-1.482912 0,-2.016674 L 7.555093,12.458704 C 7.2570066,12.148593 6.8151351,11.981881 6.385832,12.017557 z"
       id="rect2911"
       sodipodi:nodetypes="cccccccscccccccc" />
    <path
       inkscape:connector-curvature="0"
       sodipodi:nodetypes="cccccccscccccccc"
       id="path3698"
       d="m 15.568604,10.007794 c 0.323281,-0.0458 0.629422,-0.2040842 0.853244,-0.4411472 l 2.022506,-2.016674 c 0.271312,-0.261604 0.433875,-0.632106 0.442423,-1.008337 l 0,-2.016674 c 1.15e-4,-0.0105 1.15e-4,-0.02101 0,-0.03151 l 1.783103,-1.734916 c 0.396145,-0.395003 0.396145,-1.054482 0,-1.449485 -0.396146,-0.3950024 -1.057531,-0.3950024 -1.453676,0 l -1.783103,1.766428 -2.022505,0 c -0.37732,0.0085 -0.748893,0.170618 -1.011253,0.441147 l -2.022506,2.016674 c -0.519186,0.533762 -0.519186,1.482912 0,2.016674 l 2.022506,2.016673 c 0.298086,0.310111 0.739958,0.4768232 1.169261,0.4411472 z"
       style="opacity:0.2;fill:#000000;fill-opacity:1;stroke:none;display:inline" />
    <path
       inkscape:connector-curvature="0"
       style="opacity:0.05;fill:#ffffff;fill-opacity:1;fill-rule:nonzero;stroke:none;display:inline"
       d="M 15.15625,12.625 A 1.0013293,1.0013293 0 0 0 14.5625,12.90625 L 12.84375,14.625 A 1.0013293,1.0013293 0 0 0 12.875,16.0625 L 13.8125,17 12.84375,17.96875 a 1.0013293,1.0013293 0 0 0 0,1.4375 L 14.5625,21.125 a 1.0013293,1.0013293 0 0 0 1.40625,0 l 1.03125,-1 0.9375,0.96875 A 1.0013293,1.0013293 0 0 0 19.375,21.125 l 1.78125,-1.78125 A 1.0013293,1.0013293 0 0 0 21.125,17.90625 L 20.1875,17 21.125,16.125 a 1.0013293,1.0013293 0 0 0 0.03125,-1.4375 L 19.375,12.90625 A 1.0013293,1.0013293 0 0 0 17.9375,12.9375 L 17,13.90625 l -1.03125,-1 A 1.0013293,1.0013293 0 0 0 15.15625,12.625 z"
       id="path3024" />
    <path
       inkscape:connector-curvature="0"
       style="opacity:0.05;fill:#ffffff;fill-opacity:1;fill-rule:nonzero;stroke:none;display:inline"
       d="M 15.28125,13.625 17,15.3125 18.65625,13.625 20.4375,15.40625 18.75,17 20.4375,18.625 18.65625,20.40625 17,18.71875 15.28125,20.40625 13.5625,18.6875 15.25,17 13.5625,15.34375 15.28125,13.625 z"
       id="path4389" />
    <path
       inkscape:connector-curvature="0"
       style="fill:url(#linearGradient7193);fill-opacity:1;fill-rule:evenodd;stroke:none;display:inline"
       d="m 13.577777,15.350759 1.717718,-1.717717 1.691292,1.664864 1.664864,-1.664864 1.770572,1.77057 -1.664866,1.612012 1.664866,1.612012 -1.770572,1.770571 -1.664864,-1.664865 -1.691292,1.664865 -1.717718,-1.717718 1.664866,-1.664865 -1.664866,-1.664865 z"
       id="path7165" />
    <path
       inkscape:connector-curvature="0"
       style="opacity:0;fill:#000000;fill-opacity:1;fill-rule:evenodd;stroke:none;display:inline"
       d="m 15,13 -2.0625,2.0625 0.5,0.5 L 15,14 l 2,2 1.9375,-2 1.59375,1.59375 L 21.0625,15.125 18.9375,13 17,15 15,13 z m -0.07839,4 -1.984106,2 0.5,0.5 1.5,-1.5 -0.01589,-1 z m 4.172422,0 -0.03153,1 1.46875,1.4375 0.53125,-0.5 L 19.094028,17 z"
       id="path7188"
       sodipodi:nodetypes="ccccccccccccccccccccc" />
    <path
       inkscape:connector-curvature="0"
       style="opacity:0.25;fill:#000000;fill-opacity:1;fill-rule:evenodd;stroke:none;display:inline"
       d="m 15.28125,13.625 -1.71875,1.71875 0.5,0.5 L 15.28125,14.625 17,16.3125 l 1.65625,-1.6875 1.28125,1.28125 0.5,-0.5 L 18.65625,13.625 17,15.3125 15.28125,13.625 z M 14.75,17.5 l -1.1875,1.1875 0.5,0.5 L 15.25,18 14.75,17.5 z m 4.53125,0 -0.53125,0.5 1.1875,1.125 0.5,-0.5 -1.15625,-1.125 z"
       id="path3771" />
    <path
       inkscape:connector-curvature="0"
       style="opacity:0.2;fill:#ffffff;fill-opacity:1;fill-rule:evenodd;stroke:none;display:inline"
       d="m 14.0625,15.84375 -0.5,0.5 L 14.75,17.5 15.25,17 14.0625,15.84375 z m 5.875,0.0625 L 18.75,17 l 0.53125,0.5 1.15625,-1.09375 -0.5,-0.5 z M 17,18.71875 l -1.71875,1.6875 -1.21875,-1.21875 -0.5,0.5 1.71875,1.71875 1.71875,-1.6875 1.65625,1.6875 1.78125,-1.78125 -0.5,-0.5 -1.28125,1.28125 L 17,18.71875 z"
       id="path3780" />
    <path
       inkscape:connector-curvature="0"
       style="opacity:0.25;fill:#000000;fill-opacity:1;fill-rule:evenodd;stroke:none;display:inline"
       d="M 15.28125,13.625 13.5625,15.34375 15.25,17 13.5625,18.6875 15.28125,20.40625 17,18.71875 18.65625,20.40625 20.4375,18.625 18.75,17 20.4375,15.40625 18.65625,13.625 17,15.3125 15.28125,13.625 z m 0,0.625 1.40625,1.375 a 0.44174028,0.44174028 0 0 0 0.625,0 l 1.34375,-1.375 1.15625,1.15625 -1.375,1.28125 a 0.44174028,0.44174028 0 0 0 0,0.625 l 1.375,1.3125 -1.15625,1.15625 -1.34375,-1.375 a 0.44174028,0.44174028 0 0 0 -0.625,0 l -1.40625,1.375 -1.09375,-1.09375 1.375,-1.375 a 0.44174028,0.44174028 0 0 0 0,-0.625 L 14.1875,15.34375 15.28125,14.25 z"
       id="path7150" />
  </g>
</svg>
