<?xml version="1.0" encoding="UTF-8" standalone="no"?>
<!-- Created with Inkscape (http://www.inkscape.org/) -->

<svg
   xmlns:dc="http://purl.org/dc/elements/1.1/"
   xmlns:cc="http://creativecommons.org/ns#"
   xmlns:rdf="http://www.w3.org/1999/02/22-rdf-syntax-ns#"
   xmlns:svg="http://www.w3.org/2000/svg"
   xmlns="http://www.w3.org/2000/svg"
   xmlns:xlink="http://www.w3.org/1999/xlink"
   xmlns:sodipodi="http://sodipodi.sourceforge.net/DTD/sodipodi-0.dtd"
   xmlns:inkscape="http://www.inkscape.org/namespaces/inkscape"
   width="22"
   height="22"
   id="svg2"
   sodipodi:version="0.32"
   inkscape:version="0.48.1 r9760"
   version="1.0"
   sodipodi:docname="rhythmbox-panel.svg"
   inkscape:output_extension="org.inkscape.output.svg.inkscape"
   style="display:inline"
   inkscape:export-filename="/home/matthieu/Eye-Candy/Faience/0.1/sources/status/small/audio-volume-high.png"
   inkscape:export-xdpi="90"
   inkscape:export-ydpi="90">
  <defs
     id="defs4">
    <linearGradient
       gradientUnits="userSpaceOnUse"
       y2="19.387045"
       x2="11.998966"
       y1="0.92195445"
       x1="11.998966"
       gradientTransform="scale(0.9219544,1.0846523)"
       id="linearGradient3802">
      <stop
         id="stop3804"
         offset="0"
         style="stop-color:#000000;stop-opacity:0.23529412;" />
      <stop
         style="stop-color:#000000;stop-opacity:0.39215686;"
         offset="1"
         id="stop3806" />
      <stop
         id="stop3808"
         offset="1"
         style="stop-color:#000000;stop-opacity:0.55;" />
    </linearGradient>
    <linearGradient
       id="linearGradient3279">
      <stop
         style="stop-color:#f08e00;stop-opacity:1;"
         offset="0"
         id="stop3281" />
      <stop
         style="stop-color:#ffd200;stop-opacity:1;"
         offset="1"
         id="stop3283" />
    </linearGradient>
    <linearGradient
       inkscape:collect="always"
       xlink:href="#StandardGradient"
       id="linearGradient2934"
       gradientUnits="userSpaceOnUse"
       gradientTransform="matrix(1,0,0,-1,1,22.03125)"
       x1="7"
       y1="6"
       x2="7"
       y2="16" />
    <linearGradient
       inkscape:collect="always"
       xlink:href="#StandardGradient"
       id="linearGradient2936"
       gradientUnits="userSpaceOnUse"
       gradientTransform="matrix(1,0,0,-1,1,22.03125)"
       x1="10"
       y1="7"
       x2="10"
       y2="15" />
    <linearGradient
       inkscape:collect="always"
       xlink:href="#StandardGradient"
       id="linearGradient2938"
       gradientUnits="userSpaceOnUse"
       gradientTransform="matrix(1,0,0,-1,1,22.03125)"
       x1="13"
       y1="5"
       x2="13"
       y2="17" />
    <linearGradient
       inkscape:collect="always"
       xlink:href="#StandardGradient"
       id="linearGradient2940"
       gradientUnits="userSpaceOnUse"
       gradientTransform="matrix(1,0,0,-1,1,22.03125)"
       x1="16"
       y1="3"
       x2="16"
       y2="19" />
    <radialGradient
       inkscape:collect="always"
       xlink:href="#StandardGradient"
       id="radialGradient3857"
       cx="12"
       cy="12.447369"
       fx="12"
       fy="12.447369"
       r="6"
       gradientTransform="matrix(2.6666667,-9.1385016e-8,5.7115635e-8,1.6666667,-20.000001,-7.7456132)"
       gradientUnits="userSpaceOnUse" />
    <linearGradient
       id="StandardGradient"
       gradientTransform="scale(0.9219544,1.0846523)"
       x1="11.998966"
       y1="0.92195445"
       x2="11.998966"
       y2="19.387045"
       gradientUnits="userSpaceOnUse">
      <stop
         style="stop-color:#000000;stop-opacity:0.23529412;"
         offset="0"
         id="stop3283-1" />
      <stop
         id="stop3850"
         offset="0.69999999"
         style="stop-color:#000000;stop-opacity:0.39215686;" />
      <stop
         style="stop-color:#000000;stop-opacity:0.55;"
         offset="1"
         id="stop2651" />
    </linearGradient>
    <radialGradient
       r="6"
       fy="12.447369"
       fx="12"
       cy="12.447369"
       cx="12"
       gradientTransform="matrix(2.6666667,-9.1385016e-8,5.7115635e-8,1.6666667,-81.000001,-7.7456132)"
       gradientUnits="userSpaceOnUse"
       id="radialGradient3094"
       xlink:href="#StandardGradient"
       inkscape:collect="always" />
    <linearGradient
       inkscape:collect="always"
       xlink:href="#StandardGradient"
       id="linearGradient5517"
       gradientUnits="userSpaceOnUse"
       gradientTransform="matrix(1,0,0,-1,1,22.03125)"
       x1="16"
       y1="3"
       x2="16"
       y2="19" />
    <linearGradient
       inkscape:collect="always"
       xlink:href="#StandardGradient"
       id="linearGradient5522"
       gradientUnits="userSpaceOnUse"
       gradientTransform="matrix(1,0,0,-1,1,22.03125)"
       x1="16"
       y1="3"
       x2="16"
       y2="19" />
    <linearGradient
       inkscape:collect="always"
       xlink:href="#StandardGradient"
       id="linearGradient5526"
       gradientUnits="userSpaceOnUse"
       gradientTransform="matrix(1,0,0,-1,1,22.03125)"
       x1="16"
       y1="3"
       x2="16"
       y2="19" />
    <linearGradient
       inkscape:collect="always"
       xlink:href="#StandardGradient"
       id="linearGradient5528"
       gradientUnits="userSpaceOnUse"
       gradientTransform="matrix(1,0,0,-1,1,22.03125)"
       x1="16"
       y1="3"
       x2="16"
       y2="19" />
    <radialGradient
       inkscape:collect="always"
       xlink:href="#StandardGradient"
       id="radialGradient3786"
       cx="13"
       cy="12.055992"
       fx="13"
       fy="12.055992"
       r="9"
       gradientTransform="matrix(1.6666667,-9.5238096e-8,4.4444445e-8,0.7777778,-8.6666672,2.6231184)"
       gradientUnits="userSpaceOnUse" />
    <radialGradient
       inkscape:collect="always"
       xlink:href="#StandardGradient"
       id="radialGradient3040"
       gradientUnits="userSpaceOnUse"
       gradientTransform="matrix(1.7185356,-9.8202033e-8,4.5827616e-8,0.80198329,-10.446484,2.0969147)"
       cx="13"
       cy="12.055992"
       fx="13"
       fy="12.055992"
       r="9" />
    <radialGradient
       inkscape:collect="always"
       xlink:href="#StandardGradient"
       id="radialGradient3042"
       gradientUnits="userSpaceOnUse"
       gradientTransform="matrix(1.7185356,-9.8202033e-8,4.5827616e-8,0.80198329,-8.384241,2.0969147)"
       cx="13"
       cy="12.055992"
       fx="13"
       fy="12.055992"
       r="9" />
    <radialGradient
       inkscape:collect="always"
       xlink:href="#StandardGradient"
       id="radialGradient3046"
       gradientUnits="userSpaceOnUse"
       gradientTransform="matrix(1.7185356,-9.8202033e-8,4.5827616e-8,0.80198329,-9.4153623,2.0969147)"
       cx="13"
       cy="12.055992"
       fx="13"
       fy="12.055992"
       r="9" />
    <radialGradient
       inkscape:collect="always"
       xlink:href="#StandardGradient"
       id="radialGradient3832"
       gradientUnits="userSpaceOnUse"
       gradientTransform="matrix(1.6666667,-9.5238096e-8,4.4444445e-8,0.7777778,-8.6666672,22.623118)"
       cx="13"
       cy="12.055992"
       fx="13"
       fy="12.055992"
       r="9" />
    <radialGradient
       inkscape:collect="always"
       xlink:href="#StandardGradient"
       id="radialGradient3843"
       cx="13"
       cy="12.239852"
       fx="13"
       fy="12.239852"
       r="10.09375"
       gradientTransform="matrix(1.4860681,1.5854118e-8,0,0.89164084,-6.3188853,1.0864476)"
       gradientUnits="userSpaceOnUse" />
    <radialGradient
       inkscape:collect="always"
       xlink:href="#StandardGradient"
       id="radialGradient3861"
       gradientUnits="userSpaceOnUse"
       gradientTransform="matrix(1.4860681,1.5854118e-8,0,0.89164084,-6.3188853,1.0864476)"
       cx="13"
       cy="12.239852"
       fx="13"
       fy="12.239852"
       r="10.09375" />
    <radialGradient
       inkscape:collect="always"
       xlink:href="#StandardGradient"
       id="radialGradient3865"
       gradientUnits="userSpaceOnUse"
       gradientTransform="matrix(1.4860681,1.5854118e-8,0,0.89164084,-6.3188853,2.0864476)"
       cx="13"
       cy="12.239852"
       fx="13"
       fy="12.239852"
       r="10.09375" />
    <radialGradient
       inkscape:collect="always"
       xlink:href="#StandardGradient"
       id="radialGradient3872"
       gradientUnits="userSpaceOnUse"
       gradientTransform="matrix(1.4860681,1.5854118e-8,0,0.89164084,-6.3188853,1.0864476)"
       cx="13"
       cy="12.239852"
       fx="13"
       fy="12.239852"
       r="10.09375" />
    <radialGradient
       inkscape:collect="always"
       xlink:href="#StandardGradient"
       id="radialGradient3876"
       gradientUnits="userSpaceOnUse"
       gradientTransform="matrix(1.4860681,1.5854118e-8,0,0.89164084,-6.3188853,1.0864476)"
       cx="13"
       cy="12.239852"
       fx="13"
       fy="12.239852"
       r="10.09375" />
    <radialGradient
       inkscape:collect="always"
       xlink:href="#StandardGradient"
       id="radialGradient3878"
       gradientUnits="userSpaceOnUse"
       gradientTransform="matrix(1.4860681,1.5854118e-8,0,0.89164084,-6.3188853,1.0864476)"
       cx="13"
       cy="12.239852"
       fx="13"
       fy="12.239852"
       r="10.09375" />
    <radialGradient
       inkscape:collect="always"
       xlink:href="#StandardGradient"
       id="radialGradient3883"
       gradientUnits="userSpaceOnUse"
       gradientTransform="matrix(1.4860681,1.5854118e-8,0,0.89164084,-6.3188853,2.0864476)"
       cx="13"
       cy="12.239852"
       fx="13"
       fy="12.239852"
       r="10.09375" />
    <radialGradient
       inkscape:collect="always"
       xlink:href="#StandardGradient"
       id="radialGradient3887"
       gradientUnits="userSpaceOnUse"
       gradientTransform="matrix(1.4860681,1.5854118e-8,0,0.89164084,-6.3188853,1.0864476)"
       cx="13"
       cy="12.239852"
       fx="13"
       fy="12.239852"
       r="10.09375" />
    <radialGradient
       inkscape:collect="always"
       xlink:href="#StandardGradient"
       id="radialGradient3894"
       gradientUnits="userSpaceOnUse"
       gradientTransform="matrix(1.4860681,1.5854118e-8,0,0.89164084,-6.3188853,1.0864476)"
       cx="13"
       cy="12.239852"
       fx="13"
       fy="12.239852"
       r="10.09375" />
    <radialGradient
       inkscape:collect="always"
       xlink:href="#StandardGradient"
       id="radialGradient3898"
       gradientUnits="userSpaceOnUse"
       gradientTransform="matrix(1.4860681,1.5854118e-8,0,0.89164084,-6.3188853,1.0864476)"
       cx="13"
       cy="12.239852"
       fx="13"
       fy="12.239852"
       r="10.09375" />
    <linearGradient
       id="StandardGradient-5"
       gradientTransform="matrix(0.9984539,0,0,0.9984539,-0.0459776,0.05767558)"
       x1="10.710332"
       y1="1.9963325"
       x2="10.710332"
       y2="18.974037"
       gradientUnits="userSpaceOnUse">
      <stop
         style="stop-color:#000000;stop-opacity:0.86274511;"
         offset="0"
         id="stop3277" />
      <stop
         style="stop-color:#000000;stop-opacity:0.47058824;"
         offset="1"
         id="stop3279" />
    </linearGradient>
    <linearGradient
       inkscape:collect="always"
       xlink:href="#StandardGradient"
       id="linearGradient3838"
       gradientUnits="userSpaceOnUse"
       gradientTransform="matrix(0,1,-1,0,22.000002,2e-6)"
       x1="18.004087"
       y1="14.34689"
       x2="3.9078364"
       y2="14.34689" />
    <linearGradient
       inkscape:collect="always"
       xlink:href="#StandardGradient"
       id="linearGradient3842"
       gradientUnits="userSpaceOnUse"
       gradientTransform="matrix(0,1,-1,0,22.000002,2e-6)"
       x1="18.004087"
       y1="14.34689"
       x2="3.9078364"
       y2="14.34689" />
    <linearGradient
       inkscape:collect="always"
       xlink:href="#StandardGradient"
       id="linearGradient3844"
       gradientUnits="userSpaceOnUse"
       gradientTransform="matrix(0,1,-1,0,22.000002,2e-6)"
       x1="18.004087"
       y1="14.34689"
       x2="3.9078364"
       y2="14.34689" />
    <radialGradient
       inkscape:collect="always"
       xlink:href="#linearGradient3802"
       id="radialGradient3800"
       cx="13"
       cy="12.000011"
       fx="13"
       fy="12.000011"
       r="6.9999928"
       gradientTransform="matrix(2.1428593,0,0,1,-14.857172,-1.1000013e-5)"
       gradientUnits="userSpaceOnUse" />
    <linearGradient
       id="StandardGradient-50"
       gradientTransform="matrix(0.9984539,0,0,0.9984539,-0.0459776,0.05767558)"
       x1="10.710332"
       y1="1.9963325"
       x2="10.710332"
       y2="18.974037"
       gradientUnits="userSpaceOnUse">
      <stop
         style="stop-color:#000000;stop-opacity:0.86274511;"
         offset="0"
         id="stop3277-4" />
      <stop
         style="stop-color:#000000;stop-opacity:0.47058824;"
         offset="1"
         id="stop3279-8" />
    </linearGradient>
    <radialGradient
       inkscape:collect="always"
       xlink:href="#StandardGradient"
       id="radialGradient3844"
       cx="13"
       cy="11.730049"
       fx="13"
       fy="11.730049"
       r="6.5704479"
       gradientTransform="matrix(2.2829494,0,0,1.3697697,-16.678342,-4.0674665)"
       gradientUnits="userSpaceOnUse" />
    <radialGradient
       inkscape:collect="always"
       xlink:href="#StandardGradient"
       id="radialGradient3850"
       gradientUnits="userSpaceOnUse"
       gradientTransform="matrix(2.2829494,0,0,1.3697697,-16.678342,-4.0674665)"
       cx="13"
       cy="11.730049"
       fx="13"
       fy="11.730049"
       r="6.5704479" />
    <radialGradient
       inkscape:collect="always"
       xlink:href="#StandardGradient"
       id="radialGradient3854"
       gradientUnits="userSpaceOnUse"
       gradientTransform="matrix(2.2829494,0,0,1.3697697,-16.678342,-4.0674665)"
       cx="13"
       cy="11.730049"
       fx="13"
       fy="11.730049"
       r="6.5704479" />
    <radialGradient
       inkscape:collect="always"
       xlink:href="#StandardGradient"
       id="radialGradient3856"
       gradientUnits="userSpaceOnUse"
       gradientTransform="matrix(2.2829494,0,0,1.3697697,-16.678342,-4.0674665)"
       cx="13"
       cy="11.730049"
       fx="13"
       fy="11.730049"
       r="6.5704479" />
  </defs>
  <sodipodi:namedview
     id="base"
     pagecolor="#818181"
     bordercolor="#ffcfcf"
     borderopacity="1"
     inkscape:pageopacity="1"
     inkscape:pageshadow="2"
     inkscape:zoom="22.640002"
     inkscape:cx="2.6753933"
     inkscape:cy="5.0223569"
     inkscape:document-units="px"
     inkscape:current-layer="layer1"
     showgrid="true"
     inkscape:showpageshadow="false"
     showguides="true"
     inkscape:guide-bbox="true"
     inkscape:window-width="1920"
     inkscape:window-height="1030"
     inkscape:window-x="0"
     inkscape:window-y="25"
     inkscape:window-maximized="1"
     borderlayer="true"
     inkscape:snap-global="true">
    <sodipodi:guide
       orientation="0,1"
       position="26.278146,128"
       id="guide2385" />
    <sodipodi:guide
       orientation="1,0"
       position="128,54.082119"
       id="guide2387" />
    <sodipodi:guide
       orientation="0,1"
       position="60.863576,64.084768"
       id="guide2391" />
    <inkscape:grid
       type="xygrid"
       id="grid3672"
       visible="true"
       enabled="true"
       empspacing="8"
       snapvisiblegridlinesonly="true" />
    <sodipodi:guide
       orientation="1,0"
       position="13,6"
       id="guide3013" />
    <sodipodi:guide
       orientation="0,1"
       position="18,10"
       id="guide3015" />
  </sodipodi:namedview>
  <metadata
     id="metadata7">
    <rdf:RDF>
      <cc:Work
         rdf:about="">
        <dc:format>image/svg+xml</dc:format>
        <dc:type
           rdf:resource="http://purl.org/dc/dcmitype/StillImage" />
        <dc:title></dc:title>
      </cc:Work>
    </rdf:RDF>
  </metadata>
  <g
     inkscape:label="Icon"
     inkscape:groupmode="layer"
     id="layer1"
     style="display:inline">
    <path
       inkscape:connector-curvature="0"
       style="opacity:0.05;fill:#ffffff;fill-opacity:1;stroke:none;display:inline"
       d="M 11.8125,0.99999974 A 0.99954413,0.99954413 0 0 0 11,1.9999997 L 11,13.34375 C 10.382575,13.126053 9.7120042,13 9,13 7.6928781,13 6.4815705,13.404447 5.5625,14.09375 4.6434295,14.783053 4,15.81148 4,17 4,18.18852 4.6434295,19.216947 5.5625,19.90625 6.4815705,20.595553 7.6928781,21 9,21 10.307122,21 11.51843,20.595553 12.4375,19.90625 13.35657,19.216947 14,18.18852 14,17 l 0,-9.7500003 c 0.633249,0.1189821 1.405729,0.1763832 1.71875,0.40625 0.49571,0.364024 0.719572,0.8322179 0.84375,1.40625 0.248356,1.1480643 -0.164549,2.6919873 -0.375,3.2812503 a 1.00122,1.00122 0 1 0 1.84375,0.78125 c 1.464383,-3.090124 1.307697,-5.4042336 0.40625,-6.9687503 -0.901447,-1.5645167 -2.385854,-2.3518905 -3,-2.8125 -0.662049,-0.4965367 -1.035096,-0.9368541 -1.25,-1.25 -0.214904,-0.3131459 -0.25,-0.40625 -0.25,-0.40625 A 0.99954413,0.99954413 0 0 0 13,0.99999974 l -1,0 a 0.99954413,0.99954413 0 0 0 -0.09375,0 0.99954413,0.99954413 0 0 0 -0.09375,0 z M 12,1.9999997 l 1,0 c 0,0 0.34375,1.03125 1.84375,2.15625 1.473793,1.1053448 5.036633,2.7168728 2.28125,8.5312503 0.478516,-1.339844 2,-6.6875003 -4.125,-6.6875003 L 13,17 c 0,1.656854 -1.790861,3 -4,3 -2.209139,0 -4,-1.343146 -4,-3 0,-1.656854 1.790861,-3 4,-3 1.199678,0 2.266845,0.403911 3,1.03125 L 12,1.9999997 z"
       id="path6023" />
    <path
       inkscape:connector-curvature="0"
       style="fill:url(#radialGradient3844);fill-opacity:1;stroke:none;display:inline"
       d="M 12,1.9999997 12,15.03125 C 11.266845,14.403911 10.199678,14 9,14 c -2.209139,0 -4,1.343146 -4,3 0,1.656854 1.790861,3 4,3 2.209139,0 4,-1.343146 4,-3 L 13,5.9999997 c 6.125,0 4.603516,5.3476563 4.125,6.6875003 C 19.880383,6.8731225 16.317543,5.2615945 14.84375,4.1562497 13.34375,3.0312497 13,1.9999997 13,1.9999997 l -1,0 z"
       id="path2834" />
    <path
       inkscape:connector-curvature="0"
       style="opacity:0.3;fill:#000000;fill-opacity:1;stroke:none;display:inline"
       d="m 12,1.9999997 0,1 1,0 c 0,0 0.34375,1.03125 1.84375,2.15625 0.999062,0.7492962 2.94991,1.7277074 3.25,4.09375 0.192046,-3.0939827 -2.122396,-4.248047 -3.25,-5.09375 C 13.34375,3.0312497 13,1.9999997 13,1.9999997 l -1,0 z m 5.625,8.3437503 c -0.07051,0.987029 -0.340993,1.89853 -0.5,2.34375 0.172211,-0.363399 0.312597,-0.699784 0.4375,-1.03125 0.0085,-0.02249 0.02298,-0.04015 0.03125,-0.0625 0.04366,-0.409238 0.0748,-0.820642 0.03125,-1.25 z M 9,14 c -2.209139,0 -4,1.343146 -4,3 0,0.175201 0.055323,0.333032 0.09375,0.5 C 5.4187186,16.08797 7.0244625,15 9,15 c 1.199678,0 2.266845,0.403911 3,1.03125 l 0,-1 C 11.266845,14.403911 10.199678,14 9,14 z"
       id="path3612" />
    <path
       inkscape:connector-curvature="0"
       style="opacity:0.2;fill:#ffffff;fill-opacity:1;stroke:none;display:inline"
       d="m 13,5.9999997 0,1 c 3.403927,0 4.452843,1.6462845 4.625,3.3437503 C 17.766676,8.3604175 17.089708,5.9999997 13,5.9999997 z m 5.09375,3.25 c -0.04221,0.6799994 -0.172188,1.4575993 -0.5,2.3437503 -0.0083,0.02235 -0.02277,0.04001 -0.03125,0.0625 -0.09891,0.857107 -0.295748,1.634344 -0.4375,2.03125 0.887551,-1.8729 1.111346,-3.31321 0.96875,-4.4375003 z M 13,17 c 0,1.656854 -1.790861,3 -4,3 C 7.0244625,20 5.4187186,18.91203 5.09375,17.5 5.0553234,17.666968 5,17.824799 5,18 c 0,1.656854 1.790861,3 4,3 2.209139,0 4,-1.343146 4,-3 l 0,-1 z"
       id="path3665" />
    <path
       style="fill:#000000;fill-opacity:1;stroke:none;display:inline;opacity:0.3"
       d="M 12 2 L 12 15.03125 C 11.266845 14.403911 10.199678 14 9 14 C 6.790861 14 5 15.343146 5 17 C 5 18.656854 6.790861 20 9 20 C 11.209139 20 13 18.656854 13 17 L 13 6 C 19.125 6 17.603516 11.347656 17.125 12.6875 C 19.880383 6.8731225 16.317543 5.2615948 14.84375 4.15625 C 13.34375 3.03125 13 2 13 2 L 12 2 z M 12.5 2.5 L 12.71875 2.5 C 12.783859 2.6408335 12.798866 2.6899553 12.96875 2.9375 C 13.270643 3.3774008 13.769744 3.9366829 14.5625 4.53125 C 15.35907 5.1286775 16.508837 5.7826244 17.15625 6.90625 C 17.210201 6.9998855 17.233828 7.1175724 17.28125 7.21875 C 17.07909 6.9483732 16.891587 6.6874664 16.59375 6.46875 C 15.777774 5.8695393 14.60195 5.5 13 5.5 A 0.48591427 0.48591427 0 0 0 12.5 5.90625 L 12.5 2.5 z M 9 14.5 C 10.090623 14.5 11.053032 14.863354 11.6875 15.40625 A 0.48591427 0.48591427 0 0 0 12.5 15.125 L 12.5 17 C 12.5 17.653373 12.160208 18.247032 11.53125 18.71875 C 10.902292 19.190468 10.006101 19.5 9 19.5 C 7.9938985 19.5 7.0977077 19.190468 6.46875 18.71875 C 5.8397923 18.247032 5.5 17.653373 5.5 17 C 5.5 16.346627 5.8397923 15.752968 6.46875 15.28125 C 7.0977077 14.809532 7.9938985 14.5 9 14.5 z "
       id="path3846" />
  </g>
</svg>
