<?xml version="1.0" encoding="UTF-8" standalone="no"?>
<!-- Created with Inkscape (http://www.inkscape.org/) -->

<svg
   xmlns:dc="http://purl.org/dc/elements/1.1/"
   xmlns:cc="http://creativecommons.org/ns#"
   xmlns:rdf="http://www.w3.org/1999/02/22-rdf-syntax-ns#"
   xmlns:svg="http://www.w3.org/2000/svg"
   xmlns="http://www.w3.org/2000/svg"
   xmlns:xlink="http://www.w3.org/1999/xlink"
   xmlns:sodipodi="http://sodipodi.sourceforge.net/DTD/sodipodi-0.dtd"
   xmlns:inkscape="http://www.inkscape.org/namespaces/inkscape"
   width="24"
   height="24"
   id="svg2"
   sodipodi:version="0.32"
   inkscape:version="0.48.1 r9760"
   version="1.0"
   sodipodi:docname="weather-severe-alert.svg"
   inkscape:output_extension="org.inkscape.output.svg.inkscape"
   style="display:inline">
  <defs
     id="defs4">
    <inkscape:path-effect
       effect="skeletal"
       id="path-effect5487"
       is_visible="true"
       pattern="M 0,5 10,10 10,0 z"
       copytype="single_stretched"
       prop_scale="1"
       scale_y_rel="false"
       spacing="0"
       normal_offset="0"
       tang_offset="0"
       prop_units="false"
       vertical_pattern="false"
       fuse_tolerance="0" />
    <linearGradient
       inkscape:collect="always"
       id="linearGradient3327">
      <stop
         style="stop-color:#000000;stop-opacity:1;"
         offset="0"
         id="stop3330" />
      <stop
         style="stop-color:#000000;stop-opacity:0;"
         offset="1"
         id="stop3333" />
    </linearGradient>
    <linearGradient
       inkscape:collect="always"
       xlink:href="#linearGradient3327"
       id="linearGradient3335"
       x1="11.375"
       y1="22"
       x2="11.375"
       y2="-9.817296"
       gradientUnits="userSpaceOnUse" />
    <linearGradient
       inkscape:collect="always"
       xlink:href="#linearGradient3726"
       id="linearGradient3181"
       x1="-3.0607977"
       y1="27.258198"
       x2="-3.0607977"
       y2="7.2536583"
       gradientUnits="userSpaceOnUse"
       gradientTransform="translate(12.119372,-7.2581977)" />
    <filter
       inkscape:collect="always"
       id="filter3194"
       x="-0.18000001"
       width="1.36"
       y="-0.18000001"
       height="1.36"
       color-interpolation-filters="sRGB">
      <feGaussianBlur
         inkscape:collect="always"
         stdDeviation="1.2"
         id="feGaussianBlur3196" />
    </filter>
    <clipPath
       clipPathUnits="userSpaceOnUse"
       id="clipPath2849">
      <rect
         ry="2"
         rx="2"
         y="1"
         x="1"
         height="20"
         width="20"
         id="rect2851"
         style="fill:#ffffff;fill-opacity:1;fill-rule:evenodd;stroke:none;display:inline" />
    </clipPath>
    <linearGradient
       id="linearGradient3762-0">
      <stop
         style="stop-color:#ffda56;stop-opacity:1;"
         offset="0"
         id="stop3764-5" />
      <stop
         id="stop3770-3"
         offset="0.640625"
         style="stop-color:#ffda56;stop-opacity:1;" />
      <stop
         style="stop-color:#ffda56;stop-opacity:0;"
         offset="1"
         id="stop3766-9" />
    </linearGradient>
    <radialGradient
       inkscape:collect="always"
       xlink:href="#linearGradient3752-3"
       id="radialGradient4520"
       gradientUnits="userSpaceOnUse"
       cx="64"
       cy="32"
       fx="64"
       fy="32"
       r="32" />
    <linearGradient
       id="linearGradient3752-3">
      <stop
         id="stop3754-6"
         offset="0"
         style="stop-color:#ffdc4d;stop-opacity:1;" />
      <stop
         style="stop-color:#ffe041;stop-opacity:1;"
         offset="0.77642262"
         id="stop3756-2" />
      <stop
         id="stop3758-7"
         offset="1"
         style="stop-color:#fffda4;stop-opacity:0;" />
    </linearGradient>
    <linearGradient
       id="linearGradient3699-8">
      <stop
         style="stop-color:#fff894;stop-opacity:1;"
         offset="0"
         id="stop3701-8" />
      <stop
         id="stop4084"
         offset="0.80000001"
         style="stop-color:#ffc822;stop-opacity:1;" />
      <stop
         style="stop-color:#ffb400;stop-opacity:1;"
         offset="1"
         id="stop3703-4" />
    </linearGradient>
    <linearGradient
       id="linearGradient3823-9">
      <stop
         id="stop3825-8"
         offset="0"
         style="stop-color:#ffffff;stop-opacity:1;" />
      <stop
         id="stop3829-3"
         offset="1"
         style="stop-color:#ffffff;stop-opacity:0;" />
    </linearGradient>
    <linearGradient
       inkscape:collect="always"
       xlink:href="#linearGradient3831-4"
       id="linearGradient3845-6"
       x1="11"
       y1="19.5"
       x2="21"
       y2="19.5"
       gradientUnits="userSpaceOnUse"
       spreadMethod="reflect"
       gradientTransform="translate(1,1)" />
    <linearGradient
       id="linearGradient3831-4">
      <stop
         style="stop-color:#ffffff;stop-opacity:1;"
         offset="0"
         id="stop3833-7" />
      <stop
         id="stop3821-1"
         offset="0.75"
         style="stop-color:#ffffff;stop-opacity:0.49803922;" />
      <stop
         style="stop-color:#ffffff;stop-opacity:0;"
         offset="1"
         id="stop3835-5" />
    </linearGradient>
    <linearGradient
       y2="16"
       x2="10"
       y1="1"
       x1="10"
       gradientTransform="translate(1,1)"
       gradientUnits="userSpaceOnUse"
       id="linearGradient4763"
       xlink:href="#linearGradient3823-9"
       inkscape:collect="always" />
    <linearGradient
       id="linearGradient3700-86">
      <stop
         style="stop-color:#66707c;stop-opacity:1;"
         offset="0"
         id="stop3702-7-7" />
      <stop
         style="stop-color:#a4a8ac;stop-opacity:1;"
         offset="1"
         id="stop3704-0" />
    </linearGradient>
    <linearGradient
       inkscape:collect="always"
       xlink:href="#linearGradient3700-86-3"
       id="linearGradient3181-8"
       x1="-3.0607977"
       y1="27.258198"
       x2="-3.0607977"
       y2="7.2536583"
       gradientUnits="userSpaceOnUse"
       gradientTransform="translate(12.119372,-7.2581977)" />
    <linearGradient
       id="linearGradient3700-86-3">
      <stop
         style="stop-color:#66707c;stop-opacity:1;"
         offset="0"
         id="stop3702-7-7-6" />
      <stop
         style="stop-color:#a4a8ac;stop-opacity:1;"
         offset="1"
         id="stop3704-0-0" />
    </linearGradient>
    <linearGradient
       inkscape:collect="always"
       id="linearGradient4810">
      <stop
         style="stop-color:#ffffff;stop-opacity:1;"
         offset="0"
         id="stop4812" />
      <stop
         style="stop-color:#ffffff;stop-opacity:0;"
         offset="1"
         id="stop4814" />
    </linearGradient>
    <linearGradient
       inkscape:collect="always"
       id="linearGradient3814-9-16">
      <stop
         style="stop-color:#ffffff;stop-opacity:1;"
         offset="0"
         id="stop3816-9-9" />
      <stop
         style="stop-color:#ffffff;stop-opacity:0;"
         offset="1"
         id="stop3818-8-0" />
    </linearGradient>
    <linearGradient
       y2="38.687656"
       x2="45.966625"
       y1="18.873959"
       x1="45.966625"
       gradientTransform="translate(46.277498,18.233172)"
       gradientUnits="userSpaceOnUse"
       id="linearGradient3546"
       xlink:href="#linearGradient3814-9-16"
       inkscape:collect="always" />
    <linearGradient
       inkscape:collect="always"
       xlink:href="#linearGradient4810"
       id="linearGradient5411"
       gradientUnits="userSpaceOnUse"
       gradientTransform="matrix(0.2411522,0,0,0.23831603,9.1939491,20.313313)"
       spreadMethod="reflect"
       x1="42.818394"
       y1="66.939888"
       x2="43.270054"
       y2="35.27647" />
    <linearGradient
       inkscape:collect="always"
       xlink:href="#linearGradient4810"
       id="linearGradient5432"
       gradientUnits="userSpaceOnUse"
       gradientTransform="matrix(0.2411522,0,0,0.23831603,4.410282,19.11279)"
       spreadMethod="reflect"
       x1="56.461472"
       y1="56.0373"
       x2="56.461472"
       y2="44.43996" />
    <linearGradient
       inkscape:collect="always"
       xlink:href="#linearGradient4810"
       id="linearGradient5435"
       gradientUnits="userSpaceOnUse"
       gradientTransform="matrix(0.2411522,0,0,0.23831603,5.1331477,22.974546)"
       spreadMethod="reflect"
       x1="64.447701"
       y1="54.932674"
       x2="64.447701"
       y2="36.757607" />
    <linearGradient
       inkscape:collect="always"
       xlink:href="#linearGradient4810"
       id="linearGradient5441"
       gradientUnits="userSpaceOnUse"
       gradientTransform="matrix(0.2411522,0,0,0.23831603,13.956277,14.85797)"
       spreadMethod="reflect"
       x1="49.649223"
       y1="69.250671"
       x2="49.649223"
       y2="51.033485" />
    <linearGradient
       inkscape:collect="always"
       xlink:href="#linearGradient4810"
       id="linearGradient5444"
       gradientUnits="userSpaceOnUse"
       gradientTransform="matrix(0.2411522,0,0,0.23831603,17.130468,19.198632)"
       spreadMethod="reflect"
       x1="56.461472"
       y1="56.0373"
       x2="56.461472"
       y2="44.43996" />
    <linearGradient
       inkscape:collect="always"
       xlink:href="#linearGradient4810"
       id="linearGradient5453"
       gradientUnits="userSpaceOnUse"
       gradientTransform="matrix(0.23809524,0,0,0.23809524,3.1417199,19.965754)"
       spreadMethod="reflect"
       x1="34.175827"
       y1="57.867619"
       x2="34.688854"
       y2="39.914955" />
    <linearGradient
       inkscape:collect="always"
       xlink:href="#linearGradient4810"
       id="linearGradient5456"
       gradientUnits="userSpaceOnUse"
       spreadMethod="reflect"
       x1="99.479851"
       y1="46.581116"
       x2="99.479851"
       y2="34.625645"
       gradientTransform="matrix(0.2411522,0,0,0.23831603,5.7913038,19.733989)" />
    <linearGradient
       inkscape:collect="always"
       xlink:href="#linearGradient4810"
       id="linearGradient5459"
       gradientUnits="userSpaceOnUse"
       spreadMethod="reflect"
       x1="64.447701"
       y1="54.932674"
       x2="64.447701"
       y2="36.757607"
       gradientTransform="matrix(0.2411522,0,0,0.23831603,6.4931032,19.600956)" />
    <linearGradient
       inkscape:collect="always"
       xlink:href="#linearGradient4810"
       id="linearGradient5462"
       gradientUnits="userSpaceOnUse"
       spreadMethod="reflect"
       x1="34.175827"
       y1="57.867619"
       x2="34.688854"
       y2="39.914955"
       gradientTransform="matrix(0.2411522,0,0,0.23831603,6.34558,19.64002)" />
    <linearGradient
       inkscape:collect="always"
       xlink:href="#linearGradient4810"
       id="linearGradient5465"
       gradientUnits="userSpaceOnUse"
       gradientTransform="matrix(0.23809524,0,0,0.23809524,6.2528977,20.276351)"
       spreadMethod="reflect"
       x1="27.483698"
       y1="63.801872"
       x2="27.483698"
       y2="31.981205" />
    <linearGradient
       inkscape:collect="always"
       xlink:href="#linearGradient4810"
       id="linearGradient5468"
       gradientUnits="userSpaceOnUse"
       spreadMethod="reflect"
       x1="87.269562"
       y1="70.558372"
       x2="87.269562"
       y2="38.525948"
       gradientTransform="matrix(0.23809524,0,0,0.23809524,6.1495691,19.758297)" />
    <linearGradient
       inkscape:collect="always"
       xlink:href="#linearGradient4810"
       id="linearGradient5471"
       gradientUnits="userSpaceOnUse"
       gradientTransform="matrix(0.2411522,0,0,0.23831603,5.5583686,19.79567)"
       spreadMethod="reflect"
       x1="97.048943"
       y1="60.691067"
       x2="97.048943"
       y2="28.449224" />
    <linearGradient
       inkscape:collect="always"
       xlink:href="#linearGradient4810"
       id="linearGradient5474"
       gradientUnits="userSpaceOnUse"
       spreadMethod="reflect"
       x1="73.866722"
       y1="66.902718"
       x2="73.866722"
       y2="35.248737"
       gradientTransform="matrix(0.2411522,0,0,0.23831603,6.1662642,19.634701)" />
    <linearGradient
       inkscape:collect="always"
       xlink:href="#linearGradient4810"
       id="linearGradient5480"
       gradientUnits="userSpaceOnUse"
       spreadMethod="reflect"
       x1="42.818394"
       y1="66.939888"
       x2="43.270054"
       y2="35.27647"
       gradientTransform="matrix(0.23809524,0,0,0.23809524,5.8639103,19.676581)" />
    <clipPath
       clipPathUnits="userSpaceOnUse"
       id="clipPath5548">
      <rect
         ry="1.9999999"
         rx="1.9999999"
         y="2"
         x="2"
         height="20"
         width="20"
         id="rect5550"
         style="fill:#ff00ff;fill-opacity:1;fill-rule:evenodd;stroke:none;display:inline" />
    </clipPath>
    <linearGradient
       inkscape:collect="always"
       xlink:href="#linearGradient3700"
       id="linearGradient3617"
       gradientUnits="userSpaceOnUse"
       x1="48"
       y1="90"
       x2="48"
       y2="5.9877172" />
    <linearGradient
       id="linearGradient3700">
      <stop
         style="stop-color:#7d7d7d;stop-opacity:1;"
         offset="0"
         id="stop3702" />
      <stop
         style="stop-color:#c2c2c2;stop-opacity:1;"
         offset="1"
         id="stop3704" />
    </linearGradient>
    <linearGradient
       y2="76.550301"
       x2="75.917961"
       y1="63.13913"
       x1="75.917961"
       gradientTransform="translate(-5,-52.999999)"
       gradientUnits="userSpaceOnUse"
       id="linearGradient3953"
       xlink:href="#linearGradient3862-9"
       inkscape:collect="always" />
    <linearGradient
       inkscape:collect="always"
       id="linearGradient3862-9">
      <stop
         style="stop-color:#ffffff;stop-opacity:1;"
         offset="0"
         id="stop3864-9" />
      <stop
         style="stop-color:#ffffff;stop-opacity:0;"
         offset="1"
         id="stop3866-2" />
    </linearGradient>
    <linearGradient
       inkscape:collect="always"
       xlink:href="#linearGradient3814-9"
       id="linearGradient3852-0"
       x1="29.300009"
       y1="52.947876"
       x2="29.300009"
       y2="73.400635"
       gradientUnits="userSpaceOnUse"
       gradientTransform="matrix(-1,0,0,1,100.25,-11.999999)" />
    <linearGradient
       inkscape:collect="always"
       id="linearGradient3814-9">
      <stop
         style="stop-color:#ffffff;stop-opacity:1;"
         offset="0"
         id="stop3816-9" />
      <stop
         style="stop-color:#ffffff;stop-opacity:0;"
         offset="1"
         id="stop3818-8" />
    </linearGradient>
    <linearGradient
       inkscape:collect="always"
       xlink:href="#linearGradient3814-9"
       id="linearGradient3820-0"
       x1="38.534676"
       y1="8.6325254"
       x2="38.534676"
       y2="44.721241"
       gradientUnits="userSpaceOnUse"
       gradientTransform="translate(-0.9770125,-1.022987)" />
    <linearGradient
       inkscape:collect="always"
       xlink:href="#linearGradient3854-2"
       id="linearGradient3860-8"
       x1="46.769516"
       y1="78.496399"
       x2="46.769516"
       y2="91.665634"
       gradientUnits="userSpaceOnUse"
       gradientTransform="translate(20,-27.999999)" />
    <linearGradient
       inkscape:collect="always"
       id="linearGradient3854-2">
      <stop
         style="stop-color:#ffffff;stop-opacity:1;"
         offset="0"
         id="stop3856-1" />
      <stop
         style="stop-color:#ffffff;stop-opacity:0;"
         offset="1"
         id="stop3858-3" />
    </linearGradient>
    <linearGradient
       inkscape:collect="always"
       xlink:href="#linearGradient3814-9"
       id="linearGradient3844-1"
       x1="35.83757"
       y1="56.923836"
       x2="35.83757"
       y2="86.110924"
       gradientUnits="userSpaceOnUse"
       gradientTransform="translate(-13,-6)" />
    <linearGradient
       inkscape:collect="always"
       xlink:href="#linearGradient3814-9"
       id="linearGradient3828-0"
       x1="45.966625"
       y1="18.873959"
       x2="45.966625"
       y2="48.086025"
       gradientUnits="userSpaceOnUse"
       gradientTransform="translate(-15.722502,2.2331719)" />
    <linearGradient
       inkscape:collect="always"
       xlink:href="#linearGradient3814-9"
       id="linearGradient3836-6"
       x1="76.75824"
       y1="27.409969"
       x2="76.75824"
       y2="56.865051"
       gradientUnits="userSpaceOnUse"
       gradientTransform="translate(13.348109,-4.674878)" />
    <linearGradient
       inkscape:collect="always"
       xlink:href="#linearGradient3814-9"
       id="linearGradient3872-4"
       gradientUnits="userSpaceOnUse"
       gradientTransform="matrix(-0.96032399,0.27888679,0.27888679,0.96032399,101.43916,44.295347)"
       x1="39.819206"
       y1="13.055696"
       x2="45.633511"
       y2="33.076782" />
    <linearGradient
       inkscape:collect="always"
       xlink:href="#linearGradient3862-9"
       id="linearGradient3868-5"
       x1="75.917961"
       y1="63.13913"
       x2="75.917961"
       y2="76.550301"
       gradientUnits="userSpaceOnUse"
       gradientTransform="translate(-55,-22.999999)" />
    <linearGradient
       inkscape:collect="always"
       xlink:href="#linearGradient3814-9"
       id="linearGradient4201"
       gradientUnits="userSpaceOnUse"
       gradientTransform="matrix(0.98730033,0,0,1,-27.058182,16.325122)"
       x1="76.75824"
       y1="27.409969"
       x2="76.75824"
       y2="39.187981" />
    <linearGradient
       inkscape:collect="always"
       xlink:href="#linearGradient3814-9"
       id="linearGradient4205"
       gradientUnits="userSpaceOnUse"
       gradientTransform="matrix(-1,0,0,1,88.94186,-13.674878)"
       x1="76.75824"
       y1="27.409969"
       x2="76.75824"
       y2="56.865051" />
    <linearGradient
       inkscape:collect="always"
       xlink:href="#linearGradient3854-2"
       id="linearGradient4209"
       gradientUnits="userSpaceOnUse"
       gradientTransform="translate(46,-67.999999)"
       x1="46.769516"
       y1="78.496399"
       x2="46.769516"
       y2="91.665634" />
    <linearGradient
       inkscape:collect="always"
       xlink:href="#linearGradient3814-9"
       id="linearGradient3707"
       gradientUnits="userSpaceOnUse"
       gradientTransform="translate(12.348109,46.325122)"
       x1="76.75824"
       y1="27.409969"
       x2="76.75824"
       y2="39.187981" />
    <linearGradient
       inkscape:collect="always"
       xlink:href="#linearGradient3814-9"
       id="linearGradient3716"
       gradientUnits="userSpaceOnUse"
       gradientTransform="matrix(0.67646205,0,0,0.67646205,-0.4057329,24.945591)"
       x1="29.300009"
       y1="52.947876"
       x2="29.300009"
       y2="73.400635" />
    <linearGradient
       inkscape:collect="always"
       xlink:href="#linearGradient3854-2"
       id="linearGradient3720"
       gradientUnits="userSpaceOnUse"
       gradientTransform="translate(12,-63.999999)"
       x1="46.769516"
       y1="78.496399"
       x2="46.769516"
       y2="91.665634" />
    <linearGradient
       y2="91.665634"
       x2="46.769516"
       y1="78.496399"
       x1="46.769516"
       gradientTransform="translate(12,-63.999999)"
       gradientUnits="userSpaceOnUse"
       id="linearGradient3532"
       xlink:href="#linearGradient3854-2"
       inkscape:collect="always" />
    <linearGradient
       inkscape:collect="always"
       xlink:href="#linearGradient3700-3"
       id="linearGradient3181-1"
       x1="-3.0607977"
       y1="27.258198"
       x2="-3.0607977"
       y2="7.2536583"
       gradientUnits="userSpaceOnUse"
       gradientTransform="translate(12.119372,-7.2581977)" />
    <linearGradient
       id="linearGradient3700-3">
      <stop
         style="stop-color:#7d7d7d;stop-opacity:1;"
         offset="0"
         id="stop3702-7" />
      <stop
         style="stop-color:#c2c2c2;stop-opacity:1;"
         offset="1"
         id="stop3704-7" />
    </linearGradient>
    <clipPath
       clipPathUnits="userSpaceOnUse"
       id="clipPath4134">
      <rect
         style="fill:#ff00ff;fill-opacity:1;fill-rule:evenodd;stroke:none;display:inline"
         id="rect4136"
         width="84"
         height="84"
         x="6"
         y="6"
         rx="8.3999996"
         ry="8.3999996" />
    </clipPath>
    <linearGradient
       inkscape:collect="always"
       xlink:href="#linearGradient3779"
       id="linearGradient3755"
       x1="56.65815"
       y1="51.019985"
       x2="56.65815"
       y2="23.566277"
       gradientUnits="userSpaceOnUse" />
    <linearGradient
       id="linearGradient3779">
      <stop
         id="stop3781"
         offset="0"
         style="stop-color:#d00000;stop-opacity:1;" />
      <stop
         id="stop3783"
         offset="1"
         style="stop-color:#ff3c22;stop-opacity:1;" />
    </linearGradient>
    <linearGradient
       y2="23.566277"
       x2="56.65815"
       y1="51.019985"
       x1="56.65815"
       gradientUnits="userSpaceOnUse"
       id="linearGradient3204"
       xlink:href="#linearGradient3779"
       inkscape:collect="always" />
    <linearGradient
       inkscape:collect="always"
       xlink:href="#linearGradient3726"
       id="linearGradient3617-9"
       gradientUnits="userSpaceOnUse"
       x1="48"
       y1="90"
       x2="48"
       y2="5.9877172" />
    <linearGradient
       id="linearGradient3726">
      <stop
         id="stop3728"
         offset="0"
         style="stop-color:#696969;stop-opacity:1;" />
      <stop
         id="stop3730"
         offset="1"
         style="stop-color:#b4b4b4;stop-opacity:1;" />
    </linearGradient>
    <linearGradient
       gradientTransform="translate(-22.828168,-44.089069)"
       y2="5.9877172"
       x2="48"
       y1="90"
       x1="48"
       gradientUnits="userSpaceOnUse"
       id="linearGradient3221"
       xlink:href="#linearGradient3726"
       inkscape:collect="always" />
  </defs>
  <sodipodi:namedview
     id="base"
     pagecolor="#ffffff"
     bordercolor="#e7e7e7"
     borderopacity="1"
     inkscape:pageopacity="0.0"
     inkscape:pageshadow="2"
     inkscape:zoom="19.625111"
     inkscape:cx="9.8991495"
     inkscape:cy="15.389687"
     inkscape:document-units="px"
     inkscape:current-layer="layer1"
     showgrid="true"
     inkscape:showpageshadow="false"
     showguides="false"
     inkscape:guide-bbox="true"
     inkscape:window-width="1920"
     inkscape:window-height="1030"
     inkscape:window-x="0"
     inkscape:window-y="25"
     inkscape:window-maximized="1"
     inkscape:snap-global="false">
    <sodipodi:guide
       orientation="1,0"
       position="0,112"
       id="guide2383" />
    <sodipodi:guide
       orientation="0,1"
       position="26.278146,128"
       id="guide2385" />
    <sodipodi:guide
       orientation="1,0"
       position="128,54.082119"
       id="guide2387" />
    <sodipodi:guide
       orientation="0,1"
       position="78.156291,0"
       id="guide2389" />
    <sodipodi:guide
       orientation="0,1"
       position="60.863576,64.084768"
       id="guide2391" />
    <inkscape:grid
       type="xygrid"
       id="grid3672"
       visible="true"
       enabled="true"
       empspacing="8"
       snapvisiblegridlinesonly="true" />
  </sodipodi:namedview>
  <metadata
     id="metadata7">
    <rdf:RDF>
      <cc:Work
         rdf:about="">
        <dc:format>image/svg+xml</dc:format>
        <dc:type
           rdf:resource="http://purl.org/dc/dcmitype/StillImage" />
        <dc:title></dc:title>
      </cc:Work>
    </rdf:RDF>
  </metadata>
  <g
     inkscape:label="Button"
     inkscape:groupmode="layer"
     id="layer1"
     transform="translate(0,2)">
    <g
       style="display:inline"
       id="g3337"
       transform="translate(1,-1)">
      <rect
         ry="2.5"
         rx="2.5"
         y="0.5"
         x="0.5"
         height="21.5"
         width="21"
         id="rect3371"
         style="opacity:0.3;fill:url(#linearGradient3335);fill-opacity:1;stroke:none;display:inline" />
      <rect
         style="opacity:0.5;fill:#000000;fill-opacity:1;stroke:none;display:inline"
         id="rect2553"
         width="20"
         height="20"
         x="1"
         y="2"
         rx="2.3809524"
         ry="2.3255813" />
    </g>
    <rect
       style="fill:url(#linearGradient3181);fill-opacity:1.0;fill-rule:evenodd;stroke:none;display:inline"
       id="rect3173"
       width="20"
       height="20"
       x="2"
       y="0"
       rx="2"
       ry="2" />
    <path
       id="path3018"
       d="m -26,-1.8e-7 c -1.108,0 -2,0.89199998 -2,1.99999998 l 0,1 c 0,-1.108 0.892,-2 2,-2 l 16,0 c 1.108,0 2,0.892 2,2 l 0,-1 C -8,0.8919998 -8.892,-1.8e-7 -10,-1.8e-7 l -16,0 z"
       style="opacity:0.25;fill:#ffffff;fill-opacity:1;fill-rule:evenodd;stroke:none;display:inline"
       inkscape:connector-curvature="0" />
    <path
       style="opacity:0.15;fill:#000000;fill-opacity:1;fill-rule:evenodd;stroke:none;display:inline"
       d="m -26,19.999999 c -1.108,0 -2,-0.891999 -2,-1.999999 l 0,-1 c 0,1.108 0.892,2 2,2 l 16,0 c 1.108,0 2,-0.892 2,-2 l 0,1 c 0,1.108 -0.892,1.999999 -2,1.999999 l -16,0 z"
       id="path3020"
       inkscape:connector-curvature="0" />
  </g>
  <g
     inkscape:groupmode="layer"
     id="layer2"
     inkscape:label="Highlight"
     transform="translate(0,2)"
     sodipodi:insensitive="true"
     style="display:none">
    <rect
       style="opacity:0.15;fill:#ffffff;fill-opacity:1;fill-rule:nonzero;stroke:none;display:inline;filter:url(#filter3194)"
       id="rect2410"
       width="16"
       height="16"
       x="3"
       y="3"
       rx="2"
       ry="2"
       clip-path="url(#clipPath2849)"
       transform="translate(1,-1)" />
  </g>
  <g
     inkscape:groupmode="layer"
     id="layer4"
     inkscape:label="Clouds"
     sodipodi:insensitive="true">
    <rect
       transform="matrix(0.96592583,0.25881904,-0.25881904,0.96592583,0,0)"
       y="27.995602"
       x="16.058765"
       height="15.238095"
       width="0.47619048"
       id="rect4800"
       style="opacity:0.4;color:#000000;fill:url(#linearGradient5480);fill-opacity:1;stroke:none;stroke-width:1.5;marker:none;visibility:visible;display:inline;overflow:visible;enable-background:accumulate" />
    <rect
       transform="matrix(0.96679898,0.25553812,-0.26213597,0.96503095,0,0)"
       style="opacity:0.4;color:#000000;fill:url(#linearGradient5474);fill-opacity:1;stroke:none;stroke-width:1.5;marker:none;visibility:visible;display:inline;overflow:visible;enable-background:accumulate"
       id="rect4822"
       width="0.48230439"
       height="15.252226"
       x="23.979385"
       y="27.952579" />
    <rect
       transform="matrix(0.96679898,0.25553812,-0.26213597,0.96503095,0,0)"
       y="26.633211"
       x="28.961935"
       height="15.252226"
       width="0.48230439"
       id="rect4826"
       style="opacity:0.4;color:#000000;fill:url(#linearGradient5471);fill-opacity:1;stroke:none;stroke-width:1.5;marker:none;visibility:visible;display:inline;overflow:visible;enable-background:accumulate" />
    <rect
       transform="matrix(0.96592583,0.25881904,-0.25881904,0.96592583,0,0)"
       style="opacity:0.4;color:#000000;fill:url(#linearGradient5468);fill-opacity:1;stroke:none;stroke-width:1.5;marker:none;visibility:visible;display:inline;overflow:visible;enable-background:accumulate"
       id="rect4830"
       width="0.47619048"
       height="15.238095"
       x="26.928038"
       y="28.938862" />
    <rect
       transform="matrix(0.96592583,0.25881904,-0.25881904,0.96592583,0,0)"
       y="27.848227"
       x="12.796635"
       height="15.238095"
       width="0.47619048"
       id="rect4834"
       style="opacity:0.6;color:#000000;fill:url(#linearGradient5465);fill-opacity:1;stroke:none;stroke-width:1.5;marker:none;visibility:visible;display:inline;overflow:visible;enable-background:accumulate" />
    <rect
       transform="matrix(0.96679898,0.25553812,-0.26213597,0.96503095,0,0)"
       y="29.141111"
       x="14.587154"
       height="8.5793762"
       width="0.48230439"
       id="rect4842"
       style="opacity:0.4;color:#000000;fill:url(#linearGradient5462);fill-opacity:1;stroke:none;stroke-width:1.5;marker:none;visibility:visible;display:inline;overflow:visible;enable-background:accumulate" />
    <rect
       transform="matrix(0.96679898,0.25553812,-0.26213597,0.96503095,0,0)"
       style="opacity:0.4;color:#000000;fill:url(#linearGradient5459);fill-opacity:1;stroke:none;stroke-width:1.5;marker:none;visibility:visible;display:inline;overflow:visible;enable-background:accumulate"
       id="rect4846"
       width="0.48230439"
       height="8.5793762"
       x="22.034807"
       y="28.402603" />
    <rect
       transform="matrix(0.96679898,0.25553812,-0.26213597,0.96503095,0,0)"
       style="opacity:0.4;color:#000000;fill:url(#linearGradient5456);fill-opacity:1;stroke:none;stroke-width:1.5;marker:none;visibility:visible;display:inline;overflow:visible;enable-background:accumulate"
       id="rect4854"
       width="0.48230439"
       height="5.7195849"
       x="29.78109"
       y="27.975224" />
    <rect
       style="opacity:0.4;color:#000000;fill:url(#linearGradient5453);fill-opacity:1;stroke:none;stroke-width:1.5;marker:none;visibility:visible;display:inline;overflow:visible;enable-background:accumulate"
       id="rect3220"
       width="0.47619048"
       height="8.5714283"
       x="11.278821"
       y="29.458044"
       transform="matrix(0.96592583,0.25881904,-0.25881904,0.96592583,0,0)" />
    <rect
       transform="matrix(0.96679898,0.25553812,-0.26213597,0.96503095,0,0)"
       style="opacity:0.4;color:#000000;fill:url(#linearGradient5444);fill-opacity:1;stroke:none;stroke-width:1.5;marker:none;visibility:visible;display:inline;overflow:visible;enable-background:accumulate"
       id="rect4004"
       width="0.48230439"
       height="5.7195849"
       x="30.746275"
       y="29.693424" />
    <rect
       y="27.071827"
       x="25.929293"
       height="8.5793762"
       width="0.48230439"
       id="rect4008"
       style="opacity:0.6;color:#000000;fill:url(#linearGradient5441);fill-opacity:1;stroke:none;stroke-width:1.5;marker:none;visibility:visible;display:inline;overflow:visible;enable-background:accumulate"
       transform="matrix(0.96679898,0.25553812,-0.26213597,0.96503095,0,0)" />
    <rect
       y="31.776197"
       x="20.674854"
       height="8.5793762"
       width="0.48230439"
       id="rect4016"
       style="opacity:0.4;color:#000000;fill:url(#linearGradient5435);fill-opacity:1;stroke:none;stroke-width:1.5;marker:none;visibility:visible;display:inline;overflow:visible;enable-background:accumulate"
       transform="matrix(0.96679898,0.25553812,-0.26213597,0.96503095,0,0)" />
    <rect
       y="29.607582"
       x="18.026089"
       height="5.7195849"
       width="0.48230439"
       id="rect4020"
       style="opacity:0.4;color:#000000;fill:url(#linearGradient5432);fill-opacity:1;stroke:none;stroke-width:1.5;marker:none;visibility:visible;display:inline;overflow:visible;enable-background:accumulate"
       transform="matrix(0.96679898,0.25553812,-0.26213597,0.96503095,0,0)" />
    <rect
       style="opacity:0.6;color:#000000;fill:url(#linearGradient5411);fill-opacity:1;stroke:none;stroke-width:1.5;marker:none;visibility:visible;display:inline;overflow:visible;enable-background:accumulate"
       id="rect4052"
       width="0.48230439"
       height="15.252226"
       x="19.519697"
       y="28.640049"
       transform="matrix(0.96679898,0.25553812,-0.26213597,0.96503095,0,0)" />
    <g
       transform="matrix(0.23809524,0,0,0.23809524,0.5714286,0.5714286)"
       id="g4062"
       clip-path="url(#clipPath4134)">
      <path
         style="opacity:0.2;color:#000000;fill:url(#linearGradient3953);fill-opacity:1;fill-rule:nonzero;stroke:none;stroke-width:1.5;marker:none;visibility:visible;display:inline;overflow:visible;enable-background:accumulate"
         d="m 72.9375,9.6562505 c -3.500466,0 -6.464046,2.1862485 -7.625,5.2812495 -2.922683,0.05208 -5.28125,2.43988 -5.28125,5.375 0,2.96774 2.40726,5.375 5.375,5.375 1.175339,0 2.240467,-0.391098 3.125,-1.03125 1.273613,0.821116 2.778216,1.3125 4.40625,1.3125 0.412169,0 0.822986,-0.03481 1.21875,-0.09375 0.460796,0.558356 1.157023,0.9375 1.9375,0.9375 1.110012,0 2.04265,-0.720393 2.375,-1.71875 0.573002,0.172102 1.183445,0.28125 1.8125,0.28125 3.468787,0 6.28125,-2.812463 6.28125,-6.28125 0,-2.905109 -1.977571,-5.344769 -4.65625,-6.0625 0.02473,-0.153234 0.0625,-0.308536 0.0625,-0.46875 0,-1.618766 -1.318733,-2.9062495 -2.9375,-2.9062495 -0.866194,0 -1.650919,0.3713705 -2.1875,0.9687495 C 75.68682,9.9965185 74.346695,9.6562505 72.9375,9.6562505 z"
         id="path3874"
         inkscape:connector-curvature="0" />
      <path
         id="path3646"
         d="m 72.8125,35.15625 c 2.196898,0 4,1.771853 4,3.96875 0,0.74779 -0.234896,1.433679 -0.59375,2.03125 0.396471,0.462471 0.790972,0.925504 1.125,1.4375 0.681531,-0.135817 1.401486,-0.1875 2.125,-0.1875 2.342298,0 4.486053,0.73926 6.21875,2 1.174638,-2.436869 3.528741,-4.09375 6.25,-4.09375 3.89275,0 7.0625,3.392664 7.0625,7.59375 0,1.911696 -0.67101,3.663674 -1.75,5 1.42884,1.65033 2.3125,3.799804 2.3125,6.125 0,5.241724 -4.38536,9.46875 -9.78125,9.46875 -1.879443,0 -3.635121,-0.512833 -5.125,-1.40625 -1.159064,1.314736 -2.66966,2.351266 -4.375,2.90625 -2.578942,2.694105 -6.22602,4.375 -10.25,4.375 -4.296668,0 -8.15195,-1.916983 -10.75,-4.9375 -1.905004,-0.366117 -3.62767,-1.271505 -5.03125,-2.5 -0.155564,0.01128 -0.310309,0.03125 -0.46875,0.03125 -2.109865,0 -3.985908,-1.022447 -5.15625,-2.59375 -0.346612,0.04367 -0.70314,0.09375 -1.0625,0.09375 -4.355255,0 -7.875,-3.32079 -7.875,-7.40625 0,-4.085459 3.519745,-7.40625 7.875,-7.40625 0.08406,0 0.166571,0.0288 0.25,0.03125 0.138216,-2.271051 2.084407,-4.0625 4.5,-4.0625 0.05453,0 0.10219,0.02943 0.15625,0.03125 1.891389,-5.46616 7.046845,-9.375 13.15625,-9.375 1.366336,0 2.689547,0.196511 3.9375,0.5625 0.719418,-1.02599 1.901775,-1.6875 3.25,-1.6875 z"
         style="opacity:0.5;color:#000000;fill:url(#linearGradient3852-0);fill-opacity:1;fill-rule:nonzero;stroke:none;stroke-width:1.5;marker:none;visibility:visible;display:inline;overflow:visible;enable-background:accumulate"
         inkscape:connector-curvature="0" />
      <path
         id="path3686"
         d="m 51.585488,6.914513 c -1.426057,0 -2.59375,1.136444 -2.59375,2.562499 0,0.942216 0.496231,1.767837 1.25,2.21875 -0.429787,0.623255 -0.751958,1.318148 -0.96875,2.0625 -0.78008,-0.264813 -1.586998,-0.457614 -2.4375,-0.53125 0.02776,-0.153832 0.0625,-0.306918 0.0625,-0.46875 0,-1.464599 -1.191651,-2.65625 -2.65625,-2.65625 -1.0731,0 -1.988818,0.645664 -2.40625,1.5625 -1.06157,-1.086442 -2.525602,-1.777808 -4.15625,-1.8125 0,-1.31043 -1.064569,-2.374999 -2.375,-2.374999 -1.233894,0 -2.229288,0.952028 -2.34375,2.156249 -0.377189,-0.136093 -0.794642,-0.21875 -1.21875,-0.21875 -1.965646,0 -3.5625,1.596854 -3.5625,3.5625 0,0.06439 0.02787,0.123947 0.03125,0.1875 -0.60789,-0.07841 -1.21667,-0.125 -1.84375,-0.125 -1.668679,0 -3.247709,0.284836 -4.75,0.78125 -1.138495,-1.080176 -2.681735,-1.75 -4.375,-1.75 -3.507329,0 -6.34375,2.836421 -6.34375,6.343751 0,0.526099 0.06691,1.042389 0.1875,1.53125 -2.156008,0.282075 -3.812501,2.1108 -3.812501,4.34375 0,0.438416 0.06804,0.850439 0.1875,1.25 -0.217819,0.190145 -0.426796,0.383406 -0.625,0.59375 -0.876249,-0.749916 -2.013659,-1.21875 -3.2812495,-1.21875 -2.7364877,0 -4.9375,2.129138 -4.9375,4.75 0,2.62086 2.2010123,4.75 4.9375,4.75 0.4111008,0 0.8055509,-0.06587 1.1875,-0.15625 0.9607405,3.771062 4.3659355,6.5625 8.4375005,6.5625 1.279717,0 2.498856,-0.286223 3.59375,-0.78125 2.621939,2.143934 5.942678,3.4375 9.59375,3.4375 4.933165,0 9.313992,-2.360592 12.09375,-6 0.734052,0.429997 1.587837,0.6875 2.5,0.6875 2.427342,0 4.449648,-1.726999 4.875,-4.03125 0.03081,2.67e-4 0.06288,0 0.09375,0 3.61332,0 6.775076,-1.840497 8.65625,-4.625 1.267507,1.300013 3.04092,2.09375 5,2.09375 3.537199,0 6.48067,-2.61909 6.9375,-6.03125 0.445895,0.107074 0.896261,0.1875 1.375,0.1875 3.276077,0 5.9375,-2.661423 5.9375,-5.9375 0,-3.276078 -2.661423,-5.9375 -5.9375,-5.9375 -0.342457,0 -0.674393,0.03796 -1,0.09375 -0.492431,-0.490253 -1.134477,-0.78125 -1.84375,-0.78125 -0.733433,0 -1.408081,0.323352 -1.90625,0.843749 -0.775474,-3.13238 -3.596536,-5.468749 -6.96875,-5.468749 -0.733847,0 -1.426854,0.13939 -2.09375,0.34375 -0.265578,-1.1435217 -1.275672,-2 -2.5,-2 z"
         style="opacity:0.3;color:#000000;fill:url(#linearGradient3820-0);fill-opacity:1;fill-rule:nonzero;stroke:none;stroke-width:1.5;marker:none;visibility:visible;display:inline;overflow:visible;enable-background:accumulate"
         inkscape:connector-curvature="0" />
      <path
         id="path3724"
         d="m 64.09375,50.5 c -1.259041,0 -2.333991,0.691838 -2.90625,1.71875 -1.918165,0.132781 -3.611474,1.024875 -4.78125,2.40625 -0.534049,-0.720013 -1.378441,-1.1875 -2.34375,-1.1875 -1.618767,0 -2.9375,1.318733 -2.9375,2.9375 0,0.44432 0.104317,0.841411 0.28125,1.21875 -1.588512,0.357053 -2.78125,1.741185 -2.78125,3.4375 0,1.965646 1.565604,3.5625 3.53125,3.5625 1.544436,0 2.851236,-0.999951 3.34375,-2.375 C 56.642138,64.459968 58.968316,66 61.65625,66 c 1.095219,0 2.142387,-0.26513 3.0625,-0.71875 0.57196,0.527231 1.34828,0.84375 2.1875,0.84375 1.656898,0 2.984839,-1.263576 3.15625,-2.875 0.30913,0.04735 0.615128,0.09375 0.9375,0.09375 1.51713,0 2.92135,-0.565241 4,-1.46875 0.71605,0.81008 1.77131,1.3125 2.9375,1.3125 2.15836,0 3.90625,-1.747894 3.90625,-3.90625 0,-2.158355 -1.74789,-3.90625 -3.90625,-3.90625 -0.31601,0 -0.64322,0.0542 -0.9375,0.125 -0.71569,-2.639999 -3.1335,-4.59375 -6,-4.59375 -1.500732,0 -2.863872,0.551463 -3.9375,1.4375 C 66.510377,51.252266 65.400545,50.5 64.09375,50.5 z"
         style="opacity:0.3;color:#000000;fill:url(#linearGradient3860-8);fill-opacity:1;fill-rule:nonzero;stroke:none;stroke-width:1.5;marker:none;visibility:visible;display:inline;overflow:visible;enable-background:accumulate"
         inkscape:connector-curvature="0" />
      <path
         id="path3739"
         d="m 17.5,47.3125 c -0.950448,0 -1.828481,0.305591 -2.53125,0.8125 -0.580044,-0.08942 -1.176174,-0.15625 -1.78125,-0.15625 -2.643739,0 -5.050411,0.91554 -7,2.40625 C 5.962304,50.33941 5.735827,50.3125 5.5,50.3125 c -2.312525,0 -4.1875,1.771853 -4.1875,3.96875 0,0.823837 0.267268,1.583883 0.71875,2.21875 -0.267997,0.977691 -0.40625,1.999741 -0.40625,3.0625 0,1.073475 0.133008,2.107256 0.40625,3.09375 C 1.411327,62.37723 0.723921,62.21875 0,62.21875 c -2.736488,0 -4.9375,2.201013 -4.9375,4.9375 0,2.736488 2.201012,4.96875 4.9375,4.96875 0.36612,0 0.719001,-0.04965 1.0625,-0.125 -6.43e-4,0.04129 0,0.08355 0,0.125 0,4.316713 3.495787,7.8125 7.8125,7.8125 2.785961,0 5.209665,-1.462067 6.59375,-3.65625 2.041092,1.840971 4.753634,2.96875 7.71875,2.96875 4.014997,0 7.532983,-2.07204 9.59375,-5.1875 1.294164,0.971148 2.882433,1.5625 4.625,1.5625 2.724975,0 5.119177,-1.435314 6.5,-3.5625 0.693167,0.556164 1.542148,0.90625 2.5,0.90625 1.309291,0 2.478909,-0.629504 3.21875,-1.59375 0.322673,0.203233 0.71549,0.34375 1.125,0.34375 1.156262,0 2.09375,-0.937488 2.09375,-2.09375 0,-1.156262 -0.937488,-2.09375 -2.09375,-2.09375 -0.180666,0 -0.364014,0.01947 -0.53125,0.0625 C 49.711419,66.137709 48.398958,65.067364 46.8125,64.90625 46.72627,63.558185 45.619837,62.5 44.25,62.5 c -0.381196,0 -0.736814,0.07047 -1.0625,0.21875 -1.418341,-1.583489 -3.488111,-2.59375 -5.78125,-2.59375 -1.024452,0 -1.979942,0.201263 -2.875,0.5625 -0.224258,-2.373424 -2.22414,-4.25 -4.65625,-4.25 -0.280177,0 -0.545883,0.04651 -0.8125,0.09375 0.03207,-0.217664 0.0625,-0.429674 0.0625,-0.65625 0,-2.505235 -2.057265,-4.53125 -4.5625,-4.53125 -0.939463,0 -1.807279,0.260895 -2.53125,0.75 -0.124657,-0.147579 -0.243234,-0.296374 -0.375,-0.4375 0.01212,-0.123274 0.03125,-0.248717 0.03125,-0.375 0,-2.196897 -1.874975,-3.96875 -4.1875,-3.96875 z"
         style="opacity:0.5;color:#000000;fill:url(#linearGradient3844-1);fill-opacity:1;fill-rule:nonzero;stroke:none;stroke-width:1.5;marker:none;visibility:visible;display:inline;overflow:visible;enable-background:accumulate"
         inkscape:connector-curvature="0" />
      <path
         id="path3772"
         d="m 34.089998,20.889421 c -1.795081,0 -3.287104,1.334802 -3.53125,3.0625 -0.990239,0.397809 -1.896222,0.908493 -2.71875,1.5625 -0.483162,-0.508483 -1.14945,-0.84375 -1.90625,-0.84375 -1.464599,0 -2.65625,1.191651 -2.65625,2.65625 0,0.01073 -1.27e-4,0.02055 0,0.03125 -1.035724,0.06809 -2.027117,0.266793 -2.96875,0.59375 -0.550272,-0.637053 -1.373386,-1.03125 -2.28125,-1.03125 -1.636798,0 -2.967312,1.308529 -3,2.9375 -0.04347,-0.0022 -0.08097,-0.03125 -0.125,-0.03125 -1.203669,0 -2.223302,0.869855 -2.46875,2 -2.45358,0.166046 -4.562623,1.519821 -5.78125,3.5 -0.4926,-0.208352 -1.025254,-0.3125 -1.59375,-0.3125 -2.273983,0 -4.125,1.851017 -4.125,4.125 0,2.273983 1.851017,4.09375 4.125,4.09375 0.534254,0 1.0316,-0.09607 1.5,-0.28125 1.286055,2.183281 3.657764,3.625 6.375,3.625 0.877767,0 1.718823,-0.156911 2.5,-0.4375 2.085815,2.410336 5.156042,3.9375 8.59375,3.9375 3.574214,0 6.758377,-1.640646 8.84375,-4.21875 1.215052,1.383268 2.982922,2.28125 4.96875,2.28125 1.544694,0 2.966644,-0.551752 4.09375,-1.4375 1.057518,0.549176 2.257304,0.875 3.53125,0.875 1.548945,0 2.981312,-0.460945 4.1875,-1.25 0.498048,0.257126 1.057109,0.40625 1.65625,0.40625 1.743324,0 3.212956,-1.235953 3.5625,-2.875 0.236113,1.540136 1.550076,2.71875 3.15625,2.71875 1.772936,0 3.21875,-1.414564 3.21875,-3.1875 0,-1.615065 -1.197351,-2.962289 -2.75,-3.1875 0.04583,-0.258658 0.09375,-0.540686 0.09375,-0.8125 0,-2.505235 -2.026015,-4.53125 -4.53125,-4.53125 -0.840074,0 -1.637791,0.258215 -2.3125,0.65625 -0.223974,-0.319863 -0.449804,-0.655928 -0.71875,-0.9375 0.105942,-0.250475 0.15625,-0.523434 0.15625,-0.8125 0,-1.156262 -0.937488,-2.09375 -2.09375,-2.09375 -0.09318,0 -0.191293,0.01945 -0.28125,0.03125 -0.01718,-1.796731 -1.480458,-3.25 -3.28125,-3.25 -0.477435,0 -0.934571,0.09784 -1.34375,0.28125 -1.425139,-2.522984 -3.827471,-4.414808 -6.6875,-5.1875 -0.401342,-1.525904 -1.754351,-2.65625 -3.40625,-2.65625 z"
         style="opacity:0.5;color:#000000;fill:url(#linearGradient3828-0);fill-opacity:1;fill-rule:nonzero;stroke:none;stroke-width:1.5;marker:none;visibility:visible;display:inline;overflow:visible;enable-background:accumulate"
         inkscape:connector-curvature="0" />
      <path
         id="path3671"
         d="m 83.629359,18.762622 c -3.026368,0.307343 -5.375,2.892545 -5.375,5.999999 0,0.502248 0.07128,0.971235 0.1875,1.4375 -1.355555,-0.829233 -2.950813,-1.3125 -4.65625,-1.3125 -0.697126,0 -1.380076,0.09893 -2.03125,0.25 -0.475056,-1.362518 -1.756773,-2.34375 -3.28125,-2.34375 -1.927104,0 -3.46875,1.572896 -3.46875,3.5 0,0.923053 0.352247,1.75095 0.9375,2.375 -0.196494,-0.02238 -0.391268,0 -0.59375,0 -2.890656,0 -5.25,2.328094 -5.25,5.21875 0,2.890656 2.359344,5.25 5.25,5.25 0.403981,0 0.778551,-0.06962 1.15625,-0.15625 1.011736,1.427012 2.435578,2.519337 4.09375,3.15625 -0.0042,0.11543 -0.03125,0.227305 -0.03125,0.34375 0,5.241723 4.258277,9.46875 9.5,9.46875 1.530417,0 2.969848,-0.356599 4.25,-1 2.624598,1.783448 5.806379,2.84375 9.21875,2.84375 6.838671,0 12.693371,-4.205133 15.156251,-10.15625 4.78516,-0.596606 8.5,-4.646976 8.5,-9.59375 0,-5.357349 -4.33015,-9.71875 -9.6875,-9.71875 -1.15953,0 -2.28176,0.220606 -3.3125,0.59375 -0.85422,-0.731187 -1.78936,-1.393203 -2.78125,-1.9375 0.0827,-0.233328 0.15625,-0.488331 0.15625,-0.75 0,-1.233347 -1.01665,-2.21875 -2.25,-2.21875 -0.94828,0 -1.76987,0.572443 -2.09375,1.40625 -1.05684,-0.242785 -2.15727,-0.406213 -3.281251,-0.4375 -0.31043,-1.285581 -1.462817,-2.21875 -2.84375,-2.21875 -1.174447,0 -2.188572,0.690101 -2.65625,1.6875 -1.078785,-1.054211 -2.554466,-1.6875 -4.1875,-1.6875 -0.207164,0 -0.423242,-0.02049 -0.625,0 z"
         style="opacity:0.5;color:#000000;fill:url(#linearGradient3836-6);fill-opacity:1;fill-rule:nonzero;stroke:none;stroke-width:1.5;marker:none;visibility:visible;display:inline;overflow:visible;enable-background:accumulate"
         inkscape:connector-curvature="0" />
      <path
         style="opacity:0.2;color:#000000;fill:url(#linearGradient3872-4);fill-opacity:1;fill-rule:nonzero;stroke:none;stroke-width:1.5;marker:none;visibility:visible;display:inline;overflow:visible;enable-background:accumulate"
         d="m 53.175794,66.576905 c 1.369476,-0.397707 2.807779,0.367992 3.205487,1.737469 0.262772,0.904832 0.01648,1.836087 -0.581625,2.479326 0.586553,0.478664 1.089738,1.056139 1.505518,1.710498 0.675277,-0.471862 1.39641,-0.882052 2.192631,-1.189959 -0.06956,-0.139988 -0.145615,-0.277311 -0.190748,-0.432721 -0.408457,-1.406491 0.403578,-2.883197 1.810068,-3.291654 1.030523,-0.299273 2.089976,0.06539 2.74654,0.829435 0.716458,-1.339395 1.929589,-2.411629 3.485864,-2.899711 -0.365462,-1.258437 0.359975,-2.577663 1.618413,-2.943125 1.184938,-0.344117 2.406347,0.292537 2.852109,1.417058 0.324269,-0.235887 0.702109,-0.431687 1.109389,-0.549965 1.887657,-0.548192 3.866495,0.539963 4.414688,2.42762 0.01796,0.06184 0.0078,0.126802 0.02228,0.188776 0.561904,-0.244831 1.133537,-0.459353 1.735737,-0.634238 1.602472,-0.465372 3.19829,-0.632208 4.779419,-0.574459 0.792077,-1.35483 2.087284,-2.428468 3.713366,-2.900697 3.368172,-0.978147 6.883095,0.954696 7.86124,4.322868 0.14672,0.505224 0.22646,1.01969 0.24699,1.522786 2.14913,-0.330399 4.24991,0.963796 4.87265,3.108152 0.12227,0.421021 0.17183,0.835673 0.16855,1.252696 0.2622,0.121854 0.51679,0.249167 0.76579,0.395888 0.63234,-0.964536 1.59387,-1.731977 2.81117,-2.085493 2.62791,-0.76317 5.33539,0.66766 6.06631,3.184536 0.73092,2.516876 -0.78897,5.175372 -3.41689,5.938542 -0.39479,0.114651 -0.79196,0.161401 -1.18396,0.181128 0.12908,3.889379 -2.36252,7.519728 -6.27254,8.655233 -1.22894,0.356896 -2.47953,0.422032 -3.66904,0.251997 -1.919999,2.790095 -4.748227,4.958448 -8.254439,5.976689 -4.737436,1.37579 -9.602787,0.33061 -13.287238,-2.389162 -0.585007,0.617655 -1.333104,1.103049 -2.209076,1.35744 -2.331035,0.676952 -4.754739,-0.41753 -5.805842,-2.511733 -0.02951,0.0088 -0.06039,0.01754 -0.09003,0.02614 -3.469958,1.007707 -7.019558,0.122007 -9.602656,-2.027384 -0.854661,1.601925 -2.336349,2.85875 -4.217701,3.405112 -3.396856,0.986478 -6.953971,-0.707802 -8.344283,-3.857177 -0.398342,0.22718 -0.808409,0.430016 -1.268154,0.56353 -3.146095,0.913654 -6.444159,-0.899938 -7.357814,-4.046033 -0.913654,-3.146096 0.899938,-6.44416 4.046034,-7.357814 0.328869,-0.09551 0.658222,-0.151626 0.986469,-0.188857 0.336169,-0.608133 0.871585,-1.066644 1.552717,-1.26445 0.704334,-0.204545 1.442393,-0.08217 2.065929,0.278645 -0.128873,-3.224369 1.928678,-6.254798 5.167095,-7.195264 0.70473,-0.20466 1.409116,-0.264071 2.106545,-0.253808 -0.06387,-1.172217 0.667285,-2.276416 1.843037,-2.617865 z"
         id="path3870"
         inkscape:connector-curvature="0" />
      <path
         id="path3713"
         d="m 22.9375,39.65625 c -3.500466,0 -6.464046,2.18625 -7.625,5.28125 -2.922683,0.05208 -5.28125,2.439881 -5.28125,5.375 0,2.96774 2.40726,5.375 5.375,5.375 1.175339,0 2.240467,-0.391098 3.125,-1.03125 1.273613,0.821117 2.778216,1.3125 4.40625,1.3125 0.412169,0 0.822986,-0.03481 1.21875,-0.09375 0.460796,0.558357 1.157023,0.9375 1.9375,0.9375 1.110012,0 2.04265,-0.720393 2.375,-1.71875 0.573002,0.172103 1.183445,0.28125 1.8125,0.28125 3.468787,0 6.28125,-2.812463 6.28125,-6.28125 0,-2.905109 -1.977571,-5.344769 -4.65625,-6.0625 0.02473,-0.153233 0.0625,-0.308535 0.0625,-0.46875 0,-1.618767 -1.318733,-2.90625 -2.9375,-2.90625 -0.866194,0 -1.650919,0.371372 -2.1875,0.96875 -1.15693,-0.628482 -2.497055,-0.96875 -3.90625,-0.96875 z"
         style="opacity:0.5;color:#000000;fill:url(#linearGradient3868-5);fill-opacity:1;fill-rule:nonzero;stroke:none;stroke-width:1.5;marker:none;visibility:visible;display:inline;overflow:visible;enable-background:accumulate"
         inkscape:connector-curvature="0" />
      <path
         style="opacity:0.2;color:#000000;fill:url(#linearGradient4201);fill-opacity:1;fill-rule:nonzero;stroke:none;stroke-width:1.5;marker:none;visibility:visible;display:inline;overflow:visible;enable-background:accumulate"
         d="m 42.33052,39.762622 c -2.987934,0.307343 -5.306739,2.892545 -5.306739,5.999999 0,0.502248 0.07037,0.971235 0.185118,1.4375 -1.338339,-0.829233 -2.913338,-1.3125 -4.597117,-1.3125 -0.688272,0 -1.362549,0.09893 -2.005453,0.25 -0.469023,-1.362518 -1.734463,-2.34375 -3.23958,-2.34375 -1.90263,0 -3.424698,1.572896 -3.424698,3.5 0,0.923053 0.347774,1.75095 0.925594,2.375 -0.193998,-0.02238 -0.386299,0 -0.586209,0 -2.853946,0 -5.183327,2.328094 -5.183327,5.21875 0,2.890656 2.329381,5.25 5.183327,5.25 0.39885,0 0.768663,-0.06962 1.141566,-0.15625 0.998887,1.427012 2.404647,2.519337 4.04176,3.15625 -0.0041,0.11543 -0.03085,0.227305 -0.03085,0.34375 0,5.241723 4.204199,9.46875 9.379354,9.46875 1.510981,0 2.932131,-0.356599 4.196026,-1 2.591266,1.783448 5.73264,2.84375 9.101675,2.84375 6.751822,0 12.532169,-4.205133 14.963772,-10.15625 4.72439,-0.596606 8.392052,-4.646976 8.392052,-9.59375 0,-5.357349 -4.275158,-9.71875 -9.564472,-9.71875 -1.144804,0 -2.252782,0.220606 -3.270432,0.59375 -0.843372,-0.731187 -1.766636,-1.393203 -2.745929,-1.9375 0.08165,-0.233328 0.154266,-0.488331 0.154266,-0.75 0,-1.233347 -1.003739,-2.21875 -2.221426,-2.21875 -0.936237,0 -1.747393,0.572443 -2.06716,1.40625 -1.043419,-0.242785 -2.129874,-0.406213 -3.23958,-0.4375 -0.306488,-1.285581 -1.44424,-2.21875 -2.807636,-2.21875 -1.159532,0 -2.160778,0.690101 -2.622516,1.6875 -1.065085,-1.054211 -2.522025,-1.6875 -4.13432,-1.6875 -0.204533,0 -0.417867,-0.02049 -0.617063,0 z"
         id="path4199"
         inkscape:connector-curvature="0" />
      <path
         style="opacity:0.3;color:#000000;fill:url(#linearGradient4205);fill-opacity:1;fill-rule:nonzero;stroke:none;stroke-width:1.5;marker:none;visibility:visible;display:inline;overflow:visible;enable-background:accumulate"
         d="m 18.66061,9.762622 c 3.026368,0.307343 5.375,2.892545 5.375,5.999999 0,0.502248 -0.07128,0.971235 -0.1875,1.4375 1.355555,-0.829233 2.950813,-1.3125 4.65625,-1.3125 0.697126,0 1.380076,0.09893 2.03125,0.25 0.475056,-1.362518 1.756773,-2.34375 3.28125,-2.34375 1.927104,0 3.46875,1.572896 3.46875,3.5 0,0.923053 -0.352247,1.75095 -0.9375,2.375 0.196494,-0.02238 0.391268,0 0.59375,0 2.890656,0 5.25,2.328094 5.25,5.21875 0,2.890656 -2.359344,5.25 -5.25,5.25 -0.403981,0 -0.778551,-0.06962 -1.15625,-0.15625 -1.011736,1.427012 -2.435578,2.519337 -4.09375,3.15625 0.0042,0.11543 0.03125,0.227305 0.03125,0.34375 0,5.241723 -4.258277,9.46875 -9.5,9.46875 -1.530417,0 -2.969848,-0.356599 -4.25,-1 -2.624598,1.783448 -5.806379,2.84375 -9.21875,2.84375 -6.838671,0 -12.693371,-4.205133 -15.156251,-10.15625 -4.78516,-0.596606 -8.5,-4.646976 -8.5,-9.59375 0,-5.357349 4.33015,-9.71875 9.6875,-9.71875 1.15953,0 2.28176,0.220606 3.3125,0.59375 0.85422,-0.731187 1.78936,-1.393203 2.78125,-1.9375 -0.0827,-0.233328 -0.15625,-0.488331 -0.15625,-0.75 0,-1.233347 1.01665,-2.21875 2.25,-2.21875 0.94828,0 1.76987,0.572443 2.09375,1.40625 1.05684,-0.242785 2.15727,-0.406213 3.281251,-0.4375 0.31043,-1.285581 1.462817,-2.21875 2.84375,-2.21875 1.174447,0 2.188572,0.690101 2.65625,1.6875 1.078785,-1.054211 2.554466,-1.6875 4.1875,-1.6875 0.207164,0 0.423242,-0.02049 0.625,0 z"
         id="path4203"
         inkscape:connector-curvature="0" />
      <path
         style="opacity:0.3;color:#000000;fill:url(#linearGradient4209);fill-opacity:1;fill-rule:nonzero;stroke:none;stroke-width:1.5;marker:none;visibility:visible;display:inline;overflow:visible;enable-background:accumulate"
         d="m 90.09375,10.5 c -1.259041,0 -2.333991,0.691838 -2.90625,1.71875 -1.918165,0.132781 -3.611474,1.024875 -4.78125,2.40625 -0.534049,-0.720013 -1.378441,-1.1875 -2.34375,-1.1875 -1.618767,0 -2.9375,1.318733 -2.9375,2.9375 0,0.44432 0.104317,0.841411 0.28125,1.21875 -1.588512,0.357053 -2.78125,1.741185 -2.78125,3.4375 0,1.965646 1.565604,3.5625 3.53125,3.5625 1.544436,0 2.851236,-0.999951 3.34375,-2.375 C 82.642138,24.459968 84.968316,26 87.65625,26 c 1.095219,0 2.142387,-0.26513 3.0625,-0.71875 0.57196,0.527231 1.34828,0.84375 2.1875,0.84375 1.656898,0 2.984839,-1.263576 3.15625,-2.875 0.30913,0.04735 0.615128,0.09375 0.9375,0.09375 1.51713,0 2.92135,-0.565241 4,-1.46875 0.71605,0.81008 1.77131,1.3125 2.9375,1.3125 2.15836,0 3.90625,-1.747894 3.90625,-3.90625 0,-2.158355 -1.74789,-3.90625 -3.90625,-3.90625 -0.31601,0 -0.64322,0.0542 -0.9375,0.125 -0.71569,-2.639999 -3.1335,-4.59375 -6,-4.59375 -1.500732,0 -2.863872,0.551463 -3.9375,1.4375 C 92.510377,11.252266 91.400545,10.5 90.09375,10.5 z"
         id="path4207"
         inkscape:connector-curvature="0" />
      <path
         id="path3705"
         d="m 82.629359,69.762622 c -3.026368,0.307343 -5.375,2.892545 -5.375,5.999999 0,0.502248 0.07128,0.971235 0.1875,1.4375 -1.355555,-0.829233 -2.950813,-1.3125 -4.65625,-1.3125 -0.697126,0 -1.380076,0.09893 -2.03125,0.25 -0.475056,-1.362518 -1.756773,-2.34375 -3.28125,-2.34375 -1.927104,0 -3.46875,1.572896 -3.46875,3.5 0,0.923053 0.352247,1.75095 0.9375,2.375 -0.196494,-0.02238 -0.391268,0 -0.59375,0 -2.890656,0 -5.25,2.328094 -5.25,5.21875 0,2.890656 2.359344,5.249999 5.25,5.249999 0.403981,0 0.778551,-0.0696 1.15625,-0.156249 1.011736,1.427009 2.435578,2.519339 4.09375,3.156249 -0.0042,0.11543 -0.03125,0.22731 -0.03125,0.34375 0,5.24172 4.258277,9.46875 9.5,9.46875 1.530417,0 2.969848,-0.3566 4.25,-1 2.624598,1.78345 5.806379,2.84375 9.21875,2.84375 6.838671,0 12.693371,-4.20513 15.156251,-10.15625 4.78516,-0.5966 8.5,-4.646975 8.5,-9.593749 0,-5.357349 -4.33015,-9.71875 -9.6875,-9.71875 -1.15953,0 -2.28176,0.220606 -3.3125,0.59375 -0.85422,-0.731187 -1.78936,-1.393203 -2.78125,-1.9375 0.0827,-0.233328 0.15625,-0.488331 0.15625,-0.75 0,-1.233347 -1.01665,-2.21875 -2.25,-2.21875 -0.94828,0 -1.76987,0.572443 -2.09375,1.40625 -1.05684,-0.242785 -2.15727,-0.406213 -3.281251,-0.4375 -0.31043,-1.285581 -1.462817,-2.21875 -2.84375,-2.21875 -1.174447,0 -2.188572,0.690101 -2.65625,1.6875 -1.078785,-1.054211 -2.554466,-1.6875 -4.1875,-1.6875 -0.207164,0 -0.423242,-0.02049 -0.625,0 z"
         style="opacity:0.2;color:#000000;fill:url(#linearGradient3707);fill-opacity:1;fill-rule:nonzero;stroke:none;stroke-width:1.5;marker:none;visibility:visible;display:inline;overflow:visible;enable-background:accumulate"
         inkscape:connector-curvature="0" />
      <path
         style="opacity:0.2;color:#000000;fill:url(#linearGradient3716);fill-opacity:1;fill-rule:nonzero;stroke:none;stroke-width:1.5;marker:none;visibility:visible;display:inline;overflow:visible;enable-background:accumulate"
         d="m 18.154695,56.845004 c -1.486119,0 -2.705849,1.198591 -2.705849,2.684709 0,0.505851 0.158899,0.969829 0.40165,1.374063 -0.268198,0.312844 -0.535063,0.626069 -0.76102,0.972414 -0.46103,-0.09187 -0.948052,-0.126836 -1.437482,-0.126836 -1.584476,0 -3.034645,0.500081 -4.206748,1.352924 -0.794598,-1.648449 -2.38706,-2.769267 -4.227888,-2.769267 -2.633298,0 -4.7775133,2.295009 -4.7775133,5.136884 0,1.29319 0.4539128,2.478337 1.1838083,3.38231 -0.9665558,1.116386 -1.5643182,2.570424 -1.5643182,4.14333 0,3.545828 2.9665292,6.40525 6.6166442,6.40525 1.271372,0 2.459022,-0.346912 3.466868,-0.951274 0.784063,0.889369 1.805924,1.590542 2.959522,1.965968 1.744556,1.822459 4.211666,2.959521 6.933736,2.959521 2.906533,0 5.514484,-1.296766 7.271967,-3.340031 1.288663,-0.247665 2.453981,-0.860125 3.403449,-1.691155 0.105234,0.0076 0.209913,0.02114 0.317092,0.02114 1.427244,0 2.696315,-0.691647 3.488007,-1.754573 0.23447,0.02954 0.475648,0.06342 0.718741,0.06342 2.946165,0 5.327139,-2.246389 5.327139,-5.010047 0,-2.763658 -2.380974,-5.010047 -5.327139,-5.010047 -0.05686,0 -0.112679,0.01948 -0.169115,0.02114 -0.0935,-1.53628 -1.410022,-2.748127 -3.044079,-2.748127 -0.03689,0 -0.06913,0.01991 -0.105698,0.02114 -1.279452,-3.69765 -4.766923,-6.341832 -8.899703,-6.341832 -0.924275,0 -1.819377,0.132932 -2.66357,0.38051 -0.486659,-0.694044 -1.286478,-1.14153 -2.198501,-1.14153 z"
         id="path3714"
         inkscape:connector-curvature="0" />
      <path
         style="opacity:0.3;color:#000000;fill:url(#linearGradient3532);fill-opacity:1;fill-rule:nonzero;stroke:none;stroke-width:1.5;marker:none;visibility:visible;display:inline;overflow:visible;enable-background:accumulate"
         d="m 56.09375,14.5 c -1.259041,0 -2.333991,0.691838 -2.90625,1.71875 -1.918165,0.132781 -3.611474,1.024875 -4.78125,2.40625 -0.534049,-0.720013 -1.378441,-1.1875 -2.34375,-1.1875 -1.618767,0 -2.9375,1.318733 -2.9375,2.9375 0,0.44432 0.104317,0.841411 0.28125,1.21875 -1.588512,0.357053 -2.78125,1.741185 -2.78125,3.4375 0,1.965646 1.565604,3.5625 3.53125,3.5625 1.544436,0 2.851236,-0.999951 3.34375,-2.375 C 48.642138,28.459968 50.968316,30 53.65625,30 c 1.095219,0 2.142387,-0.26513 3.0625,-0.71875 0.57196,0.527231 1.34828,0.84375 2.1875,0.84375 1.656898,0 2.984839,-1.263576 3.15625,-2.875 0.30913,0.04735 0.615128,0.09375 0.9375,0.09375 1.51713,0 2.92135,-0.565241 4,-1.46875 0.71605,0.81008 1.77131,1.3125 2.9375,1.3125 2.15836,0 3.90625,-1.747894 3.90625,-3.90625 0,-2.158355 -1.74789,-3.90625 -3.90625,-3.90625 -0.31601,0 -0.64322,0.0542 -0.9375,0.125 -0.71569,-2.639999 -3.1335,-4.59375 -6,-4.59375 -1.500732,0 -2.863872,0.551463 -3.9375,1.4375 C 58.510377,15.252266 57.400545,14.5 56.09375,14.5 z"
         id="path3718"
         inkscape:connector-curvature="0" />
    </g>
  </g>
  <g
     inkscape:groupmode="layer"
     id="layer5"
     inkscape:label="Button Highlights"
     sodipodi:insensitive="true">
    <path
       style="opacity:0.35;fill:url(#linearGradient4763);fill-opacity:1;fill-rule:evenodd;stroke:none;display:inline"
       d="M 4,2 C 2.892,2 2,2.892 2,4 l 0,16 c 0,1.108 0.892,2 2,2 l 16,0 c 1.108,0 2,-0.892 2,-2 L 22,4 C 22,2.892 21.108,2 20,2 L 4,2 z m 0,1.03125 16,0 c 0.5497,0 0.96875,0.4190495 0.96875,0.96875 l 0,16 c 0,0.5497 -0.41905,0.96875 -0.96875,0.96875 l -16,0 C 3.4502995,20.96875 3.03125,20.5497 3.03125,20 l 0,-16 C 3.03125,3.4502995 3.4502995,3.03125 4,3.03125 z"
       id="rect3050"
       inkscape:connector-curvature="0" />
    <path
       id="path3235"
       d="M 4,22 C 2.892,22 2,21.108 2,20 l 0,-1 c 0,1.108 0.892,2 2,2 l 16,0 c 1.108,0 2,-0.892 2,-2 l 0,1 c 0,1.108 -0.892,2 -2,2 L 4,22 z"
       style="opacity:0.2;fill:url(#linearGradient3845-6);fill-opacity:1;fill-rule:evenodd;stroke:none;display:inline"
       inkscape:connector-curvature="0" />
  </g>
  <g
     inkscape:groupmode="layer"
     id="layer3"
     inkscape:label="Symbol"
     sodipodi:insensitive="true">
    <path
       sodipodi:type="inkscape:offset"
       inkscape:radius="1.7295566"
       inkscape:original="M 55.09375 22.09375 C 55.061847 22.097468 54.84411 22.150555 54.8125 22.15625 C 54.78089 22.161945 54.562445 22.2111 54.53125 22.21875 C 54.500055 22.2264 54.311909 22.271675 54.28125 22.28125 C 54.250591 22.290825 54.030004 22.363537 54 22.375 C 53.969996 22.386463 53.779233 22.455443 53.75 22.46875 C 53.720767 22.482057 53.528349 22.57865 53.5 22.59375 C 53.471651 22.60885 53.308605 22.733166 53.28125 22.75 C 53.253895 22.766834 53.057505 22.856498 53.03125 22.875 C 53.004995 22.893502 52.837553 23.042401 52.8125 23.0625 C 52.787447 23.082599 52.617504 23.228381 52.59375 23.25 C 52.569996 23.271619 52.428614 23.414446 52.40625 23.4375 C 52.383886 23.460554 52.239637 23.6006 52.21875 23.625 C 52.197863 23.6494 52.081829 23.818098 52.0625 23.84375 C 52.043171 23.869402 51.892696 24.035695 51.875 24.0625 C 51.857304 24.089305 51.765994 24.284647 51.75 24.3125 L 39.21875 46 C 39.201781 46.029255 39.108767 46.219697 39.09375 46.25 C 39.078733 46.280303 38.98175 46.468778 38.96875 46.5 C 38.95575 46.531222 38.854678 46.749244 38.84375 46.78125 C 38.832822 46.813256 38.790058 47.029847 38.78125 47.0625 C 38.772442 47.095153 38.694151 47.310591 38.6875 47.34375 C 38.680849 47.376909 38.660716 47.591476 38.65625 47.625 C 38.651784 47.658524 38.627261 47.903756 38.625 47.9375 C 38.622739 47.971244 38.625046 48.18493 38.625 48.21875 C 38.624954 48.25257 38.622831 48.46625 38.625 48.5 C 38.627169 48.53375 38.651876 48.778964 38.65625 48.8125 C 38.660624 48.846036 38.680939 49.060573 38.6875 49.09375 C 38.694061 49.126927 38.772531 49.342323 38.78125 49.375 C 38.789969 49.407677 38.83291 49.624214 38.84375 49.65625 C 38.85459 49.688286 38.924585 49.874993 38.9375 49.90625 C 38.950415 49.937507 39.047566 50.157156 39.0625 50.1875 C 39.077434 50.217844 39.201861 50.408199 39.21875 50.4375 C 39.235639 50.466801 39.356229 50.659368 39.375 50.6875 C 39.393771 50.715632 39.510677 50.910657 39.53125 50.9375 C 39.551823 50.964343 39.696463 51.130812 39.71875 51.15625 C 39.741037 51.181688 39.882345 51.351076 39.90625 51.375 C 39.930155 51.398924 40.09958 51.540193 40.125 51.5625 C 40.15042 51.584807 40.316924 51.729405 40.34375 51.75 C 40.370576 51.770595 40.565633 51.887456 40.59375 51.90625 C 40.621867 51.925044 40.814462 52.045588 40.84375 52.0625 C 40.873038 52.079412 41.063418 52.203792 41.09375 52.21875 C 41.124082 52.233708 41.343753 52.33081 41.375 52.34375 C 41.406247 52.35669 41.592973 52.426634 41.625 52.4375 C 41.657027 52.448366 41.87358 52.522505 41.90625 52.53125 C 41.93892 52.539995 42.154328 52.587163 42.1875 52.59375 C 42.220672 52.600337 42.435218 52.620599 42.46875 52.625 C 42.502282 52.629401 42.747501 52.654055 42.78125 52.65625 C 42.814999 52.658445 43.02868 52.656269 43.0625 52.65625 L 68.15625 52.59375 C 68.19007 52.593769 68.403751 52.595945 68.4375 52.59375 C 68.471249 52.591555 68.716468 52.566901 68.75 52.5625 C 68.783532 52.558099 68.998078 52.537837 69.03125 52.53125 C 69.064422 52.524663 69.27983 52.477495 69.3125 52.46875 C 69.34517 52.460005 69.561723 52.385866 69.59375 52.375 C 69.625777 52.364134 69.812503 52.29419 69.84375 52.28125 C 69.874997 52.26831 70.094668 52.171208 70.125 52.15625 C 70.155332 52.141292 70.345712 52.016912 70.375 52 C 70.404288 51.983088 70.596883 51.862544 70.625 51.84375 C 70.653117 51.824956 70.848174 51.708095 70.875 51.6875 C 70.901826 51.666905 71.06833 51.522307 71.09375 51.5 C 71.11917 51.477693 71.288595 51.336424 71.3125 51.3125 C 71.336405 51.288576 71.477713 51.119188 71.5 51.09375 C 71.522287 51.068312 71.666927 50.901843 71.6875 50.875 C 71.708073 50.848157 71.824979 50.653132 71.84375 50.625 C 71.862521 50.596868 71.983111 50.404301 72 50.375 C 72.016889 50.345699 72.141316 50.155344 72.15625 50.125 C 72.171184 50.094656 72.268335 49.875007 72.28125 49.84375 C 72.294165 49.812493 72.36416 49.625786 72.375 49.59375 C 72.38584 49.561714 72.428781 49.345177 72.4375 49.3125 C 72.446219 49.279823 72.524689 49.064427 72.53125 49.03125 C 72.537811 48.998073 72.558126 48.783536 72.5625 48.75 C 72.566874 48.716464 72.591581 48.47125 72.59375 48.4375 C 72.595919 48.40375 72.593796 48.19007 72.59375 48.15625 C 72.593704 48.12243 72.596011 47.908744 72.59375 47.875 C 72.591489 47.841256 72.566966 47.596024 72.5625 47.5625 C 72.558034 47.528976 72.537901 47.314409 72.53125 47.28125 C 72.524599 47.248091 72.446308 47.032653 72.4375 47 C 72.428692 46.967347 72.385928 46.750756 72.375 46.71875 C 72.364072 46.686744 72.263 46.468722 72.25 46.4375 C 72.237 46.406278 72.140017 46.217803 72.125 46.1875 C 72.109983 46.157197 72.016969 45.966755 72 45.9375 L 59.4375 24.3125 C 59.419825 24.281734 59.300996 24.091979 59.28125 24.0625 C 59.261504 24.033021 59.115475 23.840553 59.09375 23.8125 C 59.072025 23.784447 58.929851 23.588994 58.90625 23.5625 C 58.882649 23.536006 58.712865 23.36856 58.6875 23.34375 C 58.662135 23.31894 58.495759 23.148009 58.46875 23.125 C 58.441741 23.101991 58.247276 22.9586 58.21875 22.9375 C 58.190224 22.9164 57.998658 22.80034 57.96875 22.78125 C 57.938842 22.76216 57.749899 22.64199 57.71875 22.625 C 57.687601 22.60801 57.469743 22.51481 57.4375 22.5 C 57.405257 22.48519 57.189434 22.387561 57.15625 22.375 C 57.123066 22.362439 56.908968 22.291501 56.875 22.28125 C 56.841032 22.270999 56.597092 22.195394 56.5625 22.1875 C 56.527908 22.179606 56.316303 22.130499 56.28125 22.125 C 56.246197 22.119501 56.004098 22.096828 55.96875 22.09375 C 55.933402 22.090672 55.691726 22.094392 55.65625 22.09375 C 55.620774 22.093108 55.410436 22.091953 55.375 22.09375 C 55.342927 22.095476 55.125653 22.090032 55.09375 22.09375 z "
       style="opacity:0.05;color:#000000;fill:#000000;fill-opacity:1;fill-rule:nonzero;stroke:none;stroke-width:1.5;marker:none;visibility:visible;display:inline;overflow:visible;enable-background:accumulate"
       id="path4189"
       d="m 54.90625,20.375 c -0.253349,0.02953 -0.212063,0.0229 -0.25,0.03125 -0.03794,0.0083 -0.06038,0.02352 -0.09375,0.03125 -0.06674,0.01546 -0.287628,0.07181 -0.0625,0.03125 -0.372324,0.06708 -0.194317,0.01819 -0.375,0.0625 -9.63e-4,2.36e-4 -0.06527,0.01656 -0.125,0.03125 -0.05973,0.01469 0.0171,-0.01116 -0.21875,0.0625 -0.155647,0.04861 -0.01402,-0.02485 -0.40625,0.125 0.0461,-0.01761 -0.03406,0.04046 -0.09375,0.0625 -0.05969,0.02204 0.03011,-0.03376 -0.25,0.09375 -0.296966,0.13518 -0.150473,0.0533 -0.34375,0.15625 -0.269044,0.143305 -0.184798,0.13205 -0.21875,0.15625 -0.01279,0.0062 -0.03252,0.01684 -0.0625,0.03125 -0.01079,0.0079 -0.02132,0.02396 -0.03125,0.03125 -0.02015,0.0098 -0.03804,0.01901 -0.0625,0.03125 -0.03975,0.01989 0.01755,-0.05431 -0.28125,0.15625 -0.191872,0.135213 -0.127435,0.100418 -0.15625,0.125 -0.02882,0.02458 -0.06792,0.04 -0.09375,0.0625 -0.05166,0.045 -0.209057,0.180077 -0.0625,0.0625 -0.231316,0.185576 -0.08301,0.06958 -0.28125,0.25 -0.301634,0.274523 -0.208117,0.17461 -0.28125,0.25 0.06412,-0.0661 -0.01752,0.04934 -0.0625,0.09375 -0.04498,0.04441 0.03901,-0.0771 -0.1875,0.1875 -0.262061,0.306137 -0.150672,0.197596 -0.1875,0.25 -0.03683,0.0524 -0.117183,0.176544 -0.03125,0.0625 0.20749,-0.275365 0.01395,-0.05149 -0.03125,0 -0.0226,0.02575 -0.03547,0.06214 -0.0625,0.09375 -0.02703,0.03161 0.01609,-0.0423 -0.15625,0.21875 -0.159783,0.242031 -0.106784,0.182446 -0.125,0.21875 -0.01822,0.0363 -0.04797,0.06383 -0.0625,0.09375 L 37.71875,45.125 c -0.137585,0.2372 -0.09544,0.159039 -0.125,0.21875 -0.02956,0.05971 -0.06423,0.128485 -0.0625,0.125 0.01678,-0.03387 -0.0012,0.06556 -0.03125,0.125 -0.0301,0.05944 -0.0065,-0.03448 -0.125,0.25 0.05577,-0.133932 -0.0011,0.0271 -0.03125,0.09375 -0.01509,0.03332 -0.04683,0.05822 -0.0625,0.09375 -0.01567,0.03553 0.0096,-0.02379 -0.0625,0.1875 -0.08402,0.246072 -0.05363,0.21049 -0.0625,0.25 -0.0089,0.03951 -0.02415,0.06019 -0.03125,0.09375 -0.01419,0.06712 -0.06272,0.295024 0,0.0625 0.08208,-0.304303 -0.0082,-0.06665 -0.03125,0 -0.01154,0.03333 -0.01786,0.08462 -0.03125,0.125 -0.01339,0.04038 -0.0032,-0.04572 -0.0625,0.25 -0.07861,0.391933 -0.05555,0.245436 -0.0625,0.3125 -0.007,0.06706 -0.01662,0.21854 0,0.09375 -0.04082,0.306415 -0.01059,0.09788 -0.03125,0.40625 -0.02004,0.299008 -3.12e-4,0.214224 0,0.28125 3.12e-4,0.06703 -3.7e-5,0.152371 0,0.125 1.9e-5,-0.01433 2.88e-4,0.05797 0,0.125 -2.88e-4,0.06703 -0.01838,-0.0048 0,0.28125 0.02169,0.337563 -0.0049,0.128816 0.03125,0.40625 -0.01457,-0.111733 -0.007,0.02669 0,0.09375 0.007,0.06706 -0.01252,-0.06683 0.0625,0.3125 0.05983,0.302556 0.049,0.209297 0.0625,0.25 0.0135,0.0407 0.01969,0.09168 0.03125,0.125 0.02311,0.06665 0.116047,0.317803 0.03125,0 -0.05864,-0.219759 -0.01422,-0.0046 0,0.0625 0.0071,0.03356 0.02245,0.05459 0.03125,0.09375 0.0088,0.03916 -0.01869,0.01005 0.0625,0.25 0.08142,0.240636 0.02605,0.104274 0.125,0.34375 0.08986,0.217483 -0.0066,0.04411 0.15625,0.375 0.107548,0.218523 0.104078,0.18509 0.125,0.21875 0.02092,0.03366 0.04365,0.06417 0.0625,0.09375 0.03771,0.05916 0.131275,0.236034 0.03125,0.0625 0.158422,0.274849 0.07563,0.129255 0.21875,0.34375 -0.09469,-0.141915 -0.0054,0.0027 0.03125,0.0625 0.01835,0.02989 0.0418,0.06083 0.0625,0.09375 0.0207,0.03292 -0.01415,0.0059 0.125,0.1875 0.150655,0.19657 0.111453,0.135544 0.15625,0.1875 0.0448,0.05196 0.0724,0.06938 0.09375,0.09375 -0.04883,-0.05573 0.04941,0.0414 0.09375,0.09375 0.04434,0.05235 -0.06264,-0.03159 0.1875,0.21875 0.25289,0.253091 0.1664,0.143162 0.21875,0.1875 0.05235,0.04434 0.121131,0.145201 0.0625,0.09375 0.0273,0.02396 0.07304,0.04896 0.125,0.09375 0.05196,0.04479 -0.0058,0.0079 0.1875,0.15625 0.183079,0.140554 0.154494,0.104248 0.1875,0.125 0.03301,0.02075 0.06385,0.04415 0.09375,0.0625 0.05979,0.03669 0.207732,0.128326 0.0625,0.03125 0.221128,0.147807 0.07585,0.06406 0.34375,0.21875 -0.170051,-0.09819 0.0033,-0.0065 0.0625,0.03125 0.02958,0.01885 0.06018,0.04163 0.09375,0.0625 0.03357,0.02087 0.0021,0.01815 0.21875,0.125 0.338228,0.166795 0.165302,0.06941 0.375,0.15625 0.246106,0.101917 0.11017,0.04575 0.34375,0.125 0.0058,0.002 0.08942,0.03996 0.15625,0.0625 0.06683,0.02254 -0.02359,-0.01073 0.25,0.0625 0.366451,0.09809 0.197697,0.05854 0.375,0.09375 0.382976,0.07605 0.245437,0.05553 0.3125,0.0625 0.06706,0.007 0.209318,0.01517 0.09375,0 0.285926,0.03753 0.07696,0.0098 0.40625,0.03125 0.289719,0.01884 0.214227,2.95e-4 0.28125,0 0.06702,-2.95e-4 0.143137,-1e-5 0.125,0 l 25.09375,-0.0625 c -0.01814,-1e-5 0.05798,-2.95e-4 0.125,0 0.06702,2.95e-4 -0.0085,0.01884 0.28125,0 0.329286,-0.02142 0.120324,0.0063 0.40625,-0.03125 -0.115568,0.01517 0.02669,0.007 0.09375,0 0.06706,-0.007 -0.07048,0.01355 0.3125,-0.0625 0.177303,-0.03521 0.0085,0.0043 0.375,-0.09375 0.273593,-0.07323 0.183168,-0.03996 0.25,-0.0625 0.06683,-0.02254 0.150444,-0.06053 0.15625,-0.0625 0.23358,-0.07925 0.09764,-0.02308 0.34375,-0.125 0.209698,-0.08684 0.03677,0.01055 0.375,-0.15625 0.216663,-0.106846 0.185175,-0.104132 0.21875,-0.125 0.03357,-0.02087 0.06417,-0.04365 0.09375,-0.0625 0.05916,-0.0377 0.232551,-0.129444 0.0625,-0.03125 0.267897,-0.154694 0.122622,-0.07094 0.34375,-0.21875 -0.145232,0.09708 0.0027,0.0054 0.0625,-0.03125 0.0299,-0.01835 0.06074,-0.04175 0.09375,-0.0625 0.03301,-0.02075 0.0044,0.01555 0.1875,-0.125 0.193261,-0.148371 0.135541,-0.11146 0.1875,-0.15625 0.05196,-0.04479 0.0977,-0.06979 0.125,-0.09375 -0.05863,0.05145 0.01015,-0.04941 0.0625,-0.09375 0.05235,-0.04434 -0.03414,0.06559 0.21875,-0.1875 0.25014,-0.250339 0.143156,-0.166405 0.1875,-0.21875 0.04434,-0.05235 0.142579,-0.149483 0.09375,-0.09375 0.02135,-0.02437 0.04895,-0.04179 0.09375,-0.09375 0.0448,-0.05196 0.0056,0.0091 0.15625,-0.1875 0.139154,-0.181564 0.104302,-0.154583 0.125,-0.1875 0.0207,-0.03292 0.04415,-0.06386 0.0625,-0.09375 0.0367,-0.05979 0.125942,-0.204415 0.03125,-0.0625 0.143121,-0.214495 0.06033,-0.0689 0.21875,-0.34375 -0.100025,0.173534 -0.0065,-0.0033 0.03125,-0.0625 0.01885,-0.02958 0.04158,-0.06009 0.0625,-0.09375 0.02092,-0.03366 0.01745,-2.27e-4 0.125,-0.21875 0.162851,-0.330893 0.06639,-0.157517 0.15625,-0.375 0.09895,-0.239476 0.04358,-0.103114 0.125,-0.34375 0.08119,-0.239951 0.0537,-0.210839 0.0625,-0.25 0.0088,-0.03916 0.02414,-0.06019 0.03125,-0.09375 0.01422,-0.06712 0.05864,-0.282259 0,-0.0625 -0.0848,0.317803 0.0081,0.06665 0.03125,0 0.01156,-0.03332 0.01775,-0.0843 0.03125,-0.125 0.0135,-0.0407 0.0027,0.05256 0.0625,-0.25 0.07502,-0.379332 0.05553,-0.245436 0.0625,-0.3125 0.007,-0.06706 0.01457,-0.205483 0,-0.09375 0.03619,-0.277434 0.0096,-0.06869 0.03125,-0.40625 0.01838,-0.28605 2.88e-4,-0.214224 0,-0.28125 -2.88e-4,-0.06703 -1.9e-5,-0.139326 0,-0.125 3.7e-5,0.02737 -3.12e-4,-0.05797 0,-0.125 3.12e-4,-0.06703 0.02003,0.01776 0,-0.28125 -0.02066,-0.308375 0.0096,-0.09983 -0.03125,-0.40625 0.01662,0.12479 0.007,-0.02669 0,-0.09375 -0.007,-0.06706 0.01611,0.07943 -0.0625,-0.3125 -0.05931,-0.295718 -0.04911,-0.209618 -0.0625,-0.25 -0.01339,-0.04038 -0.01971,-0.09167 -0.03125,-0.125 -0.02309,-0.06665 -0.113334,-0.304303 -0.03125,0 0.06272,0.232524 0.01419,0.0046 0,-0.0625 -0.0071,-0.03356 -0.02238,-0.05424 -0.03125,-0.09375 -0.0089,-0.03951 0.02152,-0.0039 -0.0625,-0.25 -0.07214,-0.21129 -0.04683,-0.151968 -0.0625,-0.1875 -0.01567,-0.03553 -0.04741,-0.06043 -0.0625,-0.09375 -0.03018,-0.06665 -0.08702,-0.227682 -0.03125,-0.09375 -0.11845,-0.28448 -0.0949,-0.190555 -0.125,-0.25 -0.0301,-0.05944 -0.04803,-0.158872 -0.03125,-0.125 0.0017,0.0035 -0.03294,-0.06529 -0.0625,-0.125 -0.02956,-0.05971 0.01259,0.01845 -0.125,-0.21875 L 60.9375,23.4375 c -0.155446,-0.270577 -0.07466,-0.128641 -0.21875,-0.34375 -0.138402,-0.206621 -0.111504,-0.128139 -0.15625,-0.1875 -0.04475,-0.05936 -0.05911,-0.111515 -0.09375,-0.15625 0.06142,0.07932 -0.01828,-0.034 -0.0625,-0.09375 -0.04422,-0.05975 0.05078,0.05258 -0.21875,-0.25 -0.178226,-0.200073 -0.104044,-0.135608 -0.15625,-0.1875 -0.05221,-0.05189 -0.100883,-0.101411 -0.125,-0.125 0.05537,0.05416 -0.04201,-0.01015 -0.09375,-0.0625 -0.05174,-0.05235 0.06964,0.02693 -0.21875,-0.21875 C 59.370525,21.622334 59.434626,21.70064 59.375,21.65625 59.315374,21.61186 59.259536,21.569553 59.25,21.5625 58.966491,21.352795 59.059805,21.411881 59,21.375 c -0.0598,-0.03688 -0.150546,-0.09875 -0.09375,-0.0625 -0.01993,-0.01272 -0.06555,-0.02506 -0.125,-0.0625 -0.05945,-0.03744 0.01112,-0.03087 -0.21875,-0.15625 -0.336525,-0.183555 -0.214137,-0.09566 -0.28125,-0.125 -0.06711,-0.02934 -0.201024,-0.06617 -0.125,-0.03125 -0.0363,-0.01667 -0.08941,-0.06381 -0.15625,-0.09375 -0.06684,-0.02994 0.0243,-0.0017 -0.21875,-0.09375 -0.320369,-0.121268 -0.183845,-0.05788 -0.40625,-0.125 0.01262,0.0038 -0.08207,-0.0087 -0.15625,-0.03125 -0.07418,-0.02258 0.04396,-0.01954 -0.28125,-0.09375 -0.0047,-0.0011 -0.05797,-0.01607 -0.125,-0.03125 -0.06703,-0.01518 0.01985,-0.02017 -0.25,-0.0625 -0.260261,-0.04083 -0.206903,-0.02402 -0.28125,-0.03125 -0.07435,-0.0072 -0.112908,0.0038 -0.15625,0 -0.417026,-0.03631 -0.238162,-4.99e-4 -0.3125,0 -0.07434,4.99e-4 -0.238725,-0.0021 -0.125,0 -0.12161,-0.0022 0.01236,-0.02123 -0.40625,0 0.290663,-0.01564 0.03567,7.31e-4 -0.03125,0 -0.03346,-3.65e-4 -0.05355,-6.3e-5 -0.09375,0 -0.0402,6.3e-5 0.03039,-0.03268 -0.25,0 z"
       transform="matrix(0.36301624,0,0,0.36097177,-5.1871058,2.011477)" />
    <path
       sodipodi:type="inkscape:offset"
       inkscape:radius="1.4482406"
       inkscape:original="M 55.4375 23.53125 A 2.9965231 2.9965231 0 0 0 53 25.03125 L 40.46875 46.71875 A 2.9965231 2.9965231 0 0 0 43.0625 51.21875 L 68.15625 51.15625 A 2.9965231 2.9965231 0 0 0 70.75 46.65625 L 58.1875 25.03125 A 2.9965231 2.9965231 0 0 0 55.4375 23.53125 z "
       style="opacity:0.15;color:#000000;fill:#000000;fill-opacity:1;fill-rule:nonzero;stroke:none;stroke-width:1.5;marker:none;visibility:visible;display:inline;overflow:visible;enable-background:accumulate"
       id="path4185"
       d="m 55.09375,22.09375 c -0.0319,0.0037 -0.24964,0.05681 -0.28125,0.0625 -0.03161,0.0057 -0.250055,0.05485 -0.28125,0.0625 -0.03119,0.0077 -0.219341,0.05292 -0.25,0.0625 -0.03066,0.0096 -0.251246,0.08229 -0.28125,0.09375 -0.03,0.01146 -0.220767,0.08044 -0.25,0.09375 -0.02923,0.01331 -0.221651,0.1099 -0.25,0.125 -0.02835,0.0151 -0.191395,0.139416 -0.21875,0.15625 -0.02736,0.01683 -0.223745,0.106498 -0.25,0.125 -0.02625,0.0185 -0.193697,0.167401 -0.21875,0.1875 -0.02505,0.0201 -0.194996,0.165881 -0.21875,0.1875 -0.02375,0.02162 -0.165136,0.164446 -0.1875,0.1875 -0.02236,0.02305 -0.166613,0.1631 -0.1875,0.1875 -0.02089,0.0244 -0.136921,0.193098 -0.15625,0.21875 -0.01933,0.02565 -0.169804,0.191945 -0.1875,0.21875 -0.0177,0.0268 -0.109006,0.222147 -0.125,0.25 L 39.21875,46 c -0.01697,0.02925 -0.109983,0.219697 -0.125,0.25 -0.01502,0.0303 -0.112,0.218778 -0.125,0.25 -0.013,0.03122 -0.114072,0.249244 -0.125,0.28125 -0.01093,0.03201 -0.05369,0.248597 -0.0625,0.28125 -0.0088,0.03265 -0.0871,0.248091 -0.09375,0.28125 -0.0067,0.03316 -0.02678,0.247726 -0.03125,0.28125 -0.0045,0.03352 -0.02899,0.278756 -0.03125,0.3125 -0.0023,0.03374 4.6e-5,0.24743 0,0.28125 -4.6e-5,0.03382 -0.0022,0.2475 0,0.28125 0.0022,0.03375 0.02688,0.278964 0.03125,0.3125 0.0044,0.03354 0.02469,0.248073 0.03125,0.28125 0.0066,0.03318 0.08503,0.248573 0.09375,0.28125 0.0087,0.03268 0.05166,0.249214 0.0625,0.28125 0.01084,0.03204 0.08084,0.218743 0.09375,0.25 0.01291,0.03126 0.110066,0.250906 0.125,0.28125 0.01493,0.03034 0.139361,0.220699 0.15625,0.25 0.01689,0.0293 0.137479,0.221868 0.15625,0.25 0.01877,0.02813 0.135677,0.223157 0.15625,0.25 0.02057,0.02684 0.165213,0.193312 0.1875,0.21875 0.02229,0.02544 0.163595,0.194826 0.1875,0.21875 0.0239,0.02392 0.19333,0.165193 0.21875,0.1875 0.02542,0.02231 0.191924,0.166905 0.21875,0.1875 0.02683,0.0206 0.221883,0.137456 0.25,0.15625 0.02812,0.01879 0.220712,0.139338 0.25,0.15625 0.02929,0.01691 0.219668,0.141292 0.25,0.15625 0.03033,0.01496 0.250003,0.11206 0.28125,0.125 0.03125,0.01294 0.217973,0.08288 0.25,0.09375 0.03203,0.01087 0.24858,0.08501 0.28125,0.09375 0.03267,0.0087 0.248078,0.05591 0.28125,0.0625 0.03317,0.0066 0.247718,0.02685 0.28125,0.03125 0.03353,0.0044 0.278751,0.02905 0.3125,0.03125 0.03375,0.0022 0.24743,1.9e-5 0.28125,0 l 25.09375,-0.0625 c 0.03382,1.9e-5 0.247501,0.0022 0.28125,0 0.03375,-0.0022 0.278968,-0.02685 0.3125,-0.03125 0.03353,-0.0044 0.248078,-0.02466 0.28125,-0.03125 0.03317,-0.0066 0.24858,-0.05376 0.28125,-0.0625 0.03267,-0.0087 0.249223,-0.08288 0.28125,-0.09375 0.03203,-0.01087 0.218753,-0.08081 0.25,-0.09375 0.03125,-0.01294 0.250918,-0.110042 0.28125,-0.125 0.03033,-0.01496 0.220712,-0.139338 0.25,-0.15625 0.02929,-0.01691 0.221883,-0.137456 0.25,-0.15625 0.02812,-0.01879 0.223174,-0.135655 0.25,-0.15625 0.02683,-0.0206 0.19333,-0.165193 0.21875,-0.1875 0.02542,-0.02231 0.194845,-0.163576 0.21875,-0.1875 0.0239,-0.02392 0.165213,-0.193312 0.1875,-0.21875 0.02229,-0.02544 0.166927,-0.191907 0.1875,-0.21875 0.02057,-0.02684 0.137479,-0.221868 0.15625,-0.25 0.01877,-0.02813 0.139361,-0.220699 0.15625,-0.25 0.01689,-0.0293 0.141316,-0.219656 0.15625,-0.25 0.01493,-0.03034 0.112085,-0.249993 0.125,-0.28125 0.01292,-0.03126 0.08291,-0.217964 0.09375,-0.25 0.01084,-0.03204 0.05378,-0.248573 0.0625,-0.28125 0.0087,-0.03268 0.08719,-0.248073 0.09375,-0.28125 0.0066,-0.03318 0.02688,-0.247714 0.03125,-0.28125 0.0044,-0.03354 0.02908,-0.27875 0.03125,-0.3125 0.0022,-0.03375 4.6e-5,-0.24743 0,-0.28125 -4.6e-5,-0.03382 0.0023,-0.247506 0,-0.28125 -0.0023,-0.03374 -0.02678,-0.278976 -0.03125,-0.3125 -0.0045,-0.03352 -0.0246,-0.248091 -0.03125,-0.28125 -0.0067,-0.03316 -0.08494,-0.248597 -0.09375,-0.28125 -0.0088,-0.03265 -0.05157,-0.249244 -0.0625,-0.28125 -0.01093,-0.03201 -0.112,-0.250028 -0.125,-0.28125 -0.013,-0.03122 -0.109983,-0.219697 -0.125,-0.25 -0.01502,-0.0303 -0.108031,-0.220745 -0.125,-0.25 L 59.4375,24.3125 c -0.01767,-0.03077 -0.136504,-0.220521 -0.15625,-0.25 -0.01975,-0.02948 -0.165775,-0.221947 -0.1875,-0.25 -0.02173,-0.02805 -0.163899,-0.223506 -0.1875,-0.25 -0.0236,-0.02649 -0.193385,-0.19394 -0.21875,-0.21875 -0.02537,-0.02481 -0.191741,-0.195741 -0.21875,-0.21875 -0.02701,-0.02301 -0.221474,-0.1664 -0.25,-0.1875 -0.02853,-0.0211 -0.220092,-0.13716 -0.25,-0.15625 -0.02991,-0.01909 -0.218851,-0.13926 -0.25,-0.15625 -0.03115,-0.01699 -0.249007,-0.11019 -0.28125,-0.125 -0.03224,-0.01481 -0.248066,-0.112439 -0.28125,-0.125 -0.03318,-0.01256 -0.247282,-0.0835 -0.28125,-0.09375 -0.03397,-0.01025 -0.277908,-0.08586 -0.3125,-0.09375 -0.03459,-0.0079 -0.246197,-0.057 -0.28125,-0.0625 -0.03505,-0.0055 -0.277152,-0.02817 -0.3125,-0.03125 -0.03535,-0.0031 -0.277024,6.42e-4 -0.3125,0 -0.03548,-6.42e-4 -0.245814,-0.0018 -0.28125,0 -0.03207,0.0017 -0.249347,-0.0037 -0.28125,0 z"
       transform="matrix(0.36301624,0,0,0.36097177,-5.1871058,2.011477)" />
    <path
       transform="matrix(0.36301624,0,0,0.36097177,-5.1871058,2.011477)"
       d="m 55.4375,23.53125 a 2.9965231,2.9965231 0 0 0 -2.4375,1.5 l -12.53125,21.6875 a 2.9965231,2.9965231 0 0 0 2.59375,4.5 l 25.09375,-0.0625 a 2.9965231,2.9965231 0 0 0 2.59375,-4.5 l -12.5625,-21.625 a 2.9965231,2.9965231 0 0 0 -2.75,-1.5 z"
       id="path4179"
       style="opacity:0.3;color:#000000;fill:#000000;fill-opacity:1;fill-rule:nonzero;stroke:none;stroke-width:1.5;marker:none;visibility:visible;display:inline;overflow:visible;enable-background:accumulate"
       inkscape:original="M 55.59375 26.53125 L 43.0625 48.21875 L 68.15625 48.15625 L 55.59375 26.53125 z "
       inkscape:radius="2.9962234"
       sodipodi:type="inkscape:offset" />
    <path
       sodipodi:type="inkscape:offset"
       inkscape:radius="2.9962234"
       inkscape:original="M 55.59375 26.53125 L 43.0625 48.21875 L 68.15625 48.15625 L 55.59375 26.53125 z "
       style="color:#000000;fill:url(#linearGradient3204);fill-opacity:1;fill-rule:nonzero;stroke:none;stroke-width:1.5;marker:none;visibility:visible;display:inline;overflow:visible;enable-background:accumulate"
       id="path3746"
       d="m 55.4375,23.53125 a 2.9965231,2.9965231 0 0 0 -2.4375,1.5 l -12.53125,21.6875 a 2.9965231,2.9965231 0 0 0 2.59375,4.5 l 25.09375,-0.0625 a 2.9965231,2.9965231 0 0 0 2.59375,-4.5 l -12.5625,-21.625 a 2.9965231,2.9965231 0 0 0 -2.75,-1.5 z"
       transform="matrix(0.36301624,0,0,0.36097177,-5.1871058,1.5058831)" />
    <rect
       style="color:#000000;fill:#ffffff;fill-opacity:1;fill-rule:nonzero;stroke:none;stroke-width:1.5;marker:none;visibility:visible;display:inline;overflow:visible;enable-background:accumulate"
       id="rect3826"
       width="1.9999995"
       height="4.4394941"
       x="14"
       y="12.060506"
       rx="0.87261069"
       ry="1" />
    <path
       sodipodi:type="arc"
       style="color:#000000;fill:#ffffff;fill-opacity:1;fill-rule:nonzero;stroke:none;stroke-width:1.5;marker:none;visibility:visible;display:inline;overflow:visible;enable-background:accumulate"
       id="path3828"
       sodipodi:cx="62"
       sodipodi:cy="73"
       sodipodi:rx="2"
       sodipodi:ry="2"
       d="m 64,73 a 2,2 0 1 1 -4,0 2,2 0 1 1 4,0 z"
       transform="matrix(0.50000002,0,0,0.50000002,-16.000001,-18.500002)" />
  </g>
</svg>
