<?xml version="1.0" encoding="UTF-8" standalone="no"?>
<!-- Created with Inkscape (http://www.inkscape.org/) -->

<svg
   xmlns:dc="http://purl.org/dc/elements/1.1/"
   xmlns:cc="http://creativecommons.org/ns#"
   xmlns:rdf="http://www.w3.org/1999/02/22-rdf-syntax-ns#"
   xmlns:svg="http://www.w3.org/2000/svg"
   xmlns="http://www.w3.org/2000/svg"
   xmlns:xlink="http://www.w3.org/1999/xlink"
   xmlns:sodipodi="http://sodipodi.sourceforge.net/DTD/sodipodi-0.dtd"
   xmlns:inkscape="http://www.inkscape.org/namespaces/inkscape"
   width="24"
   height="24"
   id="svg2"
   sodipodi:version="0.32"
   inkscape:version="0.48.1 r9760"
   version="1.0"
   sodipodi:docname="weather-fog.svg"
   inkscape:output_extension="org.inkscape.output.svg.inkscape"
   style="display:inline">
  <defs
     id="defs4">
    <inkscape:path-effect
       effect="skeletal"
       id="path-effect5487"
       is_visible="true"
       pattern="M 0,5 10,10 10,0 z"
       copytype="single_stretched"
       prop_scale="1"
       scale_y_rel="false"
       spacing="0"
       normal_offset="0"
       tang_offset="0"
       prop_units="false"
       vertical_pattern="false"
       fuse_tolerance="0" />
    <linearGradient
       inkscape:collect="always"
       id="linearGradient3327">
      <stop
         style="stop-color:#000000;stop-opacity:1;"
         offset="0"
         id="stop3330" />
      <stop
         style="stop-color:#000000;stop-opacity:0;"
         offset="1"
         id="stop3333" />
    </linearGradient>
    <linearGradient
       inkscape:collect="always"
       xlink:href="#linearGradient3327"
       id="linearGradient3335"
       x1="11.375"
       y1="22"
       x2="11.375"
       y2="-9.817296"
       gradientUnits="userSpaceOnUse" />
    <linearGradient
       inkscape:collect="always"
       xlink:href="#linearGradient3700-1"
       id="linearGradient3181"
       x1="-3.0607977"
       y1="27.258198"
       x2="-3.0607977"
       y2="7.2536583"
       gradientUnits="userSpaceOnUse"
       gradientTransform="translate(12.119372,-7.2581977)" />
    <filter
       inkscape:collect="always"
       id="filter3194"
       x="-0.18000001"
       width="1.36"
       y="-0.18000001"
       height="1.36"
       color-interpolation-filters="sRGB">
      <feGaussianBlur
         inkscape:collect="always"
         stdDeviation="1.2"
         id="feGaussianBlur3196" />
    </filter>
    <clipPath
       clipPathUnits="userSpaceOnUse"
       id="clipPath2849">
      <rect
         ry="2"
         rx="2"
         y="1"
         x="1"
         height="20"
         width="20"
         id="rect2851"
         style="fill:#ffffff;fill-opacity:1;fill-rule:evenodd;stroke:none;display:inline" />
    </clipPath>
    <linearGradient
       id="linearGradient3762-0">
      <stop
         style="stop-color:#ffda56;stop-opacity:1;"
         offset="0"
         id="stop3764-5" />
      <stop
         id="stop3770-3"
         offset="0.640625"
         style="stop-color:#ffda56;stop-opacity:1;" />
      <stop
         style="stop-color:#ffda56;stop-opacity:0;"
         offset="1"
         id="stop3766-9" />
    </linearGradient>
    <radialGradient
       inkscape:collect="always"
       xlink:href="#linearGradient3752-3"
       id="radialGradient4520"
       gradientUnits="userSpaceOnUse"
       cx="64"
       cy="32"
       fx="64"
       fy="32"
       r="32" />
    <linearGradient
       id="linearGradient3752-3">
      <stop
         id="stop3754-6"
         offset="0"
         style="stop-color:#ffdc4d;stop-opacity:1;" />
      <stop
         style="stop-color:#ffe041;stop-opacity:1;"
         offset="0.77642262"
         id="stop3756-2" />
      <stop
         id="stop3758-7"
         offset="1"
         style="stop-color:#fffda4;stop-opacity:0;" />
    </linearGradient>
    <linearGradient
       id="linearGradient3699-8">
      <stop
         style="stop-color:#fff894;stop-opacity:1;"
         offset="0"
         id="stop3701-8" />
      <stop
         id="stop4084"
         offset="0.80000001"
         style="stop-color:#ffc822;stop-opacity:1;" />
      <stop
         style="stop-color:#ffb400;stop-opacity:1;"
         offset="1"
         id="stop3703-4" />
    </linearGradient>
    <linearGradient
       id="linearGradient3823-9">
      <stop
         id="stop3825-8"
         offset="0"
         style="stop-color:#ffffff;stop-opacity:1;" />
      <stop
         id="stop3829-3"
         offset="1"
         style="stop-color:#ffffff;stop-opacity:0;" />
    </linearGradient>
    <linearGradient
       inkscape:collect="always"
       xlink:href="#linearGradient3831-4"
       id="linearGradient3845-6"
       x1="11"
       y1="19.5"
       x2="21"
       y2="19.5"
       gradientUnits="userSpaceOnUse"
       spreadMethod="reflect"
       gradientTransform="translate(1,1)" />
    <linearGradient
       id="linearGradient3831-4">
      <stop
         style="stop-color:#ffffff;stop-opacity:1;"
         offset="0"
         id="stop3833-7" />
      <stop
         id="stop3821-1"
         offset="0.75"
         style="stop-color:#ffffff;stop-opacity:0.49803922;" />
      <stop
         style="stop-color:#ffffff;stop-opacity:0;"
         offset="1"
         id="stop3835-5" />
    </linearGradient>
    <linearGradient
       y2="16"
       x2="10"
       y1="1"
       x1="10"
       gradientTransform="translate(1,1)"
       gradientUnits="userSpaceOnUse"
       id="linearGradient4763"
       xlink:href="#linearGradient3823-9"
       inkscape:collect="always" />
    <linearGradient
       id="linearGradient3700-86">
      <stop
         style="stop-color:#66707c;stop-opacity:1;"
         offset="0"
         id="stop3702-7-7" />
      <stop
         style="stop-color:#a4a8ac;stop-opacity:1;"
         offset="1"
         id="stop3704-0" />
    </linearGradient>
    <linearGradient
       inkscape:collect="always"
       xlink:href="#linearGradient3700-86-3"
       id="linearGradient3181-8"
       x1="-3.0607977"
       y1="27.258198"
       x2="-3.0607977"
       y2="7.2536583"
       gradientUnits="userSpaceOnUse"
       gradientTransform="translate(12.119372,-7.2581977)" />
    <linearGradient
       id="linearGradient3700-86-3">
      <stop
         style="stop-color:#66707c;stop-opacity:1;"
         offset="0"
         id="stop3702-7-7-6" />
      <stop
         style="stop-color:#a4a8ac;stop-opacity:1;"
         offset="1"
         id="stop3704-0-0" />
    </linearGradient>
    <radialGradient
       r="21.228415"
       fy="70.318527"
       fx="49.422203"
       cy="70.318527"
       cx="49.422203"
       gradientTransform="matrix(1,0,0,0.61803403,0,26.859284)"
       gradientUnits="userSpaceOnUse"
       id="radialGradient5156"
       xlink:href="#linearGradient4864"
       inkscape:collect="always" />
    <linearGradient
       inkscape:collect="always"
       id="linearGradient4864">
      <stop
         style="stop-color:#000000;stop-opacity:1;"
         offset="0"
         id="stop4866" />
      <stop
         style="stop-color:#000000;stop-opacity:0;"
         offset="1"
         id="stop4868" />
    </linearGradient>
    <radialGradient
       inkscape:collect="always"
       xlink:href="#linearGradient4864"
       id="radialGradient4882"
       gradientUnits="userSpaceOnUse"
       gradientTransform="matrix(1,0,0,0.61803403,0,26.859284)"
       cx="49.422203"
       cy="70.318527"
       fx="49.422203"
       fy="70.318527"
       r="21.228415" />
    <radialGradient
       inkscape:collect="always"
       xlink:href="#linearGradient4864"
       id="radialGradient4874"
       gradientUnits="userSpaceOnUse"
       gradientTransform="matrix(1,0,0,0.61803403,0,26.859284)"
       cx="49.422203"
       cy="70.318527"
       fx="49.422203"
       fy="70.318527"
       r="21.228415" />
    <linearGradient
       inkscape:collect="always"
       id="linearGradient4810">
      <stop
         style="stop-color:#ffffff;stop-opacity:1;"
         offset="0"
         id="stop4812" />
      <stop
         style="stop-color:#ffffff;stop-opacity:0;"
         offset="1"
         id="stop4814" />
    </linearGradient>
    <linearGradient
       inkscape:collect="always"
       id="linearGradient3814-9-16">
      <stop
         style="stop-color:#ffffff;stop-opacity:1;"
         offset="0"
         id="stop3816-9-9" />
      <stop
         style="stop-color:#ffffff;stop-opacity:0;"
         offset="1"
         id="stop3818-8-0" />
    </linearGradient>
    <linearGradient
       inkscape:collect="always"
       id="linearGradient3854-2-4">
      <stop
         style="stop-color:#ffffff;stop-opacity:1;"
         offset="0"
         id="stop3856-1-6" />
      <stop
         style="stop-color:#ffffff;stop-opacity:0;"
         offset="1"
         id="stop3858-3-7" />
    </linearGradient>
    <linearGradient
       inkscape:collect="always"
       id="linearGradient3862-9-4">
      <stop
         style="stop-color:#ffffff;stop-opacity:1;"
         offset="0"
         id="stop3864-9-8" />
      <stop
         style="stop-color:#ffffff;stop-opacity:0;"
         offset="1"
         id="stop3866-2-4-7" />
    </linearGradient>
    <linearGradient
       y2="38.687656"
       x2="45.966625"
       y1="18.873959"
       x1="45.966625"
       gradientTransform="translate(46.277498,18.233172)"
       gradientUnits="userSpaceOnUse"
       id="linearGradient3546"
       xlink:href="#linearGradient3814-9-16"
       inkscape:collect="always" />
    <linearGradient
       inkscape:collect="always"
       xlink:href="#linearGradient3814-9-16"
       id="linearGradient5369"
       gradientUnits="userSpaceOnUse"
       gradientTransform="matrix(0.23809524,0,0,0.23809524,11.589881,4.865041)"
       x1="45.966625"
       y1="18.873959"
       x2="45.966625"
       y2="38.687656" />
    <linearGradient
       inkscape:collect="always"
       xlink:href="#linearGradient3862-9-4"
       id="linearGradient5372"
       gradientUnits="userSpaceOnUse"
       gradientTransform="matrix(-0.23809524,0,0,0.23809524,35.950893,-7.5714284)"
       x1="75.917961"
       y1="63.13913"
       x2="75.917961"
       y2="76.550301" />
    <linearGradient
       inkscape:collect="always"
       xlink:href="#linearGradient3854-2-4"
       id="linearGradient5375"
       gradientUnits="userSpaceOnUse"
       gradientTransform="matrix(0.23809524,0,0,0.23809524,11.52381,-17.333333)"
       x1="46.769516"
       y1="78.496399"
       x2="46.769516"
       y2="91.665634" />
    <linearGradient
       inkscape:collect="always"
       xlink:href="#linearGradient3862-9-4"
       id="linearGradient5378"
       gradientUnits="userSpaceOnUse"
       gradientTransform="matrix(0.23809524,0,0,0.23809524,-12.52381,-9.2380951)"
       x1="75.917961"
       y1="63.13913"
       x2="75.917961"
       y2="76.550301" />
    <linearGradient
       inkscape:collect="always"
       xlink:href="#linearGradient3814-9-16"
       id="linearGradient5381"
       gradientUnits="userSpaceOnUse"
       gradientTransform="matrix(-0.22864857,0.06640162,0.06640162,0.22864857,24.72361,4.1655588)"
       x1="39.819206"
       y1="13.055696"
       x2="45.633511"
       y2="33.076782" />
    <linearGradient
       inkscape:collect="always"
       xlink:href="#linearGradient3814-9-16"
       id="linearGradient5384"
       gradientUnits="userSpaceOnUse"
       gradientTransform="matrix(0.23809524,0,0,0.23809524,3.5114546,-2.9702091)"
       x1="76.75824"
       y1="27.409969"
       x2="76.75824"
       y2="44.91465" />
    <linearGradient
       inkscape:collect="always"
       xlink:href="#linearGradient3814-9-16"
       id="linearGradient5387"
       gradientUnits="userSpaceOnUse"
       gradientTransform="matrix(0.23809524,0,0,0.23809524,-5.3148814,-0.84924494)"
       x1="45.966625"
       y1="18.873959"
       x2="45.966625"
       y2="38.687656" />
    <linearGradient
       inkscape:collect="always"
       xlink:href="#linearGradient3814-9-16"
       id="linearGradient5390"
       gradientUnits="userSpaceOnUse"
       gradientTransform="matrix(0.23809524,0,0,0.23809524,-4.9047619,-6.8571429)"
       x1="35.83757"
       y1="56.923836"
       x2="35.83757"
       y2="86.110924" />
    <linearGradient
       inkscape:collect="always"
       xlink:href="#linearGradient3814-9-16"
       id="linearGradient5393"
       gradientUnits="userSpaceOnUse"
       gradientTransform="matrix(0.23809524,0,0,0.23809524,0.10071122,-0.67213991)"
       x1="38.534676"
       y1="8.6325254"
       x2="38.534676"
       y2="44.721241" />
    <linearGradient
       inkscape:collect="always"
       xlink:href="#linearGradient3814-9-16"
       id="linearGradient5396"
       gradientUnits="userSpaceOnUse"
       gradientTransform="matrix(-0.23809524,0,0,0.23809524,23.488095,-5.9047617)"
       x1="29.300009"
       y1="52.947876"
       x2="29.300009"
       y2="73.400635" />
    <linearGradient
       inkscape:collect="always"
       xlink:href="#linearGradient3862-9-4"
       id="linearGradient5399"
       gradientUnits="userSpaceOnUse"
       gradientTransform="matrix(0.23809524,0,0,0.23809524,-0.6190476,-13.761905)"
       x1="75.917961"
       y1="63.13913"
       x2="75.917961"
       y2="76.550301" />
    <linearGradient
       inkscape:collect="always"
       xlink:href="#linearGradient3854-2-4"
       id="linearGradient5402"
       gradientUnits="userSpaceOnUse"
       gradientTransform="matrix(0.23809524,0,0,0.23809524,2.952381,-14.47619)"
       x1="46.769516"
       y1="78.496399"
       x2="46.769516"
       y2="91.665634" />
    <linearGradient
       inkscape:collect="always"
       xlink:href="#linearGradient3814-9-16"
       id="linearGradient5405"
       gradientUnits="userSpaceOnUse"
       gradientTransform="matrix(-0.23809524,0,0,0.23809524,21.748062,-4.3987805)"
       x1="76.75824"
       y1="27.409969"
       x2="76.75824"
       y2="56.865051" />
    <linearGradient
       inkscape:collect="always"
       xlink:href="#linearGradient4810"
       id="linearGradient5411"
       gradientUnits="userSpaceOnUse"
       gradientTransform="matrix(0.2411522,0,0,0.23831603,9.1939491,20.313313)"
       spreadMethod="reflect"
       x1="42.818394"
       y1="66.939888"
       x2="43.270054"
       y2="35.27647" />
    <linearGradient
       inkscape:collect="always"
       xlink:href="#linearGradient4810"
       id="linearGradient5432"
       gradientUnits="userSpaceOnUse"
       gradientTransform="matrix(0.2411522,0,0,0.23831603,4.410282,19.11279)"
       spreadMethod="reflect"
       x1="56.461472"
       y1="56.0373"
       x2="56.461472"
       y2="44.43996" />
    <linearGradient
       inkscape:collect="always"
       xlink:href="#linearGradient4810"
       id="linearGradient5435"
       gradientUnits="userSpaceOnUse"
       gradientTransform="matrix(0.2411522,0,0,0.23831603,5.1331477,22.974546)"
       spreadMethod="reflect"
       x1="64.447701"
       y1="54.932674"
       x2="64.447701"
       y2="36.757607" />
    <linearGradient
       inkscape:collect="always"
       xlink:href="#linearGradient4810"
       id="linearGradient5441"
       gradientUnits="userSpaceOnUse"
       gradientTransform="matrix(0.2411522,0,0,0.23831603,13.956277,14.85797)"
       spreadMethod="reflect"
       x1="49.649223"
       y1="69.250671"
       x2="49.649223"
       y2="51.033485" />
    <linearGradient
       inkscape:collect="always"
       xlink:href="#linearGradient4810"
       id="linearGradient5444"
       gradientUnits="userSpaceOnUse"
       gradientTransform="matrix(0.2411522,0,0,0.23831603,17.130468,19.198632)"
       spreadMethod="reflect"
       x1="56.461472"
       y1="56.0373"
       x2="56.461472"
       y2="44.43996" />
    <linearGradient
       inkscape:collect="always"
       xlink:href="#linearGradient4810"
       id="linearGradient5453"
       gradientUnits="userSpaceOnUse"
       gradientTransform="matrix(0.23809524,0,0,0.23809524,3.1417199,19.965754)"
       spreadMethod="reflect"
       x1="34.175827"
       y1="57.867619"
       x2="34.688854"
       y2="39.914955" />
    <linearGradient
       inkscape:collect="always"
       xlink:href="#linearGradient4810"
       id="linearGradient5456"
       gradientUnits="userSpaceOnUse"
       spreadMethod="reflect"
       x1="99.479851"
       y1="46.581116"
       x2="99.479851"
       y2="34.625645"
       gradientTransform="matrix(0.2411522,0,0,0.23831603,5.7913038,19.733989)" />
    <linearGradient
       inkscape:collect="always"
       xlink:href="#linearGradient4810"
       id="linearGradient5459"
       gradientUnits="userSpaceOnUse"
       spreadMethod="reflect"
       x1="64.447701"
       y1="54.932674"
       x2="64.447701"
       y2="36.757607"
       gradientTransform="matrix(0.2411522,0,0,0.23831603,6.4931032,19.600956)" />
    <linearGradient
       inkscape:collect="always"
       xlink:href="#linearGradient4810"
       id="linearGradient5462"
       gradientUnits="userSpaceOnUse"
       spreadMethod="reflect"
       x1="34.175827"
       y1="57.867619"
       x2="34.688854"
       y2="39.914955"
       gradientTransform="matrix(0.2411522,0,0,0.23831603,6.34558,19.64002)" />
    <linearGradient
       inkscape:collect="always"
       xlink:href="#linearGradient4810"
       id="linearGradient5465"
       gradientUnits="userSpaceOnUse"
       gradientTransform="matrix(0.23809524,0,0,0.23809524,6.2528977,20.276351)"
       spreadMethod="reflect"
       x1="27.483698"
       y1="63.801872"
       x2="27.483698"
       y2="31.981205" />
    <linearGradient
       inkscape:collect="always"
       xlink:href="#linearGradient4810"
       id="linearGradient5468"
       gradientUnits="userSpaceOnUse"
       spreadMethod="reflect"
       x1="87.269562"
       y1="70.558372"
       x2="87.269562"
       y2="38.525948"
       gradientTransform="matrix(0.23809524,0,0,0.23809524,6.1495691,19.758297)" />
    <linearGradient
       inkscape:collect="always"
       xlink:href="#linearGradient4810"
       id="linearGradient5471"
       gradientUnits="userSpaceOnUse"
       gradientTransform="matrix(0.2411522,0,0,0.23831603,5.5583686,19.79567)"
       spreadMethod="reflect"
       x1="97.048943"
       y1="60.691067"
       x2="97.048943"
       y2="28.449224" />
    <linearGradient
       inkscape:collect="always"
       xlink:href="#linearGradient4810"
       id="linearGradient5474"
       gradientUnits="userSpaceOnUse"
       spreadMethod="reflect"
       x1="73.866722"
       y1="66.902718"
       x2="73.866722"
       y2="35.248737"
       gradientTransform="matrix(0.2411522,0,0,0.23831603,6.1662642,19.634701)" />
    <linearGradient
       inkscape:collect="always"
       xlink:href="#linearGradient4810"
       id="linearGradient5480"
       gradientUnits="userSpaceOnUse"
       spreadMethod="reflect"
       x1="42.818394"
       y1="66.939888"
       x2="43.270054"
       y2="35.27647"
       gradientTransform="matrix(0.23809524,0,0,0.23809524,5.8639103,19.676581)" />
    <clipPath
       clipPathUnits="userSpaceOnUse"
       id="clipPath5548">
      <rect
         ry="1.9999999"
         rx="1.9999999"
         y="2"
         x="2"
         height="20"
         width="20"
         id="rect5550"
         style="fill:#ff00ff;fill-opacity:1;fill-rule:evenodd;stroke:none;display:inline" />
    </clipPath>
    <radialGradient
       inkscape:collect="always"
       xlink:href="#linearGradient3729"
       id="radialGradient3763"
       gradientUnits="userSpaceOnUse"
       gradientTransform="matrix(1,0,0,0.29360468,0,26.652193)"
       cx="46.916653"
       cy="37.729855"
       fx="46.916653"
       fy="37.729855"
       r="57.435329" />
    <linearGradient
       inkscape:collect="always"
       id="linearGradient3729">
      <stop
         style="stop-color:#ffffff;stop-opacity:1;"
         offset="0"
         id="stop3731" />
      <stop
         style="stop-color:#ffffff;stop-opacity:0;"
         offset="1"
         id="stop3733" />
    </linearGradient>
    <radialGradient
       inkscape:collect="always"
       xlink:href="#linearGradient3729"
       id="radialGradient3735"
       cx="46.916653"
       cy="37.729855"
       fx="46.916653"
       fy="37.729855"
       r="57.435329"
       gradientTransform="matrix(1,0,0,0.29360468,0,26.652193)"
       gradientUnits="userSpaceOnUse" />
    <radialGradient
       inkscape:collect="always"
       xlink:href="#linearGradient3729"
       id="radialGradient3739"
       gradientUnits="userSpaceOnUse"
       gradientTransform="matrix(1,0,0,0.29360468,0,26.652193)"
       cx="46.916653"
       cy="37.729855"
       fx="46.916653"
       fy="37.729855"
       r="57.435329" />
    <radialGradient
       inkscape:collect="always"
       xlink:href="#linearGradient3729"
       id="radialGradient3751"
       gradientUnits="userSpaceOnUse"
       gradientTransform="matrix(1,0,0,0.29360468,0,26.652193)"
       cx="46.916653"
       cy="37.729855"
       fx="46.916653"
       fy="37.729855"
       r="57.435329" />
    <radialGradient
       inkscape:collect="always"
       xlink:href="#linearGradient3729"
       id="radialGradient3755"
       gradientUnits="userSpaceOnUse"
       gradientTransform="matrix(1,0,0,0.29360468,0,26.652193)"
       cx="46.916653"
       cy="37.729855"
       fx="46.916653"
       fy="37.729855"
       r="57.435329" />
    <radialGradient
       inkscape:collect="always"
       xlink:href="#linearGradient3729"
       id="radialGradient3759"
       gradientUnits="userSpaceOnUse"
       gradientTransform="matrix(1,0,0,0.29360468,0,26.652193)"
       cx="46.916653"
       cy="37.729855"
       fx="46.916653"
       fy="37.729855"
       r="57.435329" />
    <filter
       color-interpolation-filters="sRGB"
       inkscape:collect="always"
       id="filter3850"
       x="-0.14674477"
       width="1.2934896"
       y="-0.65842283"
       height="2.3168457">
      <feGaussianBlur
         inkscape:collect="always"
         stdDeviation="6.333489"
         id="feGaussianBlur3852" />
    </filter>
    <filter
       color-interpolation-filters="sRGB"
       inkscape:collect="always"
       id="filter3866"
       x="-0.12863521"
       width="1.2572705"
       y="-0.29965332"
       height="1.5993066">
      <feGaussianBlur
         inkscape:collect="always"
         stdDeviation="3.5967545"
         id="feGaussianBlur3868" />
    </filter>
    <filter
       color-interpolation-filters="sRGB"
       inkscape:collect="always"
       id="filter3886"
       x="-0.091875888"
       width="1.1837518"
       y="-0.17293803"
       height="1.3458761">
      <feGaussianBlur
         inkscape:collect="always"
         stdDeviation="2.6148777"
         id="feGaussianBlur3888" />
    </filter>
    <filter
       color-interpolation-filters="sRGB"
       inkscape:collect="always"
       id="filter3895"
       x="-0.071156599"
       width="1.1423132"
       y="-0.38267896"
       height="1.7653579">
      <feGaussianBlur
         inkscape:collect="always"
         stdDeviation="1.9987577"
         id="feGaussianBlur3897" />
    </filter>
    <filter
       color-interpolation-filters="sRGB"
       inkscape:collect="always"
       id="filter3966"
       x="-0.15230533"
       width="1.3046107"
       y="-0.5657469"
       height="2.1314938">
      <feGaussianBlur
         inkscape:collect="always"
         stdDeviation="3.3648619"
         id="feGaussianBlur3968" />
    </filter>
    <linearGradient
       inkscape:collect="always"
       xlink:href="#linearGradient3888"
       id="linearGradient3901"
       gradientUnits="userSpaceOnUse"
       x1="72"
       y1="80"
       x2="72"
       y2="32"
       gradientTransform="translate(-4,-4)" />
    <linearGradient
       inkscape:collect="always"
       id="linearGradient3888">
      <stop
         style="stop-color:#ffffff;stop-opacity:1;"
         offset="0"
         id="stop3890" />
      <stop
         style="stop-color:#ffffff;stop-opacity:0;"
         offset="1"
         id="stop3892" />
    </linearGradient>
    <linearGradient
       y2="32"
       x2="72"
       y1="80"
       x1="72"
       gradientTransform="matrix(0.4996918,0,0,0.4996918,-22.995024,-21.969704)"
       gradientUnits="userSpaceOnUse"
       id="linearGradient3991"
       xlink:href="#linearGradient3888"
       inkscape:collect="always" />
    <linearGradient
       y2="5.9877172"
       x2="48"
       y1="90"
       x1="48"
       gradientUnits="userSpaceOnUse"
       id="linearGradient3186"
       xlink:href="#linearGradient3700-1"
       inkscape:collect="always" />
    <linearGradient
       id="linearGradient3700-1">
      <stop
         style="stop-color:#808080;stop-opacity:1;"
         offset="0"
         id="stop3702-0" />
      <stop
         style="stop-color:#cecece;stop-opacity:1;"
         offset="1"
         id="stop3704-8" />
    </linearGradient>
    <linearGradient
       gradientTransform="translate(-56.509526,-20.023071)"
       y2="5.9877172"
       x2="48"
       y1="90"
       x1="48"
       gradientUnits="userSpaceOnUse"
       id="linearGradient4008"
       xlink:href="#linearGradient3700-1"
       inkscape:collect="always" />
    <linearGradient
       inkscape:collect="always"
       xlink:href="#linearGradient3700-1-3"
       id="linearGradient3181-9"
       x1="-3.0607977"
       y1="27.258198"
       x2="-3.0607977"
       y2="7.2536583"
       gradientUnits="userSpaceOnUse"
       gradientTransform="translate(12.119372,-7.2581977)" />
    <linearGradient
       id="linearGradient3700-1-3">
      <stop
         style="stop-color:#808080;stop-opacity:1;"
         offset="0"
         id="stop3702-0-6" />
      <stop
         style="stop-color:#cecece;stop-opacity:1;"
         offset="1"
         id="stop3704-8-0" />
    </linearGradient>
    <clipPath
       clipPathUnits="userSpaceOnUse"
       id="clipPath4089">
      <rect
         style="fill:#ff00ff;fill-opacity:1;fill-rule:evenodd;stroke:none;display:inline"
         id="rect4091"
         width="84"
         height="84"
         x="6"
         y="6"
         rx="8.3999996"
         ry="8.3999996" />
    </clipPath>
  </defs>
  <sodipodi:namedview
     id="base"
     pagecolor="#ffffff"
     bordercolor="#e7e7e7"
     borderopacity="1"
     inkscape:pageopacity="0.0"
     inkscape:pageshadow="2"
     inkscape:zoom="9.8712898"
     inkscape:cx="-37.756533"
     inkscape:cy="-2.8532926"
     inkscape:document-units="px"
     inkscape:current-layer="layer4"
     showgrid="true"
     inkscape:showpageshadow="false"
     showguides="false"
     inkscape:guide-bbox="true"
     inkscape:window-width="1920"
     inkscape:window-height="1030"
     inkscape:window-x="0"
     inkscape:window-y="25"
     inkscape:window-maximized="1"
     inkscape:snap-global="false">
    <sodipodi:guide
       orientation="1,0"
       position="0,112"
       id="guide2383" />
    <sodipodi:guide
       orientation="0,1"
       position="26.278146,128"
       id="guide2385" />
    <sodipodi:guide
       orientation="1,0"
       position="128,54.082119"
       id="guide2387" />
    <sodipodi:guide
       orientation="0,1"
       position="78.156291,0"
       id="guide2389" />
    <sodipodi:guide
       orientation="0,1"
       position="60.863576,64.084768"
       id="guide2391" />
    <inkscape:grid
       type="xygrid"
       id="grid3672"
       visible="true"
       enabled="true"
       empspacing="8"
       snapvisiblegridlinesonly="true" />
  </sodipodi:namedview>
  <metadata
     id="metadata7">
    <rdf:RDF>
      <cc:Work
         rdf:about="">
        <dc:format>image/svg+xml</dc:format>
        <dc:type
           rdf:resource="http://purl.org/dc/dcmitype/StillImage" />
        <dc:title></dc:title>
      </cc:Work>
    </rdf:RDF>
  </metadata>
  <g
     inkscape:label="Button"
     inkscape:groupmode="layer"
     id="layer1"
     transform="translate(0,2)"
     sodipodi:insensitive="true">
    <g
       style="display:inline"
       id="g3337"
       transform="translate(1,-1)">
      <rect
         ry="2.5"
         rx="2.5"
         y="0.5"
         x="0.5"
         height="21.5"
         width="21"
         id="rect3371"
         style="opacity:0.3;fill:url(#linearGradient3335);fill-opacity:1;stroke:none;display:inline" />
      <rect
         style="opacity:0.5;fill:#000000;fill-opacity:1;stroke:none;display:inline"
         id="rect2553"
         width="20"
         height="20"
         x="1"
         y="2"
         rx="2.3809524"
         ry="2.3255813" />
    </g>
    <rect
       style="fill:url(#linearGradient3181);fill-opacity:1;fill-rule:evenodd;stroke:none;display:inline"
       id="rect3173"
       width="20"
       height="20"
       x="2"
       y="0"
       rx="2"
       ry="2" />
    <path
       id="path3018"
       d="m -26,-1.8e-7 c -1.108,0 -2,0.89199998 -2,1.99999998 l 0,1 c 0,-1.108 0.892,-2 2,-2 l 16,0 c 1.108,0 2,0.892 2,2 l 0,-1 C -8,0.8919998 -8.892,-1.8e-7 -10,-1.8e-7 l -16,0 z"
       style="opacity:0.25;fill:#ffffff;fill-opacity:1;fill-rule:evenodd;stroke:none;display:inline"
       inkscape:connector-curvature="0" />
    <path
       style="opacity:0.15;fill:#000000;fill-opacity:1;fill-rule:evenodd;stroke:none;display:inline"
       d="m -26,19.999999 c -1.108,0 -2,-0.891999 -2,-1.999999 l 0,-1 c 0,1.108 0.892,2 2,2 l 16,0 c 1.108,0 2,-0.892 2,-2 l 0,1 c 0,1.108 -0.892,1.999999 -2,1.999999 l -16,0 z"
       id="path3020"
       inkscape:connector-curvature="0" />
  </g>
  <g
     inkscape:groupmode="layer"
     id="layer2"
     inkscape:label="Highlight"
     transform="translate(0,2)"
     sodipodi:insensitive="true"
     style="display:none">
    <rect
       style="opacity:0.15;fill:#ffffff;fill-opacity:1;fill-rule:nonzero;stroke:none;display:inline;filter:url(#filter3194)"
       id="rect2410"
       width="16"
       height="16"
       x="3"
       y="3"
       rx="2"
       ry="2"
       clip-path="url(#clipPath2849)"
       transform="translate(1,-1)" />
  </g>
  <g
     inkscape:groupmode="layer"
     id="layer4"
     inkscape:label="Fog"
     style="display:inline">
    <g
       transform="matrix(0.23809524,0,0,0.23809524,0.5714286,0.5714286)"
       id="g4062"
       clip-path="url(#clipPath4089)">
      <path
         sodipodi:type="arc"
         style="opacity:0.4;color:#000000;fill:url(#radialGradient3763);fill-opacity:1;fill-rule:nonzero;stroke:none;stroke-width:1.5;marker:none;visibility:visible;display:inline;overflow:visible;enable-background:accumulate"
         id="path3761"
         sodipodi:cx="46.916653"
         sodipodi:cy="37.729855"
         sodipodi:rx="57.435329"
         sodipodi:ry="16.863281"
         d="m 104.35198,37.729855 a 57.435329,16.863281 0 1 1 -114.870657,0 57.435329,16.863281 0 1 1 114.870657,0 z"
         transform="matrix(1.2790698,0,0,1.4083583,-17.934951,22.541241)" />
      <path
         sodipodi:type="arc"
         style="opacity:0.3;color:#000000;fill:url(#radialGradient3735);fill-opacity:1;fill-rule:nonzero;stroke:none;stroke-width:1.5;marker:none;visibility:visible;display:inline;overflow:visible;enable-background:accumulate"
         id="path2955"
         sodipodi:cx="46.916653"
         sodipodi:cy="37.729855"
         sodipodi:rx="57.435329"
         sodipodi:ry="16.863281"
         d="m 104.35198,37.729855 a 57.435329,16.863281 0 1 1 -114.870657,0 57.435329,16.863281 0 1 1 114.870657,0 z"
         transform="matrix(1,0,0,0.83663367,0,8.9186801)" />
      <path
         transform="matrix(1,0,0,1.019802,-20.870396,19.954528)"
         d="m 104.35198,37.729855 a 57.435329,16.863281 0 1 1 -114.870657,0 57.435329,16.863281 0 1 1 114.870657,0 z"
         sodipodi:ry="16.863281"
         sodipodi:rx="57.435329"
         sodipodi:cy="37.729855"
         sodipodi:cx="46.916653"
         id="path3737"
         style="opacity:0.4;color:#000000;fill:url(#radialGradient3739);fill-opacity:1;fill-rule:nonzero;stroke:none;stroke-width:1.5;marker:none;visibility:visible;display:inline;overflow:visible;enable-background:accumulate"
         sodipodi:type="arc" />
      <path
         transform="matrix(1,0,0,0.83663367,-9.683864,56.336221)"
         d="m 104.35198,37.729855 a 57.435329,16.863281 0 1 1 -114.870657,0 57.435329,16.863281 0 1 1 114.870657,0 z"
         sodipodi:ry="16.863281"
         sodipodi:rx="57.435329"
         sodipodi:cy="37.729855"
         sodipodi:cx="46.916653"
         id="path3749"
         style="opacity:0.3;color:#000000;fill:url(#radialGradient3751);fill-opacity:1;fill-rule:nonzero;stroke:none;stroke-width:1.5;marker:none;visibility:visible;display:inline;overflow:visible;enable-background:accumulate"
         sodipodi:type="arc" />
      <path
         sodipodi:type="arc"
         style="opacity:0.4;color:#000000;fill:url(#radialGradient3755);fill-opacity:1;fill-rule:nonzero;stroke:none;stroke-width:1.5;marker:none;visibility:visible;display:inline;overflow:visible;enable-background:accumulate"
         id="path3753"
         sodipodi:cx="46.916653"
         sodipodi:cy="37.729855"
         sodipodi:rx="57.435329"
         sodipodi:ry="16.863281"
         d="m 104.35198,37.729855 a 57.435329,16.863281 0 1 1 -114.870657,0 57.435329,16.863281 0 1 1 114.870657,0 z"
         transform="matrix(0.70388352,0,0,0.71782182,36.744054,-14.149269)" />
      <path
         transform="matrix(0.94048557,0,0,0.30888072,19.075642,41.019033)"
         d="m 104.35198,37.729855 a 57.435329,16.863281 0 1 1 -114.870657,0 57.435329,16.863281 0 1 1 114.870657,0 z"
         sodipodi:ry="16.863281"
         sodipodi:rx="57.435329"
         sodipodi:cy="37.729855"
         sodipodi:cx="46.916653"
         id="path3757"
         style="opacity:0.2;color:#000000;fill:url(#radialGradient3759);fill-opacity:1;fill-rule:nonzero;stroke:none;stroke-width:1.5;marker:none;visibility:visible;display:inline;overflow:visible;enable-background:accumulate"
         sodipodi:type="arc" />
      <path
         inkscape:connector-curvature="0"
         style="opacity:0.2;fill:#ffffff;stroke:none;filter:url(#filter3850)"
         d="M 60.106742,22.536204 C 47.662268,21.56782 35.112214,22.422077 22.720141,20.705407 c -1.087209,2.847996 7.207295,5.124133 1.963071,6.565104 -6.663016,0.299567 -13.570393,-1.699892 -20.0289655,0.720229 -3.0092777,-1.916193 -12.0225924,0.314627 -7.3488787,4.222664 4.2477502,1.691261 8.4881879,-1.544265 12.8055782,-0.680582 7.559959,-0.02414 15.43809,-1.299245 22.695256,1.47983 3.575939,2.875946 5.452038,9.822684 11.21548,8.355705 13.124249,-1.817315 26.393021,-1.245426 39.56382,-0.36128 4.535405,0.255129 9.075786,0.4672 13.619439,0.46099 3.826899,1.961739 2.520271,-5.648732 -0.459135,-2.711892 -7.977674,0.03327 -15.794815,-3.692047 -23.786252,-1.843257 -3.724286,-1.59139 0.7425,-11.039806 -5.642682,-7.865393 -5.275462,0.846481 -4.642212,-8.35804 0.654123,-5.677699 3.555598,0.605862 10.82452,3.037793 11.15981,-2.555326 -2.9854,-4.468071 -8.389914,-0.448887 -12.44559,-0.349853 -2.272494,0.365185 -4.60065,0.829212 -6.578473,2.071557 z"
         id="path3789" />
      <path
         inkscape:connector-curvature="0"
         style="opacity:0.1;fill:#ffffff;stroke:none;filter:url(#filter3866)"
         d="M -1.3357054,52.088686 C 5.3967925,50.877579 12.254623,51.60276 19.046576,51.420833 c -0.391916,2.171178 -6.585501,1.072086 -4.342946,3.49481 4.264015,0.861182 8.65448,0.319303 12.955142,0.600788 1.673543,-0.712331 6.140279,1.481649 2.659809,2.397649 -1.025263,-0.20768 -4.345525,-0.264565 -3.290915,1.076257 3.979682,0.459241 7.991993,0.683184 11.985195,0.310938 8.717618,0.05365 17.432876,-0.206335 26.14958,-0.158531 2.457352,2.080094 -3.232438,2.252796 -4.686803,2.114995 -1.212344,-0.296031 -5.735068,-0.254167 -3.987995,1.511215 1.311478,0.181989 5.562932,-0.09401 3.88306,1.930164 -5.422836,1.38082 -11.101529,-0.204085 -16.537375,1.183034 -5.337955,0.806432 -10.831467,0.998721 -15.959617,2.8339 -2.135087,3.259554 3.447166,3.422056 5.463172,2.898102 3.46682,0.142153 6.976507,-0.214099 10.415657,0.160429 1.365461,0.02787 5.320618,1.08595 2.496823,2.458178 -5.029543,1.051807 -10.20826,0.335609 -15.284187,0.961206 -5.80979,0.256455 -11.626605,0.290839 -17.441159,0.269576 -0.158923,3.282564 5.932216,0.509616 5.134352,3.882583 C 13.60152,80.728705 8.3282648,79.913526 3.1686387,80.133492 0.38732599,79.457151 0.8799314,76.025249 1.8674125,74.054454 4.6559246,68.86584 4.2086683,62.785967 4.2253915,57.091426 4.2133971,53.788113 0.44641037,53.143612 -1.3357054,52.088686 z"
         id="path3854" />
      <path
         inkscape:connector-curvature="0"
         style="opacity:0.1;fill:#ffffff;stroke:none;filter:url(#filter3886)"
         d="m 61.60941,37.56289 c -11.631767,5.2e-5 -23.263535,-6.9e-5 -34.895302,0 -1.159225,0.394159 -5.974344,1.187391 -2.436164,1.896731 1.314288,-0.439796 5.899728,0.506553 3.056754,1.86314 -4.409241,1.356286 -9.348586,-0.05556 -13.53314,2.21394 -1.060928,2.35808 3.851335,1.455671 5.242343,1.823114 5.303461,0.117361 10.615571,-0.537032 15.90716,-0.28829 2.138933,-0.888292 5.973778,2.488526 2.580711,3.106519 -2.002247,-1.16588 -5.836635,2.553022 -2.076687,2.429889 3.275814,0.22068 2.747146,3.882536 -0.415957,3.540779 -3.17592,0.702783 -7.158478,0.180803 -9.44162,2.95043 -1.65987,4.01752 4.441234,3.858701 6.790687,2.818427 4.015364,-0.511342 8.084654,-0.158094 12.096826,-0.234079 2.71718,0.155158 2.578419,2.988347 0.540026,3.716229 0.203666,3.371411 4.729058,1.956029 6.934359,1.854772 5.685282,-0.70677 11.387989,-1.274929 17.081674,-1.914 3.144328,-2.152077 -2.586589,-2.430194 -3.885838,-3.137782 -2.173172,-1.121992 -8.852172,-1.560759 -5.556667,-5.051851 2.187849,-1.297481 4.930818,-0.970598 7.143857,-2.225251 2.335392,-0.703158 6.975493,0.45947 7.080112,-3.082542 -1.038701,-2.054043 -8.301858,-0.508779 -5.033911,-3.788952 2.951976,-1.588613 6.398315,-1.589766 9.552706,-2.544678 2.910516,0.645081 5.656172,-4.084057 1.490575,-4.210892 -3.380997,-0.876745 -7.327512,1.546487 -10.338493,-0.582326 -1.636953,-4.026849 4.09438,-3.748515 6.444713,-4.704695 3.577774,-1.032833 1.513794,-4.480948 -1.351166,-4.157943 -5.857971,-0.691363 -11.777219,-0.03738 -17.659672,-0.325967 -2.252464,-0.922165 -4.414688,1.916014 -1.565197,2.948241 2.77138,0.879598 6.595554,-0.363391 8.583673,2.555811 1.399099,2.020415 -0.156234,4.041819 -2.336362,2.531226 z"
         id="path3870" />
      <path
         inkscape:connector-curvature="0"
         style="opacity:0.1;fill:#ffffff;stroke:none;filter:url(#filter3895)"
         d="m 101.34665,70.514856 c -6.84651,1.103667 -13.797459,0.519456 -20.695789,0.673193 -7.695895,0.05407 -15.405693,-0.127397 -23.092915,0.07721 -1.334795,1.120416 3.028361,1.281765 3.996663,1.83024 1.165124,0.581944 3.498345,-0.208395 3.995991,0.776338 -3.493596,1.025 -7.235831,0.513184 -10.83664,0.658662 -3.850539,0.115904 -7.76758,-0.42478 -11.534267,0.588089 -2.397023,0.571561 -5.081224,0.672582 -7.388115,0.851407 2.591011,0.794255 5.383366,0.640818 7.942177,1.559928 0.784933,1.808787 -4.159854,1.177803 -1.206397,1.958897 5.323507,0.303316 10.69483,-0.612902 15.986905,0.160365 2.446272,1.40716 -2.962472,2.155976 -0.168646,2.853102 2.853115,0.537571 5.768352,-0.461728 8.670141,-0.266572 5.026171,-0.0535 10.058961,-0.07789 15.082621,0.02261 3.466996,0.784432 7.03224,0.587904 10.56169,0.668444 2.949512,0.18298 5.917713,0.12236 8.869801,0.07116 2.86373,-0.630136 1.28376,-4.036643 0.85863,-5.930354 -0.72639,-2.124287 0.15351,-4.590261 -1.04185,-6.552723 z"
         id="path3890" />
      <path
         inkscape:connector-curvature="0"
         style="opacity:0.3;fill:#ffffff;stroke:none;filter:url(#filter3966)"
         d="m 25.710549,35.710284 c 3.914062,0.536072 7.93943,-0.361101 11.796181,0.658619 2.136167,0.266509 4.416129,-0.455513 6.438299,0.52899 -0.907785,1.646564 -3.352615,0.878689 -4.908933,1.453441 -3.097089,0.434879 -6.273718,-0.03452 -9.34374,0.576762 -1.731799,1.530048 2.599727,2.112459 3.787962,1.785117 2.847632,-0.02599 5.679219,-0.56714 8.530144,-0.325373 6.081896,-0.209013 12.15196,0.503427 18.098311,1.745814 1.807116,-0.202971 4.339144,2.856147 1.454329,3.288333 -3.485184,-0.013 -6.967793,0.312065 -10.451056,0.01957 -7.254304,-0.132585 -14.510362,0.0075 -21.765592,-0.04741 -3.438144,1e-6 -6.876287,1e-6 -10.314431,2e-6 -0.172149,2.360506 3.471069,0.488963 4.827119,1.484096 1.395939,0.02418 5.439481,0.01145 3.789703,2.277559 -1.747913,1.420965 -4.086665,0.523383 -6.109548,0.53658 -2.752918,-0.769622 -5.559833,-1.322189 -8.327947,-2.031619 -2.163213,0.714548 -5.255471,-2.518615 -1.842057,-3.136364 2.240412,-0.964489 4.699288,-1.467878 7.141175,-1.314723 1.878921,-0.617089 4.313839,0.106933 5.772653,-1.504367 0.458924,-2.930085 -4.242126,-2.227162 -5.915049,-3.599128 0.704026,-2.510801 4.176569,-1.154332 6.023706,-2.240201 0.650781,-0.138635 1.3212,-0.225518 1.986626,-0.155712"
         id="path3956" />
    </g>
    <path
       style="font-size:medium;font-style:normal;font-variant:normal;font-weight:normal;font-stretch:normal;text-indent:0;text-align:start;text-decoration:none;line-height:normal;letter-spacing:normal;word-spacing:normal;text-transform:none;direction:ltr;block-progression:tb;writing-mode:lr-tb;text-anchor:start;opacity:0.7;color:#000000;fill:url(#linearGradient3991);fill-opacity:1;stroke:none;stroke-width:1.5;marker:none;visibility:visible;display:inline;overflow:visible;enable-background:accumulate;font-family:Abandoned Bitplane;-inkscape-font-specification:Abandoned Bitplane"
       d="m 15.278245,6.0130364 c -0.288609,-0.00647 -0.593447,0.014506 -0.905691,0.062462 C 13.539901,6.2033755 12.629726,6.5261575 11.68671,7.2310357 8.444157,9.6547558 6.143254,7.3091127 6.143254,7.3091127 A 0.67175168,0.86969024 0 1 0 5.362486,8.6832652 c 0,0 3.15837,2.9463638 6.995685,0.078077 3.165064,-2.3657983 5.543456,-0.046846 5.543456,-0.046846 a 0.68334228,0.88469603 0 1 0 0.780769,-1.4522293 c 0,0 -1.383883,-1.2039364 -3.404151,-1.2492295 z m 0,3.9975346 c -0.288609,-0.0065 -0.593447,0.01451 -0.905691,0.06246 -0.832653,0.127876 -1.742828,0.450658 -2.685844,1.155537 -3.242553,2.42372 -5.543456,0.07808 -5.543456,0.07808 a 0.67175168,0.86969024 0 1 0 -0.780768,1.374153 c 0,0 3.15837,2.946364 6.995685,0.07808 3.165064,-2.365799 5.543456,-0.04685 5.543456,-0.04685 a 0.6833425,0.88469632 0 1 0 0.780769,-1.45223 c 0,0 -1.383883,-1.203936 -3.404151,-1.249229 z m 0,3.997534 c -0.288609,-0.0065 -0.593447,0.01451 -0.905691,0.06246 -0.832653,0.127877 -1.742828,0.450658 -2.685844,1.155537 -3.242553,2.42372 -5.543456,0.07808 -5.543456,0.07808 a 0.67175168,0.86969024 0 1 0 -0.780768,1.374152 c 0,0 3.15837,2.946364 6.995685,0.07808 3.165064,-2.365798 5.543456,-0.04685 5.543456,-0.04685 a 0.68334228,0.88469603 0 0 0 0.780769,-1.452229 c 0,0 -1.383883,-1.203936 -3.404151,-1.249229 z"
       id="path2960"
       inkscape:connector-curvature="0" />
  </g>
  <g
     inkscape:groupmode="layer"
     id="layer5"
     inkscape:label="Button Highlights"
     sodipodi:insensitive="true">
    <path
       style="opacity:0.35;fill:url(#linearGradient4763);fill-opacity:1;fill-rule:evenodd;stroke:none;display:inline"
       d="M 4,2 C 2.892,2 2,2.892 2,4 l 0,16 c 0,1.108 0.892,2 2,2 l 16,0 c 1.108,0 2,-0.892 2,-2 L 22,4 C 22,2.892 21.108,2 20,2 L 4,2 z m 0,1.03125 16,0 c 0.5497,0 0.96875,0.4190495 0.96875,0.96875 l 0,16 c 0,0.5497 -0.41905,0.96875 -0.96875,0.96875 l -16,0 C 3.4502995,20.96875 3.03125,20.5497 3.03125,20 l 0,-16 C 3.03125,3.4502995 3.4502995,3.03125 4,3.03125 z"
       id="rect3050"
       inkscape:connector-curvature="0" />
    <path
       id="path3235"
       d="M 4,22 C 2.892,22 2,21.108 2,20 l 0,-1 c 0,1.108 0.892,2 2,2 l 16,0 c 1.108,0 2,-0.892 2,-2 l 0,1 c 0,1.108 -0.892,2 -2,2 L 4,22 z"
       style="opacity:0.2;fill:url(#linearGradient3845-6);fill-opacity:1;fill-rule:evenodd;stroke:none;display:inline"
       inkscape:connector-curvature="0" />
  </g>
</svg>
