<?xml version="1.0" encoding="UTF-8" standalone="no"?>
<!-- Created with Inkscape (http://www.inkscape.org/) -->

<svg
   xmlns:dc="http://purl.org/dc/elements/1.1/"
   xmlns:cc="http://creativecommons.org/ns#"
   xmlns:rdf="http://www.w3.org/1999/02/22-rdf-syntax-ns#"
   xmlns:svg="http://www.w3.org/2000/svg"
   xmlns="http://www.w3.org/2000/svg"
   xmlns:xlink="http://www.w3.org/1999/xlink"
   xmlns:sodipodi="http://sodipodi.sourceforge.net/DTD/sodipodi-0.dtd"
   xmlns:inkscape="http://www.inkscape.org/namespaces/inkscape"
   width="16"
   height="16"
   id="svg2"
   sodipodi:version="0.32"
   inkscape:version="0.48.1 r9760"
   version="1.0"
   sodipodi:docname="ibus-keyboard.svg"
   inkscape:output_extension="org.inkscape.output.svg.inkscape"
   inkscape:export-filename="/home/matt/.icons/Sirocco/scalable/mimetypes/text-plain.png"
   inkscape:export-xdpi="90"
   inkscape:export-ydpi="90"
   sodipodi:modified="true"
   style="display:inline">
  <sodipodi:namedview
     id="base"
     pagecolor="#838383"
     bordercolor="#cc0000"
     borderopacity="1"
     inkscape:pageopacity="1"
     inkscape:pageshadow="2"
     inkscape:zoom="25.4708"
     inkscape:cx="0.17708093"
     inkscape:cy="2.580528"
     inkscape:document-units="px"
     inkscape:current-layer="layer1"
     width="128px"
     height="128px"
     inkscape:showpageshadow="false"
     inkscape:window-width="1920"
     inkscape:window-height="1030"
     inkscape:window-x="0"
     inkscape:window-y="25"
     showguides="true"
     inkscape:guide-bbox="true"
     showgrid="true"
     inkscape:window-maximized="1"
     borderlayer="true"
     inkscape:snap-global="true">
    <sodipodi:guide
       id="guide2226"
       position="32.637397,117.99844"
       orientation="horizontal" />
    <sodipodi:guide
       id="guide2230"
       position="110,57.402344"
       orientation="vertical" />
    <sodipodi:guide
       id="guide2232"
       position="33.760911"
       orientation="horizontal" />
    <sodipodi:guide
       id="guide2231"
       position="46.774696"
       orientation="horizontal" />
    <inkscape:grid
       enabled="true"
       visible="true"
       id="grid3231"
       type="xygrid"
       empspacing="8"
       snapvisiblegridlinesonly="true" />
    <sodipodi:guide
       orientation="1,0"
       position="100,67.625"
       id="guide2713" />
    <sodipodi:guide
       orientation="1,0"
       position="9,0"
       id="guide3021" />
    <sodipodi:guide
       orientation="0,1"
       position="13,6"
       id="guide3023" />
  </sodipodi:namedview>
  <defs
     id="defs4">
    <linearGradient
       inkscape:collect="always"
       xlink:href="#StandardGradient"
       id="linearGradient2428"
       gradientUnits="userSpaceOnUse"
       gradientTransform="matrix(0.9247229,0,0,1.0872097,10.939944,-2.0023588)"
       x1="11.998966"
       y1="3.6813121"
       x2="11.998966"
       y2="16.529612" />
    <inkscape:perspective
       sodipodi:type="inkscape:persp3d"
       inkscape:vp_x="0 : 11 : 1"
       inkscape:vp_y="0 : 1000 : 0"
       inkscape:vp_z="22 : 11 : 1"
       inkscape:persp3d-origin="11 : 7.3333333 : 1"
       id="perspective19" />
    <linearGradient
       id="StandardGradient"
       gradientTransform="scale(0.9219544,1.0846523)"
       x1="11.998966"
       y1="0.92195445"
       x2="11.998966"
       y2="19.387045"
       gradientUnits="userSpaceOnUse">
      <stop
         style="stop-color:#000000;stop-opacity:0.23529412;"
         offset="0"
         id="stop3283" />
      <stop
         style="stop-color:#000000;stop-opacity:0.54901963;"
         offset="1"
         id="stop2651" />
    </linearGradient>
    <linearGradient
       inkscape:collect="always"
       xlink:href="#StandardGradient"
       id="linearGradient2549"
       gradientUnits="userSpaceOnUse"
       gradientTransform="matrix(0.9247229,0,0,1.0872097,-2.0600562,0.9976422)"
       x1="11.998966"
       y1="0.92195445"
       x2="11.998966"
       y2="17.478098" />
    <linearGradient
       inkscape:collect="always"
       xlink:href="#StandardGradient"
       id="linearGradient2418"
       gradientUnits="userSpaceOnUse"
       gradientTransform="matrix(0.9247229,0,0,1.0872097,-4.0600562,-3.0023583)"
       x1="11.998966"
       y1="0.92195445"
       x2="11.998966"
       y2="17.478098" />
    <linearGradient
       inkscape:collect="always"
       xlink:href="#StandardGradient"
       id="linearGradient2422"
       gradientUnits="userSpaceOnUse"
       gradientTransform="matrix(0.9247229,0,0,1.0872097,-5.0600562,-1.0023583)"
       x1="11.998966"
       y1="0.92195445"
       x2="11.998966"
       y2="17.478098" />
    <linearGradient
       inkscape:collect="always"
       xlink:href="#StandardGradient"
       id="linearGradient2403"
       gradientUnits="userSpaceOnUse"
       gradientTransform="matrix(0.9247229,0,0,1.0872097,-4.0600562,-3.0023583)"
       x1="11.998966"
       y1="0.92195445"
       x2="11.998966"
       y2="17.478098" />
    <linearGradient
       inkscape:collect="always"
       xlink:href="#StandardGradient"
       id="linearGradient2406"
       gradientUnits="userSpaceOnUse"
       gradientTransform="matrix(0.9247229,0,0,1.0872097,-4.0600562,-3.0023583)"
       x1="11.998966"
       y1="0.92195445"
       x2="11.998966"
       y2="17.478098" />
    <linearGradient
       inkscape:collect="always"
       xlink:href="#StandardGradient"
       id="linearGradient2409"
       gradientUnits="userSpaceOnUse"
       gradientTransform="matrix(0.9247229,0,0,1.0872097,-6.0600562,-2.0023583)"
       x1="11.998966"
       y1="3.6800685"
       x2="11.998966"
       y2="15.638639" />
    <linearGradient
       inkscape:collect="always"
       xlink:href="#StandardGradient"
       id="linearGradient2416"
       gradientUnits="userSpaceOnUse"
       gradientTransform="matrix(0.9247229,0,0,1.0872097,-6.0600562,-2.0023583)"
       x1="11.998966"
       y1="2.7615263"
       x2="11.998966"
       y2="15.638639" />
    <linearGradient
       inkscape:collect="always"
       xlink:href="#StandardGradient"
       id="linearGradient2529"
       gradientUnits="userSpaceOnUse"
       gradientTransform="matrix(0.9247229,0,0,1.0872097,-4.0418814,0.9976412)"
       x1="11.998966"
       y1="3.6813121"
       x2="11.998966"
       y2="16.529612" />
    <linearGradient
       inkscape:collect="always"
       xlink:href="#StandardGradient"
       id="linearGradient2539"
       gradientUnits="userSpaceOnUse"
       gradientTransform="matrix(0.9247229,0,0,1.0872097,-6.0600562,-2.0023583)"
       x1="11.998966"
       y1="2.7615263"
       x2="11.998966"
       y2="15.638639" />
    <linearGradient
       inkscape:collect="always"
       xlink:href="#StandardGradient"
       id="linearGradient2542"
       gradientUnits="userSpaceOnUse"
       gradientTransform="matrix(0.9247229,0,0,1.0872097,-6.0600562,-2.0023583)"
       x1="11.998966"
       y1="2.7615263"
       x2="11.998966"
       y2="15.638639" />
    <linearGradient
       inkscape:collect="always"
       xlink:href="#StandardGradient"
       id="linearGradient2412"
       gradientUnits="userSpaceOnUse"
       gradientTransform="matrix(0.9247229,0,0,1.0872097,-6.0600562,-2.0023583)"
       x1="11.998966"
       y1="2.7615263"
       x2="11.998966"
       y2="15.638639" />
    <inkscape:perspective
       id="perspective2892"
       inkscape:persp3d-origin="0.5 : 0.33333333 : 1"
       inkscape:vp_z="1 : 0.5 : 1"
       inkscape:vp_y="0 : 1000 : 0"
       inkscape:vp_x="0 : 0.5 : 1"
       sodipodi:type="inkscape:persp3d" />
    <linearGradient
       inkscape:collect="always"
       xlink:href="#StandardGradient"
       id="linearGradient2942"
       gradientUnits="userSpaceOnUse"
       gradientTransform="matrix(0.9247229,0,0,1.0872097,-26.060056,-2.0023583)"
       x1="11.998966"
       y1="2.7615263"
       x2="11.998966"
       y2="15.638639" />
    <clipPath
       clipPathUnits="userSpaceOnUse"
       id="clipPath2949">
      <path
         style="fill:#ff00ff;fill-opacity:1;stroke:none;display:inline"
         d="m -20,0 0,16 16,0 0,-16 -16,0 z m 3,1 3,0 c 0.554,0 1,0.446 1,1 l 6,0 c 0.554,0 1,0.446 1,1 l -12,0 0,-1 c 0,-0.554 0.446,-1 1,-1 z m -0.5,3 4,0 6,0 1,0 C -5.669,4 -5,4.669 -5,5.5 l 0,4.5 0,1.5 c 0,0.647488 -0.396277,1.195291 -0.96875,1.40625 l 0,0.15625 -0.03125,0 0,0.4375 c 0,0.831 -0.669,1.5 -1.5,1.5 l -6,0 c -0.831,0 -1.5,-0.669 -1.5,-1.5 l 0,-0.5 -2.5,0 c -0.831,0 -1.5,-0.669 -1.5,-1.5 l 0,-1.5 0,-4.5 C -19,4.669 -18.331,4 -17.5,4 z m 5,2 C -12.777,6 -13,6.223 -13,6.5 l 0,6 c 0,0.277 0.223,0.5 0.5,0.5 l 4,0 c 0.277,0 0.5,-0.223 0.5,-0.5 l 0,-6 C -8,6.223 -8.223,6 -8.5,6 l -4,0 z"
         id="path2951" />
    </clipPath>
    <linearGradient
       inkscape:collect="always"
       xlink:href="#StandardGradient"
       id="linearGradient5012"
       gradientUnits="userSpaceOnUse"
       gradientTransform="matrix(0.9247229,0,0,1.0872097,-6.0600562,-2.0023583)"
       x1="11.998966"
       y1="2.7615263"
       x2="11.998966"
       y2="15.638639" />
    <linearGradient
       inkscape:collect="always"
       xlink:href="#StandardGradient"
       id="linearGradient5016"
       gradientUnits="userSpaceOnUse"
       gradientTransform="matrix(0.9247229,0,0,1.0872097,-6.0600562,-2.0023583)"
       x1="11.998966"
       y1="2.7615263"
       x2="11.998966"
       y2="15.638639" />
    <linearGradient
       inkscape:collect="always"
       xlink:href="#StandardGradient"
       id="linearGradient3176"
       gradientUnits="userSpaceOnUse"
       gradientTransform="matrix(0.9247229,0,0,1.0872097,-6.0600562,-2.0023583)"
       x1="11.998966"
       y1="2.7615263"
       x2="11.998966"
       y2="15.638639" />
    <linearGradient
       inkscape:collect="always"
       xlink:href="#StandardGradient"
       id="linearGradient3180"
       gradientUnits="userSpaceOnUse"
       gradientTransform="matrix(0.9247229,0,0,1.0872097,-6.0600562,-2.0023583)"
       x1="11.998966"
       y1="2.7615263"
       x2="11.998966"
       y2="15.638639" />
    <linearGradient
       inkscape:collect="always"
       xlink:href="#StandardGradient"
       id="linearGradient3789"
       gradientUnits="userSpaceOnUse"
       gradientTransform="matrix(0.9247229,0,0,1.0872097,-6.0600562,-2.0023583)"
       x1="11.998966"
       y1="2.7615263"
       x2="11.998966"
       y2="15.638639" />
    <linearGradient
       inkscape:collect="always"
       xlink:href="#StandardGradient"
       id="linearGradient3793"
       gradientUnits="userSpaceOnUse"
       gradientTransform="matrix(0.9247229,0,0,1.0872097,-6.0600562,-2.0023583)"
       x1="11.998966"
       y1="2.7615263"
       x2="11.998966"
       y2="15.638639" />
    <linearGradient
       inkscape:collect="always"
       xlink:href="#StandardGradient"
       id="linearGradient3795"
       gradientUnits="userSpaceOnUse"
       gradientTransform="matrix(0.9247229,0,0,1.0872097,-6.0600562,-2.0023583)"
       x1="11.998966"
       y1="2.7615263"
       x2="11.998966"
       y2="15.638639" />
    <radialGradient
       inkscape:collect="always"
       xlink:href="#StandardGradient"
       id="radialGradient3798"
       cx="9"
       cy="9.875"
       fx="9"
       fy="9.875"
       r="7"
       gradientUnits="userSpaceOnUse"
       gradientTransform="matrix(2.1428571,5.7142857e-8,-3.047619e-8,1.1428571,-10.285714,-1.2857148)" />
    <radialGradient
       inkscape:collect="always"
       xlink:href="#StandardGradient"
       id="radialGradient3821"
       cx="9"
       cy="9.4285717"
       fx="9"
       fy="9.4285717"
       r="5"
       gradientTransform="matrix(2.2,-3.6613427e-8,2.6627949e-8,1.6000001,-10.8,-5.0857148)"
       gradientUnits="userSpaceOnUse" />
    <radialGradient
       inkscape:collect="always"
       xlink:href="#StandardGradient"
       id="radialGradient3829"
       gradientUnits="userSpaceOnUse"
       gradientTransform="matrix(2.2,-3.6613427e-8,2.6627949e-8,1.6000001,-30.8,-5.0857148)"
       cx="9"
       cy="9.4285717"
       fx="9"
       fy="9.4285717"
       r="5" />
    <radialGradient
       inkscape:collect="always"
       xlink:href="#StandardGradient"
       id="radialGradient3836"
       gradientUnits="userSpaceOnUse"
       gradientTransform="matrix(2.2,-3.6613427e-8,2.6627949e-8,1.6000001,-10.8,-5.0857148)"
       cx="9"
       cy="9.4285717"
       fx="9"
       fy="9.4285717"
       r="5" />
    <radialGradient
       inkscape:collect="always"
       xlink:href="#StandardGradient"
       id="radialGradient3840"
       gradientUnits="userSpaceOnUse"
       gradientTransform="matrix(2.2,-3.6613427e-8,2.6627949e-8,1.6000001,-10.8,-5.0857148)"
       cx="9"
       cy="9.4285717"
       fx="9"
       fy="9.4285717"
       r="5" />
    <radialGradient
       inkscape:collect="always"
       xlink:href="#StandardGradient"
       id="radialGradient3842"
       gradientUnits="userSpaceOnUse"
       gradientTransform="matrix(2.2,-3.6613427e-8,2.6627949e-8,1.6000001,-10.8,-5.0857148)"
       cx="9"
       cy="9.4285717"
       fx="9"
       fy="9.4285717"
       r="5" />
    <radialGradient
       inkscape:collect="always"
       xlink:href="#StandardGradient"
       id="radialGradient3849"
       gradientUnits="userSpaceOnUse"
       gradientTransform="matrix(2.2,-3.6613427e-8,2.6627949e-8,1.6000001,-10.8,-4.0857148)"
       cx="9"
       cy="9.4285717"
       fx="9"
       fy="9.4285717"
       r="5" />
    <radialGradient
       inkscape:collect="always"
       xlink:href="#StandardGradient"
       id="radialGradient3851"
       gradientUnits="userSpaceOnUse"
       gradientTransform="matrix(2.2,-3.6613427e-8,2.6627949e-8,1.6000001,-10.8,-5.0857148)"
       cx="9"
       cy="9.4285717"
       fx="9"
       fy="9.4285717"
       r="5" />
    <radialGradient
       inkscape:collect="always"
       xlink:href="#StandardGradient"
       id="radialGradient3856"
       gradientUnits="userSpaceOnUse"
       gradientTransform="matrix(2.2,-3.6613427e-8,2.6627949e-8,1.6000001,-10.8,-4.0857148)"
       cx="9"
       cy="9.4285717"
       fx="9"
       fy="9.4285717"
       r="5" />
    <radialGradient
       inkscape:collect="always"
       xlink:href="#StandardGradient"
       id="radialGradient3860"
       gradientUnits="userSpaceOnUse"
       gradientTransform="matrix(2.2,-3.6613427e-8,2.6627949e-8,1.6000001,-10.8,-5.0857148)"
       cx="9"
       cy="9.4285717"
       fx="9"
       fy="9.4285717"
       r="5" />
    <radialGradient
       inkscape:collect="always"
       xlink:href="#StandardGradient"
       id="radialGradient3867"
       gradientUnits="userSpaceOnUse"
       gradientTransform="matrix(2.2,-3.6613427e-8,2.6627949e-8,1.6000001,-10.8,-5.0857148)"
       cx="9"
       cy="9.4285717"
       fx="9"
       fy="9.4285717"
       r="5" />
    <radialGradient
       inkscape:collect="always"
       xlink:href="#StandardGradient"
       id="radialGradient3871"
       gradientUnits="userSpaceOnUse"
       gradientTransform="matrix(2.2,-3.6613427e-8,2.6627949e-8,1.6000001,-10.8,-5.0857148)"
       cx="9"
       cy="9.4285717"
       fx="9"
       fy="9.4285717"
       r="5" />
    <radialGradient
       inkscape:collect="always"
       xlink:href="#StandardGradient"
       id="radialGradient3861"
       cx="9"
       cy="10.8"
       fx="9"
       fy="10.8"
       r="7"
       gradientTransform="matrix(1.5714286,0,0,0.85714287,-5.1428571,0.74285689)"
       gradientUnits="userSpaceOnUse" />
    <radialGradient
       inkscape:collect="always"
       xlink:href="#StandardGradient"
       id="radialGradient3868"
       gradientUnits="userSpaceOnUse"
       gradientTransform="matrix(1.5714286,0,0,0.85714287,-5.1428571,0.74285689)"
       cx="9"
       cy="10.8"
       fx="9"
       fy="10.8"
       r="7" />
    <radialGradient
       inkscape:collect="always"
       xlink:href="#StandardGradient"
       id="radialGradient3872"
       gradientUnits="userSpaceOnUse"
       gradientTransform="matrix(1.5714286,0,0,0.85714287,-5.1428571,0.74285689)"
       cx="9"
       cy="10.8"
       fx="9"
       fy="10.8"
       r="7" />
    <radialGradient
       inkscape:collect="always"
       xlink:href="#StandardGradient"
       id="radialGradient3874"
       gradientUnits="userSpaceOnUse"
       gradientTransform="matrix(1.5714286,0,0,0.85714287,-5.1428571,0.74285689)"
       cx="9"
       cy="10.8"
       fx="9"
       fy="10.8"
       r="7" />
    <radialGradient
       inkscape:collect="always"
       xlink:href="#StandardGradient"
       id="radialGradient3881"
       gradientUnits="userSpaceOnUse"
       gradientTransform="matrix(1.5714286,0,0,0.85714287,-5.1428571,1.7428569)"
       cx="9"
       cy="10.8"
       fx="9"
       fy="10.8"
       r="7" />
    <radialGradient
       inkscape:collect="always"
       xlink:href="#StandardGradient"
       id="radialGradient3883"
       gradientUnits="userSpaceOnUse"
       gradientTransform="matrix(1.5714286,0,0,0.85714287,-5.1428571,0.74285689)"
       cx="9"
       cy="10.8"
       fx="9"
       fy="10.8"
       r="7" />
    <radialGradient
       inkscape:collect="always"
       xlink:href="#StandardGradient"
       id="radialGradient3888"
       gradientUnits="userSpaceOnUse"
       gradientTransform="matrix(1.5714286,0,0,0.85714287,-5.1428571,1.7428569)"
       cx="9"
       cy="10.8"
       fx="9"
       fy="10.8"
       r="7" />
    <radialGradient
       inkscape:collect="always"
       xlink:href="#StandardGradient"
       id="radialGradient3892"
       gradientUnits="userSpaceOnUse"
       gradientTransform="matrix(1.5714286,0,0,0.85714287,-5.1428571,0.7428569)"
       cx="9"
       cy="10.8"
       fx="9"
       fy="10.8"
       r="7" />
    <radialGradient
       inkscape:collect="always"
       xlink:href="#StandardGradient"
       id="radialGradient3899"
       gradientUnits="userSpaceOnUse"
       gradientTransform="matrix(1.5714286,0,0,0.85714287,-5.1428571,0.74285689)"
       cx="9"
       cy="10.8"
       fx="9"
       fy="10.8"
       r="7" />
    <radialGradient
       inkscape:collect="always"
       xlink:href="#StandardGradient"
       id="radialGradient3903"
       gradientUnits="userSpaceOnUse"
       gradientTransform="matrix(1.5714286,0,0,0.85714287,-5.1428571,0.74285689)"
       cx="9"
       cy="10.8"
       fx="9"
       fy="10.8"
       r="7" />
    <radialGradient
       inkscape:collect="always"
       xlink:href="#StandardGradient"
       id="radialGradient3906"
       gradientUnits="userSpaceOnUse"
       gradientTransform="matrix(1.5713303,-0.01757396,0.01121733,1.0029681,14.73688,-0.67389015)"
       cx="9"
       cy="10.8"
       fx="9"
       fy="10.8"
       r="7" />
    <radialGradient
       inkscape:collect="always"
       xlink:href="#StandardGradient"
       id="radialGradient3916"
       cx="9"
       cy="10.8"
       fx="9"
       fy="10.8"
       r="7"
       gradientTransform="matrix(1.5714036,0.00886026,-0.00560865,0.99471888,-5.0820591,-0.82270632)"
       gradientUnits="userSpaceOnUse" />
    <radialGradient
       inkscape:collect="always"
       xlink:href="#StandardGradient"
       id="radialGradient3922"
       gradientUnits="userSpaceOnUse"
       gradientTransform="matrix(1.5714036,0.00886026,-0.00560865,0.99471888,-5.0820591,-0.82270632)"
       cx="9"
       cy="10.8"
       fx="9"
       fy="10.8"
       r="7" />
    <radialGradient
       inkscape:collect="always"
       xlink:href="#StandardGradient"
       id="radialGradient3926"
       gradientUnits="userSpaceOnUse"
       gradientTransform="matrix(1.5714036,0.00886026,-0.00560865,0.99471888,-5.0820591,-0.82270632)"
       cx="9"
       cy="10.8"
       fx="9"
       fy="10.8"
       r="7" />
    <radialGradient
       inkscape:collect="always"
       xlink:href="#StandardGradient"
       id="radialGradient3928"
       gradientUnits="userSpaceOnUse"
       gradientTransform="matrix(1.5714036,0.00886026,-0.00560865,0.99471888,-5.0820591,-0.82270632)"
       cx="9"
       cy="10.8"
       fx="9"
       fy="10.8"
       r="7" />
    <radialGradient
       inkscape:collect="always"
       xlink:href="#StandardGradient"
       id="radialGradient3935"
       gradientUnits="userSpaceOnUse"
       gradientTransform="matrix(1.5714036,0.00886026,-0.00560865,0.99471888,-5.0820591,0.17729368)"
       cx="9"
       cy="10.8"
       fx="9"
       fy="10.8"
       r="7" />
    <radialGradient
       inkscape:collect="always"
       xlink:href="#StandardGradient"
       id="radialGradient3937"
       gradientUnits="userSpaceOnUse"
       gradientTransform="matrix(1.5714036,0.00886026,-0.00560865,0.99471888,-5.0820591,-0.82270632)"
       cx="9"
       cy="10.8"
       fx="9"
       fy="10.8"
       r="7" />
    <radialGradient
       inkscape:collect="always"
       xlink:href="#StandardGradient"
       id="radialGradient3942"
       gradientUnits="userSpaceOnUse"
       gradientTransform="matrix(1.5714036,0.00886026,-0.00560865,0.99471888,-5.0820591,0.17729368)"
       cx="9"
       cy="10.8"
       fx="9"
       fy="10.8"
       r="7" />
    <radialGradient
       inkscape:collect="always"
       xlink:href="#StandardGradient"
       id="radialGradient3946"
       gradientUnits="userSpaceOnUse"
       gradientTransform="matrix(1.5714036,0.00886026,-0.00560865,0.99471888,-5.0820591,-0.82270632)"
       cx="9"
       cy="10.8"
       fx="9"
       fy="10.8"
       r="7" />
    <radialGradient
       inkscape:collect="always"
       xlink:href="#StandardGradient"
       id="radialGradient3953"
       gradientUnits="userSpaceOnUse"
       gradientTransform="matrix(1.5714036,0.00886026,-0.00560865,0.99471888,-5.0820591,-0.82270632)"
       cx="9"
       cy="10.8"
       fx="9"
       fy="10.8"
       r="7" />
    <radialGradient
       inkscape:collect="always"
       xlink:href="#StandardGradient"
       id="radialGradient3957"
       gradientUnits="userSpaceOnUse"
       gradientTransform="matrix(1.5714036,0.00886026,-0.00560865,0.99471888,-5.0820591,-0.82270632)"
       cx="9"
       cy="10.8"
       fx="9"
       fy="10.8"
       r="7" />
    <radialGradient
       inkscape:collect="always"
       xlink:href="#StandardGradient"
       id="radialGradient3107"
       gradientUnits="userSpaceOnUse"
       gradientTransform="matrix(1.5714036,0.00886026,-0.00560865,0.99471888,-5.0820591,-0.82270632)"
       cx="9"
       cy="10.8"
       fx="9"
       fy="10.8"
       r="7" />
    <radialGradient
       inkscape:collect="always"
       xlink:href="#StandardGradient"
       id="radialGradient3111"
       gradientUnits="userSpaceOnUse"
       gradientTransform="matrix(1.5714036,0.00886026,-0.00560865,0.99471888,-5.0820591,-0.82270632)"
       cx="9"
       cy="10.8"
       fx="9"
       fy="10.8"
       r="7" />
    <radialGradient
       inkscape:collect="always"
       xlink:href="#StandardGradient"
       id="radialGradient3113"
       gradientUnits="userSpaceOnUse"
       gradientTransform="matrix(1.5714036,0.00886026,-0.00560865,0.99471888,-5.0820591,-0.82270632)"
       cx="9"
       cy="10.8"
       fx="9"
       fy="10.8"
       r="7" />
    <radialGradient
       inkscape:collect="always"
       xlink:href="#StandardGradient"
       id="radialGradient3889"
       gradientUnits="userSpaceOnUse"
       gradientTransform="matrix(1.5714036,0.00886026,-0.00560865,0.99471888,-5.0820591,0.17729368)"
       cx="9"
       cy="10.8"
       fx="9"
       fy="10.8"
       r="7" />
    <radialGradient
       inkscape:collect="always"
       xlink:href="#StandardGradient"
       id="radialGradient3891"
       gradientUnits="userSpaceOnUse"
       gradientTransform="matrix(1.5714036,0.00886026,-0.00560865,0.99471888,-5.0820591,-0.82270632)"
       cx="9"
       cy="10.8"
       fx="9"
       fy="10.8"
       r="7" />
    <radialGradient
       inkscape:collect="always"
       xlink:href="#StandardGradient"
       id="radialGradient3896"
       gradientUnits="userSpaceOnUse"
       gradientTransform="matrix(1.5714036,0.00886026,-0.00560865,0.99471888,-5.0820591,0.17729368)"
       cx="9"
       cy="10.8"
       fx="9"
       fy="10.8"
       r="7" />
    <radialGradient
       inkscape:collect="always"
       xlink:href="#StandardGradient"
       id="radialGradient3900"
       gradientUnits="userSpaceOnUse"
       gradientTransform="matrix(1.5714036,0.00886026,-0.00560865,0.99471888,-5.0820591,-0.82270632)"
       cx="9"
       cy="10.8"
       fx="9"
       fy="10.8"
       r="7" />
    <radialGradient
       inkscape:collect="always"
       xlink:href="#StandardGradient"
       id="radialGradient3910"
       gradientUnits="userSpaceOnUse"
       gradientTransform="matrix(1.5714036,0.00886026,-0.00560865,0.99471888,-5.0820591,-0.82270632)"
       cx="9"
       cy="10.8"
       fx="9"
       fy="10.8"
       r="7" />
  </defs>
  <metadata
     id="metadata7">
    <rdf:RDF>
      <cc:Work
         rdf:about="">
        <dc:format>image/svg+xml</dc:format>
        <dc:type
           rdf:resource="http://purl.org/dc/dcmitype/StillImage" />
        <dc:title />
      </cc:Work>
    </rdf:RDF>
  </metadata>
  <g
     style="display:inline"
     inkscape:label="Calque 1"
     id="layer1"
     inkscape:groupmode="layer">
    <path
       style="opacity:0.05;color:#000000;fill:#ffffff;fill-opacity:1;fill-rule:nonzero;stroke:none;stroke-width:2;marker:none;visibility:visible;display:inline;overflow:visible;enable-background:accumulate"
       d="M 2 2.03125 C 0.93331323 2.03125 0.03125 2.9333132 0.03125 4 L 0.03125 12 C 0.03125 13.066687 0.93331323 13.96875 2 13.96875 L 14 13.96875 C 15.066687 13.96875 15.96875 13.066687 15.96875 12 L 15.96875 4 C 15.96875 2.9333132 15.066687 2.03125 14 2.03125 L 2 2.03125 z M 2 3 L 14 3 C 14.554 3 15 3.446 15 4 L 15 12 C 15 12.554 14.554 13 14 13 L 2 13 C 1.446 13 1 12.554 1 12 L 1 4 C 1 3.446 1.446 3 2 3 z M 2 4 L 2 6 L 4 6 L 4 4 L 2 4 z M 5 4 L 5 6 L 7 6 L 7 4 L 5 4 z M 8 4 L 8 6 L 10 6 L 10 4 L 8 4 z M 11 4 L 11 6 L 13 6 L 13 4 L 11 4 z M 2.96875 4.96875 L 3.03125 4.96875 L 3.03125 5.03125 L 2.96875 5.03125 L 2.96875 4.96875 z M 5.96875 4.96875 L 6.03125 4.96875 L 6.03125 5.03125 L 5.96875 5.03125 L 5.96875 4.96875 z M 8.96875 4.96875 L 9.03125 4.96875 L 9.03125 5.03125 L 8.96875 5.03125 L 8.96875 4.96875 z M 11.96875 4.96875 L 12.03125 4.96875 L 12.03125 5.03125 L 11.96875 5.03125 L 11.96875 4.96875 z M 3 7 L 3 9 L 5 9 L 5 7 L 3 7 z M 6 7 L 6 9 L 8 9 L 8 7 L 6 7 z M 9 7 L 9 9 L 11 9 L 11 7 L 9 7 z M 12 7 L 12 9 L 14 9 L 14 7 L 12 7 z M 3.96875 7.96875 L 4.03125 7.96875 L 4.03125 8.03125 L 3.96875 8.03125 L 3.96875 7.96875 z M 6.96875 7.96875 L 7.03125 7.96875 L 7.03125 8.03125 L 6.96875 8.03125 L 6.96875 7.96875 z M 9.96875 7.96875 L 10.03125 7.96875 L 10.03125 8.03125 L 9.96875 8.03125 L 9.96875 7.96875 z M 12.96875 7.96875 L 13.03125 7.96875 L 13.03125 8.03125 L 12.96875 8.03125 L 12.96875 7.96875 z M 2 10 L 2 12 L 4 12 L 4 10 L 2 10 z M 5 10 L 5 12 L 11 12 L 11 10 L 5 10 z M 12 10 L 12 12 L 14 12 L 14 10 L 12 10 z M 2.96875 10.96875 L 3.03125 10.96875 L 3.03125 11.03125 L 2.96875 11.03125 L 2.96875 10.96875 z M 5.96875 10.96875 L 10.03125 10.96875 L 10.03125 11.03125 L 5.96875 11.03125 L 5.96875 10.96875 z M 12.96875 10.96875 L 13.03125 10.96875 L 13.03125 11.03125 L 12.96875 11.03125 L 12.96875 10.96875 z "
       id="path3907" />
    <path
       style="color:#000000;fill:url(#radialGradient3910);fill-opacity:1;fill-rule:nonzero;stroke:none;stroke-width:2;marker:none;visibility:visible;display:inline;overflow:visible;enable-background:accumulate"
       d="M 2,3 C 1.446,3 1,3.446 1,4 l 0,8 c 0,0.554 0.446,1 1,1 l 12,0 c 0.554,0 1,-0.446 1,-1 L 15,4 C 15,3.446 14.554,3 14,3 L 2,3 z M 2,4 4,4 4,6 2,6 2,4 z M 5,4 7,4 7,6 5,6 5,4 z m 3,0 2,0 0,2 -2,0 0,-2 z m 3,0 2,0 0,2 -2,0 0,-2 z M 3,7 5,7 5,9 3,9 3,7 z M 6,7 8,7 8,9 6,9 6,7 z m 3,0 2,0 0,2 -2,0 0,-2 z m 3,0 2,0 0,2 -2,0 0,-2 z m -10,3 2,0 0,2 -2,0 0,-2 z m 3,0 6,0 0,2 -6,0 0,-2 z m 7,0 2,0 0,2 -2,0 0,-2 z"
       id="rect3836"
       inkscape:connector-curvature="0" />
    <path
       style="opacity:0.3;color:#000000;fill:#000000;fill-opacity:1;fill-rule:nonzero;stroke:none;stroke-width:2;marker:none;visibility:visible;display:inline;overflow:visible;enable-background:accumulate"
       d="M 2,3 C 1.446,3 1,3.446 1,4 l 0,8 c 0,0.554 0.446,1 1,1 l 12,0 c 0.554,0 1,-0.446 1,-1 L 15,4 C 15,3.446 14.554,3 14,3 L 2,3 z m 0,0.4375 12,0 c 0.322216,0 0.5625,0.2402843 0.5625,0.5625 l 0,8 c 0,0.322216 -0.240284,0.5625 -0.5625,0.5625 l -12,0 C 1.677784,12.5625 1.4375,12.322216 1.4375,12 l 0,-8 C 1.4375,3.6777843 1.677784,3.4375 2,3.4375 z M 1.875,3.5625 A 0.43191028,0.43191028 0 0 0 1.5625,4 l 0,2 A 0.43191028,0.43191028 0 0 0 2,6.4375 l 2,0 A 0.43191028,0.43191028 0 0 0 4.4375,6 l 0,-2 A 0.43191028,0.43191028 0 0 0 4,3.5625 l -2,0 a 0.43191028,0.43191028 0 0 0 -0.0625,0 0.43191028,0.43191028 0 0 0 -0.0625,0 z m 3,0 A 0.43191028,0.43191028 0 0 0 4.5625,4 l 0,2 A 0.43191028,0.43191028 0 0 0 5,6.4375 l 2,0 A 0.43191028,0.43191028 0 0 0 7.4375,6 l 0,-2 A 0.43191028,0.43191028 0 0 0 7,3.5625 l -2,0 a 0.43191028,0.43191028 0 0 0 -0.0625,0 0.43191028,0.43191028 0 0 0 -0.0625,0 z m 3,0 A 0.43191028,0.43191028 0 0 0 7.5625,4 l 0,2 A 0.43191028,0.43191028 0 0 0 8,6.4375 l 2,0 A 0.43191028,0.43191028 0 0 0 10.4375,6 l 0,-2 A 0.43191028,0.43191028 0 0 0 10,3.5625 l -2,0 a 0.43191028,0.43191028 0 0 0 -0.0625,0 0.43191028,0.43191028 0 0 0 -0.0625,0 z m 3,0 A 0.43191028,0.43191028 0 0 0 10.5625,4 l 0,2 A 0.43191028,0.43191028 0 0 0 11,6.4375 l 2,0 A 0.43191028,0.43191028 0 0 0 13.4375,6 l 0,-2 A 0.43191028,0.43191028 0 0 0 13,3.5625 l -2,0 a 0.43191028,0.43191028 0 0 0 -0.0625,0 0.43191028,0.43191028 0 0 0 -0.0625,0 z M 2,4 4,4 4,6 2,6 2,4 z M 5,4 7,4 7,6 5,6 5,4 z m 3,0 2,0 0,2 -2,0 0,-2 z m 3,0 2,0 0,2 -2,0 0,-2 z M 2.875,6.5625 A 0.43191028,0.43191028 0 0 0 2.5625,7 l 0,2 A 0.43191028,0.43191028 0 0 0 3,9.4375 l 2,0 A 0.43191028,0.43191028 0 0 0 5.4375,9 l 0,-2 A 0.43191028,0.43191028 0 0 0 5,6.5625 l -2,0 a 0.43191028,0.43191028 0 0 0 -0.0625,0 0.43191028,0.43191028 0 0 0 -0.0625,0 z m 3,0 A 0.43191028,0.43191028 0 0 0 5.5625,7 l 0,2 A 0.43191028,0.43191028 0 0 0 6,9.4375 l 2,0 A 0.43191028,0.43191028 0 0 0 8.4375,9 l 0,-2 A 0.43191028,0.43191028 0 0 0 8,6.5625 l -2,0 a 0.43191028,0.43191028 0 0 0 -0.0625,0 0.43191028,0.43191028 0 0 0 -0.0625,0 z m 3,0 A 0.43191028,0.43191028 0 0 0 8.5625,7 l 0,2 A 0.43191028,0.43191028 0 0 0 9,9.4375 l 2,0 A 0.43191028,0.43191028 0 0 0 11.4375,9 l 0,-2 A 0.43191028,0.43191028 0 0 0 11,6.5625 l -2,0 a 0.43191028,0.43191028 0 0 0 -0.0625,0 0.43191028,0.43191028 0 0 0 -0.0625,0 z m 3,0 A 0.43191028,0.43191028 0 0 0 11.5625,7 l 0,2 A 0.43191028,0.43191028 0 0 0 12,9.4375 l 2,0 A 0.43191028,0.43191028 0 0 0 14.4375,9 l 0,-2 A 0.43191028,0.43191028 0 0 0 14,6.5625 l -2,0 a 0.43191028,0.43191028 0 0 0 -0.0625,0 0.43191028,0.43191028 0 0 0 -0.0625,0 z M 3,7 5,7 5,9 3,9 3,7 z M 6,7 8,7 8,9 6,9 6,7 z m 3,0 2,0 0,2 -2,0 0,-2 z m 3,0 2,0 0,2 -2,0 0,-2 z M 1.875,9.5625 A 0.43191028,0.43191028 0 0 0 1.5625,10 l 0,2 A 0.43191028,0.43191028 0 0 0 2,12.4375 l 2,0 A 0.43191028,0.43191028 0 0 0 4.4375,12 l 0,-2 A 0.43191028,0.43191028 0 0 0 4,9.5625 l -2,0 a 0.43191028,0.43191028 0 0 0 -0.0625,0 0.43191028,0.43191028 0 0 0 -0.0625,0 z m 3,0 A 0.43191028,0.43191028 0 0 0 4.5625,10 l 0,2 A 0.43191028,0.43191028 0 0 0 5,12.4375 l 6,0 A 0.43191028,0.43191028 0 0 0 11.4375,12 l 0,-2 A 0.43191028,0.43191028 0 0 0 11,9.5625 l -6,0 a 0.43191028,0.43191028 0 0 0 -0.0625,0 0.43191028,0.43191028 0 0 0 -0.0625,0 z m 7,0 A 0.43191028,0.43191028 0 0 0 11.5625,10 l 0,2 A 0.43191028,0.43191028 0 0 0 12,12.4375 l 2,0 A 0.43191028,0.43191028 0 0 0 14.4375,12 l 0,-2 A 0.43191028,0.43191028 0 0 0 14,9.5625 l -2,0 a 0.43191028,0.43191028 0 0 0 -0.0625,0 0.43191028,0.43191028 0 0 0 -0.0625,0 z M 2,10 l 2,0 0,2 -2,0 0,-2 z m 3,0 6,0 0,2 -6,0 0,-2 z m 7,0 2,0 0,2 -2,0 0,-2 z"
       id="path3103"
       inkscape:connector-curvature="0" />
    <path
       style="color:#000000;fill:#000000;fill-opacity:1;fill-rule:nonzero;stroke:none;stroke-width:2;marker:none;visibility:visible;display:inline;overflow:visible;enable-background:accumulate;opacity:0.3"
       d="M 2 3 C 1.446 3 1 3.446 1 4 L 1 5 C 1 4.446 1.446 4 2 4 L 4 4 L 5 4 L 7 4 L 8 4 L 10 4 L 11 4 L 13 4 L 14 4 C 14.554 4 15 4.446 15 5 L 15 4 C 15 3.446 14.554 3 14 3 L 2 3 z M 2 6 L 2 7 L 3 7 L 4 7 L 4 6 L 2 6 z M 5 6 L 5 7 L 6 7 L 7 7 L 7 6 L 5 6 z M 8 6 L 8 7 L 9 7 L 10 7 L 10 6 L 8 6 z M 11 6 L 11 7 L 12 7 L 13 7 L 13 6 L 11 6 z M 3 9 L 3 10 L 4 10 L 5 10 L 5 9 L 3 9 z M 6 9 L 6 10 L 8 10 L 8 9 L 6 9 z M 9 9 L 9 10 L 11 10 L 11 9 L 9 9 z M 12 9 L 12 10 L 14 10 L 14 9 L 12 9 z M 2 12 L 2 13 L 4 13 L 4 12 L 2 12 z M 5 12 L 5 13 L 11 13 L 11 12 L 5 12 z M 12 12 L 12 13 L 14 13 L 14 12 L 12 12 z "
       id="path3884" />
    <path
       style="opacity:0.2;color:#000000;fill:#ffffff;fill-opacity:1;fill-rule:nonzero;stroke:none;stroke-width:2;marker:none;visibility:visible;display:inline;overflow:visible;enable-background:accumulate"
       d="M 2,4 2,5 4,5 4,4 2,4 z M 5,4 5,5 7,5 7,4 5,4 z m 3,0 0,1 2,0 0,-1 -2,0 z m 3,0 0,1 2,0 0,-1 -2,0 z M 3,7 3,8 5,8 5,7 4,7 3,7 z M 6,7 6,8 8,8 8,7 7,7 6,7 z m 3,0 0,1 2,0 0,-1 -1,0 -1,0 z m 3,0 0,1 2,0 0,-1 -1,0 -1,0 z m -10,3 0,1 2,0 0,-1 -1,0 -1,0 z m 3,0 0,1 6,0 0,-1 -2,0 -1,0 -2,0 -1,0 z m 7,0 0,1 2,0 0,-1 -2,0 z m -11,2 0,1 c 0,0.554 0.446,1 1,1 l 12,0 c 0.554,0 1,-0.446 1,-1 l 0,-1 c 0,0.554 -0.446,1 -1,1 l -2,0 -1,0 -6,0 -1,0 -2,0 C 1.446,13 1,12.554 1,12 z"
       id="path3894"
       inkscape:connector-curvature="0" />
  </g>
</svg>
