<?xml version="1.0" encoding="UTF-8" standalone="no"?>
<!-- Created with Inkscape (http://www.inkscape.org/) -->

<svg
   xmlns:dc="http://purl.org/dc/elements/1.1/"
   xmlns:cc="http://creativecommons.org/ns#"
   xmlns:rdf="http://www.w3.org/1999/02/22-rdf-syntax-ns#"
   xmlns:svg="http://www.w3.org/2000/svg"
   xmlns="http://www.w3.org/2000/svg"
   xmlns:xlink="http://www.w3.org/1999/xlink"
   xmlns:sodipodi="http://sodipodi.sourceforge.net/DTD/sodipodi-0.dtd"
   xmlns:inkscape="http://www.inkscape.org/namespaces/inkscape"
   width="16"
   height="16"
   id="svg2"
   sodipodi:version="0.32"
   inkscape:version="0.48.1 r9760"
   version="1.0"
   sodipodi:docname="network-offline.svg"
   inkscape:output_extension="org.inkscape.output.svg.inkscape"
   style="display:inline"
   inkscape:export-filename="/home/matthieu/Eye-Candy/Faience/0.1/sources/status/small/audio-volume-high.png"
   inkscape:export-xdpi="90"
   inkscape:export-ydpi="90">
  <defs
     id="defs4">
    <linearGradient
       id="StandardGradient"
       gradientTransform="scale(0.9219544,1.0846523)"
       x1="11.998966"
       y1="0.92195445"
       x2="11.998966"
       y2="19.387045"
       gradientUnits="userSpaceOnUse">
      <stop
         style="stop-color:#000000;stop-opacity:0.23529412;"
         offset="0"
         id="stop3283-1" />
      <stop
         id="stop3850"
         offset="0.69999999"
         style="stop-color:#000000;stop-opacity:0.39215686;" />
      <stop
         style="stop-color:#000000;stop-opacity:0.55;"
         offset="1"
         id="stop2651" />
    </linearGradient>
    <radialGradient
       inkscape:collect="always"
       xlink:href="#StandardGradient"
       id="radialGradient3813"
       cx="26"
       cy="2"
       fx="26"
       fy="2"
       r="2"
       gradientUnits="userSpaceOnUse" />
    <radialGradient
       inkscape:collect="always"
       xlink:href="#SpecificGradient"
       id="radialGradient3817"
       gradientUnits="userSpaceOnUse"
       cx="26"
       cy="2"
       fx="26"
       fy="2"
       r="2"
       gradientTransform="translate(0,12)" />
    <linearGradient
       id="SpecificGradient"
       x1="10.406627"
       y1="2"
       x2="10.406627"
       y2="18.000771"
       gradientUnits="userSpaceOnUse">
      <stop
         style="stop-color:#e64b36;stop-opacity:1;"
         offset="0"
         id="stop3292" />
      <stop
         style="stop-color:#a31414;stop-opacity:1;"
         offset="1"
         id="stop3294" />
    </linearGradient>
    <linearGradient
       id="StandardGradient-1"
       gradientTransform="scale(1.1467263,0.8720476)"
       x1="7.1904788"
       y1="6.9551144"
       x2="7.1904788"
       y2="18.319494"
       gradientUnits="userSpaceOnUse">
      <stop
         style="stop-color:#000000;stop-opacity:0.86274511;"
         offset="0"
         id="stop3280" />
      <stop
         style="stop-color:#000000;stop-opacity:0.47058824;"
         offset="1"
         id="stop3282" />
    </linearGradient>
    <radialGradient
       inkscape:collect="always"
       xlink:href="#StandardGradient"
       id="radialGradient3804"
       gradientUnits="userSpaceOnUse"
       gradientTransform="matrix(1.3774426,2.764074e-8,-2.2615151e-8,1.1269985,-3.3969833,-1.2679776)"
       cx="9"
       cy="9.9982185"
       fx="9"
       fy="9.9982185"
       r="7.9858136" />
    <radialGradient
       inkscape:collect="always"
       xlink:href="#StandardGradient"
       id="radialGradient3808"
       gradientUnits="userSpaceOnUse"
       gradientTransform="matrix(1.3774426,2.764074e-8,-2.2615151e-8,1.1269985,-3.3969833,-7.2679776)"
       cx="9"
       cy="9.9982185"
       fx="9"
       fy="9.9982185"
       r="7.9858136" />
  </defs>
  <sodipodi:namedview
     id="base"
     pagecolor="#818181"
     bordercolor="#ffcfcf"
     borderopacity="1"
     inkscape:pageopacity="1"
     inkscape:pageshadow="2"
     inkscape:zoom="22.640002"
     inkscape:cx="-20.937274"
     inkscape:cy="4.400123"
     inkscape:document-units="px"
     inkscape:current-layer="layer1"
     showgrid="true"
     inkscape:showpageshadow="false"
     showguides="true"
     inkscape:guide-bbox="true"
     inkscape:window-width="1920"
     inkscape:window-height="1030"
     inkscape:window-x="0"
     inkscape:window-y="25"
     inkscape:window-maximized="1"
     borderlayer="true"
     inkscape:snap-global="true">
    <sodipodi:guide
       orientation="0,1"
       position="26.278146,128"
       id="guide2385" />
    <sodipodi:guide
       orientation="1,0"
       position="128,54.082119"
       id="guide2387" />
    <sodipodi:guide
       orientation="0,1"
       position="60.863576,64.084768"
       id="guide2391" />
    <inkscape:grid
       type="xygrid"
       id="grid3672"
       visible="true"
       enabled="true"
       empspacing="8"
       snapvisiblegridlinesonly="true" />
    <sodipodi:guide
       orientation="1,0"
       position="9,-3"
       id="guide3013" />
    <sodipodi:guide
       orientation="0,1"
       position="17,6"
       id="guide3015" />
  </sodipodi:namedview>
  <metadata
     id="metadata7">
    <rdf:RDF>
      <cc:Work
         rdf:about="">
        <dc:format>image/svg+xml</dc:format>
        <dc:type
           rdf:resource="http://purl.org/dc/dcmitype/StillImage" />
        <dc:title></dc:title>
      </cc:Work>
    </rdf:RDF>
  </metadata>
  <g
     inkscape:label="Icon"
     inkscape:groupmode="layer"
     id="layer1"
     style="display:inline"
     transform="translate(0,-6)">
    <rect
       style="opacity:1;color:#000000;fill:url(#radialGradient3813);fill-opacity:1;fill-rule:nonzero;stroke:none;stroke-width:1;stroke-linecap:round;stroke-linejoin:round;stroke-miterlimit:4;stroke-opacity:1;stroke-dasharray:none;stroke-dashoffset:8.59999999999999787;marker:none;visibility:visible;display:inline;overflow:visible;enable-background:accumulate"
       id="rect3036"
       width="4"
       height="4"
       x="24"
       y="0"
       transform="translate(0,6)" />
    <rect
       y="12"
       x="24"
       height="4"
       width="4"
       id="rect3815"
       style="color:#000000;fill:url(#radialGradient3817);fill-opacity:1.0;fill-rule:nonzero;stroke:none;stroke-width:1;marker:none;visibility:visible;display:inline;overflow:visible;enable-background:accumulate" />
    <path
       inkscape:connector-curvature="0"
       style="opacity:0.4;color:#000000;fill:#000000;fill-opacity:1;fill-rule:nonzero;stroke:none;stroke-width:1;marker:none;visibility:visible;display:inline;overflow:visible;enable-background:accumulate"
       d="M 12.625,25 C 12.27875,25 12,25.27875 12,25.625 L 12,28 11.625,28 C 11.27875,28 11,28.27875 11,28.625 l 0,2.75 C 11,31.72125 11.27875,32 11.625,32 l 3.75,0 C 15.72125,32 16,31.72125 16,31.375 l 0,-2.75 C 16,28.27875 15.72125,28 15.375,28 L 15,28 15,25.625 C 15,25.27875 14.72125,25 14.375,25 z m 0.375,1 1,0 0,2 -1,0 z"
       id="rect3648"
       sodipodi:nodetypes="sscsssssssscsssccccc" />
    <path
       inkscape:connector-curvature="0"
       style="opacity:0.2;fill:#000000;fill-opacity:1;stroke:none;display:inline"
       d="M 4.84375,14 C 4.7353462,14.03568 4.637002,14.101246 4.5625,14.1875 l -2.375,2.375 C 2.0716445,16.676927 2.0028631,16.837417 2,17 l 0,1.875 -1.75,1.75 c -0.31441823,0.314417 -0.31441823,0.810582 0,1.125 0.31441825,0.314419 0.8105817,0.314419 1.125,0 L 3.125,20 5,20 c 0.1626987,-0.0033 0.3231288,-0.07206 0.4375,-0.1875 l 2.375,-2.375 c 0.2239116,-0.232328 0.2239116,-0.642672 0,-0.875 l -2.375,-2.375 C 5.2895711,14.029119 5.0561351,13.955403 4.84375,14 z"
       id="path3708"
       sodipodi:nodetypes="ccccccscccccccc" />
    <path
       inkscape:connector-curvature="0"
       id="path3713"
       d="m 11.159583,13.972266 c 0.108404,-0.03568 0.206748,-0.101246 0.28125,-0.1875 l 2.375,-2.375 c 0.115855,-0.114427 0.184637,-0.274917 0.1875,-0.4375 l 0,-1.875 1.75,-1.7499997 c 0.314418,-0.314417 0.314418,-0.8105819 0,-1.125 -0.314418,-0.314419 -0.810582,-0.314419 -1.125,0 l -1.75,1.75 -1.875,0 c -0.162699,0.0033 -0.323129,0.072059 -0.4375,0.1874997 l -2.375,2.375 c -0.2239116,0.232328 -0.2239116,0.642672 0,0.875 l 2.375,2.375 c 0.147929,0.15838 0.381365,0.232097 0.59375,0.1875 z"
       style="opacity:0.2;fill:#000000;fill-opacity:1;stroke:none;display:inline"
       sodipodi:nodetypes="ccccccscccccccc" />
  </g>
</svg>
