<?xml version="1.0" encoding="UTF-8" standalone="no"?>
<!-- Created with Inkscape (http://www.inkscape.org/) -->

<svg
   xmlns:dc="http://purl.org/dc/elements/1.1/"
   xmlns:cc="http://creativecommons.org/ns#"
   xmlns:rdf="http://www.w3.org/1999/02/22-rdf-syntax-ns#"
   xmlns:svg="http://www.w3.org/2000/svg"
   xmlns="http://www.w3.org/2000/svg"
   xmlns:xlink="http://www.w3.org/1999/xlink"
   xmlns:sodipodi="http://sodipodi.sourceforge.net/DTD/sodipodi-0.dtd"
   xmlns:inkscape="http://www.inkscape.org/namespaces/inkscape"
   width="16"
   height="16"
   id="svg2"
   sodipodi:version="0.32"
   inkscape:version="0.48.1 r9760"
   version="1.0"
   sodipodi:docname="nm-signal-100-secure.svg"
   inkscape:output_extension="org.inkscape.output.svg.inkscape"
   style="display:inline"
   inkscape:export-filename="/home/matthieu/Eye-Candy/Faience/0.1/sources/status/small/audio-volume-high.png"
   inkscape:export-xdpi="90"
   inkscape:export-ydpi="90">
  <defs
     id="defs4">
    <linearGradient
       id="StandardGradient"
       gradientTransform="scale(0.9219544,1.0846523)"
       x1="11.998966"
       y1="0.92195445"
       x2="11.998966"
       y2="19.387045"
       gradientUnits="userSpaceOnUse">
      <stop
         style="stop-color:#000000;stop-opacity:0.23529412;"
         offset="0"
         id="stop3283-1" />
      <stop
         id="stop3850"
         offset="0.69999999"
         style="stop-color:#000000;stop-opacity:0.39215686;" />
      <stop
         style="stop-color:#000000;stop-opacity:0.55;"
         offset="1"
         id="stop2651" />
    </linearGradient>
    <radialGradient
       inkscape:collect="always"
       xlink:href="#StandardGradient"
       id="radialGradient3813"
       cx="26"
       cy="2"
       fx="26"
       fy="2"
       r="2"
       gradientUnits="userSpaceOnUse" />
    <radialGradient
       inkscape:collect="always"
       xlink:href="#SpecificGradient"
       id="radialGradient3817"
       gradientUnits="userSpaceOnUse"
       cx="26"
       cy="2"
       fx="26"
       fy="2"
       r="2"
       gradientTransform="translate(0,12)" />
    <linearGradient
       id="SpecificGradient"
       x1="10.406627"
       y1="2"
       x2="10.406627"
       y2="18.000771"
       gradientUnits="userSpaceOnUse">
      <stop
         style="stop-color:#e64b36;stop-opacity:1;"
         offset="0"
         id="stop3292" />
      <stop
         style="stop-color:#a31414;stop-opacity:1;"
         offset="1"
         id="stop3294" />
    </linearGradient>
    <radialGradient
       r="6.9999928"
       fy="12.000011"
       fx="13"
       cy="12.000011"
       cx="13"
       gradientTransform="matrix(2.1428593,-2.531168e-8,1.1812118e-8,1.0000011,-6.857171,8.9999763)"
       gradientUnits="userSpaceOnUse"
       id="radialGradient3013"
       xlink:href="#SpecificGradient"
       inkscape:collect="always" />
    <radialGradient
       inkscape:collect="always"
       xlink:href="#StandardGradient"
       id="radialGradient3843"
       gradientUnits="userSpaceOnUse"
       gradientTransform="matrix(2.1428593,0,0,1,-17.857172,-3.000011)"
       cx="13"
       cy="12.000011"
       fx="13"
       fy="12.000011"
       r="6.9999928" />
    <radialGradient
       inkscape:collect="always"
       xlink:href="#StandardGradient"
       id="radialGradient3847"
       gradientUnits="userSpaceOnUse"
       gradientTransform="matrix(2.1428593,0,0,1,-17.857172,-3.000011)"
       cx="13"
       cy="12.000011"
       fx="13"
       fy="12.000011"
       r="6.9999928" />
    <radialGradient
       inkscape:collect="always"
       xlink:href="#StandardGradient"
       id="radialGradient3849"
       gradientUnits="userSpaceOnUse"
       gradientTransform="matrix(2.1428593,0,0,1,-17.857172,-3.000011)"
       cx="13"
       cy="12.000011"
       fx="13"
       fy="12.000011"
       r="6.9999928" />
    <radialGradient
       inkscape:collect="always"
       xlink:href="#StandardGradient"
       id="radialGradient3856"
       gradientUnits="userSpaceOnUse"
       gradientTransform="matrix(2.1428593,0,0,1,-17.857172,3.999989)"
       cx="13"
       cy="12.000011"
       fx="13"
       fy="12.000011"
       r="6.9999928" />
    <radialGradient
       inkscape:collect="always"
       xlink:href="#StandardGradient"
       id="radialGradient3858"
       gradientUnits="userSpaceOnUse"
       gradientTransform="matrix(2.1428593,0,0,1,-17.857172,-3.000011)"
       cx="13"
       cy="12.000011"
       fx="13"
       fy="12.000011"
       r="6.9999928" />
    <radialGradient
       inkscape:collect="always"
       xlink:href="#StandardGradient"
       id="radialGradient3863"
       gradientUnits="userSpaceOnUse"
       gradientTransform="matrix(2.1428593,0,0,1,-17.857172,-2.000011)"
       cx="13"
       cy="12.000011"
       fx="13"
       fy="12.000011"
       r="6.9999928" />
    <radialGradient
       inkscape:collect="always"
       xlink:href="#StandardGradient"
       id="radialGradient3867"
       gradientUnits="userSpaceOnUse"
       gradientTransform="matrix(2.1428593,0,0,1,-17.857172,2.999989)"
       cx="13"
       cy="12.000011"
       fx="13"
       fy="12.000011"
       r="6.9999928" />
    <radialGradient
       inkscape:collect="always"
       xlink:href="#StandardGradient"
       id="radialGradient3874"
       gradientUnits="userSpaceOnUse"
       gradientTransform="matrix(2.1428593,0,0,1,-17.857172,-3.000011)"
       cx="13"
       cy="12.000011"
       fx="13"
       fy="12.000011"
       r="6.9999928" />
    <radialGradient
       inkscape:collect="always"
       xlink:href="#StandardGradient"
       id="radialGradient3878"
       gradientUnits="userSpaceOnUse"
       gradientTransform="matrix(2.1428593,0,0,1,-17.857172,-3.000011)"
       cx="13"
       cy="12.000011"
       fx="13"
       fy="12.000011"
       r="6.9999928" />
    <linearGradient
       id="StandardGradient-0"
       gradientTransform="scale(0.9219544,1.0846523)"
       x1="11.998966"
       y1="0.92195445"
       x2="11.998966"
       y2="19.387045"
       gradientUnits="userSpaceOnUse">
      <stop
         style="stop-color:#000000;stop-opacity:0.23529412;"
         offset="0"
         id="stop3283-1-4" />
      <stop
         id="stop3850-8"
         offset="0.69999999"
         style="stop-color:#000000;stop-opacity:0.39215686;" />
      <stop
         style="stop-color:#000000;stop-opacity:0.55;"
         offset="1"
         id="stop2651-7" />
    </linearGradient>
    <radialGradient
       inkscape:collect="always"
       xlink:href="#StandardGradient"
       id="radialGradient3833"
       gradientUnits="userSpaceOnUse"
       gradientTransform="matrix(1,0,0,0.72727271,-3.5539312,5.779036)"
       cx="12.553931"
       cy="15.428825"
       fx="12.553931"
       fy="15.428825"
       r="11" />
  </defs>
  <sodipodi:namedview
     id="base"
     pagecolor="#818181"
     bordercolor="#ffcfcf"
     borderopacity="1"
     inkscape:pageopacity="1"
     inkscape:pageshadow="2"
     inkscape:zoom="22.640002"
     inkscape:cx="-7.3398582"
     inkscape:cy="9.9612019"
     inkscape:document-units="px"
     inkscape:current-layer="layer1"
     showgrid="true"
     inkscape:showpageshadow="false"
     showguides="true"
     inkscape:guide-bbox="true"
     inkscape:window-width="1920"
     inkscape:window-height="1030"
     inkscape:window-x="0"
     inkscape:window-y="25"
     inkscape:window-maximized="1"
     borderlayer="true"
     inkscape:snap-global="true">
    <sodipodi:guide
       orientation="0,1"
       position="26.278146,128"
       id="guide2385" />
    <sodipodi:guide
       orientation="1,0"
       position="128,54.082119"
       id="guide2387" />
    <sodipodi:guide
       orientation="0,1"
       position="60.863576,64.084768"
       id="guide2391" />
    <inkscape:grid
       type="xygrid"
       id="grid3672"
       visible="true"
       enabled="true"
       empspacing="8"
       snapvisiblegridlinesonly="true" />
    <sodipodi:guide
       orientation="1,0"
       position="9,-3"
       id="guide3013" />
    <sodipodi:guide
       orientation="0,1"
       position="17,6"
       id="guide3015" />
  </sodipodi:namedview>
  <metadata
     id="metadata7">
    <rdf:RDF>
      <cc:Work
         rdf:about="">
        <dc:format>image/svg+xml</dc:format>
        <dc:type
           rdf:resource="http://purl.org/dc/dcmitype/StillImage" />
        <dc:title></dc:title>
      </cc:Work>
    </rdf:RDF>
  </metadata>
  <g
     inkscape:label="Icon"
     inkscape:groupmode="layer"
     id="layer1"
     style="display:inline"
     transform="translate(0,-6)">
    <path
       style="color:#000000;fill:#ffffff;fill-opacity:1;fill-rule:nonzero;stroke:none;stroke-width:2;marker:none;visibility:visible;display:inline;overflow:visible;enable-background:accumulate;opacity:0.05"
       d="M 8 2.03125 C 5.0605787 2.03125 2.3782322 3.0948207 0.28125 4.875 A 0.98167704 0.98167704 0 0 0 0.125 6.21875 L 1.28125 7.71875 A 0.98167704 0.98167704 0 0 0 1.75 8.0625 A 0.98167704 0.98167704 0 0 0 1.9375 8.5 L 3.09375 9.96875 A 0.98167704 0.98167704 0 0 0 3.65625 10.34375 A 0.98167704 0.98167704 0 0 0 3.84375 10.84375 L 4.96875 12.28125 A 0.98167704 0.98167704 0 0 0 5.4375 12.625 A 0.98167704 0.98167704 0 0 0 5.625 13.125 L 7.21875 15.125 A 0.98167704 0.98167704 0 0 0 8.78125 15.125 L 10.375 13.125 A 0.98167704 0.98167704 0 0 0 10.5625 12.625 A 0.98167704 0.98167704 0 0 0 11.03125 12.28125 L 12.15625 10.84375 A 0.98167704 0.98167704 0 0 0 12.34375 10.34375 A 0.98167704 0.98167704 0 0 0 12.34375 10.3125 A 0.98167704 0.98167704 0 0 0 12.90625 9.96875 L 14.0625 8.5 A 0.98167704 0.98167704 0 0 0 14.25 8.0625 A 0.98167704 0.98167704 0 0 0 14.71875 7.71875 L 15.875 6.21875 A 0.98167704 0.98167704 0 0 0 15.71875 4.875 C 13.621768 3.0948207 10.939421 2.03125 8 2.03125 z M 8 3 C 10.700604 3 13.162578 3.985581 15.09375 5.625 L 13.9375 7.125 C 12.324417 5.75532 10.255728 4.90625 8 4.90625 C 5.7442724 4.90625 3.6755829 5.75532 2.0625 7.125 L 0.90625 5.625 C 2.837422 3.985581 5.2993958 3 8 3 z M 8 6 C 10.001097 6 11.849561 6.692305 13.28125 7.90625 L 12.125 9.375 C 11.006268 8.428798 9.5616576 7.84375 8 7.84375 C 6.4383423 7.84375 4.9937322 8.428798 3.875 9.375 L 2.71875 7.90625 C 4.1504387 6.692305 5.9989021 6 8 6 z M 8 8.96875 C 9.2881665 8.96875 10.450445 9.472225 11.375 10.25 L 10.25 11.6875 C 9.631295 11.16508 8.8632435 10.8125 8 10.8125 C 7.1367565 10.8125 6.3687052 11.16508 5.75 11.6875 L 4.625 10.25 C 5.5495551 9.472225 6.7118334 8.96875 8 8.96875 z M 8 11.9375 C 8.6073118 11.9375 9.1601196 12.130561 9.59375 12.5 L 8 14.5 L 6.40625 12.5 C 6.8398808 12.130561 7.3926888 11.9375 8 11.9375 z "
       transform="translate(0,6)"
       id="path3873" />
    <path
       style="color:#000000;fill:url(#radialGradient3833);fill-opacity:1.0;fill-rule:nonzero;stroke:none;stroke-width:2;marker:none;visibility:visible;display:inline;overflow:visible;enable-background:accumulate"
       d="M 8,9 C 5.2993958,9 2.837422,9.994659 0.90625,11.634078 L 2.0625,13.111732 C 3.6755829,11.742052 5.7442724,10.895251 8,10.895251 c 2.255728,0 4.324417,0.846801 5.9375,2.216481 l 1.15625,-1.477654 C 13.162578,9.994659 10.700604,9 8,9 z m 0,2.98743 c -2.0010979,0 -3.8495613,0.713429 -5.28125,1.927374 L 3.875,15.360335 C 4.9937322,14.414133 6.4383423,13.850559 8,13.850559 c 1.5616576,0 3.006268,0.563574 4.125,1.509776 l 1.15625,-1.445531 C 11.849561,12.700859 10.001097,11.98743 8,11.98743 z m 0,2.98743 c -1.2881666,0 -2.4504449,0.507142 -3.375,1.284917 l 1.125,1.413407 c 0.6187052,-0.52242 1.3867565,-0.867318 2.25,-0.867318 0.8632435,0 1.631295,0.344898 2.25,0.867318 l 1.125,-1.413407 C 10.450445,15.482002 9.2881665,14.97486 8,14.97486 z m 0,2.955308 c -0.6073112,0 -1.1601192,0.208773 -1.59375,0.578212 L 8,20.5 9.59375,18.50838 C 9.1601196,18.138941 8.6073118,17.930168 8,17.930168 z"
       id="path3876"
       inkscape:connector-curvature="0" />
    <rect
       style="opacity:1;color:#000000;fill:url(#radialGradient3813);fill-opacity:1;fill-rule:nonzero;stroke:none;stroke-width:1;stroke-linecap:round;stroke-linejoin:round;stroke-miterlimit:4;stroke-opacity:1;stroke-dasharray:none;stroke-dashoffset:8.59999999999999787;marker:none;visibility:visible;display:inline;overflow:visible;enable-background:accumulate"
       id="rect3036"
       width="4"
       height="4"
       x="24"
       y="0"
       transform="translate(0,6)" />
    <rect
       y="12"
       x="24"
       height="4"
       width="4"
       id="rect3815"
       style="color:#000000;fill:url(#radialGradient3817);fill-opacity:1.0;fill-rule:nonzero;stroke:none;stroke-width:1;marker:none;visibility:visible;display:inline;overflow:visible;enable-background:accumulate" />
    <path
       inkscape:connector-curvature="0"
       style="opacity:0.4;color:#000000;fill:#000000;fill-opacity:1;fill-rule:nonzero;stroke:none;stroke-width:1;marker:none;visibility:visible;display:inline;overflow:visible;enable-background:accumulate"
       d="M 12.625,15 C 12.27875,15 12,15.27875 12,15.625 L 12,18 11.625,18 C 11.27875,18 11,18.27875 11,18.625 l 0,2.75 C 11,21.72125 11.27875,22 11.625,22 l 3.75,0 C 15.72125,22 16,21.72125 16,21.375 l 0,-2.75 C 16,18.27875 15.72125,18 15.375,18 L 15,18 15,15.625 C 15,15.27875 14.72125,15 14.375,15 z m 0.375,1 1,0 0,2 -1,0 z"
       id="rect3648"
       sodipodi:nodetypes="sscsssssssscsssccccc" />
    <path
       style="color:#000000;fill:#000000;fill-opacity:1;fill-rule:nonzero;stroke:none;stroke-width:2;marker:none;visibility:visible;display:inline;overflow:visible;enable-background:accumulate;opacity:0.3"
       d="M 8 3 C 5.2993958 3 2.837422 3.985581 0.90625 5.625 L 2.0625 7.125 C 3.6755829 5.75532 5.7442724 4.90625 8 4.90625 C 10.255728 4.90625 12.324417 5.75532 13.9375 7.125 L 15.09375 5.625 C 13.162578 3.985581 10.700604 3 8 3 z M 8 3.46875 C 10.436876 3.46875 12.638357 4.308238 14.4375 5.71875 L 13.84375 6.5 C 12.213705 5.246141 10.197094 4.4375 8 4.4375 C 5.8029064 4.4375 3.7862948 5.24614 2.15625 6.5 L 1.5625 5.71875 C 3.3616426 4.308238 5.5631243 3.46875 8 3.46875 z M 8 6 C 5.9989021 6 4.1504387 6.692305 2.71875 7.90625 L 3.875 9.375 C 4.9937322 8.428798 6.4383423 7.84375 8 7.84375 C 9.5616576 7.84375 11.006268 8.428798 12.125 9.375 L 13.28125 7.90625 C 11.849561 6.692305 10.001097 6 8 6 z M 8 6.46875 C 9.740123 6.46875 11.329376 7.024515 12.625 8 L 12 8.78125 C 10.865998 7.952314 9.4983351 7.375 8 7.375 C 6.5016648 7.375 5.1340021 7.952314 4 8.78125 L 3.375 8 C 4.6706234 7.024515 6.2598762 6.46875 8 6.46875 z M 8 8.96875 C 6.7118334 8.96875 5.5495551 9.472225 4.625 10.25 L 5.75 11.6875 C 6.3687052 11.16508 7.1367565 10.8125 8 10.8125 C 8.8632435 10.8125 9.631295 11.16508 10.25 11.6875 L 11.375 10.25 C 10.450445 9.472225 9.2881665 8.96875 8 8.96875 z M 8 9.4375 C 9.001106 9.4375 9.9076163 9.796095 10.6875 10.34375 L 10.125 11.09375 C 9.5105583 10.678214 8.8092001 10.34375 8 10.34375 C 7.1907999 10.34375 6.4894418 10.678214 5.875 11.09375 L 5.3125 10.34375 C 6.0923837 9.796095 6.9988939 9.4375 8 9.4375 z M 8 11.9375 C 7.3926888 11.9375 6.8398808 12.130561 6.40625 12.5 L 8 14.5 L 9.59375 12.5 C 9.1601196 12.130561 8.6073118 11.9375 8 11.9375 z M 8 12.40625 C 8.3419416 12.40625 8.6345527 12.489273 8.90625 12.625 L 8 13.75 L 7.09375 12.625 C 7.3654475 12.489273 7.6580589 12.40625 8 12.40625 z "
       transform="translate(0,6)"
       id="path3835" />
    <path
       style="color:#000000;fill:#000000;fill-opacity:1;fill-rule:nonzero;stroke:none;stroke-width:2;marker:none;visibility:visible;display:inline;overflow:visible;enable-background:accumulate;opacity:0.3"
       d="M 8 3 C 5.2993958 3 2.837422 3.985581 0.90625 5.625 L 1.40625 6.25 C 3.2557258 4.8479316 5.5244462 4 8 4 C 10.475554 4 12.744274 4.8479316 14.59375 6.25 L 15.09375 5.625 C 13.162578 3.985581 10.700604 3 8 3 z M 8 6 C 5.9989021 6 4.1504387 6.692305 2.71875 7.90625 L 3.21875 8.53125 C 4.572032 7.5503505 6.2182532 7 8 7 C 9.781746 7 11.427968 7.5503505 12.78125 8.53125 L 13.28125 7.90625 C 11.849561 6.692305 10.001097 6 8 6 z M 8 8.96875 C 6.7118334 8.96875 5.5495551 9.472225 4.625 10.25 L 5.125 10.90625 C 5.9599475 10.336792 6.9244181 9.96875 8 9.96875 C 9.0755818 9.96875 10.040053 10.336792 10.875 10.90625 L 11.375 10.25 C 10.450445 9.472225 9.2881665 8.96875 8 8.96875 z M 8 11.9375 C 7.3926888 11.9375 6.8398808 12.130561 6.40625 12.5 L 6.9375 13.15625 C 7.2572344 13.006608 7.6226765 12.9375 8 12.9375 C 8.3773239 12.9375 8.7427657 13.006608 9.0625 13.15625 L 9.59375 12.5 C 9.1601196 12.130561 8.6073118 11.9375 8 11.9375 z "
       transform="translate(0,6)"
       id="path3849" />
    <path
       style="color:#000000;fill:#ffffff;fill-opacity:1;fill-rule:nonzero;stroke:none;stroke-width:2;marker:none;visibility:visible;display:inline;overflow:visible;enable-background:accumulate;opacity:0.2"
       d="M 8 4.90625 C 5.7442724 4.90625 3.6755829 5.75532 2.0625 7.125 L 1.40625 6.25 C 1.2381158 6.3774608 1.067181 6.4883818 0.90625 6.625 L 2.0625 8.125 C 3.6755829 6.75532 5.7442724 5.90625 8 5.90625 C 10.255728 5.90625 12.324417 6.75532 13.9375 8.125 L 15.09375 6.625 C 14.932819 6.4883818 14.761884 6.3774608 14.59375 6.25 L 13.9375 7.125 C 12.324417 5.75532 10.255728 4.90625 8 4.90625 z M 8 7.84375 C 6.4383423 7.84375 4.9937322 8.428798 3.875 9.375 L 3.21875 8.53125 C 3.0521472 8.6520087 2.8756851 8.773183 2.71875 8.90625 L 3.875 10.375 C 4.9937322 9.428798 6.4383423 8.84375 8 8.84375 C 9.5616576 8.84375 11.006268 9.428798 12.125 10.375 L 13.28125 8.90625 C 13.124315 8.773183 12.947853 8.6520087 12.78125 8.53125 L 12.125 9.375 C 11.006268 8.428798 9.5616576 7.84375 8 7.84375 z M 8 10.8125 C 7.1367565 10.8125 6.3687052 11.16508 5.75 11.6875 L 5.125 10.90625 C 4.9599758 11.018801 4.7775783 11.121645 4.625 11.25 L 5.75 12.6875 C 6.3687052 12.16508 7.1367565 11.8125 8 11.8125 C 8.8632435 11.8125 9.631295 12.16508 10.25 12.6875 L 11.375 11.25 C 11.222422 11.121645 11.040024 11.018801 10.875 10.90625 L 10.25 11.6875 C 9.631295 11.16508 8.8632435 10.8125 8 10.8125 z M 6.9375 13.15625 C 6.7426143 13.24746 6.5704652 13.360094 6.40625 13.5 L 8 15.5 L 9.59375 13.5 C 9.4295349 13.360094 9.2573857 13.24746 9.0625 13.15625 L 8 14.5 L 6.9375 13.15625 z "
       transform="translate(0,6)"
       id="path3858" />
  </g>
</svg>
