<?xml version="1.0" encoding="UTF-8" standalone="no"?>
<!-- Created with Inkscape (http://www.inkscape.org/) -->

<svg
   xmlns:dc="http://purl.org/dc/elements/1.1/"
   xmlns:cc="http://creativecommons.org/ns#"
   xmlns:rdf="http://www.w3.org/1999/02/22-rdf-syntax-ns#"
   xmlns:svg="http://www.w3.org/2000/svg"
   xmlns="http://www.w3.org/2000/svg"
   xmlns:xlink="http://www.w3.org/1999/xlink"
   xmlns:sodipodi="http://sodipodi.sourceforge.net/DTD/sodipodi-0.dtd"
   xmlns:inkscape="http://www.inkscape.org/namespaces/inkscape"
   width="16"
   height="16"
   id="svg2"
   sodipodi:version="0.32"
   inkscape:version="0.48.1 r9760"
   version="1.0"
   sodipodi:docname="system-devices-panel.svg"
   inkscape:output_extension="org.inkscape.output.svg.inkscape"
   style="display:inline"
   inkscape:export-filename="/home/matthieu/Eye-Candy/Faience/0.1/sources/status/small/audio-volume-high.png"
   inkscape:export-xdpi="90"
   inkscape:export-ydpi="90">
  <defs
     id="defs4">
    <linearGradient
       id="StandardGradient"
       gradientTransform="scale(0.9219544,1.0846523)"
       x1="11.998966"
       y1="0.92195445"
       x2="11.998966"
       y2="19.387045"
       gradientUnits="userSpaceOnUse">
      <stop
         style="stop-color:#000000;stop-opacity:0.23529412;"
         offset="0"
         id="stop3283-1" />
      <stop
         id="stop3850"
         offset="0.69999999"
         style="stop-color:#000000;stop-opacity:0.39215686;" />
      <stop
         style="stop-color:#000000;stop-opacity:0.55;"
         offset="1"
         id="stop2651" />
    </linearGradient>
    <radialGradient
       inkscape:collect="always"
       xlink:href="#StandardGradient"
       id="radialGradient3800"
       cx="12.533335"
       cy="13.000011"
       fx="12.533335"
       fy="13.000011"
       r="6.9999928"
       gradientTransform="matrix(1.57143,-6.7108167e-8,5.4906693e-8,1.2857157,-10.695259,-6.7143171)"
       gradientUnits="userSpaceOnUse" />
    <radialGradient
       inkscape:collect="always"
       xlink:href="#StandardGradient"
       id="radialGradient3813"
       cx="26"
       cy="2"
       fx="26"
       fy="2"
       r="2"
       gradientUnits="userSpaceOnUse" />
    <radialGradient
       inkscape:collect="always"
       xlink:href="#SpecificGradient"
       id="radialGradient3817"
       gradientUnits="userSpaceOnUse"
       cx="26"
       cy="2"
       fx="26"
       fy="2"
       r="2"
       gradientTransform="translate(0,12)" />
    <linearGradient
       id="SpecificGradient"
       x1="10.406627"
       y1="2"
       x2="10.406627"
       y2="18.000771"
       gradientUnits="userSpaceOnUse">
      <stop
         style="stop-color:#e64b36;stop-opacity:1;"
         offset="0"
         id="stop3292" />
      <stop
         style="stop-color:#a31414;stop-opacity:1;"
         offset="1"
         id="stop3294" />
    </linearGradient>
    <radialGradient
       r="6.9999928"
       fy="12.000011"
       fx="13"
       cy="12.000011"
       cx="13"
       gradientTransform="matrix(2.1428593,-2.531168e-8,1.1812118e-8,1.0000011,-6.857171,8.9999763)"
       gradientUnits="userSpaceOnUse"
       id="radialGradient3013"
       xlink:href="#SpecificGradient"
       inkscape:collect="always" />
    <radialGradient
       inkscape:collect="always"
       xlink:href="#StandardGradient"
       id="radialGradient3843"
       gradientUnits="userSpaceOnUse"
       gradientTransform="matrix(2.1428593,0,0,1,-17.857172,-3.000011)"
       cx="13"
       cy="12.000011"
       fx="13"
       fy="12.000011"
       r="6.9999928" />
    <radialGradient
       inkscape:collect="always"
       xlink:href="#StandardGradient"
       id="radialGradient3847"
       gradientUnits="userSpaceOnUse"
       gradientTransform="matrix(2.1428593,0,0,1,-17.857172,-3.000011)"
       cx="13"
       cy="12.000011"
       fx="13"
       fy="12.000011"
       r="6.9999928" />
    <radialGradient
       inkscape:collect="always"
       xlink:href="#StandardGradient"
       id="radialGradient3849"
       gradientUnits="userSpaceOnUse"
       gradientTransform="matrix(2.1428593,0,0,1,-17.857172,-3.000011)"
       cx="13"
       cy="12.000011"
       fx="13"
       fy="12.000011"
       r="6.9999928" />
    <radialGradient
       inkscape:collect="always"
       xlink:href="#StandardGradient"
       id="radialGradient3856"
       gradientUnits="userSpaceOnUse"
       gradientTransform="matrix(2.1428593,0,0,1,-17.857172,3.999989)"
       cx="13"
       cy="12.000011"
       fx="13"
       fy="12.000011"
       r="6.9999928" />
    <radialGradient
       inkscape:collect="always"
       xlink:href="#StandardGradient"
       id="radialGradient3858"
       gradientUnits="userSpaceOnUse"
       gradientTransform="matrix(2.1428593,0,0,1,-17.857172,-3.000011)"
       cx="13"
       cy="12.000011"
       fx="13"
       fy="12.000011"
       r="6.9999928" />
    <radialGradient
       inkscape:collect="always"
       xlink:href="#StandardGradient"
       id="radialGradient3863"
       gradientUnits="userSpaceOnUse"
       gradientTransform="matrix(2.1428593,0,0,1,-17.857172,-2.000011)"
       cx="13"
       cy="12.000011"
       fx="13"
       fy="12.000011"
       r="6.9999928" />
    <radialGradient
       inkscape:collect="always"
       xlink:href="#StandardGradient"
       id="radialGradient3867"
       gradientUnits="userSpaceOnUse"
       gradientTransform="matrix(2.1428593,0,0,1,-17.857172,2.999989)"
       cx="13"
       cy="12.000011"
       fx="13"
       fy="12.000011"
       r="6.9999928" />
    <radialGradient
       inkscape:collect="always"
       xlink:href="#StandardGradient"
       id="radialGradient3874"
       gradientUnits="userSpaceOnUse"
       gradientTransform="matrix(2.1428593,0,0,1,-17.857172,-3.000011)"
       cx="13"
       cy="12.000011"
       fx="13"
       fy="12.000011"
       r="6.9999928" />
    <radialGradient
       inkscape:collect="always"
       xlink:href="#StandardGradient"
       id="radialGradient3878"
       gradientUnits="userSpaceOnUse"
       gradientTransform="matrix(2.1428593,0,0,1,-17.857172,-3.000011)"
       cx="13"
       cy="12.000011"
       fx="13"
       fy="12.000011"
       r="6.9999928" />
  </defs>
  <sodipodi:namedview
     id="base"
     pagecolor="#818181"
     bordercolor="#ffcfcf"
     borderopacity="1"
     inkscape:pageopacity="1"
     inkscape:pageshadow="2"
     inkscape:zoom="22.640002"
     inkscape:cx="1.5892253"
     inkscape:cy="5.0184975"
     inkscape:document-units="px"
     inkscape:current-layer="layer1"
     showgrid="true"
     inkscape:showpageshadow="false"
     showguides="true"
     inkscape:guide-bbox="true"
     inkscape:window-width="1920"
     inkscape:window-height="1030"
     inkscape:window-x="0"
     inkscape:window-y="25"
     inkscape:window-maximized="1"
     borderlayer="true"
     inkscape:snap-global="true">
    <sodipodi:guide
       orientation="0,1"
       position="26.278146,128"
       id="guide2385" />
    <sodipodi:guide
       orientation="1,0"
       position="128,54.082119"
       id="guide2387" />
    <sodipodi:guide
       orientation="0,1"
       position="60.863576,64.084768"
       id="guide2391" />
    <inkscape:grid
       type="xygrid"
       id="grid3672"
       visible="true"
       enabled="true"
       empspacing="8"
       snapvisiblegridlinesonly="true" />
    <sodipodi:guide
       orientation="1,0"
       position="9,-3"
       id="guide3013" />
    <sodipodi:guide
       orientation="0,1"
       position="17,6"
       id="guide3015" />
  </sodipodi:namedview>
  <metadata
     id="metadata7">
    <rdf:RDF>
      <cc:Work
         rdf:about="">
        <dc:format>image/svg+xml</dc:format>
        <dc:type
           rdf:resource="http://purl.org/dc/dcmitype/StillImage" />
        <dc:title />
      </cc:Work>
    </rdf:RDF>
  </metadata>
  <g
     inkscape:label="Icon"
     inkscape:groupmode="layer"
     id="layer1"
     style="display:inline"
     transform="translate(0,-6)">
    <path
       style="fill:#ffffff;fill-opacity:1;fill-rule:nonzero;stroke:none;stroke-width:1;marker:none;visibility:visible;display:block;overflow:visible;enable-background:accumulate;opacity:0.05"
       d="M 7.03125 0 C 6.2199942 0 5.53125 0.68175293 5.53125 1.5 L 5.53125 1.84375 C 5.4791123 1.8643786 5.4266416 1.8842581 5.375 1.90625 L 5.15625 1.65625 C 5.1491282 1.6491283 5.1322687 1.6631873 5.125 1.65625 C 4.5657405 1.1224887 3.5739519 1.1135119 3.03125 1.65625 L 1.65625 3.03125 C 1.1135424 3.5739548 1.1224878 4.5657269 1.65625 5.125 L 1.90625 5.375 C 1.884258 5.4266416 1.8643788 5.4791122 1.84375 5.53125 L 1.5 5.53125 C 0.68175773 5.53125 0 6.2199961 0 7.03125 L 0 8.96875 C 0 9.7800049 0.68175533 10.46875 1.5 10.46875 L 1.84375 10.46875 C 1.8643788 10.520888 1.884258 10.573358 1.90625 10.625 L 1.65625 10.875 C 1.1224725 11.43427 1.1135344 12.426048 1.65625 12.96875 L 3.03125 14.34375 C 3.5739784 14.88647 4.5657317 14.877461 5.125 14.34375 L 5.15625 14.34375 L 5.375 14.09375 C 5.4266418 14.115742 5.479112 14.135621 5.53125 14.15625 L 5.53125 14.5 C 5.5312412 15.318261 6.2199854 16 7.03125 16 L 8.96875 16 C 9.7800165 16 10.46875 15.318253 10.46875 14.5 L 10.46875 14.15625 C 10.520888 14.135621 10.573358 14.115742 10.625 14.09375 L 10.875 14.34375 C 11.434248 14.8775 12.426042 14.886525 12.96875 14.34375 L 14.34375 12.96875 C 14.88646 12.426026 14.877452 11.434264 14.34375 10.875 L 14.09375 10.625 C 14.115742 10.573358 14.135621 10.520888 14.15625 10.46875 L 14.5 10.46875 C 15.318249 10.46875 16 9.7800043 16 8.96875 L 16 7.03125 C 16 6.2199936 15.318243 5.53125 14.5 5.53125 L 14.15625 5.53125 C 14.135621 5.479112 14.115742 5.4266418 14.09375 5.375 L 14.34375 5.15625 L 14.34375 5.125 C 14.579347 4.8804068 14.777811 4.5001387 14.78125 4.09375 C 14.78509 3.646221 14.582974 3.270491 14.34375 3.03125 L 12.96875 1.65625 C 12.426049 1.1135518 11.434274 1.1224821 10.875 1.65625 C 10.867731 1.6631874 10.850872 1.6491282 10.84375 1.65625 L 10.625 1.90625 C 10.573358 1.8842581 10.520888 1.8643786 10.46875 1.84375 L 10.46875 1.5 C 10.46875 0.68175569 9.7799985 0 8.96875 0 L 7.03125 0 z M 7.03125 1 L 8.96875 1 C 9.244233 1 9.46875 1.219804 9.46875 1.5 L 9.46875 2.5 C 9.961333 2.631246 10.413108 2.81204 10.84375 3.0625 L 11.5625 2.375 C 11.760626 2.176878 12.055204 2.180205 12.25 2.375 L 13.625 3.75 C 13.722391 3.847398 13.78235 3.965552 13.78125 4.09375 C 13.780165 4.221948 13.72406 4.33844 13.625 4.4375 L 12.9375 5.15625 C 13.187958 5.586893 13.368757 6.038668 13.5 6.53125 L 14.5 6.53125 C 14.780192 6.53125 15 6.755765 15 7.03125 L 15 8.96875 C 15 9.244232 14.780194 9.46875 14.5 9.46875 L 13.5 9.46875 C 13.368756 9.961333 13.187959 10.413108 12.9375 10.84375 L 13.625 11.5625 C 13.8231 11.760626 13.819794 12.055201 13.625 12.25 L 12.25 13.625 C 12.055204 13.81982 11.760625 13.823124 11.5625 13.625 L 10.84375 12.9375 C 10.413107 13.187957 9.961332 13.368757 9.46875 13.5 L 9.46875 14.5 C 9.46875 14.780189 9.244232 15 8.96875 15 L 7.03125 15 C 6.755766 15 6.531247 14.780189 6.53125 14.5 L 6.53125 13.5 C 6.038666 13.368757 5.586891 13.187957 5.15625 12.9375 L 4.4375 13.625 C 4.239376 13.8231 3.944797 13.819794 3.75 13.625 L 2.375 12.25 C 2.180199 12.055204 2.176875 11.760624 2.375 11.5625 L 3.0625 10.84375 C 2.812043 10.413108 2.631244 9.961333 2.5 9.46875 L 1.5 9.46875 C 1.219807 9.46875 1 9.244234 1 8.96875 L 1 7.03125 C 1 6.755765 1.219807 6.53125 1.5 6.53125 L 2.5 6.53125 C 2.631244 6.038668 2.812043 5.586893 3.0625 5.15625 L 2.375 4.4375 C 2.17688 4.239374 2.180204 3.944795 2.375 3.75 L 3.75 2.375 C 3.944796 2.180191 4.239374 2.176875 4.4375 2.375 L 5.15625 3.0625 C 5.586891 2.812043 6.038666 2.631247 6.53125 2.5 L 6.53125 1.5 C 6.53125 1.219807 6.755767 1 7.03125 1 z M 8 5 C 6.3431458 5 5 6.3431458 5 8 C 5 9.6568542 6.3431458 11 8 11 C 9.6568542 11 11 9.6568542 11 8 C 11 6.3431458 9.6568542 5 8 5 z M 8 6 C 9.112511 6 10 6.887489 10 8 C 10 9.112511 9.112511 10 8 10 C 6.887489 10 6 9.112511 6 8 C 6 6.887489 6.887489 6 8 6 z "
       transform="translate(0,6)"
       id="path3876" />
    <path
       style="fill:url(#radialGradient3800);fill-opacity:1;fill-rule:nonzero;stroke:none;stroke-width:1;marker:none;visibility:visible;display:block;overflow:visible;enable-background:accumulate"
       d="M 7.03125 1 C 6.755767 1 6.53125 1.219807 6.53125 1.5 L 6.53125 2.5 C 6.038666 2.631247 5.586891 2.812043 5.15625 3.0625 L 4.4375 2.375 C 4.239374 2.176875 3.944796 2.180191 3.75 2.375 L 2.375 3.75 C 2.180204 3.944795 2.17688 4.239374 2.375 4.4375 L 3.0625 5.15625 C 2.812043 5.586893 2.631244 6.038668 2.5 6.53125 L 1.5 6.53125 C 1.219807 6.53125 1 6.755765 1 7.03125 L 1 8.96875 C 1 9.244234 1.219807 9.46875 1.5 9.46875 L 2.5 9.46875 C 2.631244 9.961333 2.812043 10.413108 3.0625 10.84375 L 2.375 11.5625 C 2.176875 11.760624 2.180199 12.055204 2.375 12.25 L 3.75 13.625 C 3.944797 13.819794 4.239376 13.8231 4.4375 13.625 L 5.15625 12.9375 C 5.586891 13.187957 6.038666 13.368757 6.53125 13.5 L 6.53125 14.5 C 6.531247 14.780189 6.755766 15 7.03125 15 L 8.96875 15 C 9.244232 15 9.46875 14.780189 9.46875 14.5 L 9.46875 13.5 C 9.961332 13.368757 10.413107 13.187957 10.84375 12.9375 L 11.5625 13.625 C 11.760625 13.823124 12.055204 13.81982 12.25 13.625 L 13.625 12.25 C 13.819794 12.055201 13.8231 11.760626 13.625 11.5625 L 12.9375 10.84375 C 13.187959 10.413108 13.368756 9.961333 13.5 9.46875 L 14.5 9.46875 C 14.780194 9.46875 15 9.244232 15 8.96875 L 15 7.03125 C 15 6.755765 14.780192 6.53125 14.5 6.53125 L 13.5 6.53125 C 13.368757 6.038668 13.187958 5.586893 12.9375 5.15625 L 13.625 4.4375 C 13.72406 4.33844 13.780165 4.221948 13.78125 4.09375 C 13.78235 3.965552 13.722391 3.847398 13.625 3.75 L 12.25 2.375 C 12.055204 2.180205 11.760626 2.176878 11.5625 2.375 L 10.84375 3.0625 C 10.413108 2.81204 9.961333 2.631246 9.46875 2.5 L 9.46875 1.5 C 9.46875 1.219804 9.244233 1 8.96875 1 L 7.03125 1 z M 8 5 C 9.6568542 5 11 6.3431458 11 8 C 11 9.6568542 9.6568542 11 8 11 C 6.3431458 11 5 9.6568542 5 8 C 5 6.3431458 6.3431458 5 8 5 z "
       transform="translate(0,6)"
       id="path2862" />
    <rect
       style="opacity:1;color:#000000;fill:url(#radialGradient3813);fill-opacity:1;fill-rule:nonzero;stroke:none;stroke-width:1;stroke-linecap:round;stroke-linejoin:round;stroke-miterlimit:4;stroke-opacity:1;stroke-dasharray:none;stroke-dashoffset:8.59999999999999787;marker:none;visibility:visible;display:inline;overflow:visible;enable-background:accumulate"
       id="rect3036"
       width="4"
       height="4"
       x="24"
       y="0"
       transform="translate(0,6)" />
    <rect
       y="12"
       x="24"
       height="4"
       width="4"
       id="rect3815"
       style="color:#000000;fill:url(#radialGradient3817);fill-opacity:1.0;fill-rule:nonzero;stroke:none;stroke-width:1;marker:none;visibility:visible;display:inline;overflow:visible;enable-background:accumulate" />
    <path
       style="fill:#000000;fill-opacity:1;fill-rule:nonzero;stroke:none;stroke-width:1;marker:none;visibility:visible;display:block;overflow:visible;enable-background:accumulate;opacity:0.3"
       d="M 7.03125 1 C 6.755767 1 6.53125 1.219807 6.53125 1.5 L 6.53125 2.5 C 6.038666 2.631247 5.586891 2.812043 5.15625 3.0625 L 4.4375 2.375 C 4.239374 2.176875 3.944796 2.180191 3.75 2.375 L 2.375 3.75 C 2.180204 3.944795 2.17688 4.239374 2.375 4.4375 L 3.0625 5.15625 C 2.812043 5.586893 2.631244 6.038668 2.5 6.53125 L 1.5 6.53125 C 1.219807 6.53125 1 6.755765 1 7.03125 L 1 8.96875 C 1 9.244234 1.219807 9.46875 1.5 9.46875 L 2.5 9.46875 C 2.631244 9.961333 2.812043 10.413108 3.0625 10.84375 L 2.375 11.5625 C 2.176875 11.760624 2.180199 12.055204 2.375 12.25 L 3.75 13.625 C 3.944797 13.819794 4.239376 13.8231 4.4375 13.625 L 5.15625 12.9375 C 5.586891 13.187957 6.038666 13.368757 6.53125 13.5 L 6.53125 14.5 C 6.531247 14.780189 6.755766 15 7.03125 15 L 8.96875 15 C 9.244232 15 9.46875 14.780189 9.46875 14.5 L 9.46875 13.5 C 9.961332 13.368757 10.413107 13.187957 10.84375 12.9375 L 11.5625 13.625 C 11.760625 13.823124 12.055204 13.81982 12.25 13.625 L 13.625 12.25 C 13.819794 12.055201 13.8231 11.760626 13.625 11.5625 L 12.9375 10.84375 C 13.187959 10.413108 13.368756 9.961333 13.5 9.46875 L 14.5 9.46875 C 14.780194 9.46875 15 9.244232 15 8.96875 L 15 7.03125 C 15 6.755765 14.780192 6.53125 14.5 6.53125 L 13.5 6.53125 C 13.368757 6.038668 13.187958 5.586893 12.9375 5.15625 L 13.625 4.4375 C 13.72406 4.33844 13.780165 4.221948 13.78125 4.09375 C 13.78235 3.965552 13.722391 3.847398 13.625 3.75 L 12.25 2.375 C 12.055204 2.180205 11.760626 2.176878 11.5625 2.375 L 10.84375 3.0625 C 10.413108 2.81204 9.961333 2.631246 9.46875 2.5 L 9.46875 1.5 C 9.46875 1.219804 9.244233 1 8.96875 1 L 7.03125 1 z M 7.03125 1.5 L 8.96875 1.5 L 8.96875 2.5 A 0.48591427 0.48591427 0 0 0 9.34375 2.96875 C 9.8004859 3.0904447 10.202927 3.2414484 10.59375 3.46875 A 0.48591427 0.48591427 0 0 0 11.1875 3.40625 L 11.90625 2.71875 L 13.28125 4.09375 L 12.59375 4.8125 A 0.48591427 0.48591427 0 0 0 12.53125 5.40625 C 12.758552 5.7970779 12.909559 6.1995198 13.03125 6.65625 A 0.48591427 0.48591427 0 0 0 13.5 7.03125 L 14.5 7.03125 L 14.5 8.96875 L 13.5 8.96875 A 0.48591427 0.48591427 0 0 0 13.03125 9.34375 C 12.909558 9.8004829 12.758552 10.202925 12.53125 10.59375 A 0.48591427 0.48591427 0 0 0 12.59375 11.1875 L 13.28125 11.90625 L 11.90625 13.28125 L 11.1875 12.59375 A 0.48591427 0.48591427 0 0 0 10.59375 12.53125 C 10.202921 12.758552 9.8004796 12.909559 9.34375 13.03125 A 0.48591427 0.48591427 0 0 0 8.96875 13.5 L 8.96875 14.5 L 7.03125 14.5 L 7.03125 13.5 A 0.48591427 0.48591427 0 0 0 6.65625 13.03125 C 6.1995186 12.909559 5.7970762 12.758551 5.40625 12.53125 A 0.48591427 0.48591427 0 0 0 4.8125 12.59375 L 4.09375 13.28125 L 2.71875 11.90625 L 3.40625 11.1875 A 0.48591427 0.48591427 0 0 0 3.46875 10.59375 C 3.241449 10.202923 3.0904418 9.8004817 2.96875 9.34375 A 0.48591427 0.48591427 0 0 0 2.5 8.96875 L 1.5 8.96875 L 1.5 7.03125 L 2.5 7.03125 A 0.48591427 0.48591427 0 0 0 2.96875 6.65625 C 3.0904418 6.1995192 3.2414488 5.7970783 3.46875 5.40625 A 0.48591427 0.48591427 0 0 0 3.40625 4.8125 L 2.71875 4.09375 L 4.09375 2.71875 L 4.8125 3.40625 A 0.48591427 0.48591427 0 0 0 5.40625 3.46875 C 5.7970742 3.2414501 6.1995138 3.0904455 6.65625 2.96875 A 0.48591427 0.48591427 0 0 0 7.03125 2.5 L 7.03125 1.5 z M 8 4.5 C 6.0805645 4.5 4.5 6.0805645 4.5 8 C 4.5 9.9194355 6.0805645 11.5 8 11.5 C 9.9194355 11.5 11.5 9.9194355 11.5 8 C 11.5 6.0805645 9.9194355 4.5 8 4.5 z M 8 5 C 9.6568542 5 11 6.3431458 11 8 C 11 9.6568542 9.6568542 11 8 11 C 6.3431458 11 5 9.6568542 5 8 C 5 6.3431458 6.3431458 5 8 5 z "
       transform="translate(0,6)"
       id="path3839" />
    <path
       style="fill:#000000;fill-opacity:1;fill-rule:nonzero;stroke:none;stroke-width:1;marker:none;visibility:visible;display:block;overflow:visible;enable-background:accumulate;opacity:0.3"
       d="M 7.03125 1 C 6.755767 1 6.53125 1.219807 6.53125 1.5 L 6.53125 2.5 C 6.53125 2.219807 6.755767 2 7.03125 2 L 8.96875 2 C 9.244233 2 9.46875 2.219804 9.46875 2.5 L 9.46875 1.5 C 9.46875 1.219804 9.244233 1 8.96875 1 L 7.03125 1 z M 9.46875 2.5 L 9.46875 3.5 C 9.961333 3.631246 10.413108 3.81204 10.84375 4.0625 L 11.5625 3.375 C 11.760626 3.176878 12.055204 3.180205 12.25 3.375 L 13.46875 4.59375 L 13.625 4.4375 C 13.72406 4.33844 13.780165 4.221948 13.78125 4.09375 C 13.78235 3.965552 13.722391 3.847398 13.625 3.75 L 12.25 2.375 C 12.055204 2.180205 11.760626 2.176878 11.5625 2.375 L 10.84375 3.0625 C 10.413108 2.81204 9.961333 2.631246 9.46875 2.5 z M 6.53125 2.5 C 6.038666 2.631247 5.586891 2.812043 5.15625 3.0625 L 4.4375 2.375 C 4.239374 2.176875 3.944796 2.180191 3.75 2.375 L 2.375 3.75 C 2.180204 3.944795 2.17688 4.239374 2.375 4.4375 L 2.53125 4.59375 L 3.75 3.375 C 3.944796 3.180191 4.239374 3.176875 4.4375 3.375 L 5.15625 4.0625 C 5.586891 3.812043 6.038666 3.631247 6.53125 3.5 L 6.53125 2.5 z M 2.75 5.8125 C 2.6570876 6.0408469 2.565622 6.284959 2.5 6.53125 L 1.5 6.53125 C 1.219807 6.53125 1 6.755765 1 7.03125 L 1 8.03125 C 1 7.755765 1.219807 7.53125 1.5 7.53125 L 2.5 7.53125 C 2.631244 7.038668 2.812043 6.586893 3.0625 6.15625 L 2.75 5.8125 z M 13.25 5.8125 L 12.9375 6.15625 C 13.187958 6.586893 13.368757 7.038668 13.5 7.53125 L 14.5 7.53125 C 14.780192 7.53125 15 7.755765 15 8.03125 L 15 7.03125 C 15 6.755765 14.780192 6.53125 14.5 6.53125 L 13.5 6.53125 C 13.434379 6.284959 13.342912 6.0408469 13.25 5.8125 z M 5.0625 8.5 C 5.0338207 8.6665754 5 8.8252359 5 9 C 5 10.656854 6.3431458 12 8 12 C 9.6568542 12 11 10.656854 11 9 C 11 8.8252359 10.966179 8.6665754 10.9375 8.5 C 10.694284 9.9126458 9.4820901 11 8 11 C 6.5179099 11 5.3057158 9.9126458 5.0625 8.5 z M 2.75 11.1875 L 2.375 11.5625 C 2.176875 11.760624 2.180199 12.055204 2.375 12.25 L 2.53125 12.40625 L 3.0625 11.84375 C 2.9372715 11.628429 2.8429124 11.415847 2.75 11.1875 z M 13.25 11.1875 C 13.157088 11.415847 13.062729 11.628429 12.9375 11.84375 L 13.46875 12.40625 L 13.625 12.25 C 13.819794 12.055201 13.8231 11.760626 13.625 11.5625 L 13.25 11.1875 z "
       transform="translate(0,6)"
       id="path3852" />
    <path
       style="fill:#ffffff;fill-opacity:1;fill-rule:nonzero;stroke:none;stroke-width:1;marker:none;visibility:visible;display:block;overflow:visible;enable-background:accumulate;opacity:0.2"
       d="M 2.53125 4.59375 L 2.375 4.75 C 2.180204 4.944795 2.17688 5.239374 2.375 5.4375 L 2.75 5.8125 C 2.8429124 5.5841531 2.9372715 5.3715715 3.0625 5.15625 L 2.53125 4.59375 z M 13.46875 4.59375 L 12.9375 5.15625 C 13.062729 5.3715715 13.157088 5.5841531 13.25 5.8125 L 13.625 5.4375 C 13.72406 5.33844 13.780165 5.221948 13.78125 5.09375 C 13.78235 4.965552 13.722391 4.847398 13.625 4.75 L 13.46875 4.59375 z M 8 5 C 6.3431458 5 5 6.343146 5 8 C 5 8.1747641 5.0338207 8.3334246 5.0625 8.5 C 5.3057158 7.0873543 6.5179099 6 8 6 C 9.4820901 6 10.694284 7.0873543 10.9375 8.5 C 10.966179 8.3334246 11 8.1747641 11 8 C 11 6.343146 9.6568542 5 8 5 z M 1 8.96875 L 1 9.96875 C 1 10.244234 1.219807 10.46875 1.5 10.46875 L 2.5 10.46875 C 2.565622 10.715041 2.6570876 10.959153 2.75 11.1875 L 3.0625 10.84375 C 2.812043 10.413108 2.631244 9.961333 2.5 9.46875 L 1.5 9.46875 C 1.219807 9.46875 1 9.244234 1 8.96875 z M 15 8.96875 C 15 9.244232 14.780194 9.46875 14.5 9.46875 L 13.5 9.46875 C 13.368756 9.961333 13.187959 10.413108 12.9375 10.84375 L 13.25 11.1875 C 13.342912 10.959153 13.434378 10.715041 13.5 10.46875 L 14.5 10.46875 C 14.780194 10.46875 15 10.244232 15 9.96875 L 15 8.96875 z M 2.53125 12.40625 L 2.375 12.5625 C 2.176875 12.760624 2.180199 13.055204 2.375 13.25 L 3.75 14.625 C 3.944797 14.819794 4.239376 14.8231 4.4375 14.625 L 5.15625 13.9375 C 5.586891 14.187957 6.038666 14.368757 6.53125 14.5 L 6.53125 13.5 C 6.038666 13.368757 5.586891 13.187957 5.15625 12.9375 L 4.4375 13.625 C 4.239376 13.8231 3.944797 13.819794 3.75 13.625 L 2.53125 12.40625 z M 6.53125 14.5 L 6.53125 15.5 C 6.531247 15.780189 6.755766 16 7.03125 16 L 8.96875 16 C 9.244232 16 9.46875 15.780189 9.46875 15.5 L 9.46875 14.5 C 9.46875 14.780189 9.244232 15 8.96875 15 L 7.03125 15 C 6.755766 15 6.531247 14.780189 6.53125 14.5 z M 9.46875 14.5 C 9.961332 14.368757 10.413107 14.187957 10.84375 13.9375 L 11.5625 14.625 C 11.760625 14.823124 12.055204 14.81982 12.25 14.625 L 13.625 13.25 C 13.819794 13.055201 13.8231 12.760626 13.625 12.5625 L 13.46875 12.40625 L 12.25 13.625 C 12.055204 13.81982 11.760625 13.823124 11.5625 13.625 L 10.84375 12.9375 C 10.413107 13.187957 9.961332 13.368757 9.46875 13.5 L 9.46875 14.5 z "
       transform="translate(0,6)"
       id="path3861" />
  </g>
</svg>
