<?xml version="1.0" encoding="UTF-8" standalone="no"?>
<!-- Created with Inkscape (http://www.inkscape.org/) -->

<svg
   xmlns:dc="http://purl.org/dc/elements/1.1/"
   xmlns:cc="http://creativecommons.org/ns#"
   xmlns:rdf="http://www.w3.org/1999/02/22-rdf-syntax-ns#"
   xmlns:svg="http://www.w3.org/2000/svg"
   xmlns="http://www.w3.org/2000/svg"
   xmlns:xlink="http://www.w3.org/1999/xlink"
   xmlns:sodipodi="http://sodipodi.sourceforge.net/DTD/sodipodi-0.dtd"
   xmlns:inkscape="http://www.inkscape.org/namespaces/inkscape"
   width="22"
   height="22"
   id="svg2"
   sodipodi:version="0.32"
   inkscape:version="0.48.1 r9760"
   version="1.0"
   sodipodi:docname="deadbeef-tray-icon.svg"
   inkscape:output_extension="org.inkscape.output.svg.inkscape"
   inkscape:export-filename="/home/matt/.icons/Sirocco/scalable/mimetypes/text-plain.png"
   inkscape:export-xdpi="90"
   inkscape:export-ydpi="90"
   sodipodi:modified="true"
   style="display:inline">
  <sodipodi:namedview
     id="base"
     pagecolor="#838383"
     bordercolor="#cc0000"
     borderopacity="1"
     inkscape:pageopacity="1"
     inkscape:pageshadow="2"
     inkscape:zoom="22.027846"
     inkscape:cx="-8.4604372"
     inkscape:cy="17.183743"
     inkscape:document-units="px"
     inkscape:current-layer="layer1"
     width="128px"
     height="128px"
     inkscape:showpageshadow="false"
     inkscape:window-width="1920"
     inkscape:window-height="1030"
     inkscape:window-x="0"
     inkscape:window-y="25"
     showguides="true"
     inkscape:guide-bbox="true"
     showgrid="true"
     inkscape:window-maximized="1"
     borderlayer="true"
     inkscape:snap-global="true">
    <inkscape:grid
       enabled="true"
       visible="true"
       id="grid3231"
       type="xygrid"
       empspacing="8"
       snapvisiblegridlinesonly="true" />
    <sodipodi:guide
       orientation="1,0"
       position="12,17"
       id="guide3791" />
    <sodipodi:guide
       orientation="0,1"
       position="14,9"
       id="guide3793" />
  </sodipodi:namedview>
  <defs
     id="defs4">
    <linearGradient
       id="StandardGradient"
       gradientTransform="scale(0.9219544,1.0846523)"
       x1="11.998966"
       y1="0.92195445"
       x2="11.998966"
       y2="19.387045"
       gradientUnits="userSpaceOnUse">
      <stop
         style="stop-color:#000000;stop-opacity:0.23529412;"
         offset="0"
         id="stop3283" />
      <stop
         id="stop3850"
         offset="0.69999999"
         style="stop-color:#000000;stop-opacity:0.39215686;" />
      <stop
         style="stop-color:#000000;stop-opacity:0.55;"
         offset="1"
         id="stop2651" />
    </linearGradient>
    <radialGradient
       inkscape:collect="always"
       xlink:href="#SpecificGradient"
       id="radialGradient3855"
       gradientUnits="userSpaceOnUse"
       cx="36"
       cy="2"
       fx="36"
       fy="2"
       r="4"
       gradientTransform="translate(0,10)" />
    <linearGradient
       id="SpecificGradient"
       x1="10.406627"
       y1="2"
       x2="10.406627"
       y2="18.000771"
       gradientUnits="userSpaceOnUse">
      <stop
         style="stop-color:#e64b36;stop-opacity:1;"
         offset="0"
         id="stop3292" />
      <stop
         style="stop-color:#a31414;stop-opacity:1;"
         offset="1"
         id="stop3294" />
    </linearGradient>
    <radialGradient
       r="4"
       fy="2"
       fx="36"
       cy="2"
       cx="36"
       gradientUnits="userSpaceOnUse"
       id="radialGradient3038"
       xlink:href="#StandardGradient"
       inkscape:collect="always" />
    <radialGradient
       inkscape:collect="always"
       xlink:href="#StandardGradient"
       id="radialGradient3925"
       cx="12"
       cy="12.555555"
       fx="12"
       fy="12.555555"
       r="7"
       gradientTransform="matrix(2.2857143,0,0,1.5714285,-15.428571,23.269842)"
       gradientUnits="userSpaceOnUse" />
    <radialGradient
       inkscape:collect="always"
       xlink:href="#StandardGradient"
       id="radialGradient3933"
       gradientUnits="userSpaceOnUse"
       gradientTransform="matrix(2.2857143,0,0,1.5714285,-45.428571,-6.7301581)"
       cx="12"
       cy="12.555555"
       fx="12"
       fy="12.555555"
       r="7" />
    <clipPath
       clipPathUnits="userSpaceOnUse"
       id="clipPath3943">
      <path
         sodipodi:nodetypes="cccccccccc"
         id="path3945"
         d="m 5,2 0,9 3.085714,-3 4.553917,3 -4.553917,3 0,-4.028571 L 5,13.057143 5,20 19,11 5,2 z"
         style="fill:#ff00ff;fill-opacity:1;stroke:none;display:inline"
         inkscape:connector-curvature="0" />
    </clipPath>
    <filter
       inkscape:collect="always"
       id="filter3947">
      <feGaussianBlur
         inkscape:collect="always"
         stdDeviation="0.4"
         id="feGaussianBlur3949" />
    </filter>
    <clipPath
       clipPathUnits="userSpaceOnUse"
       id="clipPath3955">
      <path
         style="opacity:0.5;color:#000000;fill:#ff00ff;fill-opacity:1;fill-rule:nonzero;stroke:none;stroke-width:2;marker:none;visibility:visible;display:inline;overflow:visible;enable-background:accumulate"
         d="m -30,30 0,22 22,0 0,-22 -22,0 z m 5,2 14,9 -14,9 0,-6.9375 3.09375,-3.09375 0,4.03125 4.53125,-3 -4.53125,-3 -3.09375,3 0,-9 z"
         id="path3957"
         inkscape:connector-curvature="0" />
    </clipPath>
    <filter
       inkscape:collect="always"
       id="filter3959">
      <feGaussianBlur
         inkscape:collect="always"
         stdDeviation="0.4"
         id="feGaussianBlur3961" />
    </filter>
    <clipPath
       clipPathUnits="userSpaceOnUse"
       id="clipPath3967">
      <path
         style="opacity:0.5;color:#000000;fill:#ff00ff;fill-opacity:1;fill-rule:nonzero;stroke:none;stroke-width:2;marker:none;visibility:visible;display:inline;overflow:visible;enable-background:accumulate"
         d="m -30,-30 0,22 22,0 0,-22 -22,0 z m 5,2 14,9 -14,9 0,-6.9375 3.09375,-3.09375 0,4.03125 4.53125,-3 -4.53125,-3 -3.09375,3 0,-9 z"
         id="path3969"
         inkscape:connector-curvature="0" />
    </clipPath>
    <filter
       inkscape:collect="always"
       id="filter3971">
      <feGaussianBlur
         inkscape:collect="always"
         stdDeviation="0.56"
         id="feGaussianBlur3973" />
    </filter>
    <radialGradient
       inkscape:collect="always"
       xlink:href="#StandardGradient"
       id="radialGradient3039"
       gradientUnits="userSpaceOnUse"
       gradientTransform="matrix(2.2857143,0,0,1.5714285,-15.428571,-6.730158)"
       cx="12"
       cy="12.555555"
       fx="12"
       fy="12.555555"
       r="7" />
    <radialGradient
       inkscape:collect="always"
       xlink:href="#StandardGradient"
       id="radialGradient3043"
       gradientUnits="userSpaceOnUse"
       gradientTransform="matrix(2.2857143,0,0,1.5714285,-15.428571,-5.730158)"
       cx="12"
       cy="12.555555"
       fx="12"
       fy="12.555555"
       r="7" />
    <radialGradient
       inkscape:collect="always"
       xlink:href="#StandardGradient"
       id="radialGradient3047"
       gradientUnits="userSpaceOnUse"
       gradientTransform="matrix(2.2857143,0,0,1.5714285,-15.428571,-6.730158)"
       cx="12"
       cy="12.555555"
       fx="12"
       fy="12.555555"
       r="7" />
    <radialGradient
       inkscape:collect="always"
       xlink:href="#StandardGradient"
       id="radialGradient3822"
       gradientUnits="userSpaceOnUse"
       gradientTransform="matrix(2.2857143,0,0,1.5714285,-15.428571,-6.730158)"
       cx="12"
       cy="12.555555"
       fx="12"
       fy="12.555555"
       r="7" />
    <radialGradient
       inkscape:collect="always"
       xlink:href="#StandardGradient"
       id="radialGradient3826"
       gradientUnits="userSpaceOnUse"
       gradientTransform="matrix(2.2857143,0,0,1.5714285,-15.428571,-6.730158)"
       cx="12"
       cy="12.555555"
       fx="12"
       fy="12.555555"
       r="7" />
    <radialGradient
       inkscape:collect="always"
       xlink:href="#StandardGradient"
       id="radialGradient3833"
       gradientUnits="userSpaceOnUse"
       gradientTransform="matrix(2.2857143,0,0,1.5714285,-15.428571,-6.730158)"
       cx="12"
       cy="12.555555"
       fx="12"
       fy="12.555555"
       r="7" />
    <radialGradient
       inkscape:collect="always"
       xlink:href="#StandardGradient"
       id="radialGradient3837"
       gradientUnits="userSpaceOnUse"
       gradientTransform="matrix(2.2857143,0,0,1.5714285,-15.428571,-6.730158)"
       cx="12"
       cy="12.555555"
       fx="12"
       fy="12.555555"
       r="7" />
    <radialGradient
       inkscape:collect="always"
       xlink:href="#StandardGradient"
       id="radialGradient3839"
       gradientUnits="userSpaceOnUse"
       gradientTransform="matrix(2.2857143,0,0,1.5714285,-15.428571,-6.730158)"
       cx="12"
       cy="12.555555"
       fx="12"
       fy="12.555555"
       r="7" />
    <radialGradient
       inkscape:collect="always"
       xlink:href="#StandardGradient"
       id="radialGradient3846"
       gradientUnits="userSpaceOnUse"
       gradientTransform="matrix(2.2857143,0,0,1.5714285,-15.428571,-5.730158)"
       cx="12"
       cy="12.555555"
       fx="12"
       fy="12.555555"
       r="7" />
    <radialGradient
       inkscape:collect="always"
       xlink:href="#StandardGradient"
       id="radialGradient3848"
       gradientUnits="userSpaceOnUse"
       gradientTransform="matrix(2.2857143,0,0,1.5714285,-15.428571,-6.730158)"
       cx="12"
       cy="12.555555"
       fx="12"
       fy="12.555555"
       r="7" />
  </defs>
  <metadata
     id="metadata7">
    <rdf:RDF>
      <cc:Work
         rdf:about="">
        <dc:format>image/svg+xml</dc:format>
        <dc:type
           rdf:resource="http://purl.org/dc/dcmitype/StillImage" />
        <dc:title />
      </cc:Work>
    </rdf:RDF>
  </metadata>
  <g
     style="display:inline"
     inkscape:label="Calque 1"
     id="layer1"
     inkscape:groupmode="layer">
    <path
       style="fill:#ffffff;fill-opacity:1;stroke:none;display:inline;opacity:0.05"
       d="M 4.875 0.9375 A 1.0565009 1.0565009 0 0 0 3.9375 2 L 3.9375 11 A 1.0565009 1.0565009 0 0 0 4.59375 11.96875 L 4.25 12.3125 A 1.0565009 1.0565009 0 0 0 3.9375 13.0625 L 3.9375 20 A 1.0565009 1.0565009 0 0 0 5.5625 20.875 L 19.5625 11.875 A 1.0565009 1.0565009 0 0 0 19.5625 10.125 L 5.5625 1.125 A 1.0565009 1.0565009 0 0 0 4.875 0.9375 z M 5 2 L 19 11 L 5 20 L 5 13.0625 L 8.09375 9.96875 L 8.09375 14 L 12.625 11 L 8.09375 8 L 5 11 L 5 2 z M 9.15625 9.96875 L 10.71875 11 L 9.15625 12.03125 L 9.15625 9.96875 z "
       id="path3824" />
    <path
       sodipodi:nodetypes="cccccccccc"
       id="path3963"
       d="m -25,-28 0,9 3.085714,-3 4.553917,3 -4.553917,3 0,-4.028571 L -25,-16.942857 -25,-10 l 14,-9 -14,-9 z"
       style="opacity:0.2;fill:none;stroke:#ffffff;display:inline;filter:url(#filter3971)"
       inkscape:connector-curvature="0"
       clip-path="url(#clipPath3967)"
       transform="translate(30,60)" />
    <path
       sodipodi:nodetypes="cccccccccc"
       id="path3951"
       d="m -25,32.5 0,9 3.085714,-3 4.553917,3 -4.553917,3 0,-4.028571 L -25,43.557143 -25,50.5 l 14,-9 -14,-9 z"
       style="opacity:0.4;fill:#ffffff;fill-opacity:1;stroke:none;display:inline;filter:url(#filter3959)"
       inkscape:connector-curvature="0"
       clip-path="url(#clipPath3955)"
       transform="translate(30,0)" />
    <rect
       style="opacity:0.5;color:#000000;fill:#ff00ff;fill-opacity:1;fill-rule:nonzero;stroke:none;stroke-width:2;marker:none;visibility:visible;display:inline;overflow:visible;enable-background:accumulate"
       id="rect3047"
       width="22"
       height="22"
       x="-30"
       y="0" />
    <rect
       style="color:#000000;fill:url(#radialGradient3038);fill-opacity:1;fill-rule:nonzero;stroke:none;stroke-width:2;marker:none;visibility:visible;display:inline;overflow:visible;enable-background:accumulate"
       id="rect3841"
       width="8"
       height="8"
       x="32"
       y="-2" />
    <rect
       y="8"
       x="32"
       height="8"
       width="8"
       id="rect3853"
       style="color:#000000;fill:url(#radialGradient3855);fill-opacity:1;fill-rule:nonzero;stroke:none;stroke-width:2;marker:none;visibility:visible;display:inline;overflow:visible;enable-background:accumulate" />
    <text
       xml:space="preserve"
       style="font-size:1px;font-style:normal;font-variant:normal;font-weight:normal;font-stretch:normal;text-align:start;line-height:125%;letter-spacing:0px;word-spacing:0px;writing-mode:lr-tb;text-anchor:start;fill:#000000;fill-opacity:1;stroke:none;font-family:Trebuchet MS;-inkscape-font-specification:Trebuchet MS"
       x="34"
       y="19"
       id="text3977"
       sodipodi:linespacing="125%"><tspan
         sodipodi:role="line"
         x="34"
         y="19"
         id="tspan3805">-0.875px /blur 5 / opacity 40</tspan></text>
    <rect
       style="color:#000000;fill:#000000;fill-opacity:1;fill-rule:nonzero;stroke:none;stroke-width:2;marker:none;visibility:visible;display:inline;overflow:visible;enable-background:accumulate"
       id="rect3981"
       width="1"
       height="1"
       x="32"
       y="18" />
    <text
       sodipodi:linespacing="125%"
       id="text3983"
       y="21"
       x="34"
       style="font-size:1px;font-style:normal;font-variant:normal;font-weight:normal;font-stretch:normal;text-align:start;line-height:125%;letter-spacing:0px;word-spacing:0px;writing-mode:lr-tb;text-anchor:start;fill:#000000;fill-opacity:1;stroke:none;font-family:Trebuchet MS;-inkscape-font-specification:Trebuchet MS"
       xml:space="preserve"><tspan
         y="21"
         x="34"
         id="tspan3985"
         sodipodi:role="line">0px /blur 7 / opacity 20</tspan></text>
    <rect
       y="20"
       x="32"
       height="1"
       width="1"
       id="rect3987"
       style="color:#000000;fill:#ffffff;fill-opacity:1;fill-rule:nonzero;stroke:none;stroke-width:2;marker:none;visibility:visible;display:inline;overflow:visible;enable-background:accumulate" />
    <text
       xml:space="preserve"
       style="font-size:1px;font-style:normal;font-variant:normal;font-weight:normal;font-stretch:normal;text-align:start;line-height:125%;letter-spacing:0px;word-spacing:0px;writing-mode:lr-tb;text-anchor:start;fill:#000000;fill-opacity:1;stroke:none;font-family:Trebuchet MS;-inkscape-font-specification:Trebuchet MS"
       x="34"
       y="23"
       id="text3989"
       sodipodi:linespacing="125%"><tspan
         sodipodi:role="line"
         x="34"
         y="23"
         id="tspan3995">-0.5px /blur 5 / opacity 40</tspan></text>
    <rect
       style="color:#000000;fill:#ffffff;fill-opacity:1;fill-rule:nonzero;stroke:none;stroke-width:2;marker:none;visibility:visible;display:inline;overflow:visible;enable-background:accumulate"
       id="rect3993"
       width="1"
       height="1"
       x="32"
       y="22" />
    <path
       inkscape:connector-curvature="0"
       style="fill:url(#radialGradient3925);fill-opacity:1;stroke:none;display:inline"
       d="m 5,32 0,9 3.085714,-3 4.553917,3 -4.553917,3 0,-4.028571 L 5,43.057143 5,50 19,41 5,32 z"
       id="path3661"
       sodipodi:nodetypes="cccccccccc" />
    <path
       sodipodi:nodetypes="cccccccccc"
       id="path3939"
       d="m 5,2.375 0,9 3.085714,-3 4.553917,3 -4.553917,3 0,-4.028571 L 5,13.432143 5,20.375 l 14,-9 -14,-9 z"
       style="opacity:0.4;fill:none;stroke:#000000;display:inline;filter:url(#filter3947)"
       inkscape:connector-curvature="0"
       clip-path="url(#clipPath3943)"
       transform="translate(0,30)" />
    <path
       sodipodi:nodetypes="cccccccccc"
       id="path3036"
       d="m 5,2 0,9 3.085714,-3 4.553917,3 -4.553917,3 0,-4.028571 L 5,13.057143 5,20 19,11 5,2 z"
       style="fill:url(#radialGradient3039);fill-opacity:1;stroke:none;display:inline"
       inkscape:connector-curvature="0" />
    <path
       style="fill:#ffffff;fill-opacity:1;stroke:none;display:inline;opacity:0.2"
       d="M 8.09375 8 L 5 11 L 5 12 L 8.09375 9 L 11.875 11.5 L 12.625 11 L 8.09375 8 z M 18.21875 11.5 L 5 20 L 5 21 L 19 12 L 18.21875 11.5 z "
       id="path3041" />
    <path
       style="fill:#000000;fill-opacity:1;stroke:none;display:inline;opacity:0.3"
       d="M 5 2 L 5 11 L 8.09375 8 L 12.625 11 L 8.09375 14 L 8.09375 9.96875 L 5 13.0625 L 5 20 L 19 11 L 5 2 z M 5.46875 2.84375 L 18.15625 11 L 5.46875 19.15625 L 5.46875 13.21875 L 7.625 11.0625 L 7.625 14 A 0.4567338 0.4567338 0 0 0 8.34375 14.375 L 12.875 11.375 A 0.4567338 0.4567338 0 0 0 12.875 10.625 L 8.34375 7.625 A 0.4567338 0.4567338 0 0 0 7.78125 7.6875 L 5.46875 9.9375 L 5.46875 2.84375 z "
       id="path3829" />
    <path
       style="fill:#000000;fill-opacity:1;stroke:none;display:inline;opacity:0.3"
       d="M 5 2 L 5 3 L 18.21875 11.5 L 19 11 L 5 2 z M 8.09375 9.96875 L 5 13.0625 L 5 14.0625 L 8.09375 10.96875 L 8.09375 9.96875 z M 11.875 11.5 L 8.09375 14 L 8.09375 15 L 12.625 12 L 11.875 11.5 z "
       id="path3842" />
  </g>
</svg>
