<?xml version="1.0" encoding="UTF-8" standalone="no"?>
<!-- Created with Inkscape (http://www.inkscape.org/) -->

<svg
   xmlns:dc="http://purl.org/dc/elements/1.1/"
   xmlns:cc="http://creativecommons.org/ns#"
   xmlns:rdf="http://www.w3.org/1999/02/22-rdf-syntax-ns#"
   xmlns:svg="http://www.w3.org/2000/svg"
   xmlns="http://www.w3.org/2000/svg"
   xmlns:xlink="http://www.w3.org/1999/xlink"
   xmlns:sodipodi="http://sodipodi.sourceforge.net/DTD/sodipodi-0.dtd"
   xmlns:inkscape="http://www.inkscape.org/namespaces/inkscape"
   width="22"
   height="22"
   id="svg2"
   sodipodi:version="0.32"
   inkscape:version="0.48.1 r9760"
   version="1.0"
   sodipodi:docname="dropbox-status-busy2.svg"
   inkscape:output_extension="org.inkscape.output.svg.inkscape"
   inkscape:export-filename="/home/matt/.icons/Sirocco/scalable/mimetypes/text-plain.png"
   inkscape:export-xdpi="90"
   inkscape:export-ydpi="90"
   sodipodi:modified="true"
   style="display:inline">
  <sodipodi:namedview
     id="base"
     pagecolor="#838383"
     bordercolor="#cc0000"
     borderopacity="1"
     inkscape:pageopacity="1"
     inkscape:pageshadow="2"
     inkscape:zoom="7.8580484"
     inkscape:cx="-26.809125"
     inkscape:cy="-1.9987275"
     inkscape:document-units="px"
     inkscape:current-layer="layer1"
     width="128px"
     height="128px"
     inkscape:showpageshadow="false"
     inkscape:window-width="1920"
     inkscape:window-height="1030"
     inkscape:window-x="0"
     inkscape:window-y="25"
     showguides="true"
     inkscape:guide-bbox="true"
     showgrid="true"
     inkscape:window-maximized="1"
     borderlayer="true"
     inkscape:snap-global="true">
    <inkscape:grid
       enabled="true"
       visible="true"
       id="grid3231"
       type="xygrid"
       empspacing="8"
       snapvisiblegridlinesonly="true" />
    <sodipodi:guide
       orientation="1,0"
       position="12,17"
       id="guide3791" />
    <sodipodi:guide
       orientation="0,1"
       position="14,9"
       id="guide3793" />
  </sodipodi:namedview>
  <defs
     id="defs4">
    <linearGradient
       id="StandardGradient"
       gradientTransform="scale(0.9219544,1.0846523)"
       x1="11.998966"
       y1="0.92195445"
       x2="11.998966"
       y2="19.387045"
       gradientUnits="userSpaceOnUse">
      <stop
         style="stop-color:#000000;stop-opacity:0.23529412;"
         offset="0"
         id="stop3283" />
      <stop
         id="stop3850"
         offset="0.69999999"
         style="stop-color:#000000;stop-opacity:0.39215686;" />
      <stop
         style="stop-color:#000000;stop-opacity:0.55;"
         offset="1"
         id="stop2651" />
    </linearGradient>
    <radialGradient
       inkscape:collect="always"
       xlink:href="#SpecificGradient"
       id="radialGradient3855"
       gradientUnits="userSpaceOnUse"
       cx="36"
       cy="2"
       fx="36"
       fy="2"
       r="4"
       gradientTransform="translate(0,10)" />
    <linearGradient
       id="SpecificGradient"
       x1="10.406627"
       y1="2"
       x2="10.406627"
       y2="18.000771"
       gradientUnits="userSpaceOnUse">
      <stop
         style="stop-color:#e64b36;stop-opacity:1;"
         offset="0"
         id="stop3292" />
      <stop
         style="stop-color:#a31414;stop-opacity:1;"
         offset="1"
         id="stop3294" />
    </linearGradient>
    <radialGradient
       r="4"
       fy="2"
       fx="36"
       cy="2"
       cx="36"
       gradientUnits="userSpaceOnUse"
       id="radialGradient3038"
       xlink:href="#StandardGradient"
       inkscape:collect="always" />
    <radialGradient
       inkscape:collect="always"
       xlink:href="#StandardGradient"
       id="radialGradient4097"
       cx="12"
       cy="13.1"
       fx="12"
       fy="13.1"
       r="9"
       gradientTransform="matrix(1.7777778,-7.624749e-8,4.7654685e-8,1.1111112,-9.3333339,-1.5555552)"
       gradientUnits="userSpaceOnUse" />
    <radialGradient
       inkscape:collect="always"
       xlink:href="#StandardGradient"
       id="radialGradient4184"
       cx="12"
       cy="13.1"
       fx="12"
       fy="13.1"
       r="9"
       gradientTransform="matrix(1.7777778,6.841918e-8,-4.2761986e-8,1.1111111,-9.3333327,-1.5555569)"
       gradientUnits="userSpaceOnUse" />
    <radialGradient
       inkscape:collect="always"
       xlink:href="#StandardGradient"
       id="radialGradient4190"
       gradientUnits="userSpaceOnUse"
       gradientTransform="matrix(1.7777778,6.841918e-8,-4.2761986e-8,1.1111111,-9.3333327,-1.5555569)"
       cx="12"
       cy="13.1"
       fx="12"
       fy="13.1"
       r="9" />
    <radialGradient
       inkscape:collect="always"
       xlink:href="#StandardGradient"
       id="radialGradient4194"
       gradientUnits="userSpaceOnUse"
       gradientTransform="matrix(1.7777778,6.841918e-8,-4.2761986e-8,1.1111111,-9.3333327,-1.5555569)"
       cx="12"
       cy="13.1"
       fx="12"
       fy="13.1"
       r="9" />
    <radialGradient
       inkscape:collect="always"
       xlink:href="#StandardGradient"
       id="radialGradient4196"
       gradientUnits="userSpaceOnUse"
       gradientTransform="matrix(1.7777778,6.841918e-8,-4.2761986e-8,1.1111111,-9.3333327,-1.5555569)"
       cx="12"
       cy="13.1"
       fx="12"
       fy="13.1"
       r="9" />
  </defs>
  <metadata
     id="metadata7">
    <rdf:RDF>
      <cc:Work
         rdf:about="">
        <dc:format>image/svg+xml</dc:format>
        <dc:type
           rdf:resource="http://purl.org/dc/dcmitype/StillImage" />
        <dc:title></dc:title>
      </cc:Work>
    </rdf:RDF>
  </metadata>
  <g
     style="display:inline"
     inkscape:label="Calque 1"
     id="layer1"
     inkscape:groupmode="layer">
    <rect
       style="opacity:0.5;color:#000000;fill:#ff00ff;fill-opacity:1;fill-rule:nonzero;stroke:none;stroke-width:2;marker:none;visibility:visible;display:inline;overflow:visible;enable-background:accumulate"
       id="rect3047"
       width="22"
       height="22"
       x="-30"
       y="0" />
    <rect
       style="color:#000000;fill:url(#radialGradient3038);fill-opacity:1;fill-rule:nonzero;stroke:none;stroke-width:2;marker:none;visibility:visible;display:inline;overflow:visible;enable-background:accumulate"
       id="rect3841"
       width="8"
       height="8"
       x="32"
       y="-2" />
    <rect
       y="8"
       x="32"
       height="8"
       width="8"
       id="rect3853"
       style="color:#000000;fill:url(#radialGradient3855);fill-opacity:1;fill-rule:nonzero;stroke:none;stroke-width:2;marker:none;visibility:visible;display:inline;overflow:visible;enable-background:accumulate" />
    <text
       xml:space="preserve"
       style="font-size:1px;font-style:normal;font-variant:normal;font-weight:normal;font-stretch:normal;text-align:start;line-height:125%;letter-spacing:0px;word-spacing:0px;writing-mode:lr-tb;text-anchor:start;fill:#000000;fill-opacity:1;stroke:none;font-family:Trebuchet MS;-inkscape-font-specification:Trebuchet MS"
       x="34"
       y="19"
       id="text3977"
       sodipodi:linespacing="125%"><tspan
         sodipodi:role="line"
         x="34"
         y="19"
         id="tspan3805">-0.875px /blur 5 / opacity 40</tspan></text>
    <rect
       style="color:#000000;fill:#000000;fill-opacity:1;fill-rule:nonzero;stroke:none;stroke-width:2;marker:none;visibility:visible;display:inline;overflow:visible;enable-background:accumulate"
       id="rect3981"
       width="1"
       height="1"
       x="32"
       y="18" />
    <text
       sodipodi:linespacing="125%"
       id="text3983"
       y="21"
       x="34"
       style="font-size:1px;font-style:normal;font-variant:normal;font-weight:normal;font-stretch:normal;text-align:start;line-height:125%;letter-spacing:0px;word-spacing:0px;writing-mode:lr-tb;text-anchor:start;fill:#000000;fill-opacity:1;stroke:none;font-family:Trebuchet MS;-inkscape-font-specification:Trebuchet MS"
       xml:space="preserve"><tspan
         y="21"
         x="34"
         id="tspan3985"
         sodipodi:role="line">0px /blur 7 / opacity 20</tspan></text>
    <rect
       y="20"
       x="32"
       height="1"
       width="1"
       id="rect3987"
       style="color:#000000;fill:#ffffff;fill-opacity:1;fill-rule:nonzero;stroke:none;stroke-width:2;marker:none;visibility:visible;display:inline;overflow:visible;enable-background:accumulate" />
    <text
       xml:space="preserve"
       style="font-size:1px;font-style:normal;font-variant:normal;font-weight:normal;font-stretch:normal;text-align:start;line-height:125%;letter-spacing:0px;word-spacing:0px;writing-mode:lr-tb;text-anchor:start;fill:#000000;fill-opacity:1;stroke:none;font-family:Trebuchet MS;-inkscape-font-specification:Trebuchet MS"
       x="34"
       y="23"
       id="text3989"
       sodipodi:linespacing="125%"><tspan
         sodipodi:role="line"
         x="34"
         y="23"
         id="tspan3995">-0.5px /blur 5 / opacity 40</tspan></text>
    <rect
       style="color:#000000;fill:#ffffff;fill-opacity:1;fill-rule:nonzero;stroke:none;stroke-width:2;marker:none;visibility:visible;display:inline;overflow:visible;enable-background:accumulate"
       id="rect3993"
       width="1"
       height="1"
       x="32"
       y="22" />
    <path
       inkscape:connector-curvature="0"
       style="opacity:0.05;fill:#ffffff;fill-opacity:1;stroke:none;display:inline"
       d="M 6.34375,2.0312496 A 1.0275003,1.0275003 0 0 0 5.875,2.2499996 l -4.5,3.375 a 1.0275003,1.0275003 0 0 0 0,1.625 l 3.40625,2.5625 L 1.375,12.375 a 1.0275003,1.0275003 0 0 0 0,1.625 l 9,6.75 a 1.0275003,1.0275003 0 0 0 1.25,0 l 9,-6.75 a 1.0275003,1.0275003 0 0 0 0,-1.625 l -3.40625,-2.5625004 3.40625,-2.5625 a 1.0275003,1.0275003 0 0 0 0,-1.625 l -4.5,-3.375 a 1.0275003,1.0275003 0 0 0 -1.25,0 L 11,5.1562496 7.125,2.2499996 a 1.0275003,1.0275003 0 0 0 -0.6875,-0.21875 1.0275003,1.0275003 0 0 0 -0.09375,0 z m 0.15625,1.03125 4.5,3.375 4.5,-3.375 4.5,3.375 -4.5,3.375 4.5,3.3750004 -9,6.75 -9,-6.75 4.5,-3.3750004 -4.5,-3.375 4.5,-3.375 z m 4.5,4.9375 0,1.75 c 1.24195,0 2.25,1.0080504 2.25,2.2500004 0,1.24195 -1.00805,2.25 -2.25,2.25 C 9.75805,14.25 8.75,13.24195 8.75,12 L 10.84375,12 9.4375,10.15625 8.03125,8.3124996 6.625,10.15625 5.1875,12 7,12 c 0,2.209139 1.790861,4 4,4 2.209139,0 4,-1.790861 4,-4 0,-2.2091394 -1.790861,-4.0000004 -4,-4.0000004 z m -2.96875,2 L 8.625,10.78125 8.75,10.96875 A 1.0275003,1.0275003 0 0 0 7.875,11.4375 1.0275003,1.0275003 0 0 0 7.28125,11 L 7.4375,10.78125 8.03125,9.9999996 z"
       id="path4831" />
    <path
       inkscape:connector-curvature="0"
       style="fill:url(#radialGradient4184);fill-opacity:1;stroke:none;display:inline"
       d="m 6.5,3.0624996 -4.5,3.375 4.5,3.375 L 2,13.1875 l 9,6.75 9,-6.75 -4.5,-3.3750004 4.5,-3.375 -4.5,-3.375 -4.5,3.375 -4.5,-3.375 z m 4.5,4.9375 c 2.209139,0 4,1.790861 4,4.0000004 0,2.209139 -1.790861,4 -4,4 C 8.790861,16 7,14.209139 7,12 L 5.1875,12 6.625,10.15625 8.03125,8.3124996 9.4375,10.15625 10.84375,12 8.75,12 c 0,1.24195 1.00805,2.25 2.25,2.25 1.24195,0 2.25,-1.00805 2.25,-2.25 0,-1.24195 -1.00805,-2.2500004 -2.25,-2.2500004 l 0,-1.75 z"
       id="path2928" />
    <path
       inkscape:connector-curvature="0"
       style="opacity:0.3;fill:#000000;fill-opacity:1;stroke:none;display:inline"
       d="m 6.5,3.0624996 -4.5,3.375 0.65625,0.5 3.84375,-2.875 4.5,3.375 4.5,-3.375 3.84375,2.875 0.65625,-0.5 -4.5,-3.375 -4.5,3.375 -4.5,-3.375 z M 11,9.7499996 11,10.75 c 1.076303,0 1.99765,0.739703 2.21875,1.75 C 13.25278,12.344512 13.25,12.165647 13.25,12 13.25,10.75805 12.24195,9.7499996 11,9.7499996 z M 5.84375,10.3125 2,13.1875 2.65625,13.6875 5.5625,11.5 6.25,10.625 5.84375,10.3125 z m 10.3125,0 -0.65625,0.5 3.84375,2.875 0.65625,-0.5 -3.84375,-2.875 z M 5.96875,12 5.1875,13 7,13 c 0,2.209139 1.790861,4 4,4 2.209139,0 4,-1.790861 4,-4 0,-0.17012 -0.04189,-0.335468 -0.0625,-0.5 C 14.690434,14.472046 13.039019,16 11,16 8.790861,16 7,14.209139 7,12 L 5.96875,12 z M 8.75,12 c 0,0.362235 0.0977,0.696768 0.25,1 l 1.84375,0 -0.75,-1 L 8.75,12 z"
       id="path3805" />
    <path
       inkscape:connector-curvature="0"
       style="opacity:0.2;fill:#ffffff;fill-opacity:1;stroke:none;display:inline"
       d="M 2.65625,6.9374996 2,7.4374996 5.84375,10.3125 6.5,9.8124996 l -3.84375,-2.875 z m 16.6875,0 L 15.5,9.8124996 16.15625,10.3125 20,7.4374996 l -0.65625,-0.5 z M 11,7.9999996 l 0,1 c 2.039019,0 3.690434,1.5279544 3.9375,3.5000004 C 14.95811,12.335468 15,12.17012 15,12 15,9.7908606 13.209139,7.9999996 11,7.9999996 z M 8.03125,8.3124996 6.625,10.15625 6.25,10.625 6.5,10.8125 5.5625,11.5 5.1875,12 5.96875,12 6.625,11.15625 8.03125,9.3124996 9.4375,11.15625 10.09375,12 l 0.75,0 L 9.4375,10.15625 8.03125,8.3124996 z M 13.21875,12.5 C 12.99765,13.510297 12.076303,14.25 11,14.25 10.120285,14.25 9.3698723,13.73642 9,13 l -0.25,0 c 0,1.24195 1.00805,2.25 2.25,2.25 1.24195,0 2.25,-1.00805 2.25,-2.25 0,-0.165647 0.0028,-0.344512 -0.03125,-0.5 z M 2.65625,13.6875 2,14.1875 l 9,6.75 9,-6.75 -0.65625,-0.5 -8.34375,6.25 -8.34375,-6.25 z"
       id="path3814" />
    <path
       style="fill:#000000;fill-opacity:1;stroke:none;display:inline;opacity:0.3"
       d="M 6.5 3.0625 L 2 6.4375 L 6.5 9.8125 L 2 13.1875 L 11 19.9375 L 20 13.1875 L 15.5 9.8125 L 20 6.4375 L 15.5 3.0625 L 11 6.4375 L 6.5 3.0625 z M 6.5 3.53125 L 10.78125 6.75 A 0.37351692 0.37351692 0 0 0 11.21875 6.75 L 15.5 3.53125 L 19.375 6.4375 L 15.28125 9.5 A 0.37351692 0.37351692 0 0 0 15.28125 10.125 L 19.375 13.1875 L 11 19.46875 L 2.625 13.1875 L 5.46875 11.0625 L 4.90625 11.78125 A 0.37351692 0.37351692 0 0 0 5.1875 12.375 L 6.6875 12.375 C 6.8876849 14.601916 8.7219908 16.375 11 16.375 C 13.410982 16.375 15.375 14.410982 15.375 12 C 15.375 9.5890173 13.410982 7.625 11 7.625 A 0.37351692 0.37351692 0 0 0 10.75 7.71875 A 0.37351692 0.37351692 0 0 0 10.625 8 L 10.625 9.75 A 0.37351692 0.37351692 0 0 0 10.71875 10 A 0.37351692 0.37351692 0 0 0 11 10.125 C 12.039856 10.125 12.875 10.960144 12.875 12 C 12.875 13.039856 12.039856 13.875 11 13.875 C 10.096696 13.875 9.4001429 13.222458 9.21875 12.375 L 10.84375 12.375 A 0.37351692 0.37351692 0 0 0 11.15625 11.78125 L 9.75 9.9375 L 8.34375 8.09375 A 0.37351692 0.37351692 0 0 0 7.71875 8.09375 L 6.6875 9.46875 L 2.625 6.4375 L 6.5 3.53125 z M 11 8 C 13.209139 8 15 9.7908606 15 12 C 15 14.209139 13.209139 16 11 16 C 8.790861 16 7 14.209139 7 12 L 5.1875 12 L 6.625 10.15625 L 8.03125 8.3125 L 9.4375 10.15625 L 10.84375 12 L 8.75 12 C 8.75 13.24195 9.75805 14.25 11 14.25 C 12.24195 14.25 13.25 13.24195 13.25 12 C 13.25 10.75805 12.24195 9.75 11 9.75 L 11 8 z "
       id="path4186" />
  </g>
</svg>
