<?xml version="1.0" encoding="UTF-8" standalone="no"?>
<!-- Created with Inkscape (http://www.inkscape.org/) -->

<svg
   xmlns:dc="http://purl.org/dc/elements/1.1/"
   xmlns:cc="http://creativecommons.org/ns#"
   xmlns:rdf="http://www.w3.org/1999/02/22-rdf-syntax-ns#"
   xmlns:svg="http://www.w3.org/2000/svg"
   xmlns="http://www.w3.org/2000/svg"
   xmlns:xlink="http://www.w3.org/1999/xlink"
   xmlns:sodipodi="http://sodipodi.sourceforge.net/DTD/sodipodi-0.dtd"
   xmlns:inkscape="http://www.inkscape.org/namespaces/inkscape"
   width="22"
   height="22"
   id="svg2"
   sodipodi:version="0.32"
   inkscape:version="0.48.1 r9760"
   version="1.0"
   sodipodi:docname="dropbox-status-busy.svg"
   inkscape:output_extension="org.inkscape.output.svg.inkscape"
   inkscape:export-filename="/home/matt/.icons/Sirocco/scalable/mimetypes/text-plain.png"
   inkscape:export-xdpi="90"
   inkscape:export-ydpi="90"
   sodipodi:modified="true"
   style="display:inline">
  <sodipodi:namedview
     id="base"
     pagecolor="#838383"
     bordercolor="#cc0000"
     borderopacity="1"
     inkscape:pageopacity="1"
     inkscape:pageshadow="2"
     inkscape:zoom="22.027846"
     inkscape:cx="8.9946006"
     inkscape:cy="12.304336"
     inkscape:document-units="px"
     inkscape:current-layer="layer1"
     width="128px"
     height="128px"
     inkscape:showpageshadow="false"
     inkscape:window-width="1920"
     inkscape:window-height="1030"
     inkscape:window-x="0"
     inkscape:window-y="25"
     showguides="true"
     inkscape:guide-bbox="true"
     showgrid="true"
     inkscape:window-maximized="1"
     borderlayer="true"
     inkscape:snap-global="true">
    <inkscape:grid
       enabled="true"
       visible="true"
       id="grid3231"
       type="xygrid"
       empspacing="8"
       snapvisiblegridlinesonly="true" />
    <sodipodi:guide
       orientation="1,0"
       position="12,17"
       id="guide3791" />
    <sodipodi:guide
       orientation="0,1"
       position="14,9"
       id="guide3793" />
  </sodipodi:namedview>
  <defs
     id="defs4">
    <linearGradient
       id="StandardGradient"
       gradientTransform="scale(0.9219544,1.0846523)"
       x1="11.998966"
       y1="0.92195445"
       x2="11.998966"
       y2="19.387045"
       gradientUnits="userSpaceOnUse">
      <stop
         style="stop-color:#000000;stop-opacity:0.23529412;"
         offset="0"
         id="stop3283" />
      <stop
         id="stop3850"
         offset="0.69999999"
         style="stop-color:#000000;stop-opacity:0.39215686;" />
      <stop
         style="stop-color:#000000;stop-opacity:0.55;"
         offset="1"
         id="stop2651" />
    </linearGradient>
    <radialGradient
       inkscape:collect="always"
       xlink:href="#SpecificGradient"
       id="radialGradient3855"
       gradientUnits="userSpaceOnUse"
       cx="36"
       cy="2"
       fx="36"
       fy="2"
       r="4"
       gradientTransform="translate(0,10)" />
    <linearGradient
       id="SpecificGradient"
       x1="10.406627"
       y1="2"
       x2="10.406627"
       y2="18.000771"
       gradientUnits="userSpaceOnUse">
      <stop
         style="stop-color:#e64b36;stop-opacity:1;"
         offset="0"
         id="stop3292" />
      <stop
         style="stop-color:#a31414;stop-opacity:1;"
         offset="1"
         id="stop3294" />
    </linearGradient>
    <radialGradient
       r="4"
       fy="2"
       fx="36"
       cy="2"
       cx="36"
       gradientUnits="userSpaceOnUse"
       id="radialGradient3038"
       xlink:href="#StandardGradient"
       inkscape:collect="always" />
    <radialGradient
       inkscape:collect="always"
       xlink:href="#StandardGradient"
       id="radialGradient4011"
       cx="12"
       cy="13"
       fx="12"
       fy="13"
       r="8"
       gradientUnits="userSpaceOnUse"
       gradientTransform="matrix(2,0,0,1.25,-12,-3.25)" />
    <filter
       inkscape:collect="always"
       id="filter4033">
      <feGaussianBlur
         inkscape:collect="always"
         stdDeviation="0.4"
         id="feGaussianBlur4035" />
    </filter>
    <filter
       inkscape:collect="always"
       id="filter4045">
      <feGaussianBlur
         inkscape:collect="always"
         stdDeviation="0.4"
         id="feGaussianBlur4047" />
    </filter>
    <filter
       inkscape:collect="always"
       id="filter4057">
      <feGaussianBlur
         inkscape:collect="always"
         stdDeviation="0.56"
         id="feGaussianBlur4059" />
    </filter>
    <radialGradient
       inkscape:collect="always"
       xlink:href="#StandardGradient"
       id="radialGradient4097"
       cx="12"
       cy="13.1"
       fx="12"
       fy="13.1"
       r="9"
       gradientTransform="matrix(1.7777778,-7.624749e-8,4.7654685e-8,1.1111112,-9.3333339,-1.5555552)"
       gradientUnits="userSpaceOnUse" />
    <radialGradient
       inkscape:collect="always"
       xlink:href="#StandardGradient"
       id="radialGradient4101"
       gradientUnits="userSpaceOnUse"
       gradientTransform="matrix(1.7777778,-7.624749e-8,4.7654685e-8,1.1111112,-9.3333339,-0.5555552)"
       cx="12"
       cy="13.1"
       fx="12"
       fy="13.1"
       r="9" />
    <radialGradient
       inkscape:collect="always"
       xlink:href="#StandardGradient"
       id="radialGradient4105"
       gradientUnits="userSpaceOnUse"
       gradientTransform="matrix(1.7777778,-7.624749e-8,4.7654685e-8,1.1111112,-9.3333339,-1.5555552)"
       cx="12"
       cy="13.1"
       fx="12"
       fy="13.1"
       r="9" />
    <radialGradient
       inkscape:collect="always"
       xlink:href="#StandardGradient"
       id="radialGradient4112"
       gradientUnits="userSpaceOnUse"
       gradientTransform="matrix(1.7777778,-7.624749e-8,4.7654685e-8,1.1111112,-9.3333339,-1.5555552)"
       cx="12"
       cy="13.1"
       fx="12"
       fy="13.1"
       r="9" />
    <radialGradient
       inkscape:collect="always"
       xlink:href="#StandardGradient"
       id="radialGradient4116"
       gradientUnits="userSpaceOnUse"
       gradientTransform="matrix(1.7777778,-7.624749e-8,4.7654685e-8,1.1111112,-9.3333339,-1.5555552)"
       cx="12"
       cy="13.1"
       fx="12"
       fy="13.1"
       r="9" />
    <radialGradient
       inkscape:collect="always"
       xlink:href="#StandardGradient"
       id="radialGradient4123"
       gradientUnits="userSpaceOnUse"
       gradientTransform="matrix(1.7777778,-7.624749e-8,4.7654685e-8,1.1111112,-9.3333339,-1.5555552)"
       cx="12"
       cy="13.1"
       fx="12"
       fy="13.1"
       r="9" />
    <radialGradient
       inkscape:collect="always"
       xlink:href="#StandardGradient"
       id="radialGradient4127"
       gradientUnits="userSpaceOnUse"
       gradientTransform="matrix(1.7777778,-7.624749e-8,4.7654685e-8,1.1111112,-9.3333339,-1.5555552)"
       cx="12"
       cy="13.1"
       fx="12"
       fy="13.1"
       r="9" />
    <radialGradient
       inkscape:collect="always"
       xlink:href="#StandardGradient"
       id="radialGradient4132"
       gradientUnits="userSpaceOnUse"
       gradientTransform="matrix(1.7777778,-7.624749e-8,4.7654685e-8,1.1111112,-9.3333339,-1.5555552)"
       cx="12"
       cy="13.1"
       fx="12"
       fy="13.1"
       r="9" />
    <radialGradient
       inkscape:collect="always"
       xlink:href="#StandardGradient"
       id="radialGradient4139"
       gradientUnits="userSpaceOnUse"
       gradientTransform="matrix(1.7777778,-7.624749e-8,4.7654685e-8,1.1111112,-9.3333339,-0.5555552)"
       cx="12"
       cy="13.1"
       fx="12"
       fy="13.1"
       r="9" />
    <radialGradient
       inkscape:collect="always"
       xlink:href="#StandardGradient"
       id="radialGradient4141"
       gradientUnits="userSpaceOnUse"
       gradientTransform="matrix(1.7777778,-7.624749e-8,4.7654685e-8,1.1111112,-9.3333339,-1.5555552)"
       cx="12"
       cy="13.1"
       fx="12"
       fy="13.1"
       r="9" />
  </defs>
  <metadata
     id="metadata7">
    <rdf:RDF>
      <cc:Work
         rdf:about="">
        <dc:format>image/svg+xml</dc:format>
        <dc:type
           rdf:resource="http://purl.org/dc/dcmitype/StillImage" />
        <dc:title></dc:title>
      </cc:Work>
    </rdf:RDF>
  </metadata>
  <g
     style="display:inline"
     inkscape:label="Calque 1"
     id="layer1"
     inkscape:groupmode="layer">
    <path
       style="fill:#ffffff;fill-opacity:1;stroke:none;display:inline;opacity:0.05"
       d="M 6.34375 2.03125 A 1.0289978 1.0289978 0 0 0 5.875 2.25 L 1.375 5.625 A 1.0289978 1.0289978 0 0 0 1.375 7.25 L 4.78125 9.8125 L 1.375 12.375 A 1.0289978 1.0289978 0 0 0 1.375 14 L 10.375 20.75 A 1.0289978 1.0289978 0 0 0 11.625 20.75 L 20.625 14 A 1.0289978 1.0289978 0 0 0 20.625 12.375 L 17.21875 9.8125 L 20.625 7.25 A 1.0289978 1.0289978 0 0 0 20.625 5.625 L 16.125 2.25 A 1.0289978 1.0289978 0 0 0 14.875 2.25 L 11 5.15625 L 7.125 2.25 A 1.0289978 1.0289978 0 0 0 6.34375 2.03125 z M 6.5 3.0625 L 11 6.4375 L 15.5 3.0625 L 20 6.4375 L 15.5 9.8125 L 20 13.1875 L 11 19.9375 L 2 13.1875 L 6.5 9.8125 L 2 6.4375 L 6.5 3.0625 z M 11 8 C 8.790861 8 7 9.790861 7 12 L 5.1875 12 L 6.625 13.84375 L 8.03125 15.6875 L 9.4375 13.84375 L 10.84375 12 L 8.75 12 C 8.75 10.75805 9.75805 9.75 11 9.75 C 12.24195 9.75 13.25 10.75805 13.25 12 C 13.25 13.24195 12.24195 14.25 11 14.25 L 11 16 C 13.209139 16 15 14.209139 15 12 C 15 9.790861 13.209139 8 11 8 z M 7.875 12.5625 A 1.0289978 1.0289978 0 0 0 8.75 13.03125 L 8.625 13.21875 L 8.03125 14 L 7.4375 13.21875 L 7.25 13 A 1.0289978 1.0289978 0 0 0 7.875 12.5625 z "
       id="path4114" />
    <rect
       style="opacity:0.5;color:#000000;fill:#ff00ff;fill-opacity:1;fill-rule:nonzero;stroke:none;stroke-width:2;marker:none;visibility:visible;display:inline;overflow:visible;enable-background:accumulate"
       id="rect3047"
       width="22"
       height="22"
       x="-30"
       y="0" />
    <rect
       style="color:#000000;fill:url(#radialGradient3038);fill-opacity:1;fill-rule:nonzero;stroke:none;stroke-width:2;marker:none;visibility:visible;display:inline;overflow:visible;enable-background:accumulate"
       id="rect3841"
       width="8"
       height="8"
       x="32"
       y="-2" />
    <rect
       y="8"
       x="32"
       height="8"
       width="8"
       id="rect3853"
       style="color:#000000;fill:url(#radialGradient3855);fill-opacity:1;fill-rule:nonzero;stroke:none;stroke-width:2;marker:none;visibility:visible;display:inline;overflow:visible;enable-background:accumulate" />
    <text
       xml:space="preserve"
       style="font-size:1px;font-style:normal;font-variant:normal;font-weight:normal;font-stretch:normal;text-align:start;line-height:125%;letter-spacing:0px;word-spacing:0px;writing-mode:lr-tb;text-anchor:start;fill:#000000;fill-opacity:1;stroke:none;font-family:Trebuchet MS;-inkscape-font-specification:Trebuchet MS"
       x="34"
       y="19"
       id="text3977"
       sodipodi:linespacing="125%"><tspan
         sodipodi:role="line"
         x="34"
         y="19"
         id="tspan3805">-0.875px /blur 5 / opacity 40</tspan></text>
    <rect
       style="color:#000000;fill:#000000;fill-opacity:1;fill-rule:nonzero;stroke:none;stroke-width:2;marker:none;visibility:visible;display:inline;overflow:visible;enable-background:accumulate"
       id="rect3981"
       width="1"
       height="1"
       x="32"
       y="18" />
    <text
       sodipodi:linespacing="125%"
       id="text3983"
       y="21"
       x="34"
       style="font-size:1px;font-style:normal;font-variant:normal;font-weight:normal;font-stretch:normal;text-align:start;line-height:125%;letter-spacing:0px;word-spacing:0px;writing-mode:lr-tb;text-anchor:start;fill:#000000;fill-opacity:1;stroke:none;font-family:Trebuchet MS;-inkscape-font-specification:Trebuchet MS"
       xml:space="preserve"><tspan
         y="21"
         x="34"
         id="tspan3985"
         sodipodi:role="line">0px /blur 7 / opacity 20</tspan></text>
    <rect
       y="20"
       x="32"
       height="1"
       width="1"
       id="rect3987"
       style="color:#000000;fill:#ffffff;fill-opacity:1;fill-rule:nonzero;stroke:none;stroke-width:2;marker:none;visibility:visible;display:inline;overflow:visible;enable-background:accumulate" />
    <text
       xml:space="preserve"
       style="font-size:1px;font-style:normal;font-variant:normal;font-weight:normal;font-stretch:normal;text-align:start;line-height:125%;letter-spacing:0px;word-spacing:0px;writing-mode:lr-tb;text-anchor:start;fill:#000000;fill-opacity:1;stroke:none;font-family:Trebuchet MS;-inkscape-font-specification:Trebuchet MS"
       x="34"
       y="23"
       id="text3989"
       sodipodi:linespacing="125%"><tspan
         sodipodi:role="line"
         x="34"
         y="23"
         id="tspan3995">-0.5px /blur 5 / opacity 40</tspan></text>
    <rect
       style="color:#000000;fill:#ffffff;fill-opacity:1;fill-rule:nonzero;stroke:none;stroke-width:2;marker:none;visibility:visible;display:inline;overflow:visible;enable-background:accumulate"
       id="rect3993"
       width="1"
       height="1"
       x="32"
       y="22" />
    <path
       inkscape:connector-curvature="0"
       style="fill:url(#radialGradient4097);fill-opacity:1;stroke:none;display:inline"
       d="m 6.5,3.0625 -4.5,3.375 4.5,3.375 -4.5,3.375 9,6.75 9,-6.75 L 15.5,9.8125 20,6.4375 15.5,3.0625 11,6.4375 6.5,3.0625 z M 11,8 c 2.209139,0 4,1.790861 4,4 0,2.209139 -1.790861,4 -4,4 l 0,-1.75 c 1.24195,0 2.25,-1.00805 2.25,-2.25 C 13.25,10.75805 12.24195,9.75 11,9.75 9.75805,9.75 8.75,10.75805 8.75,12 L 10.84375,12 9.4375,13.84375 8.03125,15.6875 6.625,13.84375 5.1875,12 7,12 C 7,9.790861 8.790861,8 11,8 z"
       id="path2928" />
    <path
       style="fill:#ffffff;fill-opacity:1;stroke:none;display:inline;opacity:0.2"
       d="M 2.65625 6.9375 L 2 7.4375 L 5.84375 10.3125 L 6.5 9.8125 L 2.65625 6.9375 z M 19.34375 6.9375 L 15.5 9.8125 L 16.15625 10.3125 L 20 7.4375 L 19.34375 6.9375 z M 11 8 C 8.790861 8 7 9.790861 7 12 L 5.1875 12 L 5.96875 13 L 7 13 C 7 10.790861 8.790861 9 11 9 C 13.039019 9 14.690434 10.527954 14.9375 12.5 C 14.958113 12.335468 15 12.17012 15 12 C 15 9.790861 13.209139 8 11 8 z M 9 12 C 8.8476996 12.303232 8.75 12.637765 8.75 13 L 10.09375 13 L 10.84375 12 L 9 12 z M 13.21875 12.5 C 12.99765 13.510297 12.076303 14.25 11 14.25 L 11 15.25 C 12.24195 15.25 13.25 14.24195 13.25 13 C 13.25 12.834353 13.252778 12.655488 13.21875 12.5 z M 2.65625 13.6875 L 2 14.1875 L 11 20.9375 L 20 14.1875 L 19.34375 13.6875 L 11 19.9375 L 2.65625 13.6875 z "
       id="path4099" />
    <path
       style="fill:#000000;fill-opacity:1;stroke:none;display:inline;opacity:0.3"
       d="M 6.5 3.0625 L 2 6.4375 L 6.5 9.8125 L 2 13.1875 L 11 19.9375 L 20 13.1875 L 15.5 9.8125 L 20 6.4375 L 15.5 3.0625 L 11 6.4375 L 6.5 3.0625 z M 6.5 3.53125 L 10.78125 6.75 A 0.37566964 0.37566964 0 0 0 11.21875 6.75 L 15.5 3.53125 L 19.375 6.4375 L 15.28125 9.5 A 0.37566964 0.37566964 0 0 0 15.28125 10.125 L 19.375 13.1875 L 11 19.46875 L 2.625 13.1875 L 6.71875 10.125 A 0.37566964 0.37566964 0 0 0 6.71875 9.5 L 2.625 6.4375 L 6.5 3.53125 z M 11 7.625 C 8.7208917 7.625 6.8877857 9.3970058 6.6875 11.625 L 5.1875 11.625 A 0.37566964 0.37566964 0 0 0 4.90625 12.21875 L 6.34375 14.0625 L 6.3125 14.0625 L 7.71875 15.90625 A 0.37566964 0.37566964 0 0 0 7.78125 15.96875 A 0.37566964 0.37566964 0 0 0 8.34375 15.90625 L 9.75 14.0625 L 11.15625 12.21875 A 0.37566964 0.37566964 0 0 0 10.84375 11.625 L 9.21875 11.625 C 9.3999297 10.778502 10.097707 10.125 11 10.125 C 12.038691 10.125 12.875 10.961309 12.875 12 C 12.875 13.038691 12.038691 13.875 11 13.875 A 0.37566964 0.37566964 0 0 0 10.625 14.25 L 10.625 16 A 0.37566964 0.37566964 0 0 0 11 16.375 C 13.412146 16.375 15.375 14.412146 15.375 12 C 15.375 9.5878544 13.412146 7.625 11 7.625 z M 11 8 C 13.209139 8 15 9.790861 15 12 C 15 14.209139 13.209139 16 11 16 L 11 14.25 C 12.24195 14.25 13.25 13.24195 13.25 12 C 13.25 10.75805 12.24195 9.75 11 9.75 C 9.75805 9.75 8.75 10.75805 8.75 12 L 10.84375 12 L 9.4375 13.84375 L 8.03125 15.6875 L 6.625 13.84375 L 5.1875 12 L 7 12 C 7 9.790861 8.790861 8 11 8 z "
       id="path4119" />
    <path
       style="fill:#000000;fill-opacity:1;stroke:none;display:inline;opacity:0.3"
       d="M 6.5 3.0625 L 2 6.4375 L 2.65625 6.9375 L 6.5 4.0625 L 11 7.4375 L 15.5 4.0625 L 19.34375 6.9375 L 20 6.4375 L 15.5 3.0625 L 11 6.4375 L 6.5 3.0625 z M 11 9.75 C 9.75805 9.75 8.75 10.75805 8.75 12 L 9 12 C 9.3698723 11.26358 10.120285 10.75 11 10.75 C 12.076303 10.75 12.99765 11.489703 13.21875 12.5 C 13.252778 12.344512 13.25 12.165647 13.25 12 C 13.25 10.75805 12.24195 9.75 11 9.75 z M 5.84375 10.3125 L 2 13.1875 L 2.65625 13.6875 L 6.5 10.8125 L 5.84375 10.3125 z M 16.15625 10.3125 L 15.5 10.8125 L 19.34375 13.6875 L 20 13.1875 L 16.15625 10.3125 z M 14.9375 12.5 C 14.690434 14.472046 13.039019 16 11 16 L 11 17 C 13.209139 17 15 15.209139 15 13 C 15 12.82988 14.958113 12.664532 14.9375 12.5 z M 5.1875 13 L 6.625 14.84375 L 8.03125 16.6875 L 9.4375 14.84375 L 10.84375 13 L 10.09375 13 L 9.4375 13.84375 L 8.03125 15.6875 L 6.625 13.84375 L 5.96875 13 L 5.1875 13 z "
       id="path4135" />
  </g>
</svg>
