<?xml version="1.0" encoding="UTF-8" standalone="no"?>
<!-- Created with Inkscape (http://www.inkscape.org/) -->

<svg
   xmlns:dc="http://purl.org/dc/elements/1.1/"
   xmlns:cc="http://creativecommons.org/ns#"
   xmlns:rdf="http://www.w3.org/1999/02/22-rdf-syntax-ns#"
   xmlns:svg="http://www.w3.org/2000/svg"
   xmlns="http://www.w3.org/2000/svg"
   xmlns:xlink="http://www.w3.org/1999/xlink"
   xmlns:sodipodi="http://sodipodi.sourceforge.net/DTD/sodipodi-0.dtd"
   xmlns:inkscape="http://www.inkscape.org/namespaces/inkscape"
   width="22"
   height="22"
   id="svg2"
   sodipodi:version="0.32"
   inkscape:version="0.48.1 r9760"
   version="1.0"
   sodipodi:docname="transmission-tray-icon.svg"
   inkscape:output_extension="org.inkscape.output.svg.inkscape"
   inkscape:export-filename="/home/matt/.icons/Sirocco/scalable/mimetypes/text-plain.png"
   inkscape:export-xdpi="90"
   inkscape:export-ydpi="90"
   sodipodi:modified="true"
   style="display:inline">
  <sodipodi:namedview
     id="base"
     pagecolor="#838383"
     bordercolor="#cc0000"
     borderopacity="1"
     inkscape:pageopacity="1"
     inkscape:pageshadow="2"
     inkscape:zoom="7.8580484"
     inkscape:cx="-19.031269"
     inkscape:cy="-2.1458788"
     inkscape:document-units="px"
     inkscape:current-layer="layer1"
     width="128px"
     height="128px"
     inkscape:showpageshadow="false"
     inkscape:window-width="1920"
     inkscape:window-height="1030"
     inkscape:window-x="0"
     inkscape:window-y="25"
     showguides="true"
     inkscape:guide-bbox="true"
     showgrid="true"
     inkscape:window-maximized="1"
     borderlayer="true"
     inkscape:snap-global="true">
    <inkscape:grid
       enabled="true"
       visible="true"
       id="grid3231"
       type="xygrid"
       empspacing="8"
       snapvisiblegridlinesonly="true" />
    <sodipodi:guide
       orientation="1,0"
       position="12,17"
       id="guide3791" />
    <sodipodi:guide
       orientation="0,1"
       position="14,9"
       id="guide3793" />
  </sodipodi:namedview>
  <defs
     id="defs4">
    <linearGradient
       id="StandardGradient"
       gradientTransform="scale(0.9219544,1.0846523)"
       x1="11.998966"
       y1="0.92195445"
       x2="11.998966"
       y2="19.387045"
       gradientUnits="userSpaceOnUse">
      <stop
         style="stop-color:#000000;stop-opacity:0.23529412;"
         offset="0"
         id="stop3283" />
      <stop
         id="stop3850"
         offset="0.69999999"
         style="stop-color:#000000;stop-opacity:0.39215686;" />
      <stop
         style="stop-color:#000000;stop-opacity:0.55;"
         offset="1"
         id="stop2651" />
    </linearGradient>
    <radialGradient
       inkscape:collect="always"
       xlink:href="#StandardGradient"
       id="radialGradient3820"
       cx="12"
       cy="13.130136"
       fx="12"
       fy="13.130136"
       r="8.9818287"
       gradientTransform="matrix(1.7813744,2.7895834e-8,-1.9178386e-8,1.2246949,-10.376493,-3.080411)"
       gradientUnits="userSpaceOnUse" />
    <radialGradient
       inkscape:collect="always"
       xlink:href="#SpecificGradient"
       id="radialGradient3855"
       gradientUnits="userSpaceOnUse"
       cx="36"
       cy="2"
       fx="36"
       fy="2"
       r="4"
       gradientTransform="translate(0,10)" />
    <linearGradient
       id="SpecificGradient"
       x1="10.406627"
       y1="2"
       x2="10.406627"
       y2="18.000771"
       gradientUnits="userSpaceOnUse">
      <stop
         style="stop-color:#e64b36;stop-opacity:1;"
         offset="0"
         id="stop3292" />
      <stop
         style="stop-color:#a31414;stop-opacity:1;"
         offset="1"
         id="stop3294" />
    </linearGradient>
    <radialGradient
       r="4"
       fy="2"
       fx="36"
       cy="2"
       cx="36"
       gradientUnits="userSpaceOnUse"
       id="radialGradient3038"
       xlink:href="#StandardGradient"
       inkscape:collect="always" />
    <radialGradient
       inkscape:collect="always"
       xlink:href="#StandardGradient"
       id="radialGradient4035"
       cx="12"
       cy="12.995525"
       fx="12"
       fy="12.995525"
       r="7.9687824"
       gradientTransform="matrix(2.007835,0,0,1.1294072,-12.09402,28.32276)"
       gradientUnits="userSpaceOnUse" />
    <clipPath
       clipPathUnits="userSpaceOnUse"
       id="clipPath4061">
      <path
         id="path4063"
         d="m 10.875,18.964577 a 0.98082259,0.98082259 0 0 1 -0.09375,-0.03125 0.98082259,0.98082259 0 0 1 -0.46875,-0.28125 l -7,-7 a 0.98082259,0.98082259 0 0 1 0,-1.375 l 7,-6.9999998 a 0.98082259,0.98082259 0 0 1 1.375,0 l 7,6.9999998 a 0.98082259,0.98082259 0 0 1 0,1.375 l -7,7 a 0.98082259,0.98082259 0 0 1 -0.8125,0.3125 z m 0.125,-3 3,-3 -2,0 0,-3.9999998 2,0 -3,-3 -3,3 2,0 0,3.9999998 -2,0 3,3 z"
         style="fill:#ff00ff;fill-opacity:1;stroke:none;display:inline"
         inkscape:connector-curvature="0" />
    </clipPath>
    <filter
       inkscape:collect="always"
       id="filter4065">
      <feGaussianBlur
         inkscape:collect="always"
         stdDeviation="0.39888189"
         id="feGaussianBlur4067" />
    </filter>
    <clipPath
       clipPathUnits="userSpaceOnUse"
       id="clipPath4073">
      <path
         style="opacity:0.5;color:#000000;fill:#ff00ff;fill-opacity:1;fill-rule:nonzero;stroke:none;stroke-width:2;marker:none;visibility:visible;display:inline;overflow:visible;enable-background:accumulate"
         d="m -30,0 0,22 22,0 0,-22 -22,0 z m 10.8125,3 a 0.98082259,0.98082259 0 0 1 0.875,0.28125 l 7,7 a 0.98082259,0.98082259 0 0 1 0,1.375 l -7,7 a 0.98082259,0.98082259 0 0 1 -0.8125,0.3125 0.98082259,0.98082259 0 0 1 -0.09375,-0.03125 0.98082259,0.98082259 0 0 1 -0.46875,-0.28125 l -7,-7 a 0.98082259,0.98082259 0 0 1 0,-1.375 l 7,-7 A 0.98082259,0.98082259 0 0 1 -19.1875,3 z M -19,5.96875 l -3,3 2,0 0,4 -2,0 3,3 3,-3 -2,0 0,-4 2,0 -3,-3 z"
         id="path4075"
         inkscape:connector-curvature="0" />
    </clipPath>
    <filter
       inkscape:collect="always"
       id="filter4077">
      <feGaussianBlur
         inkscape:collect="always"
         stdDeviation="0.55843465"
         id="feGaussianBlur4079" />
    </filter>
    <clipPath
       clipPathUnits="userSpaceOnUse"
       id="clipPath4085">
      <path
         style="opacity:0.5;color:#000000;fill:#ff00ff;fill-opacity:1;fill-rule:nonzero;stroke:none;stroke-width:2;marker:none;visibility:visible;display:inline;overflow:visible;enable-background:accumulate"
         d="m -30,0 0,22 22,0 0,-22 -22,0 z m 10.8125,3 a 0.98082259,0.98082259 0 0 1 0.875,0.28125 l 7,7 a 0.98082259,0.98082259 0 0 1 0,1.375 l -7,7 a 0.98082259,0.98082259 0 0 1 -0.8125,0.3125 0.98082259,0.98082259 0 0 1 -0.09375,-0.03125 0.98082259,0.98082259 0 0 1 -0.46875,-0.28125 l -7,-7 a 0.98082259,0.98082259 0 0 1 0,-1.375 l 7,-7 A 0.98082259,0.98082259 0 0 1 -19.1875,3 z M -19,5.96875 l -3,3 2,0 0,4 -2,0 3,3 3,-3 -2,0 0,-4 2,0 -3,-3 z"
         id="path4087"
         inkscape:connector-curvature="0" />
    </clipPath>
    <filter
       inkscape:collect="always"
       id="filter3958">
      <feGaussianBlur
         inkscape:collect="always"
         stdDeviation="0.39888189"
         id="feGaussianBlur3960" />
    </filter>
    <radialGradient
       inkscape:collect="always"
       xlink:href="#StandardGradient"
       id="radialGradient3028"
       gradientUnits="userSpaceOnUse"
       gradientTransform="matrix(2.007835,0,0,1.1294072,-12.09402,-1.67724)"
       cx="12"
       cy="12.995525"
       fx="12"
       fy="12.995525"
       r="7.9687824" />
    <radialGradient
       inkscape:collect="always"
       xlink:href="#StandardGradient"
       id="radialGradient3809"
       gradientUnits="userSpaceOnUse"
       gradientTransform="matrix(2.007835,0,0,1.1294072,-12.09402,-1.67724)"
       cx="12"
       cy="12.995525"
       fx="12"
       fy="12.995525"
       r="7.9687824" />
    <radialGradient
       inkscape:collect="always"
       xlink:href="#StandardGradient"
       id="radialGradient3813"
       gradientUnits="userSpaceOnUse"
       gradientTransform="matrix(2.007835,0,0,1.1294072,-12.09402,-1.67724)"
       cx="12"
       cy="12.995525"
       fx="12"
       fy="12.995525"
       r="7.9687824" />
    <radialGradient
       inkscape:collect="always"
       xlink:href="#StandardGradient"
       id="radialGradient3817"
       gradientUnits="userSpaceOnUse"
       gradientTransform="matrix(2.007835,0,0,1.1294072,-12.09402,-1.67724)"
       cx="12"
       cy="12.995525"
       fx="12"
       fy="12.995525"
       r="7.9687824" />
    <radialGradient
       inkscape:collect="always"
       xlink:href="#StandardGradient"
       id="radialGradient3824"
       gradientUnits="userSpaceOnUse"
       gradientTransform="matrix(2.007835,0,0,1.1294072,-12.09402,-1.67724)"
       cx="12"
       cy="12.995525"
       fx="12"
       fy="12.995525"
       r="7.9687824" />
    <radialGradient
       inkscape:collect="always"
       xlink:href="#StandardGradient"
       id="radialGradient3828"
       gradientUnits="userSpaceOnUse"
       gradientTransform="matrix(2.007835,0,0,1.1294072,-12.09402,-1.67724)"
       cx="12"
       cy="12.995525"
       fx="12"
       fy="12.995525"
       r="7.9687824" />
    <radialGradient
       inkscape:collect="always"
       xlink:href="#StandardGradient"
       id="radialGradient3830"
       gradientUnits="userSpaceOnUse"
       gradientTransform="matrix(2.007835,0,0,1.1294072,-12.09402,-1.67724)"
       cx="12"
       cy="12.995525"
       fx="12"
       fy="12.995525"
       r="7.9687824" />
    <radialGradient
       inkscape:collect="always"
       xlink:href="#StandardGradient"
       id="radialGradient3837"
       gradientUnits="userSpaceOnUse"
       gradientTransform="matrix(2.007835,0,0,1.1294072,-12.09402,-0.67724)"
       cx="12"
       cy="12.995525"
       fx="12"
       fy="12.995525"
       r="7.9687824" />
    <radialGradient
       inkscape:collect="always"
       xlink:href="#StandardGradient"
       id="radialGradient3839"
       gradientUnits="userSpaceOnUse"
       gradientTransform="matrix(2.007835,0,0,1.1294072,-12.09402,-1.67724)"
       cx="12"
       cy="12.995525"
       fx="12"
       fy="12.995525"
       r="7.9687824" />
  </defs>
  <metadata
     id="metadata7">
    <rdf:RDF>
      <cc:Work
         rdf:about="">
        <dc:format>image/svg+xml</dc:format>
        <dc:type
           rdf:resource="http://purl.org/dc/dcmitype/StillImage" />
        <dc:title />
      </cc:Work>
    </rdf:RDF>
  </metadata>
  <g
     style="display:inline"
     inkscape:label="Calque 1"
     id="layer1"
     inkscape:groupmode="layer">
    <path
       style="fill:#ffffff;fill-opacity:1;stroke:none;display:inline;opacity:0.05"
       d="M 10.875 2 C 10.87489 2.000006 10.750109 2.0312373 10.75 2.03125 C 10.749891 2.0312627 10.656358 2.0312307 10.65625 2.03125 A 0.97550484 0.97550484 0 0 0 10.59375 2.0625 L 10.46875 2.09375 C 10.468622 2.0937883 10.312625 2.1249523 10.3125 2.125 C 10.312375 2.1250477 10.187621 2.1874432 10.1875 2.1875 L 10.0625 2.25 C 10.062383 2.2500657 9.9376115 2.3436759 9.9375 2.34375 C 9.9373885 2.3438241 9.8126057 2.4061678 9.8125 2.40625 C 9.8123943 2.4063322 9.7188494 2.4999102 9.71875 2.5 C 9.7186665 2.5000754 9.6484885 2.5708753 9.625 2.59375 C 9.620526 2.5981071 9.5937648 2.5937345 9.59375 2.59375 L 2.625 9.59375 C 2.6248772 9.593875 2.5001101 9.7498637 2.5 9.75 C 2.4998899 9.7501363 2.3750964 9.9061036 2.375 9.90625 L 2.28125 10.0625 C 2.2811682 10.062655 2.1875664 10.218588 2.1875 10.21875 C 2.1874336 10.218912 2.1250503 10.406082 2.125 10.40625 C 2.1249497 10.406418 2.0937838 10.593578 2.09375 10.59375 C 2.0937162 10.593922 2.062517 10.781076 2.0625 10.78125 C 2.062483 10.781424 2.0625 10.968575 2.0625 10.96875 C 2.0625 10.968925 2.062483 11.156076 2.0625 11.15625 C 2.062517 11.156424 2.0937162 11.343578 2.09375 11.34375 C 2.0937838 11.343922 2.1249497 11.531082 2.125 11.53125 C 2.1250503 11.531418 2.1874336 11.718588 2.1875 11.71875 C 2.1875664 11.718912 2.2811682 11.874845 2.28125 11.875 L 2.375 12.03125 C 2.3750964 12.031396 2.4998899 12.187364 2.5 12.1875 C 2.5001101 12.187636 2.6248772 12.343625 2.625 12.34375 L 9.59375 19.3125 L 9.625 19.34375 C 9.6538484 19.372723 9.687438 19.406192 9.6875 19.40625 C 9.6875931 19.406337 9.812401 19.49992 9.8125 19.5 C 9.812599 19.50008 9.9061456 19.593677 9.90625 19.59375 C 9.9063544 19.593823 10.031141 19.656184 10.03125 19.65625 C 10.031359 19.656316 10.156136 19.718692 10.15625 19.71875 L 10.28125 19.78125 C 10.281367 19.7813 10.406129 19.843709 10.40625 19.84375 C 10.406278 19.84376 10.42631 19.84037 10.4375 19.84375 C 10.473869 19.854736 10.531156 19.874975 10.53125 19.875 L 10.625 19.90625 A 0.97550484 0.97550484 0 0 0 10.78125 19.9375 L 10.90625 19.9375 L 11 19.9375 L 11.125 19.9375 C 11.125103 19.937492 11.218647 19.937514 11.21875 19.9375 C 11.218853 19.937486 11.343648 19.90627 11.34375 19.90625 L 11.46875 19.875 L 11.5625 19.84375 L 11.65625 19.8125 C 11.656347 19.812463 11.781155 19.781293 11.78125 19.78125 C 11.781345 19.781207 11.874908 19.718798 11.875 19.71875 C 11.875092 19.718702 11.968661 19.656303 11.96875 19.65625 C 11.968839 19.656197 12.062414 19.625058 12.0625 19.625 C 12.062586 19.624942 12.156168 19.531313 12.15625 19.53125 C 12.156332 19.531187 12.249921 19.468818 12.25 19.46875 L 12.3125 19.40625 C 12.31255 19.406202 12.351768 19.367588 12.375 19.34375 C 12.386616 19.331831 12.406227 19.312525 12.40625 19.3125 L 19.375 12.34375 C 19.375123 12.343625 19.49989 12.187636 19.5 12.1875 C 19.50011 12.187364 19.624904 12.031396 19.625 12.03125 L 19.71875 11.875 C 19.718832 11.874845 19.812434 11.718912 19.8125 11.71875 C 19.812566 11.718588 19.87495 11.531418 19.875 11.53125 C 19.87505 11.531082 19.906216 11.343922 19.90625 11.34375 C 19.906284 11.343578 19.937483 11.156424 19.9375 11.15625 C 19.937517 11.156076 19.9375 10.968925 19.9375 10.96875 C 19.9375 10.968575 19.937517 10.781424 19.9375 10.78125 C 19.937483 10.781076 19.906284 10.593922 19.90625 10.59375 C 19.906216 10.593578 19.87505 10.406418 19.875 10.40625 C 19.87495 10.406082 19.812566 10.218912 19.8125 10.21875 C 19.812434 10.218588 19.718832 10.062655 19.71875 10.0625 L 19.625 9.90625 C 19.624904 9.9061036 19.50011 9.7501363 19.5 9.75 C 19.49989 9.7498637 19.375123 9.593875 19.375 9.59375 L 12.375 2.59375 L 12.3125 2.53125 C 12.312419 2.531176 12.218836 2.4375689 12.21875 2.4375 L 12.125 2.375 C 12.12491 2.3749365 12.000094 2.312558 12 2.3125 C 11.999906 2.312442 11.906347 2.2500522 11.90625 2.25 C 11.906153 2.2499478 11.8126 2.1875462 11.8125 2.1875 C 11.8124 2.1874538 11.687603 2.15629 11.6875 2.15625 C 11.687397 2.15621 11.593855 2.0937837 11.59375 2.09375 L 11.46875 2.0625 L 11.34375 2.03125 C 11.343642 2.0312293 11.250109 2.0312641 11.25 2.03125 C 11.249891 2.0312359 11.12511 2.0000074 11.125 2 L 11 2 L 10.875 2 z M 10.8125 3 A 0.98082259 0.98082259 0 0 1 11.6875 3.28125 L 18.6875 10.28125 A 0.98082259 0.98082259 0 0 1 18.6875 11.65625 L 11.6875 18.65625 A 0.98082259 0.98082259 0 0 1 10.875 18.96875 A 0.98082259 0.98082259 0 0 1 10.78125 18.9375 A 0.98082259 0.98082259 0 0 1 10.3125 18.65625 L 3.3125 11.65625 A 0.98082259 0.98082259 0 0 1 3.3125 10.28125 L 10.3125 3.28125 A 0.98082259 0.98082259 0 0 1 10.8125 3 z M 11 5.96875 L 8 8.96875 L 10 8.96875 L 10 12.96875 L 8 12.96875 L 11 15.96875 L 14 12.96875 L 12 12.96875 L 12 8.96875 L 14 8.96875 L 11 5.96875 z M 11 7.34375 L 11.6875 8.03125 A 0.97550484 0.97550484 0 0 0 11.03125 8.96875 L 11.03125 12.96875 A 0.97550484 0.97550484 0 0 0 11.6875 13.875 L 11 14.59375 L 10.3125 13.90625 A 0.97550484 0.97550484 0 0 0 10.96875 12.96875 L 10.96875 8.96875 A 0.97550484 0.97550484 0 0 0 10.3125 8.0625 L 11 7.34375 z "
       id="path3815" />
    <path
       id="path4081"
       d="m -19.125,19.495795 a 0.98082259,0.98082259 0 0 1 -0.09375,-0.03125 0.98082259,0.98082259 0 0 1 -0.46875,-0.28125 l -7,-7 a 0.98082259,0.98082259 0 0 1 0,-1.375 l 7,-6.9999999 a 0.98082259,0.98082259 0 0 1 1.375,0 l 7,6.9999999 a 0.98082259,0.98082259 0 0 1 0,1.375 l -7,7 a 0.98082259,0.98082259 0 0 1 -0.8125,0.3125 z m 0.125,-3 3,-3 -2,0 0,-3.9999999 2,0 -3,-3 -3,3 2,0 0,3.9999999 -2,0 3,3 z"
       style="opacity:0.4;fill:#ffffff;fill-opacity:1;stroke:none;display:inline;filter:url(#filter3958)"
       inkscape:connector-curvature="0"
       clip-path="url(#clipPath4085)"
       transform="translate(30,30)" />
    <path
       id="path4069"
       d="m -19.125,18.964577 a 0.98082259,0.98082259 0 0 1 -0.09375,-0.03125 0.98082259,0.98082259 0 0 1 -0.46875,-0.28125 l -7,-7 a 0.98082259,0.98082259 0 0 1 0,-1.375 l 7,-7 a 0.98082259,0.98082259 0 0 1 1.375,0 l 7,7 a 0.98082259,0.98082259 0 0 1 0,1.375 l -7,7 a 0.98082259,0.98082259 0 0 1 -0.8125,0.3125 z m 0.125,-3 3,-3 -2,0 0,-4 2,0 -3,-3 -3,3 2,0 0,4 -2,0 3,3 z"
       style="opacity:0.2;fill:none;stroke:#ffffff;display:inline;filter:url(#filter4077)"
       inkscape:connector-curvature="0"
       clip-path="url(#clipPath4073)"
       transform="translate(30,30)" />
    <rect
       style="opacity:0.5;color:#000000;fill:#ff00ff;fill-opacity:1;fill-rule:nonzero;stroke:none;stroke-width:2;marker:none;visibility:visible;display:inline;overflow:visible;enable-background:accumulate"
       id="rect3047"
       width="22"
       height="22"
       x="-30"
       y="0" />
    <rect
       style="color:#000000;fill:url(#radialGradient3038);fill-opacity:1;fill-rule:nonzero;stroke:none;stroke-width:2;marker:none;visibility:visible;display:inline;overflow:visible;enable-background:accumulate"
       id="rect3841"
       width="8"
       height="8"
       x="32"
       y="-2" />
    <rect
       y="8"
       x="32"
       height="8"
       width="8"
       id="rect3853"
       style="color:#000000;fill:url(#radialGradient3855);fill-opacity:1;fill-rule:nonzero;stroke:none;stroke-width:2;marker:none;visibility:visible;display:inline;overflow:visible;enable-background:accumulate" />
    <text
       xml:space="preserve"
       style="font-size:1px;font-style:normal;font-variant:normal;font-weight:normal;font-stretch:normal;text-align:start;line-height:125%;letter-spacing:0px;word-spacing:0px;writing-mode:lr-tb;text-anchor:start;fill:#000000;fill-opacity:1;stroke:none;font-family:Trebuchet MS;-inkscape-font-specification:Trebuchet MS"
       x="34"
       y="19"
       id="text3977"
       sodipodi:linespacing="125%"><tspan
         sodipodi:role="line"
         id="tspan3979"
         x="34"
         y="19">-0.875px /blur 5 / opacity 40</tspan></text>
    <rect
       style="color:#000000;fill:#000000;fill-opacity:1;fill-rule:nonzero;stroke:none;stroke-width:2;marker:none;visibility:visible;display:inline;overflow:visible;enable-background:accumulate"
       id="rect3981"
       width="1"
       height="1"
       x="32"
       y="18" />
    <text
       sodipodi:linespacing="125%"
       id="text3983"
       y="21"
       x="34"
       style="font-size:1px;font-style:normal;font-variant:normal;font-weight:normal;font-stretch:normal;text-align:start;line-height:125%;letter-spacing:0px;word-spacing:0px;writing-mode:lr-tb;text-anchor:start;fill:#000000;fill-opacity:1;stroke:none;font-family:Trebuchet MS;-inkscape-font-specification:Trebuchet MS"
       xml:space="preserve"><tspan
         y="21"
         x="34"
         id="tspan3985"
         sodipodi:role="line">0px /blur 7 / opacity 20</tspan></text>
    <rect
       y="20"
       x="32"
       height="1"
       width="1"
       id="rect3987"
       style="color:#000000;fill:#ffffff;fill-opacity:1;fill-rule:nonzero;stroke:none;stroke-width:2;marker:none;visibility:visible;display:inline;overflow:visible;enable-background:accumulate" />
    <text
       xml:space="preserve"
       style="font-size:1px;font-style:normal;font-variant:normal;font-weight:normal;font-stretch:normal;text-align:start;line-height:125%;letter-spacing:0px;word-spacing:0px;writing-mode:lr-tb;text-anchor:start;fill:#000000;fill-opacity:1;stroke:none;font-family:Trebuchet MS;-inkscape-font-specification:Trebuchet MS"
       x="34"
       y="23"
       id="text3989"
       sodipodi:linespacing="125%"><tspan
         sodipodi:role="line"
         x="34"
         y="23"
         id="tspan3995">-0.5px /blur 5 / opacity 40</tspan></text>
    <rect
       style="color:#000000;fill:#ffffff;fill-opacity:1;fill-rule:nonzero;stroke:none;stroke-width:2;marker:none;visibility:visible;display:inline;overflow:visible;enable-background:accumulate"
       id="rect3993"
       width="1"
       height="1"
       x="32"
       y="22" />
    <path
       inkscape:connector-curvature="0"
       style="fill:url(#radialGradient4035);fill-opacity:1;stroke:none;display:inline"
       d="m 10.875,48.964577 a 0.98082259,0.98082259 0 0 1 -0.09375,-0.03125 0.98082259,0.98082259 0 0 1 -0.46875,-0.28125 l -7,-7 a 0.98082259,0.98082259 0 0 1 0,-1.375 l 7,-7 a 0.98082259,0.98082259 0 0 1 1.375,0 l 7,7 a 0.98082259,0.98082259 0 0 1 0,1.375 l -7,7 a 0.98082259,0.98082259 0 0 1 -0.8125,0.3125 z m 0.125,-3 3,-3 -2,0 0,-4 2,0 -3,-3 -3,3 2,0 0,4 -2,0 3,3 z"
       id="path3675" />
    <path
       id="path4055"
       d="m 10.875,19.495795 a 0.98082259,0.98082259 0 0 1 -0.09375,-0.03125 0.98082259,0.98082259 0 0 1 -0.46875,-0.28125 l -7,-7 a 0.98082259,0.98082259 0 0 1 0,-1.375 l 7,-6.9999996 a 0.98082259,0.98082259 0 0 1 1.375,0 l 7,6.9999996 a 0.98082259,0.98082259 0 0 1 0,1.375 l -7,7 a 0.98082259,0.98082259 0 0 1 -0.8125,0.3125 z m 0.125,-3 3,-3 -2,0 0,-3.9999996 2,0 -3,-3 -3,3 2,0 0,3.9999996 -2,0 3,3 z"
       style="opacity:0.4;fill:none;stroke:#000000;display:inline;filter:url(#filter4065)"
       inkscape:connector-curvature="0"
       clip-path="url(#clipPath4061)"
       transform="translate(0,30)" />
    <path
       id="path3026"
       d="m 10.875,18.964577 a 0.98082259,0.98082259 0 0 1 -0.09375,-0.03125 0.98082259,0.98082259 0 0 1 -0.46875,-0.28125 l -7,-7 a 0.98082259,0.98082259 0 0 1 0,-1.375 l 7,-7 a 0.98082259,0.98082259 0 0 1 1.375,0 l 7,7 a 0.98082259,0.98082259 0 0 1 0,1.375 l -7,7 a 0.98082259,0.98082259 0 0 1 -0.8125,0.3125 z m 0.125,-3 3,-3 -2,0 0,-4 2,0 -3,-3 -3,3 2,0 0,4 -2,0 3,3 z"
       style="fill:url(#radialGradient3028);fill-opacity:1;stroke:none;display:inline"
       inkscape:connector-curvature="0" />
    <path
       style="fill:#ffffff;fill-opacity:1;stroke:none;display:inline;opacity:0.2"
       d="M 11 5.96875 L 8 8.96875 L 9 8.96875 L 11 6.96875 L 13 8.96875 L 14 8.96875 L 11 5.96875 z M 3.15625 11.46875 A 0.98082259 0.98082259 0 0 0 3.3125 12.65625 L 10.3125 19.65625 A 0.98082259 0.98082259 0 0 0 10.78125 19.9375 A 0.98082259 0.98082259 0 0 0 10.875 19.96875 A 0.98082259 0.98082259 0 0 0 11.6875 19.65625 L 18.6875 12.65625 A 0.98082259 0.98082259 0 0 0 18.84375 11.46875 A 0.98082259 0.98082259 0 0 1 18.6875 11.65625 L 11.6875 18.65625 A 0.98082259 0.98082259 0 0 1 10.875 18.96875 A 0.98082259 0.98082259 0 0 1 10.78125 18.9375 A 0.98082259 0.98082259 0 0 1 10.3125 18.65625 L 3.3125 11.65625 A 0.98082259 0.98082259 0 0 1 3.15625 11.46875 z M 8 12.96875 L 9 13.96875 L 10 13.96875 L 10 12.96875 L 8 12.96875 z M 12 12.96875 L 12 13.96875 L 13 13.96875 L 14 12.96875 L 12 12.96875 z "
       id="path3030" />
    <path
       style="fill:#000000;fill-opacity:1;stroke:none;display:inline;opacity:0.3"
       d="M 10.8125 3 A 0.98082259 0.98082259 0 0 0 10.3125 3.28125 L 3.3125 10.28125 A 0.98082259 0.98082259 0 0 0 3.3125 11.65625 L 10.3125 18.65625 A 0.98082259 0.98082259 0 0 0 10.78125 18.9375 A 0.98082259 0.98082259 0 0 0 10.875 18.96875 A 0.98082259 0.98082259 0 0 0 11.6875 18.65625 L 18.6875 11.65625 A 0.98082259 0.98082259 0 0 0 18.6875 10.28125 L 11.6875 3.28125 A 0.98082259 0.98082259 0 0 0 10.8125 3 z M 10.96875 3.53125 C 11.000026 3.5295368 10.968678 3.5310548 11 3.53125 C 11.031252 3.5333529 11.000184 3.5584973 11.03125 3.5625 C 11.062316 3.5665027 11.031735 3.5566123 11.0625 3.5625 C 11.093265 3.5683877 11.063401 3.5547492 11.09375 3.5625 C 11.124099 3.5702508 11.09518 3.5529149 11.125 3.5625 C 11.154181 3.5738838 11.127817 3.5806097 11.15625 3.59375 C 11.184683 3.6068903 11.15992 3.5789021 11.1875 3.59375 C 11.21508 3.6085979 11.192126 3.5772496 11.21875 3.59375 C 11.245374 3.6102504 11.19318 3.6069084 11.21875 3.625 C 11.24432 3.6430916 11.22558 3.6053844 11.25 3.625 C 11.27442 3.6446156 11.25807 3.6351832 11.28125 3.65625 C 11.30443 3.6773168 11.259396 3.6650603 11.28125 3.6875 L 18.28125 10.6875 L 18.3125 10.6875 C 18.329102 10.70612 18.296821 10.699346 18.3125 10.71875 C 18.327219 10.738891 18.330026 10.729168 18.34375 10.75 C 18.356447 10.771473 18.36336 10.759186 18.375 10.78125 C 18.385556 10.803853 18.365554 10.789411 18.375 10.8125 C 18.384446 10.835589 18.366685 10.82023 18.375 10.84375 C 18.382164 10.867646 18.400254 10.850785 18.40625 10.875 C 18.411064 10.899478 18.40263 10.881568 18.40625 10.90625 C 18.40987 10.930932 18.403832 10.912671 18.40625 10.9375 C 18.407461 10.962417 18.40625 10.943804 18.40625 10.96875 C 18.40625 10.993696 18.407461 10.975083 18.40625 11 C 18.403832 11.024829 18.40987 11.006568 18.40625 11.03125 C 18.40263 11.055932 18.411064 11.038022 18.40625 11.0625 C 18.400254 11.086715 18.382164 11.069854 18.375 11.09375 C 18.366685 11.11727 18.384446 11.101911 18.375 11.125 C 18.365554 11.148089 18.385556 11.133647 18.375 11.15625 C 18.36336 11.178314 18.356447 11.166027 18.34375 11.1875 C 18.330026 11.208332 18.327219 11.198609 18.3125 11.21875 C 18.296821 11.238154 18.329102 11.23138 18.3125 11.25 L 18.28125 11.25 L 11.28125 18.25 A 0.56088614 0.56088614 0 0 0 11.28125 18.28125 C 11.261251 18.302985 11.271214 18.2607 11.25 18.28125 C 11.228786 18.3018 11.27236 18.293202 11.25 18.3125 C 11.22764 18.331798 11.242181 18.294519 11.21875 18.3125 C 11.195319 18.330481 11.211926 18.327144 11.1875 18.34375 C 11.162161 18.358925 11.182419 18.361305 11.15625 18.375 C 11.130081 18.388695 11.151912 18.362831 11.125 18.375 C 11.097433 18.385603 11.121881 18.397248 11.09375 18.40625 C 11.065619 18.415252 11.091101 18.398879 11.0625 18.40625 C 11.033523 18.411966 11.060508 18.402208 11.03125 18.40625 C 11.001992 18.410292 11.029442 18.403896 11 18.40625 C 10.970558 18.408604 10.998278 18.405591 10.96875 18.40625 A 0.56088614 0.56088614 0 0 0 10.9375 18.40625 C 10.90242 18.396993 10.94059 18.386709 10.90625 18.375 C 10.87191 18.363291 10.908428 18.389102 10.875 18.375 C 10.841572 18.360898 10.8761 18.391425 10.84375 18.375 C 10.8114 18.358575 10.843611 18.362417 10.8125 18.34375 C 10.781389 18.325083 10.810967 18.364565 10.78125 18.34375 C 10.751533 18.322935 10.809424 18.335359 10.78125 18.3125 C 10.753076 18.289641 10.776492 18.30604 10.75 18.28125 C 10.723508 18.25646 10.743427 18.307847 10.71875 18.28125 A 0.56088614 0.56088614 0 0 0 10.71875 18.25 L 3.71875 11.25 C 3.701264 11.232208 3.704102 11.26862 3.6875 11.25 C 3.670898 11.23138 3.7031789 11.238154 3.6875 11.21875 C 3.6727811 11.198609 3.6699742 11.208332 3.65625 11.1875 C 3.6435529 11.166027 3.6366401 11.178314 3.625 11.15625 C 3.6144443 11.133647 3.6344465 11.148089 3.625 11.125 C 3.6155535 11.101911 3.6333149 11.11727 3.625 11.09375 C 3.6178362 11.069854 3.5997458 11.086715 3.59375 11.0625 C 3.5889363 11.038022 3.5973702 11.055932 3.59375 11.03125 C 3.5901298 11.006568 3.5961682 11.024829 3.59375 11 C 3.5925395 10.975083 3.59375 10.993696 3.59375 10.96875 C 3.59375 10.943804 3.5925395 10.962417 3.59375 10.9375 C 3.5961682 10.912671 3.5901298 10.930932 3.59375 10.90625 C 3.5973702 10.881568 3.5889363 10.899478 3.59375 10.875 C 3.5997458 10.850785 3.6178362 10.867646 3.625 10.84375 C 3.6333149 10.82023 3.6155535 10.835589 3.625 10.8125 C 3.6344465 10.789411 3.6144443 10.803853 3.625 10.78125 C 3.6366401 10.759186 3.6435529 10.771473 3.65625 10.75 C 3.6699742 10.729168 3.6727811 10.738891 3.6875 10.71875 C 3.7031789 10.699346 3.670898 10.70612 3.6875 10.6875 L 3.71875 10.6875 L 10.71875 3.6875 A 0.56088614 0.56088614 0 0 0 10.71875 3.65625 C 10.745062 3.6286561 10.721715 3.6818175 10.75 3.65625 C 10.778285 3.6306825 10.719897 3.6484004 10.75 3.625 C 10.780103 3.6015996 10.749496 3.6148546 10.78125 3.59375 C 10.813004 3.5726454 10.779269 3.6124427 10.8125 3.59375 C 10.845731 3.5750573 10.809224 3.5786779 10.84375 3.5625 C 10.878276 3.5463221 10.83937 3.5760741 10.875 3.5625 C 10.91063 3.5489259 10.869712 3.5733956 10.90625 3.5625 C 10.937086 3.5569962 10.906386 3.5661152 10.9375 3.5625 C 10.968614 3.5588848 10.937474 3.5329632 10.96875 3.53125 z M 10.875 5.40625 A 0.56088614 0.56088614 0 0 0 10.59375 5.5625 L 7.59375 8.5625 A 0.56088614 0.56088614 0 0 0 8 9.53125 L 9.4375 9.53125 L 9.4375 12.40625 L 8 12.40625 A 0.56088614 0.56088614 0 0 0 7.59375 13.375 L 10.59375 16.375 A 0.56088614 0.56088614 0 0 0 11.40625 16.375 L 14.40625 13.375 A 0.56088614 0.56088614 0 0 0 14 12.40625 L 12.5625 12.40625 L 12.5625 9.53125 L 14 9.53125 A 0.56088614 0.56088614 0 0 0 14.40625 8.5625 L 11.40625 5.5625 A 0.56088614 0.56088614 0 0 0 10.90625 5.40625 A 0.56088614 0.56088614 0 0 0 10.875 5.40625 z M 11 5.96875 L 14 8.96875 L 12 8.96875 L 12 12.96875 L 14 12.96875 L 11 15.96875 L 8 12.96875 L 10 12.96875 L 10 8.96875 L 8 8.96875 L 11 5.96875 z "
       id="path3820" />
    <path
       style="fill:#000000;fill-opacity:1;stroke:none;display:inline;opacity:0.3"
       d="M 10.8125 3 A 0.98082259 0.98082259 0 0 0 10.3125 3.28125 L 3.3125 10.28125 A 0.98082259 0.98082259 0 0 0 3.15625 11.46875 A 0.98082259 0.98082259 0 0 1 3.3125 11.28125 L 10.3125 4.28125 A 0.98082259 0.98082259 0 0 1 11.6875 4.28125 L 18.6875 11.28125 A 0.98082259 0.98082259 0 0 1 18.84375 11.46875 A 0.98082259 0.98082259 0 0 0 18.6875 10.28125 L 11.6875 3.28125 A 0.98082259 0.98082259 0 0 0 10.8125 3 z M 9 8.96875 L 8 9.96875 L 10 9.96875 L 10 8.96875 L 9 8.96875 z M 12 8.96875 L 12 9.96875 L 14 9.96875 L 13 8.96875 L 12 8.96875 z M 8 13.96875 L 11 16.96875 L 14 13.96875 L 13 13.96875 L 11 15.96875 L 9 13.96875 L 8 13.96875 z "
       id="path3833" />
  </g>
</svg>
