<?xml version="1.0" encoding="UTF-8" standalone="no"?>
<!-- Created with Inkscape (http://www.inkscape.org/) -->

<svg
   xmlns:dc="http://purl.org/dc/elements/1.1/"
   xmlns:cc="http://creativecommons.org/ns#"
   xmlns:rdf="http://www.w3.org/1999/02/22-rdf-syntax-ns#"
   xmlns:svg="http://www.w3.org/2000/svg"
   xmlns="http://www.w3.org/2000/svg"
   xmlns:xlink="http://www.w3.org/1999/xlink"
   xmlns:sodipodi="http://sodipodi.sourceforge.net/DTD/sodipodi-0.dtd"
   xmlns:inkscape="http://www.inkscape.org/namespaces/inkscape"
   width="24"
   height="24"
   id="svg2"
   sodipodi:version="0.32"
   inkscape:version="0.48.3.1 r9886"
   version="1.0"
   sodipodi:docname="utilities-system-monitor.svg"
   inkscape:output_extension="org.inkscape.output.svg.inkscape"
   style="display:inline">
  <defs
     id="defs4">
    <linearGradient
       inkscape:collect="always"
       id="linearGradient3327">
      <stop
         style="stop-color:#000000;stop-opacity:1;"
         offset="0"
         id="stop3330" />
      <stop
         style="stop-color:#000000;stop-opacity:0;"
         offset="1"
         id="stop3333" />
    </linearGradient>
    <linearGradient
       inkscape:collect="always"
       xlink:href="#linearGradient3327"
       id="linearGradient3335"
       x1="11.375"
       y1="22"
       x2="11.375"
       y2="-9.817296"
       gradientUnits="userSpaceOnUse" />
    <inkscape:perspective
       sodipodi:type="inkscape:persp3d"
       inkscape:vp_x="0 : 11 : 1"
       inkscape:vp_y="0 : 1000 : 0"
       inkscape:vp_z="22 : 11 : 1"
       inkscape:persp3d-origin="11 : 7.3333333 : 1"
       id="perspective2531" />
    <linearGradient
       id="ButtonShadow"
       gradientTransform="scale(0.9883037,1.0118347)"
       x1="9.3550024"
       y1="21.742682"
       x2="9.3550024"
       y2="0.49362123"
       gradientUnits="userSpaceOnUse">
      <stop
         id="stop3277"
         offset="0"
         style="stop-color:#000000;stop-opacity:0.70588237;" />
      <stop
         id="stop3279"
         offset="1"
         style="stop-color:#000000;stop-opacity:0.15686275;" />
    </linearGradient>
    <linearGradient
       inkscape:collect="always"
       id="linearGradient3232">
      <stop
         style="stop-color:#000000;stop-opacity:1;"
         offset="0"
         id="stop3234" />
      <stop
         style="stop-color:#000000;stop-opacity:0;"
         offset="1"
         id="stop3236" />
    </linearGradient>
    <linearGradient
       gradientUnits="userSpaceOnUse"
       y2="-6.0004225"
       x2="11"
       y1="14.805666"
       x1="11"
       id="linearGradient3221"
       xlink:href="#linearGradient3232"
       inkscape:collect="always" />
    <linearGradient
       id="ButtonColor"
       x1="10.31979"
       y1="21"
       x2="10.31979"
       y2="0.99929649"
       gradientUnits="userSpaceOnUse">
      <stop
         style="stop-color:#29669f;stop-opacity:1;"
         offset="0"
         id="stop3189" />
      <stop
         style="stop-color:#88b6e0;stop-opacity:1;"
         offset="1"
         id="stop3191" />
    </linearGradient>
    <linearGradient
       inkscape:collect="always"
       xlink:href="#ButtonShadow"
       id="linearGradient38042"
       gradientUnits="userSpaceOnUse"
       gradientTransform="scale(0.9883037,1.0118347)"
       x1="9.3550024"
       y1="21.742682"
       x2="9.3550024"
       y2="0.49362123" />
    <filter
       inkscape:collect="always"
       id="filter3194"
       x="-0.18000001"
       width="1.36"
       y="-0.18000001"
       height="1.36"
       color-interpolation-filters="sRGB">
      <feGaussianBlur
         inkscape:collect="always"
         stdDeviation="1.2"
         id="feGaussianBlur3196" />
    </filter>
    <clipPath
       clipPathUnits="userSpaceOnUse"
       id="clipPath2849">
      <rect
         ry="2"
         rx="2"
         y="1"
         x="1"
         height="20"
         width="20"
         id="rect2851"
         style="fill:#ffffff;fill-opacity:1;fill-rule:evenodd;stroke:none;display:inline" />
    </clipPath>
    <linearGradient
       y2="16"
       x2="10"
       y1="1"
       x1="10"
       gradientUnits="userSpaceOnUse"
       id="linearGradient3078"
       xlink:href="#linearGradient3823"
       inkscape:collect="always"
       gradientTransform="translate(1,-1)" />
    <linearGradient
       id="linearGradient3823">
      <stop
         id="stop3825"
         offset="0"
         style="stop-color:#ffffff;stop-opacity:1;" />
      <stop
         id="stop3829"
         offset="1"
         style="stop-color:#ffffff;stop-opacity:0;" />
    </linearGradient>
    <linearGradient
       inkscape:collect="always"
       xlink:href="#linearGradient4055"
       id="linearGradient3845"
       x1="11"
       y1="19.5"
       x2="21"
       y2="19.5"
       gradientUnits="userSpaceOnUse"
       spreadMethod="reflect"
       gradientTransform="translate(1,-1)" />
    <linearGradient
       id="linearGradient3831">
      <stop
         style="stop-color:#ffffff;stop-opacity:1;"
         offset="0"
         id="stop3833" />
      <stop
         id="stop3821"
         offset="0.75"
         style="stop-color:#ffffff;stop-opacity:0.49803922;" />
      <stop
         style="stop-color:#ffffff;stop-opacity:0;"
         offset="1"
         id="stop3835" />
    </linearGradient>
    <linearGradient
       y2="16"
       x2="10"
       y1="1"
       x1="10"
       gradientTransform="translate(1,-1)"
       gradientUnits="userSpaceOnUse"
       id="linearGradient3961"
       xlink:href="#linearGradient4055"
       inkscape:collect="always" />
    <radialGradient
       inkscape:collect="always"
       xlink:href="#linearGradient3920"
       id="radialGradient3940"
       cx="-26.75"
       cy="48"
       fx="-26.75"
       fy="48"
       r="42"
       gradientUnits="userSpaceOnUse"
       gradientTransform="matrix(1.7142857,-1.2662338e-8,1.5476191e-8,2.0952381,21.857142,-52.571429)" />
    <linearGradient
       id="linearGradient3920">
      <stop
         id="stop3922"
         offset="0"
         style="stop-color:#624134;stop-opacity:1;" />
      <stop
         id="stop3924"
         offset="1"
         style="stop-color:#171411;stop-opacity:1;" />
    </linearGradient>
    <radialGradient
       inkscape:collect="always"
       xlink:href="#linearGradient3920"
       id="radialGradient3989"
       cx="12"
       cy="5"
       fx="12"
       fy="5"
       r="10"
       gradientUnits="userSpaceOnUse"
       gradientTransform="matrix(2.2,0,0,1.6,-14.4,-3)" />
    <linearGradient
       inkscape:collect="always"
       xlink:href="#linearGradient4055"
       id="linearGradient4429"
       x1="48"
       y1="82"
       x2="112.12357"
       y2="82.454597"
       gradientUnits="userSpaceOnUse"
       spreadMethod="reflect" />
    <linearGradient
       id="linearGradient4055">
      <stop
         style="stop-color:#ffcd93;stop-opacity:1;"
         offset="0"
         id="stop4057" />
      <stop
         style="stop-color:#ffcd93;stop-opacity:0;"
         offset="1"
         id="stop4059" />
    </linearGradient>
    <radialGradient
       r="36"
       fy="8.9137897"
       fx="16"
       cy="8.9137897"
       cx="16"
       gradientTransform="matrix(3.1908576,-3.1804554e-8,2.2046261e-8,1.9215687,-42.583133,-8.7309)"
       gradientUnits="userSpaceOnUse"
       id="radialGradient3193"
       xlink:href="#linearGradient4477"
       inkscape:collect="always" />
    <linearGradient
       inkscape:collect="always"
       id="linearGradient4477">
      <stop
         style="stop-color:#ffffff;stop-opacity:1;"
         offset="0"
         id="stop4479" />
      <stop
         style="stop-color:#ffffff;stop-opacity:0;"
         offset="1"
         id="stop4481" />
    </linearGradient>
    <radialGradient
       inkscape:collect="always"
       xlink:href="#linearGradient4119"
       id="radialGradient4089"
       cx="48"
       cy="3.0000064"
       fx="48"
       fy="3.0000064"
       r="36"
       gradientTransform="matrix(-1.0277778,0,0,-0.22222219,97.333337,6.666668)"
       gradientUnits="userSpaceOnUse" />
    <linearGradient
       id="linearGradient4119">
      <stop
         style="stop-color:#f49534;stop-opacity:0.59842521;"
         offset="0"
         id="stop4121" />
      <stop
         id="stop3954"
         offset="0.5"
         style="stop-color:#f39535;stop-opacity:0.21259843;" />
      <stop
         style="stop-color:#f29536;stop-opacity:0;"
         offset="1"
         id="stop4123" />
    </linearGradient>
    <radialGradient
       r="36"
       fy="3.0000064"
       fx="48"
       cy="3.0000064"
       cx="48"
       gradientTransform="matrix(-0.2446651,0,0,-0.05555555,23.730649,0.16666702)"
       gradientUnits="userSpaceOnUse"
       id="radialGradient3962"
       xlink:href="#linearGradient4119"
       inkscape:collect="always" />
    <radialGradient
       inkscape:collect="always"
       xlink:href="#linearGradient4120"
       id="radialGradient4128"
       gradientUnits="userSpaceOnUse"
       cx="74"
       cy="55"
       fx="74"
       fy="55"
       r="2" />
    <linearGradient
       id="linearGradient4120">
      <stop
         id="stop4122"
         offset="0"
         style="stop-color:#ffaf4d;stop-opacity:1;" />
      <stop
         style="stop-color:#ffaf4d;stop-opacity:1;"
         offset="0.40000001"
         id="stop4130" />
      <stop
         style="stop-color:#ffaf4d;stop-opacity:0.20472442;"
         offset="0.80000001"
         id="stop4124" />
      <stop
         id="stop4126"
         offset="1"
         style="stop-color:#ffaf4d;stop-opacity:0;" />
    </linearGradient>
    <linearGradient
       inkscape:collect="always"
       xlink:href="#linearGradient4195-0"
       id="linearGradient4099"
       gradientUnits="userSpaceOnUse"
       spreadMethod="repeat"
       x1="74"
       y1="50"
       x2="5.8760438"
       y2="50" />
    <linearGradient
       id="linearGradient4195-0">
      <stop
         style="stop-color:#ffaf4d;stop-opacity:1;"
         offset="0"
         id="stop4197-1" />
      <stop
         id="stop4079"
         offset="0.80000001"
         style="stop-color:#ffaf4d;stop-opacity:0.61417323;" />
      <stop
         style="stop-color:#ffaf4d;stop-opacity:0;"
         offset="1"
         id="stop4199-6" />
    </linearGradient>
    <linearGradient
       inkscape:collect="always"
       xlink:href="#linearGradient4195-0"
       id="linearGradient4110"
       gradientUnits="userSpaceOnUse"
       gradientTransform="matrix(0.23529412,0,0,0.23529412,0.58823534,-0.604784)"
       spreadMethod="repeat"
       x1="74"
       y1="50"
       x2="5.1923928"
       y2="50" />
    <linearGradient
       inkscape:collect="always"
       xlink:href="#linearGradient4195-0"
       id="linearGradient4127"
       gradientUnits="userSpaceOnUse"
       gradientTransform="matrix(0.23529412,0,0,0.23529412,0.77826048,1.5948688)"
       spreadMethod="repeat"
       x1="74"
       y1="50"
       x2="5.1923928"
       y2="50" />
    <radialGradient
       inkscape:collect="always"
       xlink:href="#linearGradient4119-5"
       id="radialGradient4125"
       cx="48.5"
       cy="46.5"
       fx="48.5"
       fy="46.5"
       r="30.5"
       gradientUnits="userSpaceOnUse"
       gradientTransform="matrix(1.557377,-3.7704918e-8,3.056083e-8,1.2622951,-27.032788,-12.196719)" />
    <linearGradient
       id="linearGradient4119-5">
      <stop
         style="stop-color:#f49534;stop-opacity:0.59842521;"
         offset="0"
         id="stop4121-5" />
      <stop
         id="stop3954-4"
         offset="0.5"
         style="stop-color:#f39535;stop-opacity:0.21259843;" />
      <stop
         style="stop-color:#f29536;stop-opacity:0;"
         offset="1"
         id="stop4123-6" />
    </linearGradient>
    <radialGradient
       inkscape:collect="always"
       xlink:href="#linearGradient4119"
       id="radialGradient4181"
       cx="11.5"
       cy="12"
       fx="11.5"
       fy="12"
       r="7.5"
       gradientTransform="matrix(1.4,-2.6666669e-8,2.5396829e-8,1.3333334,25.4,-5.9999999)"
       gradientUnits="userSpaceOnUse" />
    <linearGradient
       inkscape:collect="always"
       xlink:href="#linearGradient3823"
       id="linearGradient3868"
       x1="16"
       y1="2"
       x2="16"
       y2="22"
       gradientUnits="userSpaceOnUse" />
  </defs>
  <sodipodi:namedview
     id="base"
     pagecolor="#ffffff"
     bordercolor="#e7e7e7"
     borderopacity="1"
     inkscape:pageopacity="0.0"
     inkscape:pageshadow="2"
     inkscape:zoom="5.0541004"
     inkscape:cx="-46.737992"
     inkscape:cy="-33.54629"
     inkscape:document-units="px"
     inkscape:current-layer="layer1"
     showgrid="true"
     inkscape:showpageshadow="false"
     showguides="false"
     inkscape:guide-bbox="true"
     inkscape:window-width="1920"
     inkscape:window-height="1029"
     inkscape:window-x="0"
     inkscape:window-y="24"
     inkscape:window-maximized="1"
     inkscape:snap-global="true">
    <sodipodi:guide
       orientation="1,0"
       position="0,112"
       id="guide2383" />
    <sodipodi:guide
       orientation="0,1"
       position="26.278146,128"
       id="guide2385" />
    <sodipodi:guide
       orientation="1,0"
       position="128,54.082119"
       id="guide2387" />
    <sodipodi:guide
       orientation="0,1"
       position="78.156291,0"
       id="guide2389" />
    <sodipodi:guide
       orientation="0,1"
       position="60.863576,64.084768"
       id="guide2391" />
    <inkscape:grid
       type="xygrid"
       id="grid3672"
       visible="true"
       enabled="true"
       empspacing="8"
       snapvisiblegridlinesonly="true" />
  </sodipodi:namedview>
  <metadata
     id="metadata7">
    <rdf:RDF>
      <cc:Work
         rdf:about="">
        <dc:format>image/svg+xml</dc:format>
        <dc:type
           rdf:resource="http://purl.org/dc/dcmitype/StillImage" />
        <dc:title />
      </cc:Work>
    </rdf:RDF>
  </metadata>
  <g
     inkscape:label="Button"
     inkscape:groupmode="layer"
     id="layer1"
     transform="translate(0,2)">
    <g
       style="display:inline"
       id="g3337"
       transform="translate(1,-1)">
      <rect
         ry="2.5"
         rx="2.5"
         y="0.5"
         x="0.5"
         height="21.5"
         width="21"
         id="rect3371"
         style="opacity:0.3;fill:url(#linearGradient3335);fill-opacity:1;stroke:none;display:inline" />
      <rect
         style="opacity:0.5;fill:#000000;fill-opacity:1;stroke:none;display:inline"
         id="rect2553"
         width="20"
         height="20"
         x="1"
         y="2"
         rx="2.3809524"
         ry="2.3255813" />
    </g>
    <rect
       style="fill:url(#radialGradient3989);fill-opacity:1;fill-rule:evenodd;stroke:none;display:inline"
       id="rect3173"
       width="20"
       height="20"
       x="2"
       y="0"
       rx="2"
       ry="2" />
    <path
       style="opacity:1;color:#000000;fill:url(#radialGradient4181);fill-opacity:1;fill-rule:nonzero;stroke:none;stroke-width:1.50000000000000000;marker:none;visibility:visible;display:inline;overflow:visible;enable-background:accumulate"
       d="m 35,0 0,4 -3,0 0,1 3,0 0,3 -3,0 0,1 3,0 0,3 -3,0 0,1 3,0 0,3 -3,0 0,1 3,0 0,3 1,0 0,-3 3,0 0,3 1,0 0,-3 3,0 0,3 1,0 0,-3 3,0 0,3 1,0 0,-3 4,0 0,-1 -4,0 0,-3 4,0 0,-1 -4,0 0,-3 4,0 0,-1 -4,0 0,-3 4,0 0,-1 -4,0 0,-4 -1,0 0,4 -3,0 0,-4 -1,0 0,4 -3,0 0,-4 -1,0 0,4 -3,0 0,-4 z m 1,5 3,0 0,3 -3,0 z m 4,0 3,0 0,3 -3,0 z m 4,0 3,0 0,3 -3,0 z m -8,4 3,0 0,3 -3,0 z m 4,0 3,0 0,3 -3,0 z m 4,0 3,0 0,3 -3,0 z m -8,4 3,0 0,3 -3,0 z m 4,0 3,0 0,3 -3,0 z m 4,0 3,0 0,3 -3,0 z"
       id="rect4151"
       inkscape:connector-curvature="0"
       sodipodi:nodetypes="cccccccccccccccccccccccccccccccccccccccccccccccccccccccccccccccccccccccccccccccccccccccccccccccccccccccccc" />
    <path
       id="path3018"
       d="m -26,-1.8e-7 c -1.108,0 -2,0.89199998 -2,1.99999998 l 0,1 c 0,-1.108 0.892,-2 2,-2 l 16,0 c 1.108,0 2,0.892 2,2 l 0,-1 C -8,0.8919998 -8.892,-1.8e-7 -10,-1.8e-7 l -16,0 z"
       style="opacity:0.25;fill:#ffffff;fill-opacity:1;fill-rule:evenodd;stroke:none;display:inline"
       inkscape:connector-curvature="0" />
    <path
       style="opacity:0.15;fill:#000000;fill-opacity:1;fill-rule:evenodd;stroke:none;display:inline"
       d="m -26,19.999999 c -1.108,0 -2,-0.891999 -2,-1.999999 l 0,-1 c 0,1.108 0.892,2 2,2 l 16,0 c 1.108,0 2,-0.892 2,-2 l 0,1 c 0,1.108 -0.892,1.999999 -2,1.999999 l -16,0 z"
       id="path3020"
       inkscape:connector-curvature="0" />
    <path
       style="opacity:0.3;fill:url(#linearGradient3961);fill-opacity:1;fill-rule:evenodd;stroke:none;display:inline"
       d="M 4,0 C 2.892,0 2,0.892 2,2 l 0,16 c 0,1.108 0.892,2 2,2 l 16,0 c 1.108,0 2,-0.892 2,-2 L 22,2 C 22,0.892 21.108,0 20,0 L 4,0 z m 0,1.03125 16,0 c 0.5497,0 0.96875,0.4190495 0.96875,0.96875 l 0,16 c 0,0.5497 -0.41905,0.96875 -0.96875,0.96875 l -16,0 C 3.4502995,18.96875 3.03125,18.5497 3.03125,18 l 0,-16 C 3.03125,1.4502995 3.4502995,1.03125 4,1.03125 z"
       id="rect3050"
       inkscape:connector-curvature="0" />
    <path
       id="path3235"
       d="M 4,20 C 2.892,20 2,19.108 2,18 l 0,-1 c 0,1.108 0.892,2 2,2 l 16,0 c 1.108,0 2,-0.892 2,-2 l 0,1 c 0,1.108 -0.892,2 -2,2 L 4,20 z"
       style="opacity:0.20000000000000001;fill:url(#linearGradient3845);fill-opacity:1.0;fill-rule:evenodd;stroke:none;display:inline"
       inkscape:connector-curvature="0" />
    <path
       style="opacity:0.6;color:#000000;fill:url(#radialGradient3962);fill-opacity:1;fill-rule:nonzero;stroke:none;stroke-width:1.5;marker:none;visibility:visible;display:inline;overflow:visible;enable-background:accumulate"
       d="M 2.702675,0 C 2.307031,0 1.944826,0.3370412 1.988517,0.74999947 l 0,2.25000053 19.996412,0 0,-2.25000053 C 21.984929,0.33449974 21.666415,0 21.270772,0 z"
       id="rect4076"
       inkscape:connector-curvature="0"
       sodipodi:nodetypes="ssccsss" />
    <g
       style="font-size:2.62810516px;font-style:normal;font-variant:normal;font-weight:normal;font-stretch:normal;text-align:start;line-height:125%;letter-spacing:0px;word-spacing:0px;writing-mode:lr-tb;text-anchor:start;opacity:0.5;fill:#ffbd6f;fill-opacity:1;stroke:none;font-family:Ubuntu;-inkscape-font-specification:Ubuntu"
       id="text4135"
       transform="matrix(0.36205944,0,0,0.36205944,-6.8868519,-3.8656595)">
      <path
         d="m 41.606208,18.505581 c 0.266313,0 0.39947,-0.09111 0.399472,-0.273323 -2e-6,-0.05607 -0.01227,-0.103372 -0.03679,-0.141918 -0.02278,-0.0403 -0.05431,-0.07446 -0.09461,-0.102496 -0.0403,-0.02978 -0.08673,-0.05519 -0.139289,-0.07621 -0.05081,-0.02102 -0.105125,-0.04205 -0.162943,-0.06307 -0.06658,-0.02278 -0.129653,-0.04818 -0.189223,-0.07622 -0.05957,-0.02979 -0.111257,-0.06395 -0.155059,-0.102497 -0.0438,-0.0403 -0.07884,-0.0876 -0.105124,-0.141917 -0.02453,-0.05431 -0.03679,-0.120016 -0.03679,-0.197108 0,-0.159437 0.05431,-0.283834 0.162942,-0.373191 0.108628,-0.08935 0.25843,-0.134032 0.449406,-0.134033 0.11038,1e-6 0.210248,0.01227 0.299604,0.03679 0.09111,0.02278 0.157685,0.04818 0.199736,0.07622 l -0.08147,0.20762 c -0.03679,-0.02277 -0.09198,-0.04468 -0.165571,-0.0657 -0.07184,-0.02277 -0.155935,-0.03416 -0.252298,-0.03417 -0.04906,2e-6 -0.09461,0.0053 -0.136661,0.01577 -0.04205,0.01051 -0.07884,0.02628 -0.110381,0.04731 -0.03154,0.02103 -0.05694,0.04818 -0.07621,0.08147 -0.01752,0.03154 -0.02628,0.06921 -0.02628,0.113009 0,0.04906 0.0096,0.09023 0.02891,0.123521 0.01927,0.03329 0.04643,0.06308 0.08147,0.08936 0.03504,0.02453 0.07534,0.04731 0.120893,0.06833 0.04731,0.02103 0.09899,0.04205 0.155058,0.06308 0.07884,0.03154 0.150677,0.06307 0.215504,0.09461 0.06658,0.03154 0.12352,0.06921 0.170827,0.113009 0.04906,0.0438 0.08673,0.09636 0.113009,0.157686 0.02628,0.05957 0.03942,0.132282 0.03942,0.218133 -1e-6,0.159439 -0.0587,0.282083 -0.176083,0.367935 -0.115637,0.08585 -0.279456,0.128777 -0.491455,0.128777 -0.07184,0 -0.138414,-0.0053 -0.199736,-0.01577 -0.05957,-0.0088 -0.113009,-0.01927 -0.160315,-0.03154 -0.04731,-0.01402 -0.08848,-0.02803 -0.123521,-0.04205 -0.03329,-0.01577 -0.05957,-0.02891 -0.07884,-0.03942 l 0.07621,-0.210249 c 0.0403,0.02278 0.10162,0.04818 0.183967,0.07622 0.08235,0.02803 0.183091,0.04205 0.302233,0.04205"
         id="path4140"
         inkscape:connector-curvature="0"
         style="fill:#ffbd6f;fill-opacity:1" />
      <path
         d="m 43.012901,18.68692 0,-0.730613 c -0.120894,-0.187471 -0.234778,-0.372314 -0.341654,-0.55453 -0.106876,-0.182214 -0.20762,-0.360925 -0.302232,-0.536134 l 0.299604,0 c 0.06658,0.143672 0.141041,0.289969 0.223389,0.438894 0.08235,0.147175 0.167322,0.289093 0.254926,0.425753 0.08585,-0.13666 0.16995,-0.278578 0.252298,-0.425753 0.08235,-0.148925 0.157685,-0.295222 0.226017,-0.438894 l 0.283836,0 c -0.09461,0.175209 -0.195357,0.35392 -0.302232,0.536134 -0.106878,0.180464 -0.219886,0.363555 -0.339026,0.549274 l 0,0.735869 -0.254926,0"
         id="path4142"
         inkscape:connector-curvature="0"
         style="fill:#ffbd6f;fill-opacity:1" />
      <path
         d="m 44.573092,18.505581 c 0.266314,0 0.399471,-0.09111 0.399472,-0.273323 -10e-7,-0.05607 -0.01227,-0.103372 -0.03679,-0.141918 -0.02278,-0.0403 -0.05431,-0.07446 -0.09461,-0.102496 -0.0403,-0.02978 -0.08673,-0.05519 -0.13929,-0.07621 -0.05081,-0.02102 -0.105125,-0.04205 -0.162942,-0.06307 -0.06658,-0.02278 -0.129654,-0.04818 -0.189224,-0.07622 -0.05957,-0.02979 -0.111257,-0.06395 -0.155058,-0.102497 -0.0438,-0.0403 -0.07884,-0.0876 -0.105124,-0.141917 -0.02453,-0.05431 -0.03679,-0.120016 -0.03679,-0.197108 0,-0.159437 0.05431,-0.283834 0.162943,-0.373191 0.108628,-0.08935 0.258429,-0.134032 0.449406,-0.134033 0.110379,1e-6 0.210247,0.01227 0.299604,0.03679 0.09111,0.02278 0.157685,0.04818 0.199736,0.07622 l -0.08147,0.20762 c -0.03679,-0.02277 -0.09198,-0.04468 -0.16557,-0.0657 -0.07184,-0.02277 -0.155935,-0.03416 -0.252298,-0.03417 -0.04906,2e-6 -0.09461,0.0053 -0.136662,0.01577 -0.04205,0.01051 -0.07884,0.02628 -0.11038,0.04731 -0.03154,0.02103 -0.05694,0.04818 -0.07621,0.08147 -0.01752,0.03154 -0.02628,0.06921 -0.02628,0.113009 -1e-6,0.04906 0.0096,0.09023 0.02891,0.123521 0.01927,0.03329 0.04643,0.06308 0.08147,0.08936 0.03504,0.02453 0.07534,0.04731 0.120893,0.06833 0.04731,0.02103 0.09899,0.04205 0.155058,0.06308 0.07884,0.03154 0.150677,0.06307 0.215505,0.09461 0.06658,0.03154 0.12352,0.06921 0.170827,0.113009 0.04906,0.0438 0.08673,0.09636 0.113008,0.157686 0.02628,0.05957 0.03942,0.132282 0.03942,0.218133 -2e-6,0.159439 -0.0587,0.282083 -0.176083,0.367935 -0.115638,0.08585 -0.279456,0.128777 -0.491456,0.128777 -0.07184,0 -0.138414,-0.0053 -0.199736,-0.01577 -0.05957,-0.0088 -0.113009,-0.01927 -0.160314,-0.03154 -0.04731,-0.01402 -0.08848,-0.02803 -0.123521,-0.04205 -0.03329,-0.01577 -0.05957,-0.02891 -0.07884,-0.03942 l 0.07621,-0.210249 c 0.0403,0.02278 0.10162,0.04818 0.183968,0.07622 0.08235,0.02803 0.183091,0.04205 0.302232,0.04205"
         id="path4144"
         inkscape:connector-curvature="0"
         style="fill:#ffbd6f;fill-opacity:1" />
      <path
         d="m 46.762961,16.865643 0,0.220761 -0.572927,0 0,1.600516 -0.254927,0 0,-1.600516 -0.572926,0 0,-0.220761 1.40078,0"
         id="path4146"
         inkscape:connector-curvature="0"
         style="fill:#ffbd6f;fill-opacity:1" />
      <path
         d="m 47.02959,18.68692 0,-1.821277 1.111689,0 0,0.218133 -0.856763,0 0,0.54139 0.762151,0 0,0.212876 -0.762151,0 0,0.630745 0.922465,0 0,0.218133 -1.177391,0"
         id="path4148"
         inkscape:connector-curvature="0"
         style="fill:#ffbd6f;fill-opacity:1" />
      <path
         d="m 49.345772,18.434622 c -0.01752,-0.04205 -0.04117,-0.09549 -0.07096,-0.160314 -0.02803,-0.06483 -0.0587,-0.134909 -0.09198,-0.210249 -0.03329,-0.07534 -0.06921,-0.152429 -0.107753,-0.231273 -0.03679,-0.08059 -0.07184,-0.155933 -0.105124,-0.226017 -0.03329,-0.07183 -0.06483,-0.135784 -0.09461,-0.191852 -0.02803,-0.05607 -0.05081,-0.09899 -0.06833,-0.128777 -0.01927,0.206746 -0.03504,0.43101 -0.04731,0.672795 -0.01226,0.240034 -0.02278,0.482696 -0.03154,0.727985 l -0.24967,0 c 0.007,-0.157686 0.01489,-0.316248 0.02365,-0.475687 0.0088,-0.16119 0.0184,-0.318876 0.02891,-0.473059 0.01226,-0.155933 0.02453,-0.307487 0.03679,-0.454662 0.01402,-0.147172 0.02891,-0.286462 0.04468,-0.417869 l 0.223389,0 c 0.04731,0.07709 0.09811,0.168201 0.15243,0.273323 0.05431,0.105126 0.108627,0.215506 0.162942,0.331141 0.05431,0.113886 0.106876,0.228647 0.157687,0.344282 0.05081,0.113886 0.09724,0.218134 0.139289,0.312745 0.04205,-0.09461 0.08848,-0.198859 0.13929,-0.312745 0.05081,-0.115635 0.103371,-0.230396 0.157686,-0.344282 0.05431,-0.115635 0.108627,-0.226015 0.162943,-0.331141 0.05431,-0.105122 0.105122,-0.19623 0.15243,-0.273323 l 0.223389,0 c 0.05957,0.586945 0.104246,1.194037 0.134033,1.821277 l -0.24967,0 c -0.0088,-0.245289 -0.01928,-0.487951 -0.03154,-0.727985 -0.01227,-0.241785 -0.02803,-0.466049 -0.04731,-0.672795 -0.01752,0.02979 -0.04118,0.07271 -0.07096,0.128777 -0.02803,0.05607 -0.0587,0.120018 -0.09198,0.191852 -0.03329,0.07008 -0.06921,0.145423 -0.107752,0.226017 -0.0368,0.07884 -0.07184,0.155935 -0.105124,0.231273 -0.03329,0.07534 -0.06483,0.145423 -0.09461,0.210249 -0.02803,0.06483 -0.05081,0.118265 -0.06833,0.160314 l -0.204992,0"
         id="path4150"
         inkscape:connector-curvature="0"
         style="fill:#ffbd6f;fill-opacity:1" />
      <path
         d="m 52.240794,18.434622 c -0.01752,-0.04205 -0.04118,-0.09549 -0.07096,-0.160314 -0.02803,-0.06483 -0.0587,-0.134909 -0.09198,-0.210249 -0.03329,-0.07534 -0.06921,-0.152429 -0.107753,-0.231273 -0.03679,-0.08059 -0.07184,-0.155933 -0.105124,-0.226017 -0.03329,-0.07183 -0.06483,-0.135784 -0.09461,-0.191852 -0.02803,-0.05607 -0.05081,-0.09899 -0.06833,-0.128777 -0.01927,0.206746 -0.03504,0.43101 -0.04731,0.672795 -0.01226,0.240034 -0.02278,0.482696 -0.03154,0.727985 l -0.24967,0 c 0.007,-0.157686 0.01489,-0.316248 0.02365,-0.475687 0.0088,-0.16119 0.0184,-0.318876 0.02891,-0.473059 0.01226,-0.155933 0.02453,-0.307487 0.03679,-0.454662 0.01402,-0.147172 0.02891,-0.286462 0.04468,-0.417869 l 0.223389,0 c 0.04731,0.07709 0.09811,0.168201 0.15243,0.273323 0.05431,0.105126 0.108627,0.215506 0.162942,0.331141 0.05431,0.113886 0.106876,0.228647 0.157687,0.344282 0.05081,0.113886 0.09724,0.218134 0.139289,0.312745 0.04205,-0.09461 0.08848,-0.198859 0.13929,-0.312745 0.05081,-0.115635 0.103371,-0.230396 0.157686,-0.344282 0.05431,-0.115635 0.108627,-0.226015 0.162943,-0.331141 0.05431,-0.105122 0.105122,-0.19623 0.15243,-0.273323 l 0.223389,0 c 0.05957,0.586945 0.104246,1.194037 0.134033,1.821277 l -0.24967,0 c -0.0088,-0.245289 -0.01928,-0.487951 -0.03154,-0.727985 -0.01227,-0.241785 -0.02804,-0.466049 -0.04731,-0.672795 -0.01752,0.02979 -0.04118,0.07271 -0.07096,0.128777 -0.02804,0.05607 -0.0587,0.120018 -0.09198,0.191852 -0.03329,0.07008 -0.06921,0.145423 -0.107752,0.226017 -0.03679,0.07884 -0.07184,0.155935 -0.105124,0.231273 -0.03329,0.07534 -0.06483,0.145423 -0.09461,0.210249 -0.02803,0.06483 -0.05081,0.118265 -0.06833,0.160314 l -0.204992,0"
         id="path4152"
         inkscape:connector-curvature="0"
         style="fill:#ffbd6f;fill-opacity:1" />
      <path
         d="m 53.639192,17.774968 c 0,-0.155933 0.02278,-0.293471 0.06833,-0.412613 0.04731,-0.119139 0.11038,-0.218131 0.189223,-0.296976 0.0806,-0.08059 0.173455,-0.14104 0.27858,-0.181339 0.106875,-0.0403 0.219883,-0.06044 0.339025,-0.06045 0.117388,1e-6 0.227768,0.02015 0.331141,0.06045 0.105123,0.0403 0.197107,0.100746 0.275951,0.181339 0.07884,0.07885 0.14104,0.177837 0.186596,0.296976 0.0473,0.119142 0.07096,0.25668 0.07096,0.412613 -2e-6,0.155935 -0.02366,0.293472 -0.07096,0.412612 -0.04556,0.119141 -0.107754,0.219009 -0.186596,0.299604 -0.07884,0.07884 -0.170828,0.138414 -0.275951,0.178711 -0.103373,0.0403 -0.213753,0.06045 -0.331141,0.06045 -0.119142,0 -0.23215,-0.02015 -0.339025,-0.06045 -0.105125,-0.0403 -0.197985,-0.09987 -0.27858,-0.178711 -0.07884,-0.08059 -0.141917,-0.180463 -0.189223,-0.299604 -0.04555,-0.11914 -0.06833,-0.256677 -0.06833,-0.412612 m 0.268067,0 c -1e-6,0.110381 0.01402,0.211125 0.04205,0.302232 0.02803,0.08936 0.06745,0.165571 0.118264,0.228645 0.05256,0.06307 0.115636,0.112133 0.189224,0.147174 0.07534,0.03329 0.159437,0.04993 0.252298,0.04993 0.09286,0 0.176082,-0.01665 0.24967,-0.04993 0.07359,-0.03504 0.135784,-0.0841 0.186595,-0.147174 0.05256,-0.06307 0.09286,-0.139289 0.120893,-0.228645 0.02803,-0.09111 0.04205,-0.191851 0.04205,-0.302232 -2e-6,-0.11038 -0.01402,-0.210248 -0.04205,-0.299604 -0.02803,-0.09111 -0.06833,-0.168198 -0.120893,-0.231274 -0.05081,-0.06307 -0.113009,-0.111254 -0.186595,-0.144545 -0.07359,-0.03504 -0.156811,-0.05256 -0.24967,-0.05256 -0.09286,1e-6 -0.17696,0.01752 -0.252298,0.05256 -0.07359,0.03329 -0.136662,0.08147 -0.189224,0.144545 -0.05081,0.06308 -0.09023,0.140167 -0.118264,0.231274 -0.02803,0.08936 -0.04205,0.189224 -0.04205,0.299604"
         id="path4154"
         inkscape:connector-curvature="0"
         style="fill:#ffbd6f;fill-opacity:1" />
      <path
         d="m 57.00407,18.68692 c -0.03855,-0.06483 -0.08322,-0.137537 -0.134033,-0.218133 -0.04906,-0.08059 -0.102498,-0.163818 -0.160315,-0.24967 -0.05782,-0.0876 -0.118265,-0.176082 -0.181339,-0.265438 -0.06132,-0.08936 -0.122646,-0.175206 -0.183967,-0.257554 -0.06132,-0.0841 -0.120894,-0.162942 -0.178711,-0.23653 -0.05782,-0.07359 -0.111257,-0.138412 -0.160315,-0.19448 l 0,1.421805 -0.24967,0 0,-1.821277 0.202364,0 c 0.08235,0.08761 0.16995,0.190102 0.262811,0.307489 0.09461,0.115638 0.18747,0.235654 0.278579,0.36005 0.09286,0.122646 0.179586,0.243539 0.260182,0.362679 0.08235,0.119141 0.151553,0.225141 0.207621,0.318 l 0,-1.348218 0.24967,0 0,1.821277 -0.212877,0"
         id="path4156"
         inkscape:connector-curvature="0"
         style="fill:#ffbd6f;fill-opacity:1" />
      <path
         d="m 57.670336,16.865643 0.254926,0 0,1.821277 -0.254926,0 0,-1.821277"
         id="path4158"
         inkscape:connector-curvature="0"
         style="fill:#ffbd6f;fill-opacity:1" />
      <path
         d="m 59.595505,16.865643 0,0.220761 -0.572927,0 0,1.600516 -0.254926,0 0,-1.600516 -0.572927,0 0,-0.220761 1.40078,0"
         id="path4160"
         inkscape:connector-curvature="0"
         style="fill:#ffbd6f;fill-opacity:1" />
      <path
         d="m 59.716685,17.774968 c 0,-0.155933 0.02278,-0.293471 0.06833,-0.412613 0.04731,-0.119139 0.11038,-0.218131 0.189223,-0.296976 0.0806,-0.08059 0.173455,-0.14104 0.278579,-0.181339 0.106876,-0.0403 0.219884,-0.06044 0.339026,-0.06045 0.117387,1e-6 0.227768,0.02015 0.331141,0.06045 0.105123,0.0403 0.197106,0.100746 0.275951,0.181339 0.07884,0.07885 0.14104,0.177837 0.186596,0.296976 0.0473,0.119142 0.07096,0.25668 0.07096,0.412613 -10e-7,0.155935 -0.02365,0.293472 -0.07096,0.412612 -0.04556,0.119141 -0.107754,0.219009 -0.186596,0.299604 -0.07885,0.07884 -0.170828,0.138414 -0.275951,0.178711 -0.103373,0.0403 -0.213754,0.06045 -0.331141,0.06045 -0.119142,0 -0.23215,-0.02015 -0.339026,-0.06045 -0.105124,-0.0403 -0.197984,-0.09987 -0.278579,-0.178711 -0.07884,-0.08059 -0.141918,-0.180463 -0.189223,-0.299604 -0.04555,-0.11914 -0.06833,-0.256677 -0.06833,-0.412612 m 0.268067,0 c -10e-7,0.110381 0.01402,0.211125 0.04205,0.302232 0.02803,0.08936 0.06745,0.165571 0.118265,0.228645 0.05256,0.06307 0.115636,0.112133 0.189224,0.147174 0.07534,0.03329 0.159437,0.04993 0.252298,0.04993 0.09286,0 0.176082,-0.01665 0.24967,-0.04993 0.07359,-0.03504 0.135784,-0.0841 0.186595,-0.147174 0.05256,-0.06307 0.09286,-0.139289 0.120893,-0.228645 0.02803,-0.09111 0.04205,-0.191851 0.04205,-0.302232 -2e-6,-0.11038 -0.01402,-0.210248 -0.04205,-0.299604 -0.02804,-0.09111 -0.06833,-0.168198 -0.120893,-0.231274 -0.05081,-0.06307 -0.11301,-0.111254 -0.186595,-0.144545 -0.07359,-0.03504 -0.156812,-0.05256 -0.24967,-0.05256 -0.09286,1e-6 -0.17696,0.01752 -0.252298,0.05256 -0.07359,0.03329 -0.136663,0.08147 -0.189224,0.144545 -0.05081,0.06308 -0.09023,0.140167 -0.118265,0.231274 -0.02803,0.08936 -0.04205,0.189224 -0.04205,0.299604"
         id="path4162"
         inkscape:connector-curvature="0"
         style="fill:#ffbd6f;fill-opacity:1" />
      <path
         d="m 62.724142,17.92477 c 0.02803,0.03504 0.06307,0.08147 0.105124,0.139289 0.0438,0.05607 0.08848,0.119142 0.134033,0.189224 0.04555,0.06833 0.09023,0.140166 0.134033,0.215504 0.04555,0.07534 0.0841,0.14805 0.115637,0.218133 l -0.278579,0 c -0.03504,-0.06658 -0.07359,-0.134033 -0.115637,-0.202364 -0.0403,-0.06833 -0.08147,-0.133157 -0.123521,-0.19448 -0.04205,-0.06307 -0.0841,-0.121768 -0.126149,-0.176083 -0.0403,-0.05431 -0.07709,-0.101619 -0.11038,-0.141917 -0.02278,0.0018 -0.04643,0.0026 -0.07096,0.0026 -0.02278,0 -0.04643,0 -0.07096,0 l -0.228645,0 0,0.712216 -0.254926,0 0,-1.794996 c 0.07183,-0.01752 0.151554,-0.02891 0.239157,-0.03416 0.08936,-0.007 0.170827,-0.01051 0.244414,-0.01051 0.255801,1e-6 0.450281,0.04818 0.58344,0.144545 0.134908,0.09637 0.202362,0.240035 0.202364,0.43101 -2e-6,0.120894 -0.03242,0.224266 -0.09724,0.310116 -0.06308,0.08585 -0.156812,0.149803 -0.281207,0.191852 m -0.38633,-0.854114 c -0.108629,2e-6 -0.191852,0.0026 -0.24967,0.0079 l 0,0.685935 0.181339,0 c 0.0876,1e-6 0.166446,-0.0044 0.23653,-0.01314 0.07008,-0.0088 0.128776,-0.0254 0.176083,-0.04993 0.04906,-0.02453 0.08673,-0.05869 0.113008,-0.102496 0.02628,-0.04555 0.03942,-0.105123 0.03942,-0.178712 -10e-7,-0.06833 -0.01314,-0.125271 -0.03942,-0.170826 -0.02628,-0.04555 -0.0622,-0.08147 -0.107752,-0.107753 -0.0438,-0.02628 -0.09636,-0.04468 -0.157686,-0.05519 -0.05957,-0.01051 -0.123522,-0.01577 -0.191852,-0.01577"
         id="path4164"
         inkscape:connector-curvature="0"
         style="fill:#ffbd6f;fill-opacity:1" />
    </g>
    <path
       style="font-size:medium;font-style:normal;font-variant:normal;font-weight:normal;font-stretch:normal;text-indent:0;text-align:start;text-decoration:none;line-height:normal;letter-spacing:normal;word-spacing:normal;text-transform:none;direction:ltr;block-progression:tb;writing-mode:lr-tb;text-anchor:start;baseline-shift:baseline;color:#000000;fill:url(#linearGradient4127);fill-opacity:1;fill-rule:nonzero;stroke:none;stroke-width:1px;marker:none;visibility:visible;display:inline;overflow:visible;enable-background:accumulate;font-family:Sans;-inkscape-font-specification:Sans;opacity:0.29999999999999999"
       d="M 9.53125 7.5625 C 8.8324587 7.6320531 8.6500734 8.445264 8.625 9.03125 C 8.4219949 10.645329 8.324426 12.24944 8.28125 13.875 C 7.6159345 13.92775 7.8481448 13.120383 7.46875 12.875 C 7.3332217 12.633048 6.9842804 12.660478 6.75 12.71875 C 6.1219522 12.872084 6.5339676 13.653267 6.21875 13.9375 C 4.8392276 13.9472 3.4368692 13.93466 2.0625 13.96875 C 2.0367435 13.976485 2.0230943 13.990059 2 14 L 2 15.25 C 2.1645046 15.307718 2.3501253 15.290241 2.53125 15.28125 C 3.898296 15.27605 5.2896574 15.29947 6.65625 15.28125 C 7.0962629 15.128368 7.2974491 14.785584 7.75 15.125 C 8.4003324 15.014151 8.0974911 15.796299 8.71875 15.8125 C 9.0128198 15.85832 9.547615 15.402119 9.4375 15.9375 C 9.512139 16.4673 9.4184607 17.179799 10.0625 17.34375 C 10.59168 17.3731 10.997269 16.930861 11.03125 16.40625 C 11.178896 15.937519 10.984117 15.015869 11.71875 15.40625 C 12.55078 15.560257 13.204919 14.831535 13.40625 14.09375 C 13.588241 13.566965 13.763118 14.729508 14.0625 14.875 C 14.525945 15.49047 15.633274 15.588359 16.09375 14.9375 C 16.314597 14.73276 16.875514 15.414904 17.34375 15.28125 C 17.737118 15.23524 18.183526 15.392769 18.53125 15.15625 C 18.792009 14.891786 18.83227 14.478344 18.625 14.15625 C 18.342097 13.845561 17.950394 13.96151 17.5625 13.9375 C 16.879053 14.065791 16.562732 12.921989 15.78125 13.34375 C 15.317626 13.37778 15.067288 14.391451 14.90625 13.5625 C 14.66896 12.938522 14.192286 12.222038 13.4375 12.28125 C 12.533584 12.31913 12.258265 13.284257 11.96875 13.96875 C 11.692158 14.23725 11.113914 13.68638 10.6875 13.90625 C 10.589406 12.201424 10.616344 10.505116 10.375 8.8125 C 10.320627 8.2896037 10.206133 7.5718085 9.53125 7.5625 z "
       transform="translate(0,-2)"
       id="path4117" />
    <path
       transform="translate(0.19002514,0.19965282)"
       style="font-size:medium;font-style:normal;font-variant:normal;font-weight:normal;font-stretch:normal;text-indent:0;text-align:start;text-decoration:none;line-height:normal;letter-spacing:normal;word-spacing:normal;text-transform:none;direction:ltr;block-progression:tb;writing-mode:lr-tb;text-anchor:start;baseline-shift:baseline;color:#000000;fill:url(#linearGradient4110);fill-opacity:1;fill-rule:nonzero;stroke:none;stroke-width:1px;marker:none;visibility:visible;display:inline;overflow:visible;enable-background:accumulate;font-family:Sans;-inkscape-font-specification:Sans"
       d="m 9.3377249,5.75 c -0.1381566,1.01e-5 -0.2076398,0.081707 -0.25,0.125 -0.049335,0.050422 -0.1044579,0.08299 -0.125,0.125 -0.023866,0.048794 -0.062239,0.1523681 -0.09375,0.28125 -0.053683,0.2195607 -0.084634,0.4822146 -0.125,0.8125 -0.081862,0.6698058 -0.1340906,1.5630151 -0.1875,2.4375 -0.080405,1.316475 -0.1050519,2.126242 -0.125,2.625 C 8.2414801,12.07246 8.053421,12.02676 7.9002249,12 c -0.1903087,-0.03324 -0.3270998,-0.0482 -0.4375,-0.15625 -0.1238783,-0.121236 -0.2581512,-0.346491 -0.34375,-0.8125 8.371e-4,-0.01039 8.371e-4,-0.02086 0,-0.03125 -0.01912,-0.04084 -0.052907,-0.07463 -0.09375,-0.09375 -0.00919,-0.01156 -0.019693,-0.02206 -0.03125,-0.03125 -0.010394,-8.37e-4 -0.020856,-8.37e-4 -0.03125,0 -0.010394,-8.37e-4 -0.020856,-8.37e-4 -0.03125,0 l -0.21875,0 c -0.010394,-8.37e-4 -0.020856,-8.37e-4 -0.03125,0 -0.010394,-8.37e-4 -0.020856,-8.37e-4 -0.03125,0 -0.022487,0.0065 -0.043773,0.01719 -0.0625,0.03125 -0.029408,0.02423 -0.051446,0.05729 -0.0625,0.09375 -0.00336,0.02065 -0.00336,0.04185 0,0.0625 l 0,0.03125 c -4.77e-5,0.0047 -0.00907,0.297032 -0.0625,0.59375 -0.02817,0.15648 -0.089462,0.307797 -0.125,0.375 -0.037679,0.07125 -0.043228,0.0625 0,0.0625 L 2,12.125 c -0.010394,-8.37e-4 -0.020856,-8.37e-4 -0.03125,0 -0.010394,-8.37e-4 -0.020856,-8.37e-4 -0.03125,0 -0.022487,0.0065 -0.043773,0.01719 -0.0625,0.03125 -0.029408,0.02423 -0.051446,0.05729 -0.0625,0.09375 -0.00336,0.02065 -0.00336,0.04185 0,0.0625 l 0,0.21875 c -8.372e-4,0.01039 -8.372e-4,0.02086 0,0.03125 -8.372e-4,0.01039 -8.372e-4,0.02086 0,0.03125 0.00654,0.02249 0.017186,0.04377 0.03125,0.0625 0.024229,0.02941 0.057286,0.05145 0.09375,0.0625 0.020652,0.0034 0.041848,0.0034 0.0625,0 l 4.3377249,0 c 0.2528256,0 0.4636933,-0.156904 0.5625,-0.34375 0.035982,-0.06804 0.037876,-0.146167 0.0625,-0.21875 0.022513,0.02763 0.036181,0.06799 0.0625,0.09375 0.2402781,0.235152 0.521764,0.33513 0.75,0.375 0.2131841,0.03724 0.3710882,0.05587 0.4375,0.09375 0.041113,0.02345 0.06978,0.05334 0.09375,0.09375 0.02115,0.03565 0.043885,0.112367 0.0625,0.21875 2.14e-4,-0.0061 -0.00603,-0.01058 0,0.03125 -3.257e-4,0.0056 -0.00295,0.0089 0,0.03125 0.00217,0.03323 0.013042,0.06586 0.03125,0.09375 0.00919,0.01156 0.019693,0.02206 0.03125,0.03125 0.027887,0.01821 0.060516,0.02908 0.09375,0.03125 0.010394,8.37e-4 0.020856,8.37e-4 0.03125,0 0.010394,8.37e-4 0.020856,8.37e-4 0.03125,0 l 0.25,-0.03125 c 0.033234,-0.0022 0.065863,-0.01304 0.09375,-0.03125 0.011557,-0.0092 0.022063,-0.01969 0.03125,-0.03125 0.014064,-0.01873 0.024707,-0.04001 0.03125,-0.0625 0.00336,-0.02065 0.00336,-0.04185 0,-0.0625 0.00103,-0.0342 0.050643,-1.739622 0.15625,-3.46875 0.041363,-0.6772479 0.1027378,-1.2723645 0.15625,-1.84375 0.061332,0.7495245 0.1153003,1.626926 0.15625,2.5625 0.04607,1.052565 0.08612,2.08194 0.125,2.875 0.019491,0.39757 0.041456,0.762266 0.0625,1 0.01038,0.117239 0.01677,0.198668 0.03125,0.28125 -0.0023,0.01866 -0.02371,0.05776 0,0.125 0.02102,0.05954 0.08759,0.120869 0.09375,0.125 0.02076,0.0215 0.03306,0.04473 0.0625,0.0625 0.04416,0.02666 0.109333,0.03219 0.1875001,0.03125 0.0679,-7.93e-4 0.145429,-0.02271 0.1875,-0.0625 0.04207,-0.03979 0.07046,-0.0714 0.0625,-0.0625 0.01881,-0.01478 0.07036,-0.04574 0.09375,-0.09375 0.03721,-0.07641 0.06489,-0.178875 0.09375,-0.28125 0.05494,-0.194851 0.08473,-0.431323 0.125,-0.65625 0.08333,-0.465487 0.125,-0.90625 0.125,-0.90625 8.37e-4,-0.01039 8.37e-4,-0.02086 0,-0.03125 3.69e-4,-0.008 -0.0037,-0.01971 0,-0.03125 -0.0059,0.0016 0.08204,-0.007 0.21875,0.03125 0.139972,0.03919 0.347986,0.117727 0.5625,0.15625 0.209608,0.03765 0.458504,0.03489 0.6875,-0.09375 0.458485,-0.257571 0.606008,-0.755571 0.75,-1.125 0.07854,-0.20149 0.134474,-0.368037 0.1875,-0.4375 0.06544,-0.08573 0.0888,-0.118959 0.1875,-0.125 0.04312,-0.0026 0.073,0.01671 0.09375,0.03125 0.02075,0.01454 0.04462,0.05625 0.09375,0.125 0.09058,0.126751 0.186304,0.311192 0.28125,0.53125 0.09519,0.22063 0.192685,0.500401 0.375,0.71875 0.186169,0.222963 0.471623,0.371039 0.8125,0.34375 0.221357,-0.01772 0.4228,-0.06428 0.5625,-0.1875 0.13451,-0.118634 0.210184,-0.261264 0.25,-0.34375 0.04435,-0.09188 0.06461,-0.189613 0.0625,-0.1875 0.0414,-0.04151 0.0021,-0.02556 0.09375,-0.03125 -0.01535,-0.0067 0.008,-0.02262 0.03125,0 0.02691,0.02619 0.08781,0.143582 0.1875,0.25 0.21191,0.226214 0.595688,0.432657 1.25,0.40625 l 0.599775,0 c 0.01039,8.37e-4 0.02086,8.37e-4 0.03125,0 0.01039,8.37e-4 0.02086,8.37e-4 0.03125,0 0.02249,-0.0065 0.04377,-0.01719 0.0625,-0.03125 0.02941,-0.02423 0.05145,-0.05729 0.0625,-0.09375 0.0034,-0.02065 0.0034,-0.04185 0,-0.0625 l 0,-0.21875 c 8.37e-4,-0.01039 8.37e-4,-0.02086 0,-0.03125 8.37e-4,-0.01039 8.37e-4,-0.02086 0,-0.03125 C 18.181,12.22751 18.17031,12.20623 18.15625,12.1875 18.13202,12.15809 18.09896,12.13605 18.0625,12.125 18.04185,12.1216 18.02065,12.1216 18,12.125 l -0.599775,0 c -0.535343,0.02342 -0.656832,-0.08593 -0.78125,-0.21875 -0.04201,-0.04485 -0.102669,-0.136998 -0.21875,-0.25 -0.115469,-0.112394 -0.267236,-0.200012 -0.46875,-0.1875 -0.210344,0.0131 -0.398293,0.08544 -0.53125,0.21875 -0.112191,0.11248 -0.18298,0.207145 -0.21875,0.28125 -0.04765,0.09869 -0.06383,0.157424 -0.0625,0.15625 -0.0011,9.9e-4 -0.05217,0.05167 -0.1875,0.0625 -0.152896,0.01225 -0.184419,-0.009 -0.28125,-0.125 -0.08917,-0.10679 -0.184297,-0.306544 -0.28125,-0.53125 -0.09477,-0.219661 -0.193092,-0.47668 -0.34375,-0.6875 -0.161695,-0.226265 -0.420296,-0.395182 -0.75,-0.375 -0.279866,0.01713 -0.513525,0.156778 -0.65625,0.34375 -0.144844,0.189747 -0.208607,0.407376 -0.28125,0.59375 -0.152093,0.390215 -0.315519,0.757667 -0.46875,0.84375 -0.02497,0.01403 -0.148385,0.02386 -0.28125,0 -0.119955,-0.02154 -0.278217,-0.102899 -0.46875,-0.15625 -0.178003,-0.04985 -0.388657,-0.08672 -0.59375,-0.03125 -0.08455,0.02287 -0.215432,0.06749 -0.3125,0.21875 -0.05608,0.0874 -0.05363,0.167745 -0.0625,0.25 -0.03098,-0.700605 -0.05751,-1.453155 -0.09375,-2.28125 -0.04612,-1.0536254 -0.0864,-2.1351925 -0.1562501,-2.9375 -0.03504,-0.4025375 -0.07913,-0.7225139 -0.125,-0.96875 -0.02121,-0.1138522 -0.02119,-0.2060524 -0.0625,-0.3125 C 9.683535,5.9560246 9.638653,5.8998118 9.618975,5.875 9.5747826,5.8192785 9.465036,5.75 9.3377249,5.75 z"
       id="path4108"
       inkscape:connector-curvature="0"
       sodipodi:nodetypes="cscssscssccccccccccccccscccccccccccccscccssccccccccccccccscssccccccscccccccccccccssssscscccscccccccccccccccccccccccssssccccccssscsc" />
    <path
       sodipodi:type="arc"
       style="color:#000000;fill:url(#radialGradient4128);fill-opacity:1;fill-rule:nonzero;stroke:none;stroke-width:4;marker:none;visibility:visible;display:inline;overflow:visible;enable-background:accumulate"
       id="path4185"
       sodipodi:cx="74"
       sodipodi:cy="55"
       sodipodi:rx="2"
       sodipodi:ry="2"
       d="m 76,55 c 0,1.104569 -0.895431,2 -2,2 -1.104569,0 -2,-0.895431 -2,-2 0,-1.104569 0.895431,-2 2,-2 1.104569,0 2,0.895431 2,2 z"
       transform="matrix(0.79929679,0,0,0.79929679,-40.647922,-31.407917)" />
    <path
       style="opacity:0.14999999999999999;color:#000000;fill:url(#linearGradient3868);fill-opacity:1;fill-rule:nonzero;stroke:none;stroke-width:2;marker:none;visibility:visible;display:inline;overflow:visible;enable-background:accumulate"
       d="M 12,2 17.0625,22 20,22 c 1.108,0 2,-0.892 2,-2 L 22,4 C 22,2.892 21.108,2 20,2 z"
       transform="translate(0,-2)"
       id="rect3088"
       inkscape:connector-curvature="0"
       sodipodi:nodetypes="ccssssc" />
  </g>
  <g
     inkscape:groupmode="layer"
     id="layer2"
     inkscape:label="Highlight"
     transform="translate(0,2)"
     sodipodi:insensitive="true"
     style="display:none">
    <rect
       style="opacity:0.15;fill:#ffffff;fill-opacity:1;fill-rule:nonzero;stroke:none;display:inline;filter:url(#filter3194)"
       id="rect2410"
       width="16"
       height="16"
       x="3"
       y="3"
       rx="2"
       ry="2"
       clip-path="url(#clipPath2849)"
       transform="translate(1,-1)" />
  </g>
  <g
     inkscape:groupmode="layer"
     id="layer3"
     inkscape:label="Symbol"
     transform="translate(0,2)" />
</svg>
